<svg width="126" height="84" viewBox="0 0 126 84" fill="none" xmlns="http://www.w3.org/2000/svg">
    <path opacity="0.6" d="M55.6803 77.56C50.2403 81.48 43.6803 83.44 36.0003 83.44C28.3203 83.44 21.7203 81.48 16.2003 77.56C10.7603 73.56 6.76031 68.52 4.20031 62.44C1.72031 56.28 0.480313 49.48 0.480313 42.04C0.480313 30.44 3.56031 20.68 9.72031 12.76C15.8803 4.76 24.6403 0.759995 36.0003 0.759995C47.3603 0.759995 56.1203 4.76 62.2803 12.76C68.4403 20.68 71.5203 30.44 71.5203 42.04C71.5203 49.48 70.2403 56.28 67.6803 62.44C65.2003 68.52 61.2003 73.56 55.6803 77.56ZM24.8403 42.04C24.8403 55.4 28.5603 62.08 36.0003 62.08C43.4403 62.08 47.1603 55.4 47.1603 42.04C47.1603 28.76 43.4403 22.12 36.0003 22.12C28.5603 22.12 24.8403 28.76 24.8403 42.04ZM125.152 82H100.912V32.8L87.3519 46.24L73.6719 31.96L104.272 1.95999H125.152V82Z" fill="#FFD3D3"/>
</svg>
