<svg width="145" height="84" viewBox="0 0 145 84" fill="none" xmlns="http://www.w3.org/2000/svg">
    <path opacity="0.6" d="M55.8873 77.56C50.4473 81.48 43.8873 83.44 36.2073 83.44C28.5273 83.44 21.9273 81.48 16.4073 77.56C10.9673 73.56 6.96734 68.52 4.40734 62.44C1.92734 56.28 0.687344 49.48 0.687344 42.04C0.687344 30.44 3.76734 20.68 9.92734 12.76C16.0873 4.76 24.8473 0.759995 36.2073 0.759995C47.5673 0.759995 56.3273 4.76 62.4873 12.76C68.6473 20.68 71.7273 30.44 71.7273 42.04C71.7273 49.48 70.4473 56.28 67.8873 62.44C65.4073 68.52 61.4073 73.56 55.8873 77.56ZM25.0473 42.04C25.0473 55.4 28.7673 62.08 36.2073 62.08C43.6473 62.08 47.3673 55.4 47.3673 42.04C47.3673 28.76 43.6473 22.12 36.2073 22.12C28.7673 22.12 25.0473 28.76 25.0473 42.04ZM144.199 82H78.7989V63.16C88.7989 56.12 96.1189 50.92 100.759 47.56C105.399 44.2 109.279 41.16 112.399 38.44C115.519 35.72 117.359 33.76 117.919 32.56C118.559 31.36 118.879 29.96 118.879 28.36C118.879 26.52 117.999 25.04 116.239 23.92C114.479 22.72 112.279 22.12 109.639 22.12C102.119 22.12 95.0789 24.88 88.5189 30.4L75.3189 14.32C79.6389 9.68 84.7989 6.27999 90.7989 4.11999C96.8789 1.87999 102.999 0.759995 109.159 0.759995C119.479 0.759995 127.759 3.35999 133.999 8.55999C140.319 13.68 143.479 20.28 143.479 28.36C143.479 33.96 141.599 39.24 137.839 44.2C134.079 49.16 127.519 54.72 118.159 60.88H144.199V82Z" fill="#FFD3D3"/>
</svg>
