<svg width="145" height="84" viewBox="0 0 145 84" fill="none" xmlns="http://www.w3.org/2000/svg">
    <path opacity="0.6" d="M55.653 77.56C50.213 81.48 43.653 83.44 35.973 83.44C28.293 83.44 21.693 81.48 16.173 77.56C10.733 73.56 6.73297 68.52 4.17297 62.44C1.69297 56.28 0.452969 49.48 0.452969 42.04C0.452969 30.44 3.53297 20.68 9.69297 12.76C15.853 4.76 24.613 0.759995 35.973 0.759995C47.333 0.759995 56.093 4.76 62.253 12.76C68.413 20.68 71.493 30.44 71.493 42.04C71.493 49.48 70.213 56.28 67.653 62.44C65.173 68.52 61.173 73.56 55.653 77.56ZM24.813 42.04C24.813 55.4 28.533 62.08 35.973 62.08C43.413 62.08 47.133 55.4 47.133 42.04C47.133 28.76 43.413 22.12 35.973 22.12C28.533 22.12 24.813 28.76 24.813 42.04ZM109.645 83.44C102.045 83.44 95.2445 82.32 89.2445 80.08C83.3245 77.76 78.6045 74.72 75.0845 70.96L86.9645 54.4C89.8445 56.88 93.3245 58.8 97.4045 60.16C101.485 61.44 105.245 62.08 108.685 62.08C112.445 62.08 115.325 61.56 117.325 60.52C119.325 59.48 120.325 58.2 120.325 56.68C120.325 55.16 119.485 54.08 117.805 53.44C116.205 52.72 112.925 52.36 107.965 52.36C101.805 52.36 97.9245 52.44 96.3245 52.6V31.12C97.3645 31.2 101.245 31.24 107.965 31.24C115.325 31.24 119.005 29.92 119.005 27.28C119.005 23.84 115.045 22.12 107.125 22.12C99.6845 22.12 93.1645 24.44 87.5645 29.08L76.1645 13.96C84.1645 5.16 95.3645 0.759995 109.765 0.759995C120.565 0.759995 128.805 2.75999 134.485 6.76C140.245 10.76 143.125 16.16 143.125 22.96C143.125 27.2 141.445 31.04 138.085 34.48C134.805 37.84 130.605 39.92 125.485 40.72C130.365 41.28 134.725 43.24 138.565 46.6C142.485 49.96 144.445 54.24 144.445 59.44C144.445 66.56 141.245 72.36 134.845 76.84C128.445 81.24 120.045 83.44 109.645 83.44Z" fill="#FFD3D3"/>
</svg>
