<svg width="346" height="280" viewBox="0 0 346 280" fill="none" xmlns="http://www.w3.org/2000/svg">
    <rect width="345.333" height="280" fill="white"/>
    <path d="M70.6453 174.824C98.3214 174.824 120.757 152.403 120.757 124.745C120.757 97.0876 98.3214 74.6666 70.6453 74.6666C42.9691 74.6666 20.5332 97.0876 20.5332 124.745C20.5332 152.403 42.9691 174.824 70.6453 174.824Z" fill="#F1F1FB"/>
    <path d="M85.8977 109.358C85.8992 111.393 85.4923 113.408 84.701 115.283C83.9097 117.159 82.7502 118.856 81.2909 120.276C81.1109 120.45 80.9267 120.621 80.7363 120.787C77.9495 123.244 74.3608 124.6 70.6441 124.6C66.9275 124.6 63.3387 123.244 60.552 120.787C60.3616 120.62 60.1767 120.448 59.9973 120.272C58.1956 118.516 56.8565 116.343 56.0994 113.944C55.3422 111.546 55.1906 108.998 55.658 106.527C56.1254 104.056 57.1972 101.739 58.7781 99.7827C60.3589 97.8262 62.3995 96.2909 64.7182 95.3137C67.0368 94.3366 69.5613 93.9478 72.0667 94.1822C74.5721 94.4166 76.9806 95.2668 79.0775 96.657C81.1743 98.0472 82.8944 99.9343 84.0844 102.15C85.2744 104.366 85.8974 106.841 85.8977 109.356V109.358Z" fill="#9595CB"/>
    <path d="M100.529 155.474H40.7588C40.755 151.573 41.5263 147.709 43.028 144.108C44.5296 140.507 46.7318 137.239 49.5068 134.495C52.4891 131.532 56.062 129.231 59.9932 127.74C60.1726 127.894 60.3574 128.044 60.5478 128.189C63.4677 130.351 67.0057 131.519 70.64 131.519C74.2743 131.519 77.8123 130.351 80.7322 128.189C80.9226 128.044 81.1067 127.893 81.2868 127.742C85.2176 129.232 88.79 131.533 91.7711 134.495C94.548 137.238 96.752 140.505 98.2555 144.107C99.759 147.708 100.532 151.572 100.529 155.474Z" fill="#9595CB"/>
    <path d="M101.287 156.134H40.001V155.472C39.993 151.488 40.7794 147.542 42.3145 143.865C43.8495 140.188 46.1024 136.853 48.9415 134.056C51.9988 131.014 55.6666 128.654 59.7031 127.132L60.1729 126.954L60.5372 127.268C60.7055 127.413 60.8793 127.551 61.0587 127.682C63.7098 129.725 67.1142 130.848 70.6511 130.848C74.1879 130.848 77.5965 129.725 80.2434 127.684C80.4255 127.546 80.6015 127.404 80.7712 127.258L81.1354 126.95L81.601 127.126C85.6381 128.646 89.3062 131.005 92.3627 134.048C95.2018 136.845 97.4547 140.18 98.9897 143.857C100.525 147.534 101.311 151.48 101.303 155.464L101.287 156.134ZM41.5242 154.812H99.7655C99.6249 149.118 97.8135 143.591 94.5562 138.917C91.2989 134.243 86.7393 130.628 81.4438 128.522L81.2368 128.683C78.3125 130.935 74.5501 132.176 70.6428 132.176C66.7355 132.176 62.9751 130.935 60.0508 128.681L59.8439 128.52C54.5485 130.626 49.989 134.241 46.7318 138.915C43.4745 143.589 41.663 149.116 41.5222 154.81L41.5242 154.812Z" fill="#9595CB"/>
    <path d="M276.643 142.731H69.6338V260.095H276.643V142.731Z" fill="#F6BC73"/>
    <path d="M276.642 142.731L252.916 156.182L173.135 201.411L93.3604 156.189L69.6289 142.731H276.642Z" fill="#F59E35"/>
    <path d="M69.6338 142.731L173.138 84.0487L276.643 142.731H69.6338Z" fill="#F6BC73"/>
    <path d="M252.917 100.956V156.182L173.136 201.411L93.3613 156.189V100.956H252.917Z" fill="#F2F2F2"/>
    <path opacity="0.9" d="M197.134 142.731C193.906 134.646 186.453 129.631 176.194 129.631C166.414 129.631 157.465 134.483 152.219 142.731C149.172 147.512 147.376 153.434 147.376 160.209C147.376 176.341 158.179 184.975 171.697 184.975C176.495 184.975 180.828 183.836 184.851 181.459L183.332 178.066C179.945 180.064 176.09 181.134 172.157 181.168C160.393 181.168 151.598 173.516 151.598 160.025C151.598 153.086 153.798 147.202 157.295 142.735C161.904 136.837 168.765 133.447 175.772 133.447C184.119 133.447 189.822 137.048 192.712 142.735C194.175 145.606 194.911 149.002 194.911 152.737C194.911 161.698 189.957 167.007 185.64 167.007C181.826 167.007 180.509 164.389 181.861 158.929L184.57 145.111H180.774L180.021 147.916H179.887C178.605 145.602 176.722 144.549 174.336 144.549C166.288 144.549 161.064 153.235 161.064 160.587C161.064 166.848 164.708 170.343 169.417 170.343C172.44 170.343 175.559 168.285 177.792 165.615H177.927C178.407 169.104 181.312 170.864 185.081 170.864C191.375 170.864 198.908 164.598 198.908 152.54C198.902 148.933 198.287 145.63 197.134 142.731ZM176.853 162.36C174.46 165.218 172.395 166.434 170.454 166.434C167.68 166.434 165.617 164.674 165.617 160.244C165.617 155.036 168.963 148.518 174.386 148.518C176.248 148.518 177.49 149.295 178.808 151.394L176.853 162.36Z" fill="#273271"/>
    <path d="M252.919 109.847H93.3613V119.915H252.919V109.847Z" fill="#FF8888"/>
    <path d="M287.238 263.905C264.092 251.128 249.986 228.461 249.986 204.042V176.366C257.458 177.18 265.014 176.734 272.337 175.044C277.512 173.846 282.518 172.008 287.238 169.574C291.814 171.963 296.667 173.78 301.688 174.984C309.15 176.764 316.865 177.231 324.488 176.366V204.042C324.49 228.461 310.384 251.126 287.238 263.905Z" fill="#B8B8E8"/>
    <path d="M287.238 257.208C277.996 251.56 270.297 244.03 264.854 235.286C258.919 225.749 255.781 214.947 255.781 204.056V182.547C256.285 182.557 256.788 182.562 257.29 182.564C262.797 182.568 268.287 181.944 273.652 180.702C278.324 179.612 282.872 178.045 287.224 176.026C291.428 177.992 295.82 179.529 300.332 180.614C305.788 181.921 311.38 182.58 316.99 182.576C317.557 182.576 318.126 182.569 318.696 182.556V204.042C318.696 214.941 315.558 225.743 309.623 235.271C304.18 244.028 296.481 251.558 287.238 257.208Z" fill="#F1F1FB"/>
    <path d="M286.041 224.416C285.39 224.506 284.726 224.386 284.147 224.073C283.569 223.759 283.106 223.269 282.827 222.673L275.754 207.5C275.571 207.132 275.463 206.73 275.438 206.32C275.413 205.909 275.47 205.498 275.606 205.109C275.742 204.721 275.954 204.364 276.231 204.059C276.507 203.754 276.842 203.508 277.215 203.334C277.588 203.16 277.992 203.063 278.403 203.047C278.815 203.032 279.225 203.099 279.61 203.245C279.995 203.39 280.347 203.611 280.645 203.895C280.943 204.178 281.182 204.519 281.346 204.896L286.465 215.876L303.502 195.976C304.066 195.428 304.817 195.116 305.603 195.104C306.39 195.091 307.151 195.378 307.732 195.908C308.313 196.437 308.67 197.168 308.73 197.951C308.79 198.735 308.548 199.512 308.054 200.123L287.906 223.445C287.418 223.977 286.758 224.32 286.041 224.416Z" fill="#9595CB"/>
    <rect x="157.054" y="29.4956" width="11.2" height="5.6" rx="2.8" transform="rotate(-14.5401 157.054 29.4956)" fill="#FF8888"/>
    <rect x="180.017" y="25.2" width="11.2" height="5.6" rx="2.8" transform="rotate(0.397165 180.017 25.2)" fill="#FF8888"/>
    <rect x="204.85" y="26.5521" width="11.2" height="5.6" rx="2.8" transform="rotate(17.4844 204.85 26.5521)" fill="#FFA0A0"/>
    <rect x="227.396" y="33.8883" width="11.2" height="5.6" rx="2.8" transform="rotate(28.3253 227.396 33.8883)" fill="#FFA0A0"/>
    <rect x="247.074" y="45.7333" width="11.2" height="5.6" rx="2.8" transform="rotate(40.4073 247.074 45.7333)" fill="#FFB8B8"/>
    <rect x="263.807" y="62.5333" width="11.2" height="5.6" rx="2.8" transform="rotate(53.4032 263.807 62.5333)" fill="#FFB8B8"/>
    <rect x="276.69" y="83.0667" width="11.2" height="5.6" rx="2.8" transform="rotate(69.5233 276.69 83.0667)" fill="#FFCFCF"/>
    <rect x="283.902" y="106.136" width="11.2" height="5.6" rx="2.8" transform="rotate(83.8671 283.902 106.136)" fill="#FFCFCF"/>
    <rect x="285.012" y="130.475" width="11.2" height="5.6" rx="2.8" transform="rotate(97.6124 285.012 130.475)" fill="#FFDBDB"/>
    <path d="M106.244 60.2532L137.988 43.736L134.818 66.9169L106.244 60.2532Z" fill="#FCE1C0"/>
    <path d="M137.988 43.736L148.603 49.946L138.919 32.414L106.244 60.2532L137.988 43.736Z" fill="#FCD4A3"/>
    <path d="M148.603 49.9464L136.564 54.1526L137.988 43.7365L148.603 49.9464Z" fill="#F4C387"/>
    <path d="M106.244 60.2532L141.52 18.662L138.919 32.414L106.244 60.2532Z" fill="#FCE1C0"/>
</svg>
