<svg width="674" height="482" viewBox="0 0 674 482" fill="none" xmlns="http://www.w3.org/2000/svg">
    <path fill-rule="evenodd" clip-rule="evenodd" d="M721.212 304.677C715.488 354.58 705.736 400.424 670.362 442.794C635.331 484.754 549.098 458.603 478.719 461.499C416.128 464.076 338.92 452.562 278.222 438.469C209.275 422.46 129.17 451.631 80.0589 413.214C27.7216 372.272 12.6258 314.556 13.4717 260.986C14.3435 205.779 38.3484 126.904 104.847 99.9761C173.625 72.125 262.729 137.762 341.366 126.306C418.869 115.016 452.125 32.5488 532.155 37.7272C610.074 42.769 681.357 96.4513 703.973 149.769C725.799 201.223 727.235 252.162 721.212 304.677Z" fill="#FEF0E0"/>
    <path d="M241.973 347.717C241.973 347.717 229.972 363.903 241.973 375.139H95.2435C95.2435 375.139 80.2217 372.154 80.2217 361.428C80.2217 350.703 85.0828 343.527 106.728 344.182C128.372 344.836 241.973 347.717 241.973 347.717Z" fill="#FCE1C0"/>
    <path d="M241.972 383H99.8976C86.5307 383 75.6572 373.323 75.6572 361.428C75.6572 349.534 86.5307 339.857 99.8976 339.857H241.972V347.717H99.8976C91.4016 347.717 84.4922 353.869 84.4922 361.428C84.4922 368.987 91.4049 375.139 99.8976 375.139H241.972V383Z" fill="url(#paint0_linear)"/>
    <path d="M96.3184 268.337C96.3184 268.337 108.319 284.522 96.3184 295.758H243.048C243.048 295.758 258.069 292.773 258.069 282.047C258.069 271.322 253.208 264.147 231.563 264.801C209.918 265.455 96.3184 268.337 96.3184 268.337Z" fill="url(#paint1_linear)"/>
    <path d="M96.3184 303.62H238.394C251.761 303.62 262.634 293.943 262.634 282.048C262.634 270.153 251.765 260.477 238.394 260.477H96.3184V268.337H238.394C246.89 268.337 253.799 274.489 253.799 282.048C253.799 289.607 246.887 295.759 238.394 295.759H96.3184V303.62Z" fill="url(#paint2_linear)"/>
    <path d="M246.09 304.132H88.2782C88.0264 304.132 87.8223 304.338 87.8223 304.593V339.606C87.8223 339.861 88.0264 340.068 88.2782 340.068H246.09C246.342 340.068 246.546 339.861 246.546 339.606V304.593C246.546 304.338 246.342 304.132 246.09 304.132Z" fill="#C9CEF2"/>
    <g opacity="0.67">
        <path opacity="0.67" d="M225.982 332.368H108.566V312.136H225.982V332.368ZM109.809 331.063H224.743V313.443H109.809V331.063Z" fill="#FF8888"/>
    </g>
    <g opacity="0.67">
        <path opacity="0.67" d="M211.526 321.6H121.368V322.905H211.526V321.6Z" fill="#FF8888"/>
    </g>
    <g opacity="0.27">
        <path opacity="0.27" d="M614.55 256.327L609.377 255.994C609.352 254.244 609.24 252.517 609.069 250.808L614.171 249.856C614.785 249.742 615.37 249.506 615.894 249.162C616.417 248.819 616.869 248.374 617.222 247.854C617.576 247.333 617.825 246.747 617.956 246.13C618.086 245.512 618.095 244.874 617.982 244.253C617.869 243.631 617.636 243.039 617.297 242.508C616.957 241.978 616.518 241.521 616.004 241.162C615.491 240.804 614.912 240.552 614.302 240.42C613.692 240.288 613.063 240.279 612.449 240.393L607.365 241.344C606.737 238.939 605.961 236.576 605.04 234.27L609.642 231.928C610.199 231.645 610.696 231.253 611.104 230.775C611.512 230.297 611.823 229.742 612.019 229.142C612.216 228.543 612.293 227.91 612.248 227.279C612.203 226.649 612.035 226.034 611.755 225.47C611.475 224.905 611.088 224.402 610.616 223.989C610.144 223.576 609.597 223.261 609.005 223.062C608.412 222.863 607.787 222.784 607.165 222.83C606.543 222.876 605.936 223.046 605.378 223.329L600.759 225.679C599.781 224.046 598.713 222.473 597.588 220.946L601.492 217.481C602.426 216.636 602.994 215.451 603.07 214.184C603.147 212.918 602.726 211.672 601.9 210.718C601.074 209.764 599.909 209.179 598.659 209.091C597.409 209.002 596.176 209.418 595.227 210.246L591.32 213.714C590.066 212.479 588.76 211.302 587.403 210.183L590.348 205.848C590.702 205.328 590.951 204.742 591.082 204.124C591.212 203.506 591.221 202.869 591.108 202.247C590.995 201.626 590.762 201.033 590.423 200.503C590.084 199.973 589.645 199.515 589.131 199.157C588.617 198.798 588.039 198.546 587.428 198.414C586.818 198.282 586.189 198.273 585.575 198.387C584.962 198.502 584.376 198.738 583.853 199.081C583.329 199.425 582.878 199.87 582.524 200.39L579.583 204.714C577.691 203.605 575.741 202.604 573.74 201.714L575.435 196.755C575.639 196.158 575.725 195.526 575.688 194.895C575.651 194.264 575.492 193.647 575.219 193.079C574.946 192.51 574.566 192.002 574.099 191.582C573.633 191.163 573.089 190.841 572.5 190.634C571.91 190.427 571.286 190.34 570.663 190.378C570.04 190.415 569.431 190.577 568.87 190.853C568.309 191.129 567.807 191.514 567.392 191.987C566.978 192.459 566.66 193.01 566.456 193.607L564.76 198.564C562.845 198.056 560.906 197.647 558.951 197.337L559.334 192.117C559.383 191.485 559.308 190.85 559.114 190.248C558.92 189.646 558.61 189.089 558.203 188.608C557.796 188.127 557.299 187.733 556.741 187.447C556.183 187.162 555.575 186.99 554.951 186.943C554.327 186.896 553.701 186.974 553.107 187.173C552.513 187.372 551.964 187.687 551.491 188.102C551.018 188.516 550.63 189.02 550.35 189.587C550.07 190.153 549.903 190.77 549.859 191.402L549.474 196.634C547.103 196.648 544.736 196.804 542.383 197.101L541.332 191.965C541.07 190.721 540.333 189.632 539.282 188.937C538.23 188.242 536.949 187.997 535.72 188.255C534.49 188.513 533.411 189.255 532.72 190.316C532.028 191.378 531.779 192.674 532.028 193.92L533.081 199.055C531.402 199.55 529.761 200.127 528.143 200.767L525.879 196.04C525.609 195.468 525.23 194.956 524.764 194.533C524.297 194.11 523.753 193.785 523.162 193.575C522.571 193.366 521.945 193.277 521.32 193.314C520.695 193.351 520.084 193.512 519.521 193.789C518.958 194.066 518.454 194.453 518.039 194.927C517.624 195.402 517.306 195.955 517.102 196.555C516.899 197.154 516.815 197.789 516.854 198.421C516.894 199.054 517.057 199.673 517.333 200.242L519.597 204.97C517.705 206.1 515.875 207.335 514.117 208.67L510.683 204.721C509.846 203.778 508.676 203.207 507.426 203.133C506.177 203.059 504.949 203.488 504.009 204.326C503.07 205.164 502.495 206.344 502.409 207.609C502.324 208.873 502.735 210.121 503.553 211.081L506.986 215.029C505.62 216.459 504.314 217.946 503.089 219.509L498.788 216.591C498.27 216.237 497.688 215.989 497.075 215.863C496.462 215.736 495.83 215.734 495.216 215.856C494.603 215.977 494.018 216.221 493.498 216.571C492.977 216.922 492.529 217.374 492.181 217.9C491.833 218.427 491.591 219.018 491.469 219.639C491.347 220.26 491.348 220.9 491.471 221.521C491.593 222.143 491.836 222.733 492.185 223.259C492.534 223.785 492.981 224.236 493.503 224.586L497.786 227.493C496.86 229.162 496.016 230.881 495.252 232.649L490.38 230.93C489.788 230.706 489.157 230.605 488.525 230.631C487.893 230.658 487.273 230.812 486.701 231.084C486.129 231.356 485.616 231.742 485.192 232.218C484.769 232.693 484.444 233.25 484.236 233.855C484.027 234.46 483.94 235.1 483.98 235.74C484.02 236.379 484.185 237.004 484.466 237.577C484.747 238.151 485.138 238.662 485.617 239.081C486.095 239.5 486.652 239.817 487.253 240.015L492.145 241.74C491.581 243.922 491.138 246.134 490.818 248.366L485.653 248.032C484.405 247.967 483.181 248.402 482.247 249.245C481.313 250.087 480.745 251.269 480.666 252.533C480.587 253.797 481.002 255.041 481.823 255.997C482.644 256.952 483.804 257.541 485.051 257.636L490.224 257.969C490.254 259.72 490.361 261.443 490.533 263.153L485.43 264.105C484.817 264.219 484.232 264.455 483.708 264.799C483.184 265.142 482.733 265.587 482.379 266.107C482.025 266.628 481.776 267.214 481.646 267.832C481.515 268.45 481.506 269.088 481.619 269.709C481.733 270.331 481.965 270.923 482.305 271.454C482.644 271.984 483.083 272.441 483.597 272.8C484.111 273.158 484.689 273.411 485.299 273.543C485.909 273.675 486.539 273.684 487.153 273.569L492.235 272.62C492.864 275.025 493.642 277.387 494.563 279.694L489.963 282.046C489.406 282.33 488.909 282.722 488.501 283.2C488.093 283.678 487.782 284.233 487.586 284.832C487.389 285.432 487.312 286.065 487.357 286.695C487.402 287.325 487.57 287.94 487.849 288.505C488.129 289.069 488.516 289.573 488.988 289.986C489.46 290.399 490.008 290.714 490.6 290.913C491.192 291.112 491.817 291.19 492.439 291.144C493.061 291.099 493.669 290.929 494.226 290.646L498.845 288.296C499.824 289.928 500.893 291.5 502.017 293.027L498.113 296.493C497.177 297.337 496.608 298.523 496.532 299.79C496.455 301.058 496.875 302.304 497.702 303.259C498.529 304.214 499.695 304.798 500.945 304.886C502.196 304.974 503.43 304.558 504.379 303.728L508.283 300.26C509.538 301.495 510.844 302.673 512.203 303.792L509.257 308.126C508.557 309.178 508.296 310.467 508.529 311.712C508.762 312.958 509.471 314.06 510.502 314.779C511.533 315.499 512.803 315.777 514.035 315.553C515.267 315.33 516.363 314.623 517.083 313.586L520.023 309.262C521.914 310.37 523.865 311.372 525.865 312.262L524.169 317.219C523.757 318.425 523.834 319.747 524.384 320.895C524.935 322.044 525.913 322.923 527.103 323.341C528.294 323.759 529.599 323.681 530.733 323.123C531.867 322.566 532.735 321.576 533.148 320.37L534.842 315.415C536.757 315.921 538.695 316.331 540.65 316.641L540.268 321.861C540.182 323.129 540.596 324.38 541.418 325.34C542.24 326.3 543.404 326.892 544.655 326.986C545.907 327.08 547.144 326.669 548.097 325.843C549.05 325.016 549.642 323.841 549.743 322.574L550.127 317.342C552.498 317.329 554.866 317.173 557.218 316.876L558.271 322.012C558.386 322.642 558.624 323.242 558.971 323.778C559.318 324.314 559.768 324.774 560.293 325.131C560.818 325.488 561.408 325.736 562.029 325.859C562.65 325.982 563.289 325.979 563.908 325.848C564.527 325.718 565.115 325.464 565.636 325.1C566.157 324.737 566.601 324.272 566.942 323.732C567.283 323.193 567.515 322.589 567.623 321.958C567.73 321.327 567.713 320.68 567.57 320.055L566.517 314.922C568.196 314.422 569.837 313.848 571.454 313.21L573.718 317.937C573.989 318.509 574.368 319.021 574.834 319.444C575.3 319.867 575.845 320.192 576.436 320.401C577.027 320.61 577.652 320.699 578.277 320.663C578.902 320.626 579.514 320.465 580.077 320.188C580.64 319.911 581.144 319.524 581.559 319.049C581.974 318.575 582.292 318.022 582.495 317.422C582.699 316.822 582.783 316.188 582.743 315.555C582.704 314.922 582.541 314.304 582.265 313.735L579.999 309.007C581.892 307.877 583.723 306.641 585.481 305.307L588.915 309.256C589.327 309.73 589.827 310.117 590.387 310.395C590.948 310.674 591.556 310.837 592.179 310.877C592.801 310.917 593.425 310.833 594.016 310.628C594.606 310.424 595.151 310.104 595.619 309.686C596.087 309.269 596.469 308.762 596.744 308.195C597.019 307.627 597.18 307.011 597.22 306.38C597.259 305.75 597.176 305.118 596.974 304.52C596.772 303.922 596.456 303.37 596.044 302.896L592.612 298.948C593.977 297.519 595.285 296.031 596.509 294.468L600.81 297.385C601.329 297.737 601.91 297.981 602.522 298.105C603.134 298.229 603.763 298.23 604.375 298.107C604.987 297.984 605.569 297.741 606.088 297.39C606.608 297.04 607.053 296.589 607.4 296.064C607.747 295.539 607.989 294.95 608.111 294.33C608.234 293.711 608.234 293.073 608.113 292.453C607.992 291.833 607.751 291.244 607.405 290.718C607.059 290.193 606.614 289.741 606.096 289.39L601.817 286.484C602.742 284.817 603.586 283.098 604.351 281.328L609.224 283.047C609.815 283.262 610.442 283.357 611.069 283.325C611.696 283.294 612.311 283.137 612.877 282.863C613.444 282.589 613.952 282.205 614.371 281.731C614.79 281.258 615.112 280.705 615.319 280.104C615.525 279.504 615.612 278.868 615.575 278.233C615.537 277.598 615.376 276.977 615.1 276.406C614.824 275.835 614.439 275.325 613.967 274.905C613.495 274.485 612.946 274.165 612.351 273.962L607.459 272.236C608.023 270.054 608.466 267.842 608.785 265.609L613.948 265.943C614.571 265.983 615.195 265.898 615.786 265.694C616.376 265.489 616.921 265.169 617.389 264.752C617.857 264.334 618.24 263.827 618.514 263.26C618.789 262.693 618.951 262.076 618.991 261.446C619.03 260.815 618.947 260.183 618.745 259.585C618.543 258.987 618.227 258.435 617.815 257.961C617.403 257.487 616.902 257.1 616.342 256.821C615.782 256.543 615.173 256.379 614.551 256.339L614.55 256.327ZM558.369 205.215C573.319 207.734 586.069 216.731 593.776 229.23L573.143 239.727C569.12 234.151 563.28 230.195 556.656 228.558L558.369 205.215ZM548.891 204.522L547.179 227.834C540.15 228.479 533.598 231.713 528.765 236.924L509.577 223.91C518.912 212.283 533.049 204.797 548.892 204.522H548.891ZM501.553 276.145C499.369 270.508 498.17 264.529 498.009 258.475L498.602 248.872C499.514 242.924 501.435 237.181 504.281 231.898L523.475 244.918C522.692 246.664 522.083 248.485 521.658 250.355L521.056 259.959C521.248 261.888 521.629 263.793 522.194 265.646L501.553 276.145ZM541.232 308.755C526.28 306.236 513.532 297.239 505.824 284.741L526.46 274.239C530.482 279.817 536.322 283.775 542.946 285.413L541.232 308.755ZM549.656 270.07C547.101 270.041 544.611 269.245 542.503 267.783C540.394 266.321 538.761 264.259 537.809 261.857C536.858 259.455 536.631 256.821 537.158 254.288C537.684 251.756 538.941 249.438 540.768 247.629C542.595 245.819 544.91 244.599 547.422 244.123C549.934 243.646 552.529 243.935 554.878 244.952C557.228 245.969 559.227 247.669 560.623 249.837C562.019 252.005 562.748 254.544 562.72 257.132C562.681 260.602 561.284 263.915 558.834 266.341C556.384 268.767 553.083 270.109 549.657 270.07H549.656ZM550.709 309.448L552.422 286.136C559.452 285.492 566.005 282.258 570.838 277.046L590.023 290.058C580.693 301.689 566.553 309.174 550.71 309.448H550.709ZM600.996 265.098C600.085 271.045 598.164 276.788 595.318 282.071L576.129 269.052C576.912 267.306 577.521 265.485 577.946 263.616L578.545 254.013C578.355 252.083 577.974 250.178 577.408 248.325L598.048 237.823C600.231 243.46 601.43 249.439 601.591 255.493L600.996 265.098Z" fill="white"/>
    </g>
    <path d="M398.758 354.609C392.291 344.88 390.63 340.762 390.63 335.011V312.886H329.944H300.754V335.012C300.754 340.763 299.094 344.881 292.625 354.61C286.157 364.338 277.479 374.253 277.479 375.564V381.927H413.908V375.564C413.908 374.253 405.224 364.337 398.758 354.609Z" fill="#9399B8"/>
    <path style="mix-blend-mode:multiply" d="M300.803 330.472L300.755 329.325V314.553H361.441H390.631V336.679L300.803 330.472Z" fill="url(#paint3_linear)"/>
    <path d="M414.048 375.378H321.863H277.523C277.523 375.378 277.478 379.413 277.478 381.927L413.972 382.336L414.048 375.378Z" fill="url(#paint4_linear)"/>
    <path d="M528.582 309.615C528.583 311.395 528.237 313.158 527.564 314.802C526.892 316.446 525.906 317.941 524.664 319.199C523.421 320.458 521.946 321.456 520.322 322.137C518.699 322.818 516.959 323.169 515.201 323.169H176.185C174.428 323.169 172.687 322.819 171.064 322.138C169.44 321.457 167.964 320.458 166.722 319.2C165.479 317.941 164.493 316.447 163.82 314.802C163.148 313.158 162.802 311.395 162.802 309.615V110.139C162.802 108.358 163.148 106.596 163.82 104.951C164.493 103.307 165.479 101.812 166.721 100.553C167.964 99.2947 169.44 98.2963 171.063 97.6151C172.687 96.9339 174.428 96.5834 176.185 96.5835H515.201C518.751 96.5839 522.154 98.0123 524.664 100.554C527.173 103.096 528.583 106.544 528.582 110.139V309.615Z" fill="#9399B8"/>
    <path d="M528.582 120.536H162.803V293.425H528.582V120.536Z" fill="#E7EFFC"/>
    <path d="M247.852 260.612H180.22C179.762 260.612 179.322 260.427 178.998 260.099C178.674 259.771 178.492 259.325 178.492 258.861C178.492 258.397 178.674 257.952 178.998 257.623C179.322 257.295 179.762 257.111 180.22 257.111H247.852C248.311 257.111 248.75 257.295 249.074 257.623C249.398 257.952 249.581 258.397 249.581 258.861C249.581 259.091 249.536 259.319 249.449 259.531C249.362 259.744 249.235 259.937 249.074 260.099C248.914 260.262 248.723 260.391 248.513 260.479C248.303 260.566 248.079 260.612 247.852 260.612Z" fill="url(#paint5_linear)"/>
    <path d="M247.852 268.614H180.22C179.762 268.614 179.322 268.43 178.998 268.101C178.674 267.773 178.492 267.328 178.492 266.864C178.492 266.399 178.674 265.954 178.998 265.626C179.322 265.298 179.762 265.113 180.22 265.113H247.852C248.311 265.113 248.75 265.298 249.074 265.626C249.398 265.954 249.581 266.399 249.581 266.864C249.581 267.094 249.536 267.321 249.449 267.534C249.362 267.746 249.235 267.939 249.074 268.102C248.914 268.264 248.723 268.393 248.513 268.481C248.303 268.569 248.079 268.614 247.852 268.614Z" fill="url(#paint6_linear)"/>
    <path d="M237.469 276.616H180.22C179.762 276.616 179.322 276.432 178.998 276.103C178.674 275.775 178.492 275.33 178.492 274.866C178.492 274.402 178.674 273.956 178.998 273.628C179.322 273.3 179.762 273.115 180.22 273.115H237.469C237.927 273.115 238.367 273.3 238.691 273.628C239.015 273.956 239.197 274.402 239.197 274.866C239.197 275.33 239.015 275.775 238.691 276.103C238.367 276.432 237.927 276.616 237.469 276.616Z" fill="url(#paint7_linear)"/>
    <g opacity="0.49">
        <g opacity="0.49">
            <path opacity="0.49" d="M509.261 143.542H414.335C412.996 143.542 411.91 142.759 411.91 141.792C411.91 140.825 412.996 140.042 414.335 140.042H509.261C510.601 140.042 511.686 140.825 511.686 141.792C511.69 142.759 510.604 143.542 509.261 143.542Z" fill="url(#paint8_linear)"/>
        </g>
        <g opacity="0.49">
            <path opacity="0.49" d="M509.261 151.545H414.335C412.996 151.545 411.91 150.761 411.91 149.795C411.91 148.828 412.996 148.044 414.335 148.044H509.261C510.601 148.044 511.686 148.828 511.686 149.795C511.69 150.761 510.604 151.545 509.261 151.545Z" fill="url(#paint9_linear)"/>
        </g>
        <g opacity="0.49">
            <path opacity="0.49" d="M494.691 159.547H414.335C412.996 159.547 411.91 158.764 411.91 157.797C411.91 156.83 412.996 156.046 414.335 156.046H494.69C496.03 156.046 497.115 156.83 497.115 157.797C497.116 158.763 496.03 159.547 494.691 159.547Z" fill="url(#paint10_linear)"/>
        </g>
    </g>
    <g opacity="0.34">
        <g opacity="0.34">
            <path opacity="0.34" d="M509.261 174.042H414.335C412.996 174.042 411.91 173.258 411.91 172.291C411.91 171.324 412.996 170.541 414.335 170.541H509.261C510.601 170.541 511.686 171.324 511.686 172.291C511.69 173.258 510.604 174.042 509.261 174.042Z" fill="url(#paint11_linear)"/>
        </g>
        <g opacity="0.34">
            <path opacity="0.34" d="M509.261 182.044H414.335C412.996 182.044 411.91 181.261 411.91 180.294C411.91 179.327 412.996 178.543 414.335 178.543H509.261C510.601 178.543 511.686 179.327 511.686 180.294C511.69 181.261 510.604 182.044 509.261 182.044Z" fill="url(#paint12_linear)"/>
        </g>
        <g opacity="0.34">
            <path opacity="0.34" d="M494.691 190.046H414.335C412.996 190.046 411.91 189.263 411.91 188.296C411.91 187.329 412.996 186.546 414.335 186.546H494.69C496.03 186.546 497.115 187.329 497.115 188.296C497.116 189.263 496.03 190.046 494.691 190.046Z" fill="url(#paint13_linear)"/>
        </g>
    </g>
    <g opacity="0.25">
        <g opacity="0.25">
            <g opacity="0.25">
                <path opacity="0.25" d="M509.261 204.561H414.335C412.996 204.561 411.91 203.777 411.91 202.81C411.91 201.844 412.996 201.06 414.335 201.06H509.261C510.601 201.06 511.686 201.844 511.686 202.81C511.69 203.781 510.604 204.561 509.261 204.561Z" fill="url(#paint14_linear)"/>
            </g>
        </g>
        <g opacity="0.25">
            <g opacity="0.25">
                <path opacity="0.25" d="M509.261 212.563H414.335C412.996 212.563 411.91 211.78 411.91 210.813C411.91 209.846 412.996 209.062 414.335 209.062H509.261C510.601 209.062 511.686 209.846 511.686 210.813C511.69 211.783 510.604 212.563 509.261 212.563Z" fill="url(#paint15_linear)"/>
            </g>
        </g>
        <g opacity="0.25">
            <g opacity="0.25">
                <path opacity="0.25" d="M494.691 220.565H414.335C412.996 220.565 411.91 219.782 411.91 218.815C411.91 217.848 412.996 217.065 414.335 217.065H494.69C496.03 217.065 497.115 217.848 497.115 218.815C497.116 219.784 496.03 220.565 494.691 220.565Z" fill="url(#paint16_linear)"/>
            </g>
        </g>
    </g>
    <path opacity="0.81" d="M201.351 180.067C212.748 180.067 221.987 170.709 221.987 159.166C221.987 147.623 212.748 138.266 201.351 138.266C189.954 138.266 180.715 147.623 180.715 159.166C180.715 170.709 189.954 180.067 201.351 180.067Z" fill="url(#paint17_linear)"/>
    <path opacity="0.81" d="M201.351 159.166L221.791 155.005C222.063 156.375 222.201 157.769 222.202 159.166C222.202 170.752 212.791 180.282 201.354 180.282C189.917 180.282 180.499 170.75 180.499 159.166C180.499 147.582 189.91 138.051 201.347 138.051L201.351 159.166Z" fill="#273271"/>
    <path d="M218.414 171.289C214.584 176.8 208.262 180.282 201.351 180.282C197.609 180.279 193.937 179.258 190.719 177.325C187.501 175.392 184.855 172.619 183.058 169.295L201.351 159.166L218.414 171.289Z" fill="url(#paint18_linear)"/>
    <path opacity="0.81" d="M264.555 177.04C274.528 171.514 278.19 158.846 272.734 148.745C267.279 138.644 254.771 134.935 244.798 140.461C234.825 145.986 231.163 158.654 236.618 168.755C242.074 178.856 254.582 182.566 264.555 177.04Z" fill="url(#paint19_linear)"/>
    <path d="M254.677 158.749L266.818 175.914C264.582 177.535 262.052 178.693 259.372 179.321C256.693 179.948 253.917 180.033 251.205 179.569C239.931 177.641 232.215 166.655 234.119 155.231C236.023 143.807 246.869 135.997 258.149 137.926C260.119 138.263 262.031 138.886 263.827 139.774L254.677 158.749Z" fill="#273271"/>
    <path d="M254.677 158.749L274.263 165.989C272.936 169.672 270.622 172.908 267.582 175.334C264.542 177.76 260.895 179.282 257.05 179.728C253.205 180.173 249.312 179.526 245.81 177.859C242.307 176.191 239.331 173.569 237.217 170.285L254.677 158.749Z" fill="#273271"/>
    <path d="M321.514 114.264L322.596 113.446C324.096 112.312 325.841 111.516 327.698 111.287L327.74 111.282L334.608 110.462L336.126 105.91L330.536 106.509L321.514 114.264Z" fill="#CECABA"/>
    <path d="M403.153 269.098V234.967C403.153 198.868 374.259 169.604 338.618 169.604C302.977 169.604 275.181 198.911 273.442 234.967C273.161 240.79 271.389 254.704 270.352 262.521C267.045 263.379 264.113 265.327 262.02 268.058C259.926 270.79 258.79 274.15 258.79 277.607C258.79 285.633 264.788 292.239 272.491 293.08C272.829 293.162 273.175 293.204 273.522 293.205H403.151L403.153 269.098Z" fill="#F59E35"/>
    <path d="M322.416 143.457H348.919V192.289C348.919 192.56 348.813 192.819 348.624 193.011C348.436 193.202 348.179 193.309 347.912 193.309H323.423C323.156 193.309 322.9 193.202 322.711 193.011C322.522 192.819 322.416 192.56 322.416 192.289V143.457Z" fill="#E8AD90"/>
    <path d="M295.203 179.871L295.367 183.865C295.811 194.766 304.996 202.417 315.874 201.964L321.572 201.726C328.417 201.44 332.353 196.467 332.07 189.61L331.861 156.238L332.778 145.109L344.822 104.429C342.1 102.53 338.999 101.428 335.71 101.428C335.518 101.428 335.325 101.432 335.134 101.438C333.453 101.68 331.778 101.985 330.254 102.367C328.73 102.749 327.349 103.208 326.269 103.757C323.071 105.386 320.427 107 318.189 108.608C311.284 113.565 308.22 118.455 304.578 123.468C301.193 128.127 299.688 133.47 299.619 139.207C299.573 143.034 300.576 146.844 303.092 149.786L307.355 155.896C307.897 156.524 308.195 157.33 308.194 158.164C308.195 158.822 308.011 159.467 307.665 160.024C307.319 160.581 306.824 161.028 306.237 161.312C299.212 164.766 294.887 172.045 295.203 179.871Z" fill="#25132F"/>
    <path d="M335.133 101.441C335.325 101.434 335.517 101.431 335.709 101.431C339.001 101.431 342.099 102.533 344.821 104.431L345.615 101.75L345.959 100.593C345.363 100.593 344.477 100.617 343.393 100.67C341.177 100.777 338.146 101.012 335.133 101.441Z" fill="url(#paint20_linear)"/>
    <path d="M340.513 156.503C354.134 155.934 364.721 144.29 364.16 130.494C363.598 116.698 352.101 105.975 338.48 106.544C324.859 107.113 314.272 118.757 314.834 132.553C315.395 146.349 326.892 157.071 340.513 156.503Z" fill="#E8AD90"/>
    <path d="M334.253 111.996C334.253 111.996 326.062 110.041 320.146 116.011C320.146 116.011 327.223 105.04 333.423 104.433C339.623 103.827 338.99 104.668 338.99 104.668L334.253 111.996Z" fill="url(#paint21_linear)"/>
    <path d="M351.1 100.595C345.222 100.884 334.429 97.7436 333.825 116.793C333.428 129.346 346.634 133.079 352.956 137.065C356.33 139.193 355.314 146.098 351.821 148.022C346.061 151.194 336.955 156.64 336.773 162.316C336.635 166.633 338.519 170.161 342.1 172.781C345.356 175.163 345.371 180.074 342.159 182.519L339.919 184.224C338.674 185.171 337.69 186.427 337.062 187.87C336.434 189.313 336.182 190.895 336.33 192.465C336.601 195.328 337.945 197.976 340.085 199.866C342.226 201.756 345 202.743 347.836 202.625L355.137 202.458C361.709 202.184 368.244 199.073 371.329 193.189L375.263 184.739C379.089 177.444 377.872 168.486 372.673 164.319L369.958 162.118C369.958 162.118 369.28 150.915 368.761 138.009C368.057 120.471 366.01 99.8615 351.1 100.595Z" fill="url(#paint22_linear)"/>
    <path d="M217.582 210.483L220.263 205.782L206.256 197.587C205.951 197.408 205.615 197.293 205.265 197.246C204.916 197.2 204.561 197.223 204.221 197.315C203.881 197.408 203.562 197.567 203.283 197.784C203.003 198.001 202.769 198.272 202.593 198.581C202.417 198.89 202.302 199.231 202.256 199.585C202.21 199.939 202.234 200.298 202.325 200.643C202.416 200.987 202.573 201.31 202.788 201.593C203.002 201.876 203.269 202.114 203.574 202.292L217.582 210.483Z" fill="#E8AD90"/>
    <path d="M214.423 203.91C218.112 204.022 221.611 205.594 224.168 208.288L284.682 272.033C288.653 276.362 287.777 284.078 283.513 288.099C279.25 292.121 270.528 291.387 267.066 286.586L215.047 216.323L204.77 216.351C200.985 216.351 194.47 215.89 189.817 213.37C185.784 211.185 181.386 209.169 179.165 205.519C179.063 205.349 179.008 205.155 179.005 204.956C179.002 204.757 179.052 204.561 179.148 204.387C179.245 204.214 179.385 204.07 179.555 203.97C179.725 203.87 179.918 203.818 180.114 203.818C180.114 203.818 194.205 205.848 198.932 205.73C202.112 205.651 211.514 203.818 211.514 203.818L214.423 203.91Z" fill="#E8AD90"/>
    <path d="M321.653 233.942C321.653 234.555 321.413 235.142 320.986 235.575C320.558 236.008 319.978 236.252 319.373 236.252C318.768 236.252 318.188 236.008 317.761 235.575C317.333 235.142 317.093 234.555 317.093 233.942C317.093 233.33 317.333 232.742 317.761 232.309C318.188 231.876 318.768 231.633 319.373 231.633C319.978 231.633 320.558 231.876 320.986 232.309C321.413 232.742 321.653 233.33 321.653 233.942Z" fill="#273271"/>
    <path d="M390.106 199.734C390.106 200.347 389.865 200.934 389.438 201.367C389.01 201.8 388.43 202.044 387.825 202.044C387.22 202.044 386.64 201.8 386.213 201.367C385.785 200.934 385.545 200.347 385.545 199.734C385.545 199.431 385.604 199.131 385.719 198.85C385.833 198.57 386.001 198.315 386.213 198.101C386.425 197.887 386.676 197.716 386.953 197.6C387.229 197.484 387.526 197.425 387.825 197.425C388.125 197.425 388.421 197.484 388.698 197.6C388.975 197.716 389.226 197.887 389.438 198.101C389.649 198.315 389.817 198.57 389.932 198.85C390.047 199.131 390.106 199.431 390.106 199.734Z" fill="#273271"/>
    <path d="M295.186 220.71C295.186 221.013 295.127 221.313 295.012 221.594C294.898 221.874 294.73 222.128 294.518 222.343C294.306 222.557 294.055 222.728 293.778 222.844C293.501 222.96 293.205 223.019 292.905 223.019C292.606 223.019 292.309 222.96 292.033 222.844C291.756 222.728 291.505 222.557 291.293 222.343C291.081 222.128 290.913 221.874 290.799 221.594C290.684 221.313 290.625 221.013 290.625 220.71C290.625 220.097 290.865 219.51 291.293 219.077C291.721 218.643 292.301 218.4 292.905 218.4C293.51 218.4 294.09 218.643 294.518 219.077C294.945 219.51 295.186 220.097 295.186 220.71Z" fill="#273271"/>
    <path d="M360.22 216.671C360.22 217.284 359.98 217.871 359.552 218.305C359.124 218.738 358.544 218.981 357.94 218.981C357.335 218.981 356.755 218.738 356.327 218.305C355.899 217.871 355.659 217.284 355.659 216.671C355.659 216.059 355.899 215.471 356.327 215.038C356.755 214.605 357.335 214.362 357.94 214.362C358.544 214.362 359.124 214.605 359.552 215.038C359.98 215.471 360.22 216.059 360.22 216.671Z" fill="#273271"/>
    <path d="M386.186 235.928C386.186 236.54 385.946 237.128 385.519 237.561C385.091 237.994 384.511 238.237 383.906 238.237C383.301 238.237 382.721 237.994 382.294 237.561C381.866 237.128 381.626 236.54 381.626 235.928C381.626 235.315 381.866 234.728 382.294 234.294C382.721 233.861 383.301 233.618 383.906 233.618C384.511 233.618 385.091 233.861 385.519 234.294C385.946 234.728 386.186 235.315 386.186 235.928Z" fill="#273271"/>
    <path d="M351.2 249.567C351.2 249.87 351.141 250.171 351.027 250.451C350.912 250.731 350.744 250.986 350.532 251.2C350.321 251.415 350.069 251.585 349.793 251.701C349.516 251.817 349.219 251.877 348.92 251.877C348.62 251.877 348.324 251.817 348.047 251.701C347.771 251.585 347.519 251.415 347.308 251.2C347.096 250.986 346.928 250.731 346.813 250.451C346.699 250.171 346.64 249.87 346.64 249.567C346.64 248.954 346.88 248.367 347.308 247.934C347.735 247.501 348.315 247.257 348.92 247.257C349.525 247.257 350.105 247.501 350.532 247.934C350.96 248.367 351.2 248.954 351.2 249.567Z" fill="#273271"/>
    <path d="M335.191 280.699C335.191 281.311 334.95 281.899 334.523 282.332C334.095 282.765 333.515 283.008 332.91 283.008C332.305 283.008 331.725 282.765 331.298 282.332C330.87 281.899 330.63 281.311 330.63 280.699C330.63 280.086 330.87 279.499 331.298 279.066C331.725 278.632 332.305 278.389 332.91 278.389C333.515 278.389 334.095 278.632 334.523 279.066C334.95 279.499 335.191 280.086 335.191 280.699Z" fill="#273271"/>
    <path d="M371.338 269.822C371.338 270.435 371.098 271.022 370.67 271.455C370.242 271.889 369.662 272.132 369.058 272.132C368.453 272.132 367.873 271.889 367.445 271.455C367.018 271.022 366.777 270.435 366.777 269.822C366.777 269.21 367.018 268.622 367.445 268.189C367.873 267.756 368.453 267.513 369.058 267.513C369.662 267.513 370.242 267.756 370.67 268.189C371.098 268.622 371.338 269.21 371.338 269.822Z" fill="#273271"/>
    <path d="M305.162 263.05C305.162 263.663 304.922 264.25 304.494 264.683C304.067 265.117 303.487 265.36 302.882 265.36C302.277 265.36 301.697 265.117 301.269 264.683C300.842 264.25 300.602 263.663 300.602 263.05C300.602 262.747 300.661 262.447 300.775 262.166C300.89 261.886 301.058 261.632 301.269 261.417C301.481 261.203 301.733 261.033 302.009 260.917C302.286 260.8 302.582 260.741 302.882 260.741C303.181 260.741 303.478 260.8 303.755 260.917C304.031 261.033 304.283 261.203 304.494 261.417C304.706 261.632 304.874 261.886 304.989 262.166C305.103 262.447 305.162 262.747 305.162 263.05Z" fill="#273271"/>
    <path d="M446.608 281.486H463.271C463.539 281.486 463.756 281.664 463.756 281.885C463.756 281.885 463.098 288.978 463.007 291.347C462.898 294.097 460.291 296.331 456.946 296.331H452.935C449.587 296.331 446.982 294.098 446.874 291.347C446.78 288.978 446.124 281.885 446.124 281.885C446.123 281.664 446.34 281.486 446.608 281.486Z" fill="#FCE1C0"/>
    <path d="M449.433 293.643C449.051 294.118 448.271 294.245 447.699 293.923C444.26 291.981 440.395 288.326 441.281 285.35C441.418 284.88 441.66 284.449 441.988 284.09C442.317 283.731 442.722 283.453 443.173 283.277C444.595 282.734 446.537 282.868 447.776 283.129C448.528 283.287 448.869 283.857 448.574 284.555C448.297 285.149 447.717 285.222 447.142 285.1C446.256 284.908 444.999 284.85 444.37 285.089C444.187 285.159 443.687 285.431 443.58 285.795C443.069 287.516 446.172 290.491 449.146 292.213C449.693 292.529 449.83 293.146 449.461 293.604L449.433 293.643Z" fill="#FCE1C0"/>
    <path opacity="0.29" d="M452.266 270.826C453.124 270.826 453.819 270.121 453.819 269.252C453.819 268.383 453.124 267.679 452.266 267.679C451.408 267.679 450.712 268.383 450.712 269.252C450.712 270.121 451.408 270.826 452.266 270.826Z" fill="#C9D3F2"/>
    <path opacity="0.59" d="M459.555 268.008L459.535 268.03C459.156 267.473 458.585 267.08 457.934 266.926C457.283 266.773 456.599 266.872 456.015 267.202C455.432 267.533 454.992 268.072 454.781 268.714C454.569 269.356 454.602 270.055 454.873 270.674C452.787 271.925 450.889 273.517 451.281 275.491C451.832 278.259 454.007 279.909 454.007 279.909C453.411 278.083 452.807 276.199 456.816 274.37C462.39 271.825 459.555 268.008 459.555 268.008Z" fill="#B8B8E8"/>
    <path opacity="0.59" d="M457.817 274.815C458.659 274.771 459.55 274.934 459.709 275.703C459.869 276.471 459.387 277.385 458.404 277.599H458.394C458.28 277.622 458.174 277.676 458.089 277.755C458.003 277.835 457.94 277.936 457.908 278.049C457.723 278.716 457.401 278.743 456.902 278.812C455.539 279.002 455.503 280.154 455.503 280.154C455.378 278.925 454.977 279.16 455.445 276.951C455.575 276.338 456.027 275.617 456.35 275.393C456.827 275.072 457.238 274.845 457.817 274.815Z" fill="url(#paint23_linear)"/>
    <path d="M458.839 297.107H449.248C447.675 297.107 446.109 296.906 444.586 296.509L441.352 295.666C441.303 295.648 441.261 295.614 441.234 295.568C441.207 295.522 441.197 295.468 441.206 295.415C441.215 295.363 441.242 295.315 441.282 295.281C441.323 295.247 441.374 295.228 441.426 295.228H466.811C467.057 295.228 466.97 295.582 466.735 295.666L463.501 296.509C461.978 296.906 460.411 297.107 458.839 297.107Z" fill="#FCE1C0"/>
    <path d="M467.005 295.228H441.182C441.167 295.228 441.154 295.241 441.154 295.257V295.481C441.154 295.496 441.167 295.509 441.182 295.509H467.005C467.021 295.509 467.033 295.496 467.033 295.481V295.257C467.033 295.241 467.021 295.228 467.005 295.228Z" fill="#9595CB"/>
    <path d="M532.614 289.798C529.487 293.299 527.636 299.466 526.594 306.586C508.279 304.493 474.804 299.455 471.41 296.018C466.827 291.376 474.396 264.012 474.396 264.012L496.686 265.569C496.686 265.569 497.371 269.732 497.725 273.021C497.913 274.753 498.123 276.241 498.332 276.751C498.713 277.684 516.405 283.919 530.333 288.972C531.109 289.251 531.869 289.526 532.614 289.798Z" fill="#7C221E"/>
    <path d="M504.644 192.249C506.429 195.266 506.302 198.157 505.796 199.667C505.29 201.176 503.724 205.639 503.683 206.6C503.514 210.6 495.679 215.679 493.891 215.553C492.102 215.427 490.453 212.247 490.453 212.247L504.644 192.249Z" fill="#010103"/>
    <path d="M495.853 230.753C495.853 230.753 497.936 247.632 501.894 251.43C505.853 255.227 516.269 264.089 519.602 264.089C522.935 264.089 525.642 265.988 526.684 267.465C527.726 268.942 517.102 267.465 517.102 267.465C517.102 267.465 494.604 254.212 492.938 252.295C492.937 252.291 493.447 234.247 495.853 230.753Z" fill="#EAC6B0"/>
    <path d="M472.97 269.723L497.3 268.613C497.3 268.613 494.813 251.009 494.813 245.101C494.813 239.193 496.272 236.873 497.522 233.496C498.772 230.12 493.983 213.874 493.983 213.874L485.963 209.865C485.963 209.865 477.318 212.397 474.195 220.415C471.072 228.432 469.185 238.982 469.185 238.982L475.018 240.67L472.97 269.723Z" fill="#FF8888"/>
    <path d="M479.965 239.477L471.271 237.715C471.271 237.715 469.291 251.776 469.184 252.907C469.102 253.772 470.114 254.016 470.739 254.016C471.364 254.016 482.589 259.381 483.755 259.87C486.265 260.926 506.889 266.622 507.513 267.466C508.138 268.31 516.679 269.365 518.762 269.787C520.845 270.21 518.762 267.255 515.429 265.567C512.096 263.88 508.768 263.876 506.894 263.459C505.02 263.043 479.049 249.534 478.633 248.69C478.216 247.846 479.965 239.477 479.965 239.477Z" fill="#EBD0BB"/>
    <path d="M527.186 335.132C527.186 335.132 526.94 350.73 526.787 351.986C526.633 353.243 521.939 355.515 521.939 355.515L527.751 369.985L534.911 334.792L527.186 335.132Z" fill="#EBD0BB"/>
    <path d="M481.687 215.562C486.223 217.024 486.062 224.846 485.437 227.378C484.811 229.91 481.687 241.514 481.687 241.514L469.185 238.982C469.185 238.982 472.522 212.608 481.687 215.562Z" fill="#FF8888"/>
    <path d="M573.944 362.449C569.756 357.83 548.351 332.45 544.186 326.542C542.89 324.709 542.376 322.19 541.402 319.601C539.242 313.871 537.311 307.765 537.311 307.765C537.311 307.765 533.024 307.325 526.598 306.589C527.639 299.472 529.491 293.3 532.618 289.8C539.715 292.384 545.436 294.544 546.685 295.318C547.031 295.531 547.564 296.225 548.249 297.312C555.019 308.03 576.644 356.929 578.346 359.036L573.944 362.449Z" fill="#7C221E"/>
    <path d="M526.757 350.81C526.562 349.067 523.938 324.753 526.592 306.591C527.634 299.475 529.485 293.303 532.613 289.803C533.085 289.268 533.61 288.783 534.181 288.358L530.331 288.974C516.403 283.923 498.711 277.686 498.33 276.753C498.122 276.242 497.911 274.753 497.724 273.023C506.314 272.295 545.543 269.225 553.137 273.166C558.942 276.177 552.371 287.602 548.246 297.314C545.949 302.722 542.299 313.931 540.751 319.605C537.182 332.691 534.12 351.844 533.972 353.343L526.757 350.81Z" fill="#A3322D"/>
    <path d="M495.436 206.56C495.436 206.56 492.797 213.978 492.936 215.332C493.075 216.686 486.568 210.172 486.568 210.172L489.603 204.171L495.436 206.56Z" fill="#EBD0BB"/>
    <path d="M495.841 206.599C500.608 206.599 504.473 202.684 504.473 197.855C504.473 193.027 500.608 189.112 495.841 189.112C491.073 189.112 487.208 193.027 487.208 197.855C487.208 202.684 491.073 206.599 495.841 206.599Z" fill="#EBD0BB"/>
    <path d="M503.027 272.605C504.287 271.211 504.403 269.854 507.89 269.672C511.377 269.489 534.253 268.26 534.253 268.26L534.105 270.985L503.027 272.605Z" fill="#988CAF"/>
    <path d="M550.288 243.432L534.457 271.122L522.991 271.503L540.395 243.498C540.603 243.163 540.887 242.883 541.222 242.68C541.558 242.478 541.936 242.358 542.326 242.331L549.306 241.849C549.495 241.836 549.684 241.875 549.853 241.962C550.022 242.049 550.164 242.181 550.265 242.343C550.366 242.505 550.421 242.693 550.425 242.884C550.429 243.076 550.382 243.266 550.288 243.432Z" fill="url(#paint24_linear)"/>
    <path d="M505.465 192.262C505.465 192.262 502.529 200.965 493.479 198.641C493.479 198.641 493.506 197.256 491.789 196.755C490.072 196.254 487.921 200.021 490.126 201.501C492.936 203.386 491.805 208.537 488.263 209.843C486.991 210.313 484.395 209.563 483.458 212.247C482.52 214.931 484.401 219.308 478.174 221.367C471.947 223.427 472.77 228.602 470.089 229.381C467.408 230.159 454.757 223.055 459.226 212.928C463.696 202.801 467.806 209.392 470.777 207.787C473.748 206.183 473.978 201.271 474.928 199.869C475.878 198.467 477.764 196.358 479.923 196.089C482.083 195.82 483.671 189.537 487.734 187.164C491.796 184.791 502.649 183.931 505.465 192.262Z" fill="#281430"/>
    <path d="M491.427 185.844C492.94 185.844 494.167 184.602 494.167 183.069C494.167 181.537 492.94 180.294 491.427 180.294C489.914 180.294 488.688 181.537 488.688 183.069C488.688 184.602 489.914 185.844 491.427 185.844Z" fill="#010103"/>
    <path d="M490.403 202.353C490.849 202.353 491.21 201.987 491.21 201.535C491.21 201.084 490.849 200.718 490.403 200.718C489.957 200.718 489.596 201.084 489.596 201.535C489.596 201.987 489.957 202.353 490.403 202.353Z" fill="#273271"/>
    <path d="M578.388 359.085C580.199 361.138 590.511 369.54 590.511 369.54L577.565 367.873C577.565 367.873 578.635 364.59 575.426 361.329L578.388 359.085Z" fill="#EBD0BB"/>
    <path d="M490.412 201.922C490.58 201.922 490.716 201.784 490.716 201.614C490.716 201.445 490.58 201.307 490.412 201.307C490.244 201.307 490.108 201.445 490.108 201.614C490.108 201.784 490.244 201.922 490.412 201.922Z" fill="#0094F9"/>
    <path d="M490.359 202.115L487.94 205.273C487.89 205.338 487.858 205.417 487.849 205.499C487.839 205.582 487.852 205.665 487.886 205.741C487.92 205.817 487.973 205.882 488.041 205.929C488.109 205.976 488.188 206.004 488.27 206.008L491.314 206.199C491.38 206.203 491.445 206.191 491.505 206.163C491.564 206.135 491.615 206.092 491.654 206.038C491.693 205.985 491.718 205.922 491.727 205.857C491.736 205.791 491.728 205.724 491.705 205.662L490.359 202.115Z" fill="#273271"/>
    <path d="M491.052 205.742C491.218 205.718 491.333 205.562 491.309 205.394C491.286 205.226 491.132 205.109 490.966 205.133C490.8 205.157 490.684 205.313 490.708 205.481C490.732 205.649 490.886 205.766 491.052 205.742Z" fill="#0094F9"/>
    <path d="M488.791 205.611C488.957 205.587 489.072 205.431 489.049 205.263C489.025 205.095 488.871 204.978 488.705 205.002C488.539 205.026 488.424 205.182 488.447 205.35C488.471 205.518 488.625 205.635 488.791 205.611Z" fill="#0094F9"/>
    <path d="M490.308 203.748C490.474 203.724 490.589 203.568 490.565 203.4C490.541 203.231 490.388 203.115 490.221 203.139C490.055 203.163 489.94 203.319 489.964 203.487C489.988 203.655 490.142 203.772 490.308 203.748Z" fill="#0094F9"/>
    <path d="M581.395 373.309C581.395 373.309 582.236 373.138 582.931 373.222C583.627 373.305 586.866 374.695 590.42 374.959C593.974 375.224 596.945 375.593 599.04 374.499C599.04 374.499 599.339 374.162 599.282 373.409L599.122 373.394C598.594 373.674 594.514 374.739 589.523 373.807C589.168 373.74 588.813 373.658 588.468 373.563C586.098 372.905 584.964 372.562 584.129 372.274C583.833 372.134 583.523 372.029 583.204 371.962C582.915 371.908 582.628 371.976 581.975 372.251L581.853 372.302L581.724 372.269L576.042 371.102C575.871 371.454 575.688 371.974 575.853 372.361C576.118 372.995 581.395 373.309 581.395 373.309Z" fill="#3A3936"/>
    <path d="M587.322 366.694C586.766 366.335 586.508 366.085 585.923 365.738L585.717 365.585C585.527 365.905 585.401 366.26 585.347 366.63L585.259 367.356C584.182 367.946 583.037 368.005 581.991 367.819C579.897 367.448 577.827 365.765 577.827 365.765C576.092 368.432 576.073 371.107 576.073 371.107L576.32 371.205L581.901 372.328C582.602 372.025 582.963 371.933 583.351 372.001C584.105 372.135 584.986 372.727 588.647 373.708C588.99 373.799 589.331 373.875 589.671 373.935C593.663 374.643 597.159 374.29 598.58 373.639C598.991 373.452 599.216 373.324 599.216 373.324C599.216 373.324 598.552 371.668 596.253 371.26C595.206 371.075 594.315 370.96 593.634 370.844C592.817 370.699 592.459 370.412 592.193 370.252C590.897 369.48 588.569 367.501 587.322 366.694Z" fill="#022F6B"/>
    <path d="M521.398 360.741C521.398 360.741 522.065 361.287 522.447 361.881C522.829 362.475 523.846 365.887 525.916 368.821C527.985 371.755 529.608 374.306 531.778 375.239C531.778 375.239 532.225 375.255 532.759 374.729L532.668 374.595C532.117 374.364 528.701 371.867 526.215 367.385C526.038 367.065 525.874 366.736 525.726 366.407C524.709 364.141 524.097 362.979 523.88 362.19C523.762 361.765 523.685 361.484 523.574 361.284C523.43 361.024 523.195 360.844 522.569 360.512L522.452 360.45L522.395 360.328L519.65 355.155C519.274 355.246 518.762 355.437 518.574 355.812C518.262 356.433 521.398 360.741 521.398 360.741Z" fill="#3A3936"/>
    <path d="M530.208 361.126C530.123 360.492 530.005 359.863 529.855 359.241H529.85C529.544 359.271 529.25 359.374 528.992 359.543L528.384 359.939C527.248 359.478 526.472 358.624 525.943 357.688C524.885 355.82 525.107 353.271 525.107 353.271C521.974 353.625 519.62 355.249 519.62 355.249L519.717 355.451L522.462 360.503C523.141 360.855 523.441 361.076 523.638 361.42C524.019 362.093 524.131 363.158 525.729 366.634C525.879 366.96 526.04 367.275 526.212 367.577C528.229 371.138 530.73 373.633 532.137 374.328C532.54 374.527 532.783 374.623 532.783 374.623C532.783 374.623 533.616 373.046 532.454 370.994C531.925 370.061 531.442 369.293 531.097 368.685C530.686 367.957 530.674 367.495 530.624 367.185C530.383 365.687 530.394 362.613 530.208 361.126Z" fill="url(#paint25_linear)"/>
    <path d="M538.904 258.086C539.631 256.689 539.835 255.35 539.361 255.097C538.886 254.843 537.911 255.771 537.184 257.169C536.457 258.566 536.252 259.905 536.727 260.158C537.202 260.412 538.176 259.484 538.904 258.086Z" fill="white"/>
    <path d="M76.0714 304.086L74.4255 315.391L75.1053 320.976C75.1341 321.203 75.1143 321.433 75.047 321.652C74.9797 321.871 74.8667 322.072 74.7156 322.242C74.5645 322.412 74.3789 322.547 74.1715 322.638C73.964 322.729 73.7397 322.774 73.5137 322.769C68.9135 322.66 57.1373 322.332 56.8492 321.799C55.4996 319.299 62.0675 317.585 66.5188 314.764C71.319 311.722 68.6584 295.902 68.6584 295.902L76.0714 304.086Z" fill="#E58057"/>
    <path d="M51.2999 324.687L51.3946 322.907C51.4011 322.79 51.6529 322.708 51.9533 322.724L75.3881 323.692C75.6893 323.708 75.9346 323.817 75.928 323.935L75.8169 326.026C75.8103 326.142 75.556 326.224 75.2548 326.208L51.8365 324.929C51.5361 324.91 51.2941 324.802 51.2999 324.687Z" fill="#6D6D6D"/>
    <path d="M61.424 322.716L59.881 322.633L58.6639 322.565L51.4377 322.17C51.4377 322.17 49.6034 319.694 52.547 319.149C52.547 319.149 61.8297 318.627 66.29 313.35C66.29 313.35 68.3703 311.219 66.4414 316.506C66.4414 316.506 65.9797 320.397 70.4466 318.65C70.4466 318.65 71.9608 318.213 73.4914 314.964C73.4914 314.964 74.2263 313.651 75.2246 313.993C75.6187 314.149 76.0771 314.651 76.0261 316.194L75.9882 316.901L75.9282 318.03L75.6541 323.182L65.8489 322.803L61.424 322.716Z" fill="url(#paint26_linear)"/>
    <path d="M97.7371 308.122L100.681 318.721L103.449 323.363C103.563 323.551 103.635 323.762 103.661 323.981C103.687 324.2 103.665 324.422 103.599 324.632C103.532 324.842 103.421 325.035 103.274 325.197C103.127 325.36 102.947 325.489 102.746 325.574C98.6588 327.313 88.1754 331.719 87.7154 331.365C85.556 329.698 90.6664 325.578 93.4842 321.324C96.5224 316.735 88.0339 303.885 88.0339 303.885L97.7371 308.122Z" fill="#E58057"/>
    <path d="M83.9934 336.182L83.3853 334.579C83.345 334.473 83.535 334.301 83.805 334.196L104.79 325.705C105.061 325.599 105.319 325.597 105.359 325.705L106.074 327.588C106.113 327.692 105.921 327.865 105.65 327.971L84.5596 336.181C84.2888 336.286 84.0329 336.287 83.9934 336.182Z" fill="#6D6D6D"/>
    <path d="M92.13 330.411L90.74 330.952L89.643 331.377L83.1352 333.911C83.1352 333.911 80.5603 332.465 82.9369 330.812C82.9369 330.812 90.8972 326.653 92.7718 320.233C92.7718 320.233 93.7734 317.529 94.1313 322.948C94.1313 322.948 95.2374 326.554 98.4863 323.236C98.4863 323.236 99.6483 322.249 99.7347 318.78C99.7347 318.78 99.8705 317.332 100.882 317.235C101.289 317.215 101.887 317.474 102.445 318.851L102.687 319.487L103.073 320.504L104.834 325.144L96.0636 328.719L92.13 330.411Z" fill="url(#paint27_linear)"/>
    <path d="M135.173 234.803H84.098C77.3384 234.803 73.6895 238.608 72.2946 250.127C70.8998 261.647 66.8633 307.178 66.8633 307.178L78.4576 310.252L89.0315 257.517L137.961 255.996L135.173 234.803Z" fill="#141939"/>
    <path d="M138.714 237.629C138.714 237.629 88.8182 240.563 78.1958 242.085C67.5734 243.607 64.9976 248.605 68.1091 259.039C71.2206 269.473 90.5579 314.791 90.5579 314.791H104.74L89.6799 262.734L146.615 260.669L138.714 237.629Z" fill="#282D4A"/>
    <path d="M104.52 230.428C103.441 230.331 102.358 230.559 101.406 231.084C98.3696 232.751 92.5013 235.33 92.7655 236.37C93.0782 237.603 103.48 237.721 107.73 235.893C107.73 235.893 134.796 229.38 141.004 227.208C147.176 224.145 152.922 212.921 152.922 212.921L142.525 206.611L135.252 218.696C135.252 218.696 127.298 226.342 108.983 230.025L104.52 230.428Z" fill="url(#paint28_linear)"/>
    <path d="M164.364 186.587C166.955 191.327 170.694 196.766 168.763 214.372C166.831 231.978 155.028 252.953 150.844 257.735C146.659 262.516 142.903 263.495 140.006 255.778C137.11 248.062 137.251 238.487 126.414 238.161C126.414 238.161 134.963 222.849 137.002 213.829C139.04 204.809 143.224 193.085 147.23 188.123L156.208 183.073C156.106 182.361 162.532 183.237 164.364 186.587Z" fill="#3A4375"/>
    <path d="M160.509 174.387V183.138C160.509 183.879 160.255 184.596 159.791 185.168C159.327 185.74 158.682 186.131 157.965 186.275L148.741 188.125V178.022L160.509 174.387Z" fill="url(#paint29_linear)"/>
    <path d="M162.204 171.695C162.685 174.744 160.805 177.829 158.214 179.872C157.143 180.729 155.916 181.363 154.602 181.738C153.288 182.112 151.914 182.219 150.559 182.053C149.204 181.887 147.895 181.45 146.708 180.769C145.52 180.088 144.477 179.176 143.64 178.085C142.802 176.993 142.186 175.745 141.827 174.411C141.468 173.078 141.373 171.685 141.548 170.314C141.723 168.943 142.164 167.621 142.846 166.424C143.528 165.226 144.438 164.178 145.522 163.338C150.03 159.788 157.326 160.087 160.03 165.178C160.835 166.692 161.937 169.996 162.204 171.695Z" fill="#E58057"/>
    <path d="M150.971 157.878C142.185 158.31 137.964 159.847 137.964 159.847C137.964 159.847 139.137 166.155 140.309 167.374C142.731 169.893 149.406 170.605 152.959 167.279L153.782 170.873L155.634 170.795C155.634 170.795 155.775 169.023 157.198 168.712C159.301 168.249 160.993 170.315 158.761 173.996L161.658 177.273C161.658 177.273 162.922 174.211 163.286 172.117C163.586 170.394 166.018 163.737 162.542 160.423C160.489 158.466 158.317 157.964 156.659 157.946C155.238 157.93 152.392 157.808 150.971 157.878Z" fill="#3A1F38"/>
    <mask id="mask0" mask-type="alpha" maskUnits="userSpaceOnUse" x="126" y="182" width="44" height="80">
        <path d="M164.364 186.587C166.955 191.327 170.694 196.766 168.763 214.372C166.831 231.978 155.028 252.953 150.844 257.735C146.659 262.516 142.903 263.495 140.006 255.778C137.11 248.062 137.251 238.487 126.414 238.161C126.414 238.161 134.963 222.849 137.002 213.829C139.04 204.809 143.224 193.085 147.23 188.123L156.208 183.073C156.106 182.361 162.532 183.237 164.364 186.587Z" fill="#D0D3D9"/>
    </mask>
    <g mask="url(#mask0)">
        <path d="M163.969 188.59C164.109 188.664 164.078 189.004 164.076 189.136C164.068 189.348 164.032 189.557 163.969 189.759C163.876 190.071 164.367 190.17 164.459 189.859C164.603 189.37 164.747 188.429 164.195 188.137C163.909 187.986 163.683 188.439 163.969 188.59H163.969Z" fill="#273271"/>
        <path d="M160.264 184.909C160.352 184.781 160.474 184.681 160.616 184.619C160.758 184.558 160.914 184.538 161.066 184.562C161.383 184.613 161.484 184.114 161.165 184.066C160.906 184.023 160.64 184.059 160.4 184.168C160.16 184.277 159.958 184.456 159.817 184.681C159.64 184.953 160.089 185.179 160.264 184.91V184.909Z" fill="#273271"/>
        <path d="M151.657 183.024C151.835 183.012 152.013 183.063 152.16 183.167C152.307 183.271 152.414 183.422 152.465 183.596C152.559 183.909 153.034 183.745 152.938 183.432C152.852 183.153 152.675 182.911 152.436 182.745C152.198 182.58 151.911 182.5 151.622 182.518C151.301 182.538 151.334 183.045 151.657 183.024V183.024Z" fill="#273271"/>
        <path d="M168.882 198.389C168.154 198.47 167.949 199.197 167.905 199.83C167.883 200.15 168.373 200.255 168.395 199.93C168.42 199.573 168.451 198.947 168.916 198.895C169.232 198.86 169.203 198.354 168.882 198.39V198.389Z" fill="#273271"/>
        <path d="M162.65 193.198C162.743 193.223 162.713 193.429 162.705 193.493C162.677 193.648 162.665 193.805 162.671 193.963C162.697 194.287 163.197 194.255 163.17 193.928C163.149 193.676 163.249 193.435 163.192 193.182C163.171 193.067 163.118 192.961 163.04 192.876C162.961 192.791 162.861 192.73 162.749 192.701C162.438 192.616 162.34 193.113 162.65 193.198Z" fill="#273271"/>
        <path d="M150.833 191.388C151.204 191.508 151.561 191.331 151.845 191.094C152.145 190.843 152.467 190.534 152.52 190.126C152.563 189.806 152.073 189.701 152.03 190.025C151.995 190.293 151.767 190.498 151.573 190.666C151.379 190.835 151.183 190.972 150.933 190.89C150.627 190.791 150.529 191.289 150.834 191.387L150.833 191.388Z" fill="#273271"/>
        <path d="M157.902 194.79C157.693 194.823 157.503 194.928 157.363 195.089C157.224 195.249 157.144 195.454 157.138 195.667C157.131 195.804 157.282 195.911 157.405 195.902C157.553 195.892 157.63 195.769 157.637 195.632C157.647 195.552 157.68 195.476 157.734 195.416C157.787 195.355 157.858 195.313 157.936 195.295C158.001 195.289 158.062 195.257 158.105 195.207C158.148 195.156 158.171 195.091 158.168 195.025C158.16 194.896 158.035 194.768 157.901 194.789L157.902 194.79Z" fill="#273271"/>
        <path d="M153.2 206.703C152.991 206.736 152.8 206.841 152.661 207.002C152.521 207.162 152.442 207.367 152.436 207.58C152.429 207.717 152.579 207.824 152.703 207.816C152.851 207.805 152.928 207.682 152.935 207.545C152.945 207.465 152.978 207.389 153.032 207.329C153.085 207.268 153.156 207.226 153.234 207.208C153.299 207.201 153.36 207.17 153.403 207.12C153.446 207.069 153.469 207.004 153.466 206.937C153.458 206.809 153.333 206.681 153.199 206.702L153.2 206.703Z" fill="#273271"/>
        <path d="M144.604 190.218C144.744 190.291 144.713 190.632 144.71 190.764C144.703 190.976 144.667 191.185 144.603 191.386C144.511 191.699 145.002 191.798 145.094 191.487C145.238 190.998 145.382 190.057 144.83 189.765C144.544 189.614 144.318 190.066 144.603 190.218H144.604Z" fill="#273271"/>
        <path d="M136.63 189.449C136.718 189.32 136.84 189.22 136.982 189.158C137.124 189.097 137.28 189.077 137.432 189.101C137.749 189.152 137.85 188.653 137.532 188.605C137.272 188.562 137.006 188.598 136.766 188.707C136.526 188.816 136.324 188.995 136.183 189.22C136.006 189.492 136.455 189.718 136.63 189.449V189.449Z" fill="#273271"/>
        <path d="M145.628 183.882C144.9 183.963 144.695 184.69 144.651 185.323C144.629 185.643 145.119 185.748 145.141 185.424C145.166 185.066 145.197 184.44 145.662 184.389C145.979 184.353 145.95 183.847 145.628 183.883V183.882Z" fill="#273271"/>
        <path d="M128.816 184.658C128.995 184.646 129.172 184.697 129.319 184.801C129.466 184.905 129.573 185.056 129.624 185.231C129.718 185.543 130.193 185.379 130.098 185.067C130.011 184.787 129.834 184.545 129.595 184.379C129.357 184.214 129.07 184.134 128.782 184.152C128.46 184.173 128.494 184.679 128.816 184.658V184.658Z" fill="#273271"/>
        <path d="M139.808 194.832C139.901 194.857 139.872 195.063 139.863 195.127C139.835 195.282 139.823 195.439 139.829 195.597C139.856 195.921 140.356 195.889 140.328 195.562C140.308 195.31 140.408 195.069 140.351 194.816C140.33 194.701 140.277 194.595 140.198 194.51C140.12 194.425 140.019 194.364 139.908 194.335C139.596 194.251 139.498 194.747 139.808 194.832Z" fill="#273271"/>
        <path d="M129.258 200.886C129.437 200.875 129.614 200.925 129.761 201.029C129.908 201.133 130.016 201.284 130.066 201.459C130.16 201.771 130.636 201.607 130.54 201.295C130.453 201.015 130.276 200.773 130.038 200.607C129.799 200.442 129.513 200.362 129.224 200.38C128.902 200.401 128.936 200.907 129.258 200.886V200.886Z" fill="#273271"/>
        <path d="M127.99 193.022C128.361 193.142 128.718 192.965 129.003 192.728C129.302 192.477 129.624 192.168 129.678 191.76C129.72 191.44 129.23 191.335 129.187 191.659C129.152 191.927 128.925 192.132 128.73 192.3C128.536 192.469 128.34 192.606 128.09 192.525C127.784 192.426 127.686 192.924 127.991 193.022H127.99Z" fill="#273271"/>
        <path d="M135.059 196.425C134.85 196.458 134.66 196.563 134.52 196.724C134.381 196.884 134.301 197.089 134.295 197.302C134.288 197.439 134.439 197.546 134.562 197.537C134.71 197.527 134.787 197.404 134.794 197.267C134.804 197.186 134.838 197.111 134.891 197.051C134.945 196.99 135.015 196.948 135.093 196.93C135.159 196.923 135.219 196.892 135.262 196.841C135.306 196.791 135.328 196.726 135.325 196.659C135.317 196.531 135.192 196.403 135.058 196.424L135.059 196.425Z" fill="#273271"/>
        <path d="M165.305 205.726C165.398 205.751 165.369 205.957 165.36 206.021C165.332 206.176 165.321 206.334 165.326 206.491C165.353 206.815 165.853 206.783 165.825 206.457C165.804 206.204 165.904 205.963 165.847 205.71C165.826 205.596 165.774 205.49 165.695 205.404C165.617 205.319 165.516 205.259 165.405 205.229C165.093 205.145 164.995 205.641 165.305 205.726Z" fill="#273271"/>
        <path d="M160.151 202.42C160.43 202.099 160.627 201.713 160.723 201.297C160.798 200.976 160.308 200.879 160.233 201.196C160.156 201.525 160 201.83 159.778 202.082C159.564 202.328 159.938 202.665 160.151 202.42Z" fill="#273271"/>
        <path d="M161.771 210.654C162.051 210.333 162.247 209.947 162.344 209.53C162.418 209.21 161.928 209.112 161.853 209.43C161.777 209.759 161.62 210.063 161.398 210.316C161.184 210.561 161.558 210.898 161.771 210.654Z" fill="#273271"/>
        <path d="M161.657 216.761C161.75 216.786 161.72 216.992 161.712 217.056C161.684 217.211 161.672 217.368 161.678 217.526C161.704 217.85 162.204 217.818 162.177 217.491C162.156 217.239 162.256 216.998 162.199 216.745C162.178 216.63 162.125 216.524 162.047 216.439C161.968 216.354 161.868 216.293 161.756 216.264C161.445 216.18 161.347 216.676 161.657 216.761Z" fill="#273271"/>
        <path d="M143.903 204.026C143.996 204.051 143.966 204.257 143.958 204.321C143.93 204.476 143.918 204.633 143.924 204.791C143.95 205.115 144.45 205.083 144.423 204.756C144.402 204.504 144.502 204.263 144.445 204.01C144.424 203.895 144.371 203.789 144.293 203.704C144.214 203.619 144.114 203.558 144.002 203.529C143.691 203.445 143.593 203.941 143.903 204.026Z" fill="#273271"/>
        <path d="M156.503 213.452C156.783 213.132 156.98 212.746 157.076 212.329C157.151 212.008 156.66 211.911 156.586 212.228C156.509 212.557 156.352 212.862 156.13 213.115C155.917 213.36 156.29 213.697 156.503 213.452Z" fill="#273271"/>
        <path d="M154.962 220.432C155.242 220.112 155.439 219.726 155.535 219.309C155.61 218.989 155.119 218.891 155.045 219.208C154.968 219.538 154.811 219.842 154.589 220.095C154.376 220.34 154.749 220.677 154.962 220.432Z" fill="#273271"/>
        <path d="M149.961 212.745C150.054 212.77 150.024 212.977 150.016 213.04C149.987 213.195 149.976 213.353 149.982 213.511C150.008 213.835 150.508 213.802 150.481 213.476C150.46 213.223 150.56 212.982 150.503 212.729C150.482 212.615 150.429 212.509 150.351 212.424C150.272 212.339 150.171 212.278 150.06 212.249C149.749 212.164 149.651 212.661 149.961 212.745Z" fill="#273271"/>
        <path d="M150.27 223.071C150.363 223.096 150.333 223.302 150.325 223.366C150.297 223.521 150.285 223.678 150.291 223.836C150.318 224.16 150.818 224.128 150.79 223.801C150.769 223.549 150.869 223.308 150.812 223.055C150.791 222.94 150.739 222.834 150.66 222.749C150.582 222.664 150.481 222.603 150.37 222.574C150.058 222.49 149.96 222.986 150.27 223.071Z" fill="#273271"/>
        <path d="M160.214 222.324C160.307 222.349 160.277 222.556 160.269 222.619C160.24 222.774 160.229 222.932 160.234 223.089C160.261 223.414 160.761 223.381 160.734 223.055C160.713 222.802 160.813 222.561 160.756 222.308C160.735 222.194 160.682 222.088 160.603 222.003C160.525 221.917 160.424 221.857 160.313 221.828C160.002 221.743 159.904 222.24 160.214 222.324Z" fill="#273271"/>
        <path d="M126.467 220.029C126.259 220.062 126.068 220.168 125.928 220.328C125.789 220.488 125.709 220.693 125.703 220.907C125.696 221.044 125.847 221.151 125.97 221.142C126.118 221.132 126.196 221.008 126.203 220.871C126.212 220.791 126.246 220.716 126.299 220.655C126.353 220.595 126.423 220.553 126.501 220.535C126.567 220.528 126.627 220.497 126.67 220.446C126.714 220.396 126.736 220.331 126.733 220.264C126.725 220.136 126.6 220.008 126.466 220.029H126.467Z" fill="#273271"/>
        <path d="M145.116 219.761C145.395 219.44 145.592 219.054 145.688 218.637C145.763 218.317 145.272 218.219 145.198 218.537C145.121 218.866 144.965 219.17 144.742 219.423C144.529 219.668 144.902 220.005 145.116 219.761Z" fill="#273271"/>
        <path d="M143.573 226.743C143.852 226.422 144.049 226.036 144.145 225.619C144.22 225.299 143.73 225.201 143.655 225.519C143.578 225.848 143.422 226.153 143.199 226.405C142.986 226.65 143.359 226.988 143.573 226.743Z" fill="#273271"/>
        <path d="M138.575 219.056C138.668 219.081 138.638 219.287 138.63 219.351C138.602 219.506 138.59 219.663 138.596 219.821C138.622 220.145 139.122 220.112 139.095 219.786C139.074 219.534 139.174 219.293 139.117 219.04C139.096 218.925 139.043 218.819 138.965 218.734C138.886 218.649 138.785 218.588 138.674 218.559C138.363 218.475 138.265 218.971 138.575 219.056Z" fill="#273271"/>
        <path d="M130.741 216.761C130.834 216.786 130.804 216.992 130.796 217.056C130.767 217.211 130.756 217.368 130.762 217.526C130.788 217.85 131.288 217.818 131.261 217.491C131.24 217.239 131.34 216.998 131.283 216.745C131.262 216.63 131.209 216.524 131.131 216.439C131.052 216.354 130.951 216.293 130.84 216.264C130.529 216.18 130.431 216.676 130.741 216.761Z" fill="#273271"/>
        <path d="M135.039 223.98C135.318 223.659 135.515 223.273 135.611 222.857C135.686 222.536 135.195 222.439 135.121 222.756C135.044 223.085 134.888 223.39 134.665 223.642C134.452 223.888 134.825 224.225 135.039 223.98Z" fill="#273271"/>
        <path d="M134.925 230.087C135.018 230.112 134.989 230.319 134.981 230.382C134.952 230.537 134.941 230.695 134.946 230.852C134.973 231.177 135.473 231.144 135.446 230.818C135.425 230.565 135.525 230.324 135.468 230.071C135.447 229.957 135.394 229.851 135.315 229.766C135.237 229.681 135.136 229.62 135.025 229.591C134.713 229.506 134.615 230.003 134.925 230.087Z" fill="#273271"/>
        <path d="M129.771 226.779C130.05 226.458 130.247 226.072 130.343 225.655C130.418 225.335 129.928 225.237 129.853 225.555C129.776 225.884 129.62 226.188 129.398 226.441C129.184 226.686 129.558 227.023 129.771 226.779Z" fill="#273271"/>
        <path d="M128.229 233.759C128.508 233.438 128.705 233.052 128.801 232.635C128.876 232.315 128.386 232.218 128.311 232.535C128.234 232.864 128.078 233.169 127.856 233.421C127.642 233.666 128.016 234.003 128.229 233.759Z" fill="#273271"/>
        <path d="M129.771 242.501C130.05 242.181 130.247 241.795 130.343 241.378C130.418 241.057 129.928 240.96 129.853 241.277C129.776 241.606 129.62 241.911 129.398 242.164C129.184 242.409 129.558 242.746 129.771 242.501Z" fill="#273271"/>
        <path d="M136.749 244.413C136.842 244.438 136.812 244.644 136.804 244.708C136.775 244.863 136.764 245.02 136.77 245.178C136.796 245.502 137.296 245.469 137.269 245.143C137.248 244.891 137.348 244.65 137.291 244.397C137.27 244.282 137.217 244.176 137.139 244.091C137.06 244.006 136.959 243.945 136.848 243.916C136.537 243.832 136.439 244.328 136.749 244.413Z" fill="#273271"/>
        <path d="M143.024 232.344C142.815 232.376 142.625 232.482 142.485 232.643C142.346 232.803 142.266 233.008 142.26 233.221C142.253 233.358 142.404 233.465 142.527 233.456C142.675 233.446 142.752 233.323 142.759 233.186C142.769 233.105 142.803 233.03 142.856 232.97C142.909 232.909 142.98 232.867 143.058 232.849C143.123 232.842 143.184 232.811 143.227 232.76C143.27 232.71 143.293 232.645 143.29 232.578C143.282 232.45 143.157 232.322 143.023 232.343L143.024 232.344Z" fill="#273271"/>
        <path d="M137.001 225.029C136.793 225.062 136.602 225.167 136.463 225.328C136.323 225.488 136.243 225.693 136.238 225.906C136.231 226.043 136.381 226.151 136.505 226.142C136.653 226.131 136.73 226.008 136.737 225.871C136.746 225.791 136.78 225.715 136.833 225.655C136.887 225.594 136.957 225.552 137.035 225.534C137.101 225.528 137.161 225.496 137.205 225.446C137.248 225.395 137.27 225.33 137.268 225.264C137.259 225.135 137.135 225.007 137.001 225.028L137.001 225.029Z" fill="#273271"/>
        <path d="M141.595 210.607C141.386 210.64 141.196 210.745 141.056 210.906C140.917 211.066 140.837 211.271 140.831 211.484C140.824 211.621 140.975 211.728 141.098 211.719C141.246 211.709 141.324 211.586 141.33 211.449C141.34 211.369 141.374 211.293 141.427 211.233C141.481 211.172 141.551 211.13 141.629 211.112C141.695 211.105 141.755 211.074 141.798 211.023C141.842 210.973 141.864 210.908 141.861 210.841C141.853 210.713 141.728 210.585 141.594 210.606L141.595 210.607Z" fill="#273271"/>
        <path d="M134.85 235.324C134.641 235.357 134.451 235.463 134.311 235.623C134.172 235.783 134.092 235.988 134.086 236.202C134.079 236.339 134.23 236.446 134.353 236.437C134.501 236.427 134.578 236.304 134.585 236.167C134.595 236.086 134.629 236.011 134.682 235.951C134.736 235.89 134.806 235.848 134.884 235.83C134.949 235.823 135.01 235.792 135.053 235.741C135.096 235.691 135.119 235.626 135.116 235.559C135.108 235.431 134.983 235.303 134.849 235.324H134.85Z" fill="#273271"/>
        <path d="M150.758 231.744C151.038 231.424 151.235 231.038 151.331 230.621C151.405 230.301 150.915 230.203 150.84 230.52C150.764 230.85 150.607 231.154 150.385 231.407C150.172 231.652 150.545 231.989 150.758 231.744Z" fill="#273271"/>
        <path d="M154.339 238.184C154.432 238.209 154.402 238.415 154.394 238.479C154.365 238.634 154.354 238.791 154.359 238.949C154.386 239.273 154.886 239.24 154.859 238.914C154.838 238.662 154.938 238.421 154.881 238.168C154.86 238.053 154.807 237.947 154.729 237.862C154.65 237.777 154.549 237.716 154.438 237.687C154.127 237.603 154.028 238.099 154.339 238.184Z" fill="#273271"/>
        <path d="M146.328 239.094C146.607 238.773 146.804 238.387 146.9 237.97C146.975 237.65 146.485 237.553 146.41 237.87C146.333 238.199 146.177 238.504 145.954 238.756C145.741 239.002 146.114 239.339 146.328 239.094Z" fill="#273271"/>
        <path d="M144.786 246.074C145.065 245.753 145.262 245.367 145.358 244.95C145.433 244.63 144.942 244.533 144.868 244.85C144.791 245.179 144.635 245.484 144.412 245.736C144.199 245.981 144.572 246.319 144.786 246.074Z" fill="#273271"/>
        <path d="M151.513 246.074C151.793 245.753 151.99 245.367 152.086 244.95C152.16 244.63 151.67 244.533 151.595 244.85C151.519 245.179 151.362 245.484 151.14 245.736C150.927 245.981 151.3 246.319 151.513 246.074Z" fill="#273271"/>
        <path d="M139.785 238.387C139.878 238.412 139.848 238.618 139.84 238.682C139.811 238.837 139.8 238.995 139.806 239.152C139.832 239.476 140.332 239.444 140.305 239.118C140.284 238.865 140.384 238.624 140.327 238.371C140.306 238.256 140.253 238.15 140.175 238.065C140.096 237.98 139.995 237.919 139.884 237.89C139.573 237.806 139.475 238.302 139.785 238.387Z" fill="#273271"/>
        <path d="M168.94 240.797C169.22 240.476 169.417 240.09 169.513 239.674C169.587 239.353 169.097 239.256 169.022 239.573C168.945 239.903 168.788 240.208 168.566 240.46C168.352 240.706 168.726 241.043 168.939 240.798L168.94 240.797Z" fill="#273271"/>
        <path d="M167.399 247.777C167.679 247.456 167.876 247.07 167.972 246.654C168.046 246.333 167.556 246.236 167.481 246.553C167.405 246.882 167.248 247.187 167.026 247.439C166.812 247.685 167.186 248.022 167.399 247.777Z" fill="#273271"/>
        <path d="M162.398 240.09C162.491 240.115 162.461 240.322 162.453 240.385C162.425 240.54 162.413 240.698 162.419 240.855C162.446 241.18 162.945 241.147 162.918 240.821C162.897 240.568 162.997 240.327 162.94 240.074C162.919 239.96 162.866 239.854 162.788 239.769C162.709 239.684 162.609 239.623 162.497 239.594C162.186 239.509 162.088 240.006 162.398 240.09Z" fill="#273271"/>
        <path d="M167.715 219.012C167.808 219.037 167.778 219.243 167.77 219.306C167.741 219.462 167.73 219.619 167.735 219.777C167.762 220.101 168.262 220.068 168.235 219.742C168.214 219.49 168.314 219.249 168.257 218.996C168.236 218.881 168.183 218.775 168.105 218.69C168.026 218.605 167.925 218.544 167.814 218.515C167.503 218.43 167.404 218.927 167.715 219.012Z" fill="#273271"/>
        <path d="M165.044 227.731C165.324 227.41 165.521 227.024 165.617 226.608C165.692 226.287 165.201 226.19 165.127 226.507C165.05 226.836 164.893 227.141 164.671 227.393C164.458 227.639 164.831 227.976 165.044 227.731Z" fill="#273271"/>
        <path d="M160.328 235.236C160.607 234.916 160.804 234.53 160.9 234.113C160.975 233.793 160.484 233.695 160.41 234.012C160.333 234.342 160.177 234.646 159.954 234.899C159.741 235.144 160.114 235.481 160.328 235.236Z" fill="#273271"/>
        <path d="M155.327 227.55C155.42 227.575 155.39 227.781 155.382 227.844C155.353 227.999 155.342 228.157 155.348 228.315C155.374 228.639 155.874 228.606 155.847 228.28C155.826 228.028 155.926 227.787 155.869 227.534C155.848 227.419 155.795 227.313 155.717 227.228C155.638 227.143 155.537 227.082 155.426 227.053C155.115 226.968 155.017 227.465 155.327 227.55Z" fill="#273271"/>
        <path d="M143.264 213.655C143.544 213.334 143.741 212.948 143.837 212.531C143.911 212.211 143.421 212.114 143.346 212.431C143.27 212.76 143.113 213.065 142.891 213.317C142.678 213.563 143.051 213.9 143.264 213.655Z" fill="#273271"/>
        <path d="M152.434 201.487C152.527 201.512 152.497 201.718 152.489 201.782C152.461 201.937 152.449 202.095 152.455 202.252C152.482 202.576 152.981 202.544 152.954 202.218C152.933 201.965 153.033 201.724 152.976 201.471C152.955 201.357 152.902 201.251 152.824 201.165C152.746 201.08 152.645 201.02 152.534 200.99C152.222 200.906 152.124 201.402 152.434 201.487Z" fill="#273271"/>
        <path d="M147.281 198.178C147.56 197.858 147.757 197.472 147.853 197.055C147.928 196.734 147.438 196.637 147.363 196.954C147.286 197.283 147.13 197.588 146.907 197.841C146.694 198.086 147.068 198.423 147.281 198.178Z" fill="#273271"/>
        <path d="M145.739 205.159C146.018 204.838 146.215 204.452 146.311 204.036C146.386 203.715 145.895 203.618 145.821 203.935C145.744 204.264 145.588 204.569 145.365 204.821C145.152 205.067 145.525 205.404 145.739 205.159Z" fill="#273271"/>
        <path d="M129.608 206.145C129.399 206.177 129.209 206.283 129.069 206.443C128.93 206.604 128.85 206.808 128.844 207.022C128.837 207.159 128.988 207.266 129.111 207.257C129.259 207.247 129.336 207.124 129.343 206.987C129.353 206.906 129.387 206.831 129.44 206.771C129.494 206.711 129.564 206.669 129.642 206.65C129.707 206.644 129.768 206.612 129.811 206.562C129.854 206.512 129.877 206.446 129.874 206.38C129.866 206.252 129.741 206.123 129.607 206.145H129.608Z" fill="#273271"/>
        <path d="M139.46 202.001C139.639 201.989 139.816 202.039 139.963 202.143C140.11 202.247 140.218 202.399 140.268 202.573C140.362 202.885 140.837 202.722 140.742 202.409C140.655 202.13 140.478 201.888 140.24 201.722C140.001 201.556 139.715 201.476 139.426 201.495C139.105 201.515 139.138 202.021 139.46 202V202.001Z" fill="#273271"/>
        <path d="M133.454 212.284C133.633 212.272 133.811 212.322 133.958 212.426C134.104 212.53 134.212 212.682 134.262 212.856C134.357 213.168 134.832 213.005 134.736 212.692C134.649 212.413 134.472 212.171 134.234 212.005C133.995 211.839 133.709 211.759 133.42 211.778C133.099 211.798 133.132 212.304 133.454 212.283V212.284Z" fill="#273271"/>
        <path d="M133.299 204.42C133.67 204.54 134.027 204.363 134.311 204.125C134.611 203.875 134.933 203.565 134.986 203.158C135.029 202.837 134.539 202.733 134.496 203.057C134.461 203.325 134.233 203.529 134.039 203.698C133.845 203.867 133.649 204.004 133.399 203.923C133.093 203.824 132.995 204.322 133.299 204.42H133.299Z" fill="#273271"/>
        <path d="M139.811 207.258C139.602 207.291 139.412 207.397 139.272 207.557C139.133 207.717 139.053 207.922 139.047 208.136C139.04 208.273 139.191 208.38 139.314 208.371C139.462 208.361 139.539 208.238 139.546 208.1C139.556 208.02 139.59 207.944 139.643 207.884C139.697 207.824 139.767 207.782 139.845 207.763C139.911 207.757 139.971 207.725 140.014 207.675C140.058 207.625 140.08 207.559 140.077 207.493C140.069 207.365 139.944 207.237 139.81 207.258L139.811 207.258Z" fill="#273271"/>
    </g>
    <path d="M104.52 231.364C103.441 231.267 102.358 231.495 101.406 232.019C98.3697 233.686 92.5013 236.266 92.7655 237.305C93.0782 238.539 103.48 238.657 107.73 236.829C107.73 236.829 134.796 234.05 141.004 231.878C147.176 228.815 156.537 217.591 156.537 217.591L145.416 211.281L136.333 222.632C136.333 222.632 127.295 228.081 108.979 231.764L104.52 231.364Z" fill="#E58057"/>
    <path d="M159.755 190.232C153.795 187.571 149.551 194.668 147.291 199.567C145.031 204.466 138.732 213.213 138.732 213.213L154.894 221.938C154.894 221.938 160.928 212.474 164.41 203.869C167.893 195.264 161.844 191.165 159.755 190.232Z" fill="#3A4375"/>
    <path d="M117.139 239.382C115.881 238.266 115.648 237.067 112.524 237.251C109.4 237.435 88.9053 238.607 88.9053 238.607L89.2995 241.025L117.139 239.382Z" fill="#ABACAE"/>
    <path d="M70.3729 218.153L84.9817 241.25L95.233 240.6L80.0588 217.23C79.841 216.952 79.5613 216.73 79.2427 216.583C78.924 216.435 78.5754 216.366 78.2253 216.381L71.0929 216.643C70.9232 216.65 70.7587 216.704 70.6167 216.799C70.4748 216.893 70.3608 217.025 70.2869 217.18C70.213 217.335 70.182 217.507 70.1971 217.678C70.2122 217.85 70.273 218.014 70.3729 218.153Z" fill="#ABACAE"/>
    <path d="M104.823 314.571L90.1874 316.168L89.0625 311.951L103.922 309.956L104.823 314.571Z" fill="#273271"/>
    <path d="M78.7316 311.216L66.8492 308.782C66.399 308.689 66.0888 308.308 66.1192 307.884L66.3242 305.026C66.362 304.493 66.9134 304.12 67.4763 304.245L79.4664 306.912C79.924 307.014 80.2285 307.412 80.1766 307.843L79.8639 310.471C79.8038 310.98 79.2755 311.324 78.7316 311.216Z" fill="#273271"/>
    <defs>
        <linearGradient id="paint0_linear" x1="80.9438" y1="344.015" x2="288.398" y2="383.734" gradientUnits="userSpaceOnUse">
            <stop offset="0.04" stop-color="#3B78CD"/>
            <stop offset="1" stop-color="#0B0146"/>
        </linearGradient>
        <linearGradient id="paint1_linear" x1="920487" y1="83277.6" x2="920546" y2="66380.4" gradientUnits="userSpaceOnUse">
            <stop offset="0.27" stop-color="white"/>
            <stop offset="1"/>
        </linearGradient>
        <linearGradient id="paint2_linear" x1="300.526" y1="256.153" x2="93.0727" y2="295.872" gradientUnits="userSpaceOnUse">
            <stop offset="0.06" stop-color="#3B0945"/>
            <stop offset="0.24" stop-color="#410E47"/>
            <stop offset="0.48" stop-color="#511D4B"/>
            <stop offset="0.75" stop-color="#6D3452"/>
            <stop offset="0.97" stop-color="#884C59"/>
        </linearGradient>
        <linearGradient id="paint3_linear" x1="390.63" y1="325.614" x2="300.755" y2="325.614" gradientUnits="userSpaceOnUse">
            <stop stop-color="#9BA0DE"/>
            <stop offset="0.11" stop-color="#A1A6E1"/>
            <stop offset="0.67" stop-color="#BDC1EF"/>
            <stop offset="1" stop-color="#C7CBF4"/>
        </linearGradient>
        <linearGradient id="paint4_linear" x1="277.478" y1="378.857" x2="414.045" y2="378.857" gradientUnits="userSpaceOnUse">
            <stop stop-color="#D5D9F4"/>
            <stop offset="0.3" stop-color="#CCCFEF"/>
            <stop offset="0.81" stop-color="#B4B3E3"/>
            <stop offset="1" stop-color="#A9A7DE"/>
        </linearGradient>
        <linearGradient id="paint5_linear" x1="178.492" y1="258.861" x2="274.228" y2="258.861" gradientUnits="userSpaceOnUse">
            <stop stop-color="white"/>
            <stop offset="0.46" stop-color="#C3D5F2"/>
            <stop offset="0.97" stop-color="#7CA3E2"/>
        </linearGradient>
        <linearGradient id="paint6_linear" x1="89011.2" y1="7927.58" x2="171712" y2="7927.58" gradientUnits="userSpaceOnUse">
            <stop stop-color="white"/>
            <stop offset="0.46" stop-color="#C3D5F2"/>
            <stop offset="0.97" stop-color="#7CA3E2"/>
        </linearGradient>
        <linearGradient id="paint7_linear" x1="76035.6" y1="8271.61" x2="136341" y2="8271.61" gradientUnits="userSpaceOnUse">
            <stop stop-color="white"/>
            <stop offset="0.46" stop-color="#C3D5F2"/>
            <stop offset="0.97" stop-color="#7CA3E2"/>
        </linearGradient>
        <linearGradient id="paint8_linear" x1="411.91" y1="141.792" x2="546.286" y2="141.792" gradientUnits="userSpaceOnUse">
            <stop stop-color="#E4E8F6"/>
            <stop offset="0.4" stop-color="#B4C8ED"/>
            <stop offset="0.78" stop-color="#8BADE5"/>
            <stop offset="0.97" stop-color="#7CA3E2"/>
        </linearGradient>
        <linearGradient id="paint9_linear" x1="408100" y1="2893.55" x2="571023" y2="2893.55" gradientUnits="userSpaceOnUse">
            <stop stop-color="#E4E8F6"/>
            <stop offset="0.4" stop-color="#B4C8ED"/>
            <stop offset="0.78" stop-color="#8BADE5"/>
            <stop offset="0.97" stop-color="#7CA3E2"/>
        </linearGradient>
        <linearGradient id="paint10_linear" x1="348562" y1="3237.65" x2="467370" y2="3237.65" gradientUnits="userSpaceOnUse">
            <stop stop-color="#E4E8F6"/>
            <stop offset="0.4" stop-color="#B4C8ED"/>
            <stop offset="0.78" stop-color="#8BADE5"/>
            <stop offset="0.97" stop-color="#7CA3E2"/>
        </linearGradient>
        <linearGradient id="paint11_linear" x1="408100" y1="3860.94" x2="571023" y2="3860.94" gradientUnits="userSpaceOnUse">
            <stop stop-color="#E4E8F6"/>
            <stop offset="0.4" stop-color="#B4C8ED"/>
            <stop offset="0.78" stop-color="#8BADE5"/>
            <stop offset="0.97" stop-color="#7CA3E2"/>
        </linearGradient>
        <linearGradient id="paint12_linear" x1="408100" y1="4205.16" x2="571023" y2="4205.16" gradientUnits="userSpaceOnUse">
            <stop stop-color="#E4E8F6"/>
            <stop offset="0.4" stop-color="#B4C8ED"/>
            <stop offset="0.78" stop-color="#8BADE5"/>
            <stop offset="0.97" stop-color="#7CA3E2"/>
        </linearGradient>
        <linearGradient id="paint13_linear" x1="348562" y1="4549.14" x2="467370" y2="4549.14" gradientUnits="userSpaceOnUse">
            <stop stop-color="#E4E8F6"/>
            <stop offset="0.4" stop-color="#B4C8ED"/>
            <stop offset="0.78" stop-color="#8BADE5"/>
            <stop offset="0.97" stop-color="#7CA3E2"/>
        </linearGradient>
        <linearGradient id="paint14_linear" x1="408100" y1="5173.27" x2="571023" y2="5173.27" gradientUnits="userSpaceOnUse">
            <stop stop-color="#E4E8F6"/>
            <stop offset="0.4" stop-color="#B4C8ED"/>
            <stop offset="0.78" stop-color="#8BADE5"/>
            <stop offset="0.97" stop-color="#7CA3E2"/>
        </linearGradient>
        <linearGradient id="paint15_linear" x1="408100" y1="5517.33" x2="571023" y2="5517.33" gradientUnits="userSpaceOnUse">
            <stop stop-color="#E4E8F6"/>
            <stop offset="0.4" stop-color="#B4C8ED"/>
            <stop offset="0.78" stop-color="#8BADE5"/>
            <stop offset="0.97" stop-color="#7CA3E2"/>
        </linearGradient>
        <linearGradient id="paint16_linear" x1="348562" y1="5861.41" x2="467370" y2="5861.41" gradientUnits="userSpaceOnUse">
            <stop stop-color="#E4E8F6"/>
            <stop offset="0.4" stop-color="#B4C8ED"/>
            <stop offset="0.78" stop-color="#8BADE5"/>
            <stop offset="0.97" stop-color="#7CA3E2"/>
        </linearGradient>
        <linearGradient id="paint17_linear" x1="73107.6" y1="29141.7" x2="38828.8" y2="57798.6" gradientUnits="userSpaceOnUse">
            <stop stop-color="white"/>
            <stop offset="0.46" stop-color="#C3D5F2"/>
            <stop offset="0.97" stop-color="#7CA3E2"/>
        </linearGradient>
        <linearGradient id="paint18_linear" x1="53921.8" y1="13148.3" x2="53921.8" y2="26828.7" gradientUnits="userSpaceOnUse">
            <stop stop-color="white"/>
            <stop offset="0.46" stop-color="#C3D5F2"/>
            <stop offset="0.97" stop-color="#7CA3E2"/>
        </linearGradient>
        <linearGradient id="paint19_linear" x1="81053.4" y1="25599.6" x2="100378" y2="50874.8" gradientUnits="userSpaceOnUse">
            <stop stop-color="white"/>
            <stop offset="0.46" stop-color="#C3D5F2"/>
            <stop offset="0.97" stop-color="#7CA3E2"/>
        </linearGradient>
        <linearGradient id="paint20_linear" x1="47415.9" y1="933.526" x2="48840.1" y2="933.526" gradientUnits="userSpaceOnUse">
            <stop offset="0.03" stop-color="#884C59"/>
            <stop offset="0.12" stop-color="#6D3C4D"/>
            <stop offset="0.28" stop-color="#47273D"/>
            <stop offset="0.42" stop-color="#2B1731"/>
            <stop offset="0.54" stop-color="#1B0D2A"/>
            <stop offset="0.63" stop-color="#150A27"/>
            <stop offset="0.95"/>
        </linearGradient>
        <linearGradient id="paint21_linear" x1="92487.6" y1="5451.41" x2="85333.6" y2="463.346" gradientUnits="userSpaceOnUse">
            <stop offset="0.03" stop-color="#884C59"/>
            <stop offset="0.12" stop-color="#6D3C4D"/>
            <stop offset="0.28" stop-color="#47273D"/>
            <stop offset="0.42" stop-color="#2B1731"/>
            <stop offset="0.54" stop-color="#1B0D2A"/>
            <stop offset="0.63" stop-color="#150A27"/>
            <stop offset="0.95"/>
        </linearGradient>
        <linearGradient id="paint22_linear" x1="31305.2" y1="26381.5" x2="150223" y2="119520" gradientUnits="userSpaceOnUse">
            <stop offset="0.03" stop-color="#884C59"/>
            <stop offset="0.12" stop-color="#6D3C4D"/>
            <stop offset="0.28" stop-color="#47273D"/>
            <stop offset="0.42" stop-color="#2B1731"/>
            <stop offset="0.54" stop-color="#1B0D2A"/>
            <stop offset="0.63" stop-color="#150A27"/>
            <stop offset="0.95"/>
        </linearGradient>
        <linearGradient id="paint23_linear" x1="21284.4" y1="12655.5" x2="21532.3" y2="12655.5" gradientUnits="userSpaceOnUse">
            <stop offset="0.03" stop-color="#B4BFEB"/>
            <stop offset="0.28" stop-color="#C3CCEF"/>
            <stop offset="0.78" stop-color="#ECEFFA"/>
            <stop offset="1" stop-color="white"/>
        </linearGradient>
        <linearGradient id="paint24_linear" x1="523.629" y1="279.935" x2="546.074" y2="242.91" gradientUnits="userSpaceOnUse">
            <stop stop-color="#F6E8EE"/>
            <stop offset="0.17" stop-color="#E3D7DC"/>
            <stop offset="0.53" stop-color="#B1A9AC"/>
            <stop offset="1" stop-color="#666666"/>
        </linearGradient>
        <linearGradient id="paint25_linear" x1="21224.1" y1="70154.2" x2="23273.4" y2="73385.8" gradientUnits="userSpaceOnUse">
            <stop offset="0.37" stop-color="#022F6B"/>
            <stop offset="0.47" stop-color="#02326F"/>
            <stop offset="0.57" stop-color="#023C7C"/>
            <stop offset="0.68" stop-color="#014D92"/>
            <stop offset="0.79" stop-color="#0164B0"/>
            <stop offset="0.9" stop-color="#0181D6"/>
            <stop offset="1" stop-color="#00A0FF"/>
        </linearGradient>
        <linearGradient id="paint26_linear" x1="70402.5" y1="44084.7" x2="78095.3" y2="44084.7" gradientUnits="userSpaceOnUse">
            <stop offset="0.09" stop-color="#DFE6EB"/>
            <stop offset="0.26" stop-color="#D1D7DC"/>
            <stop offset="0.59" stop-color="#ADB1B3"/>
            <stop offset="0.95" stop-color="#808080"/>
        </linearGradient>
        <linearGradient id="paint27_linear" x1="72777" y1="72993.6" x2="79150.7" y2="72993.6" gradientUnits="userSpaceOnUse">
            <stop offset="0.09" stop-color="#DFE6EB"/>
            <stop offset="0.26" stop-color="#D1D7DC"/>
            <stop offset="0.59" stop-color="#ADB1B3"/>
            <stop offset="0.95" stop-color="#808080"/>
        </linearGradient>
        <linearGradient id="paint28_linear" x1="191786" y1="99339.4" x2="234168" y2="79108.3" gradientUnits="userSpaceOnUse">
            <stop offset="0.2" stop-color="#E58057"/>
            <stop offset="0.93" stop-color="#ECDFCF"/>
        </linearGradient>
        <linearGradient id="paint29_linear" x1="20949.9" y1="37509.5" x2="21366.1" y2="35523.8" gradientUnits="userSpaceOnUse">
            <stop offset="0.07" stop-color="#ECDFCF"/>
            <stop offset="0.8" stop-color="#E58057"/>
        </linearGradient>
    </defs>
</svg>
