<svg width="346" height="280" viewBox="0 0 346 280" fill="none" xmlns="http://www.w3.org/2000/svg">
    <rect width="345.333" height="280" fill="white"/>
    <path opacity="0.75" d="M16.1796 197.641L0.170037 159.355L15.0758 151.784C13.5787 142.432 13.5347 132.906 14.9454 123.541L0 116.08L15.7304 77.7064L31.6124 82.8826C37.1816 75.2226 43.8997 68.4681 51.5295 62.8575L46.2269 47.0023L84.5031 30.9701L92.0742 45.8758C101.426 44.3795 110.952 44.3356 120.317 45.7454L127.778 30.8L166.168 46.5371L160.991 62.419C168.651 67.9884 175.406 74.7065 181.017 82.3361L196.872 77.0335L212.878 115.28L197.973 122.852C199.47 132.203 199.514 141.73 198.103 151.095L213.048 158.556L197.311 196.945L181.429 191.769C175.861 199.429 169.143 206.184 161.512 211.794L166.841 227.678L128.594 243.685L121.023 228.779C111.671 230.275 102.144 230.319 92.7794 228.91L85.3184 243.855L46.9129 228.111L52.0891 212.229C44.4293 206.66 37.6748 199.942 32.064 192.312L16.1796 197.641ZM113.415 187.511C124.526 186.022 134.834 180.907 142.74 172.959C150.646 165.012 155.707 154.676 157.138 143.558C158.568 132.439 156.287 121.159 150.65 111.47C145.013 101.78 136.334 94.2223 125.962 89.9703C115.589 85.7183 104.103 85.0097 93.2864 87.9544C82.4699 90.8992 72.9281 97.3326 66.1425 106.256C59.3569 115.179 55.7072 126.093 55.7598 137.303C55.8124 148.513 59.5646 159.392 66.4337 168.251C71.8615 175.33 79.0699 180.842 87.3234 184.225C95.5769 187.609 104.58 188.742 113.415 187.511Z" fill="#E8443C"/>
    <path d="M283.863 193.064C280.498 193.064 277.77 190.333 277.77 186.965C277.77 183.596 280.498 180.865 283.863 180.865C287.228 180.865 289.956 183.596 289.956 186.965C289.956 190.333 287.228 193.064 283.863 193.064Z" fill="#FF7043"/>
    <path d="M281.071 188.395H286.654V253.869H281.071V188.395Z" fill="#FF7043"/>
    <path d="M94.8903 192.254L85.9391 216.352L109.757 223.316L117.468 202.545L94.8903 192.254Z" fill="#E8EAF6"/>
    <path d="M85.9497 133.978H283.686V246.172H85.9497V133.978Z" fill="#9399B8"/>
    <path d="M95.0232 70.3234H239.329C243.21 70.3234 246.932 71.8668 249.677 74.6141C252.421 77.3614 253.963 81.0875 253.963 84.9728V245.862H109.613V142.295V84.9839C109.616 81.1044 108.082 77.3821 105.347 74.6337C102.611 71.8852 98.8987 70.3351 95.0232 70.3234Z" fill="#F1F1FB"/>
    <path d="M134.495 127.624H234.354V192.254H134.495V127.624Z" fill="white"/>
    <g style="mix-blend-mode:multiply">
        <g style="mix-blend-mode:multiply">
            <path d="M101.703 122.611H109.657V246.183H101.703V122.611Z" fill="#9399B8"/>
        </g>
    </g>
    <path d="M169.369 81.2024H197.319C197.927 81.2024 198.511 80.9605 198.941 80.53C199.371 80.0995 199.612 79.5156 199.612 78.9068C199.609 78.2999 199.366 77.7189 198.937 77.2907C198.507 76.8626 197.925 76.6223 197.319 76.6223H169.324C168.716 76.6223 168.133 76.8642 167.703 77.2947C167.273 77.7252 167.031 78.3091 167.031 78.9179C167.033 79.2222 167.094 79.5232 167.213 79.8033C167.332 80.0835 167.505 80.3372 167.722 80.5498C167.94 80.7624 168.197 80.9295 168.48 81.0416C168.763 81.1536 169.065 81.2082 169.369 81.2024Z" fill="#B8B8E8"/>
    <path d="M121.765 81.0027H157.847C158.456 81.0027 159.039 80.7609 159.469 80.3304C159.899 79.8999 160.141 79.316 160.141 78.7072C160.141 78.0984 159.899 77.5145 159.469 77.084C159.039 76.6535 158.456 76.4116 157.847 76.4116H121.765C121.157 76.4116 120.574 76.6535 120.144 77.084C119.714 77.5145 119.472 78.0984 119.472 78.7072C119.472 79.316 119.714 79.8999 120.144 80.3304C120.574 80.7609 121.157 81.0027 121.765 81.0027Z" fill="#B8B8E8"/>
    <path d="M145.639 93.9333H197.319C197.927 93.9333 198.511 93.6914 198.941 93.2609C199.371 92.8304 199.612 92.2465 199.612 91.6377C199.612 91.0289 199.371 90.445 198.941 90.0145C198.511 89.584 197.927 89.3422 197.319 89.3422H145.584C144.975 89.3422 144.392 89.584 143.962 90.0145C143.532 90.445 143.29 91.0289 143.29 91.6377C143.29 91.9439 143.351 92.247 143.47 92.5292C143.589 92.8114 143.763 93.0669 143.982 93.2808C144.2 93.4948 144.46 93.6627 144.744 93.7747C145.029 93.8868 145.333 93.9407 145.639 93.9333Z" fill="#FCE1C0"/>
    <path d="M145.509 107.067H197.465C197.941 107.067 198.397 106.806 198.733 106.341C199.069 105.876 199.258 105.246 199.258 104.588C199.258 103.93 199.069 103.3 198.733 102.835C198.397 102.37 197.941 102.108 197.465 102.108H145.509C145.034 102.108 144.578 102.37 144.241 102.835C143.905 103.3 143.716 103.93 143.716 104.588C143.716 105.246 143.905 105.876 144.241 106.341C144.578 106.806 145.034 107.067 145.509 107.067Z" fill="#FCE1C0"/>
    <path d="M145.639 119.539H197.319C197.927 119.539 198.511 119.297 198.941 118.867C199.371 118.436 199.612 117.853 199.612 117.244C199.598 116.645 199.35 116.075 198.921 115.656C198.493 115.238 197.918 115.003 197.319 115.004H145.584C144.975 115.004 144.392 115.246 143.962 115.676C143.532 116.107 143.29 116.69 143.29 117.299C143.298 117.601 143.364 117.898 143.486 118.174C143.608 118.449 143.783 118.698 144.001 118.906C144.219 119.114 144.476 119.277 144.757 119.386C145.038 119.495 145.338 119.547 145.639 119.539Z" fill="#FCE1C0"/>
    <path d="M178.022 254.8H182.686L168.893 144.558H164.229L178.022 254.8Z" fill="#1A237E"/>
    <path d="M161.98 254.8H166.644L152.862 144.558H148.187L161.98 254.8Z" fill="#1A237E"/>
    <path d="M149.528 150.491L150.115 155.159H170.222L169.635 150.491H149.528Z" fill="#1A237E"/>
    <path d="M151.489 166.105L152.065 170.774H172.172L171.585 166.105H151.489Z" fill="#1A237E"/>
    <path d="M153.438 181.719L154.025 186.399H174.121L173.545 181.719H153.438Z" fill="#1A237E"/>
    <path d="M155.389 197.344L155.976 202.013H176.083L175.496 197.344H155.389Z" fill="#1A237E"/>
    <path d="M157.349 212.959L157.925 217.627H178.032L177.445 212.959H157.349Z" fill="#1A237E"/>
    <path d="M159.299 228.573L159.887 233.242H179.982L179.406 228.573H159.299Z" fill="#1A237E"/>
    <path d="M161.248 244.187L161.835 248.867H181.942L181.355 244.187H161.248Z" fill="#1A237E"/>
    <path d="M181.356 244.187H262.881L251.747 155.159H170.222L181.356 244.187Z" fill="#FF8888"/>
    <path d="M191.072 201.048L240.525 227.675C241.092 227.981 241.733 228.125 242.376 228.091C243.02 228.057 243.642 227.846 244.174 227.482C244.706 227.118 245.127 226.614 245.392 226.026C245.657 225.438 245.756 224.788 245.677 224.148L239.03 170.918C238.957 170.332 238.738 169.775 238.393 169.296C238.048 168.818 237.589 168.434 237.057 168.18C236.525 167.925 235.938 167.809 235.349 167.842C234.761 167.875 234.19 168.056 233.69 168.367L190.95 194.982C190.427 195.303 189.998 195.755 189.704 196.293C189.41 196.831 189.262 197.437 189.274 198.05C189.286 198.664 189.459 199.263 189.774 199.789C190.089 200.315 190.537 200.749 191.072 201.048Z" fill="white"/>
    <path d="M279.642 254.8H284.317L270.525 144.558H265.85L279.642 254.8Z" fill="#1A237E"/>
    <path d="M263.611 254.8H268.275L254.483 144.558H249.819L263.611 254.8Z" fill="#1A237E"/>
    <path d="M251.16 150.491L251.747 155.159H271.843L271.267 150.491H251.16Z" fill="#1A237E"/>
    <path d="M253.11 166.105L253.697 170.774H273.804L273.217 166.105H253.11Z" fill="#1A237E"/>
    <path d="M255.071 181.719L255.647 186.399H275.754L275.167 181.719H255.071Z" fill="#1A237E"/>
    <path d="M257.02 197.344L257.607 202.013H277.703L277.127 197.344H257.02Z" fill="#1A237E"/>
    <path d="M258.97 212.959L259.557 217.627H279.664L279.077 212.959H258.97Z" fill="#1A237E"/>
    <path d="M260.931 228.573L261.507 233.242H281.614L281.027 228.573H260.931Z" fill="#1A237E"/>
    <path d="M262.881 244.187L263.468 248.867H283.575L282.988 244.187H262.881Z" fill="#1A237E"/>
</svg>
