<svg width="1055" height="564" viewBox="0 0 1055 564" fill="none" xmlns="http://www.w3.org/2000/svg">
    <path fill-rule="evenodd" clip-rule="evenodd" d="M155.159 0.000130243L155.159 191.528C155.159 191.528 -30.334 310.211 4.31255 363.242C38.1468 415.03 130.446 451.485 215.529 489.221C307.004 529.792 390.403 563.343 515.569 563.992C640.73 564.64 710.262 526.867 808.351 492.291C893.407 462.308 1016.19 448.006 1051.36 401.129C1086.25 354.618 859.024 270.04 859.025 268.54V0L155.159 0.000130243Z" fill="#FEF0E0"/>
    <path d="M472.087 466.834C472.087 466.834 466.169 474.815 472.087 480.356H399.734C399.734 480.356 392.327 478.883 392.327 473.595C392.327 468.306 394.724 464.768 405.397 465.091C416.07 465.413 472.087 466.834 472.087 466.834Z" fill="#FCE1C0"/>
    <path d="M472.087 484.232H402.03C395.439 484.232 390.077 479.46 390.077 473.595C390.077 467.73 395.439 462.958 402.03 462.958H472.087V466.834H402.03C397.841 466.834 394.434 469.867 394.434 473.595C394.434 477.322 397.842 480.356 402.03 480.356H472.087V484.232Z" fill="url(#paint0_linear)"/>
    <path d="M400.265 427.691C400.265 427.691 406.182 435.672 400.265 441.213H472.617C472.617 441.213 480.024 439.741 480.024 434.452C480.024 429.164 477.627 425.625 466.954 425.948C456.281 426.271 400.265 427.691 400.265 427.691Z" fill="url(#paint1_linear)"/>
    <path d="M400.265 445.089H470.322C476.913 445.089 482.275 440.318 482.275 434.452C482.275 428.587 476.915 423.816 470.322 423.816H400.265V427.692H470.322C474.511 427.692 477.918 430.725 477.918 434.452C477.918 438.18 474.51 441.213 470.322 441.213H400.265V445.089Z" fill="url(#paint2_linear)"/>
    <path d="M474.118 445.342H396.301C396.177 445.342 396.076 445.444 396.076 445.569V462.834C396.076 462.96 396.177 463.062 396.301 463.062H474.118C474.242 463.062 474.343 462.96 474.343 462.834V445.569C474.343 445.444 474.242 445.342 474.118 445.342Z" fill="#C9CEF2"/>
    <g opacity="0.67">
        <path opacity="0.67" d="M464.202 459.265H406.305V449.289H464.202V459.265ZM406.917 458.621H463.592V449.933H406.917V458.621Z" fill="#FF8888"/>
    </g>
    <g opacity="0.67">
        <path opacity="0.67" d="M457.074 453.955H412.617V454.599H457.074V453.955Z" fill="#FF8888"/>
    </g>
    <g opacity="0.27">
        <path opacity="0.27" d="M655.806 421.77L653.255 421.605C653.243 420.742 653.188 419.891 653.104 419.048L655.62 418.579C655.922 418.522 656.211 418.406 656.469 418.236C656.727 418.067 656.949 417.848 657.124 417.591C657.298 417.335 657.421 417.046 657.485 416.741C657.55 416.436 657.554 416.122 657.498 415.815C657.443 415.509 657.328 415.217 657.16 414.955C656.993 414.694 656.777 414.468 656.523 414.292C656.27 414.115 655.985 413.991 655.684 413.926C655.383 413.86 655.073 413.856 654.77 413.913L652.263 414.381C651.954 413.195 651.571 412.03 651.117 410.893L653.386 409.738C653.661 409.599 653.906 409.405 654.107 409.17C654.308 408.934 654.462 408.66 654.558 408.365C654.655 408.069 654.693 407.757 654.671 407.446C654.649 407.135 654.566 406.832 654.428 406.554C654.29 406.275 654.099 406.027 653.867 405.823C653.634 405.62 653.364 405.464 653.072 405.366C652.78 405.268 652.472 405.23 652.165 405.252C651.858 405.275 651.559 405.358 651.284 405.498L649.006 406.657C648.523 405.852 647.997 405.076 647.442 404.323L649.367 402.614C649.828 402.198 650.108 401.613 650.146 400.989C650.183 400.364 649.976 399.75 649.568 399.28C649.161 398.809 648.587 398.521 647.97 398.477C647.354 398.434 646.746 398.638 646.278 399.047L644.352 400.757C643.733 400.148 643.089 399.567 642.42 399.016L643.872 396.878C644.047 396.622 644.17 396.333 644.234 396.028C644.298 395.724 644.303 395.409 644.247 395.103C644.191 394.796 644.076 394.504 643.909 394.243C643.742 393.981 643.525 393.755 643.272 393.579C643.019 393.402 642.733 393.278 642.433 393.212C642.132 393.147 641.821 393.143 641.519 393.199C641.216 393.256 640.928 393.372 640.669 393.542C640.411 393.711 640.189 393.93 640.014 394.187L638.564 396.319C637.631 395.772 636.669 395.278 635.683 394.839L636.519 392.394C636.619 392.1 636.662 391.788 636.643 391.477C636.625 391.166 636.546 390.862 636.412 390.582C636.278 390.301 636.09 390.051 635.86 389.844C635.63 389.637 635.362 389.478 635.071 389.376C634.78 389.274 634.473 389.231 634.166 389.25C633.859 389.268 633.558 389.348 633.281 389.484C633.005 389.62 632.757 389.81 632.553 390.043C632.349 390.276 632.192 390.548 632.091 390.842L631.255 393.286C630.311 393.036 629.354 392.834 628.39 392.681L628.579 390.107C628.603 389.796 628.566 389.483 628.471 389.186C628.375 388.889 628.222 388.614 628.022 388.377C627.821 388.14 627.576 387.946 627.301 387.805C627.025 387.664 626.725 387.579 626.418 387.556C626.11 387.533 625.801 387.572 625.509 387.67C625.216 387.768 624.945 387.923 624.712 388.127C624.479 388.332 624.287 388.581 624.149 388.86C624.011 389.139 623.929 389.443 623.907 389.755L623.717 392.335C622.548 392.342 621.381 392.418 620.221 392.565L619.702 390.032C619.573 389.419 619.21 388.882 618.691 388.539C618.173 388.197 617.541 388.076 616.935 388.203C616.329 388.331 615.797 388.696 615.456 389.219C615.115 389.743 614.992 390.382 615.115 390.997L615.634 393.528C614.806 393.773 613.997 394.057 613.199 394.373L612.083 392.042C611.949 391.76 611.762 391.507 611.533 391.299C611.303 391.09 611.034 390.93 610.743 390.827C610.451 390.723 610.143 390.68 609.835 390.698C609.526 390.716 609.225 390.795 608.947 390.932C608.67 391.068 608.421 391.259 608.217 391.493C608.012 391.727 607.855 392 607.755 392.296C607.655 392.591 607.613 392.904 607.633 393.216C607.652 393.528 607.732 393.833 607.869 394.114L608.985 396.445C608.052 397.003 607.15 397.612 606.283 398.27L604.589 396.322C604.177 395.857 603.6 395.576 602.984 395.539C602.367 395.503 601.762 395.714 601.299 396.128C600.835 396.541 600.552 397.123 600.51 397.746C600.468 398.37 600.67 398.985 601.074 399.459L602.767 401.405C602.093 402.11 601.449 402.844 600.845 403.614L598.724 402.176C598.469 402.001 598.181 401.879 597.879 401.816C597.577 401.754 597.266 401.753 596.963 401.813C596.66 401.873 596.372 401.993 596.115 402.166C595.858 402.339 595.638 402.562 595.466 402.821C595.295 403.081 595.175 403.372 595.115 403.679C595.055 403.985 595.055 404.3 595.116 404.607C595.176 404.913 595.296 405.204 595.468 405.464C595.64 405.723 595.861 405.945 596.118 406.118L598.23 407.551C597.773 408.375 597.357 409.222 596.98 410.094L594.578 409.246C594.286 409.136 593.975 409.086 593.663 409.099C593.352 409.112 593.046 409.188 592.764 409.322C592.482 409.456 592.229 409.646 592.02 409.881C591.811 410.116 591.651 410.39 591.548 410.688C591.446 410.987 591.403 411.303 591.422 411.618C591.442 411.933 591.523 412.241 591.662 412.524C591.8 412.807 591.993 413.059 592.229 413.265C592.465 413.472 592.74 413.628 593.036 413.726L595.448 414.577C595.17 415.653 594.952 416.743 594.794 417.844L592.247 417.679C591.632 417.647 591.028 417.862 590.568 418.277C590.107 418.693 589.827 419.275 589.788 419.898C589.749 420.522 589.954 421.135 590.359 421.606C590.764 422.078 591.335 422.368 591.95 422.415L594.501 422.579C594.516 423.442 594.569 424.292 594.653 425.135L592.137 425.605C591.835 425.661 591.546 425.777 591.288 425.947C591.03 426.116 590.807 426.336 590.633 426.592C590.458 426.849 590.335 427.138 590.271 427.442C590.207 427.747 590.202 428.062 590.258 428.368C590.314 428.675 590.429 428.967 590.596 429.228C590.763 429.49 590.98 429.715 591.233 429.892C591.487 430.069 591.772 430.193 592.073 430.258C592.374 430.323 592.684 430.328 592.987 430.271L595.493 429.803C595.803 430.989 596.186 432.154 596.64 433.291L594.372 434.452C594.098 434.591 593.853 434.785 593.651 435.02C593.45 435.256 593.297 435.53 593.2 435.825C593.103 436.121 593.065 436.433 593.087 436.744C593.11 437.055 593.192 437.358 593.33 437.636C593.468 437.915 593.659 438.163 593.892 438.367C594.124 438.57 594.394 438.726 594.686 438.824C594.978 438.922 595.287 438.96 595.593 438.938C595.9 438.915 596.2 438.832 596.474 438.692L598.752 437.533C599.235 438.338 599.762 439.113 600.316 439.866L598.391 441.575C597.929 441.992 597.649 442.576 597.611 443.201C597.573 443.826 597.781 444.441 598.189 444.911C598.596 445.382 599.171 445.671 599.788 445.714C600.404 445.757 601.013 445.552 601.481 445.143L603.406 443.433C604.025 444.042 604.669 444.622 605.339 445.175L603.886 447.312C603.541 447.83 603.412 448.466 603.527 449.08C603.642 449.694 603.992 450.238 604.5 450.592C605.009 450.947 605.635 451.084 606.242 450.974C606.85 450.864 607.39 450.515 607.745 450.004L609.195 447.871C610.127 448.418 611.089 448.912 612.076 449.351L611.24 451.795C611.036 452.39 611.074 453.042 611.346 453.608C611.617 454.174 612.099 454.608 612.686 454.814C613.273 455.02 613.917 454.981 614.476 454.707C615.035 454.432 615.463 453.943 615.667 453.349L616.502 450.905C617.446 451.155 618.402 451.357 619.366 451.51L619.178 454.084C619.136 454.709 619.339 455.326 619.745 455.8C620.15 456.273 620.724 456.565 621.341 456.611C621.958 456.658 622.568 456.455 623.038 456.048C623.508 455.64 623.8 455.061 623.85 454.436L624.039 451.856C625.208 451.849 626.376 451.773 627.536 451.626L628.055 454.158C628.112 454.469 628.229 454.765 628.4 455.029C628.571 455.294 628.793 455.52 629.052 455.697C629.311 455.873 629.602 455.995 629.908 456.056C630.214 456.116 630.529 456.115 630.835 456.05C631.14 455.986 631.43 455.861 631.687 455.682C631.944 455.502 632.163 455.273 632.331 455.007C632.499 454.741 632.613 454.443 632.666 454.132C632.719 453.821 632.711 453.502 632.64 453.194L632.121 450.663C632.949 450.416 633.758 450.133 634.556 449.818L635.672 452.149C635.805 452.431 635.992 452.684 636.222 452.892C636.452 453.101 636.721 453.261 637.012 453.364C637.303 453.468 637.612 453.511 637.92 453.493C638.228 453.475 638.53 453.396 638.808 453.259C639.085 453.123 639.334 452.932 639.538 452.698C639.743 452.464 639.9 452.191 640 451.895C640.1 451.6 640.142 451.287 640.122 450.975C640.103 450.663 640.023 450.358 639.886 450.077L638.769 447.746C639.703 447.188 640.605 446.579 641.472 445.921L643.165 447.869C643.369 448.102 643.615 448.293 643.892 448.43C644.168 448.568 644.468 448.648 644.775 448.668C645.082 448.688 645.39 448.646 645.681 448.545C645.972 448.445 646.24 448.287 646.471 448.081C646.702 447.875 646.891 447.625 647.026 447.345C647.161 447.066 647.241 446.762 647.261 446.451C647.28 446.14 647.239 445.828 647.139 445.533C647.04 445.239 646.884 444.966 646.681 444.733L644.989 442.786C645.662 442.081 646.307 441.347 646.91 440.577L649.031 442.015C649.287 442.189 649.574 442.309 649.875 442.37C650.177 442.431 650.487 442.432 650.789 442.371C651.091 442.311 651.378 442.191 651.634 442.018C651.89 441.845 652.11 441.623 652.281 441.364C652.452 441.105 652.571 440.814 652.631 440.509C652.692 440.203 652.692 439.889 652.632 439.583C652.572 439.278 652.454 438.987 652.283 438.728C652.112 438.468 651.893 438.246 651.638 438.073L649.527 436.64C649.984 435.818 650.4 434.97 650.777 434.097L653.18 434.945C653.471 435.051 653.78 435.098 654.09 435.082C654.399 435.067 654.702 434.989 654.981 434.854C655.261 434.719 655.511 434.53 655.718 434.296C655.924 434.063 656.083 433.79 656.185 433.494C656.287 433.198 656.33 432.884 656.312 432.571C656.293 432.258 656.213 431.952 656.077 431.67C655.941 431.389 655.751 431.137 655.519 430.93C655.286 430.723 655.015 430.565 654.722 430.465L652.309 429.614C652.588 428.538 652.806 427.447 652.964 426.346L655.51 426.511C655.817 426.531 656.124 426.489 656.415 426.388C656.707 426.287 656.975 426.13 657.206 425.924C657.437 425.718 657.626 425.468 657.761 425.188C657.897 424.908 657.976 424.604 657.996 424.293C658.015 423.983 657.974 423.671 657.875 423.376C657.775 423.081 657.619 422.809 657.416 422.575C657.213 422.341 656.966 422.15 656.69 422.013C656.414 421.876 656.114 421.795 655.807 421.775L655.806 421.77ZM628.103 396.566C635.475 397.808 641.762 402.245 645.562 408.408L635.388 413.584C633.405 410.834 630.525 408.883 627.258 408.076L628.103 396.566ZM623.43 396.224L622.586 407.72C619.119 408.038 615.889 409.632 613.506 412.202L604.044 405.785C608.647 400.051 615.618 396.36 623.43 396.224H623.43ZM600.087 431.542C599.01 428.762 598.419 425.814 598.34 422.829L598.632 418.093C599.082 415.16 600.029 412.329 601.432 409.723L610.897 416.143C610.511 417.005 610.211 417.903 610.001 418.824L609.704 423.56C609.799 424.512 609.987 425.451 610.266 426.364L600.087 431.542ZM619.653 447.622C612.28 446.38 605.994 441.943 602.194 435.78L612.369 430.602C614.352 433.352 617.232 435.304 620.498 436.112L619.653 447.622ZM623.807 428.546C622.547 428.532 621.319 428.139 620.28 427.418C619.24 426.698 618.434 425.681 617.965 424.496C617.496 423.312 617.384 422.013 617.644 420.764C617.904 419.515 618.523 418.373 619.424 417.48C620.325 416.588 621.467 415.986 622.705 415.751C623.944 415.517 625.223 415.659 626.382 416.16C627.541 416.662 628.527 417.5 629.215 418.569C629.903 419.638 630.263 420.89 630.249 422.166C630.23 423.877 629.54 425.511 628.332 426.707C627.124 427.904 625.497 428.565 623.807 428.546H623.807ZM624.326 447.963L625.171 436.468C628.638 436.151 631.869 434.556 634.252 431.986L643.712 438.402C639.111 444.137 632.139 447.828 624.327 447.963H624.326ZM649.123 426.094C648.674 429.027 647.726 431.858 646.323 434.464L636.861 428.044C637.247 427.183 637.547 426.285 637.757 425.364L638.052 420.628C637.958 419.677 637.77 418.737 637.491 417.824L647.669 412.645C648.746 415.425 649.337 418.373 649.416 421.358L649.123 426.094Z" fill="white"/>
    </g>
    <path d="M549.398 470.232C546.21 465.435 545.391 463.404 545.391 460.569V449.659H515.466H501.073V460.569C501.073 463.405 500.254 465.436 497.065 470.233C493.875 475.03 489.596 479.919 489.596 480.565V483.703H556.869V480.565C556.869 479.919 552.587 475.029 549.398 470.232Z" fill="#9399B8"/>
    <path style="mix-blend-mode:multiply" d="M501.097 458.331L501.073 457.765V450.481H530.998H545.391V461.391L501.097 458.331Z" fill="url(#paint3_linear)"/>
    <path d="M556.938 480.474H511.482H489.618C489.618 480.474 489.596 482.463 489.596 483.703L556.901 483.905L556.938 480.474Z" fill="url(#paint4_linear)"/>
    <path d="M613.415 448.046C613.415 448.924 613.245 449.793 612.913 450.603C612.582 451.414 612.096 452.151 611.483 452.772C610.87 453.392 610.143 453.885 609.342 454.22C608.542 454.556 607.684 454.729 606.817 454.729H439.648C438.782 454.729 437.923 454.556 437.123 454.221C436.322 453.885 435.594 453.393 434.982 452.772C434.369 452.151 433.883 451.415 433.551 450.604C433.219 449.793 433.049 448.924 433.049 448.046V349.684C433.049 348.806 433.219 347.937 433.551 347.126C433.883 346.315 434.369 345.578 434.982 344.958C435.594 344.337 436.322 343.845 437.123 343.509C437.923 343.173 438.782 343 439.648 343H606.817C608.567 343 610.245 343.705 611.483 344.958C612.72 346.212 613.415 347.911 613.415 349.684V448.046Z" fill="#9399B8"/>
    <path d="M613.415 354.811H433.049V440.062H613.415V354.811Z" fill="#E7EFFC"/>
    <path d="M474.987 423.882H441.638C441.412 423.882 441.196 423.791 441.036 423.629C440.876 423.467 440.786 423.248 440.786 423.019V423.019C440.786 422.79 440.876 422.571 441.036 422.409C441.196 422.247 441.412 422.156 441.638 422.156H474.988C475.214 422.156 475.43 422.247 475.59 422.409C475.75 422.571 475.84 422.79 475.84 423.019C475.84 423.132 475.818 423.245 475.775 423.349C475.732 423.454 475.669 423.549 475.59 423.629C475.511 423.71 475.417 423.773 475.313 423.817C475.21 423.86 475.099 423.882 474.987 423.882Z" fill="url(#paint5_linear)"/>
    <path d="M474.987 427.828H441.638C441.412 427.828 441.196 427.737 441.036 427.575C440.876 427.414 440.786 427.194 440.786 426.965V426.965C440.786 426.736 440.876 426.517 441.036 426.355C441.196 426.193 441.412 426.102 441.638 426.102H474.988C475.214 426.102 475.43 426.193 475.59 426.355C475.75 426.517 475.84 426.736 475.84 426.965C475.84 427.078 475.818 427.191 475.775 427.295C475.732 427.4 475.669 427.495 475.59 427.576C475.511 427.656 475.417 427.719 475.313 427.763C475.21 427.806 475.099 427.828 474.987 427.828Z" fill="url(#paint6_linear)"/>
    <path d="M469.867 431.774H441.638C441.412 431.774 441.196 431.683 441.036 431.521C440.876 431.359 440.786 431.14 440.786 430.911V430.911C440.786 430.682 440.876 430.462 441.036 430.301C441.196 430.139 441.412 430.048 441.638 430.048H469.867C470.093 430.048 470.31 430.139 470.47 430.301C470.63 430.462 470.72 430.682 470.72 430.911V430.911C470.72 431.14 470.63 431.359 470.47 431.521C470.31 431.683 470.093 431.774 469.867 431.774V431.774Z" fill="url(#paint7_linear)"/>
    <g opacity="0.49">
        <g opacity="0.49">
            <path opacity="0.49" d="M603.887 366.155H557.08C556.419 366.155 555.884 365.769 555.884 365.292C555.884 364.815 556.419 364.429 557.08 364.429H603.887C604.548 364.429 605.083 364.815 605.083 365.292C605.085 365.769 604.55 366.155 603.887 366.155Z" fill="url(#paint8_linear)"/>
        </g>
        <g opacity="0.49">
            <path opacity="0.49" d="M603.887 370.102H557.08C556.419 370.102 555.884 369.715 555.884 369.239C555.884 368.762 556.419 368.375 557.08 368.375H603.887C604.548 368.375 605.083 368.762 605.083 369.239C605.085 369.715 604.55 370.102 603.887 370.102Z" fill="url(#paint9_linear)"/>
        </g>
        <g opacity="0.49">
            <path opacity="0.49" d="M596.703 374.047H557.08C556.419 374.047 555.884 373.661 555.884 373.184C555.884 372.708 556.419 372.321 557.08 372.321H596.702C597.363 372.321 597.898 372.708 597.898 373.184C597.899 373.661 597.363 374.047 596.703 374.047Z" fill="url(#paint10_linear)"/>
        </g>
    </g>
    <g opacity="0.34">
        <g opacity="0.34">
            <path opacity="0.34" d="M603.887 381.195H557.08C556.419 381.195 555.884 380.808 555.884 380.331C555.884 379.855 556.419 379.468 557.08 379.468H603.887C604.548 379.468 605.083 379.855 605.083 380.331C605.085 380.808 604.55 381.195 603.887 381.195Z" fill="url(#paint11_linear)"/>
        </g>
        <g opacity="0.34">
            <path opacity="0.34" d="M603.887 385.141H557.08C556.419 385.141 555.884 384.754 555.884 384.278C555.884 383.801 556.419 383.414 557.08 383.414H603.887C604.548 383.414 605.083 383.801 605.083 384.278C605.085 384.754 604.55 385.141 603.887 385.141Z" fill="url(#paint12_linear)"/>
        </g>
        <g opacity="0.34">
            <path opacity="0.34" d="M596.703 389.086H557.08C556.419 389.086 555.884 388.7 555.884 388.223C555.884 387.747 556.419 387.36 557.08 387.36H596.702C597.363 387.36 597.898 387.747 597.898 388.223C597.899 388.7 597.363 389.086 596.703 389.086Z" fill="url(#paint13_linear)"/>
        </g>
    </g>
    <g opacity="0.25">
        <g opacity="0.25">
            <g opacity="0.25">
                <path opacity="0.25" d="M603.887 396.244H557.08C556.419 396.244 555.884 395.857 555.884 395.381C555.884 394.904 556.419 394.517 557.08 394.517H603.887C604.548 394.517 605.083 394.904 605.083 395.381C605.085 395.859 604.55 396.244 603.887 396.244Z" fill="url(#paint14_linear)"/>
            </g>
        </g>
        <g opacity="0.25">
            <g opacity="0.25">
                <path opacity="0.25" d="M603.887 400.19H557.08C556.419 400.19 555.884 399.803 555.884 399.327C555.884 398.85 556.419 398.463 557.08 398.463H603.887C604.548 398.463 605.083 398.85 605.083 399.327C605.085 399.805 604.55 400.19 603.887 400.19Z" fill="url(#paint15_linear)"/>
            </g>
        </g>
        <g opacity="0.25">
            <g opacity="0.25">
                <path opacity="0.25" d="M596.703 404.135H557.08C556.419 404.135 555.884 403.749 555.884 403.272C555.884 402.795 556.419 402.409 557.08 402.409H596.702C597.363 402.409 597.898 402.795 597.898 403.272C597.899 403.75 597.363 404.135 596.703 404.135Z" fill="url(#paint16_linear)"/>
            </g>
        </g>
    </g>
    <path opacity="0.81" d="M452.056 384.166C457.676 384.166 462.232 379.552 462.232 373.86C462.232 368.168 457.676 363.553 452.056 363.553C446.437 363.553 441.881 368.168 441.881 373.86C441.881 379.552 446.437 384.166 452.056 384.166Z" fill="url(#paint17_linear)"/>
    <path opacity="0.81" d="M452.057 373.86L462.136 371.808C462.271 372.483 462.339 373.171 462.339 373.86C462.339 379.572 457.699 384.272 452.059 384.272C446.419 384.272 441.775 379.572 441.775 373.86C441.775 368.148 446.416 363.447 452.056 363.447L452.057 373.86Z" fill="#273271"/>
    <path d="M460.47 379.837C458.582 382.555 455.465 384.272 452.056 384.272C450.211 384.27 448.401 383.767 446.814 382.814C445.227 381.861 443.922 380.493 443.036 378.854L452.056 373.86L460.47 379.837Z" fill="url(#paint18_linear)"/>
    <path opacity="0.81" d="M483.222 382.673C488.14 379.948 489.946 373.702 487.256 368.721C484.566 363.74 478.398 361.911 473.481 364.636C468.563 367.36 466.757 373.607 469.447 378.588C472.137 383.569 478.305 385.398 483.222 382.673Z" fill="url(#paint19_linear)"/>
    <path d="M478.353 373.654L484.34 382.118C483.237 382.917 481.989 383.488 480.668 383.798C479.347 384.107 477.978 384.149 476.641 383.92C471.082 382.969 467.277 377.552 468.216 371.919C469.155 366.286 474.503 362.435 480.065 363.386C481.036 363.552 481.979 363.859 482.865 364.297L478.353 373.654Z" fill="#273271"/>
    <path d="M478.352 373.654L488.01 377.224C487.355 379.04 486.214 380.635 484.715 381.832C483.216 383.028 481.418 383.778 479.522 383.998C477.626 384.218 475.707 383.899 473.979 383.077C472.252 382.254 470.785 380.961 469.742 379.342L478.352 373.654Z" fill="#273271"/>
    <path d="M511.31 351.718L511.843 351.315C512.583 350.756 513.444 350.363 514.359 350.25L514.38 350.248L517.766 349.843L518.515 347.599L515.759 347.894L511.31 351.718Z" fill="#CECABA"/>
    <path d="M551.565 428.067V411.237C551.565 393.437 537.318 379.007 519.743 379.007C502.168 379.007 488.462 393.458 487.605 411.237C487.466 414.108 486.593 420.969 486.081 424.824C484.45 425.247 483.005 426.207 481.972 427.554C480.94 428.901 480.38 430.558 480.38 432.263C480.38 436.22 483.337 439.478 487.136 439.893C487.302 439.933 487.473 439.954 487.644 439.954H551.564L551.565 428.067Z" fill="#F59E35"/>
    <path d="M511.754 366.113H524.823V390.192C524.823 390.326 524.77 390.454 524.677 390.548C524.584 390.643 524.458 390.696 524.326 390.696H512.251C512.119 390.696 511.993 390.643 511.899 390.548C511.806 390.454 511.754 390.326 511.754 390.192V366.113V366.113Z" fill="#E8AD90"/>
    <path d="M498.335 384.069L498.416 386.039C498.635 391.414 503.164 395.187 508.528 394.963L511.338 394.846C514.713 394.705 516.654 392.252 516.514 388.871L516.411 372.416L516.863 366.928L522.803 346.869C521.46 345.932 519.931 345.389 518.309 345.389C518.214 345.389 518.12 345.391 518.025 345.394C517.196 345.513 516.37 345.664 515.619 345.852C514.867 346.04 514.186 346.267 513.654 346.537C512.077 347.341 510.773 348.137 509.67 348.929C506.265 351.374 504.754 353.785 502.958 356.257C501.289 358.554 500.547 361.189 500.513 364.017C500.49 365.905 500.985 367.783 502.225 369.234L504.327 372.247C504.594 372.557 504.742 372.954 504.741 373.365C504.742 373.69 504.651 374.008 504.48 374.283C504.31 374.557 504.065 374.778 503.776 374.918C500.312 376.621 498.179 380.21 498.335 384.069Z" fill="#25132F"/>
    <path d="M518.024 345.395C518.119 345.392 518.214 345.39 518.308 345.39C519.932 345.39 521.459 345.934 522.802 346.87L523.193 345.548L523.363 344.977C523.069 344.977 522.632 344.989 522.097 345.015C521.005 345.068 519.51 345.184 518.024 345.395Z" fill="url(#paint20_linear)"/>
    <path d="M520.678 372.546C527.395 372.266 532.615 366.524 532.338 359.721C532.062 352.919 526.392 347.631 519.676 347.912C512.959 348.192 507.739 353.934 508.016 360.737C508.293 367.539 513.962 372.827 520.678 372.546Z" fill="#E8AD90"/>
    <path d="M517.591 350.6C517.591 350.6 513.552 349.636 510.635 352.579C510.635 352.579 514.125 347.17 517.182 346.871C520.239 346.572 519.927 346.986 519.927 346.986L517.591 350.6Z" fill="url(#paint21_linear)"/>
    <path d="M525.899 344.978C523 345.121 517.678 343.572 517.38 352.965C517.184 359.155 523.696 360.996 526.814 362.962C528.477 364.011 527.976 367.415 526.254 368.364C523.414 369.928 518.924 372.614 518.834 375.413C518.766 377.542 519.695 379.281 521.461 380.573C523.066 381.748 523.074 384.169 521.49 385.375L520.385 386.215C519.771 386.682 519.286 387.302 518.976 388.013C518.666 388.725 518.542 389.505 518.616 390.279V390.279C518.749 391.691 519.412 392.997 520.467 393.929C521.523 394.86 522.89 395.347 524.289 395.289L527.889 395.207C531.13 395.071 534.352 393.538 535.873 390.636L537.813 386.47C539.7 382.872 539.1 378.455 536.536 376.4L535.197 375.315C535.197 375.315 534.863 369.791 534.607 363.427C534.26 354.779 533.251 344.616 525.899 344.978Z" fill="url(#paint22_linear)"/>
    <path d="M460.06 399.164L461.382 396.846L454.476 392.805C454.326 392.717 454.159 392.66 453.987 392.637C453.815 392.614 453.64 392.625 453.472 392.671C453.305 392.717 453.147 392.795 453.01 392.902C452.872 393.009 452.756 393.143 452.669 393.295C452.583 393.447 452.526 393.616 452.504 393.79C452.481 393.964 452.492 394.142 452.537 394.312C452.582 394.481 452.66 394.641 452.765 394.78C452.871 394.92 453.003 395.037 453.153 395.125L460.06 399.164Z" fill="#E8AD90"/>
    <path d="M458.503 395.923C460.322 395.978 462.047 396.753 463.308 398.082L493.147 429.514C495.106 431.649 494.674 435.453 492.571 437.436C490.469 439.42 486.168 439.058 484.461 436.691L458.81 402.044L453.743 402.057C451.876 402.057 448.664 401.83 446.369 400.587C444.381 399.51 442.212 398.516 441.117 396.716C441.067 396.632 441.04 396.536 441.038 396.438C441.037 396.34 441.061 396.244 441.109 396.158C441.156 396.073 441.226 396.002 441.309 395.952C441.393 395.903 441.488 395.877 441.585 395.877C441.585 395.877 448.533 396.878 450.864 396.82C452.432 396.781 457.068 395.877 457.068 395.877L458.503 395.923Z" fill="#E8AD90"/>
    <path d="M511.379 410.732C511.379 411.034 511.26 411.323 511.049 411.537C510.839 411.75 510.553 411.87 510.254 411.87V411.87C509.956 411.87 509.67 411.75 509.459 411.537C509.248 411.323 509.13 411.034 509.13 410.732V410.732C509.13 410.429 509.248 410.14 509.459 409.926C509.67 409.713 509.956 409.593 510.254 409.593V409.593C510.553 409.593 510.839 409.713 511.049 409.926C511.26 410.14 511.379 410.429 511.379 410.732V410.732Z" fill="#273271"/>
    <path d="M545.132 393.864C545.132 394.166 545.013 394.455 544.802 394.669C544.591 394.882 544.305 395.002 544.007 395.002V395.002C543.709 395.002 543.423 394.882 543.212 394.669C543.001 394.455 542.883 394.166 542.883 393.864V393.864C542.883 393.714 542.912 393.566 542.968 393.428C543.025 393.29 543.108 393.164 543.212 393.058C543.317 392.952 543.441 392.869 543.577 392.811C543.713 392.754 543.86 392.725 544.007 392.725V392.725C544.155 392.725 544.301 392.754 544.438 392.811C544.574 392.869 544.698 392.952 544.802 393.058C544.907 393.164 544.99 393.29 545.046 393.428C545.103 393.566 545.132 393.714 545.132 393.864V393.864Z" fill="#273271"/>
    <path d="M498.327 404.207C498.327 404.356 498.298 404.504 498.241 404.643C498.185 404.781 498.102 404.906 497.998 405.012C497.893 405.118 497.769 405.202 497.633 405.259C497.496 405.316 497.35 405.346 497.203 405.346V405.346C497.055 405.346 496.909 405.316 496.772 405.259C496.636 405.202 496.512 405.118 496.407 405.012C496.303 404.906 496.22 404.781 496.164 404.643C496.107 404.504 496.078 404.356 496.078 404.207C496.078 403.905 496.197 403.615 496.407 403.401C496.618 403.188 496.904 403.068 497.203 403.068C497.501 403.068 497.787 403.188 497.998 403.401C498.209 403.615 498.327 403.905 498.327 404.207Z" fill="#273271"/>
    <path d="M530.395 402.215C530.395 402.517 530.277 402.807 530.066 403.021C529.855 403.234 529.569 403.354 529.271 403.354V403.354C528.973 403.354 528.687 403.234 528.476 403.021C528.265 402.807 528.146 402.517 528.146 402.215V402.215C528.146 401.913 528.265 401.624 528.476 401.41C528.687 401.196 528.973 401.076 529.271 401.076V401.076C529.569 401.076 529.855 401.196 530.066 401.41C530.277 401.624 530.395 401.913 530.395 402.215V402.215Z" fill="#273271"/>
    <path d="M543.2 411.711C543.2 412.013 543.082 412.302 542.871 412.516C542.66 412.729 542.374 412.849 542.076 412.849C541.777 412.849 541.491 412.729 541.28 412.516C541.07 412.302 540.951 412.013 540.951 411.711C540.951 411.409 541.07 411.119 541.28 410.905C541.491 410.692 541.777 410.572 542.076 410.572C542.374 410.572 542.66 410.692 542.871 410.905C543.082 411.119 543.2 411.409 543.2 411.711Z" fill="#273271"/>
    <path d="M525.948 418.436C525.948 418.586 525.919 418.734 525.862 418.872C525.806 419.01 525.723 419.136 525.619 419.242C525.514 419.347 525.39 419.431 525.254 419.488C525.117 419.546 524.971 419.575 524.824 419.575V419.575C524.676 419.575 524.53 419.546 524.393 419.488C524.257 419.431 524.133 419.347 524.029 419.242C523.924 419.136 523.841 419.01 523.785 418.872C523.728 418.734 523.699 418.586 523.699 418.436V418.436C523.699 418.134 523.818 417.844 524.029 417.631C524.239 417.417 524.525 417.297 524.824 417.297V417.297C525.122 417.297 525.408 417.417 525.619 417.631C525.83 417.844 525.948 418.134 525.948 418.436V418.436Z" fill="#273271"/>
    <path d="M518.054 433.787C518.054 434.089 517.935 434.379 517.724 434.593C517.513 434.806 517.227 434.926 516.929 434.926V434.926C516.631 434.926 516.345 434.806 516.134 434.593C515.923 434.379 515.805 434.089 515.805 433.787V433.787C515.805 433.485 515.923 433.196 516.134 432.982C516.345 432.768 516.631 432.648 516.929 432.648V432.648C517.227 432.648 517.513 432.768 517.724 432.982C517.935 433.196 518.054 433.485 518.054 433.787V433.787Z" fill="#273271"/>
    <path d="M535.878 428.424C535.878 428.726 535.759 429.016 535.548 429.229C535.338 429.443 535.052 429.563 534.753 429.563V429.563C534.455 429.563 534.169 429.443 533.958 429.229C533.747 429.016 533.629 428.726 533.629 428.424V428.424C533.629 428.122 533.747 427.832 533.958 427.619C534.169 427.405 534.455 427.285 534.753 427.285V427.285C535.052 427.285 535.338 427.405 535.548 427.619C535.759 427.832 535.878 428.122 535.878 428.424V428.424Z" fill="#273271"/>
    <path d="M503.246 425.085C503.246 425.387 503.127 425.677 502.917 425.89C502.706 426.104 502.42 426.224 502.122 426.224V426.224C501.823 426.224 501.537 426.104 501.326 425.89C501.116 425.677 500.997 425.387 500.997 425.085V425.085C500.997 424.935 501.026 424.787 501.083 424.649C501.139 424.511 501.222 424.385 501.326 424.28C501.431 424.174 501.555 424.09 501.691 424.033C501.828 423.975 501.974 423.946 502.122 423.946C502.269 423.946 502.415 423.975 502.552 424.033C502.688 424.09 502.812 424.174 502.917 424.28C503.021 424.385 503.104 424.511 503.16 424.649C503.217 424.787 503.246 424.935 503.246 425.085V425.085Z" fill="#273271"/>
    <path d="M572.993 434.175H581.209C581.341 434.175 581.448 434.263 581.448 434.372C581.448 434.372 581.124 437.869 581.079 439.038C581.025 440.394 579.74 441.495 578.09 441.495H576.112C574.461 441.495 573.177 440.394 573.124 439.038C573.077 437.869 572.754 434.372 572.754 434.372C572.754 434.263 572.861 434.175 572.993 434.175Z" fill="#FCE1C0"/>
    <path d="M574.386 440.17C574.198 440.404 573.813 440.467 573.531 440.308C571.835 439.35 569.929 437.548 570.366 436.08C570.434 435.849 570.553 435.636 570.715 435.459C570.877 435.282 571.077 435.145 571.299 435.059C572 434.791 572.958 434.857 573.569 434.986C573.94 435.064 574.108 435.344 573.962 435.689C573.826 435.981 573.54 436.018 573.256 435.958C572.819 435.863 572.199 435.834 571.889 435.952C571.799 435.986 571.553 436.121 571.5 436.3C571.248 437.149 572.778 438.616 574.244 439.465C574.514 439.621 574.582 439.925 574.4 440.151L574.386 440.17Z" fill="#FCE1C0"/>
    <path opacity="0.29" d="M575.783 428.919C576.206 428.919 576.549 428.571 576.549 428.143C576.549 427.714 576.206 427.367 575.783 427.367C575.36 427.367 575.017 427.714 575.017 428.143C575.017 428.571 575.36 428.919 575.783 428.919Z" fill="#C9D3F2"/>
    <path opacity="0.59" d="M579.377 427.529L579.367 427.54C579.18 427.266 578.898 427.072 578.577 426.996C578.256 426.921 577.919 426.969 577.631 427.132C577.344 427.295 577.127 427.561 577.023 427.878C576.918 428.194 576.934 428.539 577.068 428.844C576.04 429.461 575.103 430.246 575.297 431.219C575.569 432.584 576.641 433.398 576.641 433.398C576.347 432.497 576.049 431.568 578.026 430.666C580.775 429.411 579.377 427.529 579.377 427.529Z" fill="#B8B8E8"/>
    <path opacity="0.59" d="M578.52 430.886C578.935 430.864 579.374 430.945 579.453 431.324C579.532 431.703 579.294 432.153 578.81 432.259H578.804C578.748 432.27 578.696 432.297 578.654 432.336C578.612 432.375 578.581 432.425 578.565 432.481C578.474 432.809 578.315 432.823 578.069 432.857C577.397 432.95 577.379 433.518 577.379 433.518C577.317 432.913 577.119 433.028 577.35 431.939C577.414 431.637 577.638 431.281 577.797 431.171C578.032 431.012 578.235 430.901 578.52 430.886Z" fill="url(#paint23_linear)"/>
    <path d="M579.024 441.878H574.295C573.519 441.878 572.747 441.779 571.996 441.583L570.402 441.167C570.377 441.159 570.356 441.142 570.343 441.119C570.33 441.096 570.325 441.07 570.33 441.044C570.334 441.018 570.347 440.995 570.367 440.978C570.387 440.961 570.412 440.952 570.438 440.952H582.955C583.077 440.952 583.034 441.126 582.918 441.167L581.323 441.583C580.572 441.779 579.8 441.878 579.024 441.878V441.878Z" fill="#FCE1C0"/>
    <path d="M583.051 440.952H570.318C570.31 440.952 570.304 440.958 570.304 440.966V441.076C570.304 441.084 570.31 441.09 570.318 441.09H583.051C583.058 441.09 583.065 441.084 583.065 441.076V440.966C583.065 440.958 583.058 440.952 583.051 440.952Z" fill="#9595CB"/>
    <path d="M615.403 438.274C613.861 440 612.948 443.041 612.434 446.552C603.403 445.52 586.896 443.036 585.223 441.341C582.963 439.052 586.695 425.559 586.695 425.559L597.686 426.327C597.686 426.327 598.024 428.379 598.199 430.001C598.291 430.856 598.395 431.589 598.498 431.841C598.686 432.301 607.41 435.375 614.278 437.867C614.66 438.004 615.035 438.14 615.403 438.274Z" fill="#7C221E"/>
    <path d="M601.611 390.172C602.491 391.66 602.428 393.086 602.179 393.83C601.929 394.575 601.157 396.775 601.137 397.249C601.054 399.222 597.19 401.726 596.308 401.664C595.426 401.602 594.613 400.034 594.613 400.034L601.611 390.172Z" fill="#010103"/>
    <path d="M597.277 409.159C597.277 409.159 598.304 417.482 600.255 419.355C602.207 421.227 607.344 425.597 608.987 425.597C610.631 425.597 611.966 426.533 612.479 427.261C612.993 427.99 607.754 427.261 607.754 427.261C607.754 427.261 596.661 420.727 595.839 419.781C595.838 419.779 596.09 410.882 597.277 409.159Z" fill="#EAC6B0"/>
    <path d="M585.992 428.375L597.989 427.828C597.989 427.828 596.763 419.147 596.763 416.234C596.763 413.321 597.482 412.177 598.098 410.512C598.714 408.847 596.353 400.836 596.353 400.836L592.398 398.859C592.398 398.859 588.135 400.108 586.595 404.061C585.055 408.014 584.125 413.217 584.125 413.217L587.001 414.049L585.992 428.375Z" fill="#FF8888"/>
    <path d="M589.441 413.46L585.154 412.592C585.154 412.592 584.178 419.525 584.125 420.083C584.085 420.509 584.584 420.63 584.892 420.63C585.2 420.63 590.735 423.275 591.31 423.517C592.548 424.037 602.717 426.846 603.025 427.262C603.333 427.678 607.545 428.198 608.572 428.407C609.599 428.615 608.572 427.158 606.929 426.326C605.285 425.494 603.644 425.492 602.72 425.286C601.796 425.081 588.99 418.42 588.784 418.004C588.579 417.587 589.441 413.46 589.441 413.46Z" fill="#EBD0BB"/>
    <path d="M612.726 460.628C612.726 460.628 612.604 468.32 612.529 468.939C612.453 469.558 610.139 470.679 610.139 470.679L613.004 477.814L616.535 460.46L612.726 460.628Z" fill="#EBD0BB"/>
    <path d="M590.29 401.668C592.526 402.389 592.447 406.246 592.139 407.495C591.831 408.743 590.29 414.465 590.29 414.465L584.125 413.217C584.125 413.217 585.77 400.212 590.29 401.668Z" fill="#FF8888"/>
    <path d="M635.782 474.098C633.717 471.821 623.162 459.306 621.108 456.393C620.469 455.488 620.216 454.246 619.736 452.97C618.67 450.144 617.719 447.134 617.719 447.134C617.719 447.134 615.604 446.916 612.436 446.553C612.949 443.044 613.862 440.001 615.404 438.275C618.904 439.549 621.725 440.614 622.341 440.996C622.511 441.101 622.774 441.443 623.112 441.979C626.45 447.264 637.114 471.376 637.953 472.415L635.782 474.098Z" fill="#7C221E"/>
    <path d="M612.514 468.359C612.419 467.5 611.125 455.51 612.433 446.555C612.947 443.046 613.86 440.002 615.402 438.277C615.635 438.013 615.894 437.774 616.175 437.564L614.277 437.868C607.409 435.377 598.685 432.302 598.497 431.842C598.395 431.59 598.291 430.855 598.198 430.002C602.434 429.644 621.778 428.13 625.523 430.073C628.385 431.558 625.145 437.191 623.111 441.98C621.978 444.647 620.178 450.174 619.415 452.972C617.655 459.425 616.145 468.869 616.072 469.608L612.514 468.359Z" fill="#A3322D"/>
    <path d="M597.07 397.229C597.07 397.229 595.769 400.887 595.837 401.555C595.906 402.222 592.697 399.01 592.697 399.01L594.194 396.051L597.07 397.229Z" fill="#EBD0BB"/>
    <path d="M597.27 397.249C599.621 397.249 601.527 395.318 601.527 392.937C601.527 390.556 599.621 388.626 597.27 388.626C594.919 388.626 593.014 390.556 593.014 392.937C593.014 395.318 594.919 397.249 597.27 397.249Z" fill="#EBD0BB"/>
    <path d="M600.813 429.796C601.435 429.109 601.492 428.44 603.211 428.35C604.931 428.26 616.211 427.653 616.211 427.653L616.138 428.997L600.813 429.796Z" fill="#988CAF"/>
    <path d="M624.117 415.411L616.311 429.065L610.657 429.253L619.239 415.444C619.342 415.278 619.482 415.14 619.647 415.04C619.813 414.94 619.999 414.881 620.191 414.868L623.633 414.63C623.726 414.624 623.819 414.643 623.903 414.686C623.986 414.729 624.056 414.794 624.106 414.874C624.155 414.954 624.183 415.046 624.185 415.141C624.187 415.236 624.163 415.329 624.117 415.411V415.411Z" fill="url(#paint24_linear)"/>
    <path d="M602.015 390.179C602.015 390.179 600.568 394.47 596.105 393.324C596.105 393.324 596.118 392.641 595.272 392.394C594.425 392.147 593.365 394.005 594.452 394.735C595.837 395.664 595.279 398.204 593.533 398.848C592.906 399.08 591.626 398.71 591.164 400.034C590.701 401.357 591.629 403.515 588.558 404.531C585.487 405.546 585.894 408.098 584.572 408.482C583.249 408.866 577.011 405.363 579.215 400.369C581.419 395.376 583.446 398.626 584.911 397.834C586.376 397.043 586.489 394.621 586.958 393.93C587.426 393.239 588.356 392.199 589.421 392.066C590.485 391.933 591.269 388.835 593.272 387.665C595.275 386.495 600.627 386.071 602.015 390.179Z" fill="#281430"/>
    <path d="M595.092 387.014C595.838 387.014 596.443 386.402 596.443 385.646C596.443 384.89 595.838 384.278 595.092 384.278C594.346 384.278 593.741 384.89 593.741 385.646C593.741 386.402 594.346 387.014 595.092 387.014Z" fill="#010103"/>
    <path d="M594.589 395.155C594.808 395.155 594.987 394.974 594.987 394.752C594.987 394.529 594.808 394.348 594.589 394.348C594.369 394.348 594.19 394.529 594.19 394.752C594.19 394.974 594.369 395.155 594.589 395.155Z" fill="#273271"/>
    <path d="M637.974 472.439C638.866 473.452 643.951 477.595 643.951 477.595L637.568 476.773C637.568 476.773 638.095 475.154 636.513 473.546L637.974 472.439Z" fill="#EBD0BB"/>
    <path d="M594.593 394.942C594.676 394.942 594.743 394.874 594.743 394.791C594.743 394.707 594.676 394.639 594.593 394.639C594.51 394.639 594.443 394.707 594.443 394.791C594.443 394.874 594.51 394.942 594.593 394.942Z" fill="#0094F9"/>
    <path d="M594.566 395.037L593.374 396.595C593.349 396.627 593.333 396.666 593.329 396.706C593.324 396.747 593.33 396.788 593.347 396.826C593.364 396.863 593.39 396.895 593.423 396.918C593.457 396.941 593.496 396.955 593.536 396.957L595.038 397.052C595.07 397.054 595.102 397.047 595.131 397.033C595.161 397.02 595.186 396.999 595.205 396.972C595.224 396.946 595.237 396.915 595.241 396.882C595.245 396.85 595.241 396.817 595.23 396.786L594.566 395.037Z" fill="#273271"/>
    <path d="M594.907 396.826C594.989 396.814 595.046 396.737 595.034 396.654C595.023 396.571 594.947 396.514 594.865 396.526C594.783 396.538 594.726 396.614 594.738 396.697C594.75 396.78 594.826 396.838 594.907 396.826Z" fill="#0094F9"/>
    <path d="M593.793 396.762C593.875 396.75 593.932 396.673 593.92 396.59C593.908 396.507 593.833 396.449 593.751 396.461C593.669 396.473 593.612 396.55 593.624 396.633C593.635 396.716 593.711 396.773 593.793 396.762Z" fill="#0094F9"/>
    <path d="M594.541 395.842C594.623 395.831 594.68 395.754 594.668 395.671C594.657 395.588 594.581 395.53 594.499 395.542C594.417 395.554 594.36 395.631 594.372 395.714C594.384 395.797 594.459 395.854 594.541 395.842Z" fill="#0094F9"/>
    <path d="M639.456 479.453C639.456 479.453 639.871 479.369 640.214 479.41C640.557 479.451 642.154 480.137 643.906 480.267C645.659 480.397 647.124 480.58 648.157 480.04C648.157 480.04 648.304 479.874 648.276 479.503L648.198 479.495C647.937 479.633 645.925 480.158 643.464 479.699C643.289 479.666 643.114 479.626 642.944 479.578C641.775 479.254 641.216 479.085 640.804 478.943C640.659 478.874 640.506 478.822 640.348 478.789C640.206 478.763 640.064 478.796 639.742 478.931L639.682 478.957L639.618 478.94L636.817 478.365C636.732 478.539 636.642 478.795 636.723 478.986C636.854 479.298 639.456 479.453 639.456 479.453Z" fill="#3A3936"/>
    <path d="M642.379 476.192C642.105 476.014 641.977 475.891 641.689 475.72L641.587 475.645C641.494 475.802 641.432 475.978 641.405 476.16L641.361 476.518C640.83 476.809 640.266 476.838 639.75 476.746C638.717 476.563 637.697 475.733 637.697 475.733C636.841 477.049 636.832 478.367 636.832 478.367L636.954 478.416L639.706 478.97C640.052 478.82 640.229 478.775 640.421 478.808C640.793 478.874 641.227 479.166 643.032 479.65C643.201 479.695 643.369 479.732 643.537 479.762C645.506 480.111 647.23 479.937 647.93 479.616C648.133 479.524 648.244 479.461 648.244 479.461C648.244 479.461 647.917 478.644 646.783 478.443C646.267 478.352 645.827 478.295 645.491 478.238C645.088 478.166 644.912 478.025 644.781 477.946C644.141 477.565 642.994 476.589 642.379 476.192Z" fill="#022F6B"/>
    <path d="M609.872 473.256C609.872 473.256 610.201 473.525 610.39 473.818C610.578 474.111 611.079 475.793 612.1 477.24C613.12 478.687 613.921 479.945 614.99 480.405C614.99 480.405 615.211 480.413 615.474 480.154L615.429 480.087C615.158 479.973 613.473 478.742 612.248 476.532C612.16 476.375 612.079 476.212 612.006 476.05C611.505 474.932 611.203 474.359 611.096 473.971C611.038 473.761 611 473.622 610.945 473.524C610.874 473.396 610.758 473.307 610.45 473.143L610.392 473.112L610.364 473.052L609.01 470.501C608.825 470.547 608.572 470.64 608.48 470.826C608.326 471.131 609.872 473.256 609.872 473.256Z" fill="#3A3936"/>
    <path d="M614.217 473.446C614.175 473.133 614.117 472.823 614.043 472.516H614.04C613.89 472.531 613.745 472.582 613.617 472.665L613.318 472.86C612.757 472.633 612.375 472.212 612.114 471.751C611.592 470.83 611.701 469.572 611.701 469.572C610.157 469.747 608.996 470.548 608.996 470.548L609.044 470.648L610.398 473.139C610.732 473.312 610.88 473.421 610.977 473.591C611.165 473.922 611.221 474.448 612.009 476.162C612.082 476.323 612.162 476.478 612.246 476.627C613.241 478.383 614.475 479.613 615.168 479.956C615.367 480.054 615.487 480.101 615.487 480.101C615.487 480.101 615.897 479.324 615.324 478.312C615.064 477.851 614.826 477.473 614.656 477.173C614.453 476.814 614.447 476.586 614.422 476.434C614.303 475.695 614.309 474.179 614.217 473.446Z" fill="url(#paint25_linear)"/>
    <path d="M618.504 422.637C618.863 421.948 618.964 421.288 618.729 421.163C618.495 421.038 618.015 421.495 617.656 422.184C617.298 422.873 617.197 423.533 617.431 423.658C617.665 423.783 618.145 423.326 618.504 422.637Z" fill="white"/>
    <path d="M390.282 445.319L389.47 450.894L389.805 453.648C389.82 453.76 389.81 453.873 389.777 453.981C389.743 454.089 389.688 454.188 389.613 454.272C389.539 454.356 389.447 454.423 389.345 454.468C389.243 454.512 389.132 454.534 389.021 454.532C386.752 454.478 380.945 454.316 380.803 454.054C380.138 452.821 383.376 451.976 385.571 450.585C387.938 449.084 386.626 441.284 386.626 441.284L390.282 445.319Z" fill="#E58057"/>
    <path d="M378.066 455.477L378.113 454.6C378.116 454.542 378.241 454.502 378.389 454.51L389.944 454.987C390.093 454.995 390.214 455.048 390.211 455.107L390.156 456.138C390.153 456.195 390.027 456.235 389.879 456.227L378.331 455.597C378.183 455.588 378.064 455.535 378.066 455.477Z" fill="#6D6D6D"/>
    <path d="M383.059 454.506L382.298 454.465L381.698 454.431L378.135 454.236C378.135 454.236 377.23 453.016 378.682 452.747C378.682 452.747 383.259 452.49 385.459 449.888C385.459 449.888 386.484 448.837 385.533 451.444C385.533 451.444 385.306 453.362 387.508 452.501C387.508 452.501 388.255 452.285 389.01 450.683C389.01 450.683 389.372 450.036 389.864 450.205C390.059 450.281 390.285 450.529 390.259 451.29L390.241 451.639L390.211 452.195L390.076 454.736L385.241 454.549L383.059 454.506Z" fill="url(#paint26_linear)"/>
    <path d="M400.965 447.309L402.416 452.536L403.781 454.825C403.837 454.918 403.873 455.022 403.886 455.13C403.898 455.238 403.888 455.347 403.855 455.451C403.822 455.554 403.768 455.649 403.695 455.729C403.623 455.81 403.534 455.873 403.435 455.915C401.419 456.773 396.25 458.945 396.023 458.77C394.958 457.948 397.478 455.917 398.868 453.819C400.366 451.557 396.18 445.22 396.18 445.22L400.965 447.309Z" fill="#E58057"/>
    <path d="M394.188 461.146L393.888 460.356C393.869 460.303 393.962 460.218 394.095 460.166L404.443 455.98C404.577 455.927 404.704 455.927 404.724 455.98L405.076 456.908C405.096 456.959 405.001 457.045 404.867 457.097L394.467 461.145C394.334 461.197 394.208 461.198 394.188 461.146Z" fill="#6D6D6D"/>
    <path d="M398.201 458.3L397.515 458.567L396.974 458.777L393.765 460.026C393.765 460.026 392.496 459.313 393.668 458.498C393.668 458.498 397.593 456.447 398.517 453.282C398.517 453.282 399.011 451.948 399.188 454.62C399.188 454.62 399.733 456.398 401.335 454.762C401.335 454.762 401.908 454.275 401.951 452.565C401.951 452.565 402.018 451.851 402.516 451.803C402.717 451.793 403.012 451.921 403.287 452.6L403.406 452.914L403.596 453.415L404.465 455.703L400.14 457.466L398.201 458.3Z" fill="url(#paint27_linear)"/>
    <path d="M419.425 411.156H394.24C390.906 411.156 389.107 413.032 388.419 418.712C387.732 424.393 385.741 446.844 385.741 446.844L391.458 448.36L396.672 422.356L420.799 421.606L419.425 411.156Z" fill="#141939"/>
    <path d="M421.171 412.55C421.171 412.55 396.567 413.996 391.329 414.747C386.091 415.497 384.821 417.962 386.356 423.107C387.89 428.252 397.425 450.598 397.425 450.598H404.418L396.992 424.929L425.067 423.911L421.171 412.55Z" fill="#282D4A"/>
    <path d="M404.31 408.998C403.778 408.951 403.244 409.063 402.775 409.322C401.277 410.144 398.384 411.416 398.514 411.928C398.668 412.537 403.797 412.595 405.893 411.693C405.893 411.693 419.239 408.482 422.301 407.411C425.344 405.9 428.177 400.366 428.177 400.366L423.05 397.254L419.464 403.214C419.464 403.214 415.542 406.984 406.511 408.8L404.31 408.998Z" fill="url(#paint28_linear)"/>
    <path d="M433.819 387.381C435.097 389.718 436.941 392.4 435.989 401.081C435.036 409.763 429.216 420.106 427.153 422.464C425.089 424.821 423.237 425.304 421.809 421.499C420.38 417.694 420.45 412.972 415.106 412.812C415.106 412.812 419.322 405.261 420.327 400.814C421.332 396.366 423.395 390.585 425.371 388.138L429.798 385.648C429.748 385.297 432.916 385.729 433.819 387.381Z" fill="#3A4375"/>
    <path d="M431.918 381.365V385.68C431.918 386.045 431.793 386.399 431.564 386.681C431.335 386.963 431.017 387.156 430.663 387.227L426.115 388.139V383.158L431.918 381.365Z" fill="url(#paint29_linear)"/>
    <path d="M432.753 380.037C432.99 381.541 432.063 383.062 430.785 384.07C430.257 384.492 429.652 384.805 429.004 384.989C428.356 385.174 427.679 385.227 427.011 385.145C426.343 385.063 425.697 384.848 425.112 384.512C424.526 384.176 424.012 383.726 423.599 383.188C423.186 382.65 422.882 382.034 422.705 381.377C422.528 380.719 422.481 380.033 422.567 379.357C422.654 378.681 422.871 378.029 423.208 377.438C423.544 376.848 423.992 376.331 424.527 375.917C426.75 374.166 430.347 374.314 431.681 376.824C432.078 377.571 432.621 379.2 432.753 380.037Z" fill="#E58057"/>
    <path d="M427.216 373.224C422.883 373.437 420.802 374.195 420.802 374.195C420.802 374.195 421.38 377.306 421.958 377.907C423.153 379.149 426.444 379.5 428.196 377.86L428.602 379.632L429.515 379.594C429.515 379.594 429.584 378.72 430.286 378.566C431.323 378.338 432.157 379.357 431.057 381.172L432.485 382.788C432.485 382.788 433.109 381.278 433.288 380.245C433.436 379.396 434.635 376.113 432.921 374.479C431.909 373.514 430.838 373.266 430.02 373.258C429.32 373.25 427.916 373.19 427.216 373.224Z" fill="#3A1F38"/>
    <mask id="mask0" mask-type="alpha" maskUnits="userSpaceOnUse" x="415" y="385" width="22" height="40">
        <path d="M433.819 387.381C435.097 389.718 436.941 392.4 435.989 401.081C435.036 409.763 429.216 420.106 427.153 422.464C425.089 424.821 423.237 425.304 421.809 421.499C420.38 417.694 420.45 412.972 415.106 412.812C415.106 412.812 419.322 405.261 420.327 400.814C421.332 396.366 423.395 390.585 425.371 388.138L429.798 385.648C429.748 385.297 432.916 385.729 433.819 387.381Z" fill="#D0D3D9"/>
    </mask>
    <g mask="url(#mask0)">
        <path d="M433.625 388.368C433.694 388.405 433.678 388.573 433.677 388.638C433.674 388.742 433.656 388.845 433.625 388.945C433.579 389.099 433.821 389.148 433.866 388.994C433.937 388.753 434.008 388.289 433.736 388.145C433.595 388.071 433.484 388.294 433.625 388.368H433.625Z" fill="#273271"/>
        <path d="M431.798 386.553C431.841 386.49 431.902 386.441 431.972 386.41C432.041 386.38 432.118 386.37 432.194 386.382C432.35 386.407 432.4 386.161 432.243 386.137C432.115 386.116 431.983 386.134 431.865 386.188C431.747 386.242 431.647 386.33 431.578 386.441C431.49 386.575 431.712 386.686 431.798 386.554V386.553Z" fill="#273271"/>
        <path d="M427.554 385.624C427.642 385.618 427.729 385.643 427.802 385.694C427.874 385.745 427.927 385.82 427.952 385.906C427.998 386.06 428.233 385.979 428.186 385.825C428.143 385.687 428.056 385.568 427.938 385.486C427.82 385.405 427.679 385.365 427.537 385.374C427.378 385.384 427.395 385.634 427.554 385.624V385.624Z" fill="#273271"/>
        <path d="M436.047 393.2C435.687 393.24 435.587 393.598 435.565 393.911C435.554 394.069 435.796 394.12 435.807 393.96C435.819 393.784 435.834 393.475 436.063 393.45C436.219 393.432 436.205 393.183 436.047 393.201V393.2Z" fill="#273271"/>
        <path d="M432.974 390.64C433.02 390.653 433.005 390.754 433.001 390.786C432.987 390.862 432.982 390.94 432.984 391.018C432.998 391.178 433.244 391.161 433.231 391.001C433.22 390.876 433.27 390.757 433.241 390.632C433.231 390.576 433.205 390.524 433.166 390.482C433.128 390.44 433.078 390.41 433.023 390.395C432.87 390.354 432.821 390.599 432.974 390.64V390.64Z" fill="#273271"/>
        <path d="M427.148 389.748C427.33 389.808 427.507 389.72 427.647 389.603C427.794 389.479 427.953 389.327 427.98 389.126C428.001 388.968 427.759 388.916 427.738 389.076C427.72 389.208 427.608 389.309 427.513 389.392C427.417 389.475 427.32 389.543 427.197 389.503C427.046 389.454 426.998 389.699 427.148 389.748L427.148 389.748Z" fill="#273271"/>
        <path d="M430.633 391.426C430.53 391.442 430.436 391.494 430.367 391.573C430.298 391.652 430.259 391.753 430.256 391.858C430.253 391.926 430.327 391.979 430.388 391.974C430.461 391.969 430.499 391.908 430.502 391.841C430.507 391.801 430.523 391.764 430.55 391.734C430.576 391.704 430.611 391.684 430.649 391.675C430.682 391.671 430.712 391.656 430.733 391.631C430.754 391.606 430.765 391.574 430.764 391.541C430.76 391.478 430.698 391.415 430.632 391.425L430.633 391.426Z" fill="#273271"/>
        <path d="M428.314 397.3C428.211 397.316 428.117 397.368 428.049 397.447C427.98 397.526 427.941 397.627 427.938 397.733C427.934 397.8 428.008 397.853 428.069 397.849C428.142 397.843 428.18 397.783 428.184 397.715C428.188 397.675 428.205 397.638 428.232 397.608C428.258 397.579 428.293 397.558 428.331 397.549C428.363 397.546 428.393 397.53 428.415 397.505C428.436 397.48 428.447 397.448 428.446 397.416C428.442 397.352 428.38 397.289 428.314 397.3L428.314 397.3Z" fill="#273271"/>
        <path d="M424.076 389.171C424.145 389.207 424.13 389.375 424.128 389.44C424.125 389.545 424.107 389.648 424.076 389.747C424.03 389.901 424.272 389.95 424.318 389.797C424.389 389.556 424.459 389.092 424.187 388.948C424.046 388.873 423.935 389.096 424.076 389.171H424.076Z" fill="#273271"/>
        <path d="M420.144 388.792C420.187 388.729 420.247 388.679 420.317 388.649C420.387 388.618 420.464 388.609 420.539 388.621C420.695 388.645 420.745 388.399 420.588 388.376C420.46 388.355 420.329 388.372 420.211 388.426C420.093 388.48 419.993 388.568 419.923 388.679C419.836 388.813 420.057 388.925 420.144 388.792V388.792Z" fill="#273271"/>
        <path d="M424.581 386.047C424.222 386.087 424.121 386.445 424.099 386.757C424.088 386.915 424.33 386.967 424.341 386.807C424.353 386.631 424.368 386.322 424.598 386.297C424.754 386.279 424.739 386.03 424.581 386.047V386.047Z" fill="#273271"/>
        <path d="M416.29 386.43C416.378 386.424 416.466 386.449 416.538 386.5C416.61 386.551 416.663 386.626 416.688 386.712C416.735 386.866 416.969 386.785 416.922 386.631C416.879 386.493 416.792 386.374 416.674 386.292C416.557 386.21 416.415 386.171 416.273 386.18C416.115 386.19 416.131 386.44 416.29 386.429V386.43Z" fill="#273271"/>
        <path d="M421.71 391.446C421.756 391.459 421.742 391.56 421.738 391.592C421.724 391.668 421.718 391.746 421.721 391.824C421.734 391.983 421.98 391.967 421.967 391.807C421.957 391.682 422.006 391.563 421.978 391.438C421.967 391.382 421.941 391.33 421.903 391.288C421.864 391.246 421.814 391.216 421.759 391.201C421.606 391.16 421.558 391.405 421.71 391.446V391.446Z" fill="#273271"/>
        <path d="M416.509 394.432C416.597 394.426 416.684 394.451 416.757 394.502C416.829 394.553 416.882 394.628 416.907 394.714C416.954 394.868 417.188 394.787 417.141 394.633C417.098 394.495 417.011 394.376 416.893 394.294C416.775 394.213 416.634 394.173 416.492 394.182C416.333 394.192 416.35 394.442 416.509 394.431V394.432Z" fill="#273271"/>
        <path d="M415.884 390.554C416.067 390.613 416.243 390.526 416.383 390.408C416.531 390.285 416.69 390.132 416.716 389.931C416.737 389.773 416.495 389.722 416.474 389.882C416.457 390.014 416.345 390.115 416.249 390.198C416.153 390.281 416.056 390.348 415.933 390.309C415.782 390.26 415.734 390.505 415.884 390.554H415.884Z" fill="#273271"/>
        <path d="M419.369 392.232C419.266 392.248 419.172 392.3 419.103 392.379C419.035 392.458 418.995 392.559 418.992 392.664C418.989 392.732 419.063 392.785 419.124 392.78C419.197 392.775 419.235 392.715 419.238 392.647C419.243 392.607 419.26 392.57 419.286 392.54C419.313 392.511 419.347 392.49 419.386 392.481C419.418 392.478 419.448 392.462 419.469 392.437C419.491 392.412 419.502 392.38 419.5 392.347C419.496 392.284 419.435 392.221 419.369 392.231L419.369 392.232Z" fill="#273271"/>
        <path d="M434.284 396.818C434.33 396.83 434.315 396.932 434.311 396.963C434.297 397.04 434.291 397.118 434.294 397.195C434.307 397.355 434.554 397.339 434.54 397.178C434.53 397.054 434.579 396.935 434.551 396.81C434.541 396.754 434.515 396.702 434.476 396.66C434.437 396.618 434.388 396.588 434.333 396.573C434.179 396.532 434.131 396.776 434.284 396.818V396.818Z" fill="#273271"/>
        <path d="M431.742 395.188C431.88 395.03 431.977 394.839 432.024 394.634C432.061 394.476 431.819 394.428 431.782 394.584C431.745 394.747 431.667 394.897 431.558 395.021C431.453 395.142 431.637 395.308 431.742 395.188V395.188Z" fill="#273271"/>
        <path d="M432.541 399.248C432.679 399.09 432.776 398.899 432.823 398.694C432.86 398.536 432.618 398.488 432.581 398.644C432.543 398.807 432.466 398.957 432.357 399.081C432.251 399.202 432.436 399.369 432.541 399.248V399.248Z" fill="#273271"/>
        <path d="M432.485 402.26C432.531 402.272 432.516 402.374 432.512 402.405C432.498 402.481 432.492 402.559 432.495 402.637C432.508 402.797 432.755 402.781 432.741 402.62C432.731 402.495 432.78 402.376 432.752 402.252C432.742 402.195 432.716 402.143 432.677 402.101C432.638 402.059 432.589 402.029 432.534 402.015C432.38 401.973 432.332 402.218 432.485 402.26V402.26Z" fill="#273271"/>
        <path d="M423.73 395.98C423.776 395.992 423.761 396.094 423.757 396.125C423.743 396.202 423.737 396.279 423.74 396.357C423.753 396.517 424 396.501 423.986 396.34C423.976 396.215 424.025 396.097 423.997 395.972C423.987 395.915 423.961 395.863 423.922 395.821C423.883 395.779 423.834 395.749 423.779 395.735C423.625 395.693 423.577 395.938 423.73 395.98V395.98Z" fill="#273271"/>
        <path d="M429.943 400.628C430.081 400.47 430.178 400.279 430.225 400.074C430.262 399.916 430.02 399.868 429.984 400.024C429.946 400.187 429.869 400.337 429.759 400.461C429.654 400.582 429.838 400.749 429.943 400.628V400.628Z" fill="#273271"/>
        <path d="M429.183 404.07C429.321 403.912 429.418 403.721 429.466 403.516C429.502 403.358 429.261 403.31 429.224 403.466C429.186 403.629 429.109 403.779 428.999 403.903C428.894 404.024 429.078 404.191 429.183 404.07V404.07Z" fill="#273271"/>
        <path d="M426.716 400.279C426.762 400.292 426.748 400.393 426.743 400.425C426.729 400.501 426.724 400.579 426.727 400.657C426.74 400.817 426.986 400.8 426.973 400.64C426.963 400.515 427.012 400.396 426.984 400.271C426.973 400.215 426.947 400.163 426.909 400.121C426.87 400.079 426.82 400.049 426.765 400.034C426.612 399.993 426.563 400.238 426.716 400.279V400.279Z" fill="#273271"/>
        <path d="M426.869 405.371C426.915 405.383 426.9 405.485 426.896 405.516C426.882 405.593 426.876 405.67 426.879 405.748C426.892 405.908 427.139 405.892 427.125 405.731C427.115 405.607 427.164 405.488 427.136 405.363C427.126 405.306 427.1 405.254 427.061 405.212C427.022 405.17 426.973 405.14 426.918 405.126C426.764 405.084 426.716 405.329 426.869 405.371V405.371Z" fill="#273271"/>
        <path d="M431.773 405.003C431.819 405.015 431.804 405.117 431.8 405.148C431.786 405.224 431.78 405.302 431.783 405.38C431.796 405.54 432.043 405.524 432.029 405.363C432.019 405.238 432.068 405.12 432.04 404.995C432.03 404.938 432.004 404.886 431.965 404.844C431.926 404.802 431.877 404.772 431.822 404.758C431.668 404.716 431.62 404.961 431.773 405.003V405.003Z" fill="#273271"/>
        <path d="M415.132 403.871C415.029 403.887 414.935 403.939 414.866 404.018C414.797 404.097 414.758 404.198 414.755 404.304C414.752 404.371 414.826 404.424 414.887 404.42C414.96 404.415 414.998 404.354 415.001 404.286C415.006 404.247 415.023 404.209 415.049 404.18C415.075 404.15 415.11 404.129 415.148 404.12C415.181 404.117 415.211 404.102 415.232 404.077C415.253 404.052 415.264 404.02 415.263 403.987C415.259 403.924 415.197 403.861 415.131 403.871H415.132Z" fill="#273271"/>
        <path d="M424.328 403.739C424.466 403.58 424.563 403.39 424.61 403.185C424.647 403.027 424.405 402.979 424.368 403.135C424.33 403.297 424.253 403.448 424.144 403.572C424.039 403.693 424.223 403.859 424.328 403.739V403.739Z" fill="#273271"/>
        <path d="M423.567 407.181C423.705 407.023 423.802 406.833 423.849 406.627C423.886 406.469 423.644 406.421 423.608 406.578C423.57 406.74 423.493 406.89 423.383 407.015C423.278 407.136 423.462 407.302 423.567 407.181V407.181Z" fill="#273271"/>
        <path d="M421.103 403.391C421.149 403.403 421.134 403.505 421.13 403.536C421.116 403.613 421.111 403.691 421.113 403.768C421.126 403.928 421.373 403.912 421.359 403.751C421.349 403.627 421.398 403.508 421.37 403.383C421.36 403.327 421.334 403.274 421.295 403.232C421.257 403.19 421.207 403.161 421.152 403.146C420.999 403.104 420.95 403.349 421.103 403.391V403.391Z" fill="#273271"/>
        <path d="M417.24 402.26C417.286 402.272 417.271 402.374 417.267 402.405C417.253 402.481 417.247 402.559 417.25 402.637C417.263 402.797 417.51 402.781 417.496 402.62C417.486 402.495 417.535 402.376 417.507 402.252C417.497 402.195 417.471 402.143 417.432 402.101C417.393 402.059 417.344 402.029 417.289 402.015C417.135 401.973 417.087 402.218 417.24 402.26V402.26Z" fill="#273271"/>
        <path d="M419.359 405.819C419.497 405.661 419.594 405.471 419.641 405.265C419.678 405.107 419.436 405.059 419.4 405.216C419.362 405.378 419.285 405.528 419.175 405.653C419.07 405.774 419.254 405.94 419.359 405.819V405.819Z" fill="#273271"/>
        <path d="M419.303 408.831C419.349 408.843 419.334 408.945 419.33 408.976C419.316 409.052 419.311 409.13 419.314 409.208C419.327 409.368 419.573 409.352 419.56 409.191C419.549 409.066 419.599 408.948 419.571 408.823C419.56 408.766 419.534 408.714 419.495 408.672C419.457 408.63 419.407 408.6 419.352 408.586C419.199 408.544 419.15 408.789 419.303 408.831V408.831Z" fill="#273271"/>
        <path d="M416.761 407.199C416.899 407.041 416.996 406.851 417.044 406.645C417.08 406.487 416.839 406.439 416.802 406.596C416.764 406.758 416.687 406.908 416.577 407.033C416.472 407.154 416.656 407.32 416.761 407.199V407.199Z" fill="#273271"/>
        <path d="M416.002 410.641C416.139 410.483 416.236 410.293 416.284 410.087C416.321 409.929 416.079 409.881 416.042 410.038C416.004 410.2 415.927 410.35 415.818 410.475C415.712 410.596 415.896 410.762 416.002 410.641V410.641Z" fill="#273271"/>
        <path d="M416.761 414.952C416.899 414.794 416.996 414.604 417.044 414.398C417.08 414.24 416.839 414.192 416.802 414.348C416.764 414.511 416.687 414.661 416.577 414.786C416.472 414.907 416.656 415.073 416.761 414.952V414.952Z" fill="#273271"/>
        <path d="M420.203 415.895C420.249 415.907 420.234 416.009 420.23 416.04C420.216 416.116 420.21 416.194 420.213 416.272C420.226 416.432 420.473 416.416 420.459 416.255C420.449 416.13 420.498 416.011 420.47 415.887C420.46 415.83 420.434 415.778 420.395 415.736C420.356 415.694 420.307 415.664 420.252 415.65C420.098 415.608 420.05 415.853 420.203 415.895V415.895Z" fill="#273271"/>
        <path d="M423.297 409.943C423.194 409.959 423.1 410.012 423.031 410.091C422.962 410.17 422.923 410.271 422.92 410.376C422.917 410.444 422.991 410.496 423.052 410.492C423.125 410.487 423.163 410.426 423.166 410.359C423.171 410.319 423.188 410.282 423.214 410.252C423.24 410.222 423.275 410.201 423.313 410.192C423.346 410.189 423.376 410.173 423.397 410.149C423.418 410.124 423.429 410.092 423.428 410.059C423.424 409.996 423.362 409.933 423.296 409.943L423.297 409.943Z" fill="#273271"/>
        <path d="M420.326 406.336C420.223 406.353 420.129 406.405 420.06 406.484C419.992 406.563 419.952 406.664 419.949 406.769C419.946 406.837 420.02 406.889 420.081 406.885C420.154 406.88 420.192 406.819 420.195 406.752C420.2 406.712 420.217 406.675 420.243 406.645C420.27 406.615 420.304 406.594 420.343 406.585C420.375 406.582 420.405 406.567 420.426 406.542C420.447 406.517 420.459 406.485 420.457 406.452C420.453 406.389 420.392 406.326 420.326 406.336L420.326 406.336Z" fill="#273271"/>
        <path d="M422.592 399.225C422.489 399.241 422.395 399.293 422.326 399.372C422.257 399.451 422.218 399.552 422.215 399.658C422.212 399.725 422.286 399.778 422.347 399.774C422.42 399.768 422.458 399.708 422.461 399.64C422.466 399.6 422.482 399.563 422.509 399.533C422.535 399.504 422.57 399.483 422.608 399.474C422.641 399.471 422.671 399.455 422.692 399.43C422.713 399.406 422.724 399.373 422.723 399.341C422.719 399.277 422.657 399.214 422.591 399.225L422.592 399.225Z" fill="#273271"/>
        <path d="M419.265 411.413C419.163 411.429 419.069 411.481 419 411.56C418.931 411.639 418.892 411.74 418.889 411.846C418.885 411.913 418.96 411.966 419.02 411.962C419.093 411.957 419.132 411.896 419.135 411.828C419.14 411.789 419.156 411.752 419.183 411.722C419.209 411.692 419.244 411.671 419.282 411.662C419.314 411.659 419.344 411.643 419.366 411.619C419.387 411.594 419.398 411.562 419.397 411.529C419.393 411.466 419.331 411.403 419.265 411.413H419.265Z" fill="#273271"/>
        <path d="M427.11 409.648C427.248 409.489 427.345 409.299 427.392 409.094C427.429 408.936 427.187 408.888 427.151 409.044C427.113 409.206 427.036 409.357 426.926 409.481C426.821 409.602 427.005 409.768 427.11 409.648V409.648Z" fill="#273271"/>
        <path d="M428.876 412.823C428.921 412.835 428.907 412.937 428.903 412.968C428.889 413.045 428.883 413.123 428.886 413.2C428.899 413.36 429.145 413.344 429.132 413.183C429.122 413.059 429.171 412.94 429.143 412.815C429.133 412.759 429.106 412.707 429.068 412.665C429.029 412.623 428.979 412.593 428.924 412.578C428.771 412.537 428.723 412.781 428.876 412.823V412.823Z" fill="#273271"/>
        <path d="M424.926 413.272C425.064 413.114 425.161 412.923 425.209 412.718C425.246 412.56 425.004 412.512 424.967 412.668C424.929 412.831 424.852 412.981 424.742 413.105C424.637 413.226 424.821 413.392 424.926 413.272V413.272Z" fill="#273271"/>
        <path d="M424.165 416.713C424.303 416.555 424.4 416.365 424.447 416.16C424.484 416.002 424.242 415.953 424.205 416.11C424.167 416.272 424.09 416.422 423.981 416.547C423.875 416.668 424.06 416.834 424.165 416.713V416.713Z" fill="#273271"/>
        <path d="M427.483 416.713C427.621 416.555 427.718 416.365 427.765 416.16C427.802 416.002 427.56 415.953 427.524 416.11C427.486 416.272 427.409 416.422 427.299 416.547C427.194 416.668 427.378 416.834 427.483 416.713V416.713Z" fill="#273271"/>
        <path d="M421.7 412.923C421.746 412.936 421.731 413.037 421.727 413.069C421.713 413.145 421.707 413.223 421.71 413.301C421.723 413.46 421.97 413.444 421.956 413.283C421.946 413.159 421.995 413.04 421.967 412.915C421.957 412.859 421.931 412.807 421.892 412.765C421.853 412.723 421.804 412.693 421.749 412.678C421.595 412.637 421.547 412.881 421.7 412.923V412.923Z" fill="#273271"/>
        <path d="M436.075 414.112C436.213 413.953 436.31 413.763 436.358 413.558C436.395 413.4 436.153 413.352 436.116 413.508C436.078 413.671 436.001 413.821 435.891 413.945C435.786 414.066 435.97 414.233 436.075 414.112L436.075 414.112Z" fill="#273271"/>
        <path d="M435.315 417.553C435.453 417.395 435.55 417.205 435.598 416.999C435.634 416.841 435.393 416.793 435.356 416.95C435.318 417.112 435.241 417.262 435.131 417.387C435.026 417.508 435.21 417.674 435.315 417.553V417.553Z" fill="#273271"/>
        <path d="M432.85 413.763C432.896 413.775 432.881 413.877 432.877 413.908C432.863 413.985 432.858 414.063 432.86 414.14C432.873 414.3 433.12 414.284 433.107 414.123C433.096 413.999 433.146 413.88 433.117 413.755C433.107 413.699 433.081 413.647 433.042 413.605C433.004 413.563 432.954 413.533 432.899 413.518C432.746 413.476 432.697 413.721 432.85 413.763V413.763Z" fill="#273271"/>
        <path d="M435.471 403.369C435.517 403.382 435.502 403.483 435.498 403.515C435.484 403.591 435.479 403.669 435.482 403.747C435.495 403.906 435.741 403.89 435.728 403.729C435.717 403.605 435.767 403.486 435.739 403.361C435.728 403.305 435.702 403.253 435.663 403.211C435.625 403.169 435.575 403.139 435.52 403.124C435.367 403.083 435.318 403.327 435.471 403.369V403.369Z" fill="#273271"/>
        <path d="M434.155 407.669C434.293 407.511 434.39 407.32 434.437 407.115C434.474 406.957 434.232 406.909 434.195 407.065C434.158 407.227 434.08 407.378 433.971 407.502C433.866 407.623 434.05 407.789 434.155 407.669V407.669Z" fill="#273271"/>
        <path d="M431.829 411.37C431.967 411.212 432.064 411.021 432.111 410.816C432.148 410.658 431.906 410.61 431.869 410.766C431.831 410.929 431.754 411.079 431.645 411.203C431.54 411.324 431.724 411.49 431.829 411.37V411.37Z" fill="#273271"/>
        <path d="M429.363 407.579C429.409 407.592 429.394 407.694 429.39 407.725C429.376 407.801 429.37 407.879 429.373 407.957C429.386 408.117 429.633 408.101 429.619 407.94C429.609 407.815 429.658 407.696 429.63 407.572C429.62 407.515 429.594 407.463 429.555 407.421C429.516 407.379 429.467 407.349 429.412 407.335C429.258 407.293 429.21 407.538 429.363 407.579V407.579Z" fill="#273271"/>
        <path d="M423.415 400.728C423.553 400.57 423.65 400.379 423.697 400.174C423.734 400.016 423.492 399.968 423.455 400.124C423.417 400.287 423.34 400.437 423.231 400.561C423.125 400.682 423.31 400.849 423.415 400.728V400.728Z" fill="#273271"/>
        <path d="M427.936 394.728C427.982 394.74 427.967 394.842 427.963 394.873C427.949 394.95 427.943 395.028 427.946 395.105C427.959 395.265 428.206 395.249 428.192 395.088C428.182 394.964 428.231 394.845 428.203 394.72C428.193 394.664 428.167 394.611 428.128 394.569C428.09 394.527 428.04 394.497 427.985 394.483C427.832 394.441 427.783 394.686 427.936 394.728V394.728Z" fill="#273271"/>
        <path d="M425.395 393.096C425.533 392.938 425.63 392.748 425.678 392.542C425.714 392.384 425.473 392.336 425.436 392.493C425.398 392.655 425.321 392.805 425.211 392.93C425.106 393.051 425.29 393.217 425.395 393.096V393.096Z" fill="#273271"/>
        <path d="M424.636 396.539C424.774 396.38 424.871 396.19 424.919 395.985C424.955 395.827 424.714 395.779 424.677 395.935C424.639 396.097 424.562 396.248 424.452 396.372C424.347 396.493 424.531 396.659 424.636 396.539V396.539Z" fill="#273271"/>
        <path d="M416.681 397.024C416.579 397.041 416.485 397.093 416.416 397.172C416.347 397.251 416.308 397.352 416.305 397.457C416.301 397.525 416.376 397.577 416.436 397.573C416.509 397.568 416.548 397.507 416.551 397.44C416.556 397.4 416.572 397.363 416.599 397.333C416.625 397.304 416.66 397.283 416.698 397.274C416.731 397.271 416.76 397.255 416.782 397.23C416.803 397.205 416.814 397.173 416.813 397.14C416.809 397.077 416.747 397.014 416.681 397.024H416.681Z" fill="#273271"/>
        <path d="M421.539 394.981C421.627 394.975 421.715 395 421.787 395.051C421.859 395.103 421.912 395.177 421.937 395.263C421.984 395.417 422.218 395.337 422.171 395.183C422.128 395.045 422.041 394.925 421.923 394.844C421.806 394.762 421.664 394.723 421.522 394.732C421.364 394.742 421.38 394.991 421.539 394.981V394.981Z" fill="#273271"/>
        <path d="M418.578 400.052C418.666 400.046 418.754 400.071 418.826 400.122C418.898 400.173 418.951 400.248 418.976 400.334C419.023 400.488 419.257 400.407 419.21 400.253C419.167 400.115 419.08 399.996 418.962 399.914C418.845 399.833 418.703 399.793 418.561 399.802C418.403 399.812 418.419 400.062 418.578 400.051V400.052Z" fill="#273271"/>
        <path d="M418.501 396.174C418.684 396.233 418.86 396.146 419 396.029C419.148 395.905 419.307 395.753 419.333 395.552C419.354 395.394 419.113 395.342 419.091 395.502C419.074 395.634 418.962 395.735 418.866 395.818C418.77 395.901 418.674 395.969 418.55 395.929C418.399 395.88 418.351 396.126 418.501 396.174H418.501Z" fill="#273271"/>
        <path d="M421.713 397.574C421.61 397.59 421.516 397.642 421.447 397.721C421.378 397.8 421.339 397.901 421.336 398.006C421.333 398.074 421.407 398.127 421.468 398.122C421.541 398.117 421.579 398.056 421.582 397.989C421.587 397.949 421.604 397.912 421.63 397.882C421.656 397.852 421.691 397.832 421.73 397.823C421.762 397.819 421.792 397.804 421.813 397.779C421.834 397.754 421.845 397.722 421.844 397.689C421.84 397.626 421.779 397.563 421.712 397.573L421.713 397.574Z" fill="#273271"/>
    </g>
    <path d="M404.31 409.46C403.778 409.413 403.244 409.525 402.775 409.784C401.277 410.605 398.384 411.878 398.514 412.39C398.668 412.998 403.797 413.056 405.893 412.155C405.893 412.155 419.239 410.785 422.301 409.714C425.344 408.203 429.96 402.669 429.96 402.669L424.476 399.557L419.997 405.154C419.997 405.154 415.541 407.842 406.509 409.657L404.31 409.46Z" fill="#E58057"/>
    <path d="M431.546 389.178C428.607 387.866 426.514 391.365 425.4 393.781C424.286 396.197 421.18 400.51 421.18 400.51L429.149 404.812C429.149 404.812 432.124 400.146 433.842 395.903C435.559 391.66 432.576 389.638 431.546 389.178Z" fill="#3A4375"/>
    <path d="M410.532 413.414C409.912 412.863 409.797 412.272 408.257 412.363C406.716 412.454 396.61 413.032 396.61 413.032L396.805 414.224L410.532 413.414Z" fill="#ABACAE"/>
    <path d="M387.472 402.946L394.676 414.335L399.731 414.014L392.248 402.491C392.141 402.354 392.003 402.244 391.846 402.171C391.689 402.099 391.517 402.064 391.344 402.072L387.827 402.201C387.744 402.205 387.663 402.231 387.593 402.278C387.523 402.324 387.466 402.389 387.43 402.466C387.393 402.542 387.378 402.627 387.386 402.712C387.393 402.796 387.423 402.877 387.472 402.946Z" fill="#ABACAE"/>
    <path d="M404.459 450.49L397.242 451.277L396.688 449.198L404.015 448.214L404.459 450.49Z" fill="#273271"/>
    <path d="M391.593 448.835L385.734 447.635C385.512 447.589 385.359 447.402 385.374 447.192L385.475 445.783C385.494 445.52 385.766 445.336 386.043 445.398L391.956 446.713C392.181 446.763 392.331 446.96 392.306 447.172L392.152 448.468C392.122 448.719 391.861 448.889 391.593 448.835Z" fill="#273271"/>
    <defs>
        <linearGradient id="paint0_linear" x1="392.684" y1="465.008" x2="494.98" y2="484.594" gradientUnits="userSpaceOnUse">
            <stop offset="0.04" stop-color="#3B78CD"/>
            <stop offset="1" stop-color="#0B0146"/>
        </linearGradient>
        <linearGradient id="paint1_linear" x1="454245" y1="41359.5" x2="454274" y2="33027.5" gradientUnits="userSpaceOnUse">
            <stop offset="0.27" stop-color="white"/>
            <stop offset="1"/>
        </linearGradient>
        <linearGradient id="paint2_linear" x1="500.96" y1="421.684" x2="398.664" y2="441.269" gradientUnits="userSpaceOnUse">
            <stop offset="0.06" stop-color="#3B0945"/>
            <stop offset="0.24" stop-color="#410E47"/>
            <stop offset="0.48" stop-color="#511D4B"/>
            <stop offset="0.75" stop-color="#6D3452"/>
            <stop offset="0.97" stop-color="#884C59"/>
        </linearGradient>
        <linearGradient id="paint3_linear" x1="545.391" y1="455.935" x2="501.073" y2="455.935" gradientUnits="userSpaceOnUse">
            <stop stop-color="#9BA0DE"/>
            <stop offset="0.11" stop-color="#A1A6E1"/>
            <stop offset="0.67" stop-color="#BDC1EF"/>
            <stop offset="1" stop-color="#C7CBF4"/>
        </linearGradient>
        <linearGradient id="paint4_linear" x1="489.596" y1="482.189" x2="556.937" y2="482.189" gradientUnits="userSpaceOnUse">
            <stop stop-color="#D5D9F4"/>
            <stop offset="0.3" stop-color="#CCCFEF"/>
            <stop offset="0.81" stop-color="#B4B3E3"/>
            <stop offset="1" stop-color="#A9A7DE"/>
        </linearGradient>
        <linearGradient id="paint5_linear" x1="440.786" y1="423.019" x2="487.994" y2="423.019" gradientUnits="userSpaceOnUse">
            <stop stop-color="white"/>
            <stop offset="0.46" stop-color="#C3D5F2"/>
            <stop offset="0.97" stop-color="#7CA3E2"/>
        </linearGradient>
        <linearGradient id="paint6_linear" x1="44244.2" y1="4204.46" x2="85023.9" y2="4204.46" gradientUnits="userSpaceOnUse">
            <stop stop-color="white"/>
            <stop offset="0.46" stop-color="#C3D5F2"/>
            <stop offset="0.97" stop-color="#7CA3E2"/>
        </linearGradient>
        <linearGradient id="paint7_linear" x1="37845.9" y1="4374.11" x2="67582.3" y2="4374.11" gradientUnits="userSpaceOnUse">
            <stop stop-color="white"/>
            <stop offset="0.46" stop-color="#C3D5F2"/>
            <stop offset="0.97" stop-color="#7CA3E2"/>
        </linearGradient>
        <linearGradient id="paint8_linear" x1="555.884" y1="365.292" x2="622.145" y2="365.292" gradientUnits="userSpaceOnUse">
            <stop stop-color="#E4E8F6"/>
            <stop offset="0.4" stop-color="#B4C8ED"/>
            <stop offset="0.78" stop-color="#8BADE5"/>
            <stop offset="0.97" stop-color="#7CA3E2"/>
        </linearGradient>
        <linearGradient id="paint9_linear" x1="201587" y1="1722.19" x2="281924" y2="1722.19" gradientUnits="userSpaceOnUse">
            <stop stop-color="#E4E8F6"/>
            <stop offset="0.4" stop-color="#B4C8ED"/>
            <stop offset="0.78" stop-color="#8BADE5"/>
            <stop offset="0.97" stop-color="#7CA3E2"/>
        </linearGradient>
        <linearGradient id="paint10_linear" x1="172229" y1="1891.86" x2="230813" y2="1891.86" gradientUnits="userSpaceOnUse">
            <stop stop-color="#E4E8F6"/>
            <stop offset="0.4" stop-color="#B4C8ED"/>
            <stop offset="0.78" stop-color="#8BADE5"/>
            <stop offset="0.97" stop-color="#7CA3E2"/>
        </linearGradient>
        <linearGradient id="paint11_linear" x1="201587" y1="2199.21" x2="281924" y2="2199.21" gradientUnits="userSpaceOnUse">
            <stop stop-color="#E4E8F6"/>
            <stop offset="0.4" stop-color="#B4C8ED"/>
            <stop offset="0.78" stop-color="#8BADE5"/>
            <stop offset="0.97" stop-color="#7CA3E2"/>
        </linearGradient>
        <linearGradient id="paint12_linear" x1="201587" y1="2368.94" x2="281924" y2="2368.94" gradientUnits="userSpaceOnUse">
            <stop stop-color="#E4E8F6"/>
            <stop offset="0.4" stop-color="#B4C8ED"/>
            <stop offset="0.78" stop-color="#8BADE5"/>
            <stop offset="0.97" stop-color="#7CA3E2"/>
        </linearGradient>
        <linearGradient id="paint13_linear" x1="172229" y1="2538.55" x2="230813" y2="2538.55" gradientUnits="userSpaceOnUse">
            <stop stop-color="#E4E8F6"/>
            <stop offset="0.4" stop-color="#B4C8ED"/>
            <stop offset="0.78" stop-color="#8BADE5"/>
            <stop offset="0.97" stop-color="#7CA3E2"/>
        </linearGradient>
        <linearGradient id="paint14_linear" x1="201587" y1="2846.31" x2="281924" y2="2846.31" gradientUnits="userSpaceOnUse">
            <stop stop-color="#E4E8F6"/>
            <stop offset="0.4" stop-color="#B4C8ED"/>
            <stop offset="0.78" stop-color="#8BADE5"/>
            <stop offset="0.97" stop-color="#7CA3E2"/>
        </linearGradient>
        <linearGradient id="paint15_linear" x1="201587" y1="3015.97" x2="281924" y2="3015.97" gradientUnits="userSpaceOnUse">
            <stop stop-color="#E4E8F6"/>
            <stop offset="0.4" stop-color="#B4C8ED"/>
            <stop offset="0.78" stop-color="#8BADE5"/>
            <stop offset="0.97" stop-color="#7CA3E2"/>
        </linearGradient>
        <linearGradient id="paint16_linear" x1="172229" y1="3185.64" x2="230813" y2="3185.64" gradientUnits="userSpaceOnUse">
            <stop stop-color="#E4E8F6"/>
            <stop offset="0.4" stop-color="#B4C8ED"/>
            <stop offset="0.78" stop-color="#8BADE5"/>
            <stop offset="0.97" stop-color="#7CA3E2"/>
        </linearGradient>
        <linearGradient id="paint17_linear" x1="36402.1" y1="14665.2" x2="19499.2" y2="28795.8" gradientUnits="userSpaceOnUse">
            <stop stop-color="white"/>
            <stop offset="0.46" stop-color="#C3D5F2"/>
            <stop offset="0.97" stop-color="#7CA3E2"/>
        </linearGradient>
        <linearGradient id="paint18_linear" x1="26941.6" y1="6778.79" x2="26941.6" y2="13524.6" gradientUnits="userSpaceOnUse">
            <stop stop-color="white"/>
            <stop offset="0.46" stop-color="#C3D5F2"/>
            <stop offset="0.97" stop-color="#7CA3E2"/>
        </linearGradient>
        <linearGradient id="paint19_linear" x1="40320.2" y1="12918.5" x2="49849.2" y2="25381.7" gradientUnits="userSpaceOnUse">
            <stop stop-color="white"/>
            <stop offset="0.46" stop-color="#C3D5F2"/>
            <stop offset="0.97" stop-color="#7CA3E2"/>
        </linearGradient>
        <linearGradient id="paint20_linear" x1="23733.5" y1="755.696" x2="24435.8" y2="755.696" gradientUnits="userSpaceOnUse">
            <stop offset="0.03" stop-color="#884C59"/>
            <stop offset="0.12" stop-color="#6D3C4D"/>
            <stop offset="0.28" stop-color="#47273D"/>
            <stop offset="0.42" stop-color="#2B1731"/>
            <stop offset="0.54" stop-color="#1B0D2A"/>
            <stop offset="0.63" stop-color="#150A27"/>
            <stop offset="0.95"/>
        </linearGradient>
        <linearGradient id="paint21_linear" x1="45958.4" y1="2983.47" x2="42430.7" y2="523.85" gradientUnits="userSpaceOnUse">
            <stop offset="0.03" stop-color="#884C59"/>
            <stop offset="0.12" stop-color="#6D3C4D"/>
            <stop offset="0.28" stop-color="#47273D"/>
            <stop offset="0.42" stop-color="#2B1731"/>
            <stop offset="0.54" stop-color="#1B0D2A"/>
            <stop offset="0.63" stop-color="#150A27"/>
            <stop offset="0.95"/>
        </linearGradient>
        <linearGradient id="paint22_linear" x1="15789.4" y1="13304.1" x2="74427.5" y2="59230.6" gradientUnits="userSpaceOnUse">
            <stop offset="0.03" stop-color="#884C59"/>
            <stop offset="0.12" stop-color="#6D3C4D"/>
            <stop offset="0.28" stop-color="#47273D"/>
            <stop offset="0.42" stop-color="#2B1731"/>
            <stop offset="0.54" stop-color="#1B0D2A"/>
            <stop offset="0.63" stop-color="#150A27"/>
            <stop offset="0.95"/>
        </linearGradient>
        <linearGradient id="paint23_linear" x1="10848.1" y1="6535.8" x2="10970.4" y2="6535.8" gradientUnits="userSpaceOnUse">
            <stop offset="0.03" stop-color="#B4BFEB"/>
            <stop offset="0.28" stop-color="#C3CCEF"/>
            <stop offset="0.78" stop-color="#ECEFFA"/>
            <stop offset="1" stop-color="white"/>
        </linearGradient>
        <linearGradient id="paint24_linear" x1="610.972" y1="433.411" x2="622.039" y2="415.154" gradientUnits="userSpaceOnUse">
            <stop stop-color="#F6E8EE"/>
            <stop offset="0.17" stop-color="#E3D7DC"/>
            <stop offset="0.53" stop-color="#B1A9AC"/>
            <stop offset="1" stop-color="#666666"/>
        </linearGradient>
        <linearGradient id="paint25_linear" x1="10818.4" y1="34888.4" x2="11828.9" y2="36481.9" gradientUnits="userSpaceOnUse">
            <stop offset="0.37" stop-color="#022F6B"/>
            <stop offset="0.47" stop-color="#02326F"/>
            <stop offset="0.57" stop-color="#023C7C"/>
            <stop offset="0.68" stop-color="#014D92"/>
            <stop offset="0.79" stop-color="#0164B0"/>
            <stop offset="0.9" stop-color="#0181D6"/>
            <stop offset="1" stop-color="#00A0FF"/>
        </linearGradient>
        <linearGradient id="paint26_linear" x1="35068.2" y1="22033.5" x2="38861.5" y2="22033.5" gradientUnits="userSpaceOnUse">
            <stop offset="0.09" stop-color="#DFE6EB"/>
            <stop offset="0.26" stop-color="#D1D7DC"/>
            <stop offset="0.59" stop-color="#ADB1B3"/>
            <stop offset="0.95" stop-color="#808080"/>
        </linearGradient>
        <linearGradient id="paint27_linear" x1="36239.1" y1="36288.5" x2="39382" y2="36288.5" gradientUnits="userSpaceOnUse">
            <stop offset="0.09" stop-color="#DFE6EB"/>
            <stop offset="0.26" stop-color="#D1D7DC"/>
            <stop offset="0.59" stop-color="#ADB1B3"/>
            <stop offset="0.95" stop-color="#808080"/>
        </linearGradient>
        <linearGradient id="paint28_linear" x1="94922.2" y1="49279.6" x2="115821" y2="39303.6" gradientUnits="userSpaceOnUse">
            <stop offset="0.2" stop-color="#E58057"/>
            <stop offset="0.93" stop-color="#ECDFCF"/>
        </linearGradient>
        <linearGradient id="paint29_linear" x1="10683.2" y1="18791.3" x2="10888.4" y2="17812.1" gradientUnits="userSpaceOnUse">
            <stop offset="0.07" stop-color="#ECDFCF"/>
            <stop offset="0.8" stop-color="#E58057"/>
        </linearGradient>
    </defs>
</svg>
