<svg width="346" height="280" viewBox="0 0 346 280" fill="none" xmlns="http://www.w3.org/2000/svg">
    <rect width="345.333" height="280" fill="white"/>
    <g style="mix-blend-mode:multiply">
        <path d="M171.357 161.54L157.007 163.766L157.535 167.169L171.885 164.943L171.357 161.54Z" fill="#E1E1E1"/>
    </g>
    <path d="M179.133 240.628L37.1003 249.383C35.9838 249.449 34.8867 249.07 34.0487 248.33C33.2107 247.589 32.6998 246.547 32.6278 245.431L20.1225 43.3782C20.0569 42.262 20.4357 41.1652 21.1764 40.3274C21.917 39.4896 22.9592 38.9789 24.0753 38.9069L166.11 30.1321C167.227 30.0665 168.324 30.4453 169.162 31.1858C170 31.9263 170.511 32.9683 170.583 34.0841L183.084 236.182C183.143 237.293 182.761 238.383 182.022 239.216C181.282 240.048 180.244 240.556 179.133 240.628Z" fill="#B8B8E8"/>
    <path d="M86.1856 196.632C84.1468 194.101 81.5586 192.068 78.6173 190.686L69.4007 210.142L86.1856 196.632Z" fill="#273271"/>
    <path d="M84.8268 219.984L63.5648 216.465L60.9542 195.078C56.986 195.564 53.2313 197.144 50.1104 199.642C46.9895 202.14 44.6255 205.457 43.283 209.222C41.9405 212.987 41.6725 217.051 42.509 220.959C43.3455 224.868 45.2534 228.466 48.0193 231.352C50.7852 234.239 54.2998 236.298 58.1699 237.301C62.0399 238.304 66.1127 238.21 69.9323 237.03C73.752 235.85 77.1678 233.631 79.7974 230.62C82.4271 227.61 84.1668 223.927 84.8219 219.984L84.8268 219.984Z" fill="#F1F1FB"/>
    <path d="M74.5251 191.447C74.1754 191.282 73.8181 191.126 73.4534 190.98C70.0519 189.586 66.3488 189.091 62.7005 189.542L65.2964 210.927L74.5251 191.447Z" fill="#F59E35"/>
    <path d="M85.9128 201.03L69.1279 214.541L90.3899 218.061C90.8843 215.067 90.7411 212.003 89.9696 209.068C89.1981 206.133 87.8157 203.394 85.9128 201.03Z" fill="#E8443C"/>
    <path d="M128.627 137.747L116.908 138.469L111.141 124.29L87.7478 125.734L83.8923 140.505L74.5359 141.083L90.9387 79.0321L104.455 78.1976L128.627 137.747ZM107.671 115.698L97.1234 89.1191L89.9314 116.819L107.671 115.698Z" fill="#F2F2F2"/>
    <rect x="144.871" y="154.774" width="43.7805" height="5.2631" rx="2.63155" transform="rotate(-3.89878 144.871 154.774)" fill="#FEF0E0"/>
    <rect x="145.74" y="166.178" width="43.7805" height="5.2631" rx="2.63155" transform="rotate(-3.89878 145.74 166.178)" fill="#FEF0E0"/>
    <path d="M283.838 258.329L142.923 238.468C141.817 238.309 140.818 237.718 140.146 236.825C139.473 235.931 139.182 234.809 139.335 233.701L167.586 33.2186C167.746 32.1123 168.337 31.114 169.23 30.4419C170.123 29.7697 171.247 29.4782 172.354 29.631L313.284 49.4915C314.391 49.6511 315.391 50.2427 316.063 51.137C316.735 52.0312 317.026 53.1553 316.872 54.2634L288.621 254.746C288.46 255.854 287.866 256.854 286.97 257.525C286.073 258.197 284.947 258.486 283.838 258.329Z" fill="#F6BC73"/>
    <path d="M195.97 216.041L175.862 208.336L177.592 186.86C173.607 186.541 169.612 187.337 166.054 189.16C162.496 190.982 159.515 193.758 157.445 197.178C155.376 200.597 154.299 204.525 154.335 208.522C154.371 212.518 155.519 216.426 157.651 219.808C159.782 223.189 162.812 225.911 166.403 227.668C169.994 229.426 174.003 230.15 177.981 229.759C181.96 229.368 185.751 227.877 188.931 225.455C192.111 223.032 194.553 219.773 195.985 216.041H195.97Z" fill="url(#paint0_linear)"/>
    <path d="M197.79 193.406C196.301 190.522 194.175 188.014 191.574 186.072V186.042C191.264 185.811 190.946 185.586 190.623 185.368C187.57 183.321 184.042 182.094 180.378 181.805L178.648 203.256L178.613 203.306L197.79 193.406Z" fill="url(#paint1_linear)"/>
    <path d="M200.838 197.687L181.682 207.558L201.805 215.263C202.889 212.43 203.364 209.4 203.197 206.372C203.031 203.343 202.227 200.384 200.838 197.687Z" fill="url(#paint2_linear)"/>
    <g style="mix-blend-mode:multiply">
        <path d="M225.678 201.929L221.475 201.339L192.351 197.231L191.965 199.981L221.089 204.089L225.287 204.679L249.102 208.034L249.489 205.283L225.678 201.929Z" fill="#E1E1E1"/>
    </g>
    <rect x="164.031" y="162.324" width="120.554" height="5.2631" rx="2.63155" transform="rotate(8.07292 164.031 162.324)" fill="#FCE1C0"/>
    <path d="M190.165 198.315C190.524 195.768 188.749 193.412 186.202 193.053C183.654 192.694 181.297 194.468 180.938 197.016C180.579 199.563 182.354 201.919 184.902 202.278C187.449 202.637 189.806 200.863 190.165 198.315Z" fill="url(#paint3_linear)"/>
    <g style="mix-blend-mode:multiply">
        <path d="M211.21 214.123L208.583 213.752L190.384 211.19L189.997 213.92L208.197 216.487L210.824 216.859L225.703 218.955L226.089 216.219L211.21 214.123Z" fill="#E1E1E1"/>
    </g>
    <path d="M188.203 212.27C188.562 209.723 186.788 207.367 184.24 207.008C181.692 206.649 179.335 208.423 178.976 210.97C178.617 213.518 180.392 215.874 182.94 216.232C185.488 216.591 187.844 214.817 188.203 212.27Z" fill="url(#paint4_linear)"/>
    <g style="mix-blend-mode:multiply">
        <path d="M203.727 227.517L201.794 227.245L188.387 225.357L188.06 227.681L201.467 229.569L203.4 229.841L214.363 231.387L214.69 229.063L203.727 227.517Z" fill="#E1E1E1"/>
    </g>
    <path d="M186.235 226.224C186.594 223.677 184.82 221.321 182.272 220.962C179.724 220.603 177.367 222.377 177.008 224.924C176.649 227.472 178.424 229.827 180.972 230.186C183.52 230.545 185.876 228.771 186.235 226.224Z" fill="url(#paint5_linear)"/>
    <path d="M205.383 141.797L213.888 81.4725L237.406 84.7875C241.371 85.3491 244.614 86.2262 247.135 87.4188C249.656 88.6113 251.682 90.6545 253.212 93.5483C254.769 96.5067 255.321 99.8916 254.783 103.191C254.402 106.346 252.937 109.271 250.639 111.466C248.346 113.653 245.444 114.844 241.931 115.039C246.071 116.36 249.045 118.537 250.853 121.57C252.655 124.606 253.332 128.179 252.766 131.664C252.105 136.318 250.028 140.015 246.536 142.754C243.043 145.492 238.126 146.414 231.785 145.519L205.383 141.797ZM220.619 108.245L233.882 110.114C236.591 110.497 238.85 109.988 240.657 108.587C241.561 107.878 242.312 106.994 242.868 105.989C243.424 104.984 243.773 103.877 243.894 102.735C244.284 99.967 243.672 97.7999 242.06 96.2341C240.409 94.6513 238.289 93.6478 236.018 93.3749L222.948 91.5415L220.619 108.245ZM216.961 134.186L231.017 136.168C233.991 136.588 236.451 136.138 238.397 134.82C240.343 133.502 241.5 131.52 241.867 128.874C242.067 127.713 242.015 126.522 241.713 125.383C241.411 124.244 240.866 123.183 240.117 122.274C238.591 120.407 236.383 119.269 233.495 118.86L219.394 116.877L216.961 134.186Z" fill="#F2F2F2"/>
    <rect x="165.785" y="151.797" width="120.554" height="5.2631" rx="2.63155" transform="rotate(8.07292 165.785 151.797)" fill="#FCE1C0"/>
    <g style="mix-blend-mode:multiply">
        <g style="mix-blend-mode:multiply">
            <path d="M292.272 180.765V259.676C292.255 260.624 291.863 261.526 291.182 262.186C290.501 262.845 289.587 263.208 288.639 263.195H162.801C162.12 263.199 161.451 263.012 160.87 262.657C160.288 262.302 159.817 261.791 159.51 261.183C159.395 260.959 159.308 260.72 159.253 260.474C159.188 260.217 159.156 259.952 159.158 259.686V180.765C159.152 180.646 159.152 180.527 159.158 180.408C159.212 179.947 159.355 179.501 159.58 179.095C159.649 179.001 159.704 178.897 159.783 178.793C159.907 178.61 160.054 178.444 160.219 178.297C160.329 178.178 160.452 178.071 160.586 177.98C161.227 177.515 162 177.267 162.791 177.271H288.634C288.913 177.269 289.19 177.301 289.462 177.366H289.541C289.827 177.432 290.103 177.538 290.359 177.683C290.931 177.97 291.413 178.41 291.75 178.954C292.088 179.498 292.269 180.125 292.272 180.765Z" fill="#CACACA"/>
        </g>
    </g>
    <path d="M237.385 181.082C236.371 181.081 235.398 180.677 234.681 179.96C233.963 179.243 233.56 178.271 233.559 177.256V173.421C233.56 172.407 233.963 171.435 234.681 170.718C235.398 170 236.371 169.597 237.385 169.596C237.566 169.596 237.739 169.668 237.867 169.795C237.995 169.923 238.066 170.096 238.066 170.277C238.066 170.458 237.995 170.631 237.867 170.759C237.739 170.887 237.566 170.958 237.385 170.958C236.728 170.958 236.097 171.219 235.633 171.684C235.168 172.149 234.907 172.779 234.907 173.436V177.271C234.907 177.928 235.168 178.559 235.633 179.023C236.097 179.488 236.728 179.749 237.385 179.749C237.566 179.749 237.739 179.821 237.867 179.948C237.995 180.076 238.066 180.25 238.066 180.43C238.066 180.611 237.995 180.784 237.867 180.912C237.739 181.04 237.566 181.112 237.385 181.112V181.082Z" fill="#9399B8"/>
    <path d="M253.78 181.082C252.766 181.081 251.794 180.677 251.076 179.96C250.359 179.243 249.955 178.271 249.954 177.256V173.421C249.955 172.407 250.359 171.435 251.076 170.718C251.794 170 252.766 169.597 253.78 169.596C253.961 169.596 254.135 169.668 254.262 169.795C254.39 169.923 254.462 170.096 254.462 170.277C254.462 170.458 254.39 170.631 254.262 170.759C254.135 170.887 253.961 170.958 253.78 170.958C253.123 170.958 252.493 171.219 252.028 171.684C251.563 172.149 251.302 172.779 251.302 173.436V177.271C251.302 177.928 251.563 178.559 252.028 179.023C252.493 179.488 253.123 179.749 253.78 179.749C253.961 179.749 254.135 179.821 254.262 179.948C254.39 180.076 254.462 180.25 254.462 180.43C254.462 180.611 254.39 180.784 254.262 180.912C254.135 181.04 253.961 181.112 253.78 181.112V181.082Z" fill="#9399B8"/>
    <path d="M270.137 181.082C269.122 181.081 268.15 180.677 267.433 179.96C266.715 179.243 266.312 178.271 266.311 177.256V173.421C266.312 172.407 266.715 171.435 267.433 170.718C268.15 170 269.122 169.597 270.137 169.596C270.318 169.596 270.491 169.668 270.619 169.795C270.747 169.923 270.818 170.096 270.818 170.277C270.818 170.458 270.747 170.631 270.619 170.759C270.491 170.887 270.318 170.958 270.137 170.958C269.48 170.958 268.849 171.219 268.385 171.684C267.92 172.149 267.659 172.779 267.659 173.436V177.271C267.659 177.928 267.92 178.559 268.385 179.023C268.849 179.488 269.48 179.749 270.137 179.749C270.318 179.749 270.491 179.821 270.619 179.948C270.747 180.076 270.818 180.25 270.818 180.43C270.818 180.611 270.747 180.784 270.619 180.912C270.491 181.04 270.318 181.112 270.137 181.112V181.082Z" fill="#9399B8"/>
    <path d="M286.542 181.082C285.528 181.081 284.555 180.677 283.838 179.96C283.121 179.243 282.717 178.271 282.716 177.256V173.421C282.717 172.407 283.121 171.435 283.838 170.718C284.555 170 285.528 169.597 286.542 169.596C286.723 169.596 286.896 169.668 287.024 169.795C287.152 169.923 287.224 170.096 287.224 170.277C287.224 170.458 287.152 170.631 287.024 170.759C286.896 170.887 286.723 170.958 286.542 170.958C285.885 170.958 285.255 171.219 284.79 171.684C284.325 172.149 284.064 172.779 284.064 173.436V177.271C284.064 177.928 284.325 178.559 284.79 179.023C285.255 179.488 285.885 179.749 286.542 179.749C286.723 179.749 286.896 179.821 287.024 179.948C287.152 180.076 287.224 180.25 287.224 180.43C287.224 180.611 287.152 180.784 287.024 180.912C286.896 181.04 286.723 181.112 286.542 181.112V181.082Z" fill="#9399B8"/>
    <path d="M188.223 181.082C187.208 181.081 186.236 180.677 185.519 179.96C184.801 179.243 184.398 178.271 184.396 177.256V173.421C184.398 172.407 184.801 171.435 185.519 170.718C186.236 170 187.208 169.597 188.223 169.596C188.404 169.596 188.577 169.668 188.705 169.795C188.833 169.923 188.904 170.096 188.904 170.277C188.904 170.458 188.833 170.631 188.705 170.759C188.577 170.887 188.404 170.958 188.223 170.958C187.566 170.958 186.935 171.219 186.47 171.684C186.006 172.149 185.745 172.779 185.745 173.436V177.271C185.745 177.928 186.006 178.559 186.47 179.023C186.935 179.488 187.566 179.749 188.223 179.749C188.404 179.749 188.577 179.821 188.705 179.948C188.833 180.076 188.904 180.25 188.904 180.43C188.904 180.611 188.833 180.784 188.705 180.912C188.577 181.04 188.404 181.112 188.223 181.112V181.082Z" fill="#9399B8"/>
    <path d="M204.609 181.082C203.594 181.081 202.622 180.677 201.904 179.96C201.187 179.243 200.784 178.271 200.782 177.256V173.421C200.784 172.407 201.187 171.435 201.904 170.718C202.622 170 203.594 169.597 204.609 169.596C204.789 169.596 204.963 169.668 205.09 169.795C205.218 169.923 205.29 170.096 205.29 170.277C205.29 170.458 205.218 170.631 205.09 170.759C204.963 170.887 204.789 170.958 204.609 170.958C203.951 170.958 203.321 171.219 202.856 171.684C202.391 172.149 202.13 172.779 202.13 173.436V177.271C202.13 177.928 202.391 178.559 202.856 179.023C203.321 179.488 203.951 179.749 204.609 179.749C204.789 179.749 204.963 179.821 205.09 179.948C205.218 180.076 205.29 180.25 205.29 180.43C205.29 180.611 205.218 180.784 205.09 180.912C204.963 181.04 204.789 181.112 204.609 181.112V181.082Z" fill="#9399B8"/>
    <path d="M220.994 181.082C220.492 181.082 219.994 180.983 219.53 180.791C219.066 180.598 218.644 180.317 218.289 179.961C217.933 179.606 217.652 179.185 217.459 178.72C217.267 178.256 217.168 177.759 217.168 177.256V173.421C217.168 172.919 217.267 172.421 217.459 171.957C217.652 171.493 217.933 171.071 218.289 170.716C218.644 170.361 219.066 170.079 219.53 169.887C219.994 169.695 220.492 169.596 220.994 169.596C221.175 169.596 221.348 169.668 221.476 169.795C221.604 169.923 221.676 170.096 221.676 170.277C221.676 170.458 221.604 170.631 221.476 170.759C221.348 170.887 221.175 170.958 220.994 170.958C220.337 170.958 219.707 171.219 219.242 171.684C218.777 172.149 218.516 172.779 218.516 173.436V177.271C218.516 177.928 218.777 178.559 219.242 179.023C219.707 179.488 220.337 179.749 220.994 179.749C221.175 179.749 221.348 179.821 221.476 179.948C221.604 180.076 221.676 180.25 221.676 180.43C221.676 180.611 221.604 180.784 221.476 180.912C221.348 181.04 221.175 181.112 220.994 181.112V181.082Z" fill="#9399B8"/>
    <path d="M171.837 181.082C171.335 181.082 170.837 180.983 170.373 180.791C169.909 180.598 169.487 180.317 169.131 179.961C168.776 179.606 168.494 179.185 168.302 178.72C168.11 178.256 168.011 177.759 168.011 177.256V173.421C168.011 172.919 168.11 172.421 168.302 171.957C168.494 171.493 168.776 171.071 169.131 170.716C169.487 170.361 169.909 170.079 170.373 169.887C170.837 169.695 171.335 169.596 171.837 169.596C172.018 169.596 172.191 169.668 172.319 169.795C172.447 169.923 172.519 170.096 172.519 170.277C172.519 170.458 172.447 170.631 172.319 170.759C172.191 170.887 172.018 170.958 171.837 170.958C171.18 170.958 170.549 171.219 170.085 171.684C169.62 172.149 169.359 172.779 169.359 173.436V177.271C169.359 177.928 169.62 178.559 170.085 179.023C170.549 179.488 171.18 179.749 171.837 179.749C172.018 179.749 172.191 179.821 172.319 179.948C172.447 180.076 172.519 180.25 172.519 180.43C172.519 180.611 172.447 180.784 172.319 180.912C172.191 181.04 172.018 181.112 171.837 181.112V181.082Z" fill="#9399B8"/>
    <path d="M295.746 177.648V259.379C295.748 260.344 295.366 261.27 294.685 261.954C294.003 262.638 293.079 263.024 292.113 263.026H166.276C165.587 263.025 164.912 262.829 164.33 262.461C163.748 262.092 163.281 261.567 162.985 260.945C162.869 260.712 162.782 260.466 162.727 260.212C162.662 259.944 162.631 259.669 162.633 259.394V177.648C162.626 177.526 162.626 177.403 162.633 177.281C162.686 176.806 162.829 176.346 163.054 175.924C163.124 175.829 163.178 175.72 163.258 175.611C163.38 175.417 163.527 175.239 163.694 175.081C163.803 174.958 163.926 174.848 164.06 174.754C164.696 174.275 165.47 174.018 166.266 174.021H292.108C292.387 174.018 292.665 174.05 292.936 174.115H293.015C293.303 174.183 293.578 174.294 293.833 174.442C294.413 174.752 294.898 175.215 295.235 175.78C295.572 176.344 295.749 176.99 295.746 177.648Z" fill="#9399B8"/>
    <path d="M295.746 177.648V193.737C295.748 194.703 295.366 195.629 294.684 196.312C294.003 196.996 293.078 197.382 292.113 197.384H166.276C165.587 197.383 164.912 197.187 164.33 196.819C163.747 196.451 163.281 195.925 162.985 195.303C162.871 195.07 162.784 194.824 162.727 194.57C162.674 194.369 162.647 194.163 162.648 193.955C162.641 193.888 162.641 193.82 162.648 193.752V177.648C162.641 177.526 162.641 177.403 162.648 177.281C162.701 176.806 162.844 176.345 163.069 175.923C163.138 175.829 163.193 175.72 163.272 175.611C163.395 175.417 163.541 175.239 163.708 175.081C163.817 174.958 163.94 174.848 164.075 174.754C164.701 174.267 165.473 174.004 166.266 174.006H292.118C292.398 174.007 292.676 174.044 292.946 174.115H293.025C293.312 174.183 293.588 174.293 293.843 174.442C294.421 174.754 294.904 175.217 295.239 175.781C295.574 176.346 295.749 176.991 295.746 177.648Z" fill="#FF8888"/>
    <path d="M181.769 216.046H174.974C174.372 216.046 173.795 215.807 173.369 215.381C172.943 214.956 172.704 214.378 172.704 213.776V210.129C172.708 209.53 172.949 208.957 173.374 208.534C173.799 208.112 174.375 207.875 174.974 207.875H181.789C182.391 207.875 182.969 208.114 183.394 208.54C183.82 208.965 184.059 209.542 184.059 210.144V213.791C184.057 214.09 183.996 214.385 183.88 214.66C183.764 214.935 183.595 215.184 183.382 215.394C183.169 215.603 182.917 215.768 182.641 215.88C182.364 215.992 182.068 216.049 181.769 216.046ZM174.974 208.261C174.477 208.261 174.001 208.459 173.649 208.81C173.298 209.161 173.101 209.638 173.101 210.134V213.781C173.101 214.278 173.298 214.755 173.649 215.106C174.001 215.457 174.477 215.654 174.974 215.654H181.789C182.285 215.653 182.76 215.455 183.111 215.104C183.461 214.753 183.658 214.277 183.658 213.781V210.134C183.658 209.638 183.461 209.163 183.111 208.812C182.76 208.461 182.285 208.263 181.789 208.261H174.974Z" fill="white"/>
    <path d="M198.681 216.046H191.866C191.264 216.046 190.686 215.807 190.261 215.381C189.835 214.956 189.596 214.378 189.596 213.776V210.129C189.596 209.527 189.835 208.95 190.261 208.525C190.686 208.099 191.264 207.86 191.866 207.86H198.681C199.283 207.86 199.86 208.099 200.286 208.525C200.712 208.95 200.951 209.527 200.951 210.129V213.776C200.951 214.378 200.712 214.956 200.286 215.381C199.86 215.807 199.283 216.046 198.681 216.046ZM191.866 208.261C191.369 208.261 190.892 208.459 190.541 208.81C190.19 209.161 189.992 209.638 189.992 210.134V213.781C189.992 214.278 190.19 214.755 190.541 215.106C190.892 215.457 191.369 215.654 191.866 215.654H198.681C199.178 215.654 199.654 215.457 200.006 215.106C200.357 214.755 200.554 214.278 200.554 213.781V210.134C200.554 209.638 200.357 209.161 200.006 208.81C199.654 208.459 199.178 208.261 198.681 208.261H191.866Z" fill="white"/>
    <path d="M215.592 216.046H208.777C208.175 216.046 207.597 215.807 207.172 215.381C206.746 214.956 206.507 214.378 206.507 213.776V210.129C206.511 209.53 206.752 208.957 207.177 208.534C207.602 208.112 208.177 207.875 208.777 207.875H215.592C216.194 207.875 216.771 208.114 217.197 208.54C217.623 208.965 217.862 209.542 217.862 210.144V213.791C217.858 214.391 217.617 214.964 217.192 215.386C216.766 215.809 216.191 216.046 215.592 216.046ZM208.777 208.261C208.28 208.261 207.803 208.459 207.452 208.81C207.101 209.161 206.903 209.638 206.903 210.134V213.781C206.903 214.278 207.101 214.755 207.452 215.106C207.803 215.457 208.28 215.654 208.777 215.654H215.592C216.089 215.654 216.565 215.457 216.917 215.106C217.268 214.755 217.465 214.278 217.465 213.781V210.134C217.465 209.638 217.268 209.161 216.917 208.81C216.565 208.459 216.089 208.261 215.592 208.261H208.777Z" fill="white"/>
    <path d="M232.503 216.046H225.688C225.086 216.046 224.509 215.807 224.083 215.381C223.657 214.956 223.418 214.378 223.418 213.776V210.129C223.418 209.527 223.657 208.95 224.083 208.525C224.509 208.099 225.086 207.86 225.688 207.86H232.503C232.801 207.86 233.096 207.919 233.372 208.033C233.647 208.147 233.897 208.314 234.108 208.525C234.319 208.735 234.486 208.986 234.6 209.261C234.714 209.536 234.773 209.831 234.773 210.129V213.776C234.773 214.378 234.534 214.956 234.108 215.381C233.682 215.807 233.105 216.046 232.503 216.046ZM225.688 208.261C225.191 208.261 224.715 208.459 224.363 208.81C224.012 209.161 223.814 209.638 223.814 210.134V213.781C223.814 214.278 224.012 214.755 224.363 215.106C224.715 215.457 225.191 215.654 225.688 215.654H232.503C233 215.654 233.476 215.457 233.828 215.106C234.179 214.755 234.377 214.278 234.377 213.781V210.134C234.377 209.638 234.179 209.161 233.828 208.81C233.476 208.459 233 208.261 232.503 208.261H225.688Z" fill="white"/>
    <path d="M249.409 216.046H242.594C241.992 216.046 241.415 215.807 240.989 215.381C240.563 214.956 240.324 214.378 240.324 213.776V210.129C240.324 209.527 240.563 208.95 240.989 208.525C241.415 208.099 241.992 207.86 242.594 207.86H249.409C250.011 207.86 250.589 208.099 251.014 208.525C251.44 208.95 251.679 209.527 251.679 210.129V213.776C251.679 214.378 251.44 214.956 251.014 215.381C250.589 215.807 250.011 216.046 249.409 216.046ZM242.594 208.261C242.097 208.261 241.621 208.459 241.269 208.81C240.918 209.161 240.721 209.638 240.721 210.134V213.781C240.721 214.278 240.918 214.755 241.269 215.106C241.621 215.457 242.097 215.654 242.594 215.654H249.409C249.905 215.653 250.381 215.455 250.731 215.104C251.081 214.753 251.278 214.277 251.278 213.781V210.134C251.278 209.638 251.081 209.163 250.731 208.812C250.381 208.46 249.905 208.263 249.409 208.261H242.594Z" fill="white"/>
    <path d="M266.32 216.046H259.505C258.903 216.046 258.326 215.807 257.9 215.381C257.475 214.956 257.235 214.378 257.235 213.776V210.129C257.235 209.527 257.475 208.95 257.9 208.525C258.326 208.099 258.903 207.86 259.505 207.86H266.32C266.922 207.86 267.5 208.099 267.926 208.525C268.351 208.95 268.59 209.527 268.59 210.129V213.776C268.59 214.378 268.351 214.956 267.926 215.381C267.5 215.807 266.922 216.046 266.32 216.046ZM259.505 208.261C259.008 208.261 258.532 208.459 258.181 208.81C257.829 209.161 257.632 209.638 257.632 210.134V213.781C257.632 214.278 257.829 214.755 258.181 215.106C258.532 215.457 259.008 215.654 259.505 215.654H266.32C266.816 215.653 267.292 215.455 267.642 215.104C267.992 214.753 268.189 214.277 268.189 213.781V210.134C268.189 209.638 267.992 209.163 267.642 208.812C267.292 208.46 266.816 208.263 266.32 208.261H259.505Z" fill="white"/>
    <path d="M283.42 216.046H276.605C276.003 216.046 275.426 215.807 275 215.381C274.574 214.956 274.335 214.378 274.335 213.776V210.129C274.335 209.527 274.574 208.95 275 208.525C275.426 208.099 276.003 207.86 276.605 207.86H283.42C284.022 207.86 284.599 208.099 285.025 208.525C285.451 208.95 285.69 209.527 285.69 210.129V213.776C285.69 214.378 285.451 214.956 285.025 215.381C284.599 215.807 284.022 216.046 283.42 216.046ZM276.605 208.261C276.108 208.261 275.632 208.459 275.28 208.81C274.929 209.161 274.731 209.638 274.731 210.134V213.781C274.731 214.278 274.929 214.755 275.28 215.106C275.632 215.457 276.108 215.654 276.605 215.654H283.42C283.917 215.654 284.393 215.457 284.745 215.106C285.096 214.755 285.294 214.278 285.294 213.781V210.134C285.294 209.638 285.096 209.161 284.745 208.81C284.393 208.459 283.917 208.261 283.42 208.261H276.605Z" fill="white"/>
    <path d="M181.769 226.705H174.974C174.372 226.705 173.795 226.465 173.369 226.04C172.943 225.614 172.704 225.037 172.704 224.435V220.788C172.704 220.186 172.943 219.609 173.369 219.183C173.795 218.758 174.372 218.519 174.974 218.519H181.789C182.391 218.519 182.969 218.758 183.394 219.183C183.82 219.609 184.059 220.186 184.059 220.788V224.435C184.059 224.735 184 225.032 183.884 225.308C183.769 225.585 183.6 225.836 183.387 226.047C183.174 226.258 182.922 226.425 182.644 226.538C182.366 226.65 182.069 226.707 181.769 226.705ZM174.974 218.93C174.477 218.93 174.001 219.127 173.649 219.478C173.298 219.83 173.101 220.306 173.101 220.803V224.45C173.101 224.947 173.298 225.423 173.649 225.774C174.001 226.126 174.477 226.323 174.974 226.323H181.789C182.285 226.322 182.76 226.124 183.111 225.773C183.461 225.422 183.658 224.946 183.658 224.45V220.803C183.658 220.307 183.461 219.831 183.111 219.48C182.76 219.129 182.285 218.931 181.789 218.93H174.974Z" fill="white"/>
    <path d="M198.681 226.705H191.866C191.264 226.705 190.686 226.465 190.261 226.04C189.835 225.614 189.596 225.037 189.596 224.435V220.788C189.596 220.186 189.835 219.609 190.261 219.183C190.686 218.758 191.264 218.519 191.866 218.519H198.681C199.283 218.519 199.86 218.758 200.286 219.183C200.712 219.609 200.951 220.186 200.951 220.788V224.435C200.951 225.037 200.712 225.614 200.286 226.04C199.86 226.465 199.283 226.705 198.681 226.705ZM191.866 218.92C191.369 218.92 190.892 219.117 190.541 219.469C190.19 219.82 189.992 220.296 189.992 220.793V224.44C189.992 224.937 190.19 225.413 190.541 225.765C190.892 226.116 191.369 226.313 191.866 226.313H198.681C199.178 226.313 199.654 226.116 200.006 225.765C200.357 225.413 200.554 224.937 200.554 224.44V220.793C200.554 220.296 200.357 219.82 200.006 219.469C199.654 219.117 199.178 218.92 198.681 218.92H191.866Z" fill="white"/>
    <path d="M215.592 226.705H208.777C208.175 226.705 207.597 226.465 207.172 226.04C206.746 225.614 206.507 225.037 206.507 224.435V220.788C206.507 220.186 206.746 219.609 207.172 219.183C207.597 218.758 208.175 218.519 208.777 218.519H215.592C216.194 218.519 216.771 218.758 217.197 219.183C217.623 219.609 217.862 220.186 217.862 220.788V224.435C217.862 225.037 217.623 225.614 217.197 226.04C216.771 226.465 216.194 226.705 215.592 226.705ZM208.777 218.93C208.28 218.93 207.803 219.127 207.452 219.478C207.101 219.83 206.903 220.306 206.903 220.803V224.45C206.903 224.947 207.101 225.423 207.452 225.774C207.803 226.126 208.28 226.323 208.777 226.323H215.592C216.089 226.323 216.565 226.126 216.917 225.774C217.268 225.423 217.465 224.947 217.465 224.45V220.803C217.465 220.306 217.268 219.83 216.917 219.478C216.565 219.127 216.089 218.93 215.592 218.93H208.777Z" fill="white"/>
    <path d="M232.503 226.705H225.688C225.086 226.705 224.509 226.465 224.083 226.04C223.657 225.614 223.418 225.037 223.418 224.435V220.788C223.418 220.186 223.657 219.609 224.083 219.183C224.509 218.758 225.086 218.519 225.688 218.519H232.503C232.801 218.519 233.096 218.577 233.372 218.691C233.647 218.805 233.897 218.973 234.108 219.183C234.319 219.394 234.486 219.644 234.6 219.92C234.714 220.195 234.773 220.49 234.773 220.788V224.435C234.773 225.037 234.534 225.614 234.108 226.04C233.682 226.465 233.105 226.705 232.503 226.705ZM225.688 218.92C225.191 218.92 224.715 219.117 224.363 219.469C224.012 219.82 223.814 220.296 223.814 220.793V224.44C223.814 224.937 224.012 225.413 224.363 225.765C224.715 226.116 225.191 226.313 225.688 226.313H232.503C233 226.313 233.476 226.116 233.828 225.765C234.179 225.413 234.377 224.937 234.377 224.44V220.793C234.377 220.296 234.179 219.82 233.828 219.469C233.476 219.117 233 218.92 232.503 218.92H225.688Z" fill="white"/>
    <path d="M249.409 226.705H242.594C241.992 226.705 241.415 226.465 240.989 226.04C240.563 225.614 240.324 225.037 240.324 224.435V220.788C240.324 220.186 240.563 219.609 240.989 219.183C241.415 218.758 241.992 218.519 242.594 218.519H249.409C250.011 218.519 250.589 218.758 251.014 219.183C251.44 219.609 251.679 220.186 251.679 220.788V224.435C251.679 225.037 251.44 225.614 251.014 226.04C250.589 226.465 250.011 226.705 249.409 226.705ZM242.594 218.92C242.097 218.92 241.621 219.117 241.269 219.469C240.918 219.82 240.721 220.296 240.721 220.793V224.44C240.721 224.937 240.918 225.413 241.269 225.765C241.621 226.116 242.097 226.313 242.594 226.313H249.409C249.905 226.312 250.381 226.114 250.731 225.763C251.081 225.412 251.278 224.936 251.278 224.44V220.793C251.278 220.297 251.081 219.821 250.731 219.47C250.381 219.119 249.905 218.921 249.409 218.92H242.594Z" fill="white"/>
    <path d="M266.32 226.705H259.505C258.903 226.705 258.326 226.465 257.9 226.04C257.475 225.614 257.235 225.037 257.235 224.435V220.788C257.235 220.186 257.475 219.609 257.9 219.183C258.326 218.758 258.903 218.519 259.505 218.519H266.32C266.922 218.519 267.5 218.758 267.926 219.183C268.351 219.609 268.59 220.186 268.59 220.788V224.435C268.59 225.037 268.351 225.614 267.926 226.04C267.5 226.465 266.922 226.705 266.32 226.705ZM259.505 218.92C259.008 218.92 258.532 219.117 258.181 219.469C257.829 219.82 257.632 220.296 257.632 220.793V224.44C257.632 224.937 257.829 225.413 258.181 225.765C258.532 226.116 259.008 226.313 259.505 226.313H266.32C266.816 226.312 267.292 226.114 267.642 225.763C267.992 225.412 268.189 224.936 268.189 224.44V220.793C268.189 220.297 267.992 219.821 267.642 219.47C267.292 219.119 266.816 218.921 266.32 218.92H259.505Z" fill="white"/>
    <path d="M283.42 226.705H276.605C276.003 226.705 275.426 226.465 275 226.04C274.574 225.614 274.335 225.037 274.335 224.435V220.788C274.335 220.186 274.574 219.609 275 219.183C275.426 218.758 276.003 218.519 276.605 218.519H283.42C284.022 218.519 284.599 218.758 285.025 219.183C285.451 219.609 285.69 220.186 285.69 220.788V224.435C285.69 225.037 285.451 225.614 285.025 226.04C284.599 226.465 284.022 226.705 283.42 226.705ZM276.605 218.92C276.108 218.92 275.632 219.117 275.28 219.469C274.929 219.82 274.731 220.296 274.731 220.793V224.44C274.731 224.937 274.929 225.413 275.28 225.765C275.632 226.116 276.108 226.313 276.605 226.313H283.42C283.917 226.313 284.393 226.116 284.745 225.765C285.096 225.413 285.294 224.937 285.294 224.44V220.793C285.294 220.296 285.096 219.82 284.745 219.469C284.393 219.117 283.917 218.92 283.42 218.92H276.605Z" fill="white"/>
    <path d="M181.769 237.383H174.974C174.372 237.383 173.795 237.144 173.369 236.718C172.943 236.293 172.704 235.716 172.704 235.114V231.467C172.702 231.167 172.759 230.871 172.873 230.594C172.986 230.317 173.153 230.065 173.364 229.852C173.575 229.64 173.826 229.471 174.102 229.356C174.378 229.241 174.675 229.182 174.974 229.182H181.789C182.391 229.182 182.969 229.421 183.394 229.847C183.82 230.273 184.059 230.85 184.059 231.452V235.129C184.057 235.427 183.996 235.722 183.88 235.997C183.764 236.272 183.595 236.521 183.382 236.731C183.169 236.94 182.917 237.106 182.641 237.218C182.364 237.329 182.068 237.386 181.769 237.383ZM174.974 229.599C174.477 229.599 174.001 229.796 173.649 230.147C173.298 230.498 173.101 230.975 173.101 231.472V235.129C173.101 235.625 173.298 236.102 173.649 236.453C174.001 236.804 174.477 237.002 174.974 237.002H181.789C182.285 237 182.76 236.802 183.111 236.451C183.461 236.1 183.658 235.624 183.658 235.129V231.482C183.658 230.986 183.461 230.51 183.111 230.159C182.76 229.808 182.285 229.61 181.789 229.608L174.974 229.599Z" fill="white"/>
    <path d="M198.681 237.383H191.866C191.264 237.383 190.686 237.144 190.261 236.718C189.835 236.293 189.596 235.716 189.596 235.114V231.467C189.596 230.865 189.835 230.287 190.261 229.862C190.686 229.436 191.264 229.197 191.866 229.197H198.681C199.283 229.197 199.86 229.436 200.286 229.862C200.712 230.287 200.951 230.865 200.951 231.467V235.129C200.947 235.728 200.706 236.301 200.281 236.724C199.855 237.146 199.28 237.383 198.681 237.383ZM191.866 229.598C191.369 229.598 190.892 229.796 190.541 230.147C190.19 230.498 189.992 230.975 189.992 231.472V235.129C189.992 235.625 190.19 236.102 190.541 236.453C190.892 236.804 191.369 237.002 191.866 237.002H198.681C199.178 237.002 199.654 236.804 200.006 236.453C200.357 236.102 200.554 235.625 200.554 235.129V231.481C200.554 230.985 200.357 230.508 200.006 230.157C199.654 229.806 199.178 229.608 198.681 229.608L191.866 229.598Z" fill="white"/>
    <path d="M215.592 237.383H208.777C208.175 237.383 207.597 237.144 207.172 236.718C206.746 236.293 206.507 235.716 206.507 235.114V231.467C206.505 231.167 206.562 230.871 206.675 230.594C206.789 230.317 206.955 230.065 207.166 229.852C207.377 229.64 207.628 229.471 207.905 229.356C208.181 229.241 208.478 229.182 208.777 229.182H215.592C216.194 229.182 216.771 229.421 217.197 229.847C217.623 230.273 217.862 230.85 217.862 231.452V235.129C217.858 235.728 217.617 236.301 217.192 236.724C216.767 237.146 216.191 237.383 215.592 237.383ZM208.777 229.599C208.28 229.599 207.803 229.796 207.452 230.147C207.101 230.498 206.903 230.975 206.903 231.472V235.129C206.903 235.625 207.101 236.102 207.452 236.453C207.803 236.804 208.28 237.002 208.777 237.002H215.592C216.089 237.002 216.565 236.804 216.917 236.453C217.268 236.102 217.465 235.625 217.465 235.129V231.482C217.465 230.985 217.268 230.508 216.917 230.157C216.565 229.806 216.089 229.608 215.592 229.608L208.777 229.599Z" fill="white"/>
    <path d="M232.503 237.383H225.688C225.086 237.383 224.509 237.144 224.083 236.718C223.657 236.293 223.418 235.716 223.418 235.114V231.467C223.418 230.865 223.657 230.287 224.083 229.862C224.509 229.436 225.086 229.197 225.688 229.197H232.503C232.801 229.197 233.096 229.256 233.372 229.37C233.647 229.484 233.897 229.651 234.108 229.862C234.319 230.073 234.486 230.323 234.6 230.598C234.714 230.873 234.773 231.169 234.773 231.467V235.129C234.769 235.728 234.528 236.301 234.103 236.724C233.678 237.146 233.103 237.383 232.503 237.383ZM225.688 229.598C225.191 229.598 224.715 229.796 224.363 230.147C224.012 230.498 223.814 230.975 223.814 231.472V235.129C223.814 235.625 224.012 236.102 224.363 236.453C224.715 236.804 225.191 237.002 225.688 237.002H232.503C233 237.002 233.476 236.804 233.828 236.453C234.179 236.102 234.377 235.625 234.377 235.129V231.481C234.377 230.985 234.179 230.508 233.828 230.157C233.476 229.806 233 229.608 232.503 229.608L225.688 229.598Z" fill="white"/>
    <path d="M249.409 237.383H242.594C241.992 237.383 241.415 237.144 240.989 236.718C240.563 236.293 240.324 235.716 240.324 235.114V231.467C240.324 230.865 240.563 230.287 240.989 229.862C241.415 229.436 241.992 229.197 242.594 229.197H249.409C250.011 229.197 250.589 229.436 251.014 229.862C251.44 230.287 251.679 230.865 251.679 231.467V235.129C251.675 235.728 251.434 236.301 251.009 236.724C250.584 237.146 250.009 237.383 249.409 237.383ZM242.594 229.598C242.097 229.598 241.621 229.796 241.269 230.147C240.918 230.498 240.721 230.975 240.721 231.472V235.129C240.721 235.625 240.918 236.102 241.269 236.453C241.621 236.804 242.097 237.002 242.594 237.002H249.409C249.657 237.004 249.903 236.958 250.132 236.865C250.362 236.772 250.571 236.634 250.747 236.46C250.923 236.286 251.063 236.078 251.158 235.85C251.254 235.621 251.303 235.376 251.303 235.129V231.481C251.303 230.986 251.106 230.51 250.756 230.159C250.405 229.808 249.93 229.61 249.434 229.608L242.594 229.598Z" fill="white"/>
    <path d="M266.32 237.383H259.505C258.908 237.379 258.337 237.14 257.915 236.718C257.493 236.296 257.254 235.725 257.25 235.128V231.481C257.25 230.879 257.489 230.302 257.915 229.877C258.341 229.451 258.918 229.212 259.52 229.212H266.32C266.922 229.212 267.5 229.451 267.925 229.877C268.351 230.302 268.59 230.879 268.59 231.481V235.128C268.586 235.728 268.345 236.301 267.92 236.724C267.495 237.146 266.92 237.383 266.32 237.383ZM259.505 229.598C259.008 229.598 258.532 229.796 258.18 230.147C257.829 230.498 257.632 230.975 257.632 231.471V235.128C257.632 235.625 257.829 236.102 258.18 236.453C258.532 236.804 259.008 237.001 259.505 237.001H266.32C266.816 237 267.291 236.802 267.642 236.451C267.992 236.1 268.189 235.624 268.189 235.128V231.481C268.189 230.985 267.992 230.51 267.642 230.159C267.291 229.807 266.816 229.61 266.32 229.608L259.505 229.598Z" fill="white"/>
    <path d="M283.42 237.383H276.605C276.003 237.383 275.426 237.144 275 236.718C274.574 236.293 274.335 235.716 274.335 235.114V231.467C274.335 230.865 274.574 230.287 275 229.862C275.426 229.436 276.003 229.197 276.605 229.197H283.42C284.022 229.197 284.599 229.436 285.025 229.862C285.451 230.287 285.69 230.865 285.69 231.467V235.129C285.686 235.728 285.445 236.301 285.02 236.724C284.595 237.146 284.019 237.383 283.42 237.383ZM276.605 229.598C276.108 229.598 275.632 229.796 275.28 230.147C274.929 230.498 274.731 230.975 274.731 231.472V235.129C274.731 235.625 274.929 236.102 275.28 236.453C275.632 236.804 276.108 237.002 276.605 237.002H283.42C283.917 237.002 284.393 236.804 284.745 236.453C285.096 236.102 285.294 235.625 285.294 235.129V231.481C285.294 230.985 285.096 230.508 284.745 230.157C284.393 229.806 283.917 229.608 283.42 229.608L276.605 229.598Z" fill="white"/>
    <path d="M181.769 248.052H174.974C174.372 248.052 173.795 247.813 173.369 247.387C172.943 246.961 172.704 246.384 172.704 245.782V242.135C172.704 241.533 172.943 240.956 173.369 240.53C173.795 240.105 174.372 239.866 174.974 239.866H181.789C182.391 239.866 182.969 240.105 183.394 240.53C183.82 240.956 184.059 241.533 184.059 242.135V245.782C184.059 246.082 184 246.379 183.884 246.655C183.769 246.932 183.6 247.183 183.387 247.394C183.174 247.605 182.922 247.772 182.644 247.885C182.366 247.998 182.069 248.054 181.769 248.052ZM174.974 240.267C174.478 240.267 174.002 240.464 173.651 240.814C173.3 241.164 173.102 241.639 173.101 242.135V245.782C173.101 246.279 173.298 246.755 173.649 247.107C174.001 247.458 174.477 247.655 174.974 247.655H181.789C182.285 247.654 182.76 247.456 183.111 247.105C183.461 246.754 183.658 246.278 183.658 245.782V242.135C183.656 241.64 183.459 241.166 183.109 240.816C182.759 240.466 182.284 240.268 181.789 240.267H174.974Z" fill="white"/>
    <path d="M198.681 248.052H191.866C191.264 248.052 190.686 247.813 190.261 247.387C189.835 246.961 189.596 246.384 189.596 245.782V242.135C189.596 241.533 189.835 240.956 190.261 240.53C190.686 240.105 191.264 239.866 191.866 239.866H198.681C199.283 239.866 199.86 240.105 200.286 240.53C200.712 240.956 200.951 241.533 200.951 242.135V245.782C200.951 246.384 200.712 246.961 200.286 247.387C199.86 247.813 199.283 248.052 198.681 248.052ZM191.866 240.267C191.37 240.267 190.894 240.464 190.543 240.814C190.191 241.164 189.994 241.639 189.992 242.135V245.782C189.992 246.279 190.19 246.755 190.541 247.107C190.892 247.458 191.369 247.655 191.866 247.655H198.681C199.178 247.655 199.654 247.458 200.006 247.107C200.357 246.755 200.554 246.279 200.554 245.782V242.135C200.553 241.639 200.355 241.164 200.004 240.814C199.653 240.464 199.177 240.267 198.681 240.267H191.866Z" fill="white"/>
    <path d="M215.592 248.052H208.777C208.175 248.052 207.597 247.813 207.172 247.387C206.746 246.961 206.507 246.384 206.507 245.782V242.135C206.507 241.533 206.746 240.956 207.172 240.53C207.597 240.105 208.175 239.866 208.777 239.866H215.592C216.194 239.866 216.771 240.105 217.197 240.53C217.623 240.956 217.862 241.533 217.862 242.135V245.782C217.862 246.384 217.623 246.961 217.197 247.387C216.771 247.813 216.194 248.052 215.592 248.052ZM208.777 240.267C208.281 240.267 207.805 240.464 207.454 240.814C207.103 241.164 206.905 241.639 206.903 242.135V245.782C206.903 246.279 207.101 246.755 207.452 247.107C207.803 247.458 208.28 247.655 208.777 247.655H215.592C216.089 247.655 216.565 247.458 216.917 247.107C217.268 246.755 217.465 246.279 217.465 245.782V242.135C217.464 241.639 217.266 241.164 216.915 240.814C216.564 240.464 216.088 240.267 215.592 240.267H208.777Z" fill="white"/>
    <path d="M232.503 248.052H225.688C225.086 248.052 224.509 247.813 224.083 247.387C223.657 246.961 223.418 246.384 223.418 245.782V242.135C223.418 241.533 223.657 240.956 224.083 240.53C224.509 240.105 225.086 239.866 225.688 239.866H232.503C232.801 239.866 233.096 239.924 233.372 240.038C233.647 240.153 233.897 240.32 234.108 240.53C234.319 240.741 234.486 240.991 234.6 241.267C234.714 241.542 234.773 241.837 234.773 242.135V245.782C234.773 246.384 234.534 246.961 234.108 247.387C233.682 247.813 233.105 248.052 232.503 248.052ZM225.688 240.267C225.192 240.267 224.716 240.464 224.365 240.814C224.014 241.164 223.816 241.639 223.814 242.135V245.782C223.814 246.279 224.012 246.755 224.363 247.107C224.715 247.458 225.191 247.655 225.688 247.655H232.503C233 247.655 233.476 247.458 233.828 247.107C234.179 246.755 234.377 246.279 234.377 245.782V242.135C234.375 241.639 234.177 241.164 233.826 240.814C233.475 240.464 232.999 240.267 232.503 240.267H225.688Z" fill="white"/>
    <path d="M249.409 248.052H242.594C241.992 248.052 241.415 247.813 240.989 247.387C240.563 246.961 240.324 246.384 240.324 245.782V242.135C240.324 241.533 240.563 240.956 240.989 240.53C241.415 240.105 241.992 239.866 242.594 239.866H249.409C250.011 239.866 250.589 240.105 251.014 240.53C251.44 240.956 251.679 241.533 251.679 242.135V245.782C251.679 246.384 251.44 246.961 251.014 247.387C250.589 247.813 250.011 248.052 249.409 248.052ZM242.594 240.267C242.098 240.267 241.622 240.464 241.271 240.814C240.92 241.164 240.722 241.639 240.721 242.135V245.782C240.721 246.279 240.918 246.755 241.269 247.107C241.621 247.458 242.097 247.655 242.594 247.655H249.409C249.657 247.658 249.903 247.611 250.132 247.518C250.362 247.426 250.571 247.288 250.747 247.114C250.923 246.94 251.063 246.732 251.158 246.504C251.254 246.275 251.303 246.03 251.303 245.782V242.135C251.301 241.64 251.104 241.166 250.754 240.816C250.404 240.466 249.929 240.268 249.434 240.267H242.594Z" fill="white"/>
    <path d="M266.32 248.052H259.505C258.906 248.048 258.332 247.807 257.91 247.382C257.487 246.957 257.25 246.382 257.25 245.782V242.135C257.25 241.533 257.489 240.956 257.915 240.53C258.341 240.105 258.918 239.866 259.52 239.866H266.32C266.922 239.866 267.5 240.105 267.925 240.53C268.351 240.956 268.59 241.533 268.59 242.135V245.782C268.59 246.384 268.351 246.961 267.925 247.387C267.5 247.813 266.922 248.052 266.32 248.052ZM259.505 240.267C259.009 240.267 258.533 240.464 258.182 240.814C257.831 241.164 257.633 241.639 257.632 242.135V245.782C257.632 246.279 257.829 246.755 258.18 247.107C258.532 247.458 259.008 247.655 259.505 247.655H266.32C266.816 247.654 267.291 247.456 267.642 247.105C267.992 246.754 268.189 246.278 268.189 245.782V242.135C268.187 241.64 267.99 241.166 267.64 240.816C267.29 240.466 266.815 240.268 266.32 240.267H259.505Z" fill="white"/>
    <path d="M283.42 248.052H276.605C276.003 248.052 275.426 247.813 275 247.387C274.574 246.961 274.335 246.384 274.335 245.782V242.135C274.335 241.533 274.574 240.956 275 240.53C275.426 240.105 276.003 239.866 276.605 239.866H283.42C284.022 239.866 284.599 240.105 285.025 240.53C285.451 240.956 285.69 241.533 285.69 242.135V245.782C285.69 246.384 285.451 246.961 285.025 247.387C284.599 247.813 284.022 248.052 283.42 248.052ZM276.605 240.267C276.109 240.267 275.633 240.464 275.282 240.814C274.931 241.164 274.733 241.639 274.731 242.135V245.782C274.731 246.279 274.929 246.755 275.28 247.107C275.632 247.458 276.108 247.655 276.605 247.655H283.42C283.917 247.655 284.393 247.458 284.745 247.107C285.096 246.755 285.294 246.279 285.294 245.782V242.135C285.292 241.639 285.094 241.164 284.743 240.814C284.392 240.464 283.916 240.267 283.42 240.267H276.605Z" fill="white"/>
    <path d="M181.769 258.72H174.974C174.372 258.72 173.795 258.481 173.369 258.055C172.943 257.63 172.704 257.053 172.704 256.451V252.804C172.705 252.203 172.945 251.627 173.371 251.202C173.796 250.778 174.373 250.539 174.974 250.539H181.789C182.391 250.539 182.969 250.778 183.394 251.204C183.82 251.629 184.059 252.207 184.059 252.809V256.436C184.061 256.737 184.003 257.035 183.889 257.313C183.774 257.592 183.606 257.845 183.393 258.057C183.179 258.27 182.926 258.438 182.648 258.552C182.369 258.666 182.07 258.723 181.769 258.72ZM174.974 250.936C174.477 250.936 174.001 251.133 173.649 251.484C173.298 251.835 173.101 252.312 173.101 252.809V256.436C173.101 256.933 173.298 257.409 173.649 257.76C174.001 258.112 174.477 258.309 174.974 258.309H181.789C182.285 258.308 182.76 258.11 183.111 257.759C183.461 257.407 183.658 256.932 183.658 256.436V252.789C183.658 252.293 183.461 251.817 183.111 251.466C182.76 251.115 182.285 250.917 181.789 250.916L174.974 250.936Z" fill="white"/>
    <path d="M198.681 258.72H191.866C191.264 258.72 190.686 258.481 190.261 258.055C189.835 257.63 189.596 257.053 189.596 256.451V252.804C189.596 252.202 189.835 251.624 190.261 251.199C190.686 250.773 191.264 250.534 191.866 250.534H198.681C199.283 250.534 199.86 250.773 200.286 251.199C200.712 251.624 200.951 252.202 200.951 252.804V256.436C200.953 256.735 200.895 257.032 200.782 257.309C200.669 257.586 200.502 257.838 200.291 258.05C200.08 258.262 199.829 258.431 199.553 258.546C199.277 258.661 198.98 258.72 198.681 258.72ZM191.866 250.936C191.369 250.936 190.892 251.133 190.541 251.484C190.19 251.835 189.992 252.312 189.992 252.809V256.436C189.992 256.933 190.19 257.409 190.541 257.76C190.892 258.111 191.369 258.309 191.866 258.309H198.681C199.178 258.309 199.654 258.111 200.006 257.76C200.357 257.409 200.554 256.933 200.554 256.436V252.789C200.554 252.292 200.357 251.816 200.006 251.464C199.654 251.113 199.178 250.916 198.681 250.916L191.866 250.936Z" fill="white"/>
    <path d="M215.592 258.72H208.777C208.175 258.72 207.597 258.481 207.172 258.055C206.746 257.63 206.507 257.053 206.507 256.451V252.804C206.507 252.202 206.746 251.624 207.172 251.199C207.597 250.773 208.175 250.534 208.777 250.534H215.592C216.194 250.534 216.771 250.773 217.197 251.199C217.623 251.624 217.862 252.202 217.862 252.804V256.436C217.864 256.735 217.807 257.032 217.693 257.309C217.58 257.586 217.413 257.838 217.202 258.05C216.991 258.262 216.74 258.431 216.464 258.546C216.188 258.661 215.891 258.72 215.592 258.72ZM208.777 250.936C208.28 250.936 207.803 251.133 207.452 251.484C207.101 251.835 206.903 252.312 206.903 252.809V256.436C206.903 256.933 207.101 257.409 207.452 257.76C207.803 258.111 208.28 258.309 208.777 258.309H215.592C216.089 258.309 216.565 258.111 216.917 257.76C217.268 257.409 217.465 256.933 217.465 256.436V252.789C217.465 252.292 217.268 251.816 216.917 251.464C216.565 251.113 216.089 250.916 215.592 250.916L208.777 250.936Z" fill="white"/>
    <path d="M171.837 182.4C172.705 182.4 173.408 181.697 173.408 180.829C173.408 179.962 172.705 179.258 171.837 179.258C170.969 179.258 170.266 179.962 170.266 180.829C170.266 181.697 170.969 182.4 171.837 182.4Z" fill="#4D7DAF"/>
    <path d="M171.838 179.258C172.148 179.258 172.452 179.351 172.71 179.523C172.969 179.696 173.17 179.941 173.289 180.228C173.408 180.515 173.439 180.831 173.379 181.136C173.318 181.44 173.168 181.72 172.949 181.94C172.729 182.16 172.449 182.309 172.144 182.37C171.839 182.431 171.523 182.399 171.236 182.281C170.949 182.162 170.704 181.96 170.531 181.702C170.359 181.444 170.266 181.14 170.266 180.829C170.266 180.413 170.432 180.013 170.727 179.719C171.021 179.424 171.421 179.258 171.838 179.258ZM171.838 178.55C171.387 178.55 170.946 178.684 170.571 178.934C170.196 179.184 169.904 179.54 169.731 179.957C169.559 180.374 169.513 180.832 169.601 181.274C169.689 181.716 169.907 182.122 170.225 182.441C170.544 182.76 170.95 182.977 171.393 183.065C171.835 183.153 172.293 183.108 172.71 182.935C173.127 182.763 173.483 182.471 173.733 182.096C173.984 181.721 174.117 181.28 174.117 180.829C174.117 180.225 173.877 179.645 173.45 179.217C173.022 178.79 172.442 178.55 171.838 178.55Z" fill="url(#paint6_linear)"/>
    <path d="M188.223 182.4C189.09 182.4 189.794 181.697 189.794 180.829C189.794 179.962 189.09 179.258 188.223 179.258C187.355 179.258 186.651 179.962 186.651 180.829C186.651 181.697 187.355 182.4 188.223 182.4Z" fill="#4D7DAF"/>
    <path d="M188.223 179.258C188.534 179.258 188.838 179.351 189.096 179.523C189.355 179.696 189.556 179.941 189.675 180.228C189.794 180.515 189.825 180.831 189.764 181.136C189.704 181.44 189.554 181.72 189.334 181.94C189.115 182.16 188.835 182.309 188.53 182.37C188.225 182.431 187.909 182.399 187.622 182.281C187.335 182.162 187.09 181.96 186.917 181.702C186.744 181.444 186.652 181.14 186.652 180.829C186.652 180.413 186.818 180.013 187.112 179.719C187.407 179.424 187.807 179.258 188.223 179.258ZM188.223 178.55C187.772 178.55 187.332 178.684 186.957 178.934C186.582 179.184 186.289 179.54 186.117 179.957C185.944 180.374 185.899 180.832 185.987 181.274C186.075 181.716 186.292 182.122 186.611 182.441C186.93 182.76 187.336 182.977 187.778 183.065C188.221 183.153 188.679 183.108 189.096 182.935C189.512 182.763 189.868 182.471 190.119 182.096C190.369 181.721 190.503 181.28 190.503 180.829C190.503 180.225 190.263 179.645 189.835 179.217C189.408 178.79 188.828 178.55 188.223 178.55Z" fill="url(#paint7_linear)"/>
    <path d="M204.608 182.4C205.476 182.4 206.179 181.697 206.179 180.829C206.179 179.962 205.476 179.258 204.608 179.258C203.741 179.258 203.037 179.962 203.037 180.829C203.037 181.697 203.741 182.4 204.608 182.4Z" fill="#4D7DAF"/>
    <path d="M204.609 179.258C204.92 179.258 205.224 179.351 205.482 179.523C205.74 179.696 205.942 179.941 206.061 180.228C206.18 180.515 206.211 180.831 206.15 181.136C206.089 181.44 205.94 181.72 205.72 181.94C205.5 182.16 205.22 182.309 204.916 182.37C204.611 182.431 204.295 182.399 204.008 182.281C203.721 182.162 203.475 181.96 203.303 181.702C203.13 181.444 203.038 181.14 203.038 180.829C203.038 180.413 203.203 180.013 203.498 179.719C203.793 179.424 204.192 179.258 204.609 179.258ZM204.609 178.55C204.158 178.55 203.717 178.684 203.342 178.934C202.967 179.184 202.675 179.54 202.503 179.957C202.33 180.374 202.285 180.832 202.373 181.274C202.461 181.716 202.678 182.122 202.997 182.441C203.316 182.76 203.722 182.977 204.164 183.065C204.607 183.153 205.065 183.108 205.482 182.935C205.898 182.763 206.254 182.471 206.505 182.096C206.755 181.721 206.889 181.28 206.889 180.829C206.889 180.53 206.83 180.234 206.715 179.957C206.601 179.68 206.433 179.429 206.221 179.217C206.01 179.006 205.758 178.838 205.482 178.723C205.205 178.609 204.908 178.55 204.609 178.55Z" fill="url(#paint8_linear)"/>
    <path d="M220.994 182.4C221.862 182.4 222.565 181.697 222.565 180.829C222.565 179.962 221.862 179.258 220.994 179.258C220.126 179.258 219.423 179.962 219.423 180.829C219.423 181.697 220.126 182.4 220.994 182.4Z" fill="#4D7DAF"/>
    <path d="M220.995 179.258C221.306 179.258 221.609 179.351 221.868 179.523C222.126 179.696 222.327 179.941 222.446 180.228C222.565 180.515 222.596 180.831 222.536 181.136C222.475 181.44 222.326 181.72 222.106 181.94C221.886 182.16 221.606 182.309 221.301 182.37C220.997 182.431 220.681 182.399 220.394 182.281C220.106 182.162 219.861 181.96 219.688 181.702C219.516 181.444 219.424 181.14 219.424 180.829C219.424 180.413 219.589 180.013 219.884 179.719C220.178 179.424 220.578 179.258 220.995 179.258ZM220.995 178.55C220.544 178.55 220.103 178.684 219.728 178.934C219.353 179.184 219.061 179.54 218.888 179.957C218.716 180.374 218.671 180.832 218.759 181.274C218.847 181.716 219.064 182.122 219.383 182.441C219.701 182.76 220.108 182.977 220.55 183.065C220.992 183.153 221.451 183.108 221.867 182.935C222.284 182.763 222.64 182.471 222.89 182.096C223.141 181.721 223.275 181.28 223.275 180.829C223.275 180.225 223.035 179.645 222.607 179.217C222.179 178.79 221.599 178.55 220.995 178.55Z" fill="url(#paint9_linear)"/>
    <path d="M237.386 182.4C238.253 182.4 238.957 181.697 238.957 180.829C238.957 179.962 238.253 179.258 237.386 179.258C236.518 179.258 235.814 179.962 235.814 180.829C235.814 181.697 236.518 182.4 237.386 182.4Z" fill="#4D7DAF"/>
    <path d="M237.385 179.258C237.696 179.258 238 179.351 238.258 179.523C238.517 179.696 238.718 179.941 238.837 180.228C238.956 180.515 238.987 180.831 238.926 181.136C238.866 181.44 238.716 181.72 238.496 181.94C238.277 182.16 237.997 182.309 237.692 182.37C237.387 182.431 237.071 182.399 236.784 182.281C236.497 182.162 236.252 181.96 236.079 181.702C235.906 181.444 235.814 181.14 235.814 180.829C235.814 180.413 235.98 180.013 236.274 179.719C236.569 179.424 236.969 179.258 237.385 179.258ZM237.385 178.55C236.934 178.55 236.494 178.684 236.119 178.934C235.744 179.184 235.452 179.54 235.279 179.957C235.106 180.374 235.061 180.832 235.149 181.274C235.237 181.716 235.454 182.122 235.773 182.441C236.092 182.76 236.498 182.977 236.941 183.065C237.383 183.153 237.841 183.108 238.258 182.935C238.675 182.763 239.031 182.471 239.281 182.096C239.532 181.721 239.665 181.28 239.665 180.829C239.665 180.225 239.425 179.645 238.998 179.217C238.57 178.79 237.99 178.55 237.385 178.55Z" fill="url(#paint10_linear)"/>
    <path d="M253.771 182.4C254.639 182.4 255.343 181.697 255.343 180.829C255.343 179.962 254.639 179.258 253.771 179.258C252.904 179.258 252.2 179.962 252.2 180.829C252.2 181.697 252.904 182.4 253.771 182.4Z" fill="#4D7DAF"/>
    <path d="M253.781 179.258C254.092 179.258 254.395 179.351 254.654 179.523C254.912 179.696 255.114 179.941 255.233 180.228C255.351 180.515 255.383 180.831 255.322 181.136C255.261 181.44 255.112 181.72 254.892 181.94C254.672 182.16 254.392 182.309 254.087 182.37C253.783 182.431 253.467 182.399 253.18 182.281C252.893 182.162 252.647 181.96 252.475 181.702C252.302 181.444 252.21 181.14 252.21 180.829C252.21 180.413 252.375 180.013 252.67 179.719C252.965 179.424 253.364 179.258 253.781 179.258ZM253.781 178.55C253.33 178.55 252.889 178.684 252.514 178.934C252.139 179.184 251.847 179.54 251.675 179.957C251.502 180.374 251.457 180.832 251.545 181.274C251.633 181.716 251.85 182.122 252.169 182.441C252.488 182.76 252.894 182.977 253.336 183.065C253.778 183.153 254.237 183.108 254.653 182.935C255.07 182.763 255.426 182.471 255.677 182.096C255.927 181.721 256.061 181.28 256.061 180.829C256.061 180.225 255.821 179.645 255.393 179.217C254.966 178.79 254.386 178.55 253.781 178.55Z" fill="url(#paint11_linear)"/>
    <path d="M270.157 182.4C271.025 182.4 271.728 181.697 271.728 180.829C271.728 179.962 271.025 179.258 270.157 179.258C269.289 179.258 268.586 179.962 268.586 180.829C268.586 181.697 269.289 182.4 270.157 182.4Z" fill="#4D7DAF"/>
    <path d="M270.136 179.258C270.447 179.258 270.751 179.351 271.009 179.523C271.268 179.696 271.469 179.941 271.588 180.228C271.707 180.515 271.738 180.831 271.677 181.136C271.617 181.44 271.467 181.72 271.247 181.94C271.028 182.16 270.748 182.309 270.443 182.37C270.138 182.431 269.822 182.399 269.535 182.281C269.248 182.162 269.003 181.96 268.83 181.702C268.657 181.444 268.565 181.14 268.565 180.829C268.565 180.413 268.731 180.013 269.025 179.719C269.32 179.424 269.72 179.258 270.136 179.258ZM270.136 178.55C269.685 178.55 269.245 178.684 268.87 178.934C268.495 179.184 268.203 179.54 268.03 179.957C267.857 180.374 267.812 180.832 267.9 181.274C267.988 181.716 268.205 182.122 268.524 182.441C268.843 182.76 269.249 182.977 269.692 183.065C270.134 183.153 270.592 183.108 271.009 182.935C271.425 182.763 271.782 182.471 272.032 182.096C272.283 181.721 272.416 181.28 272.416 180.829C272.416 180.225 272.176 179.645 271.749 179.217C271.321 178.79 270.741 178.55 270.136 178.55Z" fill="url(#paint12_linear)"/>
    <path d="M286.543 182.4C287.411 182.4 288.114 181.697 288.114 180.829C288.114 179.962 287.411 179.258 286.543 179.258C285.675 179.258 284.972 179.962 284.972 180.829C284.972 181.697 285.675 182.4 286.543 182.4Z" fill="#4D7DAF"/>
    <path d="M286.543 179.258C286.853 179.258 287.157 179.351 287.416 179.523C287.674 179.696 287.875 179.941 287.994 180.228C288.113 180.515 288.144 180.831 288.084 181.136C288.023 181.44 287.873 181.72 287.654 181.94C287.434 182.16 287.154 182.309 286.849 182.37C286.544 182.431 286.228 182.399 285.941 182.281C285.654 182.162 285.409 181.96 285.236 181.702C285.064 181.444 284.971 181.14 284.971 180.829C284.971 180.413 285.137 180.013 285.432 179.719C285.726 179.424 286.126 179.258 286.543 179.258ZM286.543 178.55C286.092 178.55 285.651 178.684 285.276 178.934C284.901 179.184 284.609 179.54 284.436 179.957C284.264 180.374 284.219 180.832 284.307 181.274C284.394 181.716 284.612 182.122 284.93 182.441C285.249 182.76 285.656 182.977 286.098 183.065C286.54 183.153 286.999 183.108 287.415 182.935C287.832 182.763 288.188 182.471 288.438 182.096C288.689 181.721 288.823 181.28 288.823 180.829C288.823 180.225 288.582 179.645 288.155 179.217C287.727 178.79 287.147 178.55 286.543 178.55Z" fill="url(#paint13_linear)"/>
    <path d="M171.837 181.082C171.656 181.082 171.483 181.01 171.355 180.882C171.227 180.755 171.155 180.581 171.155 180.401C171.155 180.22 171.227 180.047 171.355 179.919C171.483 179.791 171.656 179.719 171.837 179.719C172.494 179.719 173.124 179.458 173.589 178.994C174.054 178.529 174.315 177.899 174.315 177.242V173.406C174.315 172.749 174.054 172.119 173.589 171.654C173.124 171.19 172.494 170.929 171.837 170.929C171.656 170.929 171.483 170.857 171.355 170.729C171.227 170.601 171.155 170.428 171.155 170.247C171.155 170.067 171.227 169.893 171.355 169.766C171.483 169.638 171.656 169.566 171.837 169.566C172.851 169.567 173.824 169.971 174.541 170.688C175.258 171.405 175.662 172.377 175.663 173.391V177.227C175.666 177.731 175.57 178.232 175.379 178.699C175.188 179.166 174.907 179.591 174.551 179.949C174.196 180.308 173.773 180.592 173.307 180.787C172.841 180.981 172.342 181.081 171.837 181.082Z" fill="#9399B8"/>
    <path d="M270.137 181.082C269.956 181.082 269.782 181.01 269.655 180.882C269.527 180.755 269.455 180.581 269.455 180.401C269.455 180.22 269.527 180.047 269.655 179.919C269.782 179.791 269.956 179.719 270.137 179.719C270.794 179.719 271.424 179.458 271.889 178.994C272.354 178.529 272.615 177.899 272.615 177.242V173.406C272.615 172.749 272.354 172.119 271.889 171.654C271.424 171.19 270.794 170.929 270.137 170.929C269.956 170.929 269.782 170.857 269.655 170.729C269.527 170.601 269.455 170.428 269.455 170.247C269.455 170.067 269.527 169.893 269.655 169.766C269.782 169.638 269.956 169.566 270.137 169.566C271.151 169.567 272.123 169.971 272.841 170.688C273.558 171.405 273.962 172.377 273.963 173.391V177.227C273.966 177.731 273.87 178.232 273.679 178.699C273.488 179.166 273.207 179.591 272.851 179.949C272.496 180.308 272.073 180.592 271.607 180.787C271.141 180.981 270.641 181.081 270.137 181.082Z" fill="#9399B8"/>
    <path d="M286.543 181.082C286.362 181.082 286.189 181.01 286.061 180.882C285.933 180.755 285.861 180.581 285.861 180.401C285.861 180.22 285.933 180.047 286.061 179.919C286.189 179.791 286.362 179.719 286.543 179.719C287.2 179.719 287.83 179.458 288.295 178.994C288.76 178.529 289.021 177.899 289.021 177.242V173.406C289.021 172.749 288.76 172.119 288.295 171.654C287.83 171.19 287.2 170.929 286.543 170.929C286.362 170.929 286.189 170.857 286.061 170.729C285.933 170.601 285.861 170.428 285.861 170.247C285.861 170.067 285.933 169.893 286.061 169.766C286.189 169.638 286.362 169.566 286.543 169.566C287.045 169.566 287.543 169.665 288.007 169.857C288.471 170.049 288.893 170.331 289.248 170.686C289.604 171.042 289.886 171.463 290.078 171.927C290.27 172.392 290.369 172.889 290.369 173.391V177.227C290.373 177.732 290.277 178.232 290.086 178.7C289.896 179.167 289.615 179.593 289.259 179.951C288.903 180.309 288.48 180.594 288.014 180.788C287.548 180.982 287.048 181.082 286.543 181.082Z" fill="#9399B8"/>
    <path d="M253.781 181.082C253.6 181.082 253.427 181.01 253.299 180.882C253.171 180.755 253.1 180.581 253.1 180.401C253.1 180.22 253.171 180.047 253.299 179.919C253.427 179.791 253.6 179.719 253.781 179.719C254.438 179.719 255.069 179.458 255.533 178.994C255.998 178.529 256.259 177.899 256.259 177.242V173.406C256.259 172.749 255.998 172.119 255.533 171.654C255.069 171.19 254.438 170.929 253.781 170.929C253.6 170.929 253.427 170.857 253.299 170.729C253.171 170.601 253.1 170.428 253.1 170.247C253.1 170.067 253.171 169.893 253.299 169.766C253.427 169.638 253.6 169.566 253.781 169.566C254.796 169.567 255.768 169.971 256.485 170.688C257.203 171.405 257.606 172.377 257.607 173.391V177.227C257.611 177.731 257.514 178.232 257.323 178.699C257.133 179.166 256.851 179.591 256.496 179.949C256.14 180.308 255.717 180.592 255.252 180.787C254.786 180.981 254.286 181.081 253.781 181.082Z" fill="#9399B8"/>
    <path d="M237.386 181.082C237.205 181.082 237.032 181.01 236.904 180.882C236.776 180.755 236.704 180.581 236.704 180.401C236.704 180.22 236.776 180.047 236.904 179.919C237.032 179.791 237.205 179.719 237.386 179.719C238.043 179.719 238.673 179.458 239.138 178.994C239.603 178.529 239.864 177.899 239.864 177.242V173.406C239.864 172.749 239.603 172.119 239.138 171.654C238.673 171.19 238.043 170.929 237.386 170.929C237.205 170.929 237.032 170.857 236.904 170.729C236.776 170.601 236.704 170.428 236.704 170.247C236.704 170.067 236.776 169.893 236.904 169.766C237.032 169.638 237.205 169.566 237.386 169.566C237.888 169.566 238.386 169.665 238.85 169.857C239.314 170.049 239.736 170.331 240.091 170.686C240.447 171.042 240.728 171.463 240.921 171.927C241.113 172.392 241.212 172.889 241.212 173.391V177.227C241.216 177.732 241.12 178.232 240.929 178.7C240.739 179.167 240.458 179.593 240.102 179.951C239.746 180.309 239.323 180.594 238.857 180.788C238.391 180.982 237.891 181.082 237.386 181.082Z" fill="#9399B8"/>
    <path d="M220.994 181.082C220.813 181.082 220.64 181.01 220.512 180.882C220.384 180.755 220.312 180.581 220.312 180.401C220.312 180.22 220.384 180.047 220.512 179.919C220.64 179.791 220.813 179.719 220.994 179.719C221.651 179.719 222.282 179.458 222.746 178.994C223.211 178.529 223.472 177.899 223.472 177.242V173.406C223.472 172.749 223.211 172.119 222.746 171.654C222.282 171.19 221.651 170.929 220.994 170.929C220.813 170.929 220.64 170.857 220.512 170.729C220.384 170.601 220.312 170.428 220.312 170.247C220.312 170.067 220.384 169.893 220.512 169.766C220.64 169.638 220.813 169.566 220.994 169.566C222.008 169.567 222.981 169.971 223.698 170.688C224.415 171.405 224.819 172.377 224.82 173.391V177.227C224.824 177.731 224.727 178.232 224.536 178.699C224.346 179.166 224.064 179.591 223.709 179.949C223.353 180.308 222.93 180.592 222.464 180.787C221.998 180.981 221.499 181.081 220.994 181.082Z" fill="#9399B8"/>
    <path d="M188.223 181.082C188.042 181.082 187.868 181.01 187.741 180.882C187.613 180.755 187.541 180.581 187.541 180.401C187.541 180.22 187.613 180.047 187.741 179.919C187.868 179.791 188.042 179.719 188.223 179.719C188.88 179.719 189.51 179.458 189.975 178.994C190.44 178.529 190.701 177.899 190.701 177.242V173.406C190.701 172.749 190.44 172.119 189.975 171.654C189.51 171.19 188.88 170.929 188.223 170.929C188.042 170.929 187.868 170.857 187.741 170.729C187.613 170.601 187.541 170.428 187.541 170.247C187.541 170.067 187.613 169.893 187.741 169.766C187.868 169.638 188.042 169.566 188.223 169.566C189.237 169.567 190.209 169.971 190.927 170.688C191.644 171.405 192.048 172.377 192.049 173.391V177.227C192.052 177.731 191.956 178.232 191.765 178.699C191.574 179.166 191.293 179.591 190.937 179.949C190.582 180.308 190.159 180.592 189.693 180.787C189.227 180.981 188.727 181.081 188.223 181.082Z" fill="#9399B8"/>
    <path d="M204.608 181.082C204.428 181.082 204.254 181.01 204.126 180.882C203.999 180.755 203.927 180.581 203.927 180.401C203.927 180.22 203.999 180.047 204.126 179.919C204.254 179.791 204.428 179.719 204.608 179.719C205.266 179.719 205.896 179.458 206.361 178.994C206.825 178.529 207.086 177.899 207.086 177.242V173.406C207.086 172.749 206.825 172.119 206.361 171.654C205.896 171.19 205.266 170.929 204.608 170.929C204.428 170.929 204.254 170.857 204.126 170.729C203.999 170.601 203.927 170.428 203.927 170.247C203.927 170.067 203.999 169.893 204.126 169.766C204.254 169.638 204.428 169.566 204.608 169.566C205.623 169.567 206.595 169.971 207.312 170.688C208.03 171.405 208.433 172.377 208.435 173.391V177.227C208.438 177.731 208.341 178.232 208.151 178.699C207.96 179.166 207.679 179.591 207.323 179.949C206.967 180.308 206.545 180.592 206.079 180.787C205.613 180.981 205.113 181.081 204.608 181.082Z" fill="#9399B8"/>
    <path d="M184.039 200.695V202.3C184.039 202.845 183.018 203.291 181.769 203.291H174.974C173.72 203.291 172.704 202.84 172.704 202.3V200.695C172.704 200.15 173.725 199.704 174.974 199.704H181.789C183.018 199.704 184.039 200.15 184.039 200.695Z" fill="#FDCDCA"/>
    <path d="M200.951 200.695V202.3C200.951 202.845 199.93 203.291 198.681 203.291H191.861C190.607 203.291 189.601 202.84 189.601 202.3V200.695C189.601 200.15 190.592 199.704 191.861 199.704H198.676C199.93 199.704 200.951 200.15 200.951 200.695Z" fill="#FDCDCA"/>
    <path d="M217.857 200.695V202.3C217.857 202.845 216.836 203.291 215.587 203.291H208.772C207.523 203.291 206.512 202.84 206.512 202.3V200.695C206.512 200.15 207.503 199.704 208.772 199.704H215.587C216.836 199.704 217.857 200.15 217.857 200.695Z" fill="#FDCDCA"/>
    <path d="M234.768 200.695V202.3C234.768 202.845 233.747 203.291 232.498 203.291H225.693C224.444 203.291 223.423 202.84 223.423 202.3V200.695C223.423 200.15 224.444 199.704 225.693 199.704H232.493C233.747 199.704 234.768 200.15 234.768 200.695Z" fill="#FDCDCA"/>
    <path d="M251.674 200.695V202.3C251.674 202.845 250.683 203.291 249.414 203.291H242.599C241.345 203.291 240.329 202.84 240.329 202.3V200.695C240.329 200.15 241.35 199.704 242.599 199.704H249.414C250.668 199.704 251.674 200.15 251.674 200.695Z" fill="#FDCDCA"/>
    <path d="M268.595 200.695V202.3C268.595 202.845 267.574 203.291 266.325 203.291H259.51C258.256 203.291 257.24 202.84 257.24 202.3V200.695C257.24 200.15 258.261 199.704 259.51 199.704H266.325C267.574 199.704 268.595 200.15 268.595 200.695Z" fill="#FDCDCA"/>
    <path d="M285.695 200.695V202.3C285.695 202.845 284.674 203.291 283.425 203.291H276.61C275.356 203.291 274.34 202.84 274.34 202.3V200.695C274.34 200.15 275.361 199.704 276.61 199.704H283.425C284.674 199.704 285.695 200.15 285.695 200.695Z" fill="#FDCDCA"/>
    <g style="mix-blend-mode:multiply">
        <path d="M199.672 228.885L189.288 226.209L191.712 217.057L201.243 217.706L200.252 228.464C200.243 228.53 200.22 228.594 200.186 228.651C200.152 228.709 200.106 228.759 200.052 228.798C199.998 228.838 199.936 228.866 199.871 228.881C199.805 228.895 199.738 228.897 199.672 228.885Z" fill="#CCCCCC"/>
    </g>
    <path d="M191.038 215.988L189.303 226.223L199.54 227.958L201.276 217.723L191.038 215.988Z" fill="#FCE1C0"/>
    <path d="M193.859 225.372L193.809 225.297L191.96 221.893C191.915 221.83 191.883 221.758 191.867 221.682C191.852 221.606 191.853 221.528 191.871 221.452C191.888 221.376 191.922 221.305 191.969 221.244C192.017 221.182 192.077 221.132 192.146 221.096C192.215 221.06 192.291 221.039 192.368 221.035C192.446 221.031 192.524 221.044 192.596 221.072C192.668 221.101 192.733 221.145 192.787 221.201C192.841 221.257 192.882 221.324 192.907 221.398L194.756 224.802C194.816 224.92 194.83 225.057 194.796 225.185C194.762 225.313 194.682 225.424 194.571 225.497C194.46 225.57 194.326 225.6 194.195 225.58C194.063 225.561 193.944 225.493 193.859 225.391V225.372Z" fill="#F59E35"/>
    <path d="M199.399 219.946C199.399 219.97 197.233 222.423 197.213 222.423L194.695 225.362C194.651 225.42 194.594 225.468 194.53 225.504C194.466 225.539 194.395 225.562 194.322 225.569C194.249 225.577 194.176 225.569 194.106 225.547C194.036 225.525 193.971 225.489 193.915 225.441C193.86 225.393 193.814 225.335 193.782 225.269C193.75 225.203 193.732 225.131 193.728 225.058C193.725 224.984 193.736 224.911 193.762 224.843C193.787 224.774 193.827 224.711 193.878 224.658L198.532 219.292C198.62 219.19 198.743 219.126 198.877 219.111C199.011 219.096 199.145 219.131 199.254 219.209C199.363 219.288 199.439 219.405 199.467 219.536C199.495 219.668 199.472 219.805 199.404 219.921L199.399 219.946Z" fill="#F59E35"/>
    <g style="mix-blend-mode:multiply">
        <path d="M233.489 239.742L223.105 237.066L225.529 227.914L235.075 228.563L234.084 239.321C234.075 239.388 234.052 239.454 234.017 239.512C233.982 239.571 233.935 239.622 233.879 239.661C233.823 239.701 233.759 239.729 233.692 239.742C233.625 239.756 233.556 239.756 233.489 239.742Z" fill="#CCCCCC"/>
    </g>
    <path d="M224.858 226.845L223.123 237.08L233.361 238.815L235.096 228.58L224.858 226.845Z" fill="#FCE1C0"/>
    <path d="M227.68 236.224L227.63 236.149L225.782 232.745C225.736 232.682 225.704 232.61 225.689 232.534C225.673 232.458 225.674 232.38 225.692 232.304C225.709 232.228 225.743 232.157 225.791 232.096C225.838 232.034 225.899 231.984 225.967 231.948C226.036 231.912 226.112 231.891 226.19 231.887C226.267 231.883 226.345 231.896 226.417 231.924C226.489 231.953 226.555 231.997 226.608 232.053C226.662 232.109 226.703 232.176 226.728 232.25L228.577 235.654C228.637 235.772 228.651 235.908 228.617 236.037C228.583 236.165 228.503 236.276 228.392 236.349C228.281 236.422 228.147 236.452 228.016 236.432C227.885 236.413 227.765 236.345 227.68 236.243V236.224Z" fill="#F59E35"/>
    <path d="M233.222 230.802C233.222 230.827 231.056 233.28 231.036 233.28L228.503 236.243C228.458 236.301 228.402 236.35 228.338 236.385C228.274 236.421 228.203 236.443 228.13 236.451C228.057 236.458 227.983 236.451 227.913 236.429C227.843 236.407 227.779 236.371 227.723 236.323C227.667 236.275 227.622 236.216 227.59 236.15C227.558 236.084 227.539 236.013 227.536 235.939C227.532 235.866 227.544 235.793 227.569 235.724C227.595 235.655 227.635 235.593 227.685 235.54L232.349 230.173C232.438 230.072 232.561 230.007 232.695 229.992C232.828 229.977 232.963 230.012 233.072 230.091C233.181 230.17 233.257 230.286 233.284 230.418C233.312 230.549 233.29 230.687 233.222 230.802Z" fill="#F59E35"/>
    <g style="mix-blend-mode:multiply">
        <path d="M250.4 219.113L240.017 216.437L242.44 207.285L251.986 207.934L250.995 218.692C250.986 218.76 250.963 218.825 250.928 218.884C250.893 218.943 250.846 218.993 250.79 219.033C250.734 219.072 250.671 219.1 250.603 219.114C250.536 219.128 250.467 219.127 250.4 219.113Z" fill="#CCCCCC"/>
    </g>
    <path d="M241.766 206.218L240.031 216.454L250.269 218.188L252.004 207.953L241.766 206.218Z" fill="#FCE1C0"/>
    <path d="M249.28 210.352C249.28 210.377 247.114 212.83 247.094 212.83L244.571 215.803C244.527 215.861 244.47 215.91 244.406 215.945C244.342 215.981 244.271 216.003 244.198 216.01C244.125 216.018 244.052 216.01 243.982 215.988C243.912 215.966 243.847 215.93 243.791 215.883C243.736 215.835 243.69 215.776 243.658 215.71C243.626 215.644 243.608 215.572 243.604 215.499C243.601 215.426 243.612 215.353 243.638 215.284C243.663 215.215 243.703 215.152 243.754 215.1L248.408 209.733C248.496 209.632 248.619 209.567 248.753 209.552C248.887 209.537 249.021 209.572 249.13 209.651C249.239 209.73 249.315 209.846 249.343 209.978C249.371 210.109 249.348 210.246 249.28 210.362V210.352Z" fill="#F59E35"/>
    <path d="M248.591 215.803C248.591 215.803 246.346 213.37 246.346 213.326L243.684 210.516C243.633 210.465 243.592 210.404 243.564 210.337C243.536 210.27 243.522 210.199 243.522 210.126C243.523 210.053 243.538 209.982 243.567 209.915C243.596 209.849 243.638 209.789 243.691 209.739C243.743 209.689 243.806 209.65 243.873 209.624C243.941 209.599 244.014 209.588 244.086 209.591C244.159 209.594 244.23 209.612 244.295 209.643C244.361 209.674 244.419 209.718 244.468 209.773L249.32 214.981C249.409 215.079 249.459 215.208 249.46 215.341C249.461 215.474 249.412 215.603 249.324 215.702C249.235 215.802 249.113 215.865 248.98 215.88C248.848 215.895 248.715 215.861 248.606 215.783L248.591 215.803Z" fill="#F59E35"/>
    <rect x="40.4785" y="45.9809" width="114.034" height="5.2631" rx="2.63155" transform="rotate(-3.4834 40.4785 45.9809)" fill="#FEF0E0"/>
    <rect x="40.4941" y="161.163" width="43.7805" height="5.2631" rx="2.63155" transform="rotate(-3.52824 40.4941 161.163)" fill="#FEF0E0"/>
    <rect x="93.1377" y="157.943" width="43.7805" height="5.2631" rx="2.63155" transform="rotate(-3.01286 93.1377 157.943)" fill="#FEF0E0"/>
    <rect x="41.3633" y="172.566" width="43.7805" height="5.2631" rx="2.63155" transform="rotate(-3.52824 41.3633 172.566)" fill="#FEF0E0"/>
    <rect x="94.0068" y="169.346" width="43.7805" height="5.2631" rx="2.63155" transform="rotate(-3.01286 94.0068 169.346)" fill="#FEF0E0"/>
    <rect x="177.774" y="41.2724" width="52.485" height="5.2631" rx="2.63155" transform="rotate(8.07292 177.774 41.2724)" fill="#FF8888"/>
    <rect x="250.872" y="51.7986" width="52.485" height="5.2631" rx="2.63155" transform="rotate(8.07292 250.872 51.7986)" fill="#FF8888"/>
    <rect x="175.435" y="53.5529" width="52.485" height="5.2631" rx="2.63155" transform="rotate(8.07292 175.435 53.5529)" fill="#FF8888"/>
    <rect x="249.409" y="64.0791" width="52.485" height="5.2631" rx="2.63155" transform="rotate(8.07292 249.409 64.0791)" fill="#FF8888"/>
    <defs>
        <linearGradient id="paint0_linear" x1="10575.5" y1="27201.3" x2="14115.9" y2="27702.1" gradientUnits="userSpaceOnUse">
            <stop stop-color="#D1E2F7"/>
            <stop offset="0.5" stop-color="#B3D2F3"/>
            <stop offset="0.56" stop-color="#AFD0F2"/>
            <stop offset="1" stop-color="#98C5EF"/>
        </linearGradient>
        <linearGradient id="paint1_linear" x1="5789.24" y1="12960" x2="6511.02" y2="13062.1" gradientUnits="userSpaceOnUse">
            <stop stop-color="#85DBA8"/>
            <stop offset="0.28" stop-color="#3AD08E"/>
            <stop offset="0.5" stop-color="#02C87A"/>
            <stop offset="0.59" stop-color="#02C674"/>
            <stop offset="1" stop-color="#02BB5D"/>
        </linearGradient>
        <linearGradient id="paint2_linear" x1="7154.6" y1="11347" x2="8082.35" y2="11478.2" gradientUnits="userSpaceOnUse">
            <stop stop-color="#FA9B7E"/>
            <stop offset="0.5" stop-color="#E16853"/>
            <stop offset="0.79" stop-color="#E2423F"/>
            <stop offset="1" stop-color="#E22A33"/>
        </linearGradient>
        <linearGradient id="paint3_linear" x1="3691.34" y1="5809.66" x2="3864.71" y2="5834.09" gradientUnits="userSpaceOnUse">
            <stop stop-color="#D1E2F7"/>
            <stop offset="0.5" stop-color="#B3D2F3"/>
            <stop offset="0.56" stop-color="#AFD0F2"/>
            <stop offset="1" stop-color="#98C5EF"/>
        </linearGradient>
        <linearGradient id="paint4_linear" x1="3650.47" y1="6085.55" x2="3823.84" y2="6109.99" gradientUnits="userSpaceOnUse">
            <stop stop-color="#85DBA8"/>
            <stop offset="0.28" stop-color="#3AD08E"/>
            <stop offset="0.5" stop-color="#02C87A"/>
            <stop offset="0.59" stop-color="#02C674"/>
            <stop offset="1" stop-color="#02BB5D"/>
        </linearGradient>
        <linearGradient id="paint5_linear" x1="3609.59" y1="6361.44" x2="3782.96" y2="6385.88" gradientUnits="userSpaceOnUse">
            <stop stop-color="#FA9B7E"/>
            <stop offset="0.5" stop-color="#E16853"/>
            <stop offset="0.79" stop-color="#E2423F"/>
            <stop offset="1" stop-color="#E22A33"/>
        </linearGradient>
        <linearGradient id="paint6_linear" x1="7219.88" y1="5320.21" x2="7334.56" y2="5320.21" gradientUnits="userSpaceOnUse">
            <stop stop-color="#F2B3A5"/>
            <stop offset="0.32" stop-color="#F2B5A8"/>
            <stop offset="0.51" stop-color="#F4BCB0"/>
            <stop offset="0.67" stop-color="#F6C8BE"/>
            <stop offset="0.8" stop-color="#F9D9D2"/>
            <stop offset="0.93" stop-color="#FCEFEC"/>
            <stop offset="1" stop-color="white"/>
        </linearGradient>
        <linearGradient id="paint7_linear" x1="7236.24" y1="5320.21" x2="7350.92" y2="5320.21" gradientUnits="userSpaceOnUse">
            <stop stop-color="#F2B3A5"/>
            <stop offset="0.32" stop-color="#F2B5A8"/>
            <stop offset="0.51" stop-color="#F4BCB0"/>
            <stop offset="0.67" stop-color="#F6C8BE"/>
            <stop offset="0.8" stop-color="#F9D9D2"/>
            <stop offset="0.93" stop-color="#FCEFEC"/>
            <stop offset="1" stop-color="white"/>
        </linearGradient>
        <linearGradient id="paint8_linear" x1="7252.71" y1="5320.21" x2="7367.39" y2="5320.21" gradientUnits="userSpaceOnUse">
            <stop stop-color="#F2B3A5"/>
            <stop offset="0.32" stop-color="#F2B5A8"/>
            <stop offset="0.51" stop-color="#F4BCB0"/>
            <stop offset="0.67" stop-color="#F6C8BE"/>
            <stop offset="0.8" stop-color="#F9D9D2"/>
            <stop offset="0.93" stop-color="#FCEFEC"/>
            <stop offset="1" stop-color="white"/>
        </linearGradient>
        <linearGradient id="paint9_linear" x1="7269.08" y1="5320.21" x2="7383.76" y2="5320.21" gradientUnits="userSpaceOnUse">
            <stop stop-color="#F2B3A5"/>
            <stop offset="0.32" stop-color="#F2B5A8"/>
            <stop offset="0.51" stop-color="#F4BCB0"/>
            <stop offset="0.67" stop-color="#F6C8BE"/>
            <stop offset="0.8" stop-color="#F9D9D2"/>
            <stop offset="0.93" stop-color="#FCEFEC"/>
            <stop offset="1" stop-color="white"/>
        </linearGradient>
        <linearGradient id="paint10_linear" x1="7285.51" y1="5320.21" x2="7400.19" y2="5320.21" gradientUnits="userSpaceOnUse">
            <stop stop-color="#F2B3A5"/>
            <stop offset="0.32" stop-color="#F2B5A8"/>
            <stop offset="0.51" stop-color="#F4BCB0"/>
            <stop offset="0.67" stop-color="#F6C8BE"/>
            <stop offset="0.8" stop-color="#F9D9D2"/>
            <stop offset="0.93" stop-color="#FCEFEC"/>
            <stop offset="1" stop-color="white"/>
        </linearGradient>
        <linearGradient id="paint11_linear" x1="7301.86" y1="5320.21" x2="7416.55" y2="5320.21" gradientUnits="userSpaceOnUse">
            <stop stop-color="#F2B3A5"/>
            <stop offset="0.32" stop-color="#F2B5A8"/>
            <stop offset="0.51" stop-color="#F4BCB0"/>
            <stop offset="0.67" stop-color="#F6C8BE"/>
            <stop offset="0.8" stop-color="#F9D9D2"/>
            <stop offset="0.93" stop-color="#FCEFEC"/>
            <stop offset="1" stop-color="white"/>
        </linearGradient>
        <linearGradient id="paint12_linear" x1="7318.22" y1="5320.21" x2="7432.9" y2="5320.21" gradientUnits="userSpaceOnUse">
            <stop stop-color="#F2B3A5"/>
            <stop offset="0.32" stop-color="#F2B5A8"/>
            <stop offset="0.51" stop-color="#F4BCB0"/>
            <stop offset="0.67" stop-color="#F6C8BE"/>
            <stop offset="0.8" stop-color="#F9D9D2"/>
            <stop offset="0.93" stop-color="#FCEFEC"/>
            <stop offset="1" stop-color="white"/>
        </linearGradient>
        <linearGradient id="paint13_linear" x1="7334.67" y1="5320.21" x2="7449.35" y2="5320.21" gradientUnits="userSpaceOnUse">
            <stop stop-color="#F2B3A5"/>
            <stop offset="0.32" stop-color="#F2B5A8"/>
            <stop offset="0.51" stop-color="#F4BCB0"/>
            <stop offset="0.67" stop-color="#F6C8BE"/>
            <stop offset="0.8" stop-color="#F9D9D2"/>
            <stop offset="0.93" stop-color="#FCEFEC"/>
            <stop offset="1" stop-color="white"/>
        </linearGradient>
    </defs>
</svg>
