<svg width="625" height="440" viewBox="0 0 625 440" fill="none" xmlns="http://www.w3.org/2000/svg">
    <path fill-rule="evenodd" clip-rule="evenodd" d="M558.693 31.0222C605.656 54.8499 615.051 99.149 643.134 134.953C670.263 169.541 702.812 199.685 720.253 237.002C749.313 299.179 839.561 378.907 777.901 423.304C714.958 468.625 602.44 407.412 510.428 406.55C445.206 405.939 317.661 425.785 252.606 419.081C171.645 410.737 83.7902 393.31 31.9765 346.464C-22.2129 297.47 -2.33376 208.336 52.7825 134.019C125.379 36.1337 183.054 74.1485 248.476 40.8874C295.987 16.7321 325.166 11.757 383.098 3.0175C441.791 -5.8367 507.757 5.17826 558.693 31.0222Z" fill="#FEF0E0"/>
    <path d="M425.006 338.316V355.46C424.979 359 426.338 362.412 428.793 364.969C431.248 367.527 434.606 369.031 438.155 369.16L542 372L512.305 362.223L453.115 345.789L453.596 318.488L425 317L425.006 338.316Z" fill="#EDB495"/>
    <path d="M306 272L306.118 185L316.998 191.701C316.998 191.701 318.246 246.033 325 256.696L306 272Z" fill="#E8443C"/>
    <path d="M580 295.445C580 265.375 557.587 241 529.941 241H473.059C445.413 241 423 265.375 423 295.445V327.218L453.467 325.878L452.912 375.956L551.861 376L550.688 321.305L579.188 315.353L580 295.445Z" fill="#273271"/>
    <mask id="mask0" mask-type="alpha" maskUnits="userSpaceOnUse" x="423" y="241" width="157" height="135">
        <path d="M579.871 295.543C579.871 265.638 557.509 241.396 529.927 241.396H473.175C445.593 241.396 423.23 265.638 423.23 295.543V327.143L453.628 325.81L453.074 375.615L551.797 375.659L550.626 321.262L579.061 315.343L579.871 295.543Z" fill="#273271"/>
    </mask>
    <g mask="url(#mask0)">
        <g opacity="0.7">
            <path opacity="0.7" d="M585.466 279.651H416.216V281.526H585.466V279.651Z" fill="white"/>
        </g>
        <g opacity="0.7">
            <path opacity="0.7" d="M585.466 289.927H416.216V291.802H585.466V289.927Z" fill="white"/>
        </g>
        <g opacity="0.7">
            <path opacity="0.7" d="M585.021 300.203H415.771V302.078H585.021V300.203Z" fill="white"/>
        </g>
        <g opacity="0.7">
            <path opacity="0.7" d="M585.466 310.473H416.216V312.348H585.466V310.473Z" fill="white"/>
        </g>
        <g opacity="0.7">
            <path opacity="0.7" d="M585.466 320.749H416.216V322.624H585.466V320.749Z" fill="white"/>
        </g>
    </g>
    <path d="M578.807 337.236V354.421C578.834 357.969 577.477 361.389 575.026 363.953C572.575 366.517 569.222 368.024 565.679 368.154L462 371L491.648 361.2L550.743 344.727L550.263 317.361L579 314L578.807 337.236Z" fill="#EDB495"/>
    <path d="M501.004 265C501.004 265 516.394 251.673 515.992 243.114L514.493 211L486.843 213.679L486.003 243.377C485.764 251.842 501.004 265 501.004 265Z" fill="url(#paint0_linear)"/>
    <path d="M490.721 180.572C494.085 179.859 497.558 179.812 500.94 180.434C504.323 181.055 507.549 182.333 510.434 184.194C513.319 186.055 515.806 188.462 517.754 191.279C519.701 194.095 521.071 197.265 521.784 200.608C521.871 201.021 521.945 201.429 522.014 201.842C523.169 201.855 524.307 202.114 525.353 202.601C526.399 203.088 527.327 203.792 528.076 204.666C528.824 205.54 529.375 206.564 529.691 207.667C530.008 208.771 530.082 209.929 529.909 211.063C529.737 212.198 529.321 213.282 528.69 214.243C528.06 215.204 527.229 216.02 526.254 216.635C525.279 217.25 524.182 217.651 523.038 217.809C521.894 217.967 520.729 217.88 519.622 217.553C517.652 221.497 514.707 224.88 511.061 227.385C507.415 229.889 503.189 231.433 498.779 231.871C494.368 232.309 489.918 231.628 485.845 229.89C481.772 228.153 478.21 225.416 475.493 221.937C472.776 218.459 470.993 214.351 470.311 210.001C469.63 205.65 470.072 201.199 471.595 197.065C473.119 192.93 475.675 189.248 479.024 186.363C482.372 183.478 486.404 181.486 490.74 180.572H490.721Z" fill="url(#paint1_linear)"/>
    <path d="M471.578 171C471.578 171 504.36 172.272 514.596 173.048C519.815 173.442 524.338 175.707 525.622 179.306C526.843 182.741 528.039 195.409 525.508 201.904C524.234 201.675 522.921 201.746 521.683 202.111C520.444 202.476 519.316 203.124 518.398 204C516.936 200.638 517.677 193.574 502.355 191.804C496.535 194.01 491.018 194.67 488.279 195.124C480.688 196.379 471.534 193.022 470.332 186.322C469.13 179.621 471.578 171 471.578 171Z" fill="url(#paint2_linear)"/>
    <path d="M356.473 332.587H353.564V308.393C353.564 300.2 351.935 292.087 348.767 284.517C345.6 276.947 340.957 270.069 335.104 264.275C329.251 258.481 322.302 253.885 314.654 250.75C307.006 247.614 298.809 246 290.531 246C282.252 245.999 274.055 247.612 266.406 250.748C258.757 253.883 251.808 258.479 245.954 264.273C240.1 270.067 235.457 276.945 232.289 284.516C229.121 292.086 227.491 300.2 227.492 308.393V341.008C226.225 341.247 225.082 341.917 224.262 342.902C223.441 343.887 222.995 345.125 223 346.402V362.353C223 362.563 223.042 362.77 223.123 362.964C223.204 363.158 223.323 363.334 223.473 363.483C223.623 363.631 223.801 363.749 223.996 363.829C224.192 363.909 224.402 363.95 224.614 363.95H227.492V364H366.621C367.782 364 368.896 363.543 369.717 362.73C370.539 361.918 371 360.815 371 359.665V354.328C371.006 346.352 364.5 332.587 356.473 332.587Z" fill="#C9CEF2"/>
    <path d="M409.99 281.093C406.342 281.198 402.881 282.699 400.353 285.275L340.521 346.165C336.596 350.297 337.463 357.67 341.674 361.511C345.884 365.352 354.514 364.652 357.933 360.068L412.231 292.976H419.531C423.273 292.976 429.718 292.536 434.315 290.126C438.304 288.038 442.653 286.111 444.844 282.623C444.944 282.461 444.997 282.275 445 282.086C445.002 281.896 444.954 281.71 444.858 281.545C444.763 281.38 444.625 281.242 444.458 281.147C444.291 281.051 444.101 281 443.907 281H412.883L409.99 281.093Z" fill="#E8B99F"/>
    <path d="M294.297 269H292.703C289.599 269 286.622 267.725 284.428 265.456C282.233 263.187 281 260.109 281 256.9V221H306V256.9C306 260.109 304.767 263.187 302.572 265.456C300.378 267.725 297.401 269 294.297 269Z" fill="#EDB495"/>
    <path d="M296 240C309.255 240 320 229.031 320 215.5C320 201.969 309.255 191 296 191C282.745 191 272 201.969 272 215.5C272 229.031 282.745 240 296 240Z" fill="#E8B99F"/>
    <path d="M292.063 179C288.001 179 283.979 179.794 280.226 181.335C276.473 182.877 273.064 185.137 270.191 187.986C267.319 190.835 265.041 194.217 263.486 197.939C261.932 201.662 261.132 205.651 261.132 209.68L261 295L288.084 278.79C283.816 271.701 283.376 240.223 283.496 221.919C283.3 221.948 283.103 221.967 282.905 221.975C282.164 221.996 281.427 221.862 280.742 221.584C280.056 221.305 279.437 220.887 278.923 220.357C278.41 219.827 278.015 219.196 277.762 218.505C277.509 217.814 277.405 217.079 277.456 216.345C277.507 215.612 277.712 214.898 278.059 214.248C278.405 213.598 278.884 213.027 279.466 212.572C280.048 212.117 280.719 211.787 281.437 211.605C282.155 211.423 282.903 211.391 283.634 211.513C283.634 210.753 283.649 210.129 283.678 209.643H289.498L293.527 198.782L294.59 209.643H323C322.99 201.511 319.726 193.716 313.925 187.971C308.124 182.225 300.261 178.998 292.063 179Z" fill="#E8443C"/>
    <path d="M295.284 281.973C296.109 281.148 296.109 279.81 295.284 278.985C294.459 278.16 293.122 278.16 292.297 278.985C291.472 279.81 291.472 281.148 292.297 281.973C293.122 282.798 294.459 282.798 295.284 281.973Z" fill="#F59E35"/>
    <path d="M295.288 296.66C296.113 295.835 296.113 294.497 295.288 293.672C294.463 292.847 293.126 292.847 292.301 293.672C291.476 294.497 291.476 295.835 292.301 296.66C293.126 297.485 294.463 297.485 295.288 296.66Z" fill="#F59E35"/>
    <path d="M295.293 311.353C296.118 310.528 296.118 309.19 295.293 308.365C294.468 307.54 293.131 307.54 292.306 308.365C291.481 309.19 291.481 310.528 292.306 311.353C293.131 312.178 294.468 312.178 295.293 311.353Z" fill="#F59E35"/>
    <path d="M582.073 377H148.927C148.542 377 148.161 376.832 147.806 376.505C147.451 376.178 147.128 375.699 146.856 375.095C146.584 374.491 146.369 373.774 146.222 372.985C146.075 372.196 146 371.35 146 370.497C146 368.774 146.308 367.121 146.857 365.903C147.406 364.684 148.15 364 148.927 364H582.073C582.85 364 583.594 364.684 584.143 365.903C584.692 367.121 585 368.774 585 370.497C585 371.35 584.925 372.196 584.778 372.985C584.631 373.774 584.416 374.491 584.144 375.095C583.872 375.699 583.549 376.178 583.194 376.505C582.839 376.832 582.458 377 582.073 377Z" fill="#BEBEBE"/>
    <path d="M527.934 291H444.066C437.954 291 433 295.874 433 301.887V353.113C433 359.126 437.954 364 444.066 364H527.934C534.046 364 539 359.126 539 353.113V301.887C539 295.874 534.046 291 527.934 291Z" fill="#D2D2D3"/>
    <path d="M485.5 336C489.642 336 493 332.642 493 328.5C493 324.358 489.642 321 485.5 321C481.358 321 478 324.358 478 328.5C478 332.642 481.358 336 485.5 336Z" fill="white"/>
    <path d="M229 357H286.455C287.395 357 288.297 357.334 288.962 357.929C289.627 358.523 290 359.329 290 360.17V364H229V357Z" fill="#848484"/>
    <path d="M253 364H160.729C158.143 364 155.628 363.17 153.568 361.637C151.509 360.104 150.018 357.952 149.324 355.511L131.328 292.147C130.957 290.841 130.9 289.469 131.16 288.137C131.42 286.806 131.991 285.551 132.828 284.472C133.665 283.393 134.745 282.518 135.985 281.915C137.224 281.313 138.588 281 139.971 281H223.536C225.258 281.004 226.931 281.566 228.293 282.599C229.655 283.632 230.631 285.076 231.068 286.709L253 364Z" fill="url(#paint3_linear)"/>
    <path d="M189.5 334C194.194 334 198 330.194 198 325.5C198 320.806 194.194 317 189.5 317C184.806 317 181 320.806 181 325.5C181 330.194 184.806 334 189.5 334Z" fill="white"/>
    <path d="M295.731 341.003H321.256C321.346 340.994 321.437 341.004 321.524 341.032C321.61 341.059 321.69 341.104 321.759 341.163C321.828 341.223 321.885 341.296 321.927 341.378C321.968 341.461 321.993 341.551 322 341.643C322 341.643 320.994 352.62 320.85 356.285C320.682 360.546 316.695 364 311.571 364H305.429C300.305 364 296.312 360.546 296.15 356.285C296.006 352.62 295 341.643 295 341.643C295.014 341.459 295.099 341.288 295.236 341.168C295.373 341.048 295.551 340.989 295.731 341.003Z" fill="#FDCDCA"/>
    <path d="M298.621 359.299C298.291 359.658 297.852 359.895 297.373 359.972C296.894 360.05 296.403 359.963 295.979 359.726C290.738 356.776 284.851 351.228 286.194 346.71C286.405 345.998 286.776 345.345 287.277 344.801C287.778 344.257 288.397 343.836 289.085 343.572C291.248 342.75 294.207 342.944 296.097 343.346C297.241 343.585 297.763 344.451 297.34 345.511C296.918 346.415 296.035 346.528 295.158 346.34C293.809 346.045 291.895 345.957 290.937 346.34C290.657 346.446 289.899 346.86 289.731 347.413C288.954 350.023 293.679 354.542 298.211 357.165C298.399 357.253 298.566 357.383 298.697 357.546C298.827 357.708 298.92 357.899 298.966 358.104C299.012 358.308 299.011 358.52 298.963 358.724C298.915 358.928 298.822 359.119 298.689 359.28L298.621 359.299Z" fill="#FDCDCA"/>
    <path opacity="0.21" d="M304.5 321C305.881 321 307 319.881 307 318.5C307 317.119 305.881 316 304.5 316C303.119 316 302 317.119 302 318.5C302 319.881 303.119 321 304.5 321Z" fill="#F1F1FB"/>
    <path d="M314.703 319.155V319.186C314.161 318.248 313.272 317.562 312.228 317.276C311.184 316.99 310.07 317.127 309.126 317.658C308.183 318.188 307.487 319.07 307.189 320.111C306.891 321.152 307.015 322.268 307.535 323.218C304.342 325.093 301.436 327.518 302.036 330.5C302.646 333.127 304.115 335.476 306.21 337.175C305.298 334.413 304.373 331.55 310.51 328.799C319.052 324.924 314.703 319.155 314.703 319.155Z" fill="#F1F1FB"/>
    <path opacity="0.21" d="M311 314C311.552 314 312 313.552 312 313C312 312.448 311.552 312 311 312C310.448 312 310 312.448 310 313C310 313.552 310.448 314 311 314Z" fill="#F1F1FB"/>
    <path d="M312.047 329.468C313.334 329.399 314.702 329.65 314.952 330.812C315.06 331.457 314.911 332.118 314.538 332.655C314.164 333.191 313.595 333.559 312.953 333.681C312.778 333.715 312.616 333.797 312.485 333.917C312.354 334.038 312.259 334.192 312.209 334.362C311.928 335.369 311.434 335.413 310.672 335.519C310.129 335.541 309.613 335.758 309.219 336.132C308.825 336.506 308.579 337.009 308.529 337.55C308.335 335.675 307.722 336.05 308.441 332.706C308.652 331.796 309.138 330.973 309.835 330.35C310.471 329.847 311.239 329.541 312.047 329.468Z" fill="#F1F1FB"/>
    <path d="M315.387 364H300.487C298.045 363.999 295.612 363.783 293.247 363.357L288.219 362.47C288.145 362.449 288.083 362.412 288.045 362.363C288.006 362.314 287.992 362.258 288.005 362.203C288.018 362.148 288.058 362.098 288.118 362.061C288.178 362.024 288.254 362.002 288.333 362H327.769C328.156 362 328.016 362.377 327.649 362.47L322.621 363.357C320.258 363.783 317.827 363.999 315.387 364Z" fill="#F0F0F0"/>
    <path opacity="0.7" d="M242.091 160.185C255.33 146.943 255.33 125.473 242.091 112.23C228.852 98.9877 207.388 98.9877 194.15 112.23C180.911 125.473 180.911 146.943 194.15 160.185C207.388 173.427 228.852 173.427 242.091 160.185Z" fill="#F1F1FB"/>
    <path opacity="0.7" d="M591.977 166.032C603.871 154.135 603.871 134.845 591.977 122.948C580.083 111.051 560.798 111.051 548.904 122.948C537.01 134.845 537.01 154.135 548.904 166.032C560.798 177.93 580.083 177.93 591.977 166.032Z" fill="#F1F1FB"/>
    <g opacity="0.8">
        <path opacity="0.8" d="M572.274 144.761C572.422 143.572 571.579 142.488 570.391 142.339C569.203 142.19 568.119 143.034 567.97 144.222C567.822 145.411 568.664 146.495 569.853 146.643C571.041 146.792 572.125 145.949 572.274 144.761Z" fill="url(#paint4_linear)"/>
        <path opacity="0.8" d="M590.338 145.477L588.076 145.196C588.13 143.877 588.038 142.556 587.801 141.258L589.988 140.633C590.365 140.51 590.68 140.247 590.869 139.898C591.057 139.549 591.104 139.141 590.999 138.758C590.895 138.375 590.647 138.048 590.308 137.843C589.968 137.638 589.563 137.571 589.176 137.658L586.982 138.283C586.522 137.033 585.925 135.838 585.201 134.72L586.995 133.32C587.27 133.056 587.439 132.7 587.468 132.32C587.496 131.94 587.384 131.562 587.151 131.261C586.918 130.959 586.582 130.754 586.207 130.685C585.832 130.616 585.445 130.688 585.12 130.888L583.327 132.288C582.431 131.319 581.432 130.451 580.346 129.701L581.471 127.725C581.638 127.373 581.667 126.971 581.55 126.599C581.433 126.227 581.18 125.913 580.842 125.72C580.503 125.527 580.104 125.469 579.725 125.558C579.345 125.647 579.014 125.877 578.796 126.2L577.647 128.2C576.437 127.644 575.169 127.225 573.866 126.95L574.147 124.694C574.198 124.289 574.085 123.88 573.834 123.557C573.71 123.398 573.556 123.264 573.38 123.164C573.204 123.064 573.011 123 572.81 122.975C572.405 122.924 571.996 123.037 571.674 123.288C571.352 123.539 571.142 123.907 571.092 124.313L570.81 126.569C569.492 126.515 568.172 126.607 566.874 126.844L566.249 124.656C566.203 124.452 566.117 124.26 565.995 124.09C565.873 123.92 565.718 123.777 565.539 123.669C565.36 123.561 565.161 123.491 564.954 123.462C564.748 123.433 564.537 123.447 564.335 123.502C564.134 123.557 563.946 123.652 563.782 123.782C563.618 123.912 563.483 124.074 563.384 124.258C563.284 124.442 563.224 124.644 563.205 124.852C563.186 125.06 563.21 125.27 563.274 125.469L563.899 127.663C562.65 128.125 561.455 128.725 560.337 129.451L558.938 127.657C558.824 127.472 558.673 127.314 558.495 127.191C558.316 127.069 558.114 126.986 557.901 126.947C557.688 126.908 557.469 126.914 557.259 126.965C557.049 127.016 556.852 127.111 556.68 127.243C556.509 127.375 556.367 127.542 556.264 127.732C556.162 127.923 556.1 128.133 556.084 128.349C556.067 128.564 556.097 128.781 556.169 128.985C556.242 129.189 556.357 129.375 556.507 129.532L557.9 131.332C556.931 132.228 556.064 133.228 555.313 134.313L553.339 133.188C553.163 133.088 552.969 133.024 552.769 132.998C552.568 132.973 552.365 132.988 552.17 133.041C551.975 133.094 551.792 133.186 551.633 133.31C551.473 133.434 551.339 133.588 551.239 133.763C551.139 133.939 551.074 134.133 551.049 134.333C551.024 134.534 551.038 134.738 551.092 134.933C551.145 135.128 551.236 135.31 551.36 135.47C551.484 135.63 551.638 135.763 551.814 135.864L553.789 136.989C553.232 138.199 552.813 139.467 552.539 140.77L550.277 140.489C550.069 140.448 549.855 140.451 549.648 140.496C549.441 140.541 549.246 140.629 549.074 140.753C548.903 140.877 548.758 141.035 548.651 141.218C548.543 141.4 548.474 141.603 548.447 141.813C548.421 142.023 548.439 142.236 548.498 142.44C548.558 142.643 548.659 142.832 548.795 142.994C548.931 143.157 549.098 143.29 549.288 143.384C549.477 143.479 549.684 143.534 549.896 143.546L552.158 143.827C552.104 145.146 552.196 146.466 552.433 147.765L550.245 148.39C550.042 148.435 549.849 148.521 549.679 148.643C549.51 148.765 549.367 148.92 549.259 149.099C549.151 149.278 549.08 149.477 549.052 149.684C549.023 149.891 549.036 150.102 549.091 150.304C549.146 150.505 549.242 150.694 549.372 150.857C549.502 151.021 549.664 151.156 549.847 151.256C550.031 151.355 550.233 151.416 550.441 151.434C550.649 151.453 550.859 151.43 551.058 151.365L553.251 150.74C553.713 151.99 554.312 153.185 555.038 154.303L553.245 155.703C553.061 155.816 552.902 155.967 552.78 156.146C552.658 156.324 552.574 156.527 552.535 156.74C552.496 156.953 552.502 157.171 552.553 157.382C552.604 157.592 552.699 157.789 552.831 157.961C552.963 158.132 553.13 158.274 553.32 158.377C553.511 158.48 553.721 158.541 553.937 158.558C554.153 158.574 554.369 158.545 554.573 158.472C554.777 158.399 554.963 158.284 555.12 158.134L556.913 156.734C557.809 157.703 558.808 158.571 559.894 159.322L558.769 161.297C558.567 161.652 558.514 162.072 558.621 162.466C558.729 162.86 558.989 163.195 559.344 163.397C559.698 163.6 560.119 163.653 560.513 163.545C560.906 163.437 561.241 163.177 561.443 162.822L562.568 160.847C563.778 161.403 565.046 161.823 566.349 162.097L566.067 164.36C566.046 164.75 566.174 165.134 566.425 165.434C566.675 165.733 567.03 165.927 567.418 165.975C567.805 166.024 568.197 165.923 568.513 165.694C568.83 165.465 569.048 165.125 569.123 164.741L569.404 162.485C570.723 162.538 572.043 162.446 573.341 162.21L573.966 164.397C574.011 164.601 574.098 164.794 574.22 164.964C574.341 165.133 574.497 165.277 574.676 165.384C574.854 165.492 575.053 165.563 575.26 165.592C575.467 165.62 575.678 165.607 575.879 165.552C576.081 165.497 576.269 165.401 576.433 165.271C576.596 165.141 576.732 164.98 576.831 164.796C576.93 164.612 576.991 164.41 577.01 164.201C577.029 163.993 577.005 163.784 576.94 163.585L576.316 161.391C577.565 160.931 578.76 160.333 579.877 159.609L581.277 161.403C581.395 161.576 581.548 161.722 581.724 161.834C581.901 161.945 582.099 162.02 582.305 162.052C582.512 162.085 582.723 162.075 582.925 162.023C583.128 161.971 583.318 161.879 583.483 161.751C583.649 161.623 583.787 161.463 583.888 161.28C583.99 161.098 584.053 160.896 584.074 160.688C584.095 160.48 584.073 160.27 584.01 160.07C583.947 159.871 583.845 159.686 583.708 159.528L582.308 157.734C583.277 156.838 584.145 155.838 584.895 154.753L586.87 155.878C587.224 156.08 587.645 156.133 588.039 156.025C588.432 155.917 588.767 155.658 588.969 155.303C589.172 154.948 589.225 154.528 589.117 154.134C589.009 153.74 588.749 153.405 588.394 153.203L586.42 152.078C586.976 150.868 587.396 149.599 587.67 148.296L589.932 148.577C590.322 148.598 590.705 148.471 591.005 148.22C591.305 147.969 591.498 147.615 591.547 147.227C591.595 146.839 591.495 146.447 591.266 146.131C591.037 145.814 590.696 145.596 590.313 145.521L590.338 145.477ZM558.856 136.795C559.219 136.264 559.731 135.853 560.327 135.614C560.923 135.374 561.577 135.317 562.206 135.449C562.835 135.581 563.411 135.897 563.86 136.356C564.31 136.815 564.613 137.397 564.732 138.029C564.851 138.661 564.779 139.313 564.527 139.905C564.275 140.496 563.854 140.999 563.316 141.351C562.778 141.702 562.148 141.886 561.506 141.88C560.863 141.873 560.237 141.677 559.706 141.314C559.354 141.073 559.052 140.765 558.818 140.408C558.585 140.05 558.424 139.65 558.345 139.231C558.266 138.811 558.271 138.38 558.358 137.962C558.446 137.544 558.615 137.147 558.856 136.795ZM562.087 151.853C561.505 152.124 560.855 152.217 560.22 152.12C559.585 152.022 558.993 151.738 558.52 151.305C558.046 150.871 557.711 150.306 557.558 149.682C557.405 149.058 557.44 148.403 557.659 147.799C557.878 147.195 558.271 146.669 558.788 146.288C559.306 145.908 559.925 145.689 560.566 145.66C561.208 145.631 561.844 145.793 562.394 146.125C562.944 146.457 563.383 146.945 563.655 147.527C563.837 147.914 563.94 148.333 563.959 148.76C563.979 149.187 563.914 149.613 563.768 150.015C563.622 150.417 563.399 150.786 563.11 151.101C562.822 151.417 562.474 151.672 562.087 151.853ZM571.823 130.951C572.46 131.031 573.059 131.298 573.545 131.719C574.03 132.14 574.38 132.695 574.55 133.315C574.72 133.935 574.703 134.591 574.5 135.201C574.298 135.81 573.919 136.346 573.412 136.741C572.905 137.135 572.292 137.371 571.652 137.417C571.011 137.464 570.371 137.319 569.812 137.002C569.254 136.685 568.802 136.209 568.513 135.635C568.225 135.06 568.113 134.414 568.192 133.776C568.245 133.352 568.38 132.942 568.591 132.571C568.802 132.199 569.084 131.873 569.422 131.61C569.759 131.348 570.144 131.154 570.556 131.041C570.968 130.928 571.399 130.897 571.823 130.951ZM568.43 158.047C567.792 157.967 567.193 157.699 566.707 157.278C566.222 156.858 565.872 156.302 565.702 155.683C565.532 155.063 565.549 154.407 565.752 153.797C565.954 153.187 566.333 152.651 566.84 152.257C567.347 151.862 567.96 151.627 568.6 151.58C569.241 151.534 569.881 151.678 570.44 151.996C570.998 152.313 571.451 152.789 571.739 153.363C572.027 153.937 572.139 154.584 572.06 155.222C571.952 156.077 571.51 156.856 570.829 157.385C570.148 157.915 569.285 158.153 568.43 158.047ZM569.623 148.521C568.829 148.421 568.082 148.088 567.477 147.563C566.872 147.039 566.436 146.347 566.224 145.574C566.012 144.802 566.034 143.984 566.286 143.224C566.539 142.465 567.011 141.797 567.643 141.305C568.275 140.813 569.039 140.52 569.837 140.463C570.636 140.405 571.433 140.585 572.129 140.981C572.826 141.377 573.389 141.97 573.748 142.685C574.107 143.401 574.246 144.207 574.147 145.002C574.082 145.53 573.912 146.041 573.649 146.503C573.386 146.966 573.035 147.373 572.615 147.7C572.194 148.027 571.714 148.267 571.201 148.408C570.687 148.549 570.151 148.588 569.623 148.521ZM578.165 137.145C578.747 136.873 579.397 136.78 580.032 136.878C580.667 136.975 581.259 137.259 581.733 137.693C582.206 138.127 582.541 138.691 582.694 139.315C582.848 139.939 582.812 140.595 582.593 141.199C582.374 141.803 581.981 142.329 581.464 142.709C580.946 143.09 580.327 143.308 579.686 143.338C579.044 143.367 578.408 143.205 577.858 142.872C577.308 142.54 576.869 142.052 576.597 141.47C576.232 140.689 576.192 139.794 576.487 138.983C576.781 138.172 577.384 137.511 578.165 137.145ZM581.396 152.203C581.033 152.733 580.521 153.144 579.925 153.384C579.329 153.623 578.675 153.681 578.046 153.549C577.417 153.417 576.842 153.101 576.392 152.642C575.942 152.182 575.639 151.6 575.52 150.969C575.402 150.337 575.473 149.684 575.725 149.093C575.977 148.502 576.398 147.998 576.936 147.647C577.474 147.295 578.104 147.111 578.747 147.118C579.389 147.124 580.015 147.321 580.546 147.683C580.899 147.924 581.2 148.232 581.434 148.59C581.667 148.947 581.828 149.347 581.907 149.767C581.986 150.187 581.982 150.618 581.894 151.036C581.806 151.454 581.637 151.85 581.396 152.203Z" fill="url(#paint5_linear)"/>
    </g>
    <g opacity="0.8">
        <path opacity="0.8" d="M220.228 137.051C220.407 135.619 219.391 134.313 217.96 134.134C216.529 133.955 215.223 134.97 215.044 136.402C214.865 137.834 215.88 139.14 217.312 139.319C218.743 139.498 220.048 138.483 220.228 137.051Z" fill="#FDCDCA"/>
        <path opacity="0.8" d="M241.973 137.901L239.254 137.564C239.319 135.977 239.208 134.388 238.923 132.826L241.56 132.107C241.975 131.928 242.311 131.605 242.507 131.197C242.703 130.79 242.745 130.326 242.625 129.89C242.506 129.454 242.233 129.076 241.857 128.825C241.481 128.574 241.027 128.468 240.579 128.525L237.923 129.244C237.368 127.74 236.647 126.302 235.774 124.956L237.936 123.275C238.248 122.95 238.433 122.524 238.456 122.074C238.48 121.625 238.341 121.182 238.065 120.826C237.789 120.47 237.394 120.226 236.953 120.137C236.512 120.048 236.053 120.122 235.661 120.343L233.499 122.025C232.422 120.854 231.219 119.806 229.912 118.9L231.268 116.518C231.434 116.098 231.442 115.633 231.292 115.208C231.142 114.782 230.844 114.425 230.452 114.202C230.06 113.979 229.601 113.904 229.159 113.992C228.717 114.08 228.321 114.324 228.044 114.68L226.676 117.074C225.218 116.404 223.69 115.899 222.12 115.568L222.464 112.849C222.536 112.59 222.551 112.318 222.509 112.052C222.466 111.786 222.367 111.532 222.218 111.308C222.069 111.084 221.873 110.894 221.644 110.753C221.415 110.611 221.158 110.52 220.891 110.487C220.624 110.453 220.353 110.478 220.096 110.558C219.839 110.639 219.603 110.774 219.403 110.954C219.203 111.134 219.044 111.356 218.937 111.603C218.83 111.85 218.778 112.117 218.783 112.386L218.44 115.105C216.853 115.041 215.265 115.152 213.703 115.437L212.984 112.799C212.953 112.531 212.864 112.272 212.723 112.042C212.583 111.811 212.394 111.613 212.17 111.462C211.946 111.311 211.693 111.211 211.426 111.167C211.16 111.123 210.887 111.138 210.626 111.209C210.366 111.28 210.124 111.407 209.917 111.581C209.71 111.755 209.543 111.971 209.428 112.215C209.312 112.459 209.251 112.726 209.248 112.996C209.245 113.266 209.3 113.534 209.41 113.78L210.135 116.418C208.631 116.974 207.193 117.695 205.848 118.568L204.18 116.406C204.047 116.171 203.866 115.968 203.648 115.81C203.43 115.652 203.181 115.543 202.917 115.49C202.653 115.437 202.381 115.442 202.119 115.503C201.857 115.565 201.611 115.682 201.399 115.847C201.186 116.012 201.012 116.221 200.887 116.46C200.762 116.698 200.69 116.961 200.676 117.23C200.662 117.499 200.706 117.767 200.805 118.018C200.904 118.268 201.055 118.494 201.249 118.681L202.93 120.843C201.76 121.921 200.713 123.125 199.806 124.431L197.431 123.075C197.22 122.907 196.974 122.786 196.712 122.722C196.449 122.657 196.176 122.65 195.91 122.702C195.645 122.753 195.394 122.861 195.174 123.018C194.954 123.175 194.771 123.378 194.637 123.613C194.503 123.848 194.421 124.109 194.397 124.378C194.374 124.648 194.408 124.919 194.499 125.174C194.59 125.428 194.735 125.66 194.924 125.854C195.113 126.047 195.342 126.197 195.594 126.294L197.969 127.65C197.298 129.108 196.793 130.637 196.463 132.207L193.744 131.869C193.485 131.797 193.213 131.782 192.947 131.825C192.681 131.867 192.428 131.966 192.204 132.115C191.98 132.265 191.79 132.461 191.649 132.689C191.507 132.918 191.416 133.175 191.383 133.442C191.349 133.71 191.374 133.981 191.454 134.238C191.535 134.495 191.67 134.731 191.85 134.931C192.03 135.131 192.251 135.29 192.498 135.397C192.746 135.504 193.013 135.557 193.282 135.551L196 135.889C195.935 137.475 196.047 139.064 196.331 140.626L193.713 141.327C193.445 141.358 193.187 141.447 192.956 141.588C192.725 141.728 192.528 141.917 192.377 142.141C192.226 142.365 192.125 142.619 192.081 142.885C192.038 143.152 192.052 143.425 192.124 143.685C192.195 143.946 192.322 144.188 192.496 144.395C192.669 144.601 192.885 144.768 193.13 144.884C193.374 144.999 193.64 145.061 193.91 145.064C194.18 145.067 194.447 145.012 194.694 144.902L197.306 144.202C197.862 145.706 198.583 147.144 199.456 148.49L197.306 150.177C197.072 150.31 196.869 150.491 196.711 150.709C196.553 150.927 196.444 151.177 196.391 151.441C196.338 151.704 196.343 151.977 196.404 152.239C196.466 152.501 196.583 152.747 196.748 152.959C196.913 153.172 197.122 153.346 197.36 153.471C197.599 153.596 197.861 153.668 198.13 153.682C198.399 153.696 198.668 153.652 198.918 153.553C199.168 153.455 199.394 153.303 199.581 153.109L201.743 151.427C202.82 152.597 204.023 153.645 205.33 154.553L203.974 156.934C203.813 157.352 203.808 157.814 203.959 158.236C204.109 158.658 204.406 159.012 204.795 159.234C205.184 159.456 205.639 159.531 206.079 159.446C206.518 159.362 206.913 159.122 207.192 158.772L208.548 156.397C210.005 157.067 211.533 157.572 213.103 157.903L212.759 160.622C212.769 161.072 212.94 161.504 213.241 161.838C213.542 162.172 213.954 162.387 214.4 162.443C214.847 162.499 215.298 162.393 215.673 162.144C216.047 161.894 216.32 161.518 216.44 161.084L216.777 158.366C218.364 158.43 219.952 158.319 221.514 158.034L222.233 160.672C222.264 160.94 222.353 161.199 222.494 161.429C222.634 161.66 222.823 161.858 223.047 162.009C223.271 162.16 223.525 162.26 223.791 162.304C224.058 162.348 224.33 162.333 224.591 162.262C224.851 162.19 225.093 162.064 225.3 161.89C225.507 161.716 225.674 161.5 225.789 161.256C225.905 161.011 225.966 160.745 225.969 160.475C225.972 160.205 225.917 159.937 225.807 159.691L225.082 157.053C226.586 156.497 228.024 155.776 229.369 154.903L231.05 157.065C231.181 157.302 231.362 157.507 231.58 157.667C231.798 157.827 232.049 157.938 232.314 157.992C232.579 158.046 232.852 158.042 233.116 157.981C233.379 157.919 233.626 157.801 233.84 157.635C234.053 157.469 234.228 157.259 234.353 157.018C234.477 156.778 234.548 156.514 234.561 156.244C234.574 155.973 234.528 155.704 234.427 155.453C234.325 155.202 234.171 154.976 233.974 154.79L232.3 152.577C233.469 151.5 234.517 150.297 235.424 148.99L237.798 150.346C238.218 150.511 238.683 150.52 239.108 150.37C239.534 150.22 239.891 149.921 240.114 149.529C240.337 149.138 240.412 148.678 240.324 148.236C240.236 147.794 239.992 147.398 239.636 147.121L237.261 145.764C237.932 144.307 238.437 142.778 238.767 141.208L241.485 141.545C241.935 141.536 242.367 141.365 242.701 141.064C243.035 140.762 243.25 140.351 243.306 139.904C243.362 139.458 243.256 139.006 243.006 138.631C242.757 138.257 242.381 137.984 241.948 137.864L241.973 137.901ZM204.067 127.45C204.504 126.812 205.12 126.318 205.838 126.03C206.556 125.742 207.343 125.673 208.1 125.832C208.856 125.991 209.549 126.371 210.09 126.923C210.631 127.476 210.996 128.177 211.139 128.937C211.282 129.697 211.197 130.483 210.894 131.194C210.591 131.906 210.084 132.512 209.437 132.935C208.79 133.359 208.031 133.581 207.258 133.574C206.485 133.566 205.731 133.33 205.092 132.895C204.667 132.605 204.303 132.234 204.022 131.803C203.74 131.373 203.546 130.891 203.451 130.385C203.356 129.879 203.361 129.36 203.467 128.856C203.573 128.353 203.777 127.875 204.067 127.45ZM207.954 145.577C207.254 145.906 206.472 146.021 205.707 145.905C204.942 145.79 204.228 145.451 203.656 144.93C203.084 144.409 202.679 143.73 202.493 142.979C202.306 142.228 202.347 141.438 202.609 140.71C202.871 139.982 203.343 139.348 203.966 138.889C204.588 138.429 205.332 138.164 206.105 138.128C206.878 138.091 207.644 138.285 208.307 138.684C208.97 139.083 209.499 139.67 209.829 140.37C210.047 140.837 210.17 141.342 210.193 141.856C210.215 142.37 210.136 142.884 209.959 143.368C209.783 143.852 209.513 144.296 209.164 144.675C208.816 145.054 208.396 145.36 207.929 145.577H207.954ZM219.677 120.412C220.446 120.508 221.169 120.831 221.755 121.338C222.341 121.846 222.763 122.515 222.968 123.263C223.174 124.01 223.153 124.802 222.908 125.538C222.663 126.273 222.206 126.92 221.594 127.395C220.983 127.871 220.243 128.155 219.47 128.21C218.697 128.265 217.925 128.09 217.252 127.707C216.578 127.323 216.034 126.748 215.687 126.055C215.34 125.362 215.206 124.582 215.303 123.812C215.432 122.781 215.966 121.844 216.786 121.206C217.606 120.569 218.646 120.283 219.677 120.412ZM215.596 153.034C214.827 152.937 214.104 152.615 213.518 152.108C212.933 151.6 212.51 150.931 212.305 150.183C212.1 149.436 212.121 148.644 212.365 147.908C212.61 147.173 213.067 146.526 213.679 146.051C214.291 145.575 215.03 145.291 215.803 145.236C216.576 145.181 217.348 145.356 218.022 145.739C218.695 146.123 219.24 146.697 219.587 147.391C219.934 148.084 220.067 148.864 219.971 149.633C219.841 150.665 219.308 151.602 218.487 152.24C217.667 152.877 216.627 153.163 215.596 153.034ZM217.034 141.564C216.077 141.444 215.178 141.043 214.449 140.412C213.72 139.781 213.195 138.947 212.94 138.017C212.685 137.088 212.711 136.103 213.015 135.188C213.319 134.273 213.888 133.469 214.649 132.877C215.41 132.285 216.329 131.933 217.291 131.864C218.252 131.794 219.213 132.012 220.051 132.489C220.888 132.966 221.566 133.681 221.998 134.543C222.43 135.405 222.596 136.376 222.476 137.332C222.314 138.616 221.649 139.783 220.627 140.576C219.606 141.37 218.311 141.725 217.027 141.564H217.034ZM227.3 127.869C228.002 127.538 228.785 127.422 229.552 127.537C230.319 127.651 231.035 127.991 231.609 128.512C232.182 129.034 232.589 129.714 232.776 130.467C232.963 131.22 232.923 132.011 232.66 132.741C232.397 133.471 231.924 134.106 231.3 134.566C230.676 135.027 229.929 135.292 229.155 135.328C228.38 135.364 227.612 135.169 226.949 134.768C226.285 134.367 225.755 133.778 225.426 133.076C224.986 132.136 224.936 131.061 225.287 130.085C225.639 129.109 226.363 128.312 227.3 127.869ZM231.187 145.996C230.75 146.634 230.134 147.128 229.416 147.416C228.699 147.704 227.912 147.773 227.155 147.614C226.398 147.455 225.706 147.075 225.165 146.522C224.624 145.97 224.259 145.269 224.115 144.509C223.972 143.749 224.058 142.963 224.361 142.252C224.664 141.54 225.171 140.934 225.818 140.511C226.465 140.087 227.223 139.865 227.996 139.872C228.77 139.88 229.523 140.116 230.162 140.551C230.589 140.84 230.955 141.209 231.238 141.639C231.521 142.069 231.717 142.551 231.814 143.057C231.911 143.563 231.907 144.083 231.803 144.587C231.699 145.091 231.496 145.57 231.206 145.996H231.187Z" fill="#FDCDCA"/>
    </g>
    <circle cx="379.5" cy="173.5" r="33.5" fill="#F1F1FB"/>
    <circle cx="475" cy="91" r="25" fill="#FDDBD5"/>
    <path d="M473.461 101.247C473.047 101.305 472.625 101.228 472.258 101.029C471.891 100.83 471.597 100.519 471.42 100.141L466.929 90.5081C466.813 90.2742 466.745 90.0194 466.729 89.7587C466.713 89.498 466.749 89.2367 466.835 88.9903C466.922 88.7438 467.057 88.517 467.232 88.3234C467.408 88.1298 467.62 87.9732 467.857 87.8629C468.094 87.7526 468.35 87.6908 468.612 87.681C468.873 87.6713 469.133 87.7139 469.378 87.8063C469.622 87.8988 469.845 88.0391 470.035 88.2191C470.224 88.3992 470.375 88.6153 470.48 88.8546L473.729 95.8257L484.546 83.192C484.903 82.8442 485.381 82.646 485.88 82.6379C486.379 82.6298 486.862 82.8124 487.231 83.1484C487.6 83.4844 487.826 83.9485 487.864 84.4459C487.902 84.9433 487.749 85.4364 487.436 85.8247L474.644 100.631C474.334 100.968 473.915 101.186 473.461 101.247Z" fill="#9399B8"/>
    <circle cx="156" cy="213" r="25" fill="#FDDBD5"/>
    <path d="M396.707 166.707C397.098 166.317 397.098 165.683 396.707 165.293L390.343 158.929C389.953 158.538 389.319 158.538 388.929 158.929C388.538 159.319 388.538 159.953 388.929 160.343L394.586 166L388.929 171.657C388.538 172.047 388.538 172.681 388.929 173.071C389.319 173.462 389.953 173.462 390.343 173.071L396.707 166.707ZM363 167H396V165H363V167Z" fill="#9595CB"/>
    <path d="M362.293 181.707C361.902 181.317 361.902 180.683 362.293 180.293L368.657 173.929C369.047 173.538 369.681 173.538 370.071 173.929C370.462 174.319 370.462 174.953 370.071 175.343L364.414 181L370.071 186.657C370.462 187.047 370.462 187.681 370.071 188.071C369.681 188.462 369.047 188.462 368.657 188.071L362.293 181.707ZM396 182H363V180H396V182Z" fill="#9595CB"/>
    <path d="M152.72 222.955C152.307 223.013 151.885 222.936 151.518 222.737C151.151 222.538 150.857 222.227 150.679 221.849L146.189 212.216C146.073 211.982 146.005 211.728 145.989 211.467C145.972 211.206 146.009 210.945 146.095 210.699C146.182 210.452 146.316 210.225 146.492 210.032C146.667 209.838 146.88 209.682 147.117 209.571C147.354 209.461 147.61 209.399 147.871 209.389C148.132 209.38 148.393 209.422 148.637 209.515C148.882 209.607 149.105 209.747 149.294 209.927C149.484 210.107 149.635 210.324 149.74 210.563L152.989 217.534L163.805 204.9C164.163 204.552 164.64 204.354 165.139 204.346C165.639 204.338 166.122 204.521 166.491 204.857C166.86 205.193 167.086 205.657 167.124 206.154C167.162 206.652 167.009 207.145 166.695 207.533L153.904 222.339C153.594 222.677 153.175 222.895 152.72 222.955Z" fill="#CFD3EB"/>
    <defs>
        <linearGradient id="paint0_linear" x1="30425.5" y1="26255.2" x2="29287.2" y2="22778" gradientUnits="userSpaceOnUse">
            <stop offset="0.07" stop-color="#EADFCF"/>
            <stop offset="0.8" stop-color="#E58057"/>
        </linearGradient>
        <linearGradient id="paint1_linear" x1="59582.6" y1="12974.1" x2="59389.4" y2="9486.43" gradientUnits="userSpaceOnUse">
            <stop offset="0.07" stop-color="#EADFCF"/>
            <stop offset="0.8" stop-color="#E58057"/>
        </linearGradient>
        <linearGradient id="paint2_linear" x1="485.224" y1="158.762" x2="505.873" y2="201.885" gradientUnits="userSpaceOnUse">
            <stop offset="0.03" stop-color="#884C59"/>
            <stop offset="0.12" stop-color="#6D3C4D"/>
            <stop offset="0.28" stop-color="#47273D"/>
            <stop offset="0.42" stop-color="#2B1731"/>
            <stop offset="0.54" stop-color="#1B0D2A"/>
            <stop offset="0.63" stop-color="#150A27"/>
            <stop offset="0.95"/>
        </linearGradient>
        <linearGradient id="paint3_linear" x1="-97880.9" y1="57403.3" x2="-97741.4" y2="40992.8" gradientUnits="userSpaceOnUse">
            <stop offset="0.05"/>
            <stop offset="0.06" stop-color="#010101"/>
            <stop offset="0.13" stop-color="#323232"/>
            <stop offset="0.2" stop-color="#5D5D5D"/>
            <stop offset="0.28" stop-color="#818182"/>
            <stop offset="0.36" stop-color="#9F9FA0"/>
            <stop offset="0.44" stop-color="#B6B6B7"/>
            <stop offset="0.53" stop-color="#C6C6C7"/>
            <stop offset="0.63" stop-color="#D0D0D1"/>
            <stop offset="0.76" stop-color="#D3D3D4"/>
            <stop offset="0.85" stop-color="#DADADB"/>
            <stop offset="0.99" stop-color="#EEEEEE"/>
            <stop offset="1" stop-color="#F0F0F0"/>
        </linearGradient>
        <linearGradient id="paint4_linear" x1="6832.32" y1="1339.88" x2="6862.42" y2="1339.88" gradientUnits="userSpaceOnUse">
            <stop offset="0.03" stop-color="#B4BFEB"/>
            <stop offset="0.37" stop-color="#C3CDF0"/>
            <stop offset="1" stop-color="#E9EFFD"/>
        </linearGradient>
        <linearGradient id="paint5_linear" x1="61501.2" y1="12000.6" x2="64477.1" y2="12000.6" gradientUnits="userSpaceOnUse">
            <stop offset="0.03" stop-color="#B4BFEB"/>
            <stop offset="0.37" stop-color="#C3CDF0"/>
            <stop offset="1" stop-color="#E9EFFD"/>
        </linearGradient>
    </defs>
</svg>
