<svg width="280" height="181" viewBox="0 0 280 181" fill="none" xmlns="http://www.w3.org/2000/svg">
    <path d="M170.61 158.486V168.464C170.595 170.524 171.383 172.51 172.808 173.998C174.232 175.487 176.181 176.362 178.241 176.438L238.501 178.09L221.27 172.4L186.922 162.836L187.201 146.947L170.607 146.081L170.61 158.486Z" fill="#EDB495"/>
    <path d="M101.552 119.891L101.62 69.2573L107.933 73.157C107.933 73.157 108.658 104.778 112.577 110.984L101.552 119.891Z" fill="#E8443C"/>
    <path d="M260.553 133.536C260.553 116.035 247.547 101.849 231.504 101.849H198.495C182.453 101.849 169.447 116.035 169.447 133.536V152.028L187.127 151.247L186.804 180.393L244.224 180.418L243.543 148.586L260.082 145.122L260.553 133.536Z" fill="#273271"/>
    <mask id="mask0" mask-type="alpha" maskUnits="userSpaceOnUse" x="169" y="102" width="92" height="79">
        <path d="M260.478 133.593C260.478 116.188 247.501 102.079 231.496 102.079H198.562C182.557 102.079 169.58 116.188 169.58 133.593V151.984L187.22 151.208L186.898 180.194L244.187 180.219L243.507 148.561L260.008 145.116L260.478 133.593Z" fill="#273271"/>
    </mask>
    <g mask="url(#mask0)">
        <g opacity="0.7">
            <path opacity="0.7" d="M263.725 124.344H165.51V125.435H263.725V124.344Z" fill="white"/>
        </g>
        <g opacity="0.7">
            <path opacity="0.7" d="M263.725 130.324H165.51V131.416H263.725V130.324Z" fill="white"/>
        </g>
        <g opacity="0.7">
            <path opacity="0.7" d="M263.467 136.305H165.252V137.396H263.467V136.305Z" fill="white"/>
        </g>
        <g opacity="0.7">
            <path opacity="0.7" d="M263.725 142.282H165.51V143.373H263.725V142.282Z" fill="white"/>
        </g>
        <g opacity="0.7">
            <path opacity="0.7" d="M263.725 148.262H165.51V149.353H263.725V148.262Z" fill="white"/>
        </g>
    </g>
    <path d="M259.86 157.858V167.859C259.876 169.924 259.089 171.914 257.666 173.407C256.244 174.899 254.298 175.776 252.242 175.851L192.078 177.508L209.282 171.804L243.575 162.217L243.296 146.29L259.972 144.334L259.86 157.858Z" fill="#EDB495"/>
    <path d="M214.711 115.817C214.711 115.817 223.642 108.06 223.409 103.079L222.539 84.3892L206.494 85.9485L206.006 103.233C205.868 108.159 214.711 115.817 214.711 115.817Z" fill="url(#paint0_linear)"/>
    <path d="M208.745 66.6798C210.697 66.2651 212.712 66.2379 214.675 66.5997C216.638 66.9614 218.51 67.7051 220.184 68.7881C221.858 69.8711 223.301 71.2723 224.431 72.9114C225.562 74.5506 226.356 76.3956 226.77 78.3409C226.821 78.5815 226.864 78.8185 226.904 79.0592C227.574 79.0666 228.235 79.2172 228.841 79.5007C229.448 79.7843 229.987 80.1942 230.421 80.7029C230.856 81.2115 231.175 81.807 231.359 82.4493C231.542 83.0915 231.586 83.7655 231.485 84.4257C231.385 85.0859 231.144 85.7171 230.778 86.2765C230.412 86.8359 229.93 87.3107 229.364 87.6687C228.798 88.0267 228.162 88.2596 227.498 88.3517C226.834 88.4439 226.158 88.393 225.516 88.2027C224.373 90.4983 222.663 92.4672 220.548 93.9248C218.432 95.3823 215.98 96.2807 213.42 96.5357C210.861 96.7907 208.278 96.3941 205.915 95.3828C203.551 94.3716 201.484 92.7791 199.908 90.7544C198.331 88.7298 197.297 86.3394 196.901 83.8075C196.505 81.2756 196.762 78.685 197.646 76.2788C198.53 73.8726 200.014 71.7295 201.957 70.0506C203.9 68.3716 206.239 67.2118 208.755 66.6798H208.745Z" fill="url(#paint1_linear)"/>
    <path d="M197.636 61.1094C197.636 61.1094 216.659 61.8498 222.599 62.3011C225.628 62.5303 228.252 63.849 228.998 65.9434C229.706 67.9426 230.4 75.3154 228.931 79.0952C228.192 78.9618 227.43 79.0032 226.711 79.2157C225.993 79.4283 225.338 79.8056 224.805 80.3152C223.957 78.3583 224.387 74.247 215.496 73.2174C212.118 74.5009 208.917 74.8852 207.328 75.1497C202.922 75.8795 197.61 73.9262 196.913 70.0265C196.215 66.1268 197.636 61.1094 197.636 61.1094Z" fill="url(#paint2_linear)"/>
    <path d="M130.84 155.152H129.152V141.071C129.153 136.303 128.207 131.581 126.369 127.175C124.531 122.77 121.837 118.767 118.44 115.395C115.044 112.023 111.011 109.348 106.573 107.523C102.135 105.698 97.3784 104.759 92.5747 104.759C87.7706 104.758 83.0135 105.697 78.5751 107.522C74.1366 109.347 70.1037 112.021 66.7068 115.393C63.3098 118.765 60.6153 122.769 58.7771 127.175C56.9389 131.58 55.993 136.303 55.9935 141.071V160.053C55.2581 160.192 54.5949 160.582 54.1188 161.155C53.6427 161.728 53.3837 162.449 53.3867 163.192V172.475C53.3867 172.598 53.411 172.718 53.4581 172.831C53.5051 172.944 53.5741 173.047 53.6611 173.133C53.7481 173.219 53.8513 173.288 53.965 173.334C54.0786 173.381 54.2004 173.405 54.3234 173.405H55.9935V173.434H136.729C137.403 173.434 138.05 173.168 138.526 172.695C139.003 172.222 139.27 171.58 139.27 170.911V167.805C139.274 163.163 135.498 155.152 130.84 155.152Z" fill="#C9CEF2"/>
    <path d="M161.896 125.183C159.779 125.244 157.771 126.118 156.304 127.617L121.584 163.054C119.306 165.459 119.81 169.75 122.253 171.986C124.696 174.221 129.704 173.814 131.688 171.146L163.197 132.099H167.433C169.605 132.099 173.345 131.843 176.012 130.44C178.327 129.225 180.851 128.104 182.122 126.074C182.18 125.979 182.211 125.871 182.213 125.761C182.214 125.651 182.186 125.542 182.131 125.446C182.075 125.35 181.995 125.27 181.898 125.214C181.801 125.159 181.691 125.129 181.578 125.129H163.575L161.896 125.183Z" fill="#E8B99F"/>
    <path d="M94.7606 118.145H93.835C92.034 118.145 90.3067 117.403 89.0331 116.082C87.7596 114.762 87.0441 112.971 87.0441 111.103V90.2093H101.552V111.103C101.552 112.971 100.836 114.762 99.5625 116.082C98.289 117.403 96.5617 118.145 94.7606 118.145Z" fill="#EDB495"/>
    <path d="M95.7482 101.267C103.44 101.267 109.675 94.8833 109.675 87.0084C109.675 79.1334 103.44 72.7495 95.7482 72.7495C88.0564 72.7495 81.821 79.1334 81.821 87.0084C81.821 94.8833 88.0564 101.267 95.7482 101.267Z" fill="#E8B99F"/>
    <path d="M93.4641 65.7656C91.107 65.7656 88.773 66.2275 86.5953 67.1248C84.4177 68.0221 82.439 69.3374 80.7722 70.9954C79.1055 72.6535 77.7834 74.6219 76.8814 76.7882C75.9794 78.9546 75.5151 81.2765 75.5151 83.6213L75.4385 133.277L91.1553 123.843C88.6787 119.717 88.4234 101.397 88.4927 90.744C88.3791 90.7613 88.2646 90.7723 88.1498 90.7766C87.72 90.7887 87.2924 90.7112 86.8944 90.5491C86.4965 90.387 86.1371 90.1438 85.8393 89.8352C85.5415 89.5267 85.3119 89.1595 85.1653 88.7574C85.0187 88.3553 84.9582 87.9271 84.9879 87.5004C85.0175 87.0736 85.1366 86.6578 85.3375 86.2796C85.5384 85.9013 85.8166 85.5691 86.1542 85.3043C86.4919 85.0394 86.8815 84.8477 87.298 84.7416C87.7146 84.6355 88.1488 84.6173 88.5729 84.6881C88.5729 84.2454 88.5814 83.8826 88.5984 83.5995H91.976L94.314 77.2788L94.9304 83.5995H111.417C111.411 78.8671 109.517 74.3304 106.151 70.9865C102.784 67.6425 98.2214 65.7647 93.4641 65.7656Z" fill="#E8443C"/>
    <path d="M95.3336 125.695C95.8123 125.215 95.8123 124.436 95.3336 123.956C94.855 123.476 94.0789 123.476 93.6003 123.956C93.1216 124.436 93.1217 125.215 93.6003 125.695C94.079 126.175 94.855 126.175 95.3336 125.695Z" fill="#F59E35"/>
    <path d="M95.3356 134.243C95.8142 133.762 95.8142 132.984 95.3356 132.504C94.8569 132.023 94.0809 132.023 93.6022 132.504C93.1236 132.984 93.1236 133.762 93.6023 134.242C94.0809 134.723 94.8569 134.723 95.3356 134.243Z" fill="#F59E35"/>
    <path d="M95.3385 142.794C95.8171 142.314 95.8171 141.535 95.3385 141.055C94.8598 140.575 94.0838 140.575 93.6052 141.055C93.1265 141.535 93.1265 142.314 93.6052 142.794C94.0838 143.274 94.8598 143.274 95.3385 142.794Z" fill="#F59E35"/>
    <path d="M261.757 181H10.4034C10.1802 181 9.95925 180.902 9.75308 180.712C9.54691 180.522 9.35961 180.243 9.20188 179.891C9.04416 179.54 8.9191 179.122 8.83385 178.663C8.7486 178.204 8.70485 177.712 8.70508 177.215C8.70508 176.212 8.88401 175.251 9.20251 174.542C9.52101 173.832 9.95299 173.434 10.4034 173.434H261.757C262.207 173.434 262.639 173.832 262.957 174.542C263.276 175.251 263.455 176.212 263.455 177.215C263.455 177.712 263.411 178.204 263.326 178.663C263.241 179.122 263.116 179.54 262.958 179.891C262.8 180.243 262.613 180.522 262.407 180.712C262.201 180.902 261.98 181 261.757 181Z" fill="#BEBEBE"/>
    <path d="M230.34 130.949H181.672C178.125 130.949 175.25 133.786 175.25 137.285V167.098C175.25 170.597 178.125 173.434 181.672 173.434H230.34C233.886 173.434 236.761 170.597 236.761 167.098V137.285C236.761 133.786 233.886 130.949 230.34 130.949Z" fill="#D2D2D3"/>
    <path d="M205.715 157.139C208.119 157.139 210.067 155.184 210.067 152.774C210.067 150.363 208.119 148.409 205.715 148.409C203.312 148.409 201.363 150.363 201.363 152.774C201.363 155.184 203.312 157.139 205.715 157.139Z" fill="white"/>
    <path d="M56.8687 169.36H90.2096C90.7552 169.36 91.2784 169.555 91.6642 169.901C92.05 170.247 92.2667 170.716 92.2667 171.205V173.434H56.8687V169.36Z" fill="#848484"/>
    <path d="M70.7961 173.434H17.2518C15.751 173.434 14.2914 172.951 13.0963 172.059C11.9011 171.167 11.0361 169.914 10.6334 168.493L0.190438 131.616C-0.0246948 130.856 -0.0580689 130.057 0.0929289 129.282C0.243927 128.508 0.575213 127.777 1.06087 127.149C1.54653 126.521 2.17341 126.012 2.89251 125.661C3.61161 125.311 4.40344 125.129 5.20612 125.129H53.6983C54.6977 125.131 55.6681 125.458 56.4587 126.059C57.2492 126.66 57.8154 127.501 58.0693 128.451L70.7961 173.434Z" fill="url(#paint3_linear)"/>
    <path d="M33.9472 155.974C36.6713 155.974 38.8797 153.76 38.8797 151.028C38.8797 148.295 36.6713 146.081 33.9472 146.081C31.223 146.081 29.0146 148.295 29.0146 151.028C29.0146 153.76 31.223 155.974 33.9472 155.974Z" fill="white"/>
    <path d="M95.5932 160.05H110.405C110.458 160.045 110.51 160.051 110.56 160.067C110.611 160.083 110.657 160.109 110.697 160.143C110.737 160.178 110.77 160.221 110.794 160.269C110.818 160.316 110.833 160.369 110.837 160.422C110.837 160.422 110.253 166.811 110.17 168.944C110.072 171.424 107.758 173.434 104.785 173.434H101.221C98.2474 173.434 95.9304 171.424 95.8361 168.944C95.7527 166.811 95.1689 160.422 95.1689 160.422C95.1773 160.315 95.2266 160.216 95.3061 160.146C95.3857 160.076 95.4889 160.042 95.5932 160.05Z" fill="#FDCDCA"/>
    <path d="M97.2696 170.698C97.0783 170.907 96.8233 171.045 96.5454 171.09C96.2675 171.135 95.9827 171.085 95.7365 170.947C92.6954 169.23 89.2791 166.001 90.0583 163.371C90.1809 162.957 90.3959 162.577 90.6868 162.26C90.9777 161.944 91.3366 161.699 91.7358 161.545C92.9912 161.067 94.7083 161.18 95.805 161.414C96.4688 161.553 96.7718 162.057 96.5265 162.674C96.2812 163.2 95.7689 163.266 95.2603 163.156C94.4775 162.984 93.3664 162.933 92.8108 163.156C92.6485 163.218 92.2084 163.459 92.111 163.781C91.66 165.3 94.4017 167.93 97.0315 169.456C97.141 169.507 97.2375 169.583 97.3135 169.678C97.3895 169.773 97.443 169.884 97.4699 170.003C97.4967 170.122 97.4962 170.245 97.4684 170.364C97.4405 170.483 97.3861 170.593 97.3093 170.687L97.2696 170.698Z" fill="#FDCDCA"/>
    <path opacity="0.21" d="M100.682 148.409C101.483 148.409 102.133 147.757 102.133 146.954C102.133 146.15 101.483 145.499 100.682 145.499C99.8807 145.499 99.2312 146.15 99.2312 146.954C99.2312 147.757 99.8807 148.409 100.682 148.409Z" fill="#F1F1FB"/>
    <path d="M106.602 147.334V147.353C106.288 146.807 105.772 146.407 105.166 146.241C104.56 146.074 103.914 146.154 103.366 146.463C102.819 146.772 102.415 147.285 102.242 147.891C102.069 148.497 102.141 149.146 102.443 149.699C100.59 150.79 98.9036 152.202 99.2517 153.937C99.6059 155.466 100.458 156.833 101.674 157.822C101.145 156.214 100.608 154.548 104.169 152.948C109.126 150.692 106.602 147.334 106.602 147.334Z" fill="#F1F1FB"/>
    <path opacity="0.21" d="M104.453 144.334C104.774 144.334 105.033 144.074 105.033 143.752C105.033 143.431 104.774 143.17 104.453 143.17C104.133 143.17 103.873 143.431 103.873 143.752C103.873 144.074 104.133 144.334 104.453 144.334Z" fill="#F1F1FB"/>
    <path d="M105.06 153.337C105.807 153.297 106.602 153.442 106.747 154.119C106.809 154.494 106.723 154.879 106.506 155.191C106.289 155.503 105.959 155.718 105.586 155.789C105.485 155.808 105.391 155.856 105.315 155.926C105.239 155.996 105.183 156.086 105.155 156.185C104.991 156.771 104.705 156.796 104.263 156.858C103.948 156.871 103.648 156.998 103.419 157.215C103.191 157.432 103.048 157.726 103.019 158.04C102.906 156.949 102.551 157.167 102.968 155.221C103.09 154.691 103.373 154.212 103.777 153.85C104.146 153.557 104.592 153.379 105.06 153.337Z" fill="#F1F1FB"/>
    <path d="M106.999 173.434H98.3528C96.9354 173.434 95.5237 173.308 94.1511 173.06L91.2335 172.544C91.1906 172.532 91.1549 172.51 91.1323 172.481C91.1097 172.453 91.1016 172.42 91.1093 172.388C91.117 172.356 91.1402 172.327 91.1748 172.305C91.2095 172.284 91.2536 172.271 91.2998 172.27H114.184C114.409 172.27 114.328 172.489 114.114 172.544L111.197 173.06C109.825 173.308 108.415 173.433 106.999 173.434Z" fill="#F0F0F0"/>
    <path opacity="0.7" d="M64.4655 54.8156C72.1479 47.1086 72.1479 34.6131 64.4655 26.9061C56.7832 19.1991 44.3276 19.1991 36.6453 26.9061C28.9629 34.6131 28.9629 47.1086 36.6453 54.8156C44.3276 62.5225 56.7832 62.5225 64.4655 54.8156Z" fill="#F1F1FB"/>
    <path opacity="0.7" d="M267.503 58.218C274.405 51.2938 274.405 40.0675 267.503 33.1433C260.6 26.2191 249.41 26.2191 242.508 33.1433C235.606 40.0675 235.606 51.2938 242.508 58.218C249.41 65.1423 260.6 65.1423 267.503 58.218Z" fill="#F1F1FB"/>
    <g opacity="0.8">
        <path opacity="0.8" d="M256.069 45.8382C256.156 45.1464 255.666 44.5155 254.977 44.4289C254.287 44.3424 253.658 44.833 253.572 45.5248C253.486 46.2166 253.975 46.8475 254.665 46.934C255.354 47.0206 255.983 46.5299 256.069 45.8382Z" fill="url(#paint4_linear)"/>
        <path opacity="0.8" d="M266.551 46.2548L265.239 46.0911C265.27 45.3236 265.216 44.555 265.079 43.7993L266.348 43.4355C266.567 43.3641 266.75 43.2109 266.859 43.0077C266.969 42.8046 266.996 42.567 266.935 42.3443C266.875 42.1216 266.731 41.9309 266.534 41.8116C266.337 41.6924 266.101 41.6538 265.877 41.7039L264.604 42.0677C264.337 41.3403 263.99 40.6449 263.571 39.9941L264.611 39.1793C264.771 39.026 264.869 38.8188 264.886 38.5975C264.902 38.3762 264.837 38.1566 264.702 37.9809C264.567 37.8052 264.372 37.6858 264.154 37.6458C263.937 37.6058 263.712 37.648 263.523 37.7642L262.483 38.5791C261.963 38.0148 261.383 37.5098 260.753 37.073L261.406 35.9235C261.503 35.7186 261.52 35.4845 261.452 35.268C261.384 35.0515 261.237 34.8688 261.041 34.7564C260.844 34.644 260.613 34.6104 260.393 34.6622C260.172 34.714 259.98 34.8475 259.854 35.0358L259.187 36.1999C258.485 35.8763 257.749 35.6322 256.993 35.4724L257.156 34.1591C257.185 33.9232 257.12 33.6853 256.974 33.4977C256.902 33.4048 256.813 33.3271 256.711 33.2689C256.609 33.2108 256.496 33.1733 256.38 33.1588C256.145 33.1293 255.908 33.1948 255.721 33.3408C255.534 33.4868 255.412 33.7013 255.383 33.9372L255.22 35.2505C254.455 35.2191 253.688 35.2728 252.935 35.4105L252.572 34.1373C252.546 34.0186 252.496 33.9065 252.425 33.8077C252.355 33.709 252.265 33.6257 252.161 33.5628C252.057 33.5 251.942 33.459 251.821 33.4423C251.701 33.4255 251.579 33.4334 251.462 33.4655C251.345 33.4975 251.236 33.553 251.141 33.6287C251.046 33.7043 250.967 33.7985 250.91 33.9056C250.852 34.0126 250.817 34.1302 250.806 34.2514C250.795 34.3725 250.809 34.4946 250.846 34.6102L251.209 35.8871C250.484 36.1563 249.791 36.5052 249.142 36.9275L248.33 35.8835C248.264 35.7761 248.177 35.6839 248.073 35.6127C247.969 35.5415 247.852 35.493 247.728 35.4703C247.605 35.4475 247.478 35.4511 247.356 35.4808C247.234 35.5105 247.119 35.5656 247.02 35.6426C246.92 35.7195 246.838 35.8166 246.779 35.9274C246.719 36.0383 246.683 36.1606 246.674 36.2862C246.664 36.4118 246.681 36.538 246.724 36.6567C246.766 36.7753 246.833 36.8837 246.919 36.9748L247.728 38.0225C247.166 38.544 246.662 39.1259 246.227 39.7577L245.081 39.1029C244.979 39.0446 244.867 39.007 244.75 38.9923C244.634 38.9776 244.516 38.986 244.403 39.0171C244.289 39.0482 244.183 39.1013 244.091 39.1734C243.998 39.2456 243.921 39.3353 243.862 39.4376C243.804 39.5398 243.767 39.6525 243.752 39.7693C243.738 39.886 243.746 40.0045 243.777 40.118C243.808 40.2315 243.861 40.3378 243.933 40.4308C244.005 40.5237 244.094 40.6016 244.196 40.6599L245.342 41.3147C245.019 42.0188 244.776 42.757 244.617 43.5155L243.304 43.3518C243.183 43.328 243.059 43.3294 242.939 43.3558C242.819 43.3823 242.706 43.4332 242.606 43.5055C242.507 43.5777 242.423 43.6698 242.36 43.7759C242.298 43.882 242.258 43.9999 242.242 44.1223C242.227 44.2446 242.237 44.3688 242.272 44.4871C242.307 44.6053 242.365 44.7152 242.444 44.8098C242.523 44.9044 242.62 44.9817 242.73 45.0369C242.84 45.0921 242.96 45.124 243.083 45.1307L244.395 45.2944C244.364 46.0619 244.418 46.8305 244.555 47.5862L243.286 47.95C243.168 47.9764 243.056 48.0266 242.957 48.0976C242.859 48.1686 242.776 48.2589 242.713 48.363C242.651 48.4672 242.61 48.583 242.593 48.7034C242.576 48.8239 242.584 48.9465 242.616 49.0638C242.648 49.1812 242.703 49.2908 242.779 49.386C242.854 49.4812 242.948 49.5601 243.055 49.6179C243.162 49.6756 243.279 49.711 243.4 49.722C243.52 49.7329 243.642 49.7192 243.757 49.6816L245.03 49.3178C245.298 50.0454 245.646 50.7408 246.067 51.3913L245.026 52.2062C244.919 52.2722 244.827 52.36 244.757 52.4639C244.686 52.5679 244.637 52.6857 244.615 52.8096C244.592 52.9335 244.596 53.0608 244.625 53.1833C244.655 53.3057 244.71 53.4206 244.786 53.5203C244.863 53.6201 244.96 53.7026 245.07 53.7624C245.181 53.8222 245.303 53.8581 245.428 53.8676C245.553 53.8771 245.679 53.8601 245.797 53.8176C245.915 53.7752 246.023 53.7083 246.114 53.6213L247.155 52.8064C247.675 53.3704 248.255 53.8754 248.885 54.3125L248.232 55.462C248.115 55.6685 248.084 55.9132 248.146 56.1425C248.209 56.3717 248.36 56.5666 248.566 56.6843C248.771 56.802 249.015 56.8329 249.244 56.7701C249.472 56.7073 249.667 56.5561 249.784 56.3496L250.437 55.2001C251.139 55.5238 251.875 55.7678 252.631 55.9276L252.467 57.2445C252.455 57.4716 252.529 57.6949 252.675 57.8694C252.82 58.0439 253.026 58.1566 253.251 58.1847C253.476 58.2129 253.703 58.1544 253.887 58.0211C254.07 57.8878 254.197 57.6896 254.241 57.4664L254.404 56.1532C255.169 56.1844 255.935 56.1308 256.688 55.9931L257.051 57.2663C257.077 57.3851 257.127 57.4972 257.198 57.5959C257.269 57.6947 257.359 57.778 257.463 57.8408C257.566 57.9036 257.682 57.9446 257.802 57.9614C257.922 57.9781 258.044 57.9702 258.161 57.9382C258.278 57.9061 258.387 57.8506 258.482 57.775C258.577 57.6993 258.656 57.6051 258.713 57.4981C258.771 57.3911 258.806 57.2734 258.817 57.1523C258.828 57.0312 258.814 56.9091 258.777 56.7934L258.414 55.5166C259.139 55.2487 259.833 54.901 260.481 54.4798L261.293 55.5238C261.362 55.6242 261.45 55.7094 261.553 55.7743C261.656 55.8393 261.77 55.8825 261.89 55.9014C262.01 55.9204 262.132 55.9146 262.25 55.8844C262.367 55.8543 262.478 55.8004 262.574 55.7261C262.67 55.6517 262.75 55.5586 262.809 55.4522C262.868 55.3458 262.904 55.2285 262.916 55.1074C262.929 54.9864 262.916 54.8641 262.88 54.748C262.843 54.632 262.783 54.5246 262.704 54.4325L261.892 53.3885C262.454 52.867 262.957 52.2851 263.393 51.6532L264.539 52.308C264.745 52.4257 264.989 52.4566 265.217 52.3938C265.446 52.3311 265.64 52.1798 265.757 51.9734C265.875 51.7669 265.905 51.5221 265.843 51.2929C265.78 51.0637 265.629 50.8688 265.424 50.7511L264.278 50.0963C264.601 49.3921 264.844 48.6539 265.003 47.8954L266.316 48.0591C266.542 48.0714 266.765 47.9971 266.939 47.8513C267.112 47.7054 267.225 47.4988 267.253 47.2731C267.281 47.0474 267.223 46.8195 267.09 46.6352C266.957 46.451 266.759 46.3241 266.537 46.2802L266.551 46.2548ZM248.283 41.2019C248.493 40.8931 248.79 40.6539 249.136 40.5145C249.482 40.375 249.862 40.3416 250.227 40.4185C250.592 40.4954 250.926 40.679 251.186 40.9463C251.447 41.2136 251.623 41.5525 251.692 41.9201C251.761 42.2877 251.72 42.6676 251.574 43.0117C251.427 43.3558 251.183 43.6486 250.871 43.8533C250.559 44.0579 250.193 44.1651 249.82 44.1613C249.447 44.1575 249.084 44.0429 248.776 43.832C248.571 43.6919 248.396 43.5126 248.261 43.3046C248.125 43.0965 248.032 42.8637 247.986 42.6195C247.94 42.3752 247.943 42.1243 247.994 41.8811C248.045 41.6378 248.143 41.407 248.283 41.2019ZM250.157 49.9653C249.82 50.1234 249.443 50.1775 249.074 50.1207C248.706 50.064 248.362 49.8989 248.087 49.6464C247.812 49.394 247.618 49.0654 247.529 48.7022C247.44 48.339 247.461 47.9575 247.588 47.606C247.715 47.2544 247.943 46.9485 248.243 46.727C248.544 46.5055 248.903 46.3782 249.275 46.3613C249.647 46.3444 250.017 46.4386 250.336 46.632C250.655 46.8254 250.909 47.1094 251.068 47.448C251.173 47.6732 251.233 47.917 251.244 48.1655C251.255 48.4139 251.217 48.6622 251.133 48.896C251.048 49.1298 250.919 49.3446 250.751 49.5281C250.584 49.7116 250.382 49.8602 250.157 49.9653ZM255.807 37.8006C256.177 37.8473 256.525 38.0029 256.806 38.2478C257.088 38.4927 257.291 38.8159 257.39 39.1765C257.489 39.5372 257.478 39.919 257.361 40.2739C257.243 40.6288 257.024 40.9408 256.729 41.1704C256.435 41.4001 256.08 41.5371 255.708 41.5641C255.336 41.5911 254.965 41.507 254.64 41.3223C254.316 41.1377 254.054 40.8608 253.887 40.5266C253.719 40.1924 253.654 39.816 253.7 39.4448C253.731 39.198 253.809 38.9596 253.932 38.7433C254.054 38.527 254.218 38.3371 254.414 38.1844C254.609 38.0316 254.833 37.9191 255.072 37.8533C255.311 37.7874 255.561 37.7695 255.807 37.8006ZM253.838 53.5703C253.468 53.5236 253.12 53.368 252.839 53.1231C252.557 52.8782 252.354 52.555 252.255 52.1944C252.156 51.8338 252.167 51.4519 252.284 51.097C252.402 50.7421 252.621 50.4301 252.916 50.2005C253.21 49.9708 253.565 49.8339 253.937 49.8068C254.309 49.7798 254.68 49.8639 255.005 50.0486C255.329 50.2332 255.591 50.5101 255.758 50.8443C255.926 51.1785 255.991 51.5549 255.945 51.9261C255.882 52.4242 255.625 52.8771 255.23 53.1854C254.835 53.4936 254.335 53.6321 253.838 53.5703ZM254.531 48.0264C254.07 47.9682 253.636 47.7742 253.285 47.4689C252.934 47.1637 252.681 46.7609 252.558 46.3114C252.435 45.862 252.448 45.3861 252.594 44.9438C252.741 44.5015 253.015 44.1128 253.382 43.8267C253.748 43.5406 254.192 43.37 254.655 43.3364C255.118 43.3028 255.581 43.4078 255.985 43.6381C256.389 43.8683 256.716 44.2135 256.924 44.6301C257.133 45.0466 257.213 45.5158 257.156 45.9783C257.118 46.2858 257.02 46.5828 256.867 46.8522C256.714 47.1216 256.51 47.3582 256.267 47.5484C256.023 47.7386 255.744 47.8788 255.446 47.9608C255.148 48.0428 254.837 48.0651 254.531 48.0264ZM259.488 41.4056C259.825 41.2475 260.202 41.1934 260.571 41.2502C260.939 41.3069 261.283 41.472 261.558 41.7245C261.833 41.9769 262.027 42.3055 262.116 42.6687C262.205 43.0319 262.184 43.4134 262.057 43.7649C261.93 44.1165 261.702 44.4224 261.402 44.6439C261.101 44.8655 260.742 44.9927 260.37 45.0096C259.998 45.0265 259.628 44.9323 259.309 44.7389C258.99 44.5455 258.736 44.2616 258.577 43.923C258.366 43.468 258.343 42.9474 258.513 42.4754C258.684 42.0035 259.034 41.6187 259.488 41.4056ZM261.362 50.169C261.152 50.4778 260.855 50.717 260.509 50.8564C260.163 50.9959 259.783 51.0293 259.418 50.9524C259.054 50.8756 258.72 50.6919 258.459 50.4246C258.198 50.1573 258.022 49.8185 257.953 49.4508C257.884 49.0832 257.925 48.7033 258.071 48.3592C258.218 48.0151 258.462 47.7223 258.774 47.5176C259.087 47.313 259.452 47.2058 259.825 47.2096C260.198 47.2134 260.561 47.328 260.869 47.5389C261.074 47.6791 261.249 47.8583 261.384 48.0663C261.52 48.2744 261.613 48.5072 261.659 48.7514C261.705 48.9957 261.702 49.2466 261.651 49.4899C261.6 49.7331 261.502 49.9639 261.362 50.169Z" fill="url(#paint5_linear)"/>
    </g>
    <g opacity="0.8">
        <path opacity="0.8" d="M51.7787 41.351C51.8826 40.5177 51.2934 39.7577 50.4628 39.6535C49.6322 39.5492 48.8746 40.1403 48.7707 40.9736C48.6668 41.8069 49.2559 42.5669 50.0865 42.6712C50.9172 42.7754 51.6748 42.1844 51.7787 41.351Z" fill="#FDCDCA"/>
        <path opacity="0.8" d="M64.3968 41.8458L62.8195 41.6494C62.857 40.726 62.7925 39.8012 62.6273 38.892L64.1575 38.4736C64.3982 38.3694 64.5933 38.1814 64.7069 37.9443C64.8204 37.7072 64.8448 37.437 64.7755 37.1833C64.7062 36.9296 64.5479 36.7096 64.3298 36.5636C64.1116 36.4177 63.8483 36.3558 63.5882 36.3892L62.0471 36.8075C61.7245 35.932 61.3062 35.095 60.7997 34.312L62.0543 33.3334C62.2354 33.1445 62.3425 32.8965 62.3563 32.6348C62.3701 32.3731 62.2895 32.1151 62.1294 31.9081C61.9692 31.7011 61.7401 31.5588 61.484 31.5072C61.2279 31.4557 60.9618 31.4983 60.7344 31.6273L59.4798 32.6059C58.8547 31.9246 58.1567 31.3147 57.3983 30.787L58.1852 29.401C58.281 29.1567 58.2859 28.886 58.1989 28.6384C58.1119 28.3909 57.9388 28.1831 57.7115 28.0531C57.4841 27.9232 57.2177 27.8798 56.9611 27.9309C56.7044 27.982 56.4747 28.1242 56.3141 28.3315L55.52 29.7248C54.6742 29.3346 53.7875 29.0406 52.8765 28.848L53.076 27.2656C53.1178 27.1146 53.1266 26.9563 53.102 26.8016C53.0774 26.6468 53.0198 26.4992 52.9332 26.3688C52.8466 26.2383 52.7331 26.1281 52.6002 26.0456C52.4674 25.9632 52.3184 25.9104 52.1634 25.8908C52.0084 25.8713 51.851 25.8855 51.7019 25.9324C51.5529 25.9794 51.4157 26.058 51.2996 26.1629C51.1835 26.2678 51.0914 26.3965 51.0293 26.5403C50.9673 26.6842 50.9369 26.8397 50.9402 26.9964L50.7407 28.5789C49.8202 28.5413 48.8984 28.6059 47.9921 28.7717L47.5751 27.2365C47.5568 27.0804 47.5052 26.93 47.4236 26.7958C47.3421 26.6615 47.2326 26.5465 47.1027 26.4586C46.9727 26.3708 46.8254 26.3121 46.6708 26.2866C46.5161 26.2612 46.3578 26.2695 46.2067 26.3112C46.0556 26.3528 45.9152 26.4266 45.7952 26.5277C45.6751 26.6288 45.5783 26.7547 45.5113 26.8968C45.4443 27.0389 45.4086 27.1939 45.4069 27.3511C45.4051 27.5083 45.4371 27.664 45.5009 27.8076L45.9216 29.3428C45.0489 29.6666 44.2146 30.0863 43.434 30.5942L42.4658 29.3355C42.3889 29.1992 42.2837 29.081 42.1572 28.9891C42.0308 28.8971 41.8861 28.8336 41.733 28.8028C41.5798 28.772 41.4219 28.7746 41.2699 28.8104C41.1179 28.8463 40.9753 28.9146 40.852 29.0107C40.7286 29.1067 40.6273 29.2283 40.5549 29.3671C40.4826 29.506 40.4408 29.6588 40.4326 29.8152C40.4244 29.9717 40.4498 30.1281 40.5072 30.2738C40.5646 30.4195 40.6525 30.5511 40.7651 30.6597L41.7406 31.9183C41.0618 32.5457 40.4538 33.2459 39.9275 34.0064L38.5496 33.217C38.4268 33.1191 38.2843 33.049 38.132 33.0115C37.9796 32.974 37.821 32.97 37.667 32.9998C37.513 33.0295 37.3672 33.0924 37.2396 33.1839C37.1121 33.2755 37.0058 33.3937 36.928 33.5303C36.8502 33.667 36.8028 33.8189 36.7891 33.9757C36.7753 34.1324 36.7955 34.2903 36.8483 34.4385C36.901 34.5867 36.9851 34.7217 37.0948 34.8342C37.2044 34.9468 37.337 35.0342 37.4835 35.0905L38.8614 35.8799C38.4722 36.7283 38.1791 37.6179 37.9875 38.5318L36.4101 38.3354C36.2596 38.2935 36.1018 38.2845 35.9476 38.3093C35.7933 38.334 35.6462 38.3917 35.5161 38.4786C35.3861 38.5655 35.2762 38.6794 35.194 38.8127C35.1118 38.9459 35.0592 39.0954 35.0397 39.2509C35.0203 39.4064 35.0344 39.5643 35.0812 39.7138C35.128 39.8633 35.2063 40.001 35.3109 40.1174C35.4155 40.2339 35.5438 40.3263 35.6872 40.3886C35.8306 40.4508 35.9856 40.4813 36.1418 40.478L37.7192 40.6745C37.6816 41.5979 37.7461 42.5227 37.9114 43.4319L36.392 43.8393C36.2364 43.8577 36.0865 43.9095 35.9526 43.9913C35.8188 44.0731 35.7042 44.1829 35.6166 44.3133C35.529 44.4436 35.4705 44.5914 35.4452 44.7466C35.4198 44.9017 35.4281 45.0605 35.4696 45.2121C35.5111 45.3637 35.5847 45.5046 35.6855 45.625C35.7862 45.7454 35.9117 45.8425 36.0534 45.9098C36.1951 45.977 36.3495 46.0127 36.5062 46.0145C36.6629 46.0163 36.8182 45.9841 36.9613 45.9202L38.477 45.5127C38.7994 46.3883 39.2178 47.2253 39.7244 48.0082L38.477 48.9904C38.3411 49.0676 38.2233 49.1732 38.1317 49.3C38.0401 49.4269 37.9767 49.5721 37.946 49.7257C37.9153 49.8793 37.9179 50.0377 37.9537 50.1902C37.9894 50.3427 38.0575 50.4857 38.1532 50.6095C38.249 50.7333 38.3702 50.8349 38.5086 50.9075C38.6469 50.9801 38.7993 51.0219 38.9552 51.0302C39.1112 51.0384 39.2671 51.0129 39.4123 50.9554C39.5576 50.8978 39.6888 50.8095 39.797 50.6966L41.0516 49.718C41.6769 50.3989 42.375 51.0089 43.133 51.5369L42.3461 52.9229C42.2532 53.1663 42.2501 53.435 42.3375 53.6805C42.4249 53.926 42.597 54.1319 42.8227 54.2612C43.0483 54.3904 43.3126 54.4343 43.5677 54.385C43.8229 54.3357 44.052 54.1965 44.2136 53.9924L45.0005 52.61C45.8463 53.0002 46.733 53.2942 47.644 53.4867L47.4445 55.0692C47.45 55.3311 47.5491 55.5823 47.7239 55.7769C47.8987 55.9715 48.1375 56.0966 48.3966 56.1292C48.6556 56.1619 48.9178 56.1 49.1351 55.9548C49.3525 55.8096 49.5105 55.5908 49.5803 55.3384L49.7761 53.7559C50.6966 53.7934 51.6185 53.7288 52.5248 53.5631L52.9418 55.0983C52.96 55.2544 53.0117 55.4048 53.0932 55.539C53.1748 55.6733 53.2842 55.7883 53.4142 55.8762C53.5441 55.964 53.6915 56.0227 53.8461 56.0482C54.0008 56.0736 54.1591 56.0653 54.3102 56.0236C54.4613 55.982 54.6017 55.9082 54.7217 55.8071C54.8417 55.706 54.9386 55.5801 55.0056 55.438C55.0726 55.2959 55.1082 55.1409 55.11 54.9837C55.1118 54.8265 55.0797 54.6708 55.016 54.5272L54.5953 52.992C55.4681 52.6685 56.3024 52.2488 57.0829 51.7406L58.0583 52.9993C58.1345 53.1369 58.2395 53.2564 58.3661 53.3496C58.4927 53.4427 58.6379 53.5072 58.7917 53.5387C58.9455 53.5702 59.1043 53.5679 59.2572 53.5321C59.41 53.4962 59.5533 53.4275 59.6772 53.3309C59.8011 53.2342 59.9027 53.1117 59.975 52.972C60.0473 52.8322 60.0885 52.6783 60.096 52.521C60.1034 52.3637 60.0768 52.2067 60.018 52.0607C59.9592 51.9146 59.8696 51.7831 59.7554 51.6751L58.7835 50.3874C59.4624 49.7602 60.0704 49.0599 60.5966 48.2993L61.9746 49.0887C62.218 49.1848 62.4879 49.1897 62.7347 49.1024C62.9815 49.0151 63.1886 48.8415 63.3181 48.6134C63.4477 48.3853 63.4909 48.1181 63.44 47.8606C63.389 47.6031 63.2472 47.3727 63.0407 47.2116L61.6627 46.4222C62.0519 45.5737 62.345 44.6842 62.5366 43.7702L64.114 43.9667C64.3751 43.9612 64.6255 43.8617 64.8195 43.6864C65.0135 43.511 65.1381 43.2715 65.1707 43.0116C65.2032 42.7517 65.1415 42.4887 64.9968 42.2707C64.852 42.0526 64.6339 41.8941 64.3823 41.824L64.3968 41.8458ZM42.4006 35.7635C42.6541 35.392 43.0117 35.1043 43.4281 34.9367C43.8446 34.769 44.3012 34.729 44.7404 34.8215C45.1795 34.9141 45.5815 35.1352 45.8954 35.4569C46.2094 35.7785 46.4212 36.1863 46.5043 36.6287C46.5873 37.0711 46.5378 37.5283 46.3619 37.9425C46.1861 38.3566 45.8918 38.7092 45.5163 38.9557C45.1408 39.2022 44.7009 39.3315 44.2522 39.3273C43.8035 39.323 43.3661 39.1855 42.9952 38.932C42.7485 38.7633 42.5374 38.5475 42.374 38.2969C42.2105 38.0463 42.098 37.7658 42.0427 37.4715C41.9875 37.1772 41.9907 36.8748 42.0521 36.5817C42.1135 36.2886 42.2319 36.0106 42.4006 35.7635ZM44.656 46.313C44.2498 46.5047 43.796 46.5713 43.352 46.5042C42.9081 46.4372 42.4939 46.2396 42.1619 45.9364C41.8299 45.6333 41.595 45.2381 41.4868 44.801C41.3786 44.3639 41.4021 43.9044 41.5542 43.4807C41.7063 43.057 41.9803 42.688 42.3414 42.4204C42.7026 42.1529 43.1347 41.9988 43.5831 41.9776C44.0316 41.9564 44.4762 42.0691 44.8608 42.3014C45.2454 42.5337 45.5527 42.8752 45.7439 43.2828C45.8703 43.5543 45.9421 43.8481 45.9551 44.1475C45.9682 44.4469 45.9221 44.746 45.8197 45.0275C45.7173 45.309 45.5605 45.5675 45.3583 45.7881C45.1562 46.0087 44.9126 46.1871 44.6415 46.313H44.656ZM51.4587 31.6673C51.9049 31.7234 52.3246 31.9109 52.6646 32.2062C53.0045 32.5016 53.2496 32.8914 53.3687 33.3265C53.4878 33.7615 53.4756 34.2222 53.3337 34.6503C53.1918 35.0784 52.9265 35.4547 52.5714 35.7315C52.2163 36.0084 51.7874 36.1734 51.3388 36.2056C50.8902 36.2379 50.4422 36.1359 50.0514 35.9127C49.6606 35.6895 49.3445 35.355 49.1432 34.9516C48.9419 34.5482 48.8643 34.0939 48.9204 33.6463C48.9955 33.0462 49.3051 32.5007 49.7811 32.1296C50.2571 31.7585 50.8605 31.5922 51.4587 31.6673ZM49.0908 50.6529C48.6446 50.5969 48.2249 50.4093 47.885 50.114C47.545 49.8187 47.3 49.4288 47.1808 48.9938C47.0617 48.5587 47.0739 48.098 47.2158 47.6699C47.3577 47.2418 47.623 46.8656 47.9781 46.5887C48.3332 46.3119 48.7621 46.1469 49.2107 46.1146C49.6593 46.0824 50.1073 46.1843 50.4981 46.4075C50.8889 46.6307 51.205 46.9652 51.4063 47.3686C51.6076 47.7721 51.6852 48.2263 51.6291 48.674C51.554 49.274 51.2444 49.8196 50.7684 50.1907C50.2924 50.5618 49.689 50.728 49.0908 50.6529ZM49.9248 43.9776C49.3698 43.9078 48.8479 43.6744 48.425 43.307C48.0022 42.9396 47.6974 42.4547 47.5493 41.9135C47.4012 41.3724 47.4163 40.7993 47.5928 40.2668C47.7694 39.7343 48.0993 39.2662 48.541 38.9218C48.9827 38.5775 49.5162 38.3722 50.0741 38.332C50.6321 38.2918 51.1894 38.4185 51.6756 38.696C52.1618 38.9735 52.555 39.3895 52.8056 39.8912C53.0561 40.393 53.1527 40.958 53.0832 41.5148C52.9891 42.2619 52.6032 42.9409 52.0103 43.4027C51.4174 43.8645 50.666 44.0713 49.9212 43.9776H49.9248ZM55.8826 36.0072C56.2895 35.8144 56.7442 35.7471 57.1893 35.8138C57.6343 35.8804 58.0496 36.0781 58.3826 36.3816C58.7156 36.6852 58.9513 37.0811 59.0599 37.5192C59.1685 37.9573 59.1451 38.4178 58.9926 38.8425C58.8402 39.2672 58.5655 39.637 58.2035 39.905C57.8414 40.173 57.4082 40.3272 56.9587 40.3481C56.5092 40.369 56.0637 40.2556 55.6784 40.0223C55.2932 39.789 54.9857 39.4462 54.7948 39.0375C54.5394 38.4908 54.5105 37.8648 54.7144 37.2968C54.9184 36.7288 55.3384 36.265 55.8826 36.0072ZM58.1381 46.5568C57.8845 46.9282 57.527 47.2159 57.1105 47.3836C56.6941 47.5512 56.2374 47.5913 55.7982 47.4987C55.3591 47.4061 54.9572 47.185 54.6432 46.8634C54.3293 46.5417 54.1174 46.1339 54.0344 45.6915C53.9513 45.2491 54.0009 44.7919 54.1767 44.3778C54.3525 43.9636 54.6468 43.611 55.0223 43.3645C55.3978 43.1181 55.8377 42.9888 56.2864 42.993C56.7352 42.9972 57.1726 43.1348 57.5434 43.3883C57.791 43.5561 58.0031 43.7712 58.1676 44.0215C58.332 44.2717 58.4457 44.552 58.502 44.8464C58.5582 45.1407 58.556 45.4434 58.4954 45.7369C58.4348 46.0304 58.3171 46.309 58.149 46.5568H58.1381Z" fill="#FDCDCA"/>
    </g>
    <ellipse cx="144.204" cy="62.5642" rx="19.4399" ry="19.4968" fill="#F1F1FB"/>
    <ellipse cx="199.622" cy="14.5498" rx="14.5074" ry="14.5498" fill="#FDDBD5"/>
    <path d="M198.728 20.5138C198.488 20.5472 198.244 20.5028 198.031 20.3869C197.818 20.2711 197.647 20.09 197.544 19.87L194.938 14.2637C194.871 14.1276 194.831 13.9793 194.822 13.8276C194.813 13.6759 194.834 13.5238 194.884 13.3804C194.934 13.2369 195.012 13.105 195.114 12.9923C195.216 12.8796 195.339 12.7885 195.477 12.7243C195.614 12.6601 195.763 12.6241 195.915 12.6184C196.066 12.6128 196.217 12.6376 196.359 12.6913C196.501 12.7451 196.631 12.8268 196.74 12.9316C196.85 13.0364 196.938 13.1621 196.999 13.3014L198.885 17.3585L205.161 10.0058C205.369 9.8034 205.646 9.68805 205.935 9.68333C206.225 9.67861 206.505 9.78489 206.719 9.98045C206.933 10.176 207.065 10.4461 207.087 10.7356C207.109 11.0251 207.02 11.3121 206.838 11.538L199.415 20.155C199.235 20.3515 198.992 20.4785 198.728 20.5138Z" fill="#9399B8"/>
    <ellipse cx="14.5074" cy="85.5528" rx="14.5074" ry="14.5498" fill="#FDDBD5"/>
    <path d="M154.486 58.9063C154.876 58.5158 154.876 57.8826 154.486 57.4921L148.122 51.1282C147.731 50.7376 147.098 50.7376 146.707 51.1282C146.317 51.5187 146.317 52.1518 146.707 52.5424L152.364 58.1992L146.707 63.8561C146.317 64.2466 146.317 64.8798 146.707 65.2703C147.098 65.6608 147.731 65.6608 148.122 65.2703L154.486 58.9063ZM134.629 59.1992H153.778V57.1992H134.629V59.1992Z" fill="#9595CB"/>
    <path d="M133.921 67.6363C133.53 67.2458 133.53 66.6126 133.921 66.2221L140.285 59.8581C140.675 59.4676 141.308 59.4676 141.699 59.8581C142.089 60.2487 142.089 60.8818 141.699 61.2723L136.042 66.9292L141.699 72.5861C142.089 72.9766 142.089 73.6097 141.699 74.0003C141.308 74.3908 140.675 74.3908 140.285 74.0003L133.921 67.6363ZM153.778 67.9292H134.628V65.9292H153.778V67.9292Z" fill="#9595CB"/>
    <path d="M12.604 91.3468C12.3638 91.3802 12.1193 91.3358 11.9062 91.2199C11.6931 91.1041 11.5226 90.923 11.4196 90.703L8.81392 85.0967C8.7465 84.9606 8.70694 84.8123 8.69757 84.6606C8.6882 84.5089 8.70921 84.3568 8.75937 84.2134C8.80953 84.0699 8.88781 83.938 8.98962 83.8253C9.09142 83.7126 9.21469 83.6215 9.35216 83.5573C9.48963 83.4931 9.63853 83.4571 9.79008 83.4514C9.94163 83.4458 10.0928 83.4706 10.2346 83.5243C10.3764 83.5781 10.5061 83.6598 10.6159 83.7646C10.7258 83.8694 10.8136 83.9951 10.8742 84.1345L12.76 88.1916L19.0365 80.8388C19.2442 80.6364 19.5211 80.5211 19.8107 80.5163C20.1004 80.5116 20.3808 80.6179 20.5949 80.8135C20.8089 81.009 20.9404 81.2791 20.9625 81.5686C20.9845 81.8581 20.8955 82.1451 20.7136 82.371L13.291 90.988C13.1109 91.1845 12.8678 91.3115 12.604 91.3468Z" fill="#CFD3EB"/>
    <defs>
        <linearGradient id="paint0_linear" x1="17579.7" y1="15241.9" x2="16915.7" y2="13219.4" gradientUnits="userSpaceOnUse">
            <stop offset="0.07" stop-color="#EADFCF"/>
            <stop offset="0.8" stop-color="#E58057"/>
        </linearGradient>
        <linearGradient id="paint1_linear" x1="34499.5" y1="7512.43" x2="34386.8" y2="5482.67" gradientUnits="userSpaceOnUse">
            <stop offset="0.07" stop-color="#EADFCF"/>
            <stop offset="0.8" stop-color="#E58057"/>
        </linearGradient>
        <linearGradient id="paint2_linear" x1="205.554" y1="53.987" x2="217.594" y2="79.057" gradientUnits="userSpaceOnUse">
            <stop offset="0.03" stop-color="#884C59"/>
            <stop offset="0.12" stop-color="#6D3C4D"/>
            <stop offset="0.28" stop-color="#47273D"/>
            <stop offset="0.42" stop-color="#2B1731"/>
            <stop offset="0.54" stop-color="#1B0D2A"/>
            <stop offset="0.63" stop-color="#150A27"/>
            <stop offset="0.95"/>
        </linearGradient>
        <linearGradient id="paint3_linear" x1="-56875.9" y1="33369.9" x2="-56794.4" y2="23819.1" gradientUnits="userSpaceOnUse">
            <stop offset="0.05"/>
            <stop offset="0.06" stop-color="#010101"/>
            <stop offset="0.13" stop-color="#323232"/>
            <stop offset="0.2" stop-color="#5D5D5D"/>
            <stop offset="0.28" stop-color="#818182"/>
            <stop offset="0.36" stop-color="#9F9FA0"/>
            <stop offset="0.44" stop-color="#B6B6B7"/>
            <stop offset="0.53" stop-color="#C6C6C7"/>
            <stop offset="0.63" stop-color="#D0D0D1"/>
            <stop offset="0.76" stop-color="#D3D3D4"/>
            <stop offset="0.85" stop-color="#DADADB"/>
            <stop offset="0.99" stop-color="#EEEEEE"/>
            <stop offset="1" stop-color="#F0F0F0"/>
        </linearGradient>
        <linearGradient id="paint4_linear" x1="3888.75" y1="741.391" x2="3906.21" y2="741.391" gradientUnits="userSpaceOnUse">
            <stop offset="0.03" stop-color="#B4BFEB"/>
            <stop offset="0.37" stop-color="#C3CDF0"/>
            <stop offset="1" stop-color="#E9EFFD"/>
        </linearGradient>
        <linearGradient id="paint5_linear" x1="35612.8" y1="6945.88" x2="37339.8" y2="6945.88" gradientUnits="userSpaceOnUse">
            <stop offset="0.03" stop-color="#B4BFEB"/>
            <stop offset="0.37" stop-color="#C3CDF0"/>
            <stop offset="1" stop-color="#E9EFFD"/>
        </linearGradient>
    </defs>
</svg>
