<svg width="537" height="452" viewBox="0 0 537 452" fill="none" xmlns="http://www.w3.org/2000/svg">
    <path d="M28.7179 245.556L15.3643 235.782L22.0469 233.434L32.3323 241.976L28.7179 245.556Z" fill="#191919"/>
    <path d="M78.5645 440.34C78.5386 440.558 78.5853 440.779 78.6972 440.967C78.8091 441.156 78.9801 441.303 79.1838 441.385C79.3874 441.467 79.6124 441.48 79.824 441.421C80.0355 441.362 80.2219 441.236 80.3543 441.061L91.6741 431.228C92.9409 429.973 94.8818 429.52 96.0091 427.533L99.1005 423.407C99.1856 423.294 99.2459 423.165 99.2774 423.028C99.309 422.89 99.3111 422.748 99.2837 422.61C99.2562 422.471 99.1998 422.34 99.1182 422.225C99.0366 422.11 98.9315 422.014 98.81 421.943L95.1374 419.095C93.3326 417.698 91.9951 415.785 91.3022 413.61L73.0092 356.209L79.2153 307.501H59.458C56.5874 318.147 50.3115 347.794 50.8345 350.932C51.2761 353.617 76.8212 406.52 84.3639 422.117C84.582 422.951 84.7259 423.803 84.7939 424.662L84.6079 426.266C84.6079 426.719 83.9571 428.067 83.9339 428.66L78.5645 440.34Z" fill="#E79E7D"/>
    <path d="M97.3449 433.297C96.1827 433.715 95.5784 434.657 94.6602 435.924C92.0321 439.348 88.8691 442.327 85.2929 444.745C81.2006 447.437 76.4193 448.894 71.5209 448.94C70.9431 448.652 70.498 448.153 70.2773 447.546L70.4982 447.395C76.0018 447.558 81.3848 445.762 85.6881 442.327C86.1646 441.932 86.6178 441.525 87.0595 441.107C90.0347 438.19 91.7083 436.76 92.5334 435.656C92.7963 435.292 93.0221 434.903 93.2075 434.494C93.4632 434.064 94.1256 432.553 95.6249 432.356H95.8457L96.0084 432.205L103.481 425.812C103.799 425.993 104.078 426.235 104.302 426.524C104.525 426.814 104.689 427.144 104.783 427.498C104.888 428.718 99.5996 432.507 97.3449 433.297Z" fill="#3A3936"/>
    <path d="M78.4598 438.829C78.0704 439.626 77.5063 440.326 76.8095 440.875C75.903 441.607 74.0202 441.258 72.6256 442.386C69.5458 444.873 70.4755 447.034 70.4755 447.034C70.4755 447.034 70.9172 447.034 71.6377 446.976C76.5438 446.859 81.2823 445.168 85.1541 442.153C85.6112 441.789 86.0567 441.402 86.4906 440.991C88.8461 438.911 90.9591 436.572 92.7897 434.018C93.043 433.473 93.4213 432.995 93.8938 432.623C94.3663 432.252 94.9198 431.997 95.5092 431.879L102.773 425.789L103.052 425.534C101.063 422.863 98.5119 420.661 95.579 419.083C95.579 419.083 94.4168 424.627 91.581 426.893C90.1227 428.141 88.2809 428.85 86.3628 428.904L85.6422 427.916C85.3396 427.496 84.9412 427.153 84.48 426.917C83.8669 427.793 83.3005 428.7 82.7832 429.636C81.5978 431.833 79.7499 436.609 78.4598 438.829Z" fill="url(#paint0_linear)"/>
    <path d="M32.4834 238.571L73.1719 227.472L77.8439 238.571L38.2595 241.442L32.4834 238.571Z" fill="#E79E7D"/>
    <path d="M80.4249 369.028L98.0671 316.508L70.2789 296.611C68.8146 298.18 63.5033 358.382 63.0036 363.856C62.4574 369.876 65.5488 409.926 60.5513 433.855L59.4473 439.573C59.4473 439.573 65.2582 441.456 65.665 441.456C66.0718 441.456 72.5104 439.132 72.5104 439.132L72.5917 438.062C71.7704 436.638 71.2507 435.06 71.0648 433.427C70.8788 431.794 71.0307 430.139 71.5109 428.567C74.9975 417.061 82.6215 382.556 80.4249 369.028Z" fill="#E9B296"/>
    <path d="M65.3978 450.556C64.5786 450.281 63.7266 450.117 62.8642 450.068C61.702 450.068 55.9956 451.602 50.0801 451.23C44.1645 450.858 39.0857 450.8 35.8548 448.533C35.5654 447.961 35.5072 447.3 35.6921 446.686H35.9594C36.7729 447.267 43.3277 449.928 51.835 449.521C52.4393 449.521 52.9972 449.44 53.648 449.359C57.7389 448.812 59.9122 448.661 61.2139 448.278C61.7149 448.103 62.2331 447.982 62.7596 447.917C63.4786 447.967 64.1665 448.23 64.7354 448.673L64.9213 448.789H65.1421L74.8465 448.15C74.9862 448.483 75.0581 448.841 75.0581 449.202C75.0581 449.563 74.9862 449.92 74.8465 450.253C74.2421 451.253 65.3978 450.556 65.3978 450.556Z" fill="#3A3936"/>
    <path d="M48.1382 442.49C47.3541 442.897 46.4877 443.119 45.6046 443.141C44.4425 443.141 42.9316 443.141 41.1534 443.245C40.1078 443.218 39.0714 443.447 38.1338 443.911C37.1962 444.374 36.3857 445.059 35.7725 445.907C35.7725 445.907 36.1211 446.162 36.7603 446.569C38.9801 447.952 44.7098 449.324 51.5086 449.056C52.0897 449.056 52.6747 449.01 53.2635 448.917C59.5626 448.127 61.1665 447.359 62.4449 447.313C63.2888 447.358 64.0991 447.658 64.7693 448.173L74.3109 447.638H74.6828C74.6883 444.342 73.9702 441.085 72.5792 438.097C70.5333 439.595 68.1276 440.525 65.6061 440.793C63.7086 440.919 61.8254 440.39 60.2716 439.294V438.132C60.2796 437.616 60.164 437.106 59.9345 436.644C58.9268 436.979 57.9376 437.367 56.9709 437.806C54.7628 438.794 50.451 441.514 48.1382 442.49Z" fill="url(#paint1_linear)"/>
    <path d="M60.3527 165.085C60.3527 165.085 56.5988 166.596 57.5402 171.489C58.3305 175.627 60.7478 197.952 61.48 204.763C61.5508 205.735 61.8192 206.683 62.2689 207.549C62.7185 208.414 63.3398 209.178 64.095 209.795C65.3966 210.737 65.4663 211.515 72.9276 210.957C84.4915 210.179 77.0535 185.261 77.0535 185.261L60.3527 165.085Z" fill="#010103"/>
    <path d="M68.8828 182.146L78.2269 194.512L86.9085 192.734L76.3674 180.136L68.8828 182.146Z" fill="url(#paint2_linear)"/>
    <path d="M104.447 271.438C106.341 244.777 108.026 229.366 101.1 204.518C98.7754 196.29 92.8482 191.107 84.1201 189.084L81.0054 191.142C75.1944 197.417 74.5204 201.032 71.1384 207.412C68.1515 213.061 62.8519 224.404 63.2935 226.205C63.7817 228.204 64.4557 231.9 70.6619 232.981C75.3107 246.636 75.822 252.843 69.8599 269.009L104.447 271.438Z" fill="#E5E5E5"/>
    <mask id="mask0" mask-type="alpha" maskUnits="userSpaceOnUse" x="63" y="189" width="44" height="83">
        <path d="M104.447 271.438C106.341 244.777 108.026 229.366 101.1 204.518C98.7754 196.29 92.8482 191.107 84.1201 189.084L81.0054 191.142C75.1944 197.417 74.5204 201.032 71.1384 207.412C68.1515 213.061 62.8519 224.404 63.2935 226.205C63.7817 228.204 64.4557 231.9 70.6619 232.981C75.3107 246.636 75.5 252.5 70 269L104.447 271.438Z" fill="#273271"/>
    </mask>
    <g mask="url(#mask0)">
        <g style="mix-blend-mode:multiply" opacity="0.81">
            <path d="M73.1481 262.582L63.9784 269.823L63.4902 183.169L72.6948 183.134L73.1481 262.582Z" fill="#273271"/>
        </g>
        <g style="mix-blend-mode:multiply" opacity="0.81">
            <path d="M96.6951 263.233L87.4905 263.279L87.6416 185.459L96.8462 185.424L96.6951 263.233Z" fill="#273271"/>
        </g>
        <g style="mix-blend-mode:multiply" opacity="0.81">
            <path d="M117.672 260.362L117.684 262.385L63.9787 269.823L63.9322 260.606L117.672 260.362Z" fill="#48507E"/>
        </g>
        <g style="mix-blend-mode:multiply" opacity="0.81">
            <path d="M63.8257 237.032L63.8675 246.236L121.303 245.975L121.261 236.771L63.8257 237.032Z" fill="#273271"/>
        </g>
        <g style="mix-blend-mode:multiply" opacity="0.81">
            <path d="M63.7247 213.439L63.7665 222.643L120.156 222.388L120.114 213.183L63.7247 213.439Z" fill="#273271"/>
        </g>
        <g style="mix-blend-mode:multiply" opacity="0.81">
            <path d="M64.1649 192.641V201.846H120.555V192.641H64.1649Z" fill="#273271"/>
        </g>
    </g>
    <path d="M90.0359 196.209C87.6472 195.76 85.178 196.278 83.171 197.649C81.1639 199.02 79.7831 201.131 79.3321 203.519L76.9031 244.847L34.8664 239.64C33.2375 238.127 31.3829 236.876 29.3692 235.933C29.3692 235.933 23.5582 231.098 23.4188 232.807C23.2793 234.515 27.5794 237.455 27.0681 238.792C26.5567 240.128 23.9999 238.408 21.8963 236.7C19.7927 234.992 15.6088 231.238 15.5391 233.98C15.5391 234.736 18.4562 239.629 20.9433 241.418C24.0557 243.579 27.6442 244.954 31.4031 245.428C31.8322 245.466 32.2639 245.466 32.6931 245.428C42.1882 248.45 60.7602 253.819 70.2785 256.574C72.5332 257.224 79.3669 259.049 79.3669 259.049C84.469 259.897 89.2688 258.05 90.0708 253.168L91.0354 247.357L97.7877 206.611C97.9622 205.419 97.9 204.204 97.6048 203.036C97.3095 201.868 96.787 200.77 96.0671 199.804C95.3472 198.838 94.444 198.023 93.4092 197.406C92.3743 196.789 91.228 196.383 90.0359 196.209Z" fill="#E9B296"/>
    <path d="M53.3213 332.593L89.7678 344.389C92.0922 345.633 93.3241 345.377 93.789 342.832C95.9623 330.908 102.924 301.097 105.411 296.228C110.559 286.326 105.016 263.558 105.016 263.558L73.2181 259.956C73.2181 259.956 67.8604 271.438 53.3213 332.593Z" fill="white"/>
    <path d="M53.3213 332.593L89.7678 344.389C92.0922 345.633 93.3241 345.377 93.789 342.832C95.9623 330.908 102.924 301.097 105.411 296.228C110.559 286.326 105.016 263.558 105.016 263.558L72.5 260C72.5 260 67.8604 271.438 53.3213 332.593Z" fill="#BCC1C9"/>
    <path d="M73.1735 188C80.2365 187.167 85.2875 180.767 84.4553 173.704C83.6231 166.641 77.2228 161.59 70.1598 162.422C63.0968 163.255 58.0457 169.655 58.8779 176.718C59.7102 183.781 66.1105 188.832 73.1735 188Z" fill="#E9B296"/>
    <path d="M59.063 165.887C58.6965 166.212 58.4709 166.666 58.4341 167.155C58.3972 167.643 58.5519 168.126 58.8654 168.502C60.7133 170.71 66.1059 176.219 73.8229 176.126C82.8067 176.01 75.3221 185.923 76.2286 190.491C77.8673 198.696 87.5019 192.188 91.7091 196.499C94.9749 199.858 92.6156 208.273 98.9031 207.227C104.586 206.274 106.26 203.74 107.806 200.567C110.072 195.918 108.387 189.968 104.958 186.016C98.4963 178.602 82.7253 163.563 80.4242 162.482C77.8092 161.238 62.8982 162.528 59.063 165.887Z" fill="#46263D"/>
    <path d="M76.6794 179.844C77.2212 179.78 77.6086 179.289 77.5447 178.748C77.4807 178.206 76.9897 177.818 76.4479 177.882C75.906 177.946 75.5186 178.437 75.5826 178.979C75.6465 179.521 76.1376 179.908 76.6794 179.844Z" fill="#FF0000"/>
    <path d="M81.1564 186.377L76.6006 179.357L73.7881 187.248L81.1564 186.377Z" fill="#FF0000"/>
    <path d="M80.4814 162.412C82.5547 162.412 84.2353 160.731 84.2353 158.658C84.2353 156.585 82.5547 154.904 80.4814 154.904C78.4082 154.904 76.7275 156.585 76.7275 158.658C76.7275 160.731 78.4082 162.412 80.4814 162.412Z" fill="#46263D"/>
    <path d="M129.212 109.009H72V67.8323C72.0168 54.6656 76.312 41.8621 84.2365 31.3567C92.1611 20.8513 103.284 13.2149 115.925 9.60161C137.534 3.37476 159.894 0.144152 182.379 0C249.414 0 302 27.2079 302 92.0335C302 145.266 262.701 171.331 239.011 186.965C203.756 210.693 194.022 215.819 194.022 246.497C194.022 252.866 203.195 271.881 208.471 281H149.221C141.131 271.734 136.141 252.412 136.141 227.531C136.141 203.803 148.857 180.646 175.44 156.337C196.247 137.232 212.319 121.41 212.319 84.9457C212.319 59.4728 198.648 46.766 173.797 46.766C146.642 46.7167 131.525 73.1261 129.212 109.009Z" fill="#1F285A"/>
    <path d="M121.212 109.009H64V67.8323C64.0156 54.6681 68.3079 41.8665 76.2287 31.3615C84.1494 20.8564 95.2683 13.2185 107.906 9.60161C129.521 3.37298 151.887 0.142351 174.379 0C241.414 0 294 27.2079 294 92.0335C294 145.266 254.701 171.331 231.011 186.965C195.756 210.693 186.022 215.819 186.022 246.497C186.022 252.866 195.195 271.881 200.471 281H141.221C133.131 271.734 128.141 252.412 128.141 227.531C128.141 203.803 140.857 180.646 167.44 156.337C188.247 137.232 204.319 121.41 204.319 84.9457C204.319 59.4728 190.648 46.766 165.797 46.766C138.642 46.7167 123.505 73.1261 121.212 109.009Z" fill="#273271"/>
    <path d="M349 389C373.301 389 393 369.301 393 345C393 320.699 373.301 301 349 301C324.699 301 305 320.699 305 345C305 369.301 324.699 389 349 389Z" fill="#1F285A"/>
    <path d="M341.5 389C366.077 389 386 369.301 386 345C386 320.699 366.077 301 341.5 301C316.923 301 297 320.699 297 345C297 369.301 316.923 389 341.5 389Z" fill="#273271"/>
    <path d="M255.393 408.891C255.97 408.891 256.439 408.355 256.439 407.694C256.439 407.033 255.97 406.497 255.393 406.497C254.815 406.497 254.347 407.033 254.347 407.694C254.347 408.355 254.815 408.891 255.393 408.891Z" fill="white"/>
    <path d="M247.06 410.088C247.637 410.088 248.106 409.552 248.106 408.891C248.106 408.23 247.637 407.694 247.06 407.694C246.482 407.694 246.014 408.23 246.014 408.891C246.014 409.552 246.482 410.088 247.06 410.088Z" fill="white"/>
    <path d="M246.781 420.594C247.359 420.594 247.827 420.058 247.827 419.397C247.827 418.736 247.359 418.2 246.781 418.2C246.204 418.2 245.735 418.736 245.735 419.397C245.735 420.058 246.204 420.594 246.781 420.594Z" fill="white"/>
    <path d="M253.08 400.697C253.658 400.697 254.126 400.161 254.126 399.5C254.126 398.839 253.658 398.303 253.08 398.303C252.502 398.303 252.034 398.839 252.034 399.5C252.034 400.161 252.502 400.697 253.08 400.697Z" fill="white"/>
    <path d="M249.442 393.968C250.02 393.968 250.488 393.432 250.488 392.771C250.488 392.11 250.02 391.574 249.442 391.574C248.865 391.574 248.396 392.11 248.396 392.771C248.396 393.432 248.865 393.968 249.442 393.968Z" fill="white"/>
    <path d="M255.573 386.796C256.14 386.468 256.365 385.797 256.076 385.297C255.787 384.797 255.094 384.657 254.527 384.984C253.96 385.311 253.734 385.982 254.023 386.482C254.312 386.983 255.006 387.123 255.573 386.796Z" fill="white"/>
    <path d="M17.7235 156.659C27.5119 156.659 35.447 148.724 35.447 138.936C35.447 129.147 27.5119 121.212 17.7235 121.212C7.93508 121.212 0 129.147 0 138.936C0 148.724 7.93508 156.659 17.7235 156.659Z" fill="#FDCDCA"/>
    <path d="M8.26339 141.76C9.77177 141.76 10.9946 140.537 10.9946 139.029C10.9946 137.521 9.77177 136.298 8.26339 136.298C6.75501 136.298 5.53223 137.521 5.53223 139.029C5.53223 140.537 6.75501 141.76 8.26339 141.76Z" fill="url(#paint3_linear)"/>
    <path d="M17.7243 141.76C19.2327 141.76 20.4555 140.537 20.4555 139.029C20.4555 137.521 19.2327 136.298 17.7243 136.298C16.2159 136.298 14.9932 137.521 14.9932 139.029C14.9932 140.537 16.2159 141.76 17.7243 141.76Z" fill="url(#paint4_linear)"/>
    <path d="M27.1726 141.76C28.6809 141.76 29.9037 140.537 29.9037 139.029C29.9037 137.521 28.6809 136.298 27.1726 136.298C25.6642 136.298 24.4414 137.521 24.4414 139.029C24.4414 140.537 25.6642 141.76 27.1726 141.76Z" fill="url(#paint5_linear)"/>
    <path d="M265.295 196.569C274.037 196.569 281.124 189.482 281.124 180.74C281.124 171.998 274.037 164.911 265.295 164.911C256.553 164.911 249.466 171.998 249.466 180.74C249.466 189.482 256.553 196.569 265.295 196.569Z" fill="#FDCDCA"/>
    <path d="M256.858 183.262C258.206 183.262 259.298 182.169 259.298 180.821C259.298 179.474 258.206 178.381 256.858 178.381C255.51 178.381 254.417 179.474 254.417 180.821C254.417 182.169 255.51 183.262 256.858 183.262Z" fill="url(#paint6_linear)"/>
    <path d="M265.294 183.262C266.642 183.262 267.735 182.169 267.735 180.821C267.735 179.474 266.642 178.381 265.294 178.381C263.946 178.381 262.854 179.474 262.854 180.821C262.854 182.169 263.946 183.262 265.294 183.262Z" fill="url(#paint7_linear)"/>
    <path d="M273.744 183.262C275.092 183.262 276.185 182.169 276.185 180.821C276.185 179.474 275.092 178.381 273.744 178.381C272.396 178.381 271.304 179.474 271.304 180.821C271.304 182.169 272.396 183.262 273.744 183.262Z" fill="url(#paint8_linear)"/>
    <path d="M389.873 278L324 273.073L334.884 3L413.057 8.91228C416.006 9.13892 418.277 11.2772 417.973 13.6421L389.873 278Z" fill="#1F285A"/>
    <path d="M381.796 277L325.127 272.773C319.89 272.38 315.847 268.753 316.004 264.576L325.591 6.86291C325.679 4.54321 328.155 2.7936 331.074 3.01967L405.041 8.53388C408 8.75995 410.278 10.8929 409.972 13.2519L381.796 277Z" fill="#273271"/>
    <path d="M536.784 208.819C535.354 206.622 533.692 211.98 532.751 214.537C531.809 217.094 530.508 219.883 529.404 219.093C528.3 218.302 530.461 213.537 529.497 212.201C528.532 210.864 526.01 218.012 526.01 218.012C524.992 219.59 524.147 221.274 523.488 223.032C514.725 229.843 502.638 237.955 499.721 241.035C499.617 241.14 499.535 240.187 499.431 240.291C496.758 228.669 491.156 217.512 488.855 212.979C485.17 205.704 478.035 201.904 472.921 204.495C467.807 207.087 466.645 215.083 470.329 222.358C473.455 228.53 487.611 249.74 495.293 255.144C495.653 255.465 496.071 255.714 496.525 255.876C497.087 256.212 497.757 256.32 498.396 256.178C501.232 256.178 504.928 254.237 508.019 250.972C511.111 247.706 521.187 236.944 528.811 227.007L529.032 226.868C531.983 224.421 534.337 221.333 535.912 217.837C537.132 215.06 537.167 209.458 536.784 208.819Z" fill="url(#paint9_linear)"/>
    <path d="M461.741 420.338L463.031 436.749L461.602 444.744C461.547 445.069 461.562 445.401 461.645 445.719C461.728 446.037 461.878 446.334 462.085 446.59C462.291 446.846 462.55 447.055 462.843 447.204C463.136 447.352 463.458 447.437 463.787 447.452C470.504 447.662 487.716 448.115 488.193 447.371C490.354 443.884 481.289 440.026 473.421 436.911C466.297 434.075 471.201 409.832 471.201 409.832L461.741 420.338Z" fill="url(#paint10_linear)"/>
    <path d="M483.765 287.744C484.021 299.18 478.477 371.631 468.517 371.852C459.649 372.049 451.921 299.877 451.665 288.464C451.409 277.051 458.383 267.649 467.25 267.44C476.118 267.231 483.474 276.331 483.765 287.744Z" fill="#0091C8"/>
    <path d="M458.429 356.696C457.545 362.972 455.372 403.184 456.778 423.651H470.562C473.514 401.72 476.257 365.401 477.117 359.253C477.117 359.172 477.117 359.102 477.117 359.021C481.94 337.695 483.927 296.158 483.73 287.743C483.474 276.331 476.071 267.254 467.215 267.451C458.359 267.649 451.374 277.063 451.63 288.476C451.827 295.635 458.847 353.721 458.429 356.696Z" fill="#1F285A"/>
    <path d="M437.475 420.339L438.346 436.749L436.986 444.803C436.932 445.127 436.947 445.459 437.03 445.778C437.113 446.096 437.263 446.393 437.47 446.649C437.676 446.904 437.935 447.114 438.228 447.262C438.521 447.411 438.843 447.496 439.171 447.511C445.889 447.72 463.101 448.173 463.577 447.429C465.739 443.943 455.965 440.131 448.806 437.365C441.647 434.599 449.771 409.879 449.771 409.879L437.475 420.339Z" fill="url(#paint11_linear)"/>
    <path d="M439.066 356.697C438.182 362.972 434.335 400.5 434.149 423.651H448.34C452.675 403.824 456.475 365.401 457.347 359.253C457.347 359.172 457.347 359.102 457.347 359.021C462.17 337.695 466.482 295.89 466.284 287.476C466.028 276.063 456.719 267.254 447.852 267.452C438.984 267.649 433.905 276.749 434.184 288.208C434.382 295.367 439.484 353.721 439.066 356.697Z" fill="#2C335B"/>
    <path d="M461.195 447.836H487.519C487.803 447.839 488.079 447.748 488.306 447.578C488.533 447.408 488.698 447.168 488.774 446.895L489.378 444.57L461.184 446.616L461.195 447.836Z" fill="#1D1D1B"/>
    <path d="M462.171 440.654L474.049 443.582C474.495 441.504 475.44 439.565 476.803 437.934L488.913 443.582C489.031 443.634 489.137 443.712 489.221 443.81C489.306 443.908 489.368 444.023 489.402 444.148C489.437 444.272 489.443 444.403 489.421 444.53C489.398 444.658 489.348 444.778 489.273 444.884C488.111 446.523 487.333 446.755 487.333 446.755H461.288C460.911 446.413 460.613 445.993 460.416 445.523C460.912 443.869 461.498 442.244 462.171 440.654Z" fill="#444444"/>
    <path d="M481.963 200.532C481.363 199.498 480.558 198.597 479.597 197.884C478.637 197.171 477.542 196.661 476.378 196.386C475.214 196.111 474.006 196.076 472.828 196.283C471.651 196.49 470.527 196.936 469.527 197.592C467.427 198.882 465.926 200.954 465.353 203.351C464.779 205.748 465.182 208.275 466.471 210.376C468.797 214.156 471.339 217.8 474.083 221.289C475.908 223.613 477.674 226.914 479.662 229.099C480.928 227.553 492.446 224.345 495.642 222.962C495.642 222.962 485.31 204.762 482.753 201.52C482.614 201.253 481.963 200.532 481.963 200.532Z" fill="#7C221E"/>
    <path d="M442.077 196.035L434.569 197.197C432.162 197.22 429.85 198.138 428.084 199.773C426.318 201.409 425.224 203.643 425.016 206.041C424.633 217.663 435.185 236.955 433.64 257.306C432.245 275.726 426.434 292.834 430.409 297.855C430.409 297.855 474.491 296.692 484.799 288.232C488.135 285.5 485.206 260.792 483.637 244.533C482.068 228.274 482.545 212.305 481.65 203.008C481.232 198.626 475.781 195.256 470.702 195.256H465.158L442.077 196.035Z" fill="#AE302A"/>
    <path d="M483.905 254.977L434.197 261.455L434.292 262.472L484 255.993L483.905 254.977Z" fill="white"/>
    <path d="M483.867 259.417L434.158 265.885L434.252 266.902L483.961 260.434L483.867 259.417Z" fill="white"/>
    <path d="M483.807 263.896L434.099 270.375L434.194 271.391L483.902 264.913L483.807 263.896Z" fill="white"/>
    <path d="M483.765 268.337L434.056 274.805L434.15 275.822L483.859 269.354L483.765 268.337Z" fill="white"/>
    <path d="M483.708 272.816L434 279.295L434.094 280.311L483.803 273.833L483.708 272.816Z" fill="white"/>
    <path d="M436.301 448.231H462.625C462.908 448.234 463.185 448.143 463.412 447.973C463.639 447.803 463.803 447.563 463.88 447.29L464.484 444.965L436.301 447.069V448.231Z" fill="#1D1D1B"/>
    <path d="M437.265 441.061L449.142 443.978C449.588 441.899 450.534 439.961 451.897 438.33L463.995 443.943C464.113 443.995 464.219 444.073 464.303 444.171C464.388 444.268 464.45 444.384 464.484 444.508C464.519 444.633 464.525 444.764 464.503 444.891C464.48 445.018 464.43 445.139 464.355 445.245C463.193 446.883 462.414 447.116 462.414 447.116H436.393C435.835 446.674 436.335 445.07 436.335 445.07C436.732 443.756 437.042 442.416 437.265 441.061Z" fill="#565656"/>
    <path d="M455.035 202.578C454.051 202.54 453.085 202.304 452.195 201.882C451.306 201.46 450.511 200.863 449.859 200.125C449.207 199.387 448.711 198.525 448.402 197.59C448.094 196.655 447.978 195.667 448.062 194.686L449.41 179.171L462.74 181.007L462.554 195.395C462.542 196.364 462.337 197.32 461.951 198.208C461.565 199.096 461.005 199.898 460.305 200.567C459.604 201.236 458.777 201.759 457.873 202.104C456.968 202.449 456.003 202.61 455.035 202.578Z" fill="url(#paint12_linear)"/>
    <path d="M455.476 304.374C453.256 302.747 450.932 300.632 452.094 299.854C453.256 299.075 457.127 302.457 458.684 301.911C460.241 301.364 454.035 296.902 454.035 296.902C452.874 295.545 451.582 294.307 450.177 293.206C446.934 290.451 440.379 286.082 432.837 275.877C418.774 256.445 419.541 232.876 439.635 211.852C446.516 204.658 434.917 192.176 426.909 200.3C401.632 225.961 396.855 270.032 444.342 296.135C444.423 296.529 444.532 296.918 444.668 297.297C446.171 300.827 448.46 303.968 451.362 306.478C453.686 308.454 459.102 310.092 459.788 309.895C462.322 309.128 457.661 306.002 455.476 304.374Z" fill="url(#paint13_linear)"/>
    <path d="M446.283 174.848H445.365C445.365 174.696 445.365 174.557 445.365 174.406C445.706 173.336 446.187 172.317 446.795 171.373C446.451 172.499 446.279 173.67 446.283 174.848Z" fill="url(#paint14_linear)"/>
    <path d="M470.039 180.566C469.534 183.143 468.246 185.503 466.352 187.323C464.458 189.143 462.049 190.335 459.454 190.738C456.858 191.14 454.201 190.733 451.845 189.573C449.488 188.412 447.547 186.553 446.284 184.25C445.693 184.432 445.067 184.468 444.46 184.354C443.518 184.185 442.67 183.677 442.078 182.926C441.485 182.175 441.187 181.233 441.242 180.277C441.296 179.322 441.698 178.419 442.372 177.74C443.047 177.061 443.946 176.652 444.901 176.591C444.896 176.51 444.896 176.428 444.901 176.347C444.896 176.424 444.896 176.502 444.901 176.579C445.199 176.547 445.499 176.547 445.796 176.579C446.744 176.757 447.592 177.278 448.179 178.044C449.12 176.452 449.236 172.849 456.732 172.942C458.819 174.042 461.021 174.907 463.299 175.522C465.451 176.2 467.777 176.072 469.842 175.161C470.297 176.927 470.365 178.771 470.039 180.566Z" fill="#EB956C"/>
    <path d="M446.399 165.213C447.259 163.481 449.596 162.633 452.129 162.772H453.408C454.407 162.772 455.627 162.772 456.964 162.772H462.879C468.342 162.772 473.572 162.656 473.572 162.656C473.572 162.656 473.572 168.909 472.561 172.21C472.341 172.856 471.988 173.45 471.523 173.951C471.058 174.451 470.493 174.848 469.864 175.115C467.799 176.025 465.474 176.153 463.321 175.475C461.044 174.861 458.841 173.995 456.755 172.895C449.258 172.802 449.142 176.382 448.201 177.997C447.615 177.232 446.766 176.71 445.818 176.533C445.521 176.501 445.221 176.501 444.923 176.533C444.918 176.455 444.918 176.378 444.923 176.3C444.215 172.884 445.598 166.817 446.399 165.213Z" fill="#540101"/>
    <path d="M428.583 229.739C432.451 223.701 436.649 217.881 441.158 212.306C441.158 212.306 445.33 207.494 440.67 200.533C436.951 194.977 429.501 197.871 429.501 197.871C428.537 198.208 419.448 204.077 411.72 220.034C411.731 220.092 427.863 230.982 428.583 229.739Z" fill="#7C221E"/>
    <path d="M533.527 204.638L535.016 205.201C535.304 205.31 535.538 205.529 535.664 205.81C535.791 206.091 535.801 206.411 535.692 206.699L529.877 222.082C529.768 222.37 529.549 222.603 529.268 222.73C528.987 222.857 528.667 222.867 528.378 222.758L526.857 222.183L533.494 204.626L533.527 204.638Z" fill="#393762"/>
    <path d="M494.388 146.316C502.745 146.316 509.519 139.541 509.519 131.184C509.519 122.827 502.745 116.052 494.388 116.052C486.031 116.052 479.256 122.827 479.256 131.184C479.256 139.541 486.031 146.316 494.388 146.316Z" fill="#FDCDCA"/>
    <path d="M460.358 106.732C465.634 106.732 469.911 102.454 469.911 97.1783C469.911 91.9021 465.634 87.625 460.358 87.625C455.082 87.625 450.805 91.9021 450.805 97.1783C450.805 102.454 455.082 106.732 460.358 106.732Z" fill="#FDCDCA"/>
    <path d="M496.293 67.1007C501.569 67.1007 505.846 62.8235 505.846 57.5474C505.846 52.2713 501.569 47.9941 496.293 47.9941C491.016 47.9941 486.739 52.2713 486.739 57.5474C486.739 62.8235 491.016 67.1007 496.293 67.1007Z" fill="#FDCDCA"/>
    <path d="M356.977 398.078C356.564 400.944 339.329 413.02 335.93 415.406C333.079 417.288 329.979 418.759 326.719 419.778C317.389 422.244 258.62 439.772 258.62 439.772C258.5 439.155 258.303 438.555 258.033 437.986C255.834 438.866 253.581 439.426 252.155 439.879C249.969 440.559 232.614 441.105 229.055 441.798C225.496 442.492 218.392 443.571 215.526 440.839C212.66 438.106 217.299 432.228 221.271 430.722C225.243 429.215 239.719 428.802 242.318 428.536C244.917 428.269 248.329 427.309 249.969 427.856C250.489 428.029 252.781 427.363 255.674 426.363C255.607 425.297 255.581 424.63 255.581 424.63L271.003 420.178L268.137 392.88C268.137 392.88 274.801 367.554 301.66 386.882C301.66 386.882 307.645 388.641 309.658 389.187C309.883 389.222 310.112 389.222 310.337 389.187C314.43 388.881 331.998 383.563 338.329 383.563C345.167 383.563 347.353 383.149 349.806 384.389C352.258 385.629 357.39 395.199 356.977 398.078Z" fill="#F59E35"/>
    <path d="M329.518 440.852C326.652 443.585 319.534 442.492 315.988 441.812C312.443 441.132 295.075 440.585 292.889 439.892C290.703 439.199 286.597 438.253 283.731 436.333C283.241 436.066 282.728 435.843 282.198 435.667L277.853 438.799L217.498 419.592C214.428 418.836 211.562 417.416 209.1 415.433C205.955 412.7 188.467 400.944 188.027 398.078C187.587 395.212 192.692 385.642 195.158 384.442C197.624 383.243 199.81 383.616 206.634 383.616C213.459 383.616 233.346 389.774 235.346 389.188C236.962 388.581 238.523 387.836 240.011 386.962C242.197 385.762 244.25 384.549 244.25 384.549C273.574 371.446 276.867 392.88 276.867 392.88L275.134 419.352C275.134 419.352 277.587 420.565 280.759 422.018L295.301 426.123L293.395 427.456C293.911 427.681 294.472 427.786 295.035 427.763C296.674 427.216 300.086 428.176 302.686 428.442C305.285 428.709 319.774 429.122 323.733 430.628C327.691 432.135 332.383 438.12 329.518 440.852Z" fill="#F59E35"/>
    <path d="M240.011 386.961C242.037 387.108 255.713 394.959 258.952 396.918C254.02 394.346 235.319 389.187 235.319 389.187C236.944 388.582 238.514 387.837 240.011 386.961Z" fill="#5478B3"/>
    <path d="M310.378 389.214C310.378 389.214 286.811 394.933 282.506 397.332C282.706 397.185 294.929 387.895 301.34 386.668C301.34 386.668 307.645 388.655 309.698 389.201C309.923 389.235 310.152 389.235 310.378 389.201V389.214Z" fill="#5478B3"/>
    <path d="M329.517 440.852C326.651 443.585 319.533 442.492 315.988 441.812C312.442 441.132 295.074 440.586 292.888 439.892L290.662 439.226C288.248 438.6 285.936 437.63 283.797 436.347C283.307 436.08 282.794 435.857 282.265 435.68L293.181 427.803L293.501 427.576C294.017 427.801 294.578 427.906 295.141 427.883C296.78 427.336 300.193 428.296 302.792 428.563C305.391 428.829 319.88 429.242 323.839 430.749C327.798 432.255 332.383 438.12 329.517 440.852Z" fill="#EEA886"/>
    <path d="M329.518 440.852C326.652 443.585 319.534 442.492 315.989 441.812C312.443 441.132 295.075 440.586 292.889 439.892L290.663 439.226C292.065 437.718 293.038 435.862 293.481 433.851C293.923 431.84 293.82 429.747 293.182 427.789L293.502 427.563C294.018 427.788 294.579 427.893 295.142 427.869C296.781 427.323 300.193 428.283 302.793 428.549C305.392 428.816 319.881 429.229 323.84 430.735C327.798 432.241 332.384 438.12 329.518 440.852Z" fill="#565656"/>
    <path d="M246.023 392.986C246.023 393.053 246.023 393.12 246.023 393.146C245.73 393.36 245.77 393.266 246.023 392.986Z" fill="#E55353"/>
    <path d="M325.026 361.036C324.799 360.569 312.35 341.042 309.031 332.058C305.712 323.074 297.487 319.022 293.662 317.796L287.29 315.716L277.613 312.597H261.618C261.618 312.597 256.153 314.41 250.288 316.463C244.877 318.355 239.185 320.461 237.265 321.395C233.267 323.394 226.509 337.71 225.149 339.349C223.79 340.989 213.259 360.449 211.74 367.954C210.567 373.765 245.063 390.8 246.023 392.986C247.116 391.773 252.141 386.948 252.141 386.948C252.141 386.948 250.541 385.948 248.262 384.442C257.513 384.869 280.106 384.069 283.345 384.229C284.042 384.273 284.741 384.273 285.438 384.229C286.437 384.962 292.915 390.68 292.915 390.68C292.915 390.68 308.911 384.016 316.202 376.645C326.652 366.088 326.172 363.355 325.026 361.036ZM234.386 373.992C230.974 369.887 226.269 367.407 227.442 365.595C228.615 363.782 238.678 346.454 238.678 346.454C238.678 346.454 243.877 357.837 245.343 363.782C246.809 369.727 246.676 372.419 246.076 374.259C245.215 376.738 244.713 379.328 244.583 381.95C240.425 379.111 235.919 375.872 234.346 373.992H234.386ZM304.885 372.033C303.552 373.552 298.221 376.925 293.475 379.697C293.115 376.391 292.569 371.193 292.502 369.327C292.409 366.501 293.595 358.397 295.048 355.291C296.501 352.185 297.514 343.721 297.514 343.721C297.514 343.721 309.59 360.13 311.497 361.849C313.403 363.569 309.324 366.888 304.859 372.033H304.885Z" fill="#9595CB"/>
    <path d="M277.787 312.611C277.014 310.878 277.387 302.4 277.387 302.4C277.387 302.4 261.498 298.402 261.951 301.454C262.405 304.506 260.618 312.984 260.618 312.984L252.474 315.77C252.474 315.77 261.152 339.083 271.135 336.07C281.119 333.058 284.825 314.877 284.825 314.877L277.787 312.611Z" fill="#E58057"/>
    <path d="M282.318 286.685C282.318 286.685 283.651 286.233 284.184 287.685C284.718 289.138 282.318 294.683 282.238 295.056C282.238 295.056 281.985 295.629 281.665 295.31C281.345 294.99 282.318 286.685 282.318 286.685Z" fill="#EEA886"/>
    <path d="M256.966 286.472C256.966 286.472 255.633 285.993 255.1 287.472C254.567 288.952 256.793 294.563 256.886 294.883C256.886 294.883 257.126 295.456 257.459 295.15C257.792 294.843 256.966 286.472 256.966 286.472Z" fill="#EEA886"/>
    <path d="M271.521 276.096C271.521 276.096 283.642 277.682 281.812 293.483C279.982 309.283 269.251 307.988 268.537 307.966C267.823 307.945 257.779 308.258 257.001 288.96C257.001 288.971 256.65 274.703 271.521 276.096Z" fill="#EB956C"/>
    <path d="M253.208 412.434C253.208 412.434 234.12 400.997 225.776 399.198C217.898 397.492 215.019 394.546 215.019 394.546C215.019 394.546 227.549 394.546 235.893 400.464C241.545 404.516 253.208 412.434 253.208 412.434Z" fill="#B57433"/>
    <path d="M270.162 420.431C270.162 420.431 303.365 402.997 316.921 399.211C324.679 397.038 327.678 394.559 327.678 394.559C327.678 394.559 307.151 396.572 294.661 404.09C288.716 407.675 270.162 420.431 270.162 420.431Z" fill="#B57433"/>
    <path d="M282.305 289.685L280.519 292.071C280.567 290.05 280.487 288.029 280.279 286.019C279.986 285.193 279.559 282.687 279.32 282.1C279.08 281.514 268.656 278.568 259.326 282.953C259.326 282.953 259.725 286.712 258.846 287.045C257.966 287.379 258.393 293.177 258.393 293.177L256.926 291.524C256.926 291.524 254.674 276.515 255.273 274.956C255.873 273.396 257.593 263.986 276.6 269.624C276.6 269.624 282.519 268.371 283.705 272.45C284.891 276.529 282.305 289.685 282.305 289.685Z" fill="#010103"/>
    <path d="M258.033 438.013C255.834 438.893 253.581 439.452 252.155 439.906C249.969 440.585 232.614 441.132 229.055 441.825C225.496 442.518 218.392 443.598 215.526 440.865C212.66 438.133 217.299 432.255 221.271 430.748C225.243 429.242 239.719 428.829 242.318 428.562C244.917 428.296 248.329 427.336 249.969 427.883C250.489 428.056 252.781 427.389 255.674 426.39C255.754 428.109 258.033 438.013 258.033 438.013Z" fill="#E58057"/>
    <path d="M270.162 436.36L302.805 426.696L296.354 424.724C296.354 424.724 270.268 434.187 270.162 436.36Z" fill="#E58057"/>
    <path d="M270.162 436.36L285.437 431.695L274.84 437.853L270.162 436.36Z" fill="#B57433"/>
    <path d="M259.672 397.318L258.979 396.918C259.218 397.037 259.45 397.171 259.672 397.318Z" fill="#525252"/>
    <path d="M252.14 439.906C249.954 440.585 232.599 441.132 229.04 441.825C225.481 442.518 218.377 443.598 215.511 440.865C212.645 438.133 217.284 432.255 221.256 430.748C225.228 429.242 239.704 428.829 242.303 428.562C244.902 428.296 248.314 427.336 249.954 427.883C248.738 429.794 248.287 432.093 248.693 434.322C249.098 436.551 250.329 438.545 252.14 439.906Z" fill="#565656"/>
    <path d="M241.343 394.559L236.331 365.954L301.325 364.448L297.167 392.613C297.167 392.613 276.413 400.211 269.362 404.61C269.335 404.636 251.567 397.318 241.343 394.559Z" fill="#BCC1C9"/>
    <path d="M269.55 387.481C271.559 387.481 273.188 385.566 273.188 383.203C273.188 380.839 271.559 378.924 269.55 378.924C267.54 378.924 265.911 380.839 265.911 383.203C265.911 385.566 267.54 387.481 269.55 387.481Z" fill="#F2F2F2"/>
    <path d="M180 389C204.301 389 224 369.077 224 344.5C224 319.923 204.301 300 180 300C155.699 300 136 319.923 136 344.5C136 369.077 155.699 389 180 389Z" fill="#1F285A"/>
    <path d="M172 389C196.301 389 216 369.077 216 344.5C216 319.923 196.301 300 172 300C147.699 300 128 319.923 128 344.5C128 369.077 147.699 389 172 389Z" fill="#273271"/>
    <defs>
        <linearGradient id="paint0_linear" x1="41191.1" y1="12156.8" x2="42112.5" y2="12156.8" gradientUnits="userSpaceOnUse">
            <stop offset="0.07" stop-color="#BF0909"/>
            <stop offset="0.8" stop-color="#E94E1B"/>
        </linearGradient>
        <linearGradient id="paint1_linear" x1="48245.7" y1="5719.18" x2="48874.3" y2="6328.35" gradientUnits="userSpaceOnUse">
            <stop offset="0.07" stop-color="#BF0909"/>
            <stop offset="0.8" stop-color="#E94E1B"/>
        </linearGradient>
        <linearGradient id="paint2_linear" x1="24381" y1="2403.17" x2="24274.7" y2="2259.15" gradientUnits="userSpaceOnUse">
            <stop offset="0.07" stop-color="#ECDFCF"/>
            <stop offset="0.8" stop-color="#E58057"/>
        </linearGradient>
        <linearGradient id="paint3_linear" x1="35.9027" y1="1038.67" x2="52.8906" y2="1057.85" gradientUnits="userSpaceOnUse">
            <stop stop-color="#576ABD"/>
            <stop offset="1" stop-color="#1D154F"/>
        </linearGradient>
        <linearGradient id="paint4_linear" x1="89.7724" y1="1038.67" x2="106.76" y2="1057.85" gradientUnits="userSpaceOnUse">
            <stop stop-color="#576ABD"/>
            <stop offset="1" stop-color="#1D154F"/>
        </linearGradient>
        <linearGradient id="paint5_linear" x1="143.629" y1="1038.67" x2="160.617" y2="1057.85" gradientUnits="userSpaceOnUse">
            <stop stop-color="#576ABD"/>
            <stop offset="1" stop-color="#1D154F"/>
        </linearGradient>
        <linearGradient id="paint6_linear" x1="1326.43" y1="1161.17" x2="1339.95" y2="1176.49" gradientUnits="userSpaceOnUse">
            <stop stop-color="#576ABD"/>
            <stop offset="1" stop-color="#1D154F"/>
        </linearGradient>
        <linearGradient id="paint7_linear" x1="1370.31" y1="1161.17" x2="1383.88" y2="1176.49" gradientUnits="userSpaceOnUse">
            <stop stop-color="#576ABD"/>
            <stop offset="1" stop-color="#1D154F"/>
        </linearGradient>
        <linearGradient id="paint8_linear" x1="1414.24" y1="1161.17" x2="1427.76" y2="1176.49" gradientUnits="userSpaceOnUse">
            <stop stop-color="#576ABD"/>
            <stop offset="1" stop-color="#1D154F"/>
        </linearGradient>
        <linearGradient id="paint9_linear" x1="-83964.3" y1="13093" x2="-79888.6" y2="13093" gradientUnits="userSpaceOnUse">
            <stop offset="0.07" stop-color="#ECDFCF"/>
            <stop offset="0.8" stop-color="#E58057"/>
        </linearGradient>
        <linearGradient id="paint10_linear" x1="-31267" y1="16775.9" x2="-31267" y2="15881.5" gradientUnits="userSpaceOnUse">
            <stop offset="0.07" stop-color="#ECDFCF"/>
            <stop offset="0.8" stop-color="#E58057"/>
        </linearGradient>
        <linearGradient id="paint11_linear" x1="-31839.9" y1="16781" x2="-31839.9" y2="15886.3" gradientUnits="userSpaceOnUse">
            <stop offset="0.07" stop-color="#ECDFCF"/>
            <stop offset="0.8" stop-color="#E58057"/>
        </linearGradient>
        <linearGradient id="paint12_linear" x1="-16342.9" y1="5421.48" x2="-16225" y2="5067.51" gradientUnits="userSpaceOnUse">
            <stop offset="0.07" stop-color="#ECDFCF"/>
            <stop offset="0.8" stop-color="#E58057"/>
        </linearGradient>
        <linearGradient id="paint13_linear" x1="-66113.6" y1="30023.3" x2="-63752.3" y2="30023.3" gradientUnits="userSpaceOnUse">
            <stop offset="0.07" stop-color="#ECDFCF"/>
            <stop offset="0.8" stop-color="#E58057"/>
        </linearGradient>
        <linearGradient id="paint14_linear" x1="551.271" y1="858.514" x2="548.34" y2="851.793" gradientUnits="userSpaceOnUse">
            <stop offset="0.07" stop-color="#ECDFCF"/>
            <stop offset="0.8" stop-color="#E58057"/>
        </linearGradient>
    </defs>
</svg>
