<svg width="13" height="25" viewBox="0 0 13 25" fill="none" xmlns="http://www.w3.org/2000/svg">
    <path d="M12.4874 0.292103L9.37513 0.287109C5.87864 0.287109 3.61906 2.60539 3.61906 6.19354V8.9168H0.489856C0.219456 8.9168 0.000488281 9.13602 0.000488281 9.40642V13.3521C0.000488281 13.6225 0.219705 13.8415 0.489856 13.8415H3.61906V23.7977C3.61906 24.0681 3.83803 24.2871 4.10843 24.2871H8.19116C8.46156 24.2871 8.68052 24.0679 8.68052 23.7977V13.8415H12.3393C12.6097 13.8415 12.8287 13.6225 12.8287 13.3521L12.8302 9.40642C12.8302 9.27659 12.7785 9.15225 12.6869 9.06037C12.5952 8.96849 12.4704 8.9168 12.3405 8.9168H8.68052V6.60826C8.68052 5.49868 8.94493 4.9354 10.3903 4.9354L12.4869 4.93465C12.757 4.93465 12.976 4.71544 12.976 4.44528V0.781476C12.976 0.511572 12.7573 0.292602 12.4874 0.292103Z" fill="#273271"/>
</svg>
