<svg width="1280" height="958" viewBox="0 0 1280 958" fill="none" xmlns="http://www.w3.org/2000/svg">
    <path fill-rule="evenodd" clip-rule="evenodd" d="M1094.75 436.503C1238.03 487.797 1258.91 663.598 1326.72 787.176C1389.48 901.574 1476.47 963.272 1475.2 1079.89C1473.88 1201.57 1415.13 1310.2 1319.68 1383.81C1225.74 1456.25 1092.58 1479.57 956.081 1480.22C822.456 1480.86 672.539 1470.8 557.816 1387.46C447.905 1307.62 116.654 1240.23 42.3332 1134.85C-40.2095 1017.8 -123.739 904.957 -105.575 748.057C-87.4103 591.156 230 683.855 390.012 645.575C550.023 607.295 618.671 591.049 707.361 565.437C842.651 526.369 944.741 382.797 1094.75 436.503Z" fill="#F1F1FB"/>
</svg>
