<svg width="1280" height="371" viewBox="0 0 1280 371" fill="none" xmlns="http://www.w3.org/2000/svg">
    <path fill-rule="evenodd" clip-rule="evenodd" d="M129.682 24.7748C-13.5909 76.0688 27.3074 88.8467 -40.4984 212.425C-103.267 326.822 -190.255 388.521 -188.986 505.135C-187.663 626.819 -128.91 735.45 -33.466 809.054C60.4785 881.502 193.64 904.814 330.137 905.469C463.762 906.111 613.678 896.046 728.401 812.712C838.312 732.874 1169.56 665.483 1243.88 560.097C1326.43 443.052 1409.96 330.206 1391.79 173.305C1375.75 34.7048 981.019 71.8904 889.16 82.4502C876.365 83.9209 863.842 84.6659 850.969 84.3028C792.243 82.6461 614.668 75.9953 541.182 54.7745C405.892 15.7063 279.694 -28.9317 129.682 24.7748Z" fill="#F1F1FB"/>
</svg>
