<svg width="222" height="560" viewBox="0 0 222 560" fill="none" xmlns="http://www.w3.org/2000/svg">
    <path fill-rule="evenodd" clip-rule="evenodd" d="M142.541 95.619C202.219 105.876 270.431 41.3538 318.849 77.718C364.992 112.374 339.313 187.409 341.539 245.075C343.584 298.086 370.874 364.679 331.286 399.995C288.858 437.843 215.127 375.966 164.914 402.634C107.555 433.098 111.389 552.199 46.4484 551.273C-12.7622 550.429 -17.1996 455.318 -37.6545 399.746C-51.0587 363.33 -49.0273 325.711 -50.8445 286.949C-52.5263 251.078 -53.9543 217.287 -47.8678 181.896C-38.2851 126.176 -56.7779 45.3423 -5.28001 22.0078C46.116 -1.28045 86.9307 86.0608 142.541 95.619Z" fill="#FEF4F3"/>
</svg>
