<svg width="235" height="29" viewBox="0 0 235 29" fill="none" xmlns="http://www.w3.org/2000/svg">
    <path d="M13.5074 10.7144L23.9384 0.389364H26.9793V28.2881H20.2257V13.9321L13.5074 20.5797L6.75368 13.9674V28.2527H0V0.354004H3.04092L13.5074 10.7144Z" fill="#273271"/>
    <path d="M30.4443 28.2525L42.4312 0.35376H45.4721L57.5651 28.2525H50.8114L49.2203 24.6104H38.7185L37.1627 28.2525H30.4443ZM41.3704 18.4225H46.6037L43.987 12.2699L41.3704 18.4225Z" fill="#273271"/>
    <path d="M60.9242 0.35376H67.6779V28.2525H60.9242V0.35376Z" fill="#273271"/>
    <path d="M72.8403 0.35376H79.5939V20.8977H88.8228V28.2525H72.8403V0.35376Z" fill="#273271"/>
    <path d="M93.6318 0.35376H109.72V6.36488H100.385V10.8909H108.624V17.1495H100.385V28.2878H93.6318V0.35376Z" fill="#273271"/>
    <path d="M114.53 0.35376H121.284V28.2525H114.53V0.35376Z" fill="#273271"/>
    <path d="M141.331 28.2525L137.371 20.8623H133.163V28.2525H126.445V0.35376H137.265C142.463 0.35376 146.706 4.9505 146.706 10.608C146.706 13.5782 145.504 16.2656 143.665 18.1043L149.075 28.2525H141.331ZM133.163 14.5329H137.336C139.387 14.5329 141.048 12.8003 141.048 10.5373C141.048 8.2743 139.387 6.54168 137.336 6.54168H133.163V14.5329Z" fill="#273271"/>
    <path d="M152.399 0.35376H168.346V6.40024H159.153V10.9263H167.286V17.1495H159.153V22.2767H168.346V28.2525H152.399V0.35376Z" fill="#273271"/>
    <path d="M235 0H175.914V28.2523H235V0Z" fill="white"/>
    <path d="M205.439 3.96027L199.393 0H211.486L205.439 3.96027Z" fill="#F8443C"/>
    <path d="M214.315 0H223.225L205.439 11.5272L187.689 0H196.529L205.439 5.86969L214.315 0Z" fill="#F8443C"/>
    <path d="M226.054 0H235L205.439 19.271L175.914 0H184.754L205.439 13.5074L226.054 0Z" fill="#F8443C"/>
    <path d="M175.879 2.01538V7.67291L205.44 26.8024L235 7.63755V2.05074L205.44 21.251L175.879 2.01538Z" fill="#273271"/>
    <path d="M204.627 28.2523L175.879 9.54712V15.2046L196.034 28.2523" fill="#273271"/>
    <path d="M214.845 28.2522L235 15.2045V9.61768L206.288 28.2522H214.845Z" fill="#273271"/>
    <path d="M226.513 28.2524L235 22.7363V17.1848L217.921 28.2524H226.513Z" fill="#273271"/>
    <path d="M192.993 28.2523L175.879 17.114V22.7715L184.366 28.2523H192.993Z" fill="#273271"/>
    <path d="M234.999 28.2523V24.7517L229.589 28.2523H234.999Z" fill="#273271"/>
    <path d="M181.89 28.2523L175.879 24.3628V28.2523H181.89Z" fill="#273271"/>
</svg>
