<svg width="320" height="645" viewBox="0 0 320 645" fill="none" xmlns="http://www.w3.org/2000/svg">
    <path d="M0 0H320V581C320 581 368.695 651.583 285.5 644C255.526 641.268 167.658 597.414 122.5 606C51.5 619.5 10.9798 604.423 0 581V0Z" fill="#F1F1FB"/>
    <path opacity="0.62" d="M206.443 301.605L202.817 297.975L204.169 296.417C203.559 295.416 203.107 294.327 202.829 293.189L200.769 293.037V287.896L202.829 287.744C203.107 286.606 203.559 285.517 204.169 284.516L202.817 282.958L206.443 279.329L208.001 280.68C209.002 280.07 210.091 279.618 211.229 279.34L211.381 277.28H216.526L216.678 279.34C217.816 279.618 218.905 280.07 219.906 280.68L221.464 279.329L225.089 282.958L223.738 284.516C224.348 285.517 224.8 286.606 225.078 287.744L227.138 287.896V293.025L225.078 293.177C224.8 294.316 224.348 295.405 223.738 296.405L225.089 297.963L221.464 301.593L219.906 300.241C218.905 300.852 217.816 301.303 216.678 301.581L216.526 303.641H211.397L211.245 301.581C210.106 301.303 209.017 300.852 208.016 300.241L206.443 301.605ZM217.102 295.884C218.304 295.192 219.244 294.123 219.777 292.842C220.309 291.561 220.403 290.14 220.045 288.8C219.687 287.46 218.897 286.276 217.797 285.431C216.696 284.586 215.348 284.128 213.961 284.128C212.574 284.128 211.226 284.586 210.126 285.431C209.026 286.276 208.235 287.46 207.877 288.8C207.519 290.14 207.614 291.561 208.146 292.842C208.678 294.123 209.618 295.192 210.82 295.884C211.774 296.44 212.858 296.733 213.961 296.733C215.065 296.733 216.149 296.44 217.102 295.884V295.884Z" fill="#F96963"/>
    <path opacity="0.75" d="M229.175 340.272L222.605 333.698L225.051 330.863C223.946 329.052 223.128 327.082 222.625 325.021L218.894 324.745V315.457L222.625 315.18C223.128 313.12 223.947 311.149 225.051 309.339L222.605 306.503L229.175 299.93L232.01 302.375C233.821 301.271 235.791 300.453 237.852 299.949L238.128 296.218H247.42L247.697 299.949C249.757 300.453 251.728 301.271 253.538 302.375L256.374 299.93L262.94 306.496L260.494 309.331C261.599 311.141 262.417 313.112 262.92 315.172L266.651 315.449V324.741L262.92 325.017C262.417 327.078 261.599 329.048 260.494 330.859L262.947 333.698L256.381 340.264L253.546 337.818C251.735 338.923 249.765 339.741 247.705 340.244L247.428 343.975H238.132L237.856 340.244C235.795 339.741 233.825 338.923 232.014 337.818L229.175 340.272ZM248.464 329.913C250.64 328.66 252.342 326.725 253.305 324.406C254.268 322.088 254.439 319.516 253.791 317.09C253.143 314.665 251.712 312.521 249.721 310.992C247.729 309.463 245.289 308.634 242.778 308.634C240.268 308.634 237.827 309.463 235.836 310.992C233.845 312.521 232.414 314.665 231.766 317.09C231.118 319.516 231.288 322.088 232.252 324.406C233.215 326.725 234.916 328.66 237.092 329.913C238.819 330.918 240.781 331.448 242.778 331.448C244.776 331.448 246.738 330.918 248.464 329.913V329.913Z" fill="#F96963"/>
    <path d="M157.621 238.616C156.842 238.616 156.211 237.939 156.211 237.105C156.211 236.27 156.842 235.594 157.621 235.594C158.4 235.594 159.031 236.27 159.031 237.105C159.031 237.939 158.4 238.616 157.621 238.616Z" fill="#320E0C"/>
    <path d="M150.646 251.401L164.506 251.662L163.902 245.431C163.846 244.529 163.682 243.638 163.412 242.775C162.419 240.022 160.195 237.997 157.461 238.001C154.194 238.028 151.429 240.89 151.09 244.372C150.887 246.526 150.646 251.401 150.646 251.401Z" fill="#4A1412"/>
    <path d="M150.05 287.564H168.533C168.834 287.564 169.123 287.445 169.337 287.231C169.55 287.018 169.67 286.729 169.67 286.427C169.67 286.126 169.55 285.836 169.337 285.623C169.123 285.41 168.834 285.29 168.533 285.29H150.05C149.9 285.29 149.753 285.32 149.615 285.377C149.477 285.434 149.351 285.518 149.246 285.623C149.14 285.729 149.056 285.854 148.999 285.992C148.942 286.13 148.913 286.278 148.913 286.427C148.913 286.729 149.032 287.018 149.246 287.231C149.459 287.445 149.748 287.564 150.05 287.564V287.564Z" fill="url(#paint0_linear)"/>
    <path d="M151.09 274.55L149.532 265.273C147.585 263.427 147.468 260.495 147.468 259.19V254.303C147.468 254.303 154.314 251.125 157.956 251.125C160.791 251.292 164.452 252.609 166.523 253.368C166.984 253.519 167.387 253.81 167.675 254.2C167.963 254.59 168.123 255.06 168.132 255.545V259.097C168.782 262.897 165.85 265.398 165.85 265.398L165.46 274.857L151.09 274.55Z" fill="#1F285A"/>
    <path d="M153.096 274.627H163.272V275.916H153.096V274.627Z" fill="#8C0E0E"/>
    <path d="M167.668 269.79V253.89C169.027 254.82 171.232 257.558 171.847 259.653C172.384 261.48 176.217 266.317 177.4 268.61C177.938 269.658 178.623 270.667 178.623 271.936C178.623 273.206 178.035 274.327 177.342 275.328C176.725 276.177 175.799 276.748 174.764 276.917C174.342 277.029 173.907 277.087 173.471 277.089H173.327C172.657 277.125 171.986 277.066 171.333 276.913C170.07 276.533 168.898 275.898 167.89 275.048L167.719 270.978L167.668 269.79Z" fill="#A6A6E2"/>
    <path d="M170.367 283.534L161.059 284.122L163.902 252.262C163.902 252.262 167.462 253.387 168.786 254.633C170.11 255.88 170.344 272.115 170.655 278.872L170.367 283.534Z" fill="#A6A6E2"/>
    <path d="M144.913 277.096C145.221 270.343 146.16 255.549 147.484 254.302C148.808 253.056 152.613 252.258 152.613 252.258L155.16 283.53L145.318 282.973L144.913 277.096Z" fill="#A6A6E2"/>
    <path d="M146.218 276.555C147.085 276.219 147.911 275.785 148.679 275.262L148.859 271.193L148.909 270.024L147.453 254.318C146.039 255.249 145.202 257.792 144.563 259.883C144.006 261.71 141.759 265.986 140.525 268.291C139.964 269.339 139.255 270.347 139.255 271.617C139.255 272.887 139.368 274.199 140.092 275.2C140.618 275.932 142.005 276.368 143.27 276.598L144.076 276.754C144.795 276.89 145.537 276.821 146.218 276.555V276.555Z" fill="#A6A6E2"/>
    <path d="M171.952 273.144C171.952 273.144 169.639 270.62 167.353 270.978L167.661 271.932C167.661 271.932 164.191 272.517 164 272.824C163.61 273.467 167.022 272.98 167.022 272.98C167.022 272.98 164.113 273.56 164.015 273.759C163.918 273.958 164.358 275.749 165.02 275.955C165.682 276.162 170.998 275.987 171.543 275.48C172.089 274.974 172.49 274.335 171.952 273.144Z" fill="url(#paint1_linear)"/>
    <path d="M146.144 273.864C146.187 273.561 146.323 273.28 146.533 273.058C146.912 272.577 147.33 272.129 147.784 271.718C148.761 270.83 149.914 269.919 150.031 269.549C150.097 269.343 150.58 269.724 150.514 269.938C150.458 270.199 150.37 270.451 150.253 270.69C150.128 270.881 149.474 271.555 149.474 271.555C149.474 271.555 153.314 271.107 153.567 271.368C154.194 272.018 150.728 272.22 150.728 272.22C150.728 272.22 153.684 271.967 153.843 272.131C154.003 272.294 154.069 274.137 153.493 274.518C152.916 274.9 148.652 275.936 147.122 275.722C146.44 275.632 146.097 274.88 146.144 273.864Z" fill="url(#paint2_linear)"/>
    <path d="M157.477 256.838C157.477 256.838 159.95 255.342 159.95 254.112V247.958H155.062V254.088C155.062 255.338 157.477 256.838 157.477 256.838Z" fill="url(#paint3_linear)"/>
    <path d="M152.808 245.232C152.826 246.494 153.341 247.697 154.241 248.581C155.14 249.465 156.352 249.96 157.614 249.956C158.868 249.956 160.072 249.458 160.959 248.57C161.847 247.683 162.345 246.48 162.345 245.225C162.345 243.97 161.847 242.766 160.959 241.879C160.072 240.991 158.868 240.493 157.614 240.493C156.349 240.49 155.135 240.986 154.235 241.874C153.335 242.761 152.822 243.968 152.808 245.232Z" fill="url(#paint4_linear)"/>
    <path d="M169.226 278.705L169.273 267.411C169.261 267.04 169.105 266.688 168.838 266.429C168.572 266.171 168.215 266.026 167.844 266.025H148.566C148.378 266.025 148.191 266.062 148.017 266.134C147.843 266.207 147.685 266.313 147.552 266.446C147.418 266.58 147.313 266.738 147.241 266.912C147.169 267.087 147.133 267.273 147.133 267.462L147.199 280.886H169.319L169.226 278.705Z" fill="#323244"/>
    <path d="M171.162 284.371L173.051 284.535L173.02 287.078L170.445 286.723L171.162 284.371Z" fill="url(#paint5_linear)"/>
    <path d="M172.411 284.484C172.411 284.484 177.743 283.826 178.744 284.048C179.744 284.27 181.31 284.098 181.123 286.279C180.936 288.46 177.945 288.41 175.928 288.098C173.911 287.786 171.777 287.381 171.777 287.381C172.218 287.059 172.526 286.587 172.642 286.053C172.759 285.519 172.677 284.961 172.411 284.484V284.484Z" fill="#878686"/>
    <path d="M177.21 284.079C177.21 284.079 179.441 283.916 180.134 284.169C180.59 284.332 181.268 284.624 181.124 286.279C180.933 288.46 179.589 288.324 178.651 288.336C177.997 288.324 177.346 288.258 176.704 288.141C176.704 288.141 177.556 285.808 177.21 284.079Z" fill="#BFBFBF"/>
    <path d="M173.26 286.685H173.225C173.201 286.674 173.182 286.653 173.173 286.629C173.164 286.604 173.164 286.576 173.175 286.552C173.356 286.009 173.37 285.424 173.214 284.874C173.209 284.861 173.207 284.847 173.209 284.833C173.21 284.819 173.214 284.806 173.22 284.794C173.226 284.782 173.235 284.771 173.246 284.762C173.257 284.754 173.269 284.747 173.282 284.744C173.295 284.74 173.309 284.739 173.323 284.741C173.337 284.743 173.35 284.747 173.362 284.754C173.373 284.761 173.384 284.771 173.392 284.782C173.4 284.793 173.405 284.806 173.408 284.819C173.581 285.416 173.565 286.051 173.362 286.638C173.351 286.655 173.336 286.668 173.318 286.676C173.3 286.685 173.28 286.688 173.26 286.685V286.685Z" fill="white"/>
    <path d="M174.075 286.755H174.04C174.016 286.744 173.997 286.724 173.987 286.699C173.978 286.674 173.979 286.647 173.989 286.622C174.171 286.079 174.184 285.494 174.028 284.944C174.021 284.93 174.017 284.916 174.017 284.901C174.016 284.886 174.019 284.871 174.025 284.857C174.031 284.843 174.04 284.831 174.051 284.821C174.062 284.811 174.076 284.804 174.09 284.8C174.105 284.796 174.12 284.795 174.135 284.797C174.149 284.8 174.163 284.805 174.176 284.814C174.188 284.823 174.198 284.834 174.206 284.847C174.213 284.86 174.218 284.874 174.219 284.889C174.392 285.486 174.376 286.121 174.172 286.708C174.162 286.724 174.147 286.737 174.13 286.745C174.113 286.754 174.094 286.757 174.075 286.755V286.755Z" fill="white"/>
    <path d="M174.889 286.824H174.858C174.834 286.813 174.815 286.793 174.806 286.769C174.796 286.744 174.797 286.716 174.807 286.692C174.989 286.149 175.002 285.564 174.846 285.013C174.839 285 174.836 284.985 174.835 284.97C174.834 284.955 174.837 284.941 174.843 284.927C174.849 284.913 174.858 284.901 174.869 284.891C174.881 284.881 174.894 284.874 174.908 284.869C174.923 284.865 174.938 284.865 174.953 284.867C174.968 284.869 174.982 284.875 174.994 284.884C175.006 284.892 175.017 284.903 175.024 284.916C175.031 284.929 175.036 284.944 175.037 284.959C175.21 285.555 175.194 286.191 174.99 286.778C174.98 286.794 174.965 286.808 174.947 286.816C174.929 286.825 174.909 286.827 174.889 286.824V286.824Z" fill="white"/>
    <path d="M175.703 286.894H175.668C175.644 286.883 175.625 286.863 175.616 286.839C175.606 286.814 175.607 286.786 175.617 286.762C175.799 286.219 175.813 285.634 175.656 285.084C175.652 285.07 175.65 285.057 175.651 285.043C175.652 285.029 175.656 285.016 175.663 285.004C175.669 284.992 175.678 284.981 175.689 284.972C175.699 284.964 175.712 284.957 175.725 284.953C175.738 284.95 175.752 284.949 175.766 284.951C175.779 284.952 175.792 284.957 175.804 284.964C175.816 284.971 175.826 284.981 175.834 284.992C175.842 285.003 175.848 285.016 175.851 285.029C176.024 285.625 176.008 286.261 175.804 286.848C175.794 286.865 175.779 286.878 175.761 286.886C175.743 286.895 175.723 286.897 175.703 286.894V286.894Z" fill="white"/>
    <path d="M144.404 284.835H142.507L142.32 287.37L144.914 287.242L144.404 284.835Z" fill="url(#paint6_linear)"/>
    <path d="M140.595 284.617L171.337 287.393L172.732 283.25L142.426 276.715C140.027 276.501 136.642 277.907 136.428 280.306C136.21 282.708 138.196 284.387 140.595 284.617Z" fill="#F59E35"/>
    <path d="M175.668 284.64L169.487 285.933L144.302 287.95L143.765 284.792L174.079 276.614C176.47 276.321 179.667 277.922 179.959 280.313C180.263 282.689 178.059 284.344 175.668 284.64Z" fill="#F8BB72"/>
    <path d="M143.133 284.838C143.133 284.838 137.88 283.721 136.864 283.857C135.847 283.993 134.301 283.686 134.301 285.874C134.301 288.063 137.292 288.269 139.333 288.121C141.373 287.973 143.531 287.771 143.531 287.771C143.119 287.414 142.852 286.919 142.779 286.38C142.706 285.84 142.832 285.292 143.133 284.838V284.838Z" fill="#878686"/>
    <path d="M142.113 286.953H142.148C142.173 286.944 142.194 286.925 142.205 286.901C142.217 286.877 142.219 286.85 142.21 286.824C142.077 286.268 142.115 285.684 142.319 285.15C142.326 285.137 142.33 285.123 142.331 285.109C142.332 285.095 142.33 285.08 142.325 285.067C142.32 285.053 142.313 285.041 142.303 285.031C142.293 285.021 142.281 285.013 142.267 285.007C142.254 285.002 142.24 285 142.226 285C142.211 285.001 142.197 285.005 142.184 285.011C142.172 285.018 142.16 285.027 142.151 285.038C142.142 285.049 142.136 285.062 142.132 285.076C141.909 285.655 141.871 286.289 142.023 286.89C142.031 286.908 142.043 286.924 142.059 286.935C142.075 286.946 142.093 286.952 142.113 286.953V286.953Z" fill="white"/>
    <path d="M141.295 286.953H141.33C141.355 286.944 141.376 286.925 141.388 286.901C141.399 286.877 141.401 286.85 141.392 286.824C141.26 286.268 141.298 285.684 141.501 285.15C141.508 285.137 141.512 285.123 141.513 285.109C141.515 285.095 141.513 285.08 141.508 285.067C141.503 285.053 141.495 285.041 141.485 285.031C141.475 285.021 141.463 285.013 141.45 285.007C141.436 285.002 141.422 285 141.408 285C141.394 285.001 141.38 285.005 141.367 285.011C141.354 285.018 141.343 285.027 141.334 285.038C141.325 285.049 141.318 285.062 141.315 285.076C141.091 285.655 141.053 286.289 141.206 286.89C141.213 286.908 141.225 286.924 141.241 286.935C141.257 286.946 141.276 286.952 141.295 286.953V286.953Z" fill="white"/>
    <path d="M140.478 286.953H140.513C140.538 286.944 140.559 286.925 140.571 286.901C140.582 286.877 140.584 286.85 140.575 286.824C140.442 286.268 140.48 285.684 140.684 285.15C140.691 285.137 140.695 285.123 140.696 285.109C140.697 285.095 140.695 285.08 140.69 285.067C140.686 285.053 140.678 285.041 140.668 285.031C140.658 285.021 140.646 285.013 140.633 285.007C140.619 285.002 140.605 285 140.591 285C140.576 285.001 140.562 285.005 140.55 285.011C140.537 285.018 140.525 285.027 140.516 285.038C140.507 285.049 140.501 285.062 140.497 285.076C140.274 285.655 140.236 286.289 140.388 286.89C140.396 286.908 140.408 286.924 140.424 286.935C140.44 286.946 140.459 286.952 140.478 286.953V286.953Z" fill="white"/>
    <path d="M139.66 286.953H139.695C139.72 286.944 139.741 286.925 139.752 286.901C139.764 286.877 139.766 286.85 139.757 286.824C139.624 286.268 139.662 285.684 139.866 285.15C139.873 285.137 139.877 285.123 139.878 285.109C139.879 285.095 139.877 285.08 139.872 285.067C139.867 285.053 139.86 285.041 139.85 285.031C139.84 285.021 139.828 285.013 139.814 285.007C139.801 285.002 139.787 285 139.772 285C139.758 285.001 139.744 285.005 139.731 285.011C139.719 285.018 139.707 285.027 139.698 285.038C139.689 285.049 139.683 285.062 139.679 285.076C139.456 285.655 139.418 286.289 139.57 286.89C139.578 286.908 139.59 286.924 139.606 286.935C139.622 286.946 139.64 286.952 139.66 286.953V286.953Z" fill="white"/>
    <path d="M166.87 260.596C166.644 260.596 166.461 260.388 166.461 260.132C166.461 259.876 166.644 259.669 166.87 259.669C167.096 259.669 167.279 259.876 167.279 260.132C167.279 260.388 167.096 260.596 166.87 260.596Z" fill="white"/>
    <path d="M170.223 271.095C169.998 271.095 169.815 270.888 169.815 270.632C169.815 270.376 169.998 270.168 170.223 270.168C170.449 270.168 170.632 270.376 170.632 270.632C170.632 270.888 170.449 271.095 170.223 271.095Z" fill="white"/>
    <path d="M173.471 271.558C173.246 271.558 173.063 271.351 173.063 271.095C173.063 270.839 173.246 270.632 173.471 270.632C173.697 270.632 173.88 270.839 173.88 271.095C173.88 271.351 173.697 271.558 173.471 271.558Z" fill="white"/>
    <path d="M173.58 275.648C173.354 275.648 173.171 275.44 173.171 275.184C173.171 274.928 173.354 274.721 173.58 274.721C173.806 274.721 173.989 274.928 173.989 275.184C173.989 275.44 173.806 275.648 173.58 275.648Z" fill="white"/>
    <path d="M164.853 258.633C164.627 258.633 164.444 258.426 164.444 258.17C164.444 257.914 164.627 257.706 164.853 257.706C165.079 257.706 165.262 257.914 165.262 258.17C165.262 258.426 165.079 258.633 164.853 258.633Z" fill="white"/>
    <path d="M165.289 254.817C165.063 254.817 164.88 254.609 164.88 254.353C164.88 254.097 165.063 253.89 165.289 253.89C165.515 253.89 165.698 254.097 165.698 254.353C165.698 254.609 165.515 254.817 165.289 254.817Z" fill="white"/>
    <path d="M167.688 264.852C167.462 264.852 167.279 264.645 167.279 264.389C167.279 264.133 167.462 263.925 167.688 263.925C167.914 263.925 168.097 264.133 168.097 264.389C168.097 264.645 167.914 264.852 167.688 264.852Z" fill="white"/>
    <path d="M171.122 267.906C170.897 267.906 170.714 267.698 170.714 267.442C170.714 267.186 170.897 266.979 171.122 266.979C171.348 266.979 171.531 267.186 171.531 267.442C171.531 267.698 171.348 267.906 171.122 267.906Z" fill="white"/>
    <path d="M172.54 265.288C172.314 265.288 172.131 265.081 172.131 264.825C172.131 264.569 172.314 264.362 172.54 264.362C172.766 264.362 172.949 264.569 172.949 264.825C172.949 265.081 172.766 265.288 172.54 265.288Z" fill="white"/>
    <path d="M164.144 264.198C163.918 264.198 163.735 263.991 163.735 263.735C163.735 263.479 163.918 263.271 164.144 263.271C164.37 263.271 164.553 263.479 164.553 263.735C164.553 263.991 164.37 264.198 164.144 264.198Z" fill="white"/>
    <path d="M169.214 257.597C168.988 257.597 168.805 257.39 168.805 257.134C168.805 256.878 168.988 256.67 169.214 256.67C169.44 256.67 169.623 256.878 169.623 257.134C169.623 257.39 169.44 257.597 169.214 257.597Z" fill="white"/>
    <path d="M170.156 262.502C169.934 262.374 169.846 262.111 169.959 261.916C170.072 261.72 170.343 261.665 170.565 261.793C170.787 261.921 170.875 262.184 170.762 262.379C170.649 262.575 170.378 262.63 170.156 262.502Z" fill="white"/>
    <path d="M175.228 267.91C175.006 267.782 174.918 267.52 175.031 267.325C175.144 267.129 175.415 267.074 175.637 267.202C175.859 267.33 175.947 267.592 175.834 267.788C175.721 267.984 175.45 268.038 175.228 267.91Z" fill="white"/>
    <path d="M176.43 271.942C176.209 271.814 176.12 271.551 176.233 271.356C176.346 271.16 176.617 271.106 176.839 271.233C177.061 271.361 177.149 271.624 177.036 271.819C176.923 272.015 176.652 272.07 176.43 271.942Z" fill="white"/>
    <path d="M149.229 260.378C149.003 260.378 148.82 260.17 148.82 259.914C148.82 259.658 149.003 259.451 149.229 259.451C149.455 259.451 149.638 259.658 149.638 259.914C149.638 260.17 149.455 260.378 149.229 260.378Z" fill="white"/>
    <path d="M145.151 272.049C144.925 272.049 144.742 271.842 144.742 271.586C144.742 271.33 144.925 271.122 145.151 271.122C145.377 271.122 145.56 271.33 145.56 271.586C145.56 271.842 145.377 272.049 145.151 272.049Z" fill="white"/>
    <path d="M141.443 271.321C141.217 271.321 141.034 271.113 141.034 270.857C141.034 270.601 141.217 270.394 141.443 270.394C141.669 270.394 141.852 270.601 141.852 270.857C141.852 271.113 141.669 271.321 141.443 271.321Z" fill="white"/>
    <path d="M142.518 275.429C142.293 275.429 142.11 275.222 142.11 274.966C142.11 274.71 142.293 274.502 142.518 274.502C142.744 274.502 142.927 274.71 142.927 274.966C142.927 275.222 142.744 275.429 142.518 275.429Z" fill="white"/>
    <path d="M151.246 258.415C151.02 258.415 150.837 258.207 150.837 257.951C150.837 257.696 151.02 257.488 151.246 257.488C151.471 257.488 151.655 257.696 151.655 257.951C151.655 258.207 151.471 258.415 151.246 258.415Z" fill="white"/>
    <path d="M150.81 254.599C150.584 254.599 150.401 254.391 150.401 254.135C150.401 253.879 150.584 253.672 150.81 253.672C151.035 253.672 151.218 253.879 151.218 254.135C151.218 254.391 151.035 254.599 150.81 254.599Z" fill="white"/>
    <path d="M148.41 264.634C148.184 264.634 148.001 264.427 148.001 264.171C148.001 263.915 148.184 263.708 148.41 263.708C148.636 263.708 148.819 263.915 148.819 264.171C148.819 264.427 148.636 264.634 148.41 264.634Z" fill="white"/>
    <path d="M144.972 267.688C144.746 267.688 144.563 267.48 144.563 267.224C144.563 266.968 144.746 266.761 144.972 266.761C145.197 266.761 145.38 266.968 145.38 267.224C145.38 267.48 145.197 267.688 144.972 267.688Z" fill="white"/>
    <path d="M143.554 265.071C143.329 265.071 143.146 264.863 143.146 264.607C143.146 264.351 143.329 264.144 143.554 264.144C143.78 264.144 143.963 264.351 143.963 264.607C143.963 264.863 143.78 265.071 143.554 265.071Z" fill="white"/>
    <path d="M151.954 263.98C151.728 263.98 151.545 263.772 151.545 263.516C151.545 263.26 151.728 263.053 151.954 263.053C152.18 263.053 152.363 263.26 152.363 263.516C152.363 263.772 152.18 263.98 151.954 263.98Z" fill="white"/>
    <path opacity="0.75" d="M175.284 387.701C169 375.481 173.814 360.48 186.034 354.197C198.255 347.914 213.256 352.727 219.539 364.948C225.822 377.168 221.009 392.169 208.788 398.452C196.567 404.735 181.567 399.922 175.284 387.701Z" fill="#FDCDCA"/>
    <path d="M182.735 366.013H213.676V385.855H182.735V366.013Z" fill="#273271"/>
    <path d="M182.735 366.013H213.676V385.855H182.735V366.013Z" fill="#B8B8E8"/>
    <path d="M198.205 375.931L213.676 385.855H182.735L198.205 375.931Z" fill="#263370"/>
    <path d="M198.205 375.931L213.676 385.855H182.735L198.205 375.931Z" fill="#B8B8E8"/>
    <path d="M182.735 366.013H213.676L198.205 380.06L182.735 366.013Z" fill="#25346E"/>
    <path d="M182.735 366.013H213.676L198.205 380.06L182.735 366.013Z" fill="#9595CB"/>
    <path d="M146.884 257.379C146.658 257.379 146.475 257.172 146.475 256.916C146.475 256.66 146.658 256.452 146.884 256.452C147.11 256.452 147.293 256.66 147.293 256.916C147.293 257.172 147.11 257.379 146.884 257.379Z" fill="white"/>
    <path d="M145.336 262.161C145.223 261.965 145.311 261.703 145.533 261.575C145.754 261.447 146.026 261.502 146.139 261.697C146.251 261.893 146.163 262.155 145.942 262.283C145.72 262.411 145.449 262.356 145.336 262.161Z" fill="white"/>
    <path d="M157.757 274.966C157.019 274.966 156.421 274.368 156.421 273.631C156.421 272.893 157.019 272.295 157.757 272.295C158.495 272.295 159.093 272.893 159.093 273.631C159.093 274.368 158.495 274.966 157.757 274.966Z" fill="#BABABA"/>
    <path d="M152.617 245.244C152.78 244.639 152.91 244.026 153.006 243.406C153.083 242.914 153.255 242.442 153.512 242.016C153.787 241.63 154.139 241.306 154.544 241.062C154.951 240.813 155.385 240.61 155.837 240.458C156.419 240.256 157.021 240.116 157.633 240.041C157.932 239.997 158.234 239.976 158.536 239.979C159.685 240.022 160.522 240.497 160.834 241.089L163.015 245.233L160.943 245.077C160.528 245.063 160.123 244.95 159.762 244.747C159.401 244.543 159.094 244.256 158.867 243.908L157.621 242.557C157.683 243.465 157.784 244.968 157.804 244.968C156.118 244.925 154.432 245.055 152.772 245.357C152.718 245.357 152.648 245.357 152.62 245.33C152.618 245.321 152.618 245.312 152.62 245.303C152.615 245.284 152.613 245.264 152.617 245.244V245.244Z" fill="#320E0C"/>
    <path opacity="0.75" d="M97.1633 309.411C83.2119 309.411 71.902 298.101 71.902 284.15C71.902 270.199 83.2119 258.889 97.1633 258.889C111.115 258.889 122.425 270.199 122.425 284.15C122.425 298.101 111.115 309.411 97.1633 309.411Z" fill="#FDCDCA"/>
    <path d="M113.415 293.361H110.472V285.904C110.472 285.122 110.162 284.373 109.609 283.82C109.056 283.267 108.307 282.957 107.525 282.957C106.743 282.957 105.994 283.267 105.441 283.82C104.888 284.373 104.578 285.122 104.578 285.904V293.365H100.625V282.405C100.625 281.623 100.314 280.874 99.7617 280.321C99.209 279.768 98.4593 279.458 97.6777 279.458C96.8961 279.458 96.1464 279.768 95.5937 280.321C95.041 280.874 94.7305 281.623 94.7305 282.405V293.361H90.7776V272.174C90.7776 271.392 90.4671 270.643 89.9144 270.09C89.3617 269.537 88.6121 269.227 87.8304 269.227C87.0488 269.227 86.2992 269.537 85.7465 270.09C85.1938 270.643 84.8833 271.392 84.8833 272.174V293.361H81.9455C81.8375 293.352 81.7289 293.366 81.6266 293.402C81.5243 293.438 81.4305 293.494 81.351 293.568C81.2715 293.641 81.2081 293.73 81.1647 293.83C81.1214 293.929 81.099 294.036 81.099 294.144C81.099 294.253 81.1214 294.36 81.1647 294.459C81.2081 294.558 81.2715 294.648 81.351 294.721C81.4305 294.795 81.5243 294.851 81.6266 294.887C81.7289 294.922 81.8375 294.936 81.9455 294.928H113.415C113.523 294.936 113.631 294.922 113.733 294.887C113.836 294.851 113.93 294.795 114.009 294.721C114.089 294.648 114.152 294.558 114.195 294.459C114.239 294.36 114.261 294.253 114.261 294.144C114.261 294.036 114.239 293.929 114.195 293.83C114.152 293.73 114.089 293.641 114.009 293.568C113.93 293.494 113.836 293.438 113.733 293.402C113.631 293.366 113.523 293.352 113.415 293.361V293.361Z" fill="#9595CB"/>
    <path d="M63.2988 449.349H165.145C187.705 449.349 208.984 441.062 225.068 426.01C241.545 410.588 250.619 389.971 250.619 367.956C250.619 345.941 241.545 325.324 225.064 309.903C208.984 294.851 187.705 286.564 165.145 286.564H63.2988V330.181H165.145C188.223 330.181 207.002 347.125 207.002 367.956C207.002 388.787 188.223 405.732 165.145 405.732H63.2988V449.349Z" fill="#1F285A"/>
    <path d="M74.2022 449.349H176.048C198.609 449.349 219.887 441.062 235.971 426.01C252.448 410.588 261.522 389.971 261.522 367.956C261.522 345.941 252.449 325.324 235.967 309.903C219.887 294.851 198.609 286.564 176.048 286.564H74.2022V330.181H176.048C199.126 330.181 217.905 347.125 217.905 367.956C217.905 388.787 199.126 405.732 176.048 405.732H74.2022V449.349Z" fill="#273271"/>
    <path opacity="0.9" d="M74.1878 405.487H103.022V449.349H74.1878V405.487Z" fill="#F8443C"/>
    <path opacity="0.9" d="M63.3181 405.487H74.2029V449.349H63.3181V405.487Z" fill="#DF3D36"/>
    <path opacity="0.9" d="M74.1878 286.552H103.022V330.177H74.1878V286.552Z" fill="#F8443C"/>
    <path opacity="0.9" d="M63.2948 286.494H74.2029V330.181H63.2948V286.494Z" fill="#DF3D36"/>
    <path d="M63.7156 401.277C65.4875 403.224 66.539 406.694 67.131 410.678C77.5212 409.509 96.5102 406.686 98.4341 404.758C101.036 402.157 96.74 386.844 96.74 386.844L84.0949 387.716C84.0949 387.716 83.7055 390.053 83.5069 391.891C83.457 392.596 83.3423 393.295 83.1642 393.979C82.9461 394.5 72.9103 397.994 65.0124 400.821L63.7156 401.277Z" fill="#1F285A"/>
    <path d="M79.5813 346.643C79.1869 347.251 78.9252 347.935 78.8131 348.651C78.7011 349.367 78.7412 350.098 78.9309 350.798C79.2191 351.643 80.0992 354.143 80.1304 354.692C80.2277 356.932 84.6712 359.778 85.6838 359.708C86.6963 359.638 87.631 357.858 87.631 357.858L79.5813 346.643Z" fill="#21212D"/>
    <path d="M84.5665 368.209C84.5665 368.209 83.3982 377.661 81.1394 379.791C78.8807 381.922 72.9846 386.883 71.0958 386.883C70.3281 386.882 69.5695 387.05 68.8747 387.377C68.1798 387.704 67.5659 388.18 67.0768 388.772C66.4849 389.597 72.529 388.772 72.529 388.772C72.529 388.772 85.2909 381.349 86.2372 380.274C86.2216 380.27 85.9334 370.164 84.5665 368.209Z" fill="url(#paint7_linear)"/>
    <path d="M97.546 390.034L83.7443 389.411C83.7443 389.411 85.154 379.55 85.154 376.244C85.154 372.938 84.3284 371.637 83.6197 369.744C82.9109 367.851 85.6292 358.754 85.6292 358.754L90.17 356.511C90.17 356.511 95.0731 357.929 96.845 362.419C98.617 366.909 99.6801 372.817 99.6801 372.817L96.3699 373.763L97.546 390.034Z" fill="#DD8E30"/>
    <path d="M93.5777 373.093L98.508 372.108C98.508 372.108 99.6296 379.982 99.6763 380.617C99.7192 381.1 99.1506 381.236 98.7962 381.236C98.4418 381.236 92.0745 384.243 91.3969 384.515C89.9715 385.107 78.2728 388.297 77.9184 388.768C77.564 389.239 72.7194 389.831 71.5394 390.069C70.3594 390.306 71.5394 388.651 73.4282 387.705C75.3169 386.759 77.2096 386.759 78.2728 386.537C79.336 386.315 94.0684 378.748 94.3021 378.265C94.5357 377.782 93.5777 373.093 93.5777 373.093Z" fill="url(#paint8_linear)"/>
    <path d="M65.7404 426.668C65.7404 426.668 65.8806 435.403 65.9663 436.108C66.052 436.813 68.7157 438.083 68.7157 438.083L65.4211 446.187L61.3631 426.477L65.7404 426.668Z" fill="url(#paint9_linear)"/>
    <path d="M92.5998 359.7C90.0256 360.518 90.1191 364.899 90.4735 366.321C90.8279 367.742 92.5998 374.238 92.5998 374.238L99.6915 372.82C99.6915 372.82 97.7988 358.045 92.5998 359.7Z" fill="#F59E35"/>
    <path d="M38.3743 445.49C38.3743 445.49 37.0736 444.073 39.2 442.063C41.3263 440.054 54.797 425.165 57.1609 421.855C57.965 420.64 58.6188 419.333 59.1081 417.961C59.905 415.8 60.5555 413.588 61.0553 411.34C61.0553 411.34 63.4854 411.095 67.1344 410.682C66.5425 406.698 65.4949 403.24 63.7191 401.281C59.6923 402.73 56.4482 403.937 55.7394 404.369C55.3813 404.688 55.0809 405.066 54.8515 405.487C51.0116 411.488 38.7443 438.877 37.7785 440.057C36.7153 441.358 29.6237 446.912 29.6237 446.912L38.3743 445.49Z" fill="#1F285A"/>
    <path d="M67.0374 435.442C67.1464 434.465 68.638 420.85 67.1308 410.678C66.5389 406.694 65.4913 403.236 63.7155 401.277C63.4482 400.977 63.1507 400.706 62.8275 400.467L65.0123 400.814C72.914 397.986 82.9499 394.493 83.164 393.971C83.3422 393.287 83.4569 392.589 83.5068 391.884C78.6349 391.494 56.3823 389.757 52.0751 391.966C48.7844 393.652 52.5113 400.05 54.8479 405.491C56.4778 409.577 57.8973 413.744 59.1006 417.976C61.1257 425.305 62.8626 436.031 62.9444 436.872L67.0374 435.442Z" fill="#273271"/>
    <path d="M84.8033 354.657C84.8033 354.657 86.2988 358.808 86.2209 359.568C86.143 360.327 89.831 356.678 89.831 356.678L88.1097 353.317L84.8033 354.657Z" fill="url(#paint10_linear)"/>
    <path d="M84.5741 354.676C81.8705 354.676 79.6788 352.485 79.6788 349.781C79.6788 347.078 81.8705 344.886 84.5741 344.886C87.2777 344.886 89.4693 347.078 89.4693 349.781C89.4693 352.485 87.2777 354.676 84.5741 354.676Z" fill="url(#paint11_linear)"/>
    <path d="M80.4969 391.646C79.7804 390.867 79.7181 390.088 77.7397 390.002L62.7853 389.223L62.8671 390.75L80.4969 391.646Z" fill="#646488"/>
    <path d="M53.6881 375.309L62.6686 390.816L69.1722 391.03L59.2999 375.355C59.182 375.168 59.0214 375.011 58.8312 374.897C58.641 374.783 58.4267 374.716 58.2056 374.701L54.245 374.432C54.1395 374.427 54.0344 374.449 53.9405 374.498C53.8466 374.546 53.7672 374.619 53.7105 374.708C53.6539 374.797 53.6219 374.9 53.618 375.005C53.614 375.111 53.6382 375.216 53.6881 375.309Z" fill="#42425A"/>
    <path d="M79.1144 346.65C79.1144 346.65 80.7812 351.526 85.914 350.221C85.9349 349.964 86.0402 349.722 86.2135 349.531C86.3867 349.34 86.6183 349.212 86.8721 349.166C87.8457 348.886 89.0685 350.996 87.8145 351.822C86.2217 352.877 86.8642 355.763 88.8699 356.495C89.5903 356.76 91.0624 356.339 91.5959 357.843C92.1295 359.346 91.0624 361.795 94.5946 362.952C98.1268 364.109 97.6595 367.002 99.1822 367.438C100.705 367.875 107.878 363.895 105.359 358.22C102.839 352.546 100.491 356.238 98.8084 355.342C97.126 354.447 96.9936 351.693 96.4717 350.907C95.9499 350.12 94.8633 348.96 93.6366 348.788C92.4099 348.617 91.5103 345.12 89.2048 343.788C86.8993 342.456 80.7111 341.985 79.1144 346.65Z" fill="#323244"/>
    <path d="M87.0784 343.056C86.2202 343.056 85.5245 342.36 85.5245 341.502C85.5245 340.644 86.2202 339.948 87.0784 339.948C87.9365 339.948 88.6323 340.644 88.6323 341.502C88.6323 342.36 87.9365 343.056 87.0784 343.056Z" fill="#21212D"/>
    <path d="M87.6582 352.301C87.4044 352.301 87.1987 352.095 87.1987 351.842C87.1987 351.588 87.4044 351.382 87.6582 351.382C87.912 351.382 88.1177 351.588 88.1177 351.842C88.1177 352.095 87.912 352.301 87.6582 352.301Z" fill="#3325EF"/>
    <path d="M37.7513 440.081C36.7271 441.249 30.8738 445.922 30.8738 445.922L38.2186 444.991C38.2186 444.991 37.3736 443.874 39.1922 442.047L37.7513 440.081Z" fill="url(#paint12_linear)"/>
    <path d="M87.6547 352.058C87.5603 352.058 87.4838 351.982 87.4838 351.888C87.4838 351.793 87.5603 351.717 87.6547 351.717C87.749 351.717 87.8255 351.793 87.8255 351.888C87.8255 351.982 87.749 352.058 87.6547 352.058Z" fill="#0094F9"/>
    <path d="M87.6813 352.168L89.0561 353.937C89.0843 353.973 89.1021 354.017 89.1074 354.064C89.1127 354.11 89.1054 354.157 89.0862 354.199C89.067 354.241 89.0367 354.278 88.9984 354.304C88.9602 354.331 88.9155 354.346 88.8691 354.349L87.1439 354.454C87.1069 354.457 87.0698 354.45 87.0362 354.434C87.0025 354.419 86.9733 354.395 86.9512 354.365C86.9291 354.335 86.9149 354.3 86.9098 354.264C86.9047 354.227 86.9088 354.189 86.9219 354.155L87.6813 352.168Z" fill="#3325EF"/>
    <path d="M87.5609 354.647C87.4675 354.634 87.4025 354.547 87.4157 354.454C87.4289 354.361 87.5153 354.296 87.6087 354.309C87.7021 354.322 87.7671 354.408 87.7539 354.502C87.7407 354.595 87.6543 354.66 87.5609 354.647Z" fill="#0094F9"/>
    <path d="M88.8435 354.574C88.7501 354.561 88.6851 354.475 88.6983 354.381C88.7115 354.288 88.7979 354.223 88.8913 354.236C88.9847 354.249 89.0497 354.336 89.0365 354.429C89.0233 354.522 88.9369 354.587 88.8435 354.574Z" fill="#0094F9"/>
    <path d="M87.7201 353.086C87.6267 353.072 87.5618 352.986 87.5752 352.892C87.5885 352.799 87.6751 352.734 87.7685 352.747C87.8619 352.761 87.9268 352.847 87.9134 352.941C87.9 353.034 87.8135 353.099 87.7201 353.086Z" fill="#0094F9"/>
    <path d="M36.0382 448.048C35.7509 447.993 35.4576 447.976 35.1659 447.998C34.7764 448.044 32.9344 448.823 30.921 448.971C28.9076 449.119 27.2213 449.326 26.0296 448.714C25.9071 448.536 25.8583 448.317 25.8933 448.103H25.9829C26.2827 448.259 28.596 448.854 31.435 448.333C31.6375 448.294 31.8245 448.251 32.0347 448.196C33.3783 447.826 34.0209 447.639 34.496 447.476C34.6638 447.397 34.8403 447.338 35.0218 447.301C35.2652 447.285 35.5079 447.342 35.7189 447.464L35.7889 447.491H35.8629L39.0875 446.837C39.1517 446.941 39.1945 447.058 39.2132 447.179C39.2319 447.3 39.2263 447.423 39.1965 447.542C39.0369 447.873 36.0382 448.048 36.0382 448.048Z" fill="#3A3936"/>
    <path d="M32.6805 444.341C32.996 444.139 33.144 443.998 33.4594 443.804L33.5762 443.718C33.6842 443.897 33.7556 444.095 33.7865 444.302L33.8372 444.692C34.407 444.988 35.0613 445.08 35.6909 444.953C36.5532 444.736 37.3592 444.338 38.0548 443.784C38.6431 444.676 38.9857 445.708 39.0479 446.775L38.9077 446.83L35.7415 447.461C35.4926 447.317 35.206 447.254 34.9198 447.277C34.4914 447.351 33.9929 447.667 31.9172 448.232C31.7225 448.284 31.5291 448.326 31.337 448.36C29.0704 448.75 27.0921 448.559 26.2743 448.193C26.0406 448.088 25.9121 448.017 25.9121 448.017C26.0751 447.7 26.3139 447.427 26.6073 447.223C26.9007 447.019 27.2397 446.891 27.5945 446.849C28.1864 446.744 28.6927 446.682 29.0821 446.612C29.3762 446.564 29.6557 446.451 29.8999 446.281C30.6516 445.899 31.9718 444.793 32.6805 444.341Z" fill="#21212D"/>
    <path d="M69.0114 441.007C68.7853 441.193 68.5849 441.407 68.4155 441.646C68.1974 441.981 67.6366 443.889 66.4488 445.54C65.261 447.191 64.3537 448.613 63.123 449.135C62.9078 449.115 62.7083 449.013 62.5661 448.851L62.6167 448.777C62.9283 448.648 64.8677 447.25 66.2775 444.738C66.3787 444.559 66.4722 444.376 66.554 444.189C67.1304 442.919 67.477 442.269 67.6016 441.829C67.6419 441.654 67.7006 441.485 67.7768 441.323C67.8586 441.179 67.991 441.077 68.3454 440.89L68.4116 440.855L68.4661 440.781L70.0239 437.884C70.1453 437.902 70.2619 437.944 70.3669 438.007C70.4718 438.071 70.5631 438.155 70.6353 438.254C70.8028 438.597 69.0114 441.007 69.0114 441.007Z" fill="#3A3936"/>
    <path d="M64.015 441.226C64.0626 440.871 64.1289 440.518 64.2137 440.17V440.17C64.3869 440.187 64.5538 440.244 64.7005 440.338L65.0432 440.56C65.6356 440.311 66.1249 439.867 66.4296 439.302C66.8024 438.534 66.9663 437.681 66.9047 436.829C68.0116 436.965 69.0752 437.342 70.0202 437.935L69.9657 438.048L68.4079 440.875C68.1389 440.975 67.9066 441.154 67.742 441.389C67.5278 441.779 67.4616 442.363 66.5737 444.31C66.488 444.492 66.3971 444.668 66.301 444.84C65.1561 446.834 63.7385 448.232 62.9402 448.617C62.7104 448.73 62.5741 448.781 62.5741 448.781C62.4367 448.452 62.3819 448.095 62.4145 447.741C62.4471 447.387 62.5661 447.046 62.761 446.748C63.0609 446.226 63.3335 445.794 63.5399 445.455C63.6917 445.198 63.7836 444.911 63.8086 444.614C63.9138 443.78 63.9099 442.055 64.015 441.226Z" fill="#21212D"/>
    <path d="M60.1228 383.547C59.7105 382.765 59.5953 382.015 59.8655 381.873C60.1357 381.73 60.6889 382.249 61.1012 383.031C61.5134 383.813 61.6287 384.562 61.3585 384.704C61.0883 384.847 60.5351 384.328 60.1228 383.547Z" fill="white"/>
    <path d="M264.884 369.904C265.359 369.514 266.274 368.735 266.496 368.552C266.8 368.292 269.374 367.774 269.612 367.774C270.153 367.665 273.444 367.735 273.175 368.073C273.023 368.264 270.402 368.708 270.402 368.708L269.884 368.86C269.845 368.86 269.763 368.86 269.67 368.86C269.627 369.32 269.584 369.538 269.584 369.538C270.057 369.449 270.537 369.406 271.017 369.409C271.325 369.452 271.765 369.923 271.407 370.013C271.407 370.013 270.527 370.227 270.091 370.305C269.834 370.352 269.417 370.835 269.199 370.975L268.724 371.173C267.979 371.366 267.22 371.496 266.453 371.563L247.97 379.831L247.429 373.798L264.884 369.904Z" fill="url(#paint13_linear)"/>
    <path d="M255.516 442.764L256.058 449.669L255.458 453.029C255.433 453.166 255.438 453.306 255.473 453.441C255.507 453.575 255.57 453.7 255.657 453.808C255.745 453.916 255.854 454.004 255.978 454.066C256.102 454.128 256.238 454.162 256.377 454.167C259.204 454.252 266.44 454.443 266.631 454.131C267.542 452.659 263.73 451.043 260.4 449.727C257.401 448.535 259.469 438.34 259.469 438.34L255.516 442.764Z" fill="url(#paint14_linear)"/>
    <path d="M253.591 415.97C253.221 418.611 253.166 435.532 253.762 444.131H260.421C261.664 434.909 261.956 419.631 262.318 417.049C262.318 417.018 262.318 416.983 262.318 416.952C264.347 407.995 262.591 390.513 262.509 386.965C262.4 382.167 259.288 378.347 255.561 378.432C251.834 378.518 248.902 382.475 249.011 387.273C249.089 390.291 253.766 414.72 253.591 415.97Z" fill="#F59E35"/>
    <path d="M240.562 442.764L240.931 449.669L240.332 453.029C240.307 453.166 240.312 453.306 240.346 453.441C240.381 453.575 240.444 453.7 240.531 453.808C240.618 453.916 240.728 454.004 240.852 454.066C240.976 454.128 241.112 454.162 241.251 454.167C244.078 454.252 251.314 454.443 251.509 454.131C252.42 452.659 248.307 451.063 245.278 449.898C242.248 448.734 245.718 438.34 245.718 438.34L240.562 442.764Z" fill="url(#paint15_linear)"/>
    <path d="M243.29 415.971C242.92 418.611 239.574 434.391 239.497 444.131H245.463C247.285 435.793 251.047 419.631 251.409 417.049C251.409 417.018 251.409 416.983 251.409 416.952C253.438 407.995 255.249 390.4 255.171 386.864C255.062 382.066 251.145 378.359 247.418 378.44C243.691 378.522 241.576 382.37 241.673 387.168C241.751 390.178 243.465 414.721 243.29 415.971Z" fill="#DD8E30"/>
    <path d="M261.391 352.593C261.358 352.094 261.225 351.607 260.999 351.161C260.772 350.715 260.458 350.32 260.075 349.999C259.692 349.678 259.247 349.438 258.769 349.294C258.29 349.149 257.787 349.103 257.29 349.158C256.779 349.201 256.282 349.344 255.826 349.58C255.37 349.815 254.966 350.138 254.635 350.53C254.305 350.923 254.055 351.376 253.901 351.865C253.746 352.354 253.69 352.869 253.735 353.38C253.897 355.24 254.166 357.089 254.541 358.918C254.794 360.129 254.833 361.71 255.168 362.905C255.947 362.563 261.586 362.761 263.042 362.843C263.042 362.843 261.874 354.821 261.523 353.107C261.5 352.986 261.391 352.593 261.391 352.593Z" fill="#EFEFEF"/>
    <path d="M245.86 348.399C245.86 348.399 243.621 348.636 242.924 348.913C240.198 349.996 238.878 351.538 238.819 353.423C238.667 358.333 243.162 365.635 242.558 374.191C242.013 381.937 241.187 386.229 241.39 390.38C241.39 390.38 258.576 391.019 262.602 387.467C263.015 385.797 260.928 377.073 261.278 368.876C261.566 362.049 261.691 356.826 261.341 352.909C261.177 351.063 259.047 348.858 257.057 348.858H254.903L245.86 348.399Z" fill="url(#paint16_linear)"/>
    <path d="M267.365 374.522L267.104 375.476C267.084 375.536 267.082 375.6 267.098 375.66C267.115 375.721 267.148 375.775 267.195 375.817C267.242 375.858 267.3 375.885 267.362 375.894C267.424 375.902 267.487 375.893 267.544 375.866L272.86 373.408C273.047 373.325 273.214 373.201 273.348 373.047C273.483 372.892 273.582 372.71 273.639 372.513L276.992 360.654C277.022 360.545 277.021 360.43 276.989 360.321C276.957 360.213 276.896 360.115 276.812 360.039C276.728 359.963 276.625 359.912 276.513 359.891C276.402 359.871 276.287 359.881 276.182 359.922L271.547 361.776C271.317 361.867 271.111 362.011 270.945 362.195C270.78 362.38 270.659 362.6 270.593 362.839L268.821 369.241L268.373 370.869L268.042 372.088L267.365 374.522Z" fill="#9B9C9F"/>
    <path d="M251.787 351.144C251.374 351.144 250.964 351.06 250.584 350.897C250.204 350.735 249.861 350.496 249.575 350.197C249.29 349.898 249.068 349.544 248.924 349.156C248.779 348.769 248.714 348.356 248.734 347.943L249.042 341.401L254.677 341.95L254.848 348.002C254.86 348.41 254.789 348.818 254.64 349.199C254.491 349.58 254.268 349.927 253.982 350.22C253.697 350.513 253.355 350.746 252.978 350.905C252.601 351.064 252.196 351.145 251.787 351.144V351.144Z" fill="url(#paint17_linear)"/>
    <path d="M253.563 335.816C252.407 335.574 251.202 335.8 250.212 336.444C249.223 337.089 248.529 338.1 248.283 339.255C248.283 339.325 248.255 339.395 248.244 339.465C248.05 339.47 247.86 339.516 247.686 339.6C247.511 339.684 247.357 339.804 247.232 339.952C247.107 340.1 247.015 340.273 246.962 340.459C246.909 340.645 246.896 340.84 246.923 341.032C246.951 341.223 247.019 341.407 247.123 341.57C247.226 341.733 247.363 341.873 247.525 341.98C247.686 342.086 247.869 342.157 248.06 342.189C248.251 342.22 248.446 342.21 248.633 342.16C248.969 342.838 249.471 343.419 250.093 343.849C250.714 344.279 251.435 344.544 252.188 344.619C252.94 344.695 253.699 344.578 254.393 344.279C255.088 343.981 255.696 343.511 256.159 342.914C256.622 342.316 256.926 341.611 257.042 340.864C257.158 340.117 257.083 339.352 256.822 338.642C256.562 337.933 256.126 337.301 255.554 336.806C254.983 336.31 254.295 335.969 253.556 335.812L253.563 335.816Z" fill="url(#paint18_linear)"/>
    <g opacity="0.9">
        <path opacity="0.9" d="M252.846 454.883V453.917C252.846 453.855 252.709 453.801 252.546 453.801L239.663 453.633C239.496 453.633 239.359 453.684 239.359 453.75V454.887C239.359 454.949 239.496 455 239.663 455H252.542C252.709 454.996 252.846 454.946 252.846 454.883Z" fill="#623F15"/>
        <path opacity="0.9" d="M247.257 453.84H252.744C252.744 453.84 253.823 452.554 252.222 452.173C252.222 452.173 247.159 451.616 244.85 448.625C244.85 448.625 243.771 447.41 244.675 450.331C244.675 450.331 244.815 452.453 242.416 451.374C242.416 451.374 241.598 451.094 240.858 449.287C240.858 449.287 240.492 448.555 239.935 448.711C239.713 448.785 239.448 449.042 239.433 449.879V453.676L244.823 453.762L247.257 453.84Z" fill="#623F15"/>
    </g>
    <path d="M263.269 376.868L263.307 377.279L240.754 379.327L240.716 378.916L263.269 376.868Z" fill="#835EEA"/>
    <path d="M263.248 378.606L263.285 379.017L240.732 381.066L240.695 380.654L263.248 378.606Z" fill="#835EEA"/>
    <path d="M263.23 380.345L263.267 380.756L240.714 382.804L240.677 382.393L263.23 380.345Z" fill="#835EEA"/>
    <path d="M263.212 382.087L263.25 382.498L240.697 384.546L240.659 384.135L263.212 382.087Z" fill="#835EEA"/>
    <path d="M263.193 383.825L263.231 384.237L240.678 386.285L240.64 385.874L263.193 383.825Z" fill="#835EEA"/>
    <path d="M263.172 385.568L263.209 385.979L240.656 388.028L240.619 387.617L263.172 385.568Z" fill="#835EEA"/>
    <g opacity="0.9">
        <path opacity="0.9" d="M268.111 454.486V453.52C268.111 453.458 267.974 453.403 267.811 453.403L254.928 453.244C254.761 453.244 254.624 453.294 254.624 453.36V454.498C254.624 454.56 254.761 454.61 254.928 454.61H267.811C267.974 454.603 268.111 454.548 268.111 454.486Z" fill="#623F15"/>
        <path opacity="0.9" d="M262.519 453.442H268.01C268.01 453.442 269.088 452.157 267.488 451.775C267.488 451.775 262.425 451.218 260.116 448.228C260.116 448.228 259.037 447.012 259.94 449.933C259.94 449.933 260.081 452.056 257.682 450.977C257.682 450.977 256.864 450.697 256.124 448.89C256.124 448.89 255.758 448.157 255.201 448.313C254.979 448.387 254.714 448.644 254.699 449.482V453.279L260.088 453.364L262.519 453.442Z" fill="#623F15"/>
    </g>
    <path d="M256.62 342.078C256.563 342.367 256.444 342.641 256.273 342.88C255.997 343.348 255.576 343.62 254.957 343.087C254.724 342.876 254.425 342.754 254.112 342.74C253.825 342.74 253.547 342.845 253.333 343.036C252.527 343.725 250.77 343.426 250.038 342.608C249.819 342.379 249.623 342.13 249.45 341.864C249.418 341.809 249.381 341.757 249.341 341.708C249.213 341.87 249.049 342 248.863 342.09C248.677 342.179 248.473 342.226 248.266 342.226L248.333 344.337C248.453 346.892 250.813 349.01 253.598 349.076C255.019 349.107 256.055 348.13 256.429 346.105C256.71 344.782 256.774 343.422 256.62 342.078V342.078Z" fill="#000105"/>
    <path d="M237.768 357.679L239.364 373.685L239.625 376.282C239.847 378.456 241.911 379.009 244.186 378.79C244.186 378.79 247.254 378.179 248.263 377.953C252.547 376.999 260.885 375.535 265.157 374.448C265.346 374.479 265.538 374.496 265.729 374.499C266.303 374.488 266.872 374.409 267.427 374.265C268.494 374.001 269.516 373.583 270.461 373.023C271.61 372.302 273.043 370.223 273.055 369.907C273.101 368.696 271.15 370.235 270.173 370.932C269.394 371.481 268.51 372.018 268.074 371.929C268.017 371.918 267.964 371.892 267.921 371.852C267.878 371.813 267.848 371.763 267.832 371.707C267.754 371.461 268.035 371.122 268.397 370.752L268.833 369.195C268.155 369.545 267.504 369.946 266.886 370.394C266.886 370.394 265.176 371.072 264.359 371.874L245.665 372.606L245.747 354.692C245.61 353.629 245.058 352.663 244.21 352.006C243.363 351.349 242.29 351.055 241.226 351.187C238.979 351.397 237.561 355.494 237.768 357.679Z" fill="url(#paint19_linear)"/>
    <path d="M256.636 335.267C255.191 334.756 252.656 334.846 250.919 334.706C250.031 334.632 249.205 334.904 248.89 335.485C248.574 336.065 248.025 338.242 248.263 339.449C248.483 339.444 248.701 339.492 248.899 339.59C249.096 339.687 249.267 339.832 249.396 340.01C249.739 339.461 249.817 338.203 252.438 338.308C253.156 338.713 253.918 339.037 254.708 339.274C255.95 339.702 257.578 339.363 257.975 338.222C258.178 337.652 258.152 337.025 257.902 336.474C257.652 335.923 257.198 335.49 256.636 335.267V335.267Z" fill="#000105"/>
    <path d="M246.195 363.373C246.335 359.868 246.343 354.026 246.343 354.026C246.343 354.026 246.775 351.619 243.656 349.988C241.163 348.683 239.138 351.043 239.138 351.043C238.85 351.362 236.673 355.358 237.031 362.804C237.028 362.808 246.168 363.961 246.195 363.373Z" fill="url(#paint20_linear)"/>
    <path d="M97.3521 228.205C88.9082 228.205 82.063 221.36 82.063 212.916C82.063 204.472 88.9082 197.627 97.3521 197.627C105.796 197.627 112.641 204.472 112.641 212.916C112.641 221.36 105.796 228.205 97.3521 228.205Z" fill="#FDCDCA"/>
    <path d="M88.6042 207.552H106.93V219.304H88.6042V207.552Z" fill="#B8B8E8"/>
    <path d="M97.7672 213.426L106.93 219.304H88.6042L97.7672 213.426Z" fill="#B8B8E8"/>
    <path d="M88.6042 207.552H106.93L97.7672 215.871L88.6042 207.552Z" fill="#9595CB"/>
    <path opacity="0.75" d="M273.024 274.53C262.965 274.53 254.81 266.376 254.81 256.316C254.81 246.257 262.965 238.102 273.024 238.102C283.083 238.102 291.238 246.257 291.238 256.316C291.238 266.376 283.083 274.53 273.024 274.53Z" fill="#FCBCB9"/>
    <path d="M269.11 244.668C270.83 244.225 272.655 244.447 274.218 245.289C275.782 246.132 276.971 247.534 277.547 249.214C278.122 250.895 278.043 252.731 277.325 254.356C276.606 255.98 275.301 257.274 273.67 257.979L276.922 270.519L274.975 271.025L271.727 258.505C269.946 258.726 268.148 258.26 266.698 257.203C265.249 256.145 264.256 254.575 263.923 252.811C263.591 251.048 263.942 249.224 264.906 247.71C265.87 246.197 267.375 245.108 269.114 244.664L269.11 244.668ZM265.554 252.885C265.828 253.939 266.408 254.887 267.22 255.611C268.033 256.335 269.042 256.801 270.12 256.952C271.197 257.102 272.296 256.93 273.275 256.456C274.255 255.982 275.073 255.229 275.624 254.291C276.176 253.353 276.437 252.272 276.374 251.186C276.312 250.099 275.928 249.056 275.273 248.187C274.617 247.318 273.719 246.664 272.691 246.306C271.663 245.947 270.553 245.902 269.499 246.175C268.087 246.543 266.879 247.457 266.139 248.715C265.4 249.973 265.189 251.472 265.554 252.885V252.885Z" fill="#9595CB"/>
    <path d="M272.471 258.449L274.427 257.942L277.684 270.507L275.727 271.014L272.471 258.449Z" fill="#B8B8E8"/>
    <path d="M273.433 258.341C274.785 257.991 276.002 257.247 276.931 256.205C277.861 255.163 278.46 253.868 278.653 252.485C278.847 251.102 278.626 249.693 278.019 248.436C277.411 247.178 276.444 246.129 275.241 245.421C274.037 244.713 272.651 244.378 271.256 244.458C269.862 244.538 268.523 245.029 267.408 245.871C266.294 246.712 265.453 247.864 264.994 249.183C264.534 250.502 264.476 251.927 264.826 253.279C265.298 255.09 266.469 256.641 268.083 257.59C269.696 258.539 271.62 258.809 273.433 258.341V258.341ZM270.279 246.175C271.332 245.902 272.443 245.948 273.47 246.306C274.498 246.664 275.396 247.319 276.052 248.187C276.707 249.056 277.091 250.099 277.153 251.186C277.216 252.272 276.955 253.353 276.403 254.291C275.852 255.229 275.034 255.983 274.055 256.456C273.075 256.93 271.977 257.102 270.899 256.952C269.821 256.801 268.812 256.335 267.999 255.611C267.187 254.887 266.607 253.939 266.333 252.885C265.97 251.473 266.181 249.974 266.92 248.717C267.66 247.46 268.867 246.547 270.279 246.179V246.175Z" fill="#B8B8E8"/>
    <path d="M269.526 250.124C269.526 250.124 267.875 251.647 267.836 252.496C267.836 252.496 267.345 250.494 268.248 249.294L269.526 250.124Z" fill="#B8B8E8"/>
    <path d="M269.849 249.704L268.537 248.828C268.537 248.828 269.674 247.741 270.239 247.531L269.849 249.704Z" fill="#B8B8E8"/>
    <path opacity="0.9" d="M272.029 260.814L275.339 259.907L278.528 270.336L274.755 271.298L272.029 260.814Z" fill="#DF3D36"/>
    <path opacity="0.75" d="M125.715 363.179C122.723 357.359 125.015 350.216 130.835 347.224C136.654 344.232 143.797 346.524 146.789 352.344C149.781 358.163 147.489 365.306 141.67 368.298C135.85 371.29 128.707 368.998 125.715 363.179Z" fill="#FDCDCA"/>
    <path d="M135.518 357.919C135.463 357.486 135.771 357.09 136.205 357.036C136.639 356.981 137.034 357.289 137.089 357.723C137.143 358.157 136.835 358.552 136.401 358.607C135.968 358.661 135.572 358.353 135.518 357.919Z" fill="#9595CB"/>
    <path d="M128.913 358.18L129.737 358.078C129.717 357.596 129.751 357.113 129.837 356.639L129.036 356.419C128.892 356.379 128.77 356.284 128.696 356.154C128.622 356.024 128.603 355.869 128.643 355.725C128.683 355.581 128.779 355.459 128.909 355.385C129.039 355.312 129.193 355.293 129.337 355.333L130.138 355.552C130.309 355.095 130.532 354.657 130.8 354.249L130.144 353.74C130.085 353.695 130.035 353.638 129.997 353.573C129.96 353.509 129.936 353.437 129.926 353.363C129.916 353.289 129.921 353.214 129.94 353.142C129.96 353.069 129.993 353.002 130.038 352.942C130.084 352.883 130.141 352.833 130.205 352.796C130.27 352.759 130.341 352.734 130.416 352.725C130.49 352.715 130.565 352.72 130.637 352.739C130.709 352.758 130.777 352.792 130.836 352.837L131.492 353.349C131.82 352.995 132.185 352.678 132.582 352.404L132.17 351.681C132.098 351.552 132.081 351.399 132.121 351.257C132.161 351.114 132.256 350.993 132.384 350.92C132.513 350.847 132.665 350.827 132.808 350.866C132.951 350.904 133.073 350.997 133.148 351.124L133.56 351.844C134.002 351.64 134.466 351.487 134.942 351.386L134.84 350.561C134.826 350.416 134.87 350.27 134.961 350.156C135.053 350.042 135.186 349.968 135.331 349.95C135.476 349.932 135.623 349.971 135.74 350.059C135.856 350.148 135.934 350.278 135.957 350.423L136.059 351.248C136.54 351.228 137.021 351.261 137.495 351.347L137.714 350.546C137.734 350.475 137.768 350.408 137.813 350.35C137.859 350.292 137.916 350.243 137.98 350.206C138.044 350.17 138.115 350.146 138.189 350.137C138.262 350.128 138.337 350.134 138.408 350.154C138.48 350.173 138.546 350.207 138.605 350.252C138.663 350.298 138.712 350.355 138.748 350.419C138.785 350.484 138.808 350.555 138.817 350.628C138.826 350.701 138.821 350.776 138.801 350.847L138.581 351.648C139.038 351.817 139.474 352.036 139.882 352.301L140.394 351.645C140.439 351.586 140.496 351.536 140.56 351.499C140.625 351.461 140.696 351.437 140.771 351.427C140.845 351.417 140.92 351.422 140.992 351.442C141.064 351.461 141.132 351.494 141.191 351.54C141.251 351.585 141.3 351.642 141.338 351.707C141.375 351.771 141.399 351.843 141.409 351.917C141.419 351.991 141.414 352.066 141.395 352.138C141.375 352.21 141.342 352.278 141.297 352.337L140.788 352.994C141.142 353.321 141.459 353.687 141.733 354.083L142.456 353.671C142.52 353.633 142.591 353.609 142.665 353.599C142.739 353.588 142.814 353.593 142.886 353.612C142.958 353.632 143.025 353.665 143.085 353.711C143.144 353.756 143.193 353.813 143.23 353.878C143.267 353.943 143.29 354.014 143.299 354.088C143.308 354.162 143.303 354.237 143.282 354.309C143.262 354.381 143.228 354.448 143.182 354.506C143.135 354.565 143.078 354.613 143.012 354.649L142.293 355.062C142.497 355.504 142.65 355.967 142.751 356.443L143.575 356.341C143.65 356.33 143.726 356.333 143.799 356.352C143.872 356.37 143.94 356.403 144 356.448C144.06 356.494 144.111 356.551 144.148 356.616C144.186 356.681 144.21 356.753 144.219 356.828C144.229 356.903 144.223 356.979 144.202 357.051C144.182 357.124 144.147 357.191 144.1 357.25C144.053 357.309 143.994 357.357 143.928 357.393C143.862 357.429 143.789 357.451 143.714 357.458L142.889 357.56C142.909 358.042 142.876 358.524 142.79 358.999L143.59 359.219C143.662 359.238 143.728 359.272 143.787 359.318C143.845 359.363 143.894 359.42 143.93 359.484C143.967 359.549 143.99 359.62 143.999 359.693C144.008 359.767 144.003 359.841 143.983 359.913C143.963 359.984 143.93 360.051 143.884 360.109C143.839 360.167 143.782 360.216 143.718 360.253C143.653 360.289 143.582 360.313 143.509 360.322C143.435 360.331 143.361 360.325 143.289 360.305L142.489 360.086C142.32 360.542 142.101 360.978 141.835 361.386L142.492 361.898C142.611 361.99 142.69 362.125 142.71 362.275C142.729 362.424 142.689 362.576 142.597 362.695C142.505 362.815 142.37 362.894 142.22 362.913C142.07 362.933 141.919 362.893 141.799 362.801L141.143 362.289C140.816 362.643 140.45 362.96 140.053 363.234L140.466 363.957C140.537 364.086 140.555 364.239 140.515 364.381C140.474 364.524 140.38 364.645 140.251 364.718C140.123 364.791 139.97 364.811 139.828 364.772C139.685 364.734 139.562 364.641 139.487 364.514L139.075 363.794C138.633 363.998 138.17 364.151 137.693 364.252L137.796 365.077C137.81 365.222 137.766 365.368 137.674 365.482C137.583 365.596 137.45 365.67 137.305 365.688C137.159 365.706 137.013 365.667 136.896 365.578C136.779 365.49 136.701 365.36 136.679 365.215L136.577 364.39C136.095 364.41 135.612 364.377 135.138 364.291L134.918 365.092C134.898 365.163 134.865 365.23 134.819 365.288C134.773 365.346 134.717 365.395 134.652 365.432C134.588 365.468 134.517 365.492 134.444 365.501C134.37 365.51 134.296 365.504 134.224 365.484C134.153 365.465 134.086 365.431 134.028 365.385C133.969 365.34 133.921 365.283 133.884 365.219C133.848 365.154 133.824 365.083 133.815 365.01C133.806 364.936 133.812 364.862 133.831 364.791L134.051 363.99C133.595 363.821 133.159 363.602 132.751 363.337L132.239 363.993C132.147 364.113 132.011 364.191 131.862 364.211C131.712 364.231 131.561 364.19 131.441 364.098C131.321 364.006 131.243 363.871 131.223 363.721C131.204 363.572 131.244 363.42 131.336 363.301L131.848 362.644C131.494 362.317 131.177 361.951 130.902 361.555L130.18 361.967C130.05 362.038 129.898 362.056 129.755 362.016C129.613 361.976 129.492 361.881 129.419 361.753C129.346 361.624 129.326 361.472 129.364 361.329C129.403 361.186 129.496 361.064 129.623 360.989L130.337 360.57C130.133 360.128 129.979 359.665 129.879 359.189L129.054 359.291C128.908 359.305 128.763 359.261 128.649 359.169C128.535 359.078 128.461 358.945 128.443 358.8C128.425 358.654 128.464 358.508 128.552 358.391C128.641 358.274 128.771 358.196 128.916 358.174L128.913 358.18ZM140.415 355.01C140.281 354.817 140.093 354.667 139.874 354.581C139.655 354.494 139.416 354.474 139.186 354.524C138.956 354.573 138.746 354.69 138.582 354.859C138.418 355.028 138.308 355.241 138.266 355.473C138.224 355.704 138.252 355.943 138.345 356.159C138.439 356.375 138.594 356.558 138.792 356.685C138.99 356.813 139.221 356.879 139.456 356.875C139.691 356.871 139.92 356.797 140.114 356.663C140.372 356.484 140.549 356.209 140.606 355.899C140.662 355.589 140.594 355.27 140.415 355.01V355.01ZM139.229 360.51C139.442 360.61 139.679 360.644 139.912 360.609C140.144 360.574 140.361 360.471 140.535 360.312C140.709 360.153 140.832 359.947 140.888 359.719C140.944 359.49 140.932 359.25 140.852 359.029C140.772 358.808 140.628 358.615 140.438 358.476C140.249 358.337 140.022 358.256 139.787 358.246C139.552 358.235 139.32 358.295 139.118 358.416C138.917 358.538 138.756 358.717 138.657 358.93C138.523 359.215 138.508 359.542 138.616 359.838C138.723 360.135 138.943 360.376 139.229 360.51V360.51ZM135.671 352.876C135.437 352.905 135.218 353.003 135.04 353.157C134.862 353.311 134.734 353.514 134.672 353.741C134.609 353.968 134.616 354.208 134.69 354.431C134.764 354.654 134.903 354.85 135.088 354.995C135.274 355.139 135.498 355.225 135.733 355.242C135.967 355.259 136.201 355.206 136.406 355.09C136.61 354.973 136.776 354.799 136.881 354.589C136.986 354.379 137.027 354.142 136.998 353.909C136.96 353.597 136.799 353.313 136.552 353.119C136.305 352.925 135.992 352.837 135.68 352.873L135.671 352.876ZM136.911 362.774C137.144 362.745 137.364 362.647 137.541 362.493C137.719 362.339 137.847 362.136 137.91 361.909C137.972 361.682 137.966 361.442 137.892 361.219C137.817 360.996 137.679 360.8 137.493 360.655C137.307 360.511 137.083 360.425 136.849 360.408C136.614 360.391 136.38 360.444 136.175 360.56C135.971 360.677 135.806 360.851 135.7 361.061C135.595 361.271 135.554 361.508 135.583 361.741C135.603 361.897 135.653 362.046 135.731 362.182C135.809 362.318 135.912 362.437 136.036 362.533C136.16 362.629 136.302 362.699 136.453 362.74C136.604 362.78 136.762 362.791 136.917 362.771L136.911 362.774ZM136.474 359.294C136.765 359.258 137.038 359.136 137.26 358.944C137.482 358.753 137.641 358.5 137.719 358.217C137.797 357.935 137.789 357.636 137.697 357.358C137.604 357.08 137.432 356.835 137.2 356.655C136.969 356.475 136.69 356.368 136.398 356.347C136.105 356.326 135.813 356.392 135.559 356.537C135.304 356.682 135.098 356.899 134.967 357.161C134.836 357.423 134.785 357.718 134.822 358.009C134.846 358.202 134.909 358.389 135.006 358.558C135.102 358.727 135.232 358.876 135.386 358.995C135.541 359.114 135.717 359.202 135.905 359.252C136.093 359.303 136.29 359.316 136.483 359.291L136.474 359.294ZM133.353 355.14C133.14 355.04 132.902 355.005 132.669 355.041C132.437 355.076 132.22 355.179 132.046 355.338C131.872 355.497 131.75 355.703 131.693 355.931C131.637 356.16 131.65 356.4 131.73 356.621C131.81 356.842 131.954 357.035 132.143 357.174C132.332 357.313 132.559 357.394 132.794 357.404C133.029 357.415 133.262 357.355 133.463 357.234C133.664 357.112 133.825 356.933 133.925 356.72C134.06 356.436 134.076 356.109 133.971 355.812C133.865 355.515 133.646 355.272 133.362 355.137L133.353 355.14ZM132.173 360.64C132.306 360.834 132.494 360.984 132.713 361.071C132.932 361.158 133.171 361.178 133.401 361.129C133.632 361.08 133.842 360.963 134.006 360.794C134.17 360.625 134.28 360.411 134.322 360.18C134.365 359.948 134.337 359.709 134.243 359.493C134.15 359.277 133.994 359.094 133.796 358.966C133.598 358.839 133.367 358.773 133.131 358.777C132.896 358.781 132.667 358.856 132.474 358.99C132.218 359.171 132.044 359.445 131.989 359.753C131.935 360.061 132.004 360.379 132.182 360.637L132.173 360.64Z" fill="#9595CB"/>
    <path d="M19.0274 281.46C14.594 272.837 17.9902 262.253 26.613 257.82C35.2359 253.386 45.8202 256.782 50.2536 265.405C54.6871 274.028 51.2909 284.612 42.668 289.046C34.0451 293.479 23.4609 290.083 19.0274 281.46Z" fill="#FDCDCA"/>
    <path d="M28.177 263.044H30.9031V282.341H28.177V263.044Z" fill="#9595CB"/>
    <path d="M31.8577 273.493H34.5838V282.341H31.8577V273.493Z" fill="#9595CB"/>
    <path d="M35.5334 267.328H38.2594V282.341H35.5334V267.328Z" fill="#9595CB"/>
    <path d="M39.2105 273.255H41.9366V282.341H39.2105V273.255Z" fill="#9595CB"/>
    <path opacity="0.6" d="M192.719 222.318C189.174 215.424 191.889 206.962 198.783 203.418C205.677 199.873 214.139 202.588 217.683 209.482C221.227 216.376 218.512 224.838 211.618 228.382C204.725 231.926 196.263 229.211 192.719 222.318Z" fill="#FDCDCA"/>
    <path d="M211.397 217.736C210.465 217.736 209.71 216.981 209.71 216.049C209.71 215.118 210.465 214.363 211.397 214.363C212.328 214.363 213.083 215.118 213.083 216.049C213.083 216.981 212.328 217.736 211.397 217.736Z" fill="#9595CB"/>
    <path d="M204.901 217.736C203.97 217.736 203.215 216.981 203.215 216.049C203.215 215.118 203.97 214.363 204.901 214.363C205.832 214.363 206.587 215.118 206.587 216.049C206.587 216.981 205.832 217.736 204.901 217.736Z" fill="#9595CB"/>
    <path d="M198.409 217.736C197.478 217.736 196.723 216.981 196.723 216.049C196.723 215.118 197.478 214.363 198.409 214.363C199.341 214.363 200.096 215.118 200.096 216.049C200.096 216.981 199.341 217.736 198.409 217.736Z" fill="#9595CB"/>
    <defs>
        <linearGradient id="paint0_linear" x1="159.225" y1="279.959" x2="159.326" y2="289.87" gradientUnits="userSpaceOnUse">
            <stop stop-color="#032B6B"/>
            <stop offset="0.95" stop-color="#030C43"/>
        </linearGradient>
        <linearGradient id="paint1_linear" x1="173.553" y1="273.864" x2="167.524" y2="273.529" gradientUnits="userSpaceOnUse">
            <stop offset="0.07" stop-color="#ECDFCF"/>
            <stop offset="0.8" stop-color="#E58057"/>
        </linearGradient>
        <linearGradient id="paint2_linear" x1="-3403.61" y1="1574.55" x2="-3544.49" y2="1609.05" gradientUnits="userSpaceOnUse">
            <stop offset="0.07" stop-color="#ECDFCF"/>
            <stop offset="0.8" stop-color="#E58057"/>
        </linearGradient>
        <linearGradient id="paint3_linear" x1="-2007.88" y1="1777.31" x2="-1997.25" y2="1553.55" gradientUnits="userSpaceOnUse">
            <stop offset="0.07" stop-color="#ECDFCF"/>
            <stop offset="0.8" stop-color="#E58057"/>
        </linearGradient>
        <linearGradient id="paint4_linear" x1="-4060.03" y1="1686.97" x2="-4062.29" y2="1533.38" gradientUnits="userSpaceOnUse">
            <stop offset="0.07" stop-color="#ECDFCF"/>
            <stop offset="0.8" stop-color="#E58057"/>
        </linearGradient>
        <linearGradient id="paint5_linear" x1="170.878" y1="286.531" x2="173.472" y2="286.765" gradientUnits="userSpaceOnUse">
            <stop stop-color="#FF052A"/>
            <stop offset="0.9" stop-color="#AC1622"/>
        </linearGradient>
        <linearGradient id="paint6_linear" x1="-3496.02" y1="2729.65" x2="-3513.3" y2="2729.65" gradientUnits="userSpaceOnUse">
            <stop stop-color="#FF052A"/>
            <stop offset="0.9" stop-color="#AC1622"/>
        </linearGradient>
        <linearGradient id="paint7_linear" x1="86.2216" y1="378.674" x2="67.0379" y2="378.674" gradientUnits="userSpaceOnUse">
            <stop stop-color="#F2B3A5"/>
            <stop offset="0.32" stop-color="#F2B5A8"/>
            <stop offset="0.51" stop-color="#F4BCB0"/>
            <stop offset="0.67" stop-color="#F6C8BE"/>
            <stop offset="0.8" stop-color="#F9D9D2"/>
            <stop offset="0.93" stop-color="#FCEFEC"/>
            <stop offset="1" stop-color="white"/>
        </linearGradient>
        <linearGradient id="paint8_linear" x1="-16825.3" y1="9161.78" x2="-18926.5" y2="9161.78" gradientUnits="userSpaceOnUse">
            <stop stop-color="#F2B3A5"/>
            <stop offset="0.32" stop-color="#F2B5A8"/>
            <stop offset="0.51" stop-color="#F4BCB0"/>
            <stop offset="0.67" stop-color="#F6C8BE"/>
            <stop offset="0.8" stop-color="#F9D9D2"/>
            <stop offset="0.93" stop-color="#FCEFEC"/>
            <stop offset="1" stop-color="white"/>
        </linearGradient>
        <linearGradient id="paint9_linear" x1="-5406.29" y1="12794" x2="-5554.23" y2="12787.6" gradientUnits="userSpaceOnUse">
            <stop stop-color="#F2B3A5"/>
            <stop offset="0.32" stop-color="#F2B5A8"/>
            <stop offset="0.51" stop-color="#F4BCB0"/>
            <stop offset="0.67" stop-color="#F6C8BE"/>
            <stop offset="0.8" stop-color="#F9D9D2"/>
            <stop offset="0.93" stop-color="#FCEFEC"/>
            <stop offset="1" stop-color="white"/>
        </linearGradient>
        <linearGradient id="paint10_linear" x1="-3011.59" y1="3057.59" x2="-3076.5" y2="3057.59" gradientUnits="userSpaceOnUse">
            <stop stop-color="#F2B3A5"/>
            <stop offset="0.32" stop-color="#F2B5A8"/>
            <stop offset="0.51" stop-color="#F4BCB0"/>
            <stop offset="0.67" stop-color="#F6C8BE"/>
            <stop offset="0.8" stop-color="#F9D9D2"/>
            <stop offset="0.93" stop-color="#FCEFEC"/>
            <stop offset="1" stop-color="white"/>
        </linearGradient>
        <linearGradient id="paint11_linear" x1="-15048.3" y1="11387.1" x2="-15294.5" y2="11387.1" gradientUnits="userSpaceOnUse">
            <stop stop-color="#F2B3A5"/>
            <stop offset="0.32" stop-color="#F2B5A8"/>
            <stop offset="0.51" stop-color="#F4BCB0"/>
            <stop offset="0.67" stop-color="#F6C8BE"/>
            <stop offset="0.8" stop-color="#F9D9D2"/>
            <stop offset="0.93" stop-color="#FCEFEC"/>
            <stop offset="1" stop-color="white"/>
        </linearGradient>
        <linearGradient id="paint12_linear" x1="-6228.23" y1="4233.14" x2="-6311.62" y2="4201.43" gradientUnits="userSpaceOnUse">
            <stop stop-color="#F2B3A5"/>
            <stop offset="0.32" stop-color="#F2B5A8"/>
            <stop offset="0.51" stop-color="#F4BCB0"/>
            <stop offset="0.67" stop-color="#F6C8BE"/>
            <stop offset="0.8" stop-color="#F9D9D2"/>
            <stop offset="0.93" stop-color="#FCEFEC"/>
            <stop offset="1" stop-color="white"/>
        </linearGradient>
        <linearGradient id="paint13_linear" x1="-4825.76" y1="6072.72" x2="-3160.1" y2="5752.87" gradientUnits="userSpaceOnUse">
            <stop offset="0.07" stop-color="#ECDFCF"/>
            <stop offset="0.8" stop-color="#E58057"/>
        </linearGradient>
        <linearGradient id="paint14_linear" x1="-1754.13" y1="11188" x2="-1754.13" y2="10757" gradientUnits="userSpaceOnUse">
            <stop offset="0.07" stop-color="#ECDFCF"/>
            <stop offset="0.8" stop-color="#E58057"/>
        </linearGradient>
        <linearGradient id="paint15_linear" x1="-2208.36" y1="11188" x2="-2208.36" y2="10757" gradientUnits="userSpaceOnUse">
            <stop offset="0.07" stop-color="#ECDFCF"/>
            <stop offset="0.8" stop-color="#E58057"/>
        </linearGradient>
        <linearGradient id="paint16_linear" x1="262.314" y1="368.35" x2="231.436" y2="370.492" gradientUnits="userSpaceOnUse">
            <stop offset="0.19" stop-color="white"/>
            <stop offset="1" stop-color="#C6C6C6"/>
        </linearGradient>
        <linearGradient id="paint17_linear" x1="13266.1" y1="4397.24" x2="13320.3" y2="4209.93" gradientUnits="userSpaceOnUse">
            <stop offset="0.07" stop-color="#ECDFCF"/>
            <stop offset="0.8" stop-color="#E58057"/>
        </linearGradient>
        <linearGradient id="paint18_linear" x1="21990.9" y1="5675.31" x2="21999.9" y2="5512.56" gradientUnits="userSpaceOnUse">
            <stop offset="0.07" stop-color="#ECDFCF"/>
            <stop offset="0.8" stop-color="#E58057"/>
        </linearGradient>
        <linearGradient id="paint19_linear" x1="-8081.79" y1="12659.9" x2="-5216.88" y2="13439.9" gradientUnits="userSpaceOnUse">
            <stop offset="0.07" stop-color="#ECDFCF"/>
            <stop offset="0.8" stop-color="#E58057"/>
        </linearGradient>
        <linearGradient id="paint20_linear" x1="-1767.86" y1="6286.94" x2="-1993.44" y2="6286.94" gradientUnits="userSpaceOnUse">
            <stop offset="0.19" stop-color="white"/>
            <stop offset="1" stop-color="#C6C6C6"/>
        </linearGradient>
    </defs>
</svg>
