<svg width="126" height="15" viewBox="0 0 126 15" fill="none" xmlns="http://www.w3.org/2000/svg">
    <path d="M7.68586 5.5283L13.3049 0.018868H14.943V14.9057H11.3049V7.24528L7.68586 10.7925L4.04776 7.26415V14.8868H0.409668V0H2.04776L7.68586 5.5283Z" fill="#273271"/>
    <path d="M16.8096 14.8868L23.2668 0H24.9049L31.4192 14.8868H27.7811L26.9239 12.9434H21.2668L20.4287 14.8868H16.8096ZM22.6954 9.64151H25.5144L24.1049 6.35849L22.6954 9.64151Z" fill="#273271"/>
    <path d="M33.2287 0H36.8668V14.8868H33.2287V0Z" fill="#273271"/>
    <path d="M39.6478 0H43.2859V10.9623H48.2573V14.8868H39.6478V0Z" fill="#273271"/>
    <path d="M50.8477 0H59.5144V3.20755H54.4858V5.62264H58.9239V8.96226H54.4858V14.9057H50.8477V0Z" fill="#273271"/>
    <path d="M62.1049 0H65.743V14.8868H62.1049V0Z" fill="#273271"/>
    <path d="M76.543 14.8868L74.4097 10.9434H72.143V14.8868H68.524V0H74.3525C77.1525 0 79.4382 2.45283 79.4382 5.4717C79.4382 7.0566 78.7906 8.49057 77.8002 9.4717L80.7144 14.8868H76.543ZM72.143 7.56604H74.3906C75.4954 7.56604 76.3906 6.64151 76.3906 5.43396C76.3906 4.22642 75.4954 3.30189 74.3906 3.30189H72.143V7.56604Z" fill="#273271"/>
    <path d="M82.505 0H91.0954V3.22642H86.143V5.64151H90.524V8.96226H86.143V11.6981H91.0954V14.8868H82.505V0Z" fill="#273271"/>
    <path d="M118.6 14.8869L125.419 10.3963V8.03784L115 14.8869H118.6Z" fill="#273271"/>
    <path d="M114.391 0H105.686L110.048 2.86792L114.391 0Z" fill="#E84640"/>
    <path d="M119.819 0H115.952L110.048 3.88679L104.143 0H100.276L110.048 6.43396L119.819 0Z" fill="#E84640"/>
    <path d="M94.6763 4.47192V7.01909L106.638 14.887H113.457L125.419 7.01909V4.47192L110.048 14.5851L94.6763 4.47192Z" fill="#273271"/>
    <path d="M110.048 7.45283L98.7144 0H94.8478L110.048 10L125.248 0H121.362L110.048 7.45283Z" fill="#E84640"/>
    <path d="M105.076 14.8869L94.6763 8.03784V10.3963L101.495 14.8869H105.076Z" fill="#273271"/>
    <path d="M125.419 14.8869V11.4341L120.143 14.8869H125.419Z" fill="#273271"/>
    <path d="M94.6763 0.905273V3.45244L110.048 13.5468L125.419 3.45244V0.905273L110.048 11.0185L94.6763 0.905273Z" fill="#273271"/>
    <path d="M94.6763 14.8869H99.9335L94.6763 11.4341V14.8869Z" fill="#273271"/>
    <path d="M115.953 0H114.391L110.048 2.86792L105.686 0H104.143L110.048 3.88679L115.953 0Z" fill="white"/>
    <path d="M121.362 0H119.819L110.048 6.43396L100.276 0H98.7145L110.048 7.45283L121.362 0Z" fill="white"/>
    <path d="M94.8478 0H94.6763V0.90566L110.048 11.0189L125.419 0.90566V0H125.248L110.048 10L94.8478 0Z" fill="white"/>
    <path d="M94.6763 3.45239V4.47126L110.048 14.5845L125.419 4.47126V3.45239L110.048 13.5467L94.6763 3.45239Z" fill="white"/>
    <path d="M115 14.8872L125.419 8.03815V7.01929L113.457 14.8872H115Z" fill="white"/>
    <path d="M106.638 14.8872L94.6763 7.01929V8.03815L105.076 14.8872H106.638Z" fill="white"/>
    <path d="M94.6763 10.3965V11.4342L99.9335 14.8871H101.495L94.6763 10.3965Z" fill="white"/>
    <path d="M120.143 14.8871L125.419 11.4342V10.3965L118.6 14.8871H120.143Z" fill="white"/>
</svg>
