<svg width="1138" height="515" viewBox="0 0 1138 515" fill="none" xmlns="http://www.w3.org/2000/svg">
    <path fill-rule="evenodd" clip-rule="evenodd" d="M199.565 197.642C193.482 141.865 235.635 80.4819 308.386 42.2082C380.368 4.33909 482.329 -2.68512 573.751 0.785849C652.916 3.79147 707.212 41.2483 778.355 60.0513C857.969 81.0933 977.916 69.8687 1014.74 117.339C1051.42 164.616 977.978 220.565 942.166 271.212C913.125 312.285 1125.52 346.635 1081.22 382.896C1023.49 430.161 1435.77 515 644.377 515C-466.198 515 209.285 472.462 147.901 432.758C99.9991 401.774 232.927 354.216 198.425 317.065C157.924 273.455 205.144 248.798 199.565 197.642Z" fill="#FCE3C4"/>
    <circle r="20" transform="matrix(-1 0 0 1 599 320)" fill="#F1F1FB"/>
    <path d="M589.253 311.846H591.425C592.14 311.844 592.75 312.364 592.859 313.071L594.579 323.935C594.741 324.989 595.65 325.765 596.716 325.761H607.347C607.543 325.761 607.703 325.601 607.703 325.404C607.703 325.208 607.543 325.048 607.347 325.048H596.716C596.001 325.051 595.391 324.53 595.282 323.824L594.99 321.977H605.878C606.8 321.976 607.62 321.392 607.922 320.521L609.942 314.691C609.98 314.582 609.963 314.462 609.896 314.368C609.829 314.274 609.721 314.218 609.606 314.218H593.762L593.562 312.959C593.4 311.906 592.491 311.13 591.425 311.134H589.253C589.056 311.134 588.896 311.294 588.896 311.49C588.896 311.687 589.056 311.846 589.253 311.846V311.846ZM609.105 314.931L607.249 320.288C607.047 320.872 606.496 321.264 605.878 321.264H594.877L593.874 314.931L609.105 314.931Z" fill="#F78B89"/>
    <path d="M599.199 329.053C599.199 327.943 598.3 327.044 597.191 327.044C596.082 327.044 595.183 327.943 595.183 329.052C595.183 330.162 596.082 331.061 597.191 331.061C598.3 331.06 599.198 330.161 599.199 329.053V329.053ZM595.895 329.053C595.895 328.337 596.475 327.756 597.191 327.756C597.907 327.756 598.487 328.337 598.487 329.052C598.487 329.768 597.907 330.349 597.191 330.349C596.476 330.348 595.896 329.768 595.895 329.053V329.053Z" fill="#F78B89"/>
    <path d="M604.627 331.06C605.737 331.06 606.636 330.161 606.636 329.051C606.636 327.942 605.737 327.043 604.628 327.043C603.518 327.043 602.619 327.942 602.619 329.051C602.621 330.16 603.519 331.058 604.627 331.06V331.06ZM604.627 327.755C605.343 327.755 605.924 328.336 605.924 329.051C605.924 329.767 605.343 330.347 604.628 330.347C603.912 330.347 603.332 329.767 603.332 329.051C603.332 328.336 603.912 327.756 604.627 327.755V327.755Z" fill="#F78B89"/>
    <circle cx="597.011" cy="329.049" r="1.55403" fill="#F78B89"/>
    <circle cx="604.609" cy="329.05" r="1.55403" fill="#F78B89"/>
    <path d="M594.767 321.28L593.903 314.891H609.098L607.311 320.253C607.237 320.474 607.113 320.675 606.948 320.84C606.666 321.122 606.284 321.28 605.886 321.28H594.767Z" fill="white"/>
    <circle r="20" transform="matrix(-1 0 0 1 609 85)" fill="#F1F1FB"/>
    <g clip-path="url(#clip0)">
        <path d="M621 76.7905V93.1143C621 94.2189 620.104 95.1143 619 95.1143H600.143C599.038 95.1143 598.143 94.2189 598.143 93.1143V76.7905L609.571 75.8L621 76.7905Z" fill="#FAD6D6"/>
        <path d="M619 74.3143C620.105 74.3143 621 75.2098 621 76.3143V76.7905H618.46L616.937 75.5524L618.46 74.3143H619Z" fill="#F78B89"/>
        <path d="M618.46 74.3143H600.143C599.038 74.3143 598.143 75.2098 598.143 76.3143V76.7905H618.46V74.3143Z" fill="white"/>
        <path d="M617.952 84.838H601.191C600.98 84.838 600.81 84.6717 600.81 84.4666C600.81 84.2615 600.98 84.0952 601.191 84.0952H617.952C618.163 84.0952 618.333 84.2615 618.333 84.4666C618.333 84.6718 618.163 84.838 617.952 84.838Z" fill="white"/>
        <path d="M608.556 86.8191H601.191C600.98 86.8191 600.81 86.6528 600.81 86.4477C600.81 86.2426 600.98 86.0763 601.191 86.0763H608.556C608.766 86.0763 608.937 86.2426 608.937 86.4477C608.937 86.6528 608.766 86.8191 608.556 86.8191Z" fill="#8B7E7F"/>
        <path d="M608.556 88.8001H601.191C600.98 88.8001 600.81 88.6338 600.81 88.4287C600.81 88.2236 600.98 88.0573 601.191 88.0573H608.556C608.766 88.0573 608.937 88.2236 608.937 88.4287C608.937 88.6338 608.766 88.8001 608.556 88.8001Z" fill="#8B7E7F"/>
        <path d="M608.556 90.781H601.191C600.98 90.781 600.81 90.6147 600.81 90.4096C600.81 90.2045 600.98 90.0382 601.191 90.0382H608.556C608.766 90.0382 608.937 90.2045 608.937 90.4096C608.937 90.6147 608.766 90.781 608.556 90.781Z" fill="#8B7E7F"/>
        <path d="M617.952 86.4475H610.587V92.3904H617.952V86.4475Z" fill="#F78B89"/>
        <path d="M608.556 92.762H601.191C600.98 92.762 600.81 92.5957 600.81 92.3906C600.81 92.1855 600.98 92.0192 601.191 92.0192H608.556C608.766 92.0192 608.937 92.1855 608.937 92.3906C608.937 92.5957 608.766 92.762 608.556 92.762Z" fill="#8B7E7F"/>
        <path d="M615.779 82.8572C615.093 82.8572 614.558 82.5645 614.383 82.0933C614.311 81.9004 614.414 81.6875 614.612 81.6177C614.809 81.5479 615.028 81.6476 615.099 81.8406C615.16 82.0044 615.433 82.1144 615.779 82.1144C616.037 82.1144 616.474 82.0361 616.474 81.7427C616.474 81.5417 616.38 81.4721 615.717 81.3664C615.422 81.3195 615.118 81.2709 614.861 81.1393C614.508 80.9581 614.321 80.6532 614.321 80.2575C614.321 79.6013 614.921 79.1429 615.779 79.1429C616.464 79.1429 616.999 79.4355 617.174 79.9064C617.246 80.0993 617.144 80.3122 616.946 80.3822C616.748 80.4523 616.53 80.3524 616.458 80.1596C616.397 79.9959 616.124 79.8858 615.779 79.8858C615.52 79.8858 615.083 79.9641 615.083 80.2575C615.083 80.4582 615.177 80.5276 615.84 80.6333C616.135 80.6803 616.439 80.7288 616.696 80.8605C617.049 81.0418 617.236 81.3468 617.236 81.7426C617.236 82.3989 616.637 82.8572 615.779 82.8572Z" fill="#F78B89"/>
        <path d="M612.406 82.8572C612.263 82.8572 612.131 82.7794 612.066 82.6536L611.634 81.8216L611.201 82.6536C611.129 82.7918 610.977 82.8722 610.819 82.8549C610.661 82.8379 610.531 82.727 610.492 82.577L609.72 79.6055C609.668 79.4067 609.792 79.2046 609.996 79.1543C610.199 79.104 610.407 79.2242 610.458 79.4231L610.981 81.4339L611.294 80.8322C611.359 80.7073 611.49 80.6286 611.633 80.6286C611.777 80.6286 611.908 80.7073 611.973 80.8322L612.286 81.4339L612.809 79.4231C612.86 79.2242 613.068 79.1039 613.271 79.1543C613.475 79.2046 613.599 79.4067 613.547 79.6055L612.775 82.577C612.736 82.7271 612.605 82.8379 612.448 82.8549C612.434 82.8564 612.42 82.8572 612.406 82.8572Z" fill="#F78B89"/>
        <path d="M608.566 82.8572H606.413C606.203 82.8572 606.032 82.6909 606.032 82.4858V79.5144C606.032 79.3092 606.203 79.1429 606.413 79.1429H608.566C608.776 79.1429 608.947 79.3093 608.947 79.5144C608.947 79.7195 608.776 79.8858 608.566 79.8858H606.794V82.1143H608.566C608.776 82.1143 608.947 82.2807 608.947 82.4858C608.947 82.6909 608.776 82.8572 608.566 82.8572Z" fill="#F78B89"/>
        <path d="M607.848 81.3715H606.413C606.203 81.3715 606.032 81.2052 606.032 81.0001C606.032 80.795 606.203 80.6287 606.413 80.6287H607.848C608.059 80.6287 608.229 80.795 608.229 81.0001C608.229 81.2052 608.059 81.3715 607.848 81.3715Z" fill="#F78B89"/>
        <path d="M604.89 82.8572C604.78 82.8572 604.674 82.8112 604.6 82.7269L602.669 80.5216V82.4858C602.669 82.6909 602.499 82.8572 602.288 82.8572C602.078 82.8572 601.907 82.6909 601.907 82.4858V79.5143C601.907 79.3587 602.007 79.2197 602.156 79.1658C602.306 79.1119 602.474 79.1548 602.578 79.2731L604.509 81.4784V79.5143C604.509 79.3092 604.679 79.1429 604.889 79.1429C605.1 79.1429 605.27 79.3092 605.27 79.5143V82.4858C605.27 82.6414 605.171 82.7805 605.021 82.8343C604.978 82.8497 604.934 82.8572 604.89 82.8572Z" fill="#F78B89"/>
    </g>
    <circle cx="629" cy="198" r="20" fill="#F1F1FB"/>
    <g clip-path="url(#clip1)">
        <path d="M619.858 187.447H639.349C639.903 187.447 640.357 187.901 640.357 188.455V207.947C640.357 208.501 639.903 208.955 639.349 208.955H619.858C619.303 208.955 618.85 208.501 618.85 207.946V188.455C618.85 187.901 619.303 187.447 619.858 187.447Z" fill="#FAD6D6"/>
        <path d="M620.866 191.816H638.341C638.711 191.816 639.013 192.118 639.013 192.488V206.938C639.013 207.308 638.711 207.611 638.341 207.611H620.866C620.497 207.611 620.194 207.308 620.194 206.938V192.488C620.194 192.118 620.497 191.816 620.866 191.816Z" fill="white"/>
        <path d="M627.587 188.959H638.341C638.711 188.959 639.013 189.262 639.013 189.631C639.013 190.001 638.711 190.304 638.341 190.304H627.587C627.217 190.304 626.915 190.001 626.915 189.631C626.915 189.262 627.217 188.959 627.587 188.959Z" fill="#F78B89"/>
        <path d="M622.546 193.496H636.66C637.03 193.496 637.333 193.799 637.333 194.168V198.201C637.333 198.571 637.03 198.873 636.66 198.873H622.546C622.176 198.873 621.874 198.571 621.874 198.201V194.168C621.874 193.799 622.177 193.496 622.546 193.496Z" fill="#FAD6D6"/>
        <path d="M622.546 200.721H628.091C628.461 200.721 628.763 201.024 628.763 201.393V205.09C628.763 205.46 628.461 205.762 628.091 205.762H622.546C622.176 205.762 621.874 205.46 621.874 205.09V201.393C621.874 201.024 622.177 200.721 622.546 200.721ZM636.828 200.721H630.611C630.326 200.721 630.107 200.94 630.107 201.225C630.107 201.511 630.326 201.729 630.611 201.729H636.828C637.114 201.729 637.333 201.511 637.333 201.225C637.333 200.957 637.114 200.721 636.828 200.721ZM636.828 202.738H630.611C630.326 202.738 630.107 202.956 630.107 203.242C630.107 203.527 630.326 203.746 630.611 203.746H636.828C637.114 203.746 637.333 203.527 637.333 203.242C637.333 202.973 637.114 202.738 636.828 202.738ZM636.828 204.754H630.611C630.326 204.754 630.107 204.972 630.107 205.258C630.107 205.544 630.326 205.762 630.611 205.762H636.828C637.114 205.762 637.333 205.544 637.333 205.258C637.333 204.989 637.114 204.754 636.828 204.754Z" fill="#F78B89"/>
        <path d="M620.866 188.959C620.497 188.959 620.194 189.262 620.194 189.631C620.194 190.001 620.497 190.304 620.866 190.304C621.236 190.304 621.539 190.001 621.539 189.631C621.539 189.262 621.236 188.959 620.866 188.959ZM622.883 188.959C622.513 188.959 622.211 189.262 622.211 189.631C622.211 190.001 622.513 190.304 622.883 190.304C623.252 190.304 623.555 190.001 623.555 189.631C623.555 189.262 623.252 188.959 622.883 188.959ZM624.899 188.959C624.529 188.959 624.227 189.262 624.227 189.631C624.227 190.001 624.529 190.304 624.899 190.304C625.269 190.304 625.571 190.001 625.571 189.631C625.571 189.262 625.269 188.959 624.899 188.959Z" fill="#F78B89"/>
    </g>
    <circle cx="682" cy="125" r="20" fill="#F1F1FB"/>
    <path d="M694.187 119.41C693.734 117.575 692.585 115.99 690.984 114.99C689.383 113.99 687.457 113.654 685.612 114.053C684.265 114.42 683.071 115.212 682.207 116.312C681.343 117.412 680.856 118.761 680.817 120.16C680.087 118.96 678.99 118.028 677.689 117.504C676.388 116.979 674.953 116.89 673.597 117.249C671.802 117.857 670.316 119.145 669.456 120.837C668.597 122.529 668.432 124.49 668.998 126.302C670.78 132.713 682.582 137.355 685.22 137.444H685.612H685.809H685.933C688.144 135.855 695.952 125.802 694.187 119.41Z" fill="#FF8888"/>
    <path d="M546 381C546 382.857 546.625 384.637 547.739 385.95C548.852 387.263 550.362 388 551.936 388H617.064C618.638 388 620.148 387.263 621.261 385.95C622.375 384.637 623 382.857 623 381H546Z" fill="#A1A1A1"/>
    <path d="M642.192 239.158C642.192 239.158 637.006 240.991 636.043 249.363C635.582 253.356 633.892 261.517 635.58 271.666C636.523 277.342 642.045 283.368 642.005 288.897C641.957 296.051 638.034 302.365 638.005 306.034C637.971 309.286 637.897 312.059 640.343 314.266C642.383 316.108 643.255 319.341 656.205 319.973C676.254 320.952 669.47 276.438 669.47 276.438L642.192 239.158Z" fill="url(#paint0_linear)"/>
    <path d="M730.549 389.029C729.147 350.912 720.776 328.481 705.391 295.612C700.299 284.726 690.922 276.586 678.965 278.063L676.666 278.342C668.034 279.408 669.136 293.152 665.912 302.785C663.061 311.304 659.083 328.66 660.106 331.044C661.247 333.715 663.095 338.669 671.926 338.756C681.477 356.62 682.068 365.273 677.507 389.032L730.549 389.029Z" fill="#F2F2F2"/>
    <path d="M661.217 274.943L668.755 287.152L681.634 278.316L669.383 262.734L661.217 274.943Z" fill="url(#paint1_linear)"/>
    <path d="M656.964 277.048C646.159 277.048 637.399 268.566 637.399 258.103C637.399 247.64 646.159 239.158 656.964 239.158C667.77 239.158 676.53 247.64 676.53 258.103C676.53 268.566 667.77 277.048 656.964 277.048Z" fill="#EBA68A"/>
    <path d="M608.666 379.157L683.04 349.825C685.234 348.963 687.223 347.659 688.881 345.995C690.539 344.332 691.831 342.345 692.674 340.161L693.918 336.825C695.191 333.413 693.842 329.909 690.706 328.497L684.742 325.813C681.874 324.521 678.32 324.868 675.379 326.724L606.365 370.317C606.365 370.317 600.438 367.56 594.408 370.597C591.682 371.973 585.043 376.168 582.02 378.24C581.207 378.799 580.874 379.797 581.862 379.769C588.475 379.59 604.347 379.344 608.666 379.157Z" fill="#F4C2AD"/>
    <mask id="mask0" mask-type="alpha" maskUnits="userSpaceOnUse" x="659" y="278" width="72" height="111">
        <path d="M730.571 388.934C729.165 350.927 720.769 328.561 705.337 295.786C700.23 284.931 690.824 276.815 678.831 278.288L676.525 278.566C667.867 279.629 668.972 293.334 665.739 302.939C662.879 311.433 658.889 328.739 659.915 331.116C661.059 333.779 662.913 338.72 671.77 338.806C681.351 356.618 681.944 365.246 677.369 388.937L730.571 388.934Z" fill="#EFEFEF"/>
    </mask>
    <g mask="url(#mask0)">
        <g style="mix-blend-mode:multiply" opacity="0.9">
            <path d="M672.277 388.212L659.517 398.294V287.152H672.277V388.212Z" fill="#273271"/>
        </g>
        <g style="mix-blend-mode:multiply" opacity="0.9">
            <path d="M705.852 388.247H692.815V287.918H705.852V388.247Z" fill="#273271"/>
        </g>
        <g style="mix-blend-mode:multiply" opacity="0.9">
            <path d="M735.508 388.247H726.22V319.298H739.256L735.508 388.247Z" fill="#273271"/>
        </g>
        <g style="mix-blend-mode:multiply" opacity="0.9">
            <path d="M735.504 385.417V388.247L659.415 398.319V385.417H735.504Z" fill="#2C74DD"/>
        </g>
        <g style="mix-blend-mode:multiply" opacity="0.9">
            <path d="M735.507 352.358V365.261H659.418V352.358H735.507Z" fill="#273271"/>
        </g>
        <g style="mix-blend-mode:multiply" opacity="0.9">
            <path d="M739.256 319.298V332.201H659.416V319.298H739.256Z" fill="#273271"/>
        </g>
    </g>
    <path d="M675.758 238.646C672.06 237.553 670.074 233.313 671.322 229.176C672.57 225.039 676.579 222.57 680.277 223.663C683.975 224.755 685.961 228.995 684.713 233.132C683.466 237.27 679.456 239.738 675.758 238.646Z" fill="url(#paint2_linear)"/>
    <path d="M682.313 290.519C675.175 290.519 669.391 295.999 669.391 302.759L672.071 361.177L606.759 370.964C606.361 370.663 605.942 370.389 605.506 370.143C601.408 367.809 594.79 367.361 590.559 367.542C586.329 367.723 577.879 371.818 577.328 372.691C575.328 375.863 582.991 374.725 586.719 374.36C590.447 373.996 595.877 372.541 595.467 374.444C595.056 376.347 587.882 376.491 586.722 378.536C585.562 380.581 595.967 379.437 595.967 379.437C595.967 379.437 603.231 380.469 606.346 378.898L669.402 379.476H682.324C689.462 379.476 695.246 375.109 695.246 368.349V302.759C695.238 295.999 689.451 290.519 682.313 290.519Z" fill="#EBA68A"/>
    <path d="M638.776 240.189C638.087 240.662 637.613 241.383 637.456 242.196C637.298 243.009 637.47 243.851 637.933 244.541C640.636 248.613 648.709 258.93 661.857 260.284C677.171 261.861 663.841 277.019 664.479 284.87C665.622 298.963 677.835 292.405 684.126 300.475C689.007 306.755 687.389 317.964 698.3 317.446C708.171 316.972 712.316 314.703 715.573 309.647C720.369 302.207 714.558 292.001 709.531 284.715C700.033 270.925 679.521 240.987 675.837 238.696C671.625 236.103 646 235.305 638.776 240.189Z" fill="#4A1412"/>
    <path d="M730.99 388H431V427.023C431 430.73 432.87 434.285 436.199 436.906C439.528 439.528 444.042 441 448.75 441H711.613C716.755 441 721.686 439.392 725.322 436.529C728.957 433.666 731 429.782 731 425.733V388H730.99Z" fill="#7D84AA"/>
    <path d="M466.109 340.688C466.433 339.972 467.016 339.42 467.729 339.154C468.441 338.888 469.226 338.929 469.909 339.269L471.823 340.218V338.163C471.823 336.481 472.461 334.868 473.596 333.679C474.732 332.49 476.272 331.822 477.879 331.822C479.485 331.822 481.025 332.49 482.161 333.679C483.297 334.868 483.935 336.481 483.935 338.163V353.319H471.823V346.83L467.467 344.667C466.783 344.328 466.256 343.718 466.001 342.972C465.746 342.226 465.785 341.404 466.109 340.688V340.688Z" fill="#143D2E"/>
    <path d="M470.089 353.319H486.919C486.919 353.319 493.731 360.957 496.061 363.451C497.294 364.749 498.09 366.401 498.335 368.174C498.58 369.947 498.262 371.752 497.426 373.336L489.408 388.253H467.585L459.584 373.336C458.748 371.752 458.431 369.947 458.675 368.174C458.92 366.401 459.716 364.749 460.95 363.451C463.276 360.957 470.089 353.319 470.089 353.319Z" fill="#F59E35"/>
    <path d="M484.387 358.694C484.137 358.694 483.935 358.493 483.935 358.246C483.935 357.998 484.137 357.798 484.387 357.798C484.637 357.798 484.84 357.998 484.84 358.246C484.84 358.493 484.637 358.694 484.387 358.694Z" fill="#C90900"/>
    <path d="M467.192 364.964C466.942 364.964 466.74 364.763 466.74 364.516C466.74 364.269 466.942 364.068 467.192 364.068C467.442 364.068 467.645 364.269 467.645 364.516C467.645 364.763 467.442 364.964 467.192 364.964Z" fill="#C90900"/>
    <path d="M467.192 379.296C466.942 379.296 466.74 379.095 466.74 378.848C466.74 378.601 466.942 378.4 467.192 378.4C467.442 378.4 467.645 378.601 467.645 378.848C467.645 379.095 467.442 379.296 467.192 379.296Z" fill="#C90900"/>
    <path d="M489.365 373.025C488.865 373.025 488.46 372.624 488.46 372.13C488.46 371.635 488.865 371.234 489.365 371.234C489.864 371.234 490.27 371.635 490.27 372.13C490.27 372.624 489.864 373.025 489.365 373.025Z" fill="#C90900"/>
    <path d="M469.003 359.589C468.753 359.589 468.55 359.188 468.55 358.694C468.55 358.199 468.753 357.798 469.003 357.798C469.252 357.798 469.455 358.199 469.455 358.694C469.455 359.188 469.252 359.589 469.003 359.589Z" fill="#C90900"/>
    <path d="M475.338 376.609C475.088 376.609 474.885 376.408 474.885 376.161C474.885 375.913 475.088 375.713 475.338 375.713C475.587 375.713 475.79 375.913 475.79 376.161C475.79 376.408 475.587 376.609 475.338 376.609Z" fill="#C90900"/>
    <path d="M473.528 384.67C473.278 384.67 473.075 384.47 473.075 384.222C473.075 383.975 473.278 383.774 473.528 383.774C473.778 383.774 473.98 383.975 473.98 384.222C473.98 384.47 473.778 384.67 473.528 384.67Z" fill="#C90900"/>
    <path d="M471.718 381.087C470.968 381.087 470.36 380.887 470.36 380.639C470.36 380.392 470.968 380.191 471.718 380.191C472.467 380.191 473.075 380.392 473.075 380.639C473.075 380.887 472.467 381.087 471.718 381.087Z" fill="#C90900"/>
    <path d="M466.74 371.234C466.24 371.234 465.835 371.033 465.835 370.786C465.835 370.539 466.24 370.338 466.74 370.338C467.239 370.338 467.645 370.539 467.645 370.786C467.645 371.033 467.239 371.234 466.74 371.234Z" fill="#C90900"/>
    <path d="M485.293 384.67C484.543 384.67 483.935 384.269 483.935 383.774C483.935 383.28 484.543 382.879 485.293 382.879C486.043 382.879 486.65 383.28 486.65 383.774C486.65 384.269 486.043 384.67 485.293 384.67Z" fill="#C90900"/>
    <path d="M481.673 381.983C481.423 381.983 481.22 381.582 481.22 381.087C481.22 380.592 481.423 380.191 481.673 380.191C481.922 380.191 482.125 380.592 482.125 381.087C482.125 381.582 481.922 381.983 481.673 381.983Z" fill="#C90900"/>
    <path d="M493.437 371.234C493.187 371.234 492.985 371.033 492.985 370.786C492.985 370.539 493.187 370.338 493.437 370.338C493.687 370.338 493.89 370.539 493.89 370.786C493.89 371.033 493.687 371.234 493.437 371.234Z" fill="#C90900"/>
    <path d="M488.46 364.068C487.96 364.068 487.555 363.667 487.555 363.172C487.555 362.678 487.96 362.277 488.46 362.277C488.96 362.277 489.365 362.678 489.365 363.172C489.365 363.667 488.96 364.068 488.46 364.068Z" fill="#C90900"/>
    <path d="M479.863 362.277C479.613 362.277 479.41 362.076 479.41 361.829C479.41 361.581 479.613 361.381 479.863 361.381C480.113 361.381 480.315 361.581 480.315 361.829C480.315 362.076 480.113 362.277 479.863 362.277Z" fill="#C90900"/>
    <path d="M478.958 367.651C478.708 367.651 478.505 367.45 478.505 367.203C478.505 366.956 478.708 366.755 478.958 366.755C479.208 366.755 479.41 366.956 479.41 367.203C479.41 367.45 479.208 367.651 478.958 367.651Z" fill="#C90900"/>
    <path d="M476.695 333.613C475.695 333.613 474.885 332.811 474.885 331.822C474.885 330.832 475.695 330.03 476.695 330.03C477.695 330.03 478.505 330.832 478.505 331.822C478.505 332.811 477.695 333.613 476.695 333.613Z" fill="#E8443C"/>
    <path d="M481.22 337.196C480.72 337.196 480.315 336.594 480.315 335.852C480.315 335.11 480.72 334.509 481.22 334.509C481.72 334.509 482.125 335.11 482.125 335.852C482.125 336.594 481.72 337.196 481.22 337.196Z" fill="#E8443C"/>
    <path d="M559 387.795L547.699 387.953C545.361 388.066 543.942 388.141 543.481 386.133L530.092 327.816C529.982 327.338 529.971 326.844 530.057 326.362C530.144 325.879 530.328 325.418 530.598 325.005C530.868 324.592 531.219 324.234 531.631 323.953C532.044 323.672 532.509 323.472 533.001 323.366L541.076 322.034C541.692 321.932 542.324 322.063 542.843 322.4C543.362 322.737 543.729 323.254 543.868 323.845L559 387.795Z" fill="#C2C6C8"/>
    <defs>
        <linearGradient id="paint0_linear" x1="650.495" y1="175.977" x2="653.294" y2="310.057" gradientUnits="userSpaceOnUse">
            <stop offset="0.02" stop-color="#884A6C"/>
            <stop offset="0.12" stop-color="#6D3B5C"/>
            <stop offset="0.28" stop-color="#472645"/>
            <stop offset="0.43" stop-color="#2B1634"/>
            <stop offset="0.56" stop-color="#1B0D2B"/>
            <stop offset="0.66" stop-color="#150A27"/>
            <stop offset="0.95"/>
        </linearGradient>
        <linearGradient id="paint1_linear" x1="677.407" y1="284.89" x2="666.77" y2="272.759" gradientUnits="userSpaceOnUse">
            <stop offset="0.07" stop-color="#EADFCF"/>
            <stop offset="0.8" stop-color="#E58057"/>
        </linearGradient>
        <linearGradient id="paint2_linear" x1="-13079.2" y1="9475.97" x2="-12414.8" y2="9676.35" gradientUnits="userSpaceOnUse">
            <stop offset="0.02" stop-color="#884A6C"/>
            <stop offset="0.12" stop-color="#6D3B5C"/>
            <stop offset="0.28" stop-color="#472645"/>
            <stop offset="0.43" stop-color="#2B1634"/>
            <stop offset="0.56" stop-color="#1B0D2B"/>
            <stop offset="0.66" stop-color="#150A27"/>
            <stop offset="0.95"/>
        </linearGradient>
        <clipPath id="clip0">
            <rect width="22.8571" height="22.2857" fill="white" transform="translate(598.143 73.5714)"/>
        </clipPath>
        <clipPath id="clip1">
            <rect width="21.5075" height="21.5075" fill="white" transform="translate(618.85 187.447)"/>
        </clipPath>
    </defs>
</svg>
