<svg width="156" height="46" viewBox="0 0 156 46" fill="none" xmlns="http://www.w3.org/2000/svg">
<path d="M2.33188 42.8213C1.3641 44.1405 2.30615 46 3.94228 46C4.58016 46 5.17967 45.6953 5.55567 45.18L20.8796 24.18C21.3925 23.4771 21.3921 22.5232 20.8786 21.8208L5.51929 0.809582C5.14734 0.30077 4.55491 0 3.92465 0C2.3073 0 1.37543 1.83744 2.33099 3.14231L16.0068 21.8173C16.5223 22.5213 16.5219 23.4784 16.0058 24.182L2.33188 42.8213Z" fill="#F1F1FB"/>
<path d="M36.0696 42.8207C35.1025 44.1407 36.0452 46 37.6816 46C38.32 46 38.92 45.6949 39.2962 45.1791L50.1353 30.3145L54.6184 24.1801C55.1321 23.4772 55.1321 22.5228 54.6184 21.8199L50.1353 15.6855L39.2596 0.80954C38.8876 0.300751 38.2952 0 37.6649 0C36.0475 0 35.1155 1.83747 36.0711 3.14243L50.1353 22.3498L50.1479 22.3681C50.409 22.7471 50.404 23.2493 50.1353 23.6231L36.0696 42.8207Z" fill="#F1F1FB"/>
<path d="M69.3319 42.8213C68.3641 44.1405 69.3062 46 70.9423 46C71.5802 46 72.1797 45.6953 72.5557 45.18L87.8796 24.18C88.3925 23.4771 88.3921 22.5232 87.8786 21.8208L72.5193 0.809582C72.1473 0.30077 71.5549 0 70.9246 0C69.3073 0 68.3754 1.83744 69.331 3.14231L83.0068 21.8173C83.5223 22.5213 83.5219 23.4784 83.0058 24.182L69.3319 42.8213Z" fill="#F1F1FB"/>
<path d="M103.07 42.8207C102.102 44.1407 103.045 46 104.682 46C105.32 46 105.92 45.6949 106.296 45.1791L117.135 30.3145L121.618 24.1801C122.132 23.4772 122.132 22.5228 121.618 21.8199L117.135 15.6855L106.26 0.80954C105.888 0.300751 105.295 0 104.665 0C103.047 0 102.116 1.83747 103.071 3.14243L117.135 22.3498L117.148 22.3681C117.409 22.7471 117.404 23.2493 117.135 23.6231L103.07 42.8207Z" fill="#F1F1FB"/>
<path d="M136.332 42.8213C135.364 44.1405 136.306 46 137.942 46C138.58 46 139.18 45.6953 139.556 45.18L154.88 24.18C155.392 23.4771 155.392 22.5232 154.879 21.8208L139.519 0.809582C139.147 0.30077 138.555 0 137.925 0C136.307 0 135.375 1.83744 136.331 3.14231L150.007 21.8173C150.522 22.5213 150.522 23.4784 150.006 24.182L136.332 42.8213Z" fill="#F1F1FB"/>
</svg>
