<svg width="696" height="709" viewBox="0 0 696 709" fill="none" xmlns="http://www.w3.org/2000/svg">
    <path fill-rule="evenodd" clip-rule="evenodd" d="M-149.818 473.025C-169.809 407.839 -186.938 294.909 -126.939 233.072C-64.0892 168.298 18.8597 97.2096 126.305 87.2005C229.257 77.6101 335.061 215.408 415.9 249.66C496.261 283.71 593.309 236.308 649.789 346.019C685.066 414.543 664.357 508.751 578.439 567.326C497.012 622.84 375.507 589.593 267.861 599.549C185.03 607.21 42.7968 616.745 -29.609 597.341C-114.427 574.61 -130.907 534.689 -149.818 473.025Z" fill="#FCE3C4"/>
    <circle cx="249.281" cy="53.7612" r="32.2222" fill="#F1F1FB"/>
    <path d="M268.916 44.7544C268.185 41.7991 266.334 39.2451 263.755 37.6339C261.176 36.0227 258.072 35.4811 255.101 36.1239C252.929 36.7159 251.006 37.9923 249.614 39.7641C248.223 41.536 247.438 43.7093 247.375 45.9627C246.2 44.0299 244.432 42.5291 242.336 41.6841C240.24 40.8391 237.927 40.6951 235.743 41.2735C232.851 42.2537 230.456 44.3285 229.071 47.0542C227.686 49.7799 227.421 52.9401 228.333 55.8591C231.205 66.1869 250.218 73.6667 254.469 73.8106H255.101H255.417H255.618C259.179 71.2502 271.759 55.0535 268.916 44.7544Z" fill="#FF8888"/>
    <circle r="52.4302" transform="matrix(-1 0 0 1 427.985 106.416)" fill="#F1F1FB"/>
    <path d="M402.432 85.0413H408.127C410.001 85.034 411.6 86.3987 411.885 88.2516L416.394 116.732C416.819 119.494 419.202 121.528 421.996 121.517H449.865C450.381 121.517 450.799 121.099 450.799 120.584C450.799 120.068 450.381 119.65 449.865 119.65H421.996C420.122 119.657 418.524 118.292 418.238 116.44L417.472 111.598H446.015C448.431 111.596 450.582 110.066 451.374 107.783L456.67 92.4992C456.769 92.2137 456.724 91.8979 456.549 91.6515C456.373 91.4055 456.09 91.2591 455.788 91.2591H414.252L413.73 87.9593C413.304 85.1977 410.922 83.1629 408.127 83.1739H402.432C401.916 83.1739 401.498 83.5923 401.498 84.1076C401.498 84.6235 401.916 85.0413 402.432 85.0413ZM454.476 93.1271L449.61 107.171C449.079 108.703 447.636 109.73 446.015 109.73H417.176L414.547 93.1266L454.476 93.1271Z" fill="#F78B89"/>
    <path d="M428.508 130.146C428.508 127.238 426.151 124.881 423.243 124.881C420.335 124.881 417.978 127.238 417.978 130.145C417.978 133.053 420.335 135.411 423.243 135.411C426.149 135.408 428.505 133.052 428.508 130.146ZM419.845 130.146C419.845 128.269 421.366 126.748 423.243 126.748C425.12 126.748 426.64 128.269 426.64 130.145C426.64 132.022 425.12 133.543 423.243 133.543C421.367 133.541 419.847 132.021 419.845 130.146Z" fill="#F78B89"/>
    <path d="M442.738 135.41C445.646 135.41 448.003 133.053 448.003 130.145C448.004 127.237 445.646 124.88 442.738 124.88C439.83 124.88 437.473 127.237 437.473 130.145C437.477 133.051 439.831 135.406 442.738 135.41ZM442.738 126.747C444.614 126.747 446.136 128.268 446.136 130.144C446.136 132.021 444.615 133.542 442.738 133.542C440.862 133.542 439.34 132.021 439.34 130.145C439.343 128.27 440.862 126.75 442.738 126.747Z" fill="#F78B89"/>
    <circle cx="422.771" cy="130.14" r="4.0739" fill="#F78B89"/>
    <circle cx="442.689" cy="130.141" r="4.0739" fill="#F78B89"/>
    <path d="M416.888 109.771L414.625 93.0228H454.458L449.773 107.079C449.58 107.658 449.254 108.185 448.822 108.618C448.083 109.356 447.082 109.771 446.037 109.771H416.888Z" fill="white"/>
    <circle cx="109.394" cy="173.785" r="42.963" fill="#F1F1FB"/>
    <g clip-path="url(#clip0)">
        <path d="M89.7543 151.117H131.624C132.815 151.117 133.79 152.091 133.79 153.282V195.152C133.79 196.343 132.815 197.318 131.624 197.318H89.7543C88.5632 197.318 87.5886 196.343 87.5886 195.152V153.282C87.5886 152.091 88.5632 151.117 89.7543 151.117Z" fill="#FAD6D6"/>
        <path d="M91.9201 160.501H129.459C130.253 160.501 130.902 161.151 130.902 161.945V192.987C130.902 193.781 130.253 194.43 129.459 194.43H91.9201C91.126 194.43 90.4763 193.781 90.4763 192.987V161.945C90.4763 161.151 91.126 160.501 91.9201 160.501Z" fill="white"/>
        <path d="M106.358 154.365H129.459C130.253 154.365 130.902 155.015 130.902 155.809C130.902 156.603 130.253 157.253 129.459 157.253H106.358C105.564 157.253 104.914 156.603 104.914 155.809C104.914 155.015 105.564 154.365 106.358 154.365Z" fill="#F78B89"/>
        <path d="M95.5296 164.111H125.849C126.643 164.111 127.293 164.76 127.293 165.555V174.217C127.293 175.011 126.643 175.661 125.849 175.661H95.5296C94.7354 175.661 94.0858 175.011 94.0858 174.217V165.555C94.0858 164.76 94.7355 164.111 95.5296 164.111Z" fill="#FAD6D6"/>
        <path d="M95.5296 179.631H107.441C108.235 179.631 108.885 180.281 108.885 181.075V189.016C108.885 189.81 108.235 190.46 107.441 190.46H95.5296C94.7354 190.46 94.0858 189.81 94.0858 189.016V181.075C94.0858 180.281 94.7355 179.631 95.5296 179.631ZM126.21 179.631H112.855C112.241 179.631 111.772 180.101 111.772 180.714C111.772 181.328 112.241 181.797 112.855 181.797H126.21C126.824 181.797 127.293 181.328 127.293 180.714C127.293 180.137 126.824 179.631 126.21 179.631ZM126.21 183.963H112.855C112.241 183.963 111.772 184.432 111.772 185.046C111.772 185.659 112.241 186.128 112.855 186.128H126.21C126.824 186.128 127.293 185.659 127.293 185.046C127.293 184.468 126.824 183.963 126.21 183.963ZM126.21 188.294H112.855C112.241 188.294 111.772 188.763 111.772 189.377C111.772 189.991 112.241 190.46 112.855 190.46H126.21C126.824 190.46 127.293 189.991 127.293 189.377C127.293 188.799 126.824 188.294 126.21 188.294Z" fill="#F78B89"/>
        <path d="M91.9201 154.365C91.126 154.365 90.4763 155.015 90.4763 155.809C90.4763 156.603 91.126 157.253 91.9201 157.253C92.7142 157.253 93.3638 156.603 93.3638 155.809C93.3638 155.015 92.7142 154.365 91.9201 154.365ZM96.2514 154.365C95.4573 154.365 94.8076 155.015 94.8076 155.809C94.8076 156.603 95.4573 157.253 96.2514 157.253C97.0456 157.253 97.6953 156.603 97.6953 155.809C97.6953 155.015 97.0456 154.365 96.2514 154.365ZM100.583 154.365C99.7887 154.365 99.1391 155.015 99.1391 155.809C99.1391 156.603 99.7887 157.253 100.583 157.253C101.377 157.253 102.027 156.603 102.027 155.809C102.027 155.015 101.377 154.365 100.583 154.365Z" fill="#F78B89"/>
    </g>
    <ellipse cx="496" cy="261.5" rx="18" ry="17.5" fill="#F1F1FB"/>
    <ellipse cx="105" cy="31.5" rx="18" ry="17.5" fill="#F1F1FB"/>
    <circle r="35" transform="matrix(-1 0 0 1 570 352)" fill="#F1F1FB"/>
    <g clip-path="url(#clip1)">
        <path d="M591 337.633V367.7C591 368.805 590.105 369.7 589 369.7H553C551.895 369.7 551 368.805 551 367.7V337.633L571 335.9L591 337.633Z" fill="#FAD6D6"/>
        <path d="M589 333.3C590.105 333.3 591 334.195 591 335.3V337.633H586.556L583.889 335.467L586.556 333.3H589Z" fill="#F78B89"/>
        <path d="M586.556 333.3H553C551.895 333.3 551 334.195 551 335.3V337.633H586.556V333.3Z" fill="white"/>
        <path d="M585.667 351.717H556.333C555.965 351.717 555.667 351.426 555.667 351.067C555.667 350.708 555.965 350.417 556.333 350.417H585.667C586.035 350.417 586.333 350.708 586.333 351.067C586.333 351.426 586.035 351.717 585.667 351.717Z" fill="white"/>
        <path d="M569.222 355.183H556.333C555.965 355.183 555.667 354.892 555.667 354.533C555.667 354.174 555.965 353.883 556.333 353.883H569.222C569.591 353.883 569.889 354.174 569.889 354.533C569.889 354.892 569.59 355.183 569.222 355.183Z" fill="#8B7E7F"/>
        <path d="M569.222 358.65H556.333C555.965 358.65 555.667 358.359 555.667 358C555.667 357.641 555.965 357.35 556.333 357.35H569.222C569.591 357.35 569.889 357.641 569.889 358C569.889 358.359 569.59 358.65 569.222 358.65Z" fill="#8B7E7F"/>
        <path d="M569.222 362.117H556.333C555.965 362.117 555.667 361.826 555.667 361.467C555.667 361.108 555.965 360.817 556.333 360.817H569.222C569.591 360.817 569.889 361.108 569.889 361.467C569.889 361.826 569.59 362.117 569.222 362.117Z" fill="#8B7E7F"/>
        <path d="M585.667 354.533H572.778V364.933H585.667V354.533Z" fill="#F78B89"/>
        <path d="M569.222 365.583H556.333C555.965 365.583 555.667 365.292 555.667 364.933C555.667 364.574 555.965 364.283 556.333 364.283H569.222C569.591 364.283 569.889 364.574 569.889 364.933C569.889 365.292 569.59 365.583 569.222 365.583Z" fill="#8B7E7F"/>
        <path d="M581.862 348.25C580.662 348.25 579.726 347.738 579.42 346.913C579.295 346.576 579.474 346.203 579.82 346.081C580.166 345.959 580.549 346.133 580.674 346.471C580.78 346.758 581.258 346.95 581.862 346.95C582.314 346.95 583.079 346.813 583.079 346.3C583.079 345.948 582.914 345.826 581.754 345.641C581.239 345.559 580.706 345.474 580.257 345.244C579.639 344.926 579.312 344.393 579.312 343.701C579.312 342.552 580.361 341.75 581.862 341.75C583.062 341.75 583.998 342.262 584.304 343.086C584.43 343.424 584.251 343.796 583.905 343.919C583.558 344.041 583.176 343.867 583.051 343.529C582.944 343.243 582.467 343.05 581.862 343.05C581.41 343.05 580.646 343.187 580.646 343.701C580.646 344.052 580.81 344.173 581.97 344.358C582.485 344.44 583.019 344.525 583.468 344.756C584.086 345.073 584.413 345.607 584.413 346.299C584.413 347.448 583.364 348.25 581.862 348.25Z" fill="#F78B89"/>
        <path d="M575.961 348.25C575.712 348.25 575.481 348.114 575.366 347.894L574.61 346.438L573.853 347.894C573.727 348.136 573.46 348.276 573.185 348.246C572.908 348.216 572.68 348.022 572.612 347.76L571.26 342.56C571.17 342.212 571.386 341.858 571.743 341.77C572.1 341.682 572.462 341.892 572.553 342.24L573.467 345.759L574.015 344.706C574.128 344.488 574.358 344.35 574.609 344.35C574.86 344.35 575.09 344.488 575.204 344.706L575.751 345.759L576.666 342.24C576.756 341.892 577.119 341.682 577.476 341.77C577.833 341.858 578.049 342.212 577.958 342.56L576.607 347.76C576.538 348.022 576.31 348.216 576.034 348.246C576.01 348.249 575.985 348.25 575.961 348.25Z" fill="#F78B89"/>
        <path d="M569.24 348.25H565.473C565.104 348.25 564.806 347.959 564.806 347.6V342.4C564.806 342.041 565.104 341.75 565.473 341.75H569.24C569.608 341.75 569.906 342.041 569.906 342.4C569.906 342.759 569.608 343.05 569.24 343.05H566.139V346.95H569.24C569.608 346.95 569.906 347.241 569.906 347.6C569.906 347.959 569.608 348.25 569.24 348.25Z" fill="#F78B89"/>
        <path d="M567.984 345.65H565.473C565.104 345.65 564.806 345.359 564.806 345C564.806 344.641 565.104 344.35 565.473 344.35H567.984C568.352 344.35 568.651 344.641 568.651 345C568.651 345.359 568.352 345.65 567.984 345.65Z" fill="#F78B89"/>
        <path d="M562.806 348.25C562.615 348.25 562.428 348.169 562.299 348.022L558.92 344.163V347.6C558.92 347.959 558.622 348.25 558.254 348.25C557.886 348.25 557.587 347.959 557.587 347.6V342.4C557.587 342.128 557.761 341.884 558.023 341.79C558.285 341.696 558.58 341.771 558.761 341.978L562.139 345.837V342.4C562.139 342.041 562.438 341.75 562.806 341.75C563.174 341.75 563.473 342.041 563.473 342.4V347.6C563.473 347.872 563.299 348.116 563.037 348.21C562.961 348.237 562.883 348.25 562.806 348.25Z" fill="#F78B89"/>
    </g>
    <path d="M193 444C193 446.122 193.755 448.157 195.1 449.657C196.444 451.157 198.268 452 200.17 452H278.831C280.732 452 282.556 451.157 283.9 449.657C285.245 448.157 286 446.122 286 444H193Z" fill="#A1A1A1"/>
    <path d="M469 452H69V455H469V452Z" fill="#677DD7"/>
    <path d="M348.213 163H245.787C237.62 163 231 169.452 231 177.411V339.589C231 347.548 237.62 354 245.787 354H348.213C356.38 354 363 347.548 363 339.589V177.411C363 169.452 356.38 163 348.213 163Z" fill="#F8BB72"/>
    <g clip-path="url(#clip2)">
        <path d="M328 200.1V249.9C328 251.005 327.105 251.9 326 251.9H268C266.895 251.9 266 251.005 266 249.9V200.1L297 197.3L328 200.1Z" fill="#FDCDCA"/>
        <path d="M326 193.1C327.105 193.1 328 193.995 328 195.1V200.1H321.111L316.978 196.6L321.111 193.1H326Z" fill="#F96963"/>
        <path d="M321.111 193.1H268C266.895 193.1 266 193.995 266 195.1V200.1H321.111V193.1Z" fill="white"/>
        <path d="M319.733 222.85H274.267C273.696 222.85 273.233 222.38 273.233 221.8C273.233 221.22 273.696 220.75 274.267 220.75H319.733C320.304 220.75 320.767 221.22 320.767 221.8C320.767 222.38 320.304 222.85 319.733 222.85Z" fill="white"/>
        <g opacity="0.7">
            <path d="M294.244 228.45H274.267C273.696 228.45 273.233 227.98 273.233 227.4C273.233 226.82 273.696 226.35 274.267 226.35H294.244C294.815 226.35 295.278 226.82 295.278 227.4C295.278 227.98 294.815 228.45 294.244 228.45Z" fill="#273271"/>
            <path d="M294.244 234.05H274.267C273.696 234.05 273.233 233.58 273.233 233C273.233 232.42 273.696 231.95 274.267 231.95H294.244C294.815 231.95 295.278 232.42 295.278 233C295.278 233.58 294.815 234.05 294.244 234.05Z" fill="#273271"/>
            <path d="M294.244 239.65H274.267C273.696 239.65 273.233 239.18 273.233 238.6C273.233 238.02 273.696 237.55 274.267 237.55H294.244C294.815 237.55 295.278 238.02 295.278 238.6C295.278 239.18 294.815 239.65 294.244 239.65Z" fill="#273271"/>
        </g>
        <path d="M319.733 227.4H299.756V244.2H319.733V227.4Z" fill="#F96963"/>
        <path opacity="0.7" d="M294.244 245.25H274.267C273.696 245.25 273.233 244.78 273.233 244.2C273.233 243.62 273.696 243.15 274.267 243.15H294.244C294.815 243.15 295.278 243.62 295.278 244.2C295.278 244.78 294.815 245.25 294.244 245.25Z" fill="#273271"/>
        <path d="M313.837 217.25C311.976 217.25 310.526 216.422 310.051 215.09C309.857 214.545 310.134 213.943 310.671 213.746C311.207 213.549 311.8 213.83 311.994 214.376C312.159 214.839 312.9 215.15 313.837 215.15C314.537 215.15 315.723 214.929 315.723 214.099C315.723 213.531 315.467 213.334 313.669 213.036C312.87 212.903 312.044 212.766 311.348 212.393C310.39 211.881 309.884 211.019 309.884 209.901C309.884 208.046 311.509 206.75 313.836 206.75C315.696 206.75 317.147 207.577 317.622 208.908C317.816 209.453 317.539 210.056 317.002 210.253C316.465 210.451 315.873 210.169 315.679 209.624C315.514 209.161 314.774 208.85 313.837 208.85C313.136 208.85 311.95 209.071 311.95 209.901C311.95 210.468 312.206 210.664 314.003 210.963C314.802 211.096 315.629 211.233 316.325 211.605C317.283 212.118 317.79 212.98 317.79 214.099C317.79 215.954 316.164 217.25 313.837 217.25Z" fill="#F96963"/>
        <path d="M304.689 217.25C304.303 217.25 303.945 217.03 303.768 216.675L302.595 214.323L301.422 216.675C301.227 217.065 300.813 217.293 300.386 217.244C299.958 217.195 299.604 216.882 299.498 216.458L297.403 208.058C297.263 207.496 297.598 206.925 298.151 206.782C298.704 206.64 299.267 206.98 299.407 207.542L300.824 213.227L301.673 211.525C301.849 211.173 302.205 210.95 302.594 210.95C302.984 210.95 303.34 211.173 303.516 211.525L304.364 213.227L305.782 207.542C305.922 206.98 306.484 206.64 307.037 206.782C307.59 206.925 307.925 207.496 307.785 208.058L305.69 216.458C305.584 216.882 305.231 217.195 304.803 217.244C304.765 217.248 304.727 217.25 304.689 217.25Z" fill="#F96963"/>
        <path d="M294.272 217.25H288.433C287.862 217.25 287.399 216.78 287.399 216.2V207.8C287.399 207.22 287.862 206.75 288.433 206.75H294.272C294.843 206.75 295.305 207.22 295.305 207.8C295.305 208.38 294.842 208.85 294.272 208.85H289.466V215.15H294.272C294.843 215.15 295.305 215.62 295.305 216.2C295.305 216.78 294.843 217.25 294.272 217.25Z" fill="#F96963"/>
        <path d="M292.325 213.05H288.433C287.862 213.05 287.399 212.58 287.399 212C287.399 211.42 287.862 210.95 288.433 210.95H292.325C292.896 210.95 293.359 211.42 293.359 212C293.359 212.58 292.896 213.05 292.325 213.05Z" fill="#F96963"/>
        <path d="M284.3 217.25C284.003 217.25 283.714 217.12 283.514 216.882L278.277 210.648V216.2C278.277 216.78 277.814 217.25 277.244 217.25C276.673 217.25 276.21 216.78 276.21 216.2V207.8C276.21 207.36 276.48 206.967 276.886 206.815C277.292 206.662 277.748 206.784 278.029 207.118L283.266 213.352V207.8C283.266 207.22 283.729 206.75 284.3 206.75C284.87 206.75 285.333 207.22 285.333 207.8V216.2C285.333 216.64 285.063 217.033 284.657 217.185C284.54 217.229 284.419 217.25 284.3 217.25Z" fill="#F96963"/>
    </g>
    <path d="M429.697 398.898C429.338 398.099 428.694 397.483 427.907 397.186C427.12 396.889 426.253 396.935 425.497 397.314L423.383 398.373V396.08C423.383 394.202 422.678 392.401 421.423 391.074C420.168 389.746 418.466 389 416.692 389C414.917 389 413.215 389.746 411.96 391.074C410.705 392.401 410 394.202 410 396.08V413H423.383V405.756L428.196 403.341C428.952 402.962 429.535 402.281 429.816 401.448C430.098 400.615 430.055 399.698 429.697 398.898Z" fill="#143D2E"/>
    <path d="M425.3 413H406.703C406.703 413 399.176 421.526 396.602 424.311C395.238 425.76 394.359 427.604 394.089 429.584C393.818 431.563 394.169 433.578 395.093 435.346L403.953 452H428.067L436.907 435.346C437.831 433.578 438.182 431.563 437.911 429.584C437.64 427.604 436.762 425.76 435.398 424.311C432.827 421.526 425.3 413 425.3 413Z" fill="#F59E35"/>
    <path d="M409.5 419C409.776 419 410 418.776 410 418.5C410 418.224 409.776 418 409.5 418C409.224 418 409 418.224 409 418.5C409 418.776 409.224 419 409.5 419Z" fill="#C90900"/>
    <path d="M428.5 426C428.776 426 429 425.776 429 425.5C429 425.224 428.776 425 428.5 425C428.224 425 428 425.224 428 425.5C428 425.776 428.224 426 428.5 426Z" fill="#C90900"/>
    <path d="M428.5 442C428.776 442 429 441.776 429 441.5C429 441.224 428.776 441 428.5 441C428.224 441 428 441.224 428 441.5C428 441.776 428.224 442 428.5 442Z" fill="#C90900"/>
    <path d="M404 435C404.552 435 405 434.552 405 434C405 433.448 404.552 433 404 433C403.448 433 403 433.448 403 434C403 434.552 403.448 435 404 435Z" fill="#C90900"/>
    <path d="M426.5 420C426.776 420 427 419.552 427 419C427 418.448 426.776 418 426.5 418C426.224 418 426 418.448 426 419C426 419.552 426.224 420 426.5 420Z" fill="#C90900"/>
    <path d="M419.5 439C419.776 439 420 438.776 420 438.5C420 438.224 419.776 438 419.5 438C419.224 438 419 438.224 419 438.5C419 438.776 419.224 439 419.5 439Z" fill="#C90900"/>
    <path d="M421.5 448C421.776 448 422 447.776 422 447.5C422 447.224 421.776 447 421.5 447C421.224 447 421 447.224 421 447.5C421 447.776 421.224 448 421.5 448Z" fill="#C90900"/>
    <path d="M423.5 444C424.328 444 425 443.776 425 443.5C425 443.224 424.328 443 423.5 443C422.672 443 422 443.224 422 443.5C422 443.776 422.672 444 423.5 444Z" fill="#C90900"/>
    <path d="M429 433C429.552 433 430 432.776 430 432.5C430 432.224 429.552 432 429 432C428.448 432 428 432.224 428 432.5C428 432.776 428.448 433 429 433Z" fill="#C90900"/>
    <path d="M408.5 448C409.328 448 410 447.552 410 447C410 446.448 409.328 446 408.5 446C407.672 446 407 446.448 407 447C407 447.552 407.672 448 408.5 448Z" fill="#C90900"/>
    <path d="M412.5 445C412.776 445 413 444.552 413 444C413 443.448 412.776 443 412.5 443C412.224 443 412 443.448 412 444C412 444.552 412.224 445 412.5 445Z" fill="#C90900"/>
    <path d="M399.5 433C399.776 433 400 432.776 400 432.5C400 432.224 399.776 432 399.5 432C399.224 432 399 432.224 399 432.5C399 432.776 399.224 433 399.5 433Z" fill="#C90900"/>
    <path d="M405 425C405.552 425 406 424.552 406 424C406 423.448 405.552 423 405 423C404.448 423 404 423.448 404 424C404 424.552 404.448 425 405 425Z" fill="#C90900"/>
    <path d="M414.5 423C414.776 423 415 422.776 415 422.5C415 422.224 414.776 422 414.5 422C414.224 422 414 422.224 414 422.5C414 422.776 414.224 423 414.5 423Z" fill="#C90900"/>
    <path d="M415.5 429C415.776 429 416 428.776 416 428.5C416 428.224 415.776 428 415.5 428C415.224 428 415 428.224 415 428.5C415 428.776 415.224 429 415.5 429Z" fill="#C90900"/>
    <path d="M418 391C419.105 391 420 390.105 420 389C420 387.895 419.105 387 418 387C416.895 387 416 387.895 416 389C416 390.105 416.895 391 418 391Z" fill="#E8443C"/>
    <path d="M413 395C413.552 395 414 394.328 414 393.5C414 392.672 413.552 392 413 392C412.448 392 412 392.672 412 393.5C412 394.328 412.448 395 413 395Z" fill="#E8443C"/>
    <path d="M393 433.845C393 433.845 386.546 442.196 393 448H314.078C314.078 448 306 446.46 306 440.922C306 435.385 308.614 431.684 320.247 432.021C331.88 432.358 393 433.845 393 433.845Z" fill="#FEF0E0"/>
    <path d="M392.997 452H316.971C309.818 452 304 447.06 304 441C304 434.94 309.818 430 316.971 430H393V434H316.971C312.425 434 308.73 437.14 308.73 441C308.73 444.86 312.429 448 316.971 448H393L392.997 452Z" fill="#E8443C"/>
    <path d="M320 453L317.502 450.596L315 453V445H320V453Z" fill="#141939"/>
    <path d="M312 418.324C312 418.324 316.31 424.031 312 428L364.612 427.935C364.612 427.935 370 426.876 370 423.09C370 419.305 368.25 416.777 360.488 417.016C352.726 417.254 312 418.324 312 418.324Z" fill="#FEF0E0"/>
    <path d="M312.016 430L363.265 429.936C368.087 429.936 372.007 426.577 372 422.458C371.993 418.34 368.058 414.993 363.248 415L312 415.064V417.785L363.248 417.721C366.313 417.721 368.807 419.844 368.81 422.462C368.813 425.079 366.323 427.212 363.258 427.215L312.01 427.279L312.016 430Z" fill="#273271"/>
    <path d="M262 451.754L275.639 451.943C278.461 452.079 280.173 452.168 280.73 449.765L296.889 379.962C297.021 379.39 297.036 378.798 296.931 378.221C296.826 377.643 296.604 377.092 296.278 376.597C295.952 376.102 295.529 375.674 295.031 375.338C294.533 375.001 293.972 374.762 293.379 374.635L283.632 373.04C282.889 372.919 282.127 373.075 281.5 373.478C280.874 373.882 280.431 374.5 280.263 375.208L262 451.754Z" fill="#C2C6C8"/>
    <path d="M283.767 412.721C284.219 410.065 283.732 407.766 282.679 407.587C281.626 407.408 280.406 409.416 279.955 412.073C279.503 414.729 279.99 417.028 281.043 417.207C282.096 417.386 283.316 415.378 283.767 412.721Z" fill="white"/>
    <path d="M160.365 278C160.365 278 166.462 280.177 167.594 290.119C168.135 294.862 170.122 304.554 168.138 316.608C167.029 323.349 160.538 330.506 160.585 337.073C160.642 345.569 165.253 353.068 165.286 357.425C165.327 361.289 165.413 364.582 162.538 367.203C160.141 369.39 159.116 373.23 143.893 373.981C120.325 375.144 128.299 322.276 128.299 322.276L160.365 278Z" fill="url(#paint0_linear)"/>
    <path d="M56.5002 455.997C58.148 410.726 67.9884 384.086 86.0743 345.048C92.059 332.119 103.083 322.452 117.138 324.206L119.84 324.537C129.987 325.804 128.692 342.127 132.482 353.567C135.834 363.685 140.51 384.298 139.307 387.129C137.966 390.302 135.794 396.186 125.413 396.289C114.185 417.505 113.49 427.782 118.852 456L56.5002 455.997Z" fill="#F2F2F2"/>
    <path d="M138 320.5L129.139 335L114 324.506L128.401 306L138 320.5Z" fill="url(#paint1_linear)"/>
    <path d="M143 323C155.703 323 166 312.926 166 300.5C166 288.074 155.703 278 143 278C130.297 278 120 288.074 120 300.5C120 312.926 130.297 323 143 323Z" fill="#EBA68A"/>
    <path d="M199.776 444.272L112.348 409.436C109.769 408.412 107.431 406.863 105.481 404.887C103.532 402.911 102.014 400.552 101.023 397.958L99.5598 393.996C98.0633 389.944 99.6494 385.782 103.336 384.105L110.347 380.917C113.718 379.382 117.896 379.794 121.353 382L202.48 433.774C202.48 433.774 209.448 430.499 216.536 434.106C219.741 435.74 227.545 440.722 231.099 443.183C232.054 443.847 232.446 445.032 231.285 444.999C223.51 444.787 204.853 444.494 199.776 444.272Z" fill="#F4C2AD"/>
    <mask id="mask0" mask-type="alpha" maskUnits="userSpaceOnUse" x="56" y="324" width="84" height="132">
        <path d="M56.4736 455.884C58.1264 410.744 67.9967 384.181 86.1374 345.255C92.1403 332.363 103.197 322.724 117.295 324.473L120.006 324.804C130.184 326.066 128.885 342.343 132.686 353.75C136.048 363.839 140.738 384.392 139.532 387.215C138.186 390.379 136.008 396.246 125.596 396.348C114.334 417.504 113.636 427.751 119.014 455.888L56.4736 455.884Z" fill="#EFEFEF"/>
    </mask>
    <g mask="url(#mask0)">
        <g style="mix-blend-mode:multiply" opacity="0.9">
            <path d="M125 455.026L140 467V335H125V455.026Z" fill="#273271"/>
        </g>
        <g style="mix-blend-mode:multiply" opacity="0.9">
            <path d="M85.5313 455.068H100.856L100.856 335.91H85.5313L85.5313 455.068Z" fill="#273271"/>
        </g>
        <g style="mix-blend-mode:multiply" opacity="0.9">
            <path d="M50.6707 455.068H61.5889V373.18H46.2645L50.6707 455.068Z" fill="#273271"/>
        </g>
        <g style="mix-blend-mode:multiply" opacity="0.9">
            <path d="M50.675 451.706V455.068L140.119 467.03V451.706H50.675Z" fill="#2C74DD"/>
        </g>
        <g style="mix-blend-mode:multiply" opacity="0.9">
            <path d="M50.6714 412.443V427.767H140.116V412.443H50.6714Z" fill="#273271"/>
        </g>
        <g style="mix-blend-mode:multiply" opacity="0.9">
            <path d="M46.2645 373.18V388.504H140.118V373.18H46.2645Z" fill="#273271"/>
        </g>
    </g>
    <path d="M120.907 277.391C125.254 276.093 127.589 271.058 126.123 266.144C124.656 261.23 119.943 258.299 115.596 259.596C111.249 260.894 108.914 265.929 110.38 270.843C111.847 275.757 116.56 278.689 120.907 277.391Z" fill="url(#paint2_linear)"/>
    <path d="M113.203 339C121.594 339 128.393 345.509 128.393 353.537L125.243 422.918L202.018 434.541C202.487 434.184 202.979 433.858 203.491 433.567C208.309 430.795 216.089 430.263 221.062 430.478C226.035 430.692 235.968 435.556 236.615 436.593C238.966 440.359 229.958 439.008 225.576 438.575C221.194 438.143 214.811 436.415 215.293 438.674C215.775 440.934 224.209 441.106 225.573 443.534C226.936 445.963 214.705 444.605 214.705 444.605C214.705 444.605 206.166 445.831 202.504 443.964L128.38 444.651H113.19C104.799 444.651 98 439.464 98 431.436V353.537C98.0099 345.509 104.812 339 113.203 339Z" fill="#EBA68A"/>
    <path d="M164.381 279.224C165.191 279.786 165.748 280.642 165.933 281.607C166.118 282.573 165.917 283.573 165.372 284.393C162.194 289.229 152.704 301.482 137.249 303.091C119.246 304.963 134.917 322.966 134.167 332.291C132.822 349.028 118.467 341.24 111.071 350.824C105.333 358.283 107.236 371.595 94.4096 370.979C82.8055 370.417 77.9333 367.722 74.1049 361.718C68.4664 352.88 75.2974 340.759 81.2068 332.106C92.3716 315.728 116.485 280.171 120.815 277.451C125.767 274.371 155.889 273.423 164.381 279.224Z" fill="#4A1412"/>
    <path d="M56.0132 455H456V521.264C456 527.559 453.507 533.597 449.068 538.048C444.63 542.499 438.61 545 432.334 545H81.8495C74.9937 545 68.4188 542.269 63.5711 537.407C58.7234 532.545 56 525.951 56 519.075V455H56.0132Z" fill="#7D84AA"/>
    <g clip-path="url(#clip3)">
        <path d="M328.341 283.848L295.679 315.93C294.804 316.787 293.387 316.787 292.515 315.93L272.652 296.291C271.781 295.431 271.781 294.034 272.652 293.179L277.398 288.52C278.274 287.661 279.691 287.661 280.563 288.52L294.114 301.921L320.425 276.07C321.297 275.213 322.714 275.213 323.593 276.07L328.339 280.736C329.22 281.594 329.22 282.992 328.341 283.848Z" fill="white"/>
    </g>
    <defs>
        <linearGradient id="paint0_linear" x1="150.604" y1="202.961" x2="147.246" y2="362.203" gradientUnits="userSpaceOnUse">
            <stop offset="0.02" stop-color="#884A6C"/>
            <stop offset="0.12" stop-color="#6D3B5C"/>
            <stop offset="0.28" stop-color="#472645"/>
            <stop offset="0.43" stop-color="#2B1634"/>
            <stop offset="0.56" stop-color="#1B0D2B"/>
            <stop offset="0.66" stop-color="#150A27"/>
            <stop offset="0.95"/>
        </linearGradient>
        <linearGradient id="paint1_linear" x1="118.968" y1="332.314" x2="131.618" y2="318.035" gradientUnits="userSpaceOnUse">
            <stop offset="0.07" stop-color="#EADFCF"/>
            <stop offset="0.8" stop-color="#E58057"/>
        </linearGradient>
        <linearGradient id="paint2_linear" x1="16290.2" y1="11248.3" x2="15507.8" y2="11481.8" gradientUnits="userSpaceOnUse">
            <stop offset="0.02" stop-color="#884A6C"/>
            <stop offset="0.12" stop-color="#6D3B5C"/>
            <stop offset="0.28" stop-color="#472645"/>
            <stop offset="0.43" stop-color="#2B1634"/>
            <stop offset="0.56" stop-color="#1B0D2B"/>
            <stop offset="0.66" stop-color="#150A27"/>
            <stop offset="0.95"/>
        </linearGradient>
        <clipPath id="clip0">
            <rect width="46.2014" height="46.2014" fill="white" transform="translate(87.5886 151.117)"/>
        </clipPath>
        <clipPath id="clip1">
            <rect width="40" height="39" fill="white" transform="translate(551 332)"/>
        </clipPath>
        <clipPath id="clip2">
            <rect width="62" height="63" fill="white" transform="translate(266 191)"/>
        </clipPath>
        <clipPath id="clip3">
            <rect width="57" height="56" fill="white" transform="translate(272 268)"/>
        </clipPath>
    </defs>
</svg>
