<svg width="807" height="560" viewBox="0 0 807 560" fill="none" xmlns="http://www.w3.org/2000/svg">
    <path d="M294.844 59.9275C259.463 -26.1342 106.799 -67.2799 0 -94H896.327L915 449.91C868.153 475.155 824.876 514.727 755.293 537.939C668.314 566.954 381.823 590.559 504.184 449.91C626.544 309.261 519.909 242.87 473.225 242.87C426.541 242.87 335.14 314.178 259.463 269.426C183.786 224.674 330.297 146.162 294.844 59.9275Z" fill="#FCF0EE"/>
    <path d="M59.6097 444.664H635.383C654.143 444.664 620.569 454.494 609.574 465.521C598.579 476.548 599.215 481.143 571.847 489.457C512.972 507.41 487.784 472.271 394.317 486.106C354.537 491.995 303.699 503.261 263.648 497.277C229.915 492.234 221.72 469.159 196.23 467.292C157.086 464.42 137.562 467.292 101.84 465.489C71.2572 464.021 10.6805 444.664 59.6097 444.664Z" fill="url(#paint0_linear)"/>
    <path d="M499.256 444.664C497.411 381.105 511.747 303.966 561.663 260.195C569.619 253.157 579.484 244.109 590.846 244.939C596.144 245.322 598.801 251.322 599.565 255.886C600.981 263.865 599.565 272.195 597.64 280.126C586.836 323.897 551.193 400.51 542.075 444.664" fill="#A6A6E2"/>
    <path d="M583.351 261.838C550.016 305.052 531.621 359.387 526.816 413.531C525.83 423.516 525.606 433.561 526.148 443.579C526.148 444.122 527.039 444.138 527.023 443.579C526.349 396.102 536.7 349.118 557.256 306.344C564.685 290.819 573.589 276.049 583.844 262.237C584.067 261.95 583.574 261.567 583.351 261.854V261.838Z" fill="#92D0FF"/>
    <path d="M542.075 444.664C548.758 403.542 555.776 369.935 579.294 335.578C588.952 321.44 607.585 303.966 622.415 305.403C638.327 306.998 627.029 331.062 617.641 349.047C604.884 373.092 596.073 399.042 591.546 425.898C592.851 417.84 598.436 394.877 614.92 384.68C619.694 381.68 631.66 379.893 631.66 389.866C631.66 407.324 614.745 428.292 610.513 444.664" fill="#A6A6E2"/>
    <path d="M617.291 317.834C607.839 329.882 601.077 344.275 594.728 358.111C586.202 376.316 579.121 395.167 573.549 414.489C570.701 423.931 568.793 433.632 567.853 443.452C567.853 443.867 568.442 443.851 568.489 443.452C570.781 424.941 576.445 406.909 582.81 389.467C589.362 371.528 597.168 354.075 606.169 337.238C609.554 330.611 613.471 324.271 617.88 318.28C618.134 317.961 617.562 317.514 617.307 317.834H617.291Z" fill="#DBDBF3"/>
    <path d="M622.176 391.095C608.524 404.834 602.477 425.994 599.056 444.569C598.977 445.047 599.709 445.271 599.82 444.776C604.037 426.233 609.16 405.728 622.638 391.558C622.679 391.493 622.696 391.417 622.688 391.341C622.68 391.265 622.646 391.194 622.592 391.14C622.538 391.086 622.468 391.052 622.392 391.044C622.317 391.036 622.24 391.054 622.176 391.095Z" fill="#DBDBF3"/>
    <path d="M166.14 444.664C156.482 364.478 163.499 329.53 172.6 307.318C176.849 296.961 182.943 286.716 191.567 279.408C226.096 250.189 224.982 306.998 223.391 324.217C219.7 363.456 209.882 405.377 209.071 444.664" fill="#A6A6E2"/>
    <path d="M135.032 444.664C133.934 419.435 122.701 394.829 108.396 374.451C94.0909 354.073 74.2328 337.653 61.2964 316.142C54.3588 304.621 43.3795 286.493 59.6097 277.046C77.6061 266.578 104.052 277.557 118.484 289.541C134.221 302.562 144.564 321.025 153.204 339.249C168.463 371.435 171.518 409.015 171.757 444.569" fill="#A6A6E2"/>
    <path d="M138.453 444.664C138.453 418.989 125.485 391.877 104.879 371.818C91.4177 358.717 75.3307 346.446 56.9683 341.036C47.4212 338.227 20.7846 333.775 18.1114 349.669C17.1089 355.685 22.519 366.999 35.5031 377.307C53.5472 391.669 103.383 413.914 109.398 444.664" fill="#A6A6E2"/>
    <path d="M30.3317 350.722C63.0626 359.85 93.9795 382.318 110.496 412.35C115.918 422.294 119.762 433.023 121.889 444.154C121.889 444.585 122.621 444.409 122.541 443.978C116.32 406.334 88.2034 376.382 55.043 359.69C47.1912 355.7 38.9677 352.493 30.4909 350.116C30.4205 350.11 30.3502 350.128 30.2922 350.169C30.2341 350.209 30.192 350.268 30.1731 350.337C30.1542 350.405 30.1597 350.478 30.1887 350.542C30.2177 350.607 30.2683 350.659 30.3317 350.69V350.722Z" fill="#DBDBF3"/>
    <path d="M68.2021 287.307C84.8301 296.339 98.5303 310.732 109.494 326.068C124.032 346.702 134.757 369.786 141.158 394.223C145.435 410.55 148.163 427.247 149.305 444.09C149.305 444.808 150.483 444.824 150.451 444.09C148.144 393.568 129.065 339.791 92.086 304.286C85.0735 297.368 77.1372 291.461 68.5045 286.732C68.1544 286.557 67.8521 287.067 68.2021 287.243V287.307Z" fill="#DBDBF3"/>
    <path d="M204.408 278.849C187.605 318.983 183.58 364.366 182.466 407.451C182.163 419.627 182.084 431.819 182.561 443.978C182.561 444.109 182.613 444.235 182.706 444.328C182.798 444.421 182.924 444.473 183.055 444.473C183.185 444.473 183.311 444.421 183.403 444.328C183.496 444.235 183.548 444.109 183.548 443.978C183.42 400.079 184.518 355.876 194.686 312.935C197.35 301.374 200.854 290.024 205.172 278.977C205.347 278.53 204.631 278.339 204.456 278.785L204.408 278.849Z" fill="#DBDBF3"/>
    <path d="M114.06 444.664C110.958 430.813 108.252 416.372 100.01 404.451C94.6319 396.648 83.6526 385.765 73.8827 385.941C66.6109 386.068 64.9561 393.074 65.7994 399.377C68.0271 415.925 77.1606 420.967 80.7089 438.856C78.9427 432.074 67.9794 408.536 58.4322 417.584C47.8985 427.446 63.6036 444.712 63.6036 444.712" fill="#A6A6E2"/>
    <path d="M62.3784 422.148C68.2486 428.845 72.9454 436.49 76.2695 444.76C76.3027 444.839 76.3637 444.903 76.4408 444.94C76.518 444.978 76.606 444.985 76.6882 444.961C76.7705 444.938 76.8413 444.885 76.8873 444.812C76.9333 444.74 76.9512 444.653 76.9378 444.569C74.6942 435.84 68.6954 428.324 62.7921 421.749C62.5375 421.478 62.1556 421.877 62.3784 422.148Z" fill="#DBDBF3"/>
    <path d="M77.5106 396.281C90.2402 409.542 96.0003 427.925 102.286 444.744C102.319 444.823 102.38 444.887 102.457 444.924C102.534 444.962 102.622 444.969 102.704 444.945C102.787 444.922 102.857 444.869 102.903 444.797C102.949 444.724 102.967 444.637 102.954 444.553C100.699 436.984 97.9181 429.583 94.6319 422.404C90.3675 412.829 85.3075 403.255 77.9084 395.866C77.6538 395.611 77.256 396.01 77.5106 396.281Z" fill="#DBDBF3"/>
    <path d="M394.635 313.924H397.818" stroke="#B3D3F4" stroke-miterlimit="10"/>
    <path d="M404.167 313.924H574.552C581.244 314.043 587.892 312.824 594.11 310.339C600.327 307.853 605.988 304.15 610.762 299.446C615.537 294.742 619.329 289.131 621.918 282.941C624.507 276.752 625.84 270.107 625.84 263.394C625.84 256.682 624.507 250.037 621.918 243.847C619.329 237.657 615.537 232.047 610.762 227.343C605.988 222.639 600.327 218.936 594.11 216.45C587.892 213.964 581.244 212.745 574.552 212.865H190.438C183.351 212.86 176.555 210.034 171.546 205.007C166.536 199.98 163.722 193.163 163.722 186.056V186.056C163.722 178.95 166.536 172.135 171.546 167.11C176.557 162.086 183.352 159.263 190.438 159.263H513.195C519.366 159.103 525.231 156.531 529.539 152.097C533.848 147.663 536.259 141.717 536.259 135.526C536.259 129.335 533.848 123.389 529.539 118.955C525.231 114.521 519.366 111.95 513.195 111.789H217.854C214.402 111.789 211.091 110.414 208.65 107.966C206.209 105.518 204.838 102.198 204.838 98.7359C204.838 95.2739 206.209 91.9538 208.65 89.5058C211.091 87.0578 214.402 85.6826 217.854 85.6826H297.414" stroke="#B3D3F4" stroke-miterlimit="10" stroke-dasharray="3.99 3.99"/>
    <path d="M300.532 85.6826H303.715" stroke="#B3D3F4" stroke-miterlimit="10"/>
    <path d="M324.05 43.4748C318.29 42.4941 312.368 43.3856 307.149 46.0191C301.929 48.6527 297.686 52.8904 295.039 58.1136C292.391 63.3369 291.477 69.2721 292.431 75.0528C293.385 80.8336 296.157 86.1572 300.341 90.2465L296.634 97.7785L304.94 93.8848C308.376 96.046 312.247 97.4158 316.274 97.8954C320.302 98.375 324.385 97.9526 328.23 96.6585C332.075 95.3644 335.586 93.231 338.51 90.4119C341.433 87.5928 343.697 84.1583 345.137 80.356C346.577 76.5537 347.158 72.4784 346.838 68.4237C346.518 64.369 345.305 60.4359 343.287 56.9081C341.268 53.3803 338.494 50.3455 335.165 48.0226C331.836 45.6996 328.034 44.1464 324.034 43.4748H324.05Z" fill="#F6F6FC"/>
    <path d="M307.263 83.5124L304.415 80.0655C303.915 79.4252 303.678 78.6178 303.752 77.8082C303.826 76.9986 304.206 76.2479 304.813 75.7091L308.075 72.9804C308.713 72.4795 309.518 72.2419 310.325 72.316C311.133 72.3902 311.881 72.7705 312.419 73.3793C312.419 73.3793 314.01 75.6453 315.696 75.2463C317.701 74.7836 322.061 71.5761 324.432 69.1027C326.023 67.3473 323.302 64.3154 323.302 64.3154C322.78 63.6845 322.528 62.8714 322.603 62.0547C322.677 61.2379 323.072 60.4841 323.7 59.959L326.962 57.2302C327.273 56.9687 327.632 56.7714 328.019 56.6498C328.406 56.5282 328.813 56.4847 329.217 56.5218C329.621 56.5589 330.013 56.6759 330.372 56.8659C330.73 57.056 331.048 57.3154 331.306 57.6292L334.138 61.0281C340.535 68.6559 312.832 90.1667 307.263 83.5124Z" fill="#B3D3F4"/>
    <path d="M443.485 85.1081C447.543 81.1985 449.229 77.1293 454.83 75.9166C455.991 75.7666 457.12 75.427 458.172 74.9112C460.893 73.2038 460.336 69.3261 460.956 66.2622C462.15 60.2303 470.026 56.4164 475.786 59.0654C478.205 60.1824 480.401 62.2569 483.058 62.0494C488.405 61.6824 487.832 55.076 491.412 51.31C494.992 47.544 501.882 47.2887 506.369 49.5387C509.43 51.0544 512.115 53.2349 514.23 55.9217C516.41 58.7462 516.314 63.1026 517.905 66.2143C519.496 69.3261 523.093 70.5229 524.7 73.475C525.413 74.6648 525.844 76.003 525.96 77.3864C526.076 78.7698 525.873 80.1614 525.368 81.4538C523.093 86.9432 516.394 90.9007 510.331 90.9007H428.369C428.369 90.9007 438.966 89.4965 443.485 85.1081Z" fill="#F6F6FC"/>
    <path d="M247.132 46.1078C243.695 42.8046 242.263 39.4216 237.585 38.3524C236.604 38.2258 235.652 37.9345 234.768 37.4907C232.461 36.0545 232.938 32.7832 232.413 30.1981C231.395 25.0916 224.744 21.8682 219.875 24.1023C217.838 25.0438 215.976 26.7831 213.717 26.6236C209.214 26.3204 209.755 20.7352 206.668 17.5597C203.581 14.3841 197.805 14.1447 194.034 16.0596C191.444 17.3457 189.172 19.1935 187.383 21.4693C185.537 23.8629 185.632 27.5491 184.2 30.1662C182.768 32.7832 179.808 33.8204 178.456 36.3258C177.846 37.3297 177.477 38.4619 177.378 39.6332C177.278 40.8045 177.451 41.983 177.883 43.0758C179.808 47.7195 185.473 51.0546 190.613 51.0546H259.893C259.893 51.0546 250.998 49.794 247.132 46.1078Z" fill="#F6F6FC"/>
    <path d="M566.723 121.14L518.574 95.305L531.255 57.5653L589.843 87.9805L566.723 121.14Z" fill="#CFE0F5"/>
    <path d="M589.843 87.9805L531.255 57.5653L573.024 48.6131L589.843 87.9805Z" fill="#CFE0F5"/>
    <path d="M585.391 81.887L538.477 57.5306L517.965 97.2668L564.879 121.623L585.391 81.887Z" fill="#FFF4E1"/>
    <path d="M531.255 57.5653L511.525 95.7678L549.984 93.2305L531.255 57.5653Z" fill="#E6F1FC"/>
    <path d="M589.843 87.9805L570.128 126.199L549.984 93.2305L589.843 87.9805Z" fill="#E6F1FC"/>
    <g style="mix-blend-mode:multiply">
        <path d="M570.128 126.199L511.525 95.7678L556.078 81.6134L570.128 126.199Z" fill="#E6F1FC"/>
    </g>
    <path d="M570.128 126.199L511.525 95.7678L553.293 86.8315L570.128 126.199Z" fill="#E6F1FC"/>
    <path d="M180.302 137.114L141.063 146.976L129.288 119.944L176.531 107.385L180.302 137.114Z" fill="#CFE0F5"/>
    <path d="M176.531 107.385L129.288 119.944L147.762 94.188L176.531 107.385Z" fill="#CFE0F5"/>
    <path d="M171.064 106.274L133.241 116.324L141.706 148.362L179.528 138.312L171.064 106.274Z" fill="#FFF4E1"/>
    <path d="M129.288 119.944L137.435 150.742L157.261 130.156L129.288 119.944Z" fill="#E6F1FC"/>
    <path d="M176.531 107.385L184.677 138.199L157.261 130.156L176.531 107.385Z" fill="#E6F1FC"/>
    <g style="mix-blend-mode:multiply">
        <path d="M184.678 138.199L137.435 150.742L154.843 120.741L184.678 138.199Z" fill="#E6F1FC"/>
    </g>
    <path d="M184.678 138.199L137.435 150.742L155.909 124.986L184.678 138.199Z" fill="#E6F1FC"/>
    <path d="M334.648 83.3209L336.111 81.0389C335.827 79.8312 335.688 78.5936 335.698 77.3527C335.675 76.1451 335.897 74.9454 336.35 73.8261C336.716 73.6187 336.891 75.8687 337.05 75.7729C337.209 75.6772 338.371 71.2889 339.023 71.3367C339.357 71.3367 338.212 75.6453 338.212 75.6453C338.212 75.6453 339.342 71.0016 339.803 71.1772C340.264 71.3527 339.087 75.757 339.087 75.757C339.087 75.757 340.169 71.5601 340.678 71.6878C341.187 71.8155 339.962 75.9166 339.962 75.9166C339.962 75.9166 341.044 72.2782 341.283 72.4857C341.521 72.6931 341.283 75.3102 340.201 78.8687C340.01 79.4911 339.135 81.5177 339.087 81.6772L338.037 85.523" fill="#FC8975"/>
    <path d="M337.162 76.2676C337.584 76.9136 337.911 77.6178 338.132 78.3581C338.284 79.1993 338.202 80.0662 337.894 80.8634C337.891 80.8903 337.897 80.9173 337.911 80.9405C337.925 80.9638 337.945 80.982 337.97 80.9927C337.995 81.0033 338.022 81.0058 338.049 80.9998C338.075 80.9938 338.099 80.9795 338.116 80.9591C338.485 80.1759 338.608 79.2988 338.469 78.4439C338.329 77.5891 337.935 76.7968 337.337 76.1719C337.257 76.0602 337.082 76.1719 337.162 76.2676Z" fill="#CC6658"/>
    <path d="M284.62 358.142C284.62 358.142 293.117 361.334 293.181 363.775C293.181 365.228 280.833 365.18 280.07 364.222C278.828 362.626 280.977 358.462 280.977 358.462L284.62 358.142Z" fill="#352E72"/>
    <path d="M284.429 351.089L284.62 358.35C284.525 358.712 284.321 359.036 284.037 359.278C283.752 359.521 283.401 359.67 283.029 359.706C281.772 359.866 280.913 358.462 280.913 358.462L280.547 349.366" fill="#FC8975"/>
    <path d="M290.253 189.439C290.253 189.439 294.868 217.636 292.545 271.812C290.953 308.754 285.989 353.419 284.159 353.467C283.005 353.491 281.851 353.432 280.706 353.291C280.706 353.291 269.106 299.754 268.311 269.61C267.101 223.173 254.881 212.529 260.18 188.402" fill="url(#paint1_linear)"/>
    <path d="M285.352 350.435L285.018 353.642L279.926 353.786L279.688 350.594L285.352 350.435Z" fill="#75A1E9"/>
    <path d="M258.366 358.861C258.366 358.861 266.879 361.972 266.942 364.51C266.942 365.946 254.595 365.914 253.831 364.956C252.59 363.361 254.738 359.18 254.738 359.18L258.366 358.861Z" fill="#352E72"/>
    <path d="M258.27 351.823L258.461 359.084C258.363 359.443 258.158 359.763 257.874 360.003C257.589 360.242 257.239 360.389 256.87 360.424C255.613 360.6 254.754 359.18 254.754 359.18L254.372 350.1" fill="#FC8975"/>
    <path d="M275.232 189.854C275.232 189.854 273.052 225.71 270.316 267.104C269.234 283.461 259.861 351.823 258.541 354.089L253.91 354.217C253.91 354.217 246.861 295.046 246.082 264.854C244.856 218.418 239.876 212.817 245.175 188.689" fill="url(#paint2_linear)"/>
    <path d="M259.241 351.153L258.891 354.36L253.815 354.504L253.56 351.313L259.241 351.153Z" fill="#75A1E9"/>
    <path d="M274.182 207.982C274.182 207.982 272.384 253.796 269.043 280.636" stroke="#4A578E" stroke-width="0.5" stroke-miterlimit="10"/>
    <path d="M280.101 94.3795C277.19 89.2411 269.329 90.023 264.826 92.3688C258.461 95.7039 256.87 105.215 250.951 109.268C248.325 111.071 245.127 112.124 242.995 114.55C241.818 116.032 241.043 117.793 240.745 119.663C240.446 121.534 240.635 123.45 241.292 125.225C242.636 128.762 245.161 131.723 248.437 133.603C251.663 135.446 255.167 136.75 258.811 137.465C264.555 138.789 270.682 139.508 276.314 137.561C281.947 135.614 286.737 130.396 286.721 124.348C286.721 119.225 283.347 114.454 283.936 109.364" fill="#273271"/>
    <path d="M335.125 81.5815C335.125 81.5815 319.897 103.507 316.412 108.486C310.986 116.257 288.71 117.757 276.808 124.827L268.549 125.72C264.619 126.534 251.046 136.188 249.821 140.082C246.941 148.954 244.029 157.97 243.456 167.322C243.281 170.513 243.456 173.705 243.456 176.896C243.615 181.481 243.764 186.072 243.902 190.668C243.884 190.976 243.962 191.283 244.125 191.545C244.35 191.776 244.648 191.922 244.968 191.96C259.909 195.423 275.487 193.556 290.715 191.673C291.257 191.664 291.781 191.479 292.21 191.146C292.619 190.621 292.813 189.959 292.751 189.295C292.831 186.359 292.672 183.423 292.545 180.487C292.043 167.774 292.49 155.042 293.881 142.396C298.655 139.428 318.099 133.284 324.623 124.156C333.347 112.011 338.416 97.6125 339.23 82.6666L335.125 81.5815Z" fill="url(#paint3_linear)"/>
    <path d="M276.808 124.827L276.505 114.342L271.875 114.981L268.549 125.624C269.142 126.333 269.915 126.867 270.787 127.171C271.658 127.474 272.595 127.535 273.498 127.348C274.246 127.34 274.973 127.09 275.569 126.636C276.165 126.182 276.599 125.548 276.808 124.827Z" fill="#FC8975"/>
    <path d="M266.91 110.05C266.591 106.132 267.724 102.234 270.093 99.1029C272.241 96.6933 276.298 96.3423 279.274 96.7412C280.316 96.8423 281.308 97.2349 282.138 97.8742C285.082 100.316 284.891 105.965 284.684 109.427C284.589 112.389 283.583 115.248 281.804 117.614C281.259 118.355 280.536 118.948 279.704 119.337C278.171 119.887 276.528 120.049 274.918 119.81C273.308 119.571 271.782 118.937 270.475 117.965C269.367 116.965 268.478 115.745 267.865 114.382C267.251 113.02 266.926 111.545 266.91 110.05Z" fill="#FC8975"/>
    <path d="M265.59 113.369C264.508 113.88 262.805 114.247 261.962 113.05C261.119 111.853 261.962 110.64 262.121 109.619C262.886 106.312 263.837 103.052 264.969 99.8529C265.489 98.1564 266.25 96.544 267.229 95.0657C269.234 92.289 274.93 91.0124 278.367 91.3156C282.043 91.0763 287.914 97.0923 284.732 104.082C284.254 102.358 283.586 102.486 282.329 101.066C281.074 102.251 279.45 102.966 277.731 103.092C275.503 103.3 272.957 102.789 271.366 104.353C269.775 105.917 270.045 108.821 268.836 110.736C268.049 111.927 266.916 112.846 265.59 113.369Z" fill="#273271"/>
    <path d="M269.409 110.752C269.448 110.574 269.45 110.391 269.415 110.212C269.38 110.034 269.309 109.864 269.206 109.714C269.103 109.565 268.97 109.438 268.816 109.342C268.662 109.246 268.49 109.183 268.311 109.156C266.624 108.965 266.115 111.646 266.719 112.858C267.213 113.752 268.438 114.454 269.074 113.401" fill="#FC8975"/>
    <path d="M369.988 99.7731L199.428 249.567V455.532H540.564V249.567L369.988 99.7731Z" fill="#D3D3F1"/>
    <path d="M514.086 152.465H225.889C220.792 152.465 216.66 156.609 216.66 161.72V425.021C216.66 430.132 220.792 434.276 225.889 434.276H514.086C519.183 434.276 523.315 430.132 523.315 425.021V161.72C523.315 156.609 519.183 152.465 514.086 152.465Z" fill="url(#paint4_linear)"/>
    <path d="M493.767 189.072H246.225C239.599 189.072 234.227 194.459 234.227 201.104C234.227 207.749 239.599 213.136 246.225 213.136H493.767C500.393 213.136 505.764 207.749 505.764 201.104C505.764 194.459 500.393 189.072 493.767 189.072Z" fill="#F6F6FC"/>
    <path d="M493.767 224.418H246.225C239.599 224.418 234.227 229.805 234.227 236.45C234.227 243.095 239.599 248.482 246.225 248.482H493.767C500.393 248.482 505.764 243.095 505.764 236.45C505.764 229.805 500.393 224.418 493.767 224.418Z" fill="#F6F6FC"/>
    <path d="M499.559 259.748H240.433C237.006 259.748 234.227 262.534 234.227 265.971V396.616C234.227 400.053 237.006 402.84 240.433 402.84H499.559C502.986 402.84 505.764 400.053 505.764 396.616V265.971C505.764 262.534 502.986 259.748 499.559 259.748Z" fill="#F6F6FC"/>
    <g style="mix-blend-mode:multiply" opacity="0.55">
        <path d="M369.988 380.323L199.428 249.567V434.276H540.564V249.567L369.988 380.323Z" fill="#C9D3F4"/>
    </g>
    <path d="M369.988 401.611L199.428 249.567V455.532H540.564V249.567L369.988 401.611Z" fill="url(#paint5_linear)"/>
    <g style="mix-blend-mode:multiply" opacity="0.35">
        <path d="M369.988 294.264L199.428 455.532H540.564L369.988 294.264Z" fill="#C9D3F4"/>
    </g>
    <path d="M369.988 309.982L199.428 455.532H540.564L369.988 309.982Z" fill="url(#paint6_linear)"/>
    <path d="M481.562 465.521C478.11 447.473 481.722 428.946 488.898 413.531C493.671 403.43 504.444 389.371 516.521 389.595C525.511 389.754 529.251 398.818 529.792 406.973C531.16 428.356 521.135 434.882 521.199 458.037C521.692 449.276 530.142 420.84 543.333 430.542C556.253 440.037 543.667 465.553 543.667 465.553" fill="#A6A6E2"/>
    <path d="M539.609 436.015C534.167 444.904 529.203 454.909 528.757 465.521C528.757 465.904 529.378 466.016 529.426 465.617C531.08 455.25 534.704 445.298 540.102 436.303C540.132 436.238 540.137 436.164 540.116 436.096C540.094 436.027 540.048 435.97 539.986 435.934C539.925 435.898 539.852 435.886 539.782 435.901C539.712 435.916 539.651 435.957 539.609 436.015Z" fill="#DBDBF3"/>
    <path d="M515.534 402.568C508.469 412.606 505.144 425.084 502.614 436.941C500.563 446.362 499.143 455.91 498.365 465.521C498.365 465.904 499.002 466 499.05 465.617C501.977 444.696 503.823 420.808 516.028 402.856C516.234 402.552 515.741 402.281 515.534 402.568Z" fill="#DBDBF3"/>
    <path d="M256.138 174.471C257.016 175.148 257.993 175.686 259.034 176.066C260.556 175.835 262.094 175.733 263.633 175.763C264.587 175.859 267.038 176.401 267.165 176.8C267.292 177.199 264.953 177.12 265.017 177.295C265.081 177.471 269.424 179.082 269.234 179.737C269.138 180.072 264.921 178.492 264.921 178.492C264.921 178.492 269.52 180.088 269.249 180.598C268.979 181.109 264.635 179.417 264.635 179.417C264.635 179.417 268.788 181.013 268.565 181.364C268.342 181.715 264.269 180.71 264.269 180.71C264.269 180.71 267.801 181.476 267.611 181.907C265.112 181.81 262.65 181.27 260.339 180.311C258.349 179.533 256.467 178.504 254.738 177.247" fill="#FC8975"/>
    <path d="M257.65 143.274C253.815 149.114 244.92 155.864 240.147 159.997C242.947 163.811 258.827 175.715 258.827 175.715L257.363 179.258C257.363 179.258 227.131 173.8 226.128 158.816C225.555 149.848 236.869 136.635 245.652 130.428C253.894 124.603 263.537 123.662 268.613 125.64" fill="url(#paint7_linear)"/>
    <path d="M479.239 208.636C475.898 207.263 471.14 203.194 471.697 200.864C471.936 199.875 474.275 202.572 474.879 201.902C475.309 201.471 474.959 199.476 473.75 198.519C472.54 197.561 470.042 195.774 470.663 195.152C471.283 194.529 477.393 195.902 478.762 197.976C479.959 200.291 480.77 202.787 481.165 205.364L483.695 208.556" fill="#FC8975"/>
    <path d="M543.253 469.08C543.253 469.08 532.847 472.271 532.863 474.617C532.863 475.989 548.154 475.622 549.077 474.697C550.541 473.229 547.756 469.287 547.756 469.287L543.253 469.08Z" fill="#273271"/>
    <path d="M543.253 462.425V469.287C543.42 469.657 543.691 469.971 544.033 470.189C544.375 470.407 544.773 470.521 545.178 470.516C545.674 470.526 546.165 470.421 546.612 470.207C547.06 469.994 547.451 469.679 547.756 469.287L547.931 460.702" fill="#FC8975"/>
    <path d="M530.842 310.014C530.842 310.014 526.068 336.743 530.651 387.728C533.833 422.563 541.407 464.579 543.667 464.579C545.092 464.574 546.515 464.488 547.931 464.324C547.931 464.324 560.533 413.499 560.533 385.015C560.533 341.18 575.268 330.759 567.948 308.179" fill="#273271"/>
    <path d="M542.091 461.835L542.616 464.835H548.902L549.093 461.835H542.091Z" fill="#75A1E9"/>
    <path d="M575.713 469.08C575.713 469.08 565.291 472.271 565.307 474.617C565.307 475.989 580.598 475.622 581.521 474.697C583.001 473.229 580.216 469.287 580.216 469.287L575.713 469.08Z" fill="#273271"/>
    <path d="M575.713 462.425V469.287C575.88 469.657 576.151 469.971 576.493 470.189C576.835 470.407 577.233 470.521 577.639 470.516C578.134 470.526 578.625 470.421 579.073 470.207C579.52 469.994 579.912 469.679 580.216 469.287L580.376 460.702" fill="#FC8975"/>
    <path d="M549.459 310.014C549.459 310.014 553.309 343.797 558.051 382.797C559.913 398.196 573.708 462.473 575.411 464.579H581.139C581.139 464.579 587.918 408.552 587.918 380.004C587.918 336.153 593.901 330.727 586.565 308.099" fill="#273271"/>
    <path d="M574.393 461.835L574.918 464.835H581.203L581.394 461.835H574.393Z" fill="#75A1E9"/>
    <path d="M551.368 327.105C551.368 327.105 555.076 370.302 560.072 395.547" stroke="#4A578E" stroke-width="0.5" stroke-miterlimit="10"/>
    <path d="M587.981 304.413C587.981 301.621 590.145 253.445 581.808 242.546C579.453 237.487 570.669 231.742 563.763 229.253C557.637 227.051 553.771 228.758 551.034 229.173C539.307 225.79 512.495 228.056 505.064 224.226C500.959 222.104 481.817 205.476 481.817 205.476L478.237 208.269C478.237 208.269 489.678 232.205 502.534 240.615C511.588 246.503 525.002 249.774 532.178 251.211C532.067 252.519 531.987 253.971 531.908 255.583C531.526 264.184 530.539 279.296 531.542 304.413C531.621 306.807 529.044 309.855 529.044 311.451C529.044 313.046 532.099 318.089 557.892 318.089C579.755 318.089 590.145 314.897 590.145 311.211C590.145 307.525 587.981 307.206 587.981 304.413Z" fill="url(#paint8_linear)"/>
    <g style="mix-blend-mode:multiply" opacity="0.75">
        <path style="mix-blend-mode:multiply" opacity="0.75" d="M532.719 241.349C532.719 241.349 532.815 241.971 532.862 242.945C532.91 243.918 532.862 245.115 532.862 246.344C532.862 247.572 532.624 248.801 532.481 249.727C532.337 250.652 532.162 251.322 532.162 251.322C532.092 250.793 532.049 250.26 532.035 249.727C531.973 248.594 531.973 247.46 532.035 246.328C532.098 245.194 532.225 244.064 532.417 242.945C532.56 241.955 532.719 241.349 532.719 241.349Z" fill="url(#paint9_linear)"/>
    </g>
    <path d="M549.459 199.668C548.488 203.529 546.101 214.157 548.297 217.492C549.493 219.061 551.182 220.18 553.09 220.67C554.998 221.159 557.014 220.99 558.815 220.189C560.587 219.335 562.154 218.107 563.409 216.59C564.664 215.072 565.577 213.301 566.087 211.396C567.084 207.572 567.386 203.599 566.978 199.668" fill="#FC8975"/>
    <path d="M553.596 213.726L552.005 226.604C552.005 226.604 552.561 230.21 554.519 231.599C556.019 231.469 557.463 230.962 558.717 230.126C559.971 229.289 560.995 228.149 561.695 226.811L560.247 210.232" fill="#FC8975"/>
    <path d="M562.061 203.194C559.579 202.301 556.157 202.62 553.039 202.093C550.819 201.924 548.628 201.485 546.515 200.785C542.791 199.189 543.142 193.524 546.165 191.37C546.565 191.03 547.029 190.775 547.529 190.619C548.029 190.463 548.555 190.409 549.077 190.46C550.159 190.715 550.556 191.864 551.527 192.295C552.03 192.505 552.578 192.582 553.118 192.519C553.534 192.492 553.933 192.342 554.264 192.088C554.789 191.625 554.996 190.891 555.521 190.492C556.022 190.021 556.645 189.7 557.319 189.567C558.047 189.373 558.806 189.331 559.551 189.444C560.295 189.556 561.009 189.821 561.647 190.221C562.037 190.571 562.477 190.862 562.952 191.082C563.795 191.205 564.622 191.419 565.418 191.721C566.456 192.448 567.318 193.399 567.943 194.503C568.568 195.607 568.939 196.837 569.03 198.104C569.03 198.471 569.651 198.822 569.858 199.077C570.758 200.335 571.368 201.778 571.643 203.302C571.918 204.825 571.852 206.391 571.449 207.886C571.106 210.902 569.667 213.685 567.407 215.705C566.424 216.326 565.35 216.789 564.225 217.077C559.913 218.593 562.109 206.705 561.902 203.274" fill="#352E72"/>
    <path d="M562.65 209.849C562.684 209.617 562.775 209.398 562.914 209.211C563.053 209.023 563.237 208.873 563.448 208.774C563.658 208.674 563.891 208.629 564.123 208.641C564.356 208.653 564.582 208.722 564.782 208.843C565.022 208.984 565.226 209.181 565.375 209.417C565.525 209.653 565.616 209.921 565.641 210.2C565.675 210.9 565.479 211.591 565.082 212.168C564.685 212.745 564.11 213.175 563.445 213.391C562.888 213.503 562.3 212.785 562.268 212.242" fill="#FC8975"/>
    <path d="M554.598 300.887H503.123L498.079 269.69C498.025 269.377 498.041 269.056 498.124 268.75C498.208 268.444 498.357 268.16 498.562 267.918C498.767 267.676 499.022 267.482 499.31 267.35C499.598 267.217 499.911 267.15 500.227 267.152H546.117C546.964 267.149 547.784 267.45 548.428 268C549.073 268.55 549.501 269.314 549.634 270.152L554.598 300.887Z" fill="#A2C0ED"/>
    <path d="M553.102 300.887H501.627L496.583 269.69C496.533 269.377 496.55 269.057 496.635 268.753C496.719 268.448 496.869 268.165 497.073 267.923C497.277 267.682 497.531 267.488 497.818 267.355C498.104 267.222 498.416 267.153 498.731 267.152H544.685C545.532 267.149 546.351 267.45 546.996 268C547.641 268.55 548.069 269.314 548.202 270.152L553.102 300.887Z" fill="#A6A6E2"/>
    <path d="M527.5 283.19C526.927 280.557 524.938 278.706 523.045 279.041C521.151 279.376 520.053 281.769 520.626 284.402C521.199 287.035 523.172 288.902 525.081 288.567C526.991 288.232 528.057 285.823 527.5 283.19Z" fill="#ABD1FF" stroke="#DBDBF3" stroke-miterlimit="10"/>
    <path style="mix-blend-mode:multiply" opacity="0.75" d="M581.808 242.546C579.453 237.487 573.215 235.333 566.262 232.843L564.352 256.413C565.366 265.259 566.961 274.028 569.126 282.663L547.549 298.94C547.285 299.133 546.996 299.288 546.69 299.402C546.403 299.402 544.303 298.206 543.205 298.397C542.107 298.589 540.818 298.668 540.818 299.067C540.818 299.466 542.521 299.514 542.521 299.897C542.521 300.28 541.375 301.03 540.85 301.03C539.596 300.909 538.333 300.909 537.079 301.03C536.872 301.254 537.731 302.626 538.575 303.392C539.381 303.945 540.321 304.27 541.296 304.333C543.283 304.29 545.249 303.923 547.12 303.248C547.803 302.801 548.509 302.391 549.236 302.02L549.952 303.376C549.952 303.376 579.293 301.03 588.14 296.993C588.427 282.631 588.363 251.067 581.808 242.546Z" fill="url(#paint10_linear)"/>
    <path d="M549.459 297.855C548.6 298.387 547.707 298.862 546.785 299.275C545.672 298.822 544.498 298.537 543.301 298.429C542.187 298.589 540.914 298.653 540.914 299.004C540.914 299.355 542.616 299.387 542.616 299.706C542.616 300.025 541.471 300.679 540.946 300.679C539.691 300.574 538.429 300.574 537.175 300.679C536.968 300.871 537.827 302.052 538.67 302.706C539.504 303.179 540.435 303.452 541.391 303.504C543.367 303.47 545.329 303.153 547.215 302.562C547.995 302.083 551.352 300.599 551.352 300.599" fill="#FC8975"/>
    <path d="M563.779 229.253C563.779 229.253 578.848 230.21 586.056 244.173C593.264 258.136 590.973 287.881 586.597 292.27C582.221 296.658 548.822 302.131 548.822 302.131L547.549 299.067L571.019 284.355C571.019 284.355 563.779 259.732 563.779 249.758" fill="url(#paint11_linear)"/>
    <path d="M554.598 231.599C555.704 233.048 556.574 234.664 557.176 236.386C562.188 234.79 563.747 229.189 563.747 229.189L561.759 226.811C561.759 226.811 557.828 230.96 554.598 231.599Z" fill="url(#paint12_linear)"/>
    <path d="M554.598 231.599C553.488 232.778 552.632 234.174 552.084 235.7C550.811 234.423 549.872 229.811 550 229.317C550.636 228.343 552.084 226.668 552.084 226.668C552.407 228.528 553.284 230.247 554.598 231.599Z" fill="url(#paint13_linear)"/>
    <path d="M116.24 467.643C116.24 467.643 105.834 470.835 105.834 473.197C105.834 474.553 121.141 474.202 122.048 473.276C123.528 471.792 120.902 467.324 120.902 467.324L116.24 467.643Z" fill="#273271"/>
    <path d="M116.24 460.989V467.851C116.405 468.224 116.675 468.541 117.017 468.762C117.359 468.983 117.759 469.099 118.166 469.095C118.662 469.104 119.154 468.996 119.602 468.78C120.049 468.564 120.44 468.246 120.743 467.851L120.902 459.266" fill="#FC8975"/>
    <path d="M119.693 272.466C112.708 281.546 104.481 307.222 104.481 355.956C104.481 390.393 115.62 462.537 115.62 462.537L121.985 463.064C142.336 334.126 135.462 335.403 140.554 312.536C143.736 298.174 137.26 261.95 137.26 261.95" fill="#273271"/>
    <path style="mix-blend-mode:multiply" opacity="0.35" d="M136.544 353.435C136.544 353.435 132.152 328.972 132.152 323.977C130.258 334.574 130.258 345.424 132.152 356.02C133.552 362.69 135 369.217 135 369.217L136.544 353.435Z" fill="url(#paint14_linear)"/>
    <path d="M115.349 460.75V463.478C115.349 463.478 122 464.595 122 464.181C122 463.766 122.303 460.989 122.303 460.989L115.349 460.75Z" fill="#75A1E9"/>
    <path d="M171.773 467.643C171.773 467.643 182.179 470.835 182.179 473.197C182.179 474.553 166.872 474.202 165.965 473.276C164.485 471.792 167.111 467.324 167.111 467.324L171.773 467.643Z" fill="#273271"/>
    <path d="M170.611 460.989L171.773 467.851C171.608 468.224 171.338 468.541 170.996 468.762C170.654 468.983 170.255 469.099 169.848 469.095C169.351 469.104 168.859 468.996 168.411 468.78C167.964 468.564 167.573 468.246 167.27 467.851L165.981 459.266" fill="#FC8975"/>
    <path d="M153.554 268.381C160.46 280.014 172.648 303.998 172.648 352.733C172.648 387.185 171.741 462.505 171.741 462.505L166.283 463.064C148.732 413.834 134.157 351.105 130.657 314.578C129.288 299.929 131.914 261.918 131.914 261.918" fill="#273271"/>
    <path style="mix-blend-mode:multiply" opacity="0.35" d="M154.365 269.769C146.941 267.527 139.391 265.726 131.754 264.376C131.754 264.663 131.754 264.966 131.754 265.285L119.757 272.466C118.019 274.848 116.561 277.424 115.413 280.142C120.349 282.033 125.531 283.199 130.8 283.604C140.729 284.482 153.076 282.535 159.441 279.551C157.914 276.207 156.22 272.942 154.365 269.769Z" fill="url(#paint15_linear)"/>
    <path d="M172.68 460.239V462.968C172.68 462.968 165.695 464.085 165.695 463.67C165.695 463.255 165.376 460.478 165.376 460.478L172.68 460.239Z" fill="#75A1E9"/>
    <path d="M208.211 242.721L210.534 241.492C210.836 240.381 211.269 239.31 211.823 238.301C212.237 237.535 213.558 235.652 213.955 235.652C214.353 235.652 213.51 237.599 213.669 237.599C213.828 237.599 216.851 234.407 217.329 234.822C217.599 234.998 214.735 238.014 214.735 238.014C214.735 238.014 217.758 234.663 218.124 235.046C218.49 235.429 215.467 238.524 215.467 238.524C215.467 238.524 218.268 235.524 218.649 235.843C219.031 236.163 216.167 239.035 216.167 239.035C216.167 239.035 218.697 236.498 218.809 236.785C218.92 237.072 217.52 239.115 215.053 241.572C214.624 242.003 212.969 243.28 212.858 243.407L210.264 246.12" fill="#FC8975"/>
    <path d="M213.43 237.998C213.511 238.743 213.478 239.496 213.335 240.232C213.077 240.975 212.627 241.636 212.03 242.147C211.935 242.242 212.03 242.418 212.173 242.338C212.841 241.853 213.34 241.171 213.603 240.387C213.865 239.603 213.877 238.757 213.637 237.966C213.637 237.854 213.43 237.966 213.43 237.966V237.998Z" fill="#CC6658"/>
    <path d="M60.9622 199.684L59.371 197.641C59.5409 196.484 59.5782 195.312 59.4824 194.146C59.4065 193.03 59.0974 191.943 58.5754 190.955C58.2094 190.795 58.2254 192.918 58.0662 192.854C57.9071 192.79 56.475 188.721 55.8227 188.832C56.0314 190.201 56.3999 191.54 56.9206 192.822C56.9206 192.822 55.4885 188.545 54.9952 188.737C54.502 188.928 56.0454 192.997 56.0454 192.997C56.0454 192.997 54.677 189.12 54.2633 189.295C53.8496 189.471 55.2657 193.221 55.2657 193.221C55.2657 193.221 53.945 189.87 53.6745 190.029C53.404 190.189 53.945 192.678 55.2657 195.934C55.4885 196.492 56.491 198.343 56.5546 198.487C56.6182 198.63 57.8435 202.029 57.8435 202.029" fill="#FC8975"/>
    <path d="M57.7798 193.157C57.2523 193.784 56.9321 194.56 56.8637 195.378C56.7953 196.195 56.982 197.014 57.3979 197.721C57.3979 197.832 57.6525 197.721 57.6048 197.721C57.2738 197.031 57.1258 196.267 57.1752 195.503C57.3133 194.739 57.5825 194.004 57.9708 193.332C57.9749 193.309 57.9713 193.284 57.9605 193.263C57.9497 193.241 57.9323 193.224 57.9109 193.213C57.8894 193.202 57.8651 193.199 57.8415 193.203C57.8179 193.207 57.7962 193.219 57.7798 193.237V193.157Z" fill="#CC6658"/>
    <path d="M209.802 241.764C209.802 241.764 186.985 250.189 181.813 250.189C177.533 250.189 170.261 238.604 160.173 230.705C156.072 227.587 151.571 225.038 146.791 223.125L127.697 222.726C121.91 222.859 116.135 223.322 110.401 224.115C100.853 225.407 92.0541 224.976 87.9329 223.125C79.977 219.535 59.9279 197.976 59.9279 197.976C59.2616 197.889 58.5841 197.963 57.9526 198.194C57.3211 198.424 56.7543 198.804 56.3 199.301C56.3 200.37 66.595 229.843 80.1679 238.668C90.1606 245.163 104.704 246.216 113.79 246.152V252.232C113.79 255.216 110.21 269.961 114.426 274.19C118.309 278.067 133.075 278.562 138.851 278.562C147.396 278.562 156.147 277.206 158.343 274.19C159.425 272.69 159.266 265.971 158.932 259.828C165.774 264.136 171.964 268.445 179.856 268.445C194.638 268.445 212.03 245.258 212.03 245.258L209.802 241.764Z" fill="url(#paint16_linear)"/>
    <path style="mix-blend-mode:multiply" opacity="0.75" d="M159.171 264.104L158.98 259.828L152.583 253.333L159.171 264.104Z" fill="url(#paint17_linear)"/>
    <path style="mix-blend-mode:multiply" opacity="0.75" d="M113.838 246.152C113.838 245.402 115.111 238.046 115.111 236.881C113.201 241.03 110.337 246.12 110.337 246.12L113.838 246.152Z" fill="url(#paint18_linear)"/>
    <path d="M143.529 188.832C148.907 192.199 147.985 199.061 150.165 203.354C151.756 206.45 154.19 209.083 154.429 212.769C154.684 216.79 149.464 218.673 146.664 218.242C141.19 217.397 136.496 220.189 130.991 219.519C127.235 219.056 128.652 217.173 126.217 214.285C124.772 212.46 123.932 210.229 123.814 207.902C123.679 205.619 123.839 203.329 124.292 201.088" fill="#F42A73"/>
    <path d="M133.6 212.099L132.566 221.976L127.792 222.726C127.792 222.726 131.086 228.726 136.385 228.726C141.683 228.726 146.791 223.093 146.791 223.093L141.604 221.498L139.631 207.615" fill="#FC8975"/>
    <path d="M125.756 195.981C125.283 199.271 125.32 202.613 125.867 205.891C126.156 207.53 126.82 209.08 127.805 210.42C128.791 211.76 130.071 212.853 131.548 213.615C132.95 214.156 134.436 214.448 135.939 214.476C138.462 214.76 141.004 214.157 143.131 212.769C144.252 211.79 145.117 210.551 145.653 209.161C146.188 207.771 146.376 206.27 146.202 204.79C145.833 201.874 144.989 199.038 143.704 196.396C142.643 193.864 141.583 191.327 140.522 188.785" fill="#FC8975"/>
    <path d="M113.472 209.146C112.257 210.288 111.395 211.756 110.989 213.375C110.934 214.199 111.131 215.02 111.555 215.727C111.979 216.435 112.609 216.995 113.36 217.333C114.633 217.775 115.998 217.88 117.322 217.636C118.856 217.494 120.402 217.553 121.921 217.811C123.21 218.067 124.435 218.545 125.708 218.897C127.555 219.494 129.513 219.669 131.436 219.407C131.604 219.395 131.767 219.348 131.915 219.268C132.063 219.188 132.193 219.078 132.295 218.944C132.345 218.767 132.355 218.58 132.325 218.398C132.294 218.216 132.225 218.043 132.12 217.891C131.099 215.314 130.764 212.515 131.15 209.769C131.236 208.351 131.46 206.946 131.818 205.572C132.163 204.434 132.594 203.325 133.107 202.253C134.046 200.194 135.207 198.215 136.098 196.125C136.989 194.035 137.515 190.859 140.395 191.338C142.256 191.609 143.052 194.625 144.293 196.46C146.123 194.354 148.191 193.077 144.293 188.082C142.336 185.593 138.994 185.721 136.035 186.263C134.364 186.152 134.444 185.497 132.852 185.386C130.028 185.329 127.245 186.071 124.822 187.528C122.399 188.984 120.434 191.095 119.152 193.62C116.495 199.237 117.115 204.646 113.472 209.146Z" fill="#F42A73"/>
    <path d="M443.071 71.2729L435.116 74.624C434.913 74.7107 434.735 74.8476 434.599 75.0218C434.463 75.196 434.374 75.4019 434.339 75.6202C434.304 75.8385 434.325 76.0622 434.399 76.2703C434.474 76.4784 434.6 76.6641 434.765 76.8102L440.51 81.7411C440.674 81.8835 440.873 81.9817 441.085 82.0267C441.298 82.0716 441.519 82.0617 441.727 81.998C441.935 81.9343 442.124 81.8188 442.276 81.6623C442.427 81.5057 442.537 81.3132 442.594 81.1028L444.854 72.8048C444.923 72.5664 444.922 72.313 444.851 72.0751C444.78 71.8372 444.643 71.6247 444.455 71.4631C444.267 71.3015 444.036 71.1977 443.791 71.1639C443.546 71.1302 443.296 71.168 443.071 71.2729Z" stroke="#CFE0F5" stroke-miterlimit="10"/>
    <path d="M99.4214 175.971L101.776 184.332C101.835 184.546 101.948 184.741 102.103 184.898C102.259 185.056 102.452 185.171 102.665 185.231C102.877 185.292 103.102 185.297 103.317 185.246C103.532 185.195 103.73 185.089 103.893 184.939L109.478 179.832C109.639 179.685 109.761 179.5 109.831 179.293C109.901 179.086 109.918 178.865 109.88 178.649C109.842 178.434 109.75 178.232 109.613 178.062C109.476 177.893 109.298 177.76 109.096 177.678L101.14 174.407C100.915 174.322 100.672 174.302 100.437 174.347C100.201 174.392 99.9825 174.501 99.8049 174.663C99.6273 174.824 99.4976 175.032 99.4299 175.263C99.3623 175.493 99.3593 175.738 99.4214 175.971V175.971Z" stroke="#CFE0F5" stroke-miterlimit="10"/>
    <path d="M607.951 276.392L614.077 270.264C614.236 270.109 614.352 269.916 614.415 269.703C614.478 269.49 614.485 269.264 614.435 269.048C614.386 268.831 614.281 268.631 614.132 268.467C613.983 268.302 613.794 268.179 613.584 268.11L606.423 265.7C606.216 265.627 605.993 265.609 605.776 265.647C605.56 265.685 605.356 265.778 605.186 265.918C605.015 266.057 604.883 266.237 604.801 266.442C604.72 266.647 604.692 266.87 604.721 267.088L605.739 275.626C605.77 275.868 605.867 276.097 606.021 276.286C606.174 276.476 606.378 276.618 606.608 276.698C606.838 276.778 607.086 276.791 607.323 276.737C607.56 276.683 607.778 276.563 607.951 276.392V276.392Z" stroke="#CFE0F5" stroke-miterlimit="10"/>
    <path d="M579.182 181.428L581.426 189.806C581.484 190.019 581.596 190.214 581.75 190.373C581.905 190.531 582.096 190.648 582.308 190.712C582.519 190.775 582.744 190.784 582.959 190.738C583.175 190.691 583.376 190.59 583.542 190.444L589.191 185.402C589.352 185.254 589.474 185.068 589.545 184.861C589.616 184.654 589.635 184.432 589.598 184.216C589.562 184 589.472 183.797 589.337 183.625C589.202 183.453 589.026 183.317 588.825 183.231L580.869 179.896C580.649 179.817 580.411 179.799 580.182 179.844C579.953 179.89 579.74 179.997 579.567 180.154C579.393 180.312 579.266 180.513 579.198 180.738C579.131 180.962 579.125 181.201 579.182 181.428V181.428Z" stroke="#CFE0F5" stroke-miterlimit="10"/>
    <path d="M552.761 164.223L548.829 167.237L551.834 171.18L555.766 168.166L552.761 164.223Z" fill="#CFE0F5"/>
    <path d="M517.054 130.126L512.111 130.347L512.331 135.305L517.274 135.084L517.054 130.126Z" fill="#CFE0F5"/>
    <path d="M198.943 194.475L194.332 196.277L196.129 200.901L200.74 199.099L198.943 194.475Z" fill="#CFE0F5"/>
    <path d="M247.168 75.4824L242.566 73.6957L240.784 78.3112L245.386 80.0978L247.168 75.4824Z" fill="#CFE0F5"/>
    <path d="M53.3977 321.387L48.454 321.608L48.6741 326.566L53.6178 326.345L53.3977 321.387Z" fill="#CFE0F5"/>
    <path d="M422.768 161.481H317.224C311.6 161.481 307.04 166.054 307.04 171.694C307.04 177.334 311.6 181.907 317.224 181.907H422.768C428.392 181.907 432.951 177.334 432.951 171.694C432.951 166.054 428.392 161.481 422.768 161.481Z" fill="#F6F6FC"/>
    <defs>
        <linearGradient id="paint0_linear" x1="341.092" y1="499" x2="341.092" y2="444.664" gradientUnits="userSpaceOnUse">
            <stop offset="0.01" stop-color="#FCF5F1"/>
            <stop offset="0.48" stop-color="#FCEFED"/>
            <stop offset="1" stop-color="#FCE1E3"/>
        </linearGradient>
        <linearGradient id="paint1_linear" x1="279.35" y1="352.549" x2="275.574" y2="186.867" gradientUnits="userSpaceOnUse">
            <stop stop-color="#29225E"/>
            <stop offset="1" stop-color="#3F368C"/>
        </linearGradient>
        <linearGradient id="paint2_linear" x1="6995.9" y1="35490.9" x2="6995.9" y2="18305.7" gradientUnits="userSpaceOnUse">
            <stop stop-color="#29225E"/>
            <stop offset="1" stop-color="#3F368C"/>
        </linearGradient>
        <linearGradient id="paint3_linear" x1="287.437" y1="148.954" x2="362.971" y2="112.995" gradientUnits="userSpaceOnUse">
            <stop stop-color="#FCC73C"/>
            <stop offset="1" stop-color="#F59E35"/>
        </linearGradient>
        <linearGradient id="paint4_linear" x1="369.988" y1="434.276" x2="369.988" y2="152.465" gradientUnits="userSpaceOnUse">
            <stop stop-color="#FDC7C5"/>
            <stop offset="0.36" stop-color="#FDCAC6"/>
            <stop offset="0.64" stop-color="#FED4C7"/>
            <stop offset="0.89" stop-color="#FEE4CA"/>
            <stop offset="1" stop-color="#FFEECC"/>
        </linearGradient>
        <linearGradient id="paint5_linear" x1="457.106" y1="503.851" x2="282.136" y2="201.666" gradientUnits="userSpaceOnUse">
            <stop stop-color="#CDE8FF"/>
            <stop offset="1" stop-color="#EEE7E9"/>
        </linearGradient>
        <linearGradient id="paint6_linear" x1="93947" y1="48300.4" x2="82684.3" y2="21903" gradientUnits="userSpaceOnUse">
            <stop stop-color="#CDE8FF"/>
            <stop offset="1" stop-color="#EEE7E9"/>
        </linearGradient>
        <linearGradient id="paint7_linear" x1="6827.68" y1="4453.83" x2="5386.62" y2="5514.37" gradientUnits="userSpaceOnUse">
            <stop stop-color="#FCC73C"/>
            <stop offset="1" stop-color="#F59E35"/>
        </linearGradient>
        <linearGradient id="paint8_linear" x1="36780.3" y1="17099.6" x2="36780.3" y2="21365.4" gradientUnits="userSpaceOnUse">
            <stop stop-color="#FCC73C"/>
            <stop offset="1" stop-color="#F59E35"/>
        </linearGradient>
        <linearGradient id="paint9_linear" x1="531.733" y1="246.28" x2="533.117" y2="246.28" gradientUnits="userSpaceOnUse">
            <stop stop-color="#FCC73C"/>
            <stop offset="1" stop-color="#FC7A3C"/>
        </linearGradient>
        <linearGradient id="paint10_linear" x1="17232.4" y1="11601.9" x2="18877.8" y2="11601.9" gradientUnits="userSpaceOnUse">
            <stop stop-color="#FCC73C"/>
            <stop offset="1" stop-color="#F59E35"/>
        </linearGradient>
        <linearGradient id="paint11_linear" x1="15490.6" y1="11162.5" x2="15490.6" y2="13523" gradientUnits="userSpaceOnUse">
            <stop stop-color="#FCC73C"/>
            <stop offset="1" stop-color="#F59E35"/>
        </linearGradient>
        <linearGradient id="paint12_linear" x1="559.181" y1="236.45" x2="559.181" y2="226.875" gradientUnits="userSpaceOnUse">
            <stop stop-color="#FCAE3C"/>
            <stop offset="1" stop-color="#FC7A3C"/>
        </linearGradient>
        <linearGradient id="paint13_linear" x1="2097.99" y1="1476.42" x2="2097.99" y2="1424.94" gradientUnits="userSpaceOnUse">
            <stop stop-color="#FCAE3C"/>
            <stop offset="1" stop-color="#FC7A3C"/>
        </linearGradient>
        <linearGradient id="paint14_linear" x1="553.187" y1="10369" x2="553.187" y2="9086.46" gradientUnits="userSpaceOnUse">
            <stop stop-color="#29225E"/>
            <stop offset="1" stop-color="#3F368C"/>
        </linearGradient>
        <linearGradient id="paint15_linear" x1="3418.86" y1="3540.52" x2="3418.86" y2="3303.73" gradientUnits="userSpaceOnUse">
            <stop stop-color="#29225E"/>
            <stop offset="1" stop-color="#3F368C"/>
        </linearGradient>
        <linearGradient id="paint16_linear" x1="11429.3" y1="10735.2" x2="11429.3" y2="13578.7" gradientUnits="userSpaceOnUse">
            <stop stop-color="#FCC73C"/>
            <stop offset="1" stop-color="#F59E35"/>
        </linearGradient>
        <linearGradient id="paint17_linear" x1="723.393" y1="1885.84" x2="723.393" y2="1936.58" gradientUnits="userSpaceOnUse">
            <stop stop-color="#FCC73C"/>
            <stop offset="1" stop-color="#FC7A3C"/>
        </linearGradient>
        <linearGradient id="paint18_linear" x1="387.205" y1="1553.6" x2="401.669" y2="1553.6" gradientUnits="userSpaceOnUse">
            <stop stop-color="#FCC73C"/>
            <stop offset="1" stop-color="#FC7A3C"/>
        </linearGradient>
    </defs>
</svg>
