<svg width="339" height="343" viewBox="0 0 339 343" fill="none" xmlns="http://www.w3.org/2000/svg">
    <path opacity="0.6" d="M254.059 343C287.326 343 314.294 336.244 314.294 327.91C314.294 319.576 287.326 312.82 254.059 312.82C220.792 312.82 193.824 319.576 193.824 327.91C193.824 336.244 220.792 343 254.059 343Z" fill="#E6F1FC"/>
    <path opacity="0.6" d="M94.8959 336.021C140.455 336.021 177.388 329.265 177.388 320.931C177.388 312.597 140.455 305.841 94.8959 305.841C49.3368 305.841 12.4039 312.597 12.4039 320.931C12.4039 329.265 49.3368 336.021 94.8959 336.021Z" fill="#E6F1FC"/>
    <path d="M105.533 198.306C105.533 198.306 104.871 198.753 103.665 199.527" stroke="#1F285A" stroke-miterlimit="10"/>
    <path d="M99.8609 201.896C83.626 211.742 37.4745 236.559 24.9169 208.346C9.63479 173.95 28.6388 166.189 33.909 170.13C39.1792 174.07 28.0284 196.421 12.4039 186.188C-2.27527 176.58 -2.7219 147.13 13.6544 130.967" stroke="#1F285A" stroke-miterlimit="10" stroke-dasharray="6.03 6.03"/>
    <path d="M15.307 129.441C15.8727 128.956 16.4459 128.48 17.0414 128.025" stroke="#1F285A" stroke-miterlimit="10"/>
    <path d="M98.6997 71.4496C98.6997 71.4496 98.3796 70.7048 97.732 69.4387" stroke="#163560" stroke-miterlimit="10"/>
    <path d="M95.6775 65.6178C88.9781 53.9391 71.1949 28.988 42.1195 31.0064" stroke="#163560" stroke-miterlimit="10" stroke-dasharray="5.83 5.83"/>
    <path d="M39.9533 31.2001C39.209 31.282 38.4646 31.3863 37.7202 31.5054" stroke="#163560" stroke-miterlimit="10"/>
    <path d="M242.722 133.075C242.722 133.075 243.347 133.597 244.479 134.453" stroke="#163560" stroke-miterlimit="10"/>
    <path d="M248 137.045C260.617 145.819 292.402 164.052 305.228 135.466C314.16 115.609 295.9 107.484 294.881 84.3572C293.734 58.4303 311.406 50.3566 324.38 49.2394" stroke="#163560" stroke-miterlimit="10" stroke-dasharray="5.86 5.86"/>
    <path d="M326.561 49.1128C327.336 49.1128 328.08 49.1128 328.795 49.1128" stroke="#163560" stroke-miterlimit="10"/>
    <path d="M317.934 49.4479L314.622 54.8404C314.835 54.9533 315.071 55.0161 315.312 55.0238C315.554 55.0316 315.793 54.9841 316.014 54.8851L320.011 53.7157L323.435 60.6499C324.179 61.7448 325.028 61.8192 325.929 60.7542L338.405 45.6196C339.506 44.2864 338.948 43.2511 337.772 43.1096L312.15 40.1751C310.394 39.9889 309.999 40.8082 310.989 41.7987L315.567 46.3346L332.368 44.994C333.164 44.9046 333.596 45.4111 332.941 45.5675L317.934 49.4479Z" fill="#1F285A"/>
    <path d="M34.1472 31.215C33.6708 31.2746 33.8271 30.8277 34.3854 30.6787L45.9381 27.2526L47.8289 23.0891C48.2383 22.173 47.7619 21.7261 46.6453 22.3071L30.3136 30.8053C29.5693 31.2075 29.4576 32.0417 30.5369 32.645L42.7522 39.5345C43.6231 40.0112 44.1814 39.7431 44.3824 38.8269L44.9183 33.3228L47.8958 33.0696C48.0679 33.0796 48.24 33.0498 48.3988 32.9827C48.5575 32.9155 48.6987 32.8127 48.8114 32.6823L45.2161 29.9339L34.1472 31.215Z" fill="#1F285A"/>
    <path d="M9.63479 135.593L8.92763 140.062C9.09967 140.076 9.27283 140.052 9.43403 139.99C9.59523 139.928 9.74024 139.83 9.85811 139.704L12.1806 137.842L16.3342 141.514C17.0786 142.035 17.7039 141.849 18.0091 140.903L22.118 127.497C22.4828 126.312 21.8277 125.784 21.0089 126.007L3.30013 131.042C2.09424 131.392 2.04957 132.047 2.98005 132.427L7.23789 134.17L17.9718 128.688C18.478 128.413 18.9023 128.621 18.5152 128.912L9.63479 135.593Z" fill="#1F285A"/>
    <path opacity="0.6" d="M88.1742 271.789H240.422V286.514C240.422 291.057 238.618 295.414 235.407 298.627C232.197 301.839 227.842 303.644 223.301 303.644H106.568C101.689 303.644 97.011 301.705 93.5615 298.254C90.1121 294.802 88.1742 290.121 88.1742 285.24V271.833V271.789Z" fill="#8CBBEA"/>
    <path d="M234.951 6.4054H94.8959V296.174H234.951V6.4054Z" fill="#1F285A"/>
    <path d="M234.951 20.6461C234.951 12.7809 228.251 6.40537 220.011 6.40537H206.754C205.981 6.38939 205.234 6.68077 204.675 7.21557C204.117 7.75037 203.794 8.4849 203.776 9.25799V9.6155C203.753 10.6677 203.523 11.705 203.099 12.668C202.674 13.6311 202.065 14.501 201.304 15.228C200.544 15.9551 199.647 16.525 198.666 16.9051C197.686 17.2852 196.64 17.4682 195.588 17.4435H134.296C133.244 17.4682 132.198 17.2852 131.217 16.9051C130.237 16.525 129.34 15.9551 128.58 15.228C127.819 14.501 127.21 13.6311 126.785 12.668C126.361 11.705 126.131 10.6677 126.108 9.6155V9.25799C126.088 8.48555 125.764 7.75216 125.206 7.21778C124.649 6.68339 123.902 6.39136 123.13 6.40537H109.836C101.58 6.40537 94.8959 12.7809 94.8959 20.6461V281.24C94.8959 289.106 101.595 295.481 109.836 295.481H220.004C228.259 295.481 234.943 289.106 234.943 281.24L234.951 20.6461ZM109.836 0H220.004C231.958 0 241.665 9.25799 241.665 20.6461V281.24C241.665 292.628 231.988 301.886 220.004 301.886H109.836C97.8883 301.886 88.1742 292.628 88.1742 281.24V20.6461C88.1742 9.25799 97.8883 0 109.836 0Z" fill="#DBDBF3"/>
    <path d="M195.96 118.991L134.757 118.283L127.894 74.2799L201.856 74.131L195.96 118.991Z" fill="#CFE0F5"/>
    <path d="M201.856 74.1309L127.894 74.2799L164.815 43.7799L201.856 74.1309Z" fill="url(#paint0_linear)"/>
    <path d="M190.88 55.4924L138.461 55.6023C136.587 55.6062 135.07 57.13 135.074 59.0057L135.165 102.257C135.168 104.132 136.691 105.65 138.566 105.646L190.985 105.536C192.86 105.532 194.376 104.008 194.372 102.133L194.282 58.8816C194.278 57.0059 192.755 55.4885 190.88 55.4924Z" fill="white"/>
    <path d="M127.894 74.2799L127.991 122.395L164.927 99.961L127.894 74.2799Z" fill="url(#paint1_linear)"/>
    <path d="M201.856 74.131L201.952 122.246L164.927 99.961L201.856 74.131Z" fill="url(#paint2_linear)"/>
    <g style="mix-blend-mode:multiply">
        <path d="M201.952 122.246L127.991 122.395L164.994 85.2808L201.952 122.246Z" fill="#E6F1FC"/>
    </g>
    <path d="M201.952 122.246L127.991 122.395L164.912 91.9021L201.952 122.246Z" fill="url(#paint3_linear)"/>
    <path d="M202.086 147.659H127.857C122.846 147.659 118.783 151.724 118.783 156.738C118.783 161.752 122.846 165.817 127.857 165.817H202.086C207.098 165.817 211.16 161.752 211.16 156.738C211.16 151.724 207.098 147.659 202.086 147.659Z" stroke="#E6F1FC" stroke-width="1.13" stroke-miterlimit="10"/>
    <path d="M202.086 171.493H127.857C122.846 171.493 118.783 175.557 118.783 180.572C118.783 185.586 122.846 189.651 127.857 189.651H202.086C207.098 189.651 211.16 185.586 211.16 180.572C211.16 175.557 207.098 171.493 202.086 171.493Z" stroke="#E6F1FC" stroke-width="1.13" stroke-miterlimit="10"/>
    <path d="M202.086 198.306H127.857C122.846 198.306 118.783 202.371 118.783 207.385C118.783 212.399 122.846 216.464 127.857 216.464H202.086C207.098 216.464 211.16 212.399 211.16 207.385C211.16 202.371 207.098 198.306 202.086 198.306Z" fill="#F6F6FC"/>
    <path d="M54.7144 297.894L58.7042 314.705L64.6816 314.675L64.8975 297.894H54.7144Z" fill="#FC8975"/>
    <path d="M74.4181 78.7487C72.6632 77.8633 70.6965 77.4842 68.7384 77.6539C69.0866 77.3656 69.5011 77.1685 69.9443 77.0804C68.9692 76.9389 66.7807 77.9071 66.7807 77.9071C53.166 72.6934 51.0297 92.7214 51.3125 97.3764C51.5954 102.032 46.7048 103.529 39.6184 107.253C26.1004 114.261 24.9169 123.638 24.9169 123.638C24.9169 123.638 25.1328 123.773 25.2444 123.854C25.9144 122.715 27.2989 120.585 28.4601 120.264C27.7563 121.749 27.1327 123.271 26.5917 124.823C30.5742 127.862 38.0328 134.587 43.236 139.354C43.1587 138.348 43.2775 137.336 43.5859 136.375L44.2335 140.248C47.01 142.802 48.9305 144.605 48.9305 144.605C48.5881 140.836 65.9545 120.965 74.9838 115.014C77.2169 111.766 77.9613 106.024 78.0283 105.577C77.6487 110.128 76.8745 112.675 76.1748 114.112C83.8791 107.052 79.4128 81.5865 74.4181 78.7487Z" fill="#163560"/>
    <path d="M74.4776 115.311C74.5223 115.311 70.1007 117.628 66.7807 116.719C63.6469 115.863 61.5701 111.803 61.652 111.796C62.977 111.535 63.3566 109.711 63.3268 101.89L63.9298 102.009L73.9938 103.998C73.9938 103.998 73.763 107.171 73.7556 110.157C73.7481 112.667 73.9044 115.043 74.4776 115.311Z" fill="#FC8975"/>
    <path opacity="0.6" d="M73.9938 103.998C73.9938 103.998 73.763 107.171 73.7556 110.157C68.1281 110.001 65.1506 104.854 63.9298 102.009L73.9938 103.998Z" fill="#C63630"/>
    <path d="M62.8876 100.907C62.8876 100.907 59.9101 96.2444 59.2253 92.2522C58.7191 89.3996 60.1707 78.8456 70.778 80.3353C72.9052 80.6246 74.9403 81.3882 76.7331 82.5697C79.0332 84.1264 82.3606 87.4854 78.6387 96.7211L77.671 99.8716L62.8876 100.907Z" fill="#163560"/>
    <path d="M118.954 304.627L113.103 304.806L106.776 305C106.776 305 92.164 288.718 83.9684 262.62C83.7749 262.009 83.5739 261.399 83.358 260.78C78.8918 247.687 69.5722 231.256 64.6741 216.39C63.8925 214.021 63.1854 211.787 62.5601 209.686C62.3591 209.009 62.1656 208.346 61.9795 207.69C59.1653 198.024 57.2833 188.11 56.3594 178.084L91.7472 178.367C91.7472 178.367 97.464 238.496 118.954 304.627Z" fill="#A6A6E2"/>
    <path d="M86.7971 157.997C86.7077 174.844 89.2684 182.076 89.2684 182.076C78.811 186.724 67.0301 187.446 56.084 184.11C55.8756 184.043 41.1964 180.684 41.1964 180.684C41.5016 179.998 44.174 168.647 44.4717 168.022C48.2755 159.829 51.1711 156.269 51.6103 153.751C52.3861 149.075 52.5338 144.315 52.0495 139.6C51.339 132.082 49.8777 124.654 47.6874 117.427C52.5929 116.31 57.3122 114.403 62.4187 112.481C63.5948 113.971 67.0636 115.46 70.1751 115.356C73.763 115.274 74.887 113.762 74.753 112.049C78.5791 114.179 81.6162 116.205 81.6162 116.205C84.8617 121.851 91.4569 127.333 91.9333 135.995C92.0449 138.162 86.7971 157.52 86.7971 157.997Z" fill="#E6F1FC"/>
    <path d="M56.3594 159.874C54.8111 162.063 51.8485 175.38 44.4494 177.056C48.2532 167.56 51.1488 163.404 51.588 160.484C52.3596 155.057 52.507 149.559 52.0272 144.098C54.4985 139.764 56.3445 136.799 56.3445 136.799C56.5381 136.099 60.2674 124.547 61.4659 134.87C62.6643 145.193 58.0864 157.423 56.3594 159.874Z" fill="#5F9AA8"/>
    <path d="M75.877 106.828C75.877 106.828 62.5452 107.052 62.5378 98.7395C62.5303 90.4274 60.8034 84.8711 69.3116 84.3795C77.8199 83.888 79.4798 87.0534 80.1572 89.8241C80.8346 92.5948 79.3384 106.56 75.877 106.828Z" fill="#FC8975"/>
    <path d="M79.7553 85.2063C77.7008 82.7112 76.145 83.2549 75.289 83.9997C72.4082 79.6947 63.3045 85.9213 63.3045 85.9213C62.7087 89.5577 60.8664 92.8731 58.0938 95.2985C58.0938 95.2985 60.5503 96.8254 66.1331 95.3357C70.5398 94.2036 73.7407 87.8876 74.9019 85.3031C75.6909 86.048 77.3658 87.6344 77.8794 89.2357C78.5494 91.351 78.8471 95.7007 80.1126 95.5517C80.0977 95.5741 82.8816 88.9527 79.7553 85.2063Z" fill="#163560"/>
    <path d="M58.5032 313.766C58.7563 316.089 58.5024 318.44 57.7589 320.656C57.7589 320.656 56.7837 325.124 61.1681 325.199C65.5525 325.273 66.6319 324.871 66.1406 322.138C65.6493 319.404 64.6965 314.69 64.6965 314.69L58.5032 313.766Z" fill="#FC8975"/>
    <path d="M135.733 122.842C135.733 122.842 126.145 128.204 122.728 129.746C121.507 130.297 119.304 131.325 117.049 132.375L113.118 134.222C112.139 134.682 111.036 134.807 109.979 134.578C108.922 134.349 107.969 133.779 107.267 132.956C102.057 126.893 88.658 113.755 74.7754 112.101H73.7779H74.7381L74.82 112.25C75.5644 114.187 83.2017 133.194 83.4399 137.209C83.6856 141.432 84.43 206.305 84.43 206.305C84.43 206.305 83.9312 209.284 89.6406 208.048C95.35 206.811 96.8462 205.56 96.8462 205.56C96.8462 205.56 91.375 165.542 92.8712 151.621C93.1121 148.629 92.9139 145.618 92.2831 142.683C100.732 147.8 110.692 150.079 110.692 150.079C113.961 148.547 117.129 146.805 120.175 144.866C123.024 142.954 125.701 140.798 128.177 138.423C131.519 135.354 137.273 127.951 137.273 127.951L135.733 122.842Z" fill="#F95750"/>
    <path d="M113.103 304.791L106.776 304.985C106.776 304.985 92.164 288.703 83.9684 262.605C83.7749 261.994 83.5739 261.384 83.358 260.765C78.8918 247.672 69.5722 231.241 64.6741 216.375C63.8926 214.006 63.1854 211.772 62.5601 209.672C62.3591 208.994 62.1656 208.331 61.9795 207.675L67.1901 203.72C67.1901 203.72 82.8221 229.044 87.6829 252.93C91.8886 273.651 108.741 298.587 113.103 304.791Z" fill="#535371"/>
    <path d="M67.7335 255.15C67.8229 266.746 67.2497 293.455 65.7609 304.471H60.126C57.0294 304.471 55.4811 304.426 55.4811 304.426C51.6922 285.225 48.9975 269.338 47.0324 255.641C45.4245 244.41 43.9953 234.787 42.8936 226.482C41.7919 218.177 41.0178 211.154 40.7424 205.255C40.6977 204.324 40.6679 203.415 40.6456 202.536C40.6233 201.657 40.6456 200.801 40.6456 199.967L71.2321 196.987C70.8302 217.313 67.6889 248.402 67.7335 255.15Z" fill="#A6A6E2"/>
    <path d="M60.126 304.471C57.0294 304.471 55.4811 304.426 55.4811 304.426C51.6922 285.225 48.9975 269.338 47.0324 255.641C45.4245 244.41 43.9953 234.787 42.8936 226.482C41.7919 218.177 41.0178 211.154 40.7424 205.255L51.9602 211.854C51.9602 211.854 44.7992 214.386 47.5311 233.52C50.263 252.655 56.3222 301.76 60.126 304.471Z" fill="#535371"/>
    <path d="M61.5701 205.061C61.5701 205.061 59.4114 212.852 51.9602 211.854C44.5089 210.856 33.909 206.387 33.909 206.387C33.909 206.387 37.0949 196.317 41.055 183.089C45.8488 167.076 51.789 146.43 54.5804 133.41C55.242 130.481 55.739 127.517 56.0691 124.532L62.374 112.518C62.374 112.518 71.4703 133.232 71.9616 138.445C72.4529 143.659 61.5701 205.061 61.5701 205.061Z" fill="#F95750"/>
    <path d="M88.1816 144.277C84.5937 144.746 83.2241 146.653 82.7774 149.23C82.4941 150.558 81.9638 151.822 81.2142 152.954C77.6412 153.148 69.133 153.61 61.9869 154.064L61.3989 163.449C68.6852 162.497 75.8542 160.798 82.7923 158.376C83.703 158.152 84.541 157.698 85.2264 157.058C90.3701 152.835 93.2955 145.774 93.3029 144.761C93.3104 143.748 91.7695 143.8 88.1816 144.277Z" fill="#FC8975"/>
    <path d="M61.2351 149.387C60.9076 157.833 58.9201 174.241 41.1964 183.022L41.055 183.089C45.8488 167.076 51.789 146.43 54.5804 133.41C57.8407 138.274 61.4212 144.732 61.2351 149.387Z" fill="#C63630"/>
    <path d="M62.4112 112.518C62.4112 112.518 47.2557 113.598 43.6157 121.717C39.9757 129.835 38.8144 156.842 43.4296 164.797C43.4296 164.797 49.8163 166.621 61.1086 164.506L61.5254 164.424C61.5254 164.424 65.1282 155.606 61.8976 153.863C61.8976 153.863 52.377 154.362 53.367 151.211C54.3571 148.061 62.4112 112.518 62.4112 112.518Z" fill="#F95750"/>
    <path d="M121.813 313.379C121.813 313.379 139.499 318.734 139.484 322.771C139.484 325.087 113.505 324.477 111.942 322.913C109.434 320.402 113.885 312.82 113.885 312.82L121.813 313.379Z" fill="#273271"/>
    <path d="M146.02 116.466C137.869 115.423 135.807 122.842 135.807 122.842L137.333 127.936C139.849 128.286 142.045 127.631 144.032 124.726C146.02 121.821 146.623 122.938 147.911 120.778C149.69 117.851 146.958 116.764 146.02 116.466Z" fill="#FC8975"/>
    <path d="M122.743 129.746C121.522 130.297 119.319 131.325 117.064 132.375C118.269 134.52 119.78 138.416 120.175 144.851C123.14 142.922 125.901 140.696 128.415 138.207C131.577 134.97 134.536 131.54 137.273 127.936L135.785 122.842C135.785 122.842 126.16 128.204 122.743 129.746Z" fill="#FC8975"/>
    <path d="M116.379 303.793L121.388 314.466C121.388 314.466 121.284 316.44 118.798 317.349C116.312 318.257 114.019 316.507 114.019 316.507L107.96 303.101" fill="#FC8975"/>
    <path d="M118.552 300.382L119.453 305.633C119.453 305.633 106.337 310.102 106.203 309.305C106.069 308.508 104.558 303.346 104.558 303.346L118.552 300.382Z" fill="#535371"/>
    <path d="M67.0636 302.981V308.307C67.0636 308.307 54.7441 309.253 54.7516 308.448C54.759 307.644 54.2454 303.331 54.2454 303.331L67.0636 302.981Z" fill="#535371"/>
    <path d="M67.5772 321.952C67.5772 325.169 66.6989 325.735 61.9423 325.735C57.1857 325.735 56.3073 325.169 56.3073 321.952C56.3073 318.734 57.1857 316.12 61.9423 316.12C66.6989 316.12 67.5772 318.727 67.5772 321.952Z" fill="#273271"/>
    <path d="M257.892 100.46C257.892 100.46 278.333 121.575 279.316 129.508C280.298 137.44 269.587 149.923 269.587 149.923L257.892 100.46Z" fill="url(#paint4_linear)"/>
    <path d="M249.146 319.524C249.146 319.524 248.454 330.748 246.28 330.912C245.997 330.912 235.278 330.912 235.278 330.912L221.589 330.83C221.589 330.83 221.678 327.53 225.683 326.838C229.688 326.145 236.372 323.322 238.799 318.034C241.345 312.47 249.146 319.524 249.146 319.524Z" fill="#535371"/>
    <path d="M279.628 319.524C279.628 319.524 278.936 330.748 276.762 330.912C276.472 330.912 265.753 330.912 265.753 330.912L252.027 330.86C252.027 330.86 252.161 327.53 256.158 326.838C260.155 326.145 266.855 323.322 269.281 318.034C271.827 312.47 279.628 319.524 279.628 319.524Z" fill="#535371"/>
    <path d="M233.991 199.132C233.991 199.132 237.564 222.035 250.918 262.687C264.272 303.339 266.088 320.954 266.088 320.954C268.556 321.284 271.042 321.458 273.532 321.475C275.849 321.338 278.153 321.029 280.425 320.551C280.425 320.551 280.544 276.116 274.395 255.671C268.247 235.226 273.063 181.935 273.063 181.935L233.991 199.132Z" fill="#1F285A"/>
    <path d="M227.023 183.223C227.069 208.948 228.899 234.639 232.502 260.11C238.457 302.49 236.447 320.44 236.447 320.44C236.447 320.44 241.36 321.319 243.087 321.378C244.933 321.438 250.739 320.916 250.739 320.916C250.739 320.916 259.299 278.559 256.821 257.347C254.342 236.135 268.515 184.564 268.515 184.564L227.023 183.223Z" fill="#273271"/>
    <path d="M254.699 102.456L247.955 107.454L238.211 105.398C238.345 104.512 238.955 100.825 239.573 97.4882C239.611 97.2945 239.648 97.0934 239.678 96.8998C240.176 94.0621 240.615 91.6265 240.615 91.6265L249.712 87.0832L253.106 85.3925C253.106 85.452 252.846 88.543 252.808 88.9973C252.366 93.5701 253.014 98.1825 254.699 102.456Z" fill="#FC8975"/>
    <path d="M238.896 99.9386C239.104 99.8418 252.146 95.9911 253.56 96.4603C254.975 96.9296 255.793 99.6705 255.793 99.6705L234.467 104.497C234.467 104.497 236.164 101.086 238.896 99.9386Z" fill="#E58638"/>
    <path d="M274.008 187.484C271.775 197.576 235.01 198.768 225.527 189.614C224.448 188.564 224.395 183.707 224.783 177.161C225.579 164.365 228.132 145.134 228.229 135.287C228.329 130.577 228.854 125.885 229.8 121.27C230.923 115.568 232.484 109.96 234.467 104.497C234.467 104.497 252.436 98.6874 255.793 99.6705C272.013 104.437 276.219 177.391 274.008 187.484Z" fill="#F59E35"/>
    <path d="M224.805 177.161C225.601 164.365 228.155 145.134 228.251 135.287C228.351 130.577 228.877 125.885 229.822 121.27L240.63 119.363C240.63 119.363 251.201 162.555 224.805 177.161Z" fill="#E58638"/>
    <path d="M230.656 159.33C230.866 159.847 230.901 160.418 230.754 160.957C230.608 161.495 230.288 161.971 229.844 162.309C228.296 163.493 227.291 165.407 227.648 166.778C228.006 168.148 231.37 170.502 232.576 170.1C233.782 169.698 236.142 167.865 235.889 167.121C235.636 166.376 237.497 160.641 234.631 158.429C231.765 156.216 230.656 159.33 230.656 159.33Z" fill="#FFB27D"/>
    <path d="M242.744 101.905C242.744 101.905 232.204 103.879 223.8 116.265C215.396 128.651 209.873 137.864 211.421 142.333C212.969 146.802 227.053 162.279 229.502 162.279C231.951 162.279 235.859 160.507 236.082 156.529C236.082 156.529 226.152 141.633 228.11 139.399C228.944 138.445 241.003 128.651 242.722 133.075C245.566 140.397 242.744 101.905 242.744 101.905Z" fill="url(#paint5_linear)"/>
    <path opacity="0.6" d="M252.124 89.1389C250.129 92.9672 242.677 96.2742 239.573 97.4882C239.611 97.2946 239.648 97.0935 239.678 96.8998C240.176 94.0621 240.615 91.6265 240.615 91.6265L249.712 87.0832C251.722 87.0534 252.95 87.5599 252.124 89.1389Z" fill="#C63630"/>
    <path d="M237.712 91.8277C237.712 91.8277 251.178 96.0358 253.672 87.6046C256.166 79.1733 259.575 74.0267 251.074 70.9879C242.573 67.949 239.953 70.6676 238.42 73.2819C236.886 75.8962 234.244 90.5168 237.712 91.8277Z" fill="#FC8975"/>
    <path d="M238.933 72.47C238.933 72.47 239.797 82.2866 241.821 81.8621C243.846 81.4375 245.692 81.1173 245.394 84.0965C245.097 87.0758 242.283 90.4721 248.536 90.9935C254.788 91.5148 263.773 75.3524 262.061 72.3732C257.103 63.4951 231.757 61.7224 238.933 72.47Z" fill="#163560"/>
    <defs>
        <linearGradient id="paint0_linear" x1="164.875" y1="97.6967" x2="164.875" y2="37.8289" gradientUnits="userSpaceOnUse">
            <stop stop-color="#273271"/>
            <stop offset="1" stop-color="#E6F1FC"/>
        </linearGradient>
        <linearGradient id="paint1_linear" x1="127.894" y1="98.3373" x2="164.927" y2="98.3373" gradientUnits="userSpaceOnUse">
            <stop stop-color="#2D3899"/>
            <stop offset="1" stop-color="#E6F1FC"/>
        </linearGradient>
        <linearGradient id="paint2_linear" x1="10098.1" y1="6420.46" x2="8640.74" y2="6469.79" gradientUnits="userSpaceOnUse">
            <stop stop-color="#2D3899"/>
            <stop offset="1" stop-color="#E6F1FC"/>
        </linearGradient>
        <linearGradient id="paint3_linear" x1="164.964" y1="122.156" x2="162.714" y2="90.1073" gradientUnits="userSpaceOnUse">
            <stop stop-color="#2D3899"/>
            <stop offset="1" stop-color="#E6F1FC"/>
        </linearGradient>
        <linearGradient id="paint4_linear" x1="257.892" y1="125.21" x2="279.375" y2="125.21" gradientUnits="userSpaceOnUse">
            <stop stop-color="#FCC73C"/>
            <stop offset="1" stop-color="#F59E35"/>
        </linearGradient>
        <linearGradient id="paint5_linear" x1="9480.26" y1="10809.3" x2="10928.4" y2="10809.3" gradientUnits="userSpaceOnUse">
            <stop stop-color="#FCC73C"/>
            <stop offset="1" stop-color="#F59E35"/>
        </linearGradient>
    </defs>
</svg>
