<svg width="583" height="342" viewBox="0 0 583 342" fill="none" xmlns="http://www.w3.org/2000/svg">
    <path d="M105.838 68.5875L137.981 65.9145C138.449 71.5768 137.42 77.2626 134.996 82.399C132.573 87.5354 128.841 91.9408 124.177 95.1712C119.513 98.4016 114.081 100.343 108.43 100.799C102.779 101.256 97.1072 100.211 91.9871 97.7708C86.8671 95.3306 82.4794 91.581 79.2663 86.8998C76.0532 82.2186 74.1283 76.7714 73.6855 71.1071C73.2427 65.4428 74.2978 59.7616 76.7443 54.6361C79.1908 49.5106 82.9423 45.122 87.6207 41.9126L105.838 68.5875Z" fill="#D3D3F1"/>
    <path d="M144.586 276.804H136.974C135.371 276.804 134.071 278.107 134.071 279.713V290.851C134.071 292.457 135.371 293.76 136.974 293.76H144.586C146.189 293.76 147.489 292.457 147.489 290.851V279.713C147.489 278.107 146.189 276.804 144.586 276.804Z" fill="#D3D3F1"/>
    <path d="M162.386 251.957H155.645C154.042 251.957 152.742 253.259 152.742 254.866V290.851C152.742 292.457 154.042 293.76 155.645 293.76H162.386C163.989 293.76 165.289 292.457 165.289 290.851V254.866C165.289 253.259 163.989 251.957 162.386 251.957Z" fill="#D3D3F1"/>
    <path d="M180.639 268.422H173.79C172.186 268.422 170.887 269.724 170.887 271.331V290.851C170.887 292.457 172.186 293.76 173.79 293.76H180.639C182.243 293.76 183.543 292.457 183.543 290.851V271.331C183.543 269.724 182.243 268.422 180.639 268.422Z" fill="#D3D3F1"/>
    <path d="M199.265 257.548H191.871C190.268 257.548 188.968 258.85 188.968 260.457V290.851C188.968 292.457 190.268 293.76 191.871 293.76H199.265C200.868 293.76 202.168 292.457 202.168 290.851V260.457C202.168 258.85 200.868 257.548 199.265 257.548Z" fill="#D3D3F1"/>
    <path d="M464.368 0.145554C481.605 4.30043 531.748 21.22 529.752 77.0426C529.727 77.737 529.563 78.4192 529.27 79.0491C528.978 79.6789 528.562 80.2436 528.048 80.7097C527.534 81.1758 526.931 81.534 526.277 81.763C525.622 81.992 524.928 82.0872 524.236 82.043L455.205 77.4426C454.507 77.3968 453.826 77.2093 453.202 76.8915C452.579 76.5738 452.027 76.1324 451.579 75.5942C451.131 75.056 450.797 74.4322 450.596 73.7607C450.396 73.0891 450.335 72.3839 450.415 71.6876L458.045 4.60046C458.126 3.87283 458.361 3.17087 458.734 2.54097C459.106 1.91108 459.608 1.36761 460.206 0.946509C460.803 0.525404 461.483 0.236254 462.201 0.0981802C462.918 -0.0398938 463.657 -0.0237466 464.368 0.145554Z" fill="#D3D3F1"/>
    <path d="M189.793 151.885L184.169 140.648C180.775 142.415 178.124 145.34 176.693 148.894C175.759 151.141 175.39 153.584 175.617 156.008C175.845 158.431 176.663 160.762 177.999 162.795C178.326 163.295 178.68 163.804 179.07 164.295L191.109 154.558L189.793 151.885Z" fill="#E6F1FC"/>
    <path d="M202.041 141.466C199.995 139.83 197.556 138.764 194.968 138.373C192.38 137.981 189.735 138.28 187.299 139.239L186.854 139.411L186.573 139.53C186.291 139.648 186.019 139.775 185.747 139.911H185.702L191.363 151.149L192.688 153.785L207.684 150.012C207.412 148.949 207.026 147.919 206.532 146.939C205.455 144.806 203.922 142.937 202.041 141.466Z" fill="#E6F1FC"/>
    <path d="M192.524 155.585L180.485 165.377C182.708 168.12 185.798 170.021 189.245 170.768C192.692 171.514 196.289 171.061 199.445 169.483C202.6 167.904 205.124 165.295 206.6 162.086C208.077 158.877 208.417 155.26 207.566 151.83L192.542 155.612" fill="#E6F1FC"/>
    <path d="M269.793 222.745L265.584 221.354L261.383 219.954L262.281 224.3L263.18 228.646L265.466 226.609L275.3 237.683L277.342 235.855L267.507 224.782L269.793 222.745Z" fill="#D3D3F1"/>
    <path d="M375.876 276.231H400.907C401.147 276.232 401.384 276.282 401.604 276.378C401.824 276.474 402.022 276.614 402.186 276.789C402.35 276.965 402.476 277.172 402.557 277.398C402.638 277.624 402.673 277.864 402.658 278.104C402.298 283.41 400.423 288.5 397.256 292.767C394.088 297.033 389.763 300.297 384.795 302.167C379.827 304.038 374.428 304.436 369.24 303.315C364.053 302.194 359.297 299.601 355.54 295.846C351.783 292.09 349.183 287.33 348.052 282.134C346.921 276.939 347.305 271.526 349.159 266.544C351.014 261.561 354.259 257.218 358.509 254.034C362.759 250.849 367.834 248.957 373.127 248.584C373.296 248.574 373.465 248.598 373.625 248.656C373.784 248.713 373.93 248.803 374.053 248.918C374.177 249.034 374.276 249.173 374.345 249.328C374.413 249.483 374.45 249.651 374.452 249.82L375.051 275.422C375.055 275.638 375.145 275.844 375.299 275.995C375.453 276.147 375.66 276.231 375.876 276.231Z" fill="#F6F6FC"/>
    <path d="M382.499 268.567L381.946 242.747C381.946 242.506 382.041 242.274 382.211 242.104C382.382 241.933 382.612 241.838 382.853 241.838C389.912 242.06 396.651 244.845 401.814 249.675C406.756 254.605 409.717 261.183 410.133 268.158C410.141 268.282 410.123 268.406 410.081 268.523C410.038 268.639 409.973 268.746 409.888 268.836C409.803 268.927 409.7 268.999 409.586 269.048C409.473 269.097 409.35 269.122 409.226 269.122L383.434 269.522C383.308 269.526 383.183 269.503 383.067 269.457C382.951 269.41 382.845 269.339 382.758 269.25C382.67 269.16 382.601 269.053 382.557 268.935C382.512 268.818 382.493 268.693 382.499 268.567Z" fill="#F6F6FC"/>
    <path d="M316.625 133.393L376.067 168.714C376.876 169.196 377.575 169.842 378.121 170.61C378.667 171.379 379.047 172.253 379.238 173.176C379.428 174.1 379.424 175.053 379.227 175.976C379.029 176.898 378.642 177.769 378.09 178.533C370.667 188.77 360.933 197.103 349.683 202.851C338.433 208.599 325.986 211.6 313.359 211.608C269.485 211.608 233.386 175.423 233.386 131.456C233.386 90.4529 264.785 56.1501 304.731 51.777C305.67 51.6705 306.622 51.7618 307.524 52.0452C308.426 52.3286 309.259 52.7977 309.97 53.4226C310.68 54.0475 311.253 54.8142 311.651 55.6738C312.048 56.5333 312.262 57.4666 312.279 58.4139L313.304 127.665C313.321 128.825 313.636 129.961 314.217 130.964C314.799 131.967 315.628 132.803 316.625 133.393Z" fill="url(#paint0_linear)"/>
    <path opacity="0.3" d="M238.92 102.381L279.111 98.8444L269.939 64.2961C269.939 64.2961 248.981 78.1882 238.92 102.381Z" fill="black"/>
    <path d="M441.315 162.877L434.184 153.785C434.184 153.785 422.49 162.786 421.174 162.086C413.917 158.194 408.056 151.076 406.078 148.448C406.006 147.985 405.942 147.439 405.888 146.784C405.851 146.225 405.906 145.663 406.051 145.121C406.211 144.443 406.464 143.791 406.804 143.184C407.167 142.657 406.704 141.957 406.16 142.148C405.615 142.339 404.563 143.766 404.2 145.784C403.837 147.803 402.268 144.975 401.678 143.966C401.088 142.957 399.111 139.857 398.657 139.793C397.986 139.693 397.75 140.393 398.367 141.402C398.984 142.411 400.607 145.575 400.054 145.857C399.501 146.139 396.57 140.884 396.57 140.884C396.57 140.884 396.126 139.657 395.473 139.975C394.293 140.538 397.822 145.893 398.194 146.393C398.439 146.748 397.84 147.075 397.605 146.694C397.369 146.312 394.792 141.375 393.595 141.939C392.687 142.366 396.461 146.366 396.425 147.684C396.389 149.003 393.858 144.357 392.996 144.802C392.669 144.966 392.451 145.13 394.293 147.594C395.691 149.31 397.181 150.949 398.757 152.503C398.757 152.503 415.74 179.132 427.788 172.159C440.453 164.786 441.315 162.877 441.315 162.877Z" fill="#EB996E"/>
    <path d="M575.849 297.296C575.849 297.296 574.878 306.234 576.684 306.997C577.727 307.434 582.381 295.687 581.982 294.687C581.338 293.087 577.446 293.942 577.446 293.942L575.849 297.296Z" fill="#273271"/>
    <path d="M570.814 295.105L576.003 297.296C576.337 297.29 576.662 297.186 576.937 296.997C577.213 296.808 577.427 296.542 577.555 296.233C577.721 295.859 577.798 295.452 577.781 295.044C577.763 294.635 577.652 294.236 577.455 293.878L571.013 290.987" fill="#FC8975"/>
    <path d="M573.2 289.405L568.782 297.296C554.583 296.651 528.528 286.241 513.304 281.686C503.768 278.818 495.464 272.833 489.716 264.685L456.148 217.19C455.666 216.507 455.424 215.683 455.46 214.847C455.496 214.01 455.808 213.21 456.348 212.572L473.486 192.388C474.005 191.779 474.705 191.352 475.483 191.169C476.261 190.985 477.078 191.056 477.813 191.37C484.481 194.206 489.807 200.925 493.155 207.653C493.916 209.206 494.281 210.924 494.216 212.653L494.134 215.435C494.111 216.172 494.303 216.899 494.688 217.526L516.607 253.138C518.23 256.202 520.834 258.629 524 260.03L573.2 289.405Z" fill="#273271"/>
    <path d="M568.355 297.197L571.286 297.869L575.014 290.642L572.61 288.987L568.355 297.197Z" fill="#75A1E9"/>
    <path d="M522.159 331.972C522.159 331.972 517.133 339.418 518.376 340.936C519.083 341.845 528.682 333.618 528.8 332.545C528.972 330.836 525.171 329.763 525.171 329.763L522.159 331.972Z" fill="#273271"/>
    <path d="M518.711 327.717L522.268 332.108C522.567 332.258 522.903 332.318 523.235 332.279C523.567 332.24 523.88 332.105 524.137 331.89C524.457 331.637 524.715 331.314 524.889 330.945C525.064 330.576 525.151 330.171 525.144 329.763L520.807 324.189" fill="#FC8975"/>
    <path d="M523.474 323.799L515.881 328.699C503.633 321.426 485.47 300.042 474.148 288.878C467.04 281.863 462.485 272.663 461.211 262.748L453.744 205.026C453.639 204.196 453.811 203.354 454.235 202.633C454.659 201.912 455.309 201.353 456.085 201.043L480.653 191.252C481.397 190.956 482.215 190.905 482.99 191.106C483.764 191.307 484.455 191.75 484.962 192.37C489.498 198.007 491.086 206.453 490.905 213.963C490.853 215.693 490.373 217.383 489.507 218.881L488.137 221.3C487.773 221.94 487.603 222.673 487.648 223.409L490.369 265.158C490.369 268.627 491.539 271.995 493.69 274.713L523.474 323.799Z" fill="#273271"/>
    <path d="M515.563 328.408L517.84 330.381L524.518 325.744L523.157 323.153L515.563 328.408Z" fill="#75A1E9"/>
    <path d="M487.829 198.116C487.982 198.302 488.116 198.503 488.228 198.716C488.473 199.116 488.836 199.707 489.271 200.534C490.553 202.726 491.536 205.081 492.193 207.535C492.634 209.253 492.73 211.043 492.474 212.799C492.051 214.782 491.303 216.68 490.26 218.418C489.752 219.36 489.322 220.342 488.972 221.354C488.631 222.415 488.403 223.509 488.292 224.618C488.083 226.968 488.083 229.332 488.292 231.682C488.927 241.41 489.498 250.202 489.916 256.63C490.097 259.785 490.251 262.357 490.36 264.194C490.36 265.049 490.433 265.74 490.451 266.249C490.475 266.488 490.475 266.728 490.451 266.967C490.398 266.734 490.368 266.497 490.36 266.258C490.36 265.74 490.251 265.058 490.17 264.203C490.034 262.385 489.834 259.803 489.58 256.657C489.126 250.229 488.509 241.438 487.82 231.719C487.607 229.338 487.607 226.944 487.82 224.564C487.94 223.423 488.181 222.299 488.537 221.209C488.909 220.169 489.367 219.163 489.907 218.199C490.929 216.511 491.673 214.669 492.111 212.744C492.379 211.041 492.308 209.301 491.902 207.626C491.285 205.192 490.371 202.844 489.181 200.634L488.219 198.816C488.073 198.592 487.943 198.358 487.829 198.116Z" fill="#4A578E"/>
    <path d="M472.715 135.384C474.877 135.243 477.045 135.56 479.078 136.315C481.11 137.07 482.96 138.246 484.509 139.766C491.648 147.948 485.706 158.486 482.785 167.395L482.322 175.86C482.885 181.315 485.67 186.088 489.462 193.916C489.679 194.363 489.793 194.855 489.794 195.353C489.795 195.851 489.683 196.342 489.468 196.791C489.252 197.24 488.938 197.634 488.549 197.943C488.16 198.253 487.706 198.471 487.221 198.58L455.885 205.526C455.451 205.621 455.002 205.626 454.565 205.542C454.128 205.459 453.713 205.287 453.344 205.038C452.976 204.789 452.661 204.468 452.419 204.094C452.178 203.72 452.014 203.301 451.939 202.862L448.727 183.769L443.61 167.741L437.26 171.796L423.86 155.985L436.452 146.094C442.518 140.275 450.444 136.797 458.825 136.275" fill="url(#paint1_linear)"/>
    <path style="mix-blend-mode:multiply" opacity="0.75" d="M473.576 146.994L449.272 164.413L459.133 184.888L463.116 182.078C463.116 182.078 476.724 169.995 478.911 166.913C480.357 164.782 481.488 162.451 482.268 159.995L473.576 146.994Z" fill="url(#paint2_linear)"/>
    <path d="M361.932 140.293L422.209 178.105C422.871 178.522 423.667 178.67 424.435 178.518C425.202 178.365 425.883 177.925 426.337 177.287C429.548 172.741 436.008 161.149 437.015 140.357C437.033 139.95 436.971 139.543 436.831 139.16C436.691 138.778 436.477 138.427 436.202 138.127C435.926 137.828 435.593 137.586 435.224 137.417C434.854 137.247 434.454 137.152 434.048 137.138L363.674 134.556C362.987 134.522 362.309 134.719 361.747 135.115C361.184 135.511 360.77 136.085 360.57 136.744C360.37 137.403 360.395 138.11 360.642 138.753C360.889 139.396 361.343 139.938 361.932 140.293Z" fill="#F8443C"/>
    <path d="M409.09 160.649C409.09 159.24 404.917 155.194 405.869 154.64C407.103 153.976 410.006 159.104 410.288 159.522C410.569 159.94 411.195 159.522 410.886 159.167C410.505 158.649 406.559 153.103 407.775 152.43C408.446 152.067 408.963 153.34 408.963 153.34C408.963 153.34 412.275 158.794 412.837 158.485C413.4 158.176 411.567 154.849 410.868 153.794C410.17 152.739 410.388 151.976 411.104 152.048C411.585 152.094 413.826 155.294 414.461 156.358C415.096 157.422 416.892 160.386 417.183 158.176C417.187 158.143 417.187 158.109 417.183 158.076C417.409 155.903 418.308 154.303 418.879 154.012C419.01 153.961 419.152 153.948 419.29 153.973C419.428 153.999 419.556 154.062 419.659 154.157C419.763 154.251 419.838 154.373 419.877 154.508C419.915 154.643 419.915 154.786 419.877 154.921C419.869 155.028 419.835 155.131 419.777 155.221C419.777 155.221 419.732 155.321 419.705 155.367C419.472 156.079 419.314 156.813 419.233 157.558C419.141 158.224 419.162 158.9 419.297 159.558C419.46 160.322 419.623 160.967 419.777 161.504C422.499 164.231 430.619 171.805 439.882 175.278C441.551 175.905 457.682 163.458 457.682 163.458L464.032 174.85C462.318 176.496 457.491 180.233 449.244 186.251C438.829 193.843 412.565 166.441 412.565 166.441L412.32 166.222C410.387 164.463 408.552 162.6 406.822 160.64C404.79 158.113 405.008 157.913 405.343 157.722C406.26 157.222 409.163 162.067 409.09 160.649Z" fill="#FFBE9D"/>
    <path d="M483.647 139.829C483.647 139.829 491.213 147.421 481.723 161.831C475.891 170.581 468.1 177.844 458.97 183.042L449.299 164.413C457.486 159.94 465.102 154.487 471.98 148.176L483.638 139.811L483.647 139.829Z" fill="url(#paint3_linear)"/>
    <path d="M473.34 136.829V112.8C473.331 110.472 472.759 108.181 471.673 106.123C470.588 104.065 469.022 102.3 467.108 100.981L465.393 99.7988C464.719 99.377 463.95 99.1333 463.157 99.0903C462.363 99.0474 461.572 99.2067 460.857 99.5534L457.473 101.172C455.955 101.904 454.668 103.042 453.754 104.46C452.84 105.878 452.335 107.521 452.293 109.209C452.193 113.6 452.12 119.51 452.293 122.846C452.61 128.683 458.471 129.356 458.471 129.356L458.063 135.956C457.928 137.977 458.593 139.969 459.914 141.501C461.236 143.033 463.107 143.981 465.121 144.139C466.143 144.214 467.169 144.083 468.139 143.754C469.11 143.425 470.005 142.904 470.771 142.223C471.537 141.542 472.159 140.713 472.601 139.787C473.042 138.86 473.294 137.855 473.34 136.829Z" fill="#FFBE9D"/>
    <path d="M458.435 129.356C461.203 129.26 463.887 128.377 466.173 126.81C466.173 126.81 464.359 131.074 458.553 130.792L458.435 129.356Z" fill="#EB996E"/>
    <path d="M468.215 99.0989C471.943 101.044 474.284 103.154 476.906 103.545C479.542 103.78 482.189 103.865 484.835 103.799C487.484 103.89 490.279 104.354 492.365 105.936C494.452 107.518 495.785 110.482 494.788 112.918C496.571 112.915 498.328 113.347 499.909 114.175C501.489 115.003 502.845 116.204 503.86 117.673C504.84 119.176 505.327 120.948 505.25 122.742C505.174 124.536 504.538 126.261 503.433 127.674C502.327 128.974 500.802 129.874 499.804 131.247C499.142 132.156 498.734 133.174 498.09 134.065C497.171 135.295 495.869 136.183 494.391 136.59C492.913 136.996 491.341 136.898 489.925 136.311C486.758 134.92 484.799 131.165 481.379 130.647C479.564 130.365 477.75 131.111 475.863 130.974C472.987 130.756 470.646 128.374 469.584 125.692C468.523 123.01 468.505 120.037 468.496 117.155" fill="#F42A73"/>
    <path d="M453.318 102.09C451.932 103.621 451.085 105.564 450.904 107.622C450.724 109.681 451.221 111.742 452.32 113.491C453.511 111.76 454.429 109.856 455.042 107.845C455.342 106.838 455.416 105.777 455.259 104.738C455.102 103.7 454.718 102.708 454.134 101.835" fill="#F42A73"/>
    <path d="M453.354 102.045C453.282 105.736 455.985 109.136 459.405 110.536C459.887 110.764 460.416 110.87 460.948 110.845C461.217 110.829 461.475 110.735 461.691 110.573C461.908 110.412 462.072 110.19 462.163 109.936C462.2 109.81 462.209 109.678 462.189 109.549C462.17 109.419 462.123 109.295 462.051 109.185C461.98 109.076 461.886 108.983 461.775 108.913C461.664 108.844 461.54 108.799 461.41 108.781C462.673 109.853 464.044 110.789 465.502 111.573C465.82 111.794 466.178 111.95 466.557 112.031C466.935 112.113 467.326 112.117 467.707 112.045C468.441 111.8 468.822 110.654 468.178 110.227C469.24 111.445 469.993 114.7 471.372 115.6C471.798 115.882 472.76 113.982 473.241 113.782C473.722 113.582 474.003 112.873 474.084 112.209C474.411 109.9 474.71 107.472 473.849 105.299C473.139 103.612 472.075 102.097 470.729 100.859C469.382 99.6212 467.785 98.6889 466.046 98.1261C463.805 97.5169 460.984 97.8079 458.68 98.1897C457.507 98.474 456.406 99.0011 455.448 99.737C454.49 100.473 453.697 101.401 453.118 102.463" fill="#F42A73"/>
    <path d="M471.844 113.645C472.123 113.377 472.475 113.197 472.856 113.13C473.237 113.062 473.63 113.108 473.985 113.264C474.338 113.436 474.645 113.691 474.878 114.008C475.112 114.324 475.266 114.693 475.327 115.082C475.44 115.856 475.258 116.644 474.819 117.291C474.646 117.614 474.381 117.879 474.059 118.052C473.736 118.225 473.369 118.299 473.005 118.264" fill="#FFBE9D"/>
    <path d="M490.632 115.636C490.632 115.636 491.249 115.464 492.274 114.973C493.731 114.3 494.983 113.252 495.903 111.936C496.52 111.032 496.903 109.989 497.019 108.9C497.159 107.648 496.929 106.384 496.357 105.263C495.715 104.04 494.616 103.121 493.3 102.708C491.873 102.271 490.36 102.202 488.9 102.508C485.878 103.054 483.111 104.508 480.281 104.426C477.856 104.248 475.483 103.632 473.277 102.608C471.77 101.996 470.296 101.307 468.859 100.544C468.351 100.281 467.952 100.063 467.707 99.9079C467.462 99.7534 467.316 99.6625 467.325 99.6443C467.473 99.6869 467.616 99.7448 467.752 99.817L468.94 100.381C469.984 100.872 471.49 101.563 473.395 102.299C475.574 103.264 477.904 103.84 480.281 103.999C483.003 104.072 485.724 102.626 488.818 102.054C490.354 101.732 491.946 101.807 493.445 102.272C494.151 102.498 494.805 102.862 495.37 103.342C495.936 103.823 496.4 104.411 496.738 105.072C497.294 106.186 497.535 107.432 497.436 108.673C497.337 109.915 496.901 111.106 496.176 112.118C494.92 113.812 493.124 115.025 491.086 115.555C490.94 115.604 490.787 115.632 490.632 115.636Z" fill="#F42A73"/>
    <path d="M472.896 116.8C472.896 116.727 473.141 116.691 473.404 116.446C473.584 116.315 473.719 116.13 473.788 115.919C473.857 115.707 473.857 115.478 473.789 115.266C473.72 115.054 473.586 114.869 473.406 114.738C473.226 114.607 473.01 114.536 472.787 114.536C472.433 114.536 472.206 114.618 472.161 114.536C472.116 114.455 472.315 114.236 472.778 114.182C473.087 114.153 473.397 114.227 473.661 114.391C473.924 114.555 474.127 114.801 474.239 115.091C474.322 115.392 474.304 115.711 474.187 116.001C474.071 116.29 473.862 116.533 473.594 116.691C473.186 116.955 472.887 116.855 472.896 116.8Z" fill="#EB996E"/>
    <path d="M491.884 99.6625C491.884 99.6625 491.521 99.5352 490.85 99.4625C489.9 99.3877 488.945 99.5404 488.065 99.908C486.766 100.5 485.519 101.2 484.336 101.999C482.806 102.957 481.05 103.493 479.247 103.554C477.451 103.585 475.666 103.277 473.985 102.645C472.623 102.159 471.308 101.55 470.056 100.826C468.986 100.217 468.151 99.6716 467.58 99.2897C467.27 99.1092 466.981 98.8958 466.718 98.6533C467.056 98.7758 467.379 98.9375 467.679 99.1352C468.278 99.4625 469.14 99.9625 470.22 100.535C472.352 101.644 475.509 103.181 479.228 103.054C480.957 102.999 482.643 102.494 484.118 101.59C485.332 100.799 486.617 100.123 487.956 99.5716C488.885 99.2101 489.893 99.1003 490.877 99.2534C491.14 99.3013 491.396 99.3806 491.639 99.4897C491.812 99.5988 491.893 99.6443 491.884 99.6625Z" fill="#F42A73"/>
    <path d="M5.83349 214.781C5.83349 214.781 5.73369 223.763 3.85572 224.309C2.77611 224.618 -0.462718 212.399 0.0544062 211.453C0.87999 209.944 4.63594 211.253 4.63594 211.253L5.83349 214.781Z" fill="#273271"/>
    <path d="M11.0864 213.244L5.64297 214.826C5.31192 214.779 5.00185 214.636 4.75055 214.414C4.49926 214.193 4.31759 213.904 4.22769 213.581C4.10864 213.19 4.08108 212.776 4.14716 212.372C4.21324 211.969 4.37117 211.586 4.60873 211.253L11.3767 209.108" fill="#FC8975"/>
    <path d="M9.38985 207.289L12.8464 215.645C27.0174 216.699 54.1256 209.444 69.7845 206.735C79.6057 205.03 88.5743 200.079 95.2596 192.67L134.198 149.494C134.758 148.872 135.094 148.082 135.155 147.247C135.216 146.412 134.997 145.581 134.534 144.884L119.909 122.81C119.467 122.142 118.824 121.633 118.074 121.356C117.323 121.08 116.504 121.051 115.736 121.273C108.768 123.301 102.69 129.347 98.571 135.629C97.6367 137.082 97.0728 138.743 96.9289 140.466L96.684 143.239C96.6202 143.973 96.3426 144.671 95.8856 145.248L69.9024 177.978C67.9313 180.833 65.0532 182.936 61.7373 183.942L9.38985 207.289Z" fill="#273271"/>
    <path d="M13.2819 215.608L10.288 215.926L7.4393 208.308L10.0249 206.953L13.2819 215.608Z" fill="#75A1E9"/>
    <path d="M55.0419 255.629C55.0419 255.629 59.1517 263.621 57.7636 264.976C56.9471 265.758 48.3828 256.484 48.4009 255.411C48.4009 253.684 52.3565 253.075 52.3565 253.075L55.0419 255.629Z" fill="#273271"/>
    <path d="M58.9702 251.838L54.924 255.775C54.6118 255.886 54.2743 255.903 53.9523 255.826C53.6303 255.748 53.3376 255.579 53.1095 255.339C52.8204 255.049 52.6019 254.697 52.4713 254.309C52.3407 253.921 52.3014 253.508 52.3565 253.102L57.3281 248.083" fill="#FC8975"/>
    <path d="M54.6881 247.356L61.6919 253.12C74.7017 247.402 95.2596 228.273 107.843 218.572C115.726 212.458 121.338 203.873 123.783 194.188L138.018 137.756C138.228 136.95 138.163 136.096 137.835 135.33C137.506 134.565 136.932 133.931 136.203 133.529L112.969 120.882C112.265 120.501 111.458 120.355 110.665 120.464C109.872 120.574 109.135 120.933 108.56 121.491C103.361 126.546 100.812 134.738 100.104 142.22C99.9524 143.943 100.23 145.677 100.912 147.266L101.982 149.83C102.272 150.509 102.354 151.259 102.218 151.985L94.561 193.115C94.1541 196.559 92.597 199.763 90.1428 202.207L54.6881 247.356Z" fill="#273271"/>
    <path d="M62.0094 252.875L59.5145 254.557L53.4361 249.156L55.0872 246.756L62.0094 252.875Z" fill="#75A1E9"/>
    <path d="M104.949 126.783C104.782 126.953 104.627 127.136 104.486 127.328C104.196 127.701 103.769 128.238 103.243 128.974C101.71 130.998 100.453 133.218 99.5054 135.575C98.8584 137.226 98.5499 138.992 98.5982 140.766C98.7832 142.785 99.2981 144.76 100.122 146.612C100.506 147.607 100.809 148.632 101.03 149.676C101.241 150.769 101.339 151.881 101.32 152.994C101.23 155.356 100.927 157.706 100.413 160.013C98.5982 169.595 97.0287 178.26 95.8765 184.56C95.3231 187.679 94.8695 190.215 94.5429 192.025C94.4068 192.87 94.2888 193.543 94.2072 194.052C94.1551 194.288 94.1277 194.529 94.1255 194.77C94.1975 194.541 94.2551 194.307 94.2979 194.07C94.4068 193.57 94.552 192.897 94.7243 192.052C95.0872 190.234 95.6316 187.724 96.2031 184.624C97.4188 178.26 99.07 169.641 100.903 160.077C101.419 157.742 101.723 155.365 101.81 152.976C101.829 151.828 101.722 150.682 101.492 149.558C101.258 148.49 100.936 147.444 100.531 146.43C99.7079 144.624 99.1869 142.695 98.9883 140.72C98.9236 138.998 99.2012 137.28 99.8048 135.665C100.735 133.335 101.951 131.13 103.425 129.101L104.595 127.41C104.735 127.214 104.853 127.004 104.949 126.783Z" fill="#4A578E"/>
    <path d="M399.274 70.1511L371.821 55.4317L379.052 33.9209L412.456 51.2586L399.274 70.1511Z" fill="#CFE0F5"/>
    <path d="M412.456 51.2587L379.052 33.9209L402.867 28.8296L412.456 51.2587Z" fill="#CFE0F5"/>
    <path d="M409.921 47.7827L383.172 33.906L371.477 56.5452L398.226 70.4219L409.921 47.7827Z" fill="#FFF4E1"/>
    <path d="M379.052 33.9209L367.802 55.6954L389.73 54.2407L379.052 33.9209Z" fill="#E6F1FC"/>
    <path d="M412.456 51.2585L401.215 73.0239L389.73 54.2406L412.456 51.2585Z" fill="#E6F1FC"/>
    <g style="mix-blend-mode:multiply">
        <path d="M401.215 73.0241L367.802 55.6954L393.214 47.6221L401.215 73.0241Z" fill="#E6F1FC"/>
    </g>
    <path d="M401.215 73.024L367.802 55.6954L391.617 50.595L401.215 73.024Z" fill="#E6F1FC"/>
    <path d="M294.525 302.242L273.35 312.47L263.479 298.487L288.891 285.777L294.525 302.242Z" fill="#CFE0F5"/>
    <path d="M288.891 285.777L263.479 298.488L270.973 281.659L288.891 285.777Z" fill="#CFE0F5"/>
    <path d="M285.656 285.78L265.304 295.957L273.88 313.179L294.231 303.002L285.656 285.78Z" fill="#FFF4E1"/>
    <path d="M263.479 298.488L271.726 315.043L280.599 300.997L263.479 298.488Z" fill="#E6F1FC"/>
    <path d="M288.891 285.777L297.137 302.333L280.599 300.997L288.891 285.777Z" fill="#E6F1FC"/>
    <g style="mix-blend-mode:multiply">
        <path d="M297.137 302.333L271.726 315.043L278.122 295.924L297.137 302.333Z" fill="#E6F1FC"/>
    </g>
    <path d="M297.137 302.333L271.726 315.043L279.22 298.224L297.137 302.333Z" fill="#E6F1FC"/>
    <path d="M218.262 53.8315C218.262 53.8315 231.871 45.2854 235.028 47.8674C237.141 49.7567 238.824 52.079 239.963 54.677L225.33 60.5048L218.262 53.8315Z" fill="#FFBE9D"/>
    <path d="M161.243 61.8504L191.898 65.6871L220.449 49.9858L227.507 60.2048L191.744 83.2885L155.418 78.7245L161.243 61.8504Z" fill="#E8505B"/>
    <g opacity="0.3">
        <path opacity="0.3" d="M161.243 61.8504L191.898 65.6871L220.449 49.9858L227.507 60.2048L191.744 83.2885L155.418 78.7245L161.243 61.8504Z" fill="url(#paint4_linear)"/>
    </g>
    <path d="M191.236 95.3349C191.535 78.0608 197.006 24.2655 252.692 14.4193C253.323 14.3063 253.97 14.321 254.596 14.4624C255.221 14.6038 255.812 14.8691 256.333 15.2426C256.855 15.6162 257.297 16.0905 257.633 16.6377C257.969 17.1848 258.192 17.7938 258.29 18.4287L268.623 87.7979C268.716 88.4375 268.678 89.0893 268.513 89.714C268.348 90.3388 268.058 90.9235 267.661 91.4332C267.265 91.9428 266.769 92.3667 266.205 92.6794C265.641 92.9922 265.019 93.1872 264.377 93.2529L196.498 100.153C195.829 100.221 195.152 100.147 194.514 99.9348C193.875 99.7229 193.288 99.3782 192.792 98.9234C192.295 98.4686 191.9 97.9139 191.632 97.2955C191.364 96.6772 191.229 96.009 191.236 95.3349Z" fill="#1F285A"/>
    <path d="M236.725 72.9513C238.789 72.1685 240.809 71.2732 242.776 70.2693C245.162 68.9056 245.044 68.6874 244.854 68.451C244.318 67.76 240.562 70.6784 241.025 69.5784C241.488 68.4783 246.006 66.5508 245.416 65.8508C244.654 64.9416 240.78 68.0782 240.435 68.3146C240.091 68.551 239.746 68.051 240.063 67.8509C240.535 67.5691 245.352 64.4234 244.599 63.5233C244.182 63.0233 243.375 63.8779 243.375 63.8779C243.375 63.8779 239.074 67.16 238.739 66.7236C238.403 66.2872 240.853 64.2688 241.733 63.6506C242.613 63.0324 242.64 62.3687 242.096 62.205C241.696 62.0868 238.975 63.9143 238.122 64.5507C237.269 65.1871 234.956 66.96 235.4 65.1325C235.845 63.3051 235.536 61.7505 235.164 61.3868C234.792 61.0231 234.157 61.3868 234.257 62.005C234.308 62.6374 234.271 63.2737 234.148 63.8961C234.071 64.3989 233.908 64.8847 233.667 65.3326C233.468 65.7235 233.268 66.0599 233.087 66.3599L231.191 69.5693L233.586 74.1151L236.725 72.9513Z" fill="#FFBE9D"/>
    <path d="M155.618 36.903C155.87 35.8561 155.807 34.7579 155.438 33.7467C155.068 32.7355 154.408 31.8566 153.54 31.2207C152.655 30.6157 151.611 30.286 150.539 30.2731C149.468 30.2602 148.416 30.5645 147.516 31.148C146.641 31.7713 145.974 32.6439 145.6 33.6523C145.226 34.6608 145.164 35.7585 145.421 36.803C145.717 37.8351 146.32 38.752 147.15 39.4311C147.98 40.1102 148.997 40.5192 150.066 40.6033C151.88 40.7124 153.586 39.8578 155.201 39.0305" fill="#273271"/>
    <path d="M165.425 31.6479L149.585 61.3958L162.023 68.7782L166.223 61.7231C166.223 61.7231 170.27 65.0324 173.672 61.4321C175.84 59.0956 186.663 38.1848 186.663 38.1848L165.425 31.6479Z" fill="#FFBE9D"/>
    <path d="M187.988 42.7308C186.174 44.0581 180.376 45.14 180.376 45.14L175.904 49.0949C176.167 46.8493 172.275 45.1673 170.814 48.0312C169.353 50.8951 171.803 52.1679 171.803 52.1679C169 53.9044 166.922 55.4045 163.511 56.6592C159.818 58.0138 158.376 57.5683 155.827 56.2864L153.05 54.8135C153.05 54.8135 149.875 47.0311 157.641 35.0756C165.407 23.1201 174.534 29.4933 178.861 31.2662C179.632 31.5844 193.994 38.2668 187.988 42.7308Z" fill="#273271"/>
    <path d="M175.904 49.0948C175.904 49.0948 174.634 53.186 172.701 52.6405C172.052 52.386 171.467 51.9919 170.986 51.4859L167.412 54.468C167.412 54.468 163.393 59.3956 166.223 61.7413C168.836 63.9051 172.093 65.1234 174.851 60.623L176.711 57.2773C176.711 57.2773 174.107 56.5681 174.443 55.3862C174.779 54.2043 178.489 46.7673 178.489 46.7673L175.904 49.0948Z" fill="#273271"/>
    <path d="M181.447 39.3668C181.686 39.4973 181.916 39.6431 182.136 39.8032C182.761 40.1593 183.468 40.3443 184.187 40.3396C184.714 40.3429 185.234 40.2201 185.704 39.9813C186.175 39.7426 186.581 39.3947 186.89 38.9668C187.257 38.4803 187.469 37.894 187.498 37.2848C187.512 36.6276 187.353 35.9783 187.035 35.4028C186.363 34.2843 185.334 33.4258 184.114 32.9663C183.098 32.585 182.055 32.2811 180.993 32.0571C179.989 31.9121 179.015 31.6051 178.108 31.1479C178.379 31.1822 178.646 31.24 178.907 31.3207C179.406 31.448 180.15 31.6025 181.066 31.7753C182.162 31.9783 183.237 32.2827 184.277 32.6844C185.606 33.1545 186.727 34.0782 187.444 35.2937C187.812 35.9403 187.991 36.6775 187.961 37.4212C187.921 38.1185 187.671 38.7874 187.244 39.3395C186.894 39.8075 186.437 40.1841 185.911 40.4373C185.385 40.6905 184.806 40.813 184.223 40.7942C183.454 40.7704 182.71 40.5206 182.082 40.0759C181.601 39.6395 181.447 39.385 181.447 39.3668Z" fill="#352E72"/>
    <path d="M154.711 40.0577C154.715 39.4097 154.86 38.7704 155.137 38.1848C155.33 37.6244 155.579 37.0851 155.881 36.5756V36.6938C155.963 36.6938 155.881 36.6938 155.881 36.6938C155.881 36.6938 155.827 36.6938 155.808 36.6483C155.79 36.6028 155.808 36.4574 156.017 36.5028H156.072V36.6119C155.973 37.1944 155.812 37.7644 155.591 38.3121C155.237 39.3212 154.838 40.1031 154.711 40.0577Z" fill="#E8505B"/>
    <path d="M174.507 48.8221C174.507 48.8766 174.234 48.7402 173.844 48.6766C173.605 48.6299 173.357 48.6437 173.125 48.7167C172.892 48.7897 172.681 48.9197 172.511 49.0948C172.346 49.2621 172.24 49.4785 172.209 49.7114C172.178 49.9443 172.223 50.1811 172.338 50.3858C172.52 50.7222 172.765 50.8313 172.746 50.9041C172.728 50.9768 172.393 50.9677 172.066 50.5768C171.88 50.3442 171.774 50.0567 171.767 49.7585C171.767 49.3888 171.91 49.0336 172.166 48.7675C172.386 48.5323 172.671 48.3679 172.984 48.295C173.297 48.2222 173.625 48.2442 173.926 48.3584C174.37 48.5311 174.552 48.7766 174.507 48.8221Z" fill="#EB996E"/>
    <path d="M115.391 87.5434L108.65 106.799L101.393 119.437C101.09 120.02 100.911 120.659 100.865 121.315C100.82 121.971 100.909 122.629 101.128 123.248C101.346 123.868 101.69 124.436 102.136 124.917C102.583 125.399 103.123 125.783 103.724 126.046L137.646 140.993C138.672 141.446 139.825 141.525 140.903 141.216C141.982 140.907 142.919 140.23 143.552 139.302L149.839 130.056C151.897 127.443 153.596 124.566 154.892 121.501C160.39 108.309 161.769 98.6715 164.518 93.1074C167.857 93.5257 196.679 96.2259 200.59 95.5804C207.793 94.3894 234.702 73.7604 234.702 73.7604C232.47 68.9055 231.699 68.7328 231.699 68.7328C231.699 68.7328 202.232 79.2882 200.181 79.9246C198.131 80.561 172.102 70.7329 172.102 70.7329C166.523 68.2145 159.229 63.1141 151.853 59.7502C148.179 58.0831 144.048 57.725 140.143 58.7354C136.239 59.7459 132.796 62.0641 130.388 65.3052C126.568 70.442 121.47 75.6151 115.391 87.5434Z" fill="url(#paint5_linear)"/>
    <defs>
        <linearGradient id="paint0_linear" x1="245.824" y1="160.595" x2="348.391" y2="116.595" gradientUnits="userSpaceOnUse">
            <stop stop-color="#FDC7C5"/>
            <stop offset="0.36" stop-color="#FDCAC6"/>
            <stop offset="0.64" stop-color="#FED4C7"/>
            <stop offset="0.89" stop-color="#FEE4CA"/>
            <stop offset="1" stop-color="#FFEECC"/>
        </linearGradient>
        <linearGradient id="paint1_linear" x1="423.86" y1="170.477" x2="489.761" y2="170.477" gradientUnits="userSpaceOnUse">
            <stop stop-color="#FCC73C"/>
            <stop offset="1" stop-color="#F59E35"/>
        </linearGradient>
        <linearGradient id="paint2_linear" x1="17089.2" y1="6673.85" x2="17736.7" y2="7267.29" gradientUnits="userSpaceOnUse">
            <stop stop-color="#FCC73C"/>
            <stop offset="1" stop-color="#F59E35"/>
        </linearGradient>
        <linearGradient id="paint3_linear" x1="449.299" y1="161.422" x2="486.504" y2="161.422" gradientUnits="userSpaceOnUse">
            <stop stop-color="#FCC73C"/>
            <stop offset="1" stop-color="#FC7A3C"/>
        </linearGradient>
        <linearGradient id="paint4_linear" x1="12505" y1="2491.07" x2="18233.1" y2="2491.07" gradientUnits="userSpaceOnUse">
            <stop stop-color="#FCC73C"/>
            <stop offset="1" stop-color="#F59E35"/>
        </linearGradient>
        <linearGradient id="paint5_linear" x1="14975.4" y1="9192.49" x2="34721.9" y2="9192.49" gradientUnits="userSpaceOnUse">
            <stop stop-color="#FCC73C"/>
            <stop offset="1" stop-color="#F59E35"/>
        </linearGradient>
    </defs>
</svg>
