<svg width="303" height="196" viewBox="0 0 303 196" fill="none" xmlns="http://www.w3.org/2000/svg">
    <path fill-rule="evenodd" clip-rule="evenodd" d="M2.32685 103.563C-2.27581 75.3784 -0.216688 42.4678 22.7747 21.8451C45.2419 1.69257 82.6281 6.35095 114.597 2.85914C138.753 0.22076 161.469 2.8346 185.729 4.04665C218.593 5.68859 257.324 -7.7616 281.685 11.2071C305.916 30.0747 304.372 64.5204 299.465 92.6085C295.089 117.659 276.022 138.085 256.237 156.884C239.022 173.242 218.473 186.537 194.021 192.802C170.765 198.762 147.097 194.477 123.304 190.949C96.473 186.969 67.9639 186.063 47.1351 171.017C23.5677 153.994 6.63944 129.971 2.32685 103.563Z" fill="#FEF4F3"/>
    <rect x="89.5" y="39.5" width="137.286" height="111" rx="0.5" fill="white" stroke="#141939"/>
    <rect x="106.143" y="95" width="105.143" height="3.42857" fill="#FCE1C0"/>
    <rect x="106.143" y="104.143" width="105.143" height="3.42857" fill="#FCE1C0"/>
    <rect x="106.143" y="112.143" width="105.143" height="4.57143" fill="#FCE1C0"/>
    <rect x="106.143" y="121.286" width="105.143" height="3.42857" fill="#FCE1C0"/>
    <rect x="106.143" y="129.286" width="105.143" height="4.57143" fill="#FCE1C0"/>
    <path d="M159.286 116.714C138.754 116.714 121.595 131.152 117.406 150.429H201.166C196.977 131.152 179.818 116.714 159.286 116.714Z" fill="#B8B8E8"/>
    <rect opacity="0.6" x="106.143" y="56.1428" width="46.8571" height="30.8571" rx="0.5" fill="#FF8888"/>
    <rect opacity="0.6" x="163.286" y="74.4285" width="48" height="6.85714" rx="0.5" fill="#F59E35"/>
    <rect opacity="0.6" x="163.286" y="59.5714" width="48" height="8" rx="0.5" fill="#F59E35"/>
    <circle cx="158.714" cy="90.4285" r="22.8571" fill="#B8B8E8"/>
</svg>
