<svg width="271" height="223" viewBox="0 0 271 223" fill="none" xmlns="http://www.w3.org/2000/svg">
    <path fill-rule="evenodd" clip-rule="evenodd" d="M21.6246 196.879C-0.324703 178.787 -1.18573 163.061 1.77105 134.228C4.5212 107.409 17.899 81.7829 37.8121 62.6895C55.4347 45.7921 81.7503 46.285 103.952 36.2526C128.474 25.1715 148.223 -2.13013 174.421 0.957909C200.9 4.07889 215.536 31.0456 231.928 51.337C248.594 71.9679 267.662 92.354 269.883 119.129C272.181 146.824 261.115 156.689 243.545 179.253C226.587 201.033 201.838 217.559 174.819 222.045C150.204 226.133 130.291 206.08 106.011 202.092C77.6308 197.429 43.4245 214.848 21.6246 196.879Z" fill="#FEF0E0"/>
    <rect x="78.5" y="65.5" width="137.286" height="111" rx="0.5" fill="white" stroke="#141939"/>
    <rect x="95.1431" y="121" width="105.143" height="3.42857" fill="#FCE1C0"/>
    <rect x="95.1431" y="130.143" width="105.143" height="3.42857" fill="#FCE1C0"/>
    <rect x="95.1431" y="138.143" width="105.143" height="4.57143" fill="#FCE1C0"/>
    <rect x="95.1431" y="147.286" width="105.143" height="3.42857" fill="#FCE1C0"/>
    <rect x="95.1431" y="155.286" width="105.143" height="4.57143" fill="#FCE1C0"/>
    <rect opacity="0.6" x="95.1431" y="100.429" width="105.143" height="6.85714" rx="0.5" fill="#FDCDCA"/>
    <path d="M147.714 110.071C170.558 110.071 189.492 124.708 192.648 127.286C189.492 129.864 170.558 144.5 147.714 144.5C125.49 144.5 106.965 130.647 103.068 127.518C103.065 127.504 103.062 127.48 103.066 127.447C103.07 127.41 103.082 127.375 103.095 127.349C103.104 127.333 103.111 127.326 103.113 127.324C103.507 127.064 104.032 126.695 104.677 126.243C110.785 121.955 127.717 110.071 147.714 110.071Z" fill="white" stroke="#141939"/>
    <path d="M78.5713 86.1428H215.143" stroke="#141939"/>
    <circle cx="196.857" cy="75.2857" r="4.57143" fill="#FF8888"/>
    <circle cx="177.428" cy="75.2857" r="4.57143" fill="#FF8888"/>
    <circle cx="147.143" cy="127.286" r="12" fill="#9399B8"/>
    <rect x="146.628" y="117.342" width="1.02857" height="20.5714" fill="#273271"/>
    <rect x="136.857" y="128.143" width="1.02857" height="20.5714" transform="rotate(-90 136.857 128.143)" fill="#273271"/>
    <circle cx="147.143" cy="127.628" r="7.21429" fill="white" stroke="#273271"/>
    <circle cx="147.143" cy="127.628" r="4.12857" stroke="#273271"/>
</svg>
