<svg width="330" height="297" viewBox="0 0 330 297" fill="none" xmlns="http://www.w3.org/2000/svg">
    <path fill-rule="evenodd" clip-rule="evenodd" d="M295.48 109.679C303.112 133.024 299.122 159.194 287.457 183.291C276.261 206.421 257.728 228.45 232.036 240.744C208.255 252.123 181.006 249.735 156.004 246.194C135.654 243.311 122.305 229.985 104.103 222.62C81.8296 213.607 46.4172 218.204 37.6344 198.296C28.9652 178.646 59.2131 158.05 66.0322 136.325C73.8456 111.431 56.0572 79.3219 80.1918 62.7081C104.242 46.1522 134.696 70.4136 163.822 69.0077C191.756 67.6594 220.205 46.9396 245.431 54.7321C272.006 62.9416 287.79 86.1522 295.48 109.679Z" fill="#FEF4F3"/>
    <rect x="113.5" y="110.005" width="130.665" height="99.3675" rx="1.5" fill="#FEFBF8" stroke="#141939"/>
    <rect x="113.27" y="142.151" width="131.125" height="0.53961" stroke="#141939" stroke-width="0.53961"/>
    <circle cx="126.044" cy="125.684" r="4.34793" fill="#F78B89"/>
    <circle cx="138.217" cy="125.684" r="4.34793" fill="#F78B89"/>
    <rect x="149.521" y="123.946" width="60.0015" height="2.60876" rx="1.30438" fill="#B8B8E8"/>
    <mask id="path-7-inside-1" fill="white">
        <path fill-rule="evenodd" clip-rule="evenodd" d="M235.209 95.4406C241.45 97.6457 245.921 103.597 245.921 110.593V124.002C245.921 125.499 246.988 126.783 248.46 127.056C252.175 127.746 251.671 133.217 247.893 133.217H211.818C208.04 133.217 207.536 127.746 211.25 127.056C212.722 126.783 213.789 125.499 213.789 124.002V110.593C213.789 103.597 218.261 97.6449 224.503 95.4402C224.585 91.866 226.95 88.9999 229.856 88.9999C232.762 88.9999 235.127 91.8663 235.209 95.4406Z"/>
    </mask>
    <path fill-rule="evenodd" clip-rule="evenodd" d="M235.209 95.4406C241.45 97.6457 245.921 103.597 245.921 110.593V124.002C245.921 125.499 246.988 126.783 248.46 127.056C252.175 127.746 251.671 133.217 247.893 133.217H211.818C208.04 133.217 207.536 127.746 211.25 127.056C212.722 126.783 213.789 125.499 213.789 124.002V110.593C213.789 103.597 218.261 97.6449 224.503 95.4402C224.585 91.866 226.95 88.9999 229.856 88.9999C232.762 88.9999 235.127 91.8663 235.209 95.4406Z" fill="#FCE3C4"/>
    <path d="M235.209 95.4406L233.209 95.4865L233.241 96.8665L234.543 97.3264L235.209 95.4406ZM248.46 127.056L248.825 125.09L248.825 125.09L248.46 127.056ZM211.25 127.056L210.885 125.09L210.885 125.09L211.25 127.056ZM224.503 95.4402L225.169 97.326L226.471 96.8662L226.502 95.4861L224.503 95.4402ZM234.543 97.3264C240.009 99.2579 243.921 104.471 243.921 110.593H247.921C247.921 102.723 242.89 96.0335 235.875 93.5549L234.543 97.3264ZM243.921 110.593V124.002H247.921V110.593H243.921ZM243.921 124.002C243.921 126.462 245.676 128.573 248.095 129.022L248.825 125.09C248.301 124.992 247.921 124.535 247.921 124.002H243.921ZM248.095 129.022C248.514 129.1 248.71 129.279 248.818 129.437C248.946 129.624 249.023 129.899 248.995 130.212C248.966 130.524 248.839 130.78 248.679 130.941C248.544 131.077 248.32 131.217 247.893 131.217V135.217C254.103 135.217 254.931 126.224 248.825 125.09L248.095 129.022ZM247.893 131.217H211.818V135.217H247.893V131.217ZM211.818 131.217C211.391 131.217 211.166 131.077 211.031 130.941C210.871 130.78 210.745 130.524 210.716 130.212C210.687 129.899 210.765 129.624 210.893 129.437C211.001 129.279 211.196 129.1 211.616 129.022L210.885 125.09C204.779 126.224 205.607 135.217 211.818 135.217V131.217ZM211.616 129.022C214.035 128.573 215.789 126.462 215.789 124.002H211.789C211.789 124.535 211.409 124.992 210.885 125.09L211.616 129.022ZM215.789 124.002V110.593H211.789V124.002H215.789ZM215.789 110.593C215.789 104.471 219.702 99.2572 225.169 97.326L223.837 93.5544C216.821 96.0326 211.789 102.723 211.789 110.593H215.789ZM226.502 95.4861C226.569 92.5887 228.405 90.9999 229.856 90.9999V86.9999C225.495 86.9999 222.601 91.1434 222.503 95.3942L226.502 95.4861ZM229.856 90.9999C231.307 90.9999 233.143 92.5889 233.209 95.4865L237.208 95.3948C237.111 91.1437 234.217 86.9999 229.856 86.9999V90.9999Z" fill="#273271" mask="url(#path-7-inside-1)"/>
    <path d="M235.412 133.184C234.908 135.529 232.664 137.375 229.854 137.375C227.044 137.375 224.801 135.529 224.296 133.184H235.412Z" fill="#FCE3C4" stroke="#273271" stroke-width="2"/>
    <rect opacity="0.6" x="124.871" y="152.674" width="37.7727" height="18.3467" rx="0.5" fill="#F9C383"/>
    <rect opacity="0.6" x="175.595" y="164.545" width="56.1194" height="4.31688" rx="0.5" fill="#F59E35"/>
    <rect opacity="0.6" x="175.595" y="156.991" width="56.1194" height="4.31688" rx="0.5" fill="#F59E35"/>
    <rect x="124.871" y="177.496" width="106.843" height="3.23766" fill="#B8B8E8"/>
    <rect x="124.871" y="186.13" width="106.843" height="3.23766" fill="#B8B8E8"/>
    <rect x="124.871" y="193.684" width="106.843" height="4.31688" fill="#B8B8E8"/>
</svg>
