<svg width="105" height="70" viewBox="0 0 105 70" fill="none" xmlns="http://www.w3.org/2000/svg">
    <path opacity="0.6" d="M46.2336 64.3C41.7003 67.5667 36.2336 69.2 29.8336 69.2C23.4336 69.2 17.9336 67.5667 13.3336 64.3C8.80026 60.9667 5.46693 56.7667 3.33359 51.7C1.26693 46.5667 0.233594 40.9 0.233594 34.7C0.233594 25.0333 2.80026 16.9 7.93359 10.3C13.0669 3.63333 20.3669 0.299995 29.8336 0.299995C39.3003 0.299995 46.6003 3.63333 51.7336 10.3C56.8669 16.9 59.4336 25.0333 59.4336 34.7C59.4336 40.9 58.3669 46.5667 56.2336 51.7C54.1669 56.7667 50.8336 60.9667 46.2336 64.3ZM20.5336 34.7C20.5336 45.8333 23.6336 51.4 29.8336 51.4C36.0336 51.4 39.1336 45.8333 39.1336 34.7C39.1336 23.6333 36.0336 18.1 29.8336 18.1C23.6336 18.1 20.5336 23.6333 20.5336 34.7ZM104.127 68H83.9266V27L72.6266 38.2L61.2266 26.3L86.7266 1.29999H104.127V68Z" fill="#FEE1DF"/>
</svg>
