<svg width="121" height="70" viewBox="0 0 121 70" fill="none" xmlns="http://www.w3.org/2000/svg">
    <path opacity="0.6" d="M46.7395 64.3C42.2061 67.5667 36.7395 69.2 30.3395 69.2C23.9395 69.2 18.4395 67.5667 13.8395 64.3C9.30612 60.9667 5.97279 56.7667 3.83945 51.7C1.77279 46.5667 0.739453 40.9 0.739453 34.7C0.739453 25.0333 3.30612 16.9 8.43945 10.3C13.5728 3.63333 20.8728 0.299995 30.3395 0.299995C39.8061 0.299995 47.1061 3.63333 52.2395 10.3C57.3728 16.9 59.9395 25.0333 59.9395 34.7C59.9395 40.9 58.8728 46.5667 56.7395 51.7C54.6728 56.7667 51.3395 60.9667 46.7395 64.3ZM21.0395 34.7C21.0395 45.8333 24.1395 51.4 30.3395 51.4C36.5395 51.4 39.6395 45.8333 39.6395 34.7C39.6395 23.6333 36.5395 18.1 30.3395 18.1C24.1395 18.1 21.0395 23.6333 21.0395 34.7ZM120.332 68H65.8324V52.3C74.1658 46.4333 80.2658 42.1 84.1324 39.3C87.9991 36.5 91.2324 33.9667 93.8324 31.7C96.4324 29.4333 97.9658 27.8 98.4324 26.8C98.9658 25.8 99.2324 24.6333 99.2324 23.3C99.2324 21.7667 98.4991 20.5333 97.0324 19.6C95.5658 18.6 93.7324 18.1 91.5324 18.1C85.2658 18.1 79.3991 20.4 73.9324 25L62.9324 11.6C66.5324 7.73333 70.8324 4.9 75.8324 3.1C80.8991 1.23333 85.9991 0.299995 91.1324 0.299995C99.7324 0.299995 106.632 2.46666 111.832 6.8C117.099 11.0667 119.732 16.5667 119.732 23.3C119.732 27.9667 118.166 32.3667 115.032 36.5C111.899 40.6333 106.432 45.2667 98.6324 50.4H120.332V68Z" fill="#FCE1C0"/>
</svg>
