<svg width="121" height="70" viewBox="0 0 121 70" fill="none" xmlns="http://www.w3.org/2000/svg">
    <path opacity="0.6" d="M46.5441 64.3C42.0108 67.5667 36.5441 69.2 30.1441 69.2C23.7441 69.2 18.2441 67.5667 13.6441 64.3C9.11081 60.9667 5.77747 56.7667 3.64414 51.7C1.57747 46.5667 0.544141 40.9 0.544141 34.7C0.544141 25.0333 3.11081 16.9 8.24414 10.3C13.3775 3.63333 20.6775 0.299995 30.1441 0.299995C39.6108 0.299995 46.9108 3.63333 52.0441 10.3C57.1775 16.9 59.7441 25.0333 59.7441 34.7C59.7441 40.9 58.6775 46.5667 56.5441 51.7C54.4775 56.7667 51.1441 60.9667 46.5441 64.3ZM20.8441 34.7C20.8441 45.8333 23.9441 51.4 30.1441 51.4C36.3441 51.4 39.4441 45.8333 39.4441 34.7C39.4441 23.6333 36.3441 18.1 30.1441 18.1C23.9441 18.1 20.8441 23.6333 20.8441 34.7ZM91.5371 69.2C85.2038 69.2 79.5371 68.2667 74.5371 66.4C69.6038 64.4667 65.6704 61.9333 62.7371 58.8L72.6371 45C75.0371 47.0667 77.9371 48.6667 81.3371 49.8C84.7371 50.8667 87.8704 51.4 90.7371 51.4C93.8704 51.4 96.2704 50.9667 97.9371 50.1C99.6038 49.2333 100.437 48.1667 100.437 46.9C100.437 45.6333 99.7371 44.7333 98.3371 44.2C97.0038 43.6 94.2704 43.3 90.1371 43.3C85.0038 43.3 81.7704 43.3667 80.4371 43.5V25.6C81.3038 25.6667 84.5371 25.7 90.1371 25.7C96.2704 25.7 99.3371 24.6 99.3371 22.4C99.3371 19.5333 96.0371 18.1 89.4371 18.1C83.2371 18.1 77.8038 20.0333 73.1371 23.9L63.6371 11.3C70.3038 3.96666 79.6371 0.299995 91.6371 0.299995C100.637 0.299995 107.504 1.96666 112.237 5.3C117.037 8.63333 119.437 13.1333 119.437 18.8C119.437 22.3333 118.037 25.5333 115.237 28.4C112.504 31.2 109.004 32.9333 104.737 33.6C108.804 34.0667 112.437 35.7 115.637 38.5C118.904 41.3 120.537 44.8667 120.537 49.2C120.537 55.1333 117.87 59.9667 112.537 63.7C107.204 67.3667 100.204 69.2 91.5371 69.2Z" fill="#FEE1DF"/>
</svg>
