<svg width="124" height="70" viewBox="0 0 124 70" fill="none" xmlns="http://www.w3.org/2000/svg">
    <path opacity="0.6" d="M46.6164 64.3C42.0831 67.5667 36.6164 69.2 30.2164 69.2C23.8164 69.2 18.3164 67.5667 13.7164 64.3C9.18307 60.9667 5.84974 56.7667 3.71641 51.7C1.64974 46.5667 0.616406 40.9 0.616406 34.7C0.616406 25.0333 3.18307 16.9 8.31641 10.3C13.4497 3.63333 20.7497 0.299995 30.2164 0.299995C39.6831 0.299995 46.9831 3.63333 52.1164 10.3C57.2497 16.9 59.8164 25.0333 59.8164 34.7C59.8164 40.9 58.7497 46.5667 56.6164 51.7C54.5497 56.7667 51.2164 60.9667 46.6164 64.3ZM20.9164 34.7C20.9164 45.8333 24.0164 51.4 30.2164 51.4C36.4164 51.4 39.5164 45.8333 39.5164 34.7C39.5164 23.6333 36.4164 18.1 30.2164 18.1C24.0164 18.1 20.9164 23.6333 20.9164 34.7ZM115.709 68H95.5094V57.3H63.4094V41.8L87.7094 1.29999H115.709V39.7H123.409V57.3H115.709V68ZM95.5094 39.7V18.7L82.9094 39.7H95.5094Z" fill="#FCE1C0"/>
</svg>
