<svg width="240" height="249" viewBox="0 0 240 249" fill="none" xmlns="http://www.w3.org/2000/svg">
    <path opacity="0.6" fill-rule="evenodd" clip-rule="evenodd" d="M94.3048 45.099C110.433 43.2298 125.653 49.3154 140.73 55.4066C156.171 61.6451 172.204 67.5112 182.434 80.704C193.495 94.968 202.535 113.092 199.22 130.836C195.982 148.172 178.678 158.041 165.76 169.97C154.42 180.442 143.937 193.039 128.784 195.88C113.895 198.671 100.299 189.315 85.7689 184.967C68.7389 179.872 46.5115 183.014 36.4915 168.265C26.4953 153.552 37.1864 133.946 39.0879 116.258C40.9412 99.0173 36.8568 79.883 47.4615 66.2166C58.2441 52.321 76.8664 47.1202 94.3048 45.099Z" fill="#FDE6CB"/>
    <path opacity="0.6" fill-rule="evenodd" clip-rule="evenodd" d="M159.242 195.801C144.334 202.972 127.651 202.179 111.104 201.334C94.1574 200.469 76.765 200.159 62.5207 190.861C47.1199 180.808 32.3799 166.366 29.6631 148.174C27.009 130.403 40.3856 115.138 48.8534 99.3484C56.2866 85.4884 62.1867 69.8672 75.8326 62.0857C89.2406 54.4398 105.449 58.9226 120.888 58.2708C138.984 57.5069 159.342 47.0798 173.902 57.9455C188.427 68.7852 184.66 91.2252 188.719 108.891C192.675 126.11 202.98 143.176 197.319 159.868C191.563 176.839 175.362 188.048 159.242 195.801Z" fill="#FDE6CB"/>
    <path opacity="0.6" fill-rule="evenodd" clip-rule="evenodd" d="M211.942 94.663C213.262 110.786 197.514 123.579 187.376 137.116C179.834 147.184 169.906 154.298 160.695 163.086C148.19 175.017 141.017 194.007 123.825 197.749C106.055 201.617 86.9227 193.598 74.3681 181.876C62.3741 170.677 60.3258 153.409 59.1077 137.323C58.0707 123.629 60.7234 109.813 67.9833 97.5657C74.5575 86.4757 86.538 80.118 97.4801 72.5917C108.984 64.6791 119.485 55.187 133.325 52.6217C149.517 49.6203 166.843 49.6637 180.828 57.1422C195.914 65.2094 210.596 78.2197 211.942 94.663Z" fill="#FDE6CB"/>
    <path opacity="0.2" fill-rule="evenodd" clip-rule="evenodd" d="M84.0639 33.7609C102.988 22.8045 127.34 13.9082 147.159 23.0615C166.837 32.1493 166.946 59.844 179.185 77.6908C190.421 94.0762 211.877 103.474 215.675 122.973C219.704 143.66 211.525 165.149 199.616 182.596C187.662 200.11 170.517 215.321 149.722 219.595C130.033 223.641 111.541 212.027 92.9274 204.522C76.3054 197.82 58.3284 192.608 47.4892 178.373C36.6729 164.168 34.135 145.632 34.4925 127.78C34.8372 110.566 41.4244 94.8759 49.4667 79.6228C58.6167 62.2685 67.0594 43.6061 84.0639 33.7609Z" fill="#F9C586"/>
    <rect x="117.56" y="69" width="3.3" height="110" rx="1.65" fill="#141939"/>
    <circle cx="119.21" cy="123.45" r="21.45" fill="#FCE1C0"/>
    <path d="M89.2673 141.267L88.4081 141.778L89.2673 141.267C89.5962 141.819 89.5418 142.528 89.1127 143.022L85.7339 146.919L95.7614 156.96L99.7038 153.543C100.199 153.115 100.907 153.06 101.459 153.389C104.317 155.092 107.406 156.374 110.629 157.195C111.25 157.354 111.711 157.891 111.759 158.542L112.14 163.7H126.328L126.709 158.542C126.757 157.891 127.218 157.354 127.839 157.195C131.062 156.374 134.151 155.092 137.009 153.389C137.561 153.06 138.27 153.115 138.765 153.544L138.109 154.299L138.765 153.544L142.658 156.923L152.685 146.882L149.307 142.986C148.877 142.491 148.823 141.783 149.152 141.23C150.855 138.371 152.136 135.282 152.957 132.057C153.115 131.436 153.652 130.975 154.303 130.927L159.46 130.547V116.353L154.303 115.973C153.652 115.925 153.115 115.464 152.957 114.843C152.136 111.618 150.855 108.528 149.152 105.67C148.823 105.117 148.877 104.409 149.307 103.914L152.685 100.018L142.658 89.9771L138.765 93.3558C138.27 93.7852 137.561 93.8396 137.009 93.5105C134.15 91.8079 131.062 90.5261 127.838 89.7044C127.218 89.5462 126.757 89.0091 126.709 88.3581L126.328 83.2H112.091L111.711 88.3581C111.663 89.0091 111.202 89.5462 110.581 89.7044C107.357 90.5261 104.269 91.8079 101.411 93.5105L100.899 92.6514L101.411 93.5105C100.858 93.8396 100.149 93.7852 99.6545 93.3558L95.761 89.9771L85.7339 100.018L89.1127 103.914L88.3573 104.569L89.1127 103.914C89.5418 104.409 89.5962 105.117 89.2673 105.67C87.565 108.529 86.2835 111.618 85.4622 114.843C85.304 115.464 84.7669 115.925 84.1159 115.973L78.9596 116.353V130.583L84.1159 130.964C84.7669 131.012 85.3041 131.473 85.4622 132.094C86.2833 135.319 87.5649 138.408 89.2673 141.267ZM85.429 147.27C85.4295 147.27 85.43 147.269 85.4304 147.268L85.429 147.27ZM85.4067 146.591C85.4061 146.59 85.4056 146.59 85.405 146.589L85.0512 146.943L85.405 146.589L85.4067 146.591ZM96.0906 157.289C96.09 157.289 96.0895 157.288 96.0889 157.288L96.0906 157.289ZM153.014 100.347L153.014 100.347C153.014 100.347 153.014 100.347 153.014 100.347L153.368 99.9939L153.014 100.347ZM138.352 131.285C136.603 135.496 133.513 139.012 129.562 141.287C126.427 143.116 122.863 144.08 119.234 144.08C115.605 144.08 112.041 143.116 108.906 141.287C104.955 139.012 101.865 135.496 100.116 131.285C98.3668 127.073 98.0565 122.401 99.2335 117.995C100.41 113.588 103.009 109.694 106.625 106.916C110.242 104.138 114.674 102.632 119.234 102.632C123.794 102.632 128.226 104.138 131.843 106.916C135.459 109.694 138.057 113.588 139.234 117.995C140.411 122.401 140.101 127.073 138.352 131.285Z" fill="white" stroke="#141939" stroke-width="2"/>
    <rect x="161.368" y="78.9" width="3.3" height="12.1" rx="1.65" transform="rotate(45.3566 161.368 78.9)" fill="#000540"/>
    <rect x="83.269" y="155.9" width="3.3" height="12.1" rx="1.65" transform="rotate(45.3566 83.269 155.9)" fill="#000540"/>
    <rect x="163.797" y="164.283" width="3.3" height="12.1" rx="1.65" transform="rotate(134.402 163.797 164.283)" fill="#000540"/>
    <rect x="85.506" y="87.4768" width="3.3" height="12.1" rx="1.65" transform="rotate(134.402 85.506 87.4768)" fill="#000540"/>
    <rect x="58.2916" y="124.595" width="3.3" height="12.1" rx="1.65" transform="rotate(-90.1576 58.2916 124.595)" fill="#000540"/>
    <rect x="167.967" y="124.389" width="3.3" height="12.1" rx="1.65" transform="rotate(-90.1576 167.967 124.389)" fill="#000540"/>
    <circle cx="162.661" cy="80.0001" r="3.4" fill="#F9C586" stroke="#141939" stroke-width="2"/>
    <circle cx="75.7612" cy="80.0001" r="3.4" fill="#F9C586" stroke="#141939" stroke-width="2"/>
    <circle cx="162.661" cy="165.14" r="3.4" fill="#F9C586" stroke="#141939" stroke-width="2"/>
    <circle cx="181.361" cy="122.9" r="3.4" fill="#F9C586" stroke="#141939" stroke-width="2"/>
    <circle cx="59.2604" cy="122.9" r="3.4" fill="#F9C586" stroke="#141939" stroke-width="2"/>
    <circle cx="75.7612" cy="165.14" r="3.4" fill="#F9C586" stroke="#141939" stroke-width="2"/>
</svg>
