<?xml version="1.0" encoding="utf-8"?>
<!-- Generator: Adobe Illustrator 21.0.0, SVG Export Plug-In . SVG Version: 6.00 Build 0)  -->
<svg version="1.1" id="Layer_1" xmlns="http://www.w3.org/2000/svg" xmlns:xlink="http://www.w3.org/1999/xlink" x="0px" y="0px"
	 viewBox="0 0 836 763" style="enable-background:new 0 0 836 763;" xml:space="preserve">
<style type="text/css">
	.st0{fill:#F1F1FB;}
	.st1{fill:#FCA29E;}
	.st2{fill:#FDC7C5;}
	.st3{fill:#FCB4B1;}
	.st4{fill:#FEDAD8;}
	.st5{opacity:0.7;fill:#FFFFFF;enable-background:new    ;}
	.st6{fill:#952924;}
	.st7{opacity:0.2;}
	.st8{fill:#320E0C;}
	.st9{fill:#AE302A;}
	.st10{fill:#F8443C;}
	.st11{fill:#C63630;}
	.st12{fill:#F95750;}
	.st13{opacity:0.6;fill:#C63630;enable-background:new    ;}
	.st14{opacity:0.2;fill:#FFFFFF;enable-background:new    ;}
	.st15{fill:#BABABA;}
	.st16{fill:#878686;}
	.st17{fill:#323244;}
	.st18{fill:#4A1412;}
	.st19{fill:#BCC1C9;}
	.st20{fill:#7D84AA;}
	.st21{fill:#E79E7D;}
	.st22{fill:#21212D;}
	.st23{fill:#E9B296;}
	.st24{fill:#1F285A;}
	.st25{fill:#273271;}
	.st26{fill:#E5E5E5;}
	.st27{fill:#E84640;}
	.st28{fill:#FB8875;}
	.st29{fill:#9595CB;}
	.st30{fill:url(#SVGID_1_);}
	.st31{fill:url(#SVGID_2_);}
	.st32{fill:#FFFFFF;}
</style>
<path class="st0" d="M732,689c-85.5,26.3-239.3,31.6-337,21c-77.6-6.6-196,12.6-223.2-95.8C135.1,467.8-7.5,473,23.6,354.7
	c36.1-137.5,126.8-106,221.6-152.5C399.7,137.9,352.2,44.4,531,63c105,16,96.9,128.4,171,217c70.8,84.6,107,114,112,209
	C818.4,572.5,831.6,659.6,732,689z"/>
<ellipse transform="matrix(6.152436e-02 -0.9981 0.9981 6.152436e-02 210.008 772.3742)" class="st0" cx="515.7" cy="274.5" rx="4.4" ry="4.5"/>
<g>
	<rect x="418.5" y="263.1" class="st1" width="91.6" height="0.7"/>
	<rect x="418.5" y="257.7" class="st1" width="91.6" height="0.7"/>
	<rect x="418.5" y="252.3" class="st1" width="91.6" height="0.7"/>
	<rect x="418.5" y="246.9" class="st1" width="91.6" height="0.7"/>
	<rect x="418.5" y="241.4" class="st1" width="91.6" height="0.7"/>
	<rect x="418.5" y="236" class="st1" width="91.6" height="0.7"/>
	<rect x="418.5" y="230.6" class="st1" width="91.6" height="0.7"/>
	<g>
		<g>
			<g>
				<rect x="239.3" y="537.4" class="st2" width="150.3" height="22.3"/>
				<rect x="389.5" y="537.3" class="st3" width="30.5" height="22.3"/>
				<rect x="229.1" y="143.5" class="st4" width="160.5" height="393.8"/>
				<rect x="242.5" y="140.2" class="st2" width="174.1" height="3.4"/>
				<rect x="389.5" y="143.5" class="st2" width="40.7" height="393.8"/>
			</g>
			<g>
				<rect x="233.8" y="148.3" class="st2" width="150.9" height="43.2"/>
				<rect x="233.8" y="489.2" class="st2" width="150.9" height="43.2"/>
				<rect x="233.8" y="440.5" class="st2" width="150.9" height="43.2"/>
				<rect x="233.8" y="391.8" class="st2" width="150.9" height="43.2"/>
				<rect x="233.8" y="343.1" class="st2" width="150.9" height="43.2"/>
				<rect x="233.8" y="294.3" class="st2" width="150.9" height="43.2"/>
				<rect x="233.8" y="245.7" class="st2" width="150.9" height="43.2"/>
				<rect x="233.8" y="196.9" class="st2" width="150.9" height="43.2"/>
			</g>
			<path class="st5" d="M372.5,185.2h-29.4c-3.5,0-6.3-2.9-6.3-6.3v-18.3c0-3.5,2.9-6.3,6.3-6.3h29.4c3.5,0,6.3,2.9,6.3,6.3v18.3
				C378.8,182.4,376,185.2,372.5,185.2z"/>
			<path class="st4" d="M366,171.9v-4.1c0-1,0.9-1.9,1.9-1.9h4.1c1,0,1.9,0.9,1.9,1.9v4.1c0,1-0.9,1.9-1.9,1.9h-4.1
				C366.9,173.8,366,172.9,366,171.9z"/>
			<path class="st5" d="M372.5,234h-29.4c-3.5,0-6.3-2.9-6.3-6.3v-18.3c0-3.5,2.9-6.3,6.3-6.3h29.4c3.5,0,6.3,2.9,6.3,6.3v18.3
				C378.8,231.1,376,234,372.5,234z"/>
			<path class="st4" d="M366,220.5v-4.1c0-1,0.9-1.9,1.9-1.9h4.1c1,0,1.9,0.9,1.9,1.9v4.1c0,1-0.9,1.9-1.9,1.9h-4.1
				C366.9,222.4,366,221.7,366,220.5z"/>
			<path class="st5" d="M372.5,282.6h-29.4c-3.5,0-6.3-2.9-6.3-6.3V258c0-3.5,2.9-6.3,6.3-6.3h29.4c3.5,0,6.3,2.9,6.3,6.3v18.3
				C378.8,279.7,376,282.6,372.5,282.6z"/>
			<path class="st4" d="M366,269.3v-4.1c0-1,0.9-1.9,1.9-1.9h4.1c1,0,1.9,0.9,1.9,1.9v4.1c0,1-0.9,1.9-1.9,1.9h-4.1
				C366.9,271.2,366,270.3,366,269.3z"/>
			<path class="st5" d="M372.5,331.4h-29.4c-3.5,0-6.3-2.9-6.3-6.3v-18.3c0-3.5,2.9-6.3,6.3-6.3h29.4c3.5,0,6.3,2.9,6.3,6.3V325
				C378.8,328.5,376,331.4,372.5,331.4z"/>
			<path class="st4" d="M366,317.9v-4.1c0-1,0.9-1.9,1.9-1.9h4.1c1,0,1.9,0.9,1.9,1.9v4.1c0,1-0.9,1.9-1.9,1.9h-4.1
				C366.9,319.9,366,319.1,366,317.9z"/>
			<path class="st5" d="M372.5,380h-29.4c-3.5,0-6.3-2.9-6.3-6.3v-18.3c0-3.5,2.9-6.3,6.3-6.3h29.4c3.5,0,6.3,2.9,6.3,6.3v18.3
				C378.8,377.3,376,380,372.5,380z"/>
			<path class="st4" d="M366,366.7v-4.1c0-1,0.9-1.9,1.9-1.9h4.1c1,0,1.9,0.9,1.9,1.9v4.1c0,1-0.9,1.9-1.9,1.9h-4.1
				C366.9,368.6,366,367.7,366,366.7z"/>
			<path class="st5" d="M372.5,428.8h-29.4c-3.5,0-6.3-2.9-6.3-6.3v-18.3c0-3.5,2.9-6.3,6.3-6.3h29.4c3.5,0,6.3,2.9,6.3,6.3v18.3
				C378.8,425.9,376,428.8,372.5,428.8z"/>
			<path class="st4" d="M366,415.5v-4.1c0-1,0.9-1.9,1.9-1.9h4.1c1,0,1.9,0.9,1.9,1.9v4.1c0,1-0.9,1.9-1.9,1.9h-4.1
				C366.9,417.3,366,416.5,366,415.5z"/>
			<path class="st5" d="M372.5,477.5h-29.4c-3.5,0-6.3-2.9-6.3-6.3v-18.3c0-3.5,2.9-6.3,6.3-6.3h29.4c3.5,0,6.3,2.9,6.3,6.3v18.3
				C378.8,474.7,376,477.5,372.5,477.5z"/>
			<path class="st4" d="M366,464.1V460c0-1,0.9-1.9,1.9-1.9h4.1c1,0,1.9,0.9,1.9,1.9v4.1c0,1-0.9,1.9-1.9,1.9h-4.1
				C366.9,466,366,465.2,366,464.1z"/>
			<path class="st5" d="M372.5,526.2h-29.4c-3.5,0-6.3-2.9-6.3-6.3v-18.3c0-3.5,2.9-6.3,6.3-6.3h29.4c3.5,0,6.3,2.9,6.3,6.3v18.3
				C378.8,523.4,376,526.2,372.5,526.2z"/>
			<path class="st4" d="M366,512.9v-4.1c0-1,0.9-1.9,1.9-1.9h4.1c1,0,1.9,0.9,1.9,1.9v4.1c0,1-0.9,1.9-1.9,1.9h-4.1
				C366.9,514.7,366,513.8,366,512.9z"/>
			<path class="st4" d="M353.8,171.9v-4.1c0-1,0.9-1.9,1.9-1.9h4.1c1,0,1.9,0.9,1.9,1.9v4.1c0,1-0.9,1.9-1.9,1.9h-4.1
				C354.7,173.8,353.8,172.9,353.8,171.9z"/>
			<path class="st4" d="M353.8,220.5v-4.1c0-1,0.9-1.9,1.9-1.9h4.1c1,0,1.9,0.9,1.9,1.9v4.1c0,1-0.9,1.9-1.9,1.9h-4.1
				C354.7,222.4,353.8,221.7,353.8,220.5z"/>
			<path class="st4" d="M353.8,269.3v-4.1c0-1,0.9-1.9,1.9-1.9h4.1c1,0,1.9,0.9,1.9,1.9v4.1c0,1-0.9,1.9-1.9,1.9h-4.1
				C354.7,271.2,353.8,270.3,353.8,269.3z"/>
			<path class="st4" d="M353.8,317.9v-4.1c0-1,0.9-1.9,1.9-1.9h4.1c1,0,1.9,0.9,1.9,1.9v4.1c0,1-0.9,1.9-1.9,1.9h-4.1
				C354.7,319.9,353.8,319.1,353.8,317.9z"/>
			<path class="st4" d="M353.8,366.7v-4.1c0-1,0.9-1.9,1.9-1.9h4.1c1,0,1.9,0.9,1.9,1.9v4.1c0,1-0.9,1.9-1.9,1.9h-4.1
				C354.7,368.6,353.8,367.7,353.8,366.7z"/>
			<path class="st4" d="M353.8,415.5v-4.1c0-1,0.9-1.9,1.9-1.9h4.1c1,0,1.9,0.9,1.9,1.9v4.1c0,1-0.9,1.9-1.9,1.9h-4.1
				C354.7,417.3,353.8,416.5,353.8,415.5z"/>
			<path class="st4" d="M353.8,464.1V460c0-1,0.9-1.9,1.9-1.9h4.1c1,0,1.9,0.9,1.9,1.9v4.1c0,1-0.9,1.9-1.9,1.9h-4.1
				C354.7,466,353.8,465.2,353.8,464.1z"/>
			<path class="st4" d="M353.8,512.9v-4.1c0-1,0.9-1.9,1.9-1.9h4.1c1,0,1.9,0.9,1.9,1.9v4.1c0,1-0.9,1.9-1.9,1.9h-4.1
				C354.7,514.7,353.8,513.8,353.8,512.9z"/>
			<g>
				<circle class="st4" cx="321.6" cy="169.8" r="5"/>
				<circle class="st4" cx="307.4" cy="169.8" r="5"/>
				<circle class="st4" cx="293.1" cy="169.8" r="5"/>
				<circle class="st4" cx="279" cy="169.8" r="5"/>
			</g>
			<g>
				<circle class="st4" cx="321.6" cy="218.5" r="5"/>
				<circle class="st4" cx="307.4" cy="218.5" r="5"/>
				<circle class="st4" cx="293.1" cy="218.5" r="5"/>
				<circle class="st4" cx="279" cy="218.5" r="5"/>
			</g>
			<g>
				<circle class="st4" cx="321.6" cy="267.2" r="5"/>
				<circle class="st4" cx="307.4" cy="267.2" r="5"/>
				<circle class="st4" cx="293.1" cy="267.2" r="5"/>
				<circle class="st4" cx="279" cy="267.2" r="5"/>
			</g>
			<g>
				<circle class="st4" cx="321.6" cy="315.9" r="5"/>
				<circle class="st4" cx="307.4" cy="315.9" r="5"/>
				<circle class="st4" cx="293.1" cy="315.9" r="5"/>
				<circle class="st4" cx="279" cy="315.9" r="5"/>
			</g>
			<g>
				<circle class="st4" cx="321.6" cy="364.7" r="5"/>
				<circle class="st4" cx="307.4" cy="364.7" r="5"/>
				<circle class="st4" cx="293.1" cy="364.7" r="5"/>
				<circle class="st4" cx="279" cy="364.7" r="5"/>
			</g>
			<g>
				<circle class="st4" cx="321.6" cy="413.3" r="5"/>
				<circle class="st4" cx="307.4" cy="413.3" r="5"/>
				<circle class="st4" cx="293.1" cy="413.3" r="5"/>
				<circle class="st4" cx="279" cy="413.3" r="5"/>
			</g>
			<g>
				<circle class="st4" cx="321.6" cy="462.1" r="5"/>
				<circle class="st4" cx="307.4" cy="462.1" r="5"/>
				<circle class="st4" cx="293.1" cy="462.1" r="5"/>
				<circle class="st4" cx="279" cy="462.1" r="5"/>
			</g>
			<g>
				<circle class="st4" cx="321.6" cy="510.7" r="5"/>
				<circle class="st4" cx="307.4" cy="510.7" r="5"/>
				<circle class="st4" cx="293.1" cy="510.7" r="5"/>
				<circle class="st4" cx="279" cy="510.7" r="5"/>
			</g>
			<circle class="st3" cx="253.2" cy="169.8" r="10.8"/>
			<circle class="st3" cx="253.2" cy="218.5" r="10.8"/>
			<circle class="st3" cx="253.2" cy="267.2" r="10.8"/>
			<circle class="st3" cx="253.2" cy="315.9" r="10.8"/>
			<circle class="st3" cx="253.2" cy="364.7" r="10.8"/>
			<circle class="st3" cx="253.2" cy="413.3" r="10.8"/>
			<circle class="st3" cx="253.2" cy="462.1" r="10.8"/>
			<circle class="st3" cx="253.2" cy="510.7" r="10.8"/>
		</g>
	</g>
	<g>
		<g>
			<g>
				<rect x="476.7" y="539.2" class="st2" width="173.6" height="20.4"/>
				<rect x="650.4" y="539.2" class="st3" width="29" height="20.4"/>
				<rect x="467.2" y="178" class="st4" width="183.3" height="361.2"/>
				<rect x="480" y="174.9" class="st2" width="196.4" height="3.1"/>
				<rect x="650.5" y="177.9" class="st2" width="38.6" height="361.2"/>
			</g>
			<g>
				<rect x="471.7" y="182.4" class="st2" width="174.3" height="39.6"/>
				<rect x="471.7" y="495.1" class="st2" width="174.3" height="39.6"/>
				<rect x="471.7" y="450.4" class="st2" width="174.3" height="39.6"/>
				<rect x="471.7" y="405.8" class="st2" width="174.3" height="39.6"/>
				<rect x="471.7" y="361.1" class="st2" width="174.3" height="39.6"/>
				<rect x="471.7" y="316.4" class="st2" width="174.3" height="39.6"/>
				<rect x="471.7" y="271.7" class="st2" width="174.3" height="39.6"/>
				<rect x="471.7" y="226.9" class="st2" width="174.3" height="39.6"/>
			</g>
			<path class="st3" d="M483.2,216.2H567c3.2,0,5.8-2.6,5.8-5.8v-16.5c0-3.2-2.6-5.8-5.8-5.8h-83.8c-3.2,0-5.8,2.6-5.8,5.8v16.5
				C477.2,213.6,480,216.2,483.2,216.2z"/>
			<path class="st4" d="M489.4,203.9v-3.7c0-1-0.7-1.7-1.7-1.7h-4c-1,0-1.7,0.7-1.7,1.7v3.7c0,1,0.7,1.7,1.7,1.7h4
				C488.7,205.7,489.4,204.9,489.4,203.9z"/>
			<path class="st3" d="M483.2,260.8H567c3.2,0,5.8-2.6,5.8-5.8v-16.5c0-3.2-2.6-5.8-5.8-5.8h-83.8c-3.2,0-5.8,2.6-5.8,5.8V255
				C477.2,258.2,480,260.8,483.2,260.8z"/>
			<path class="st4" d="M489.4,248.7V245c0-1-0.7-1.7-1.7-1.7h-4c-1,0-1.7,0.7-1.7,1.7v3.7c0,1,0.7,1.7,1.7,1.7h4
				C488.7,250.4,489.4,249.5,489.4,248.7z"/>
			<path class="st3" d="M483.2,305.6H567c3.2,0,5.8-2.6,5.8-5.8v-16.5c0-3.2-2.6-5.8-5.8-5.8h-83.8c-3.2,0-5.8,2.6-5.8,5.8v16.5
				C477.2,302.9,480,305.6,483.2,305.6z"/>
			<path class="st4" d="M489.4,293.3v-3.7c0-1-0.7-1.7-1.7-1.7h-4c-1,0-1.7,0.7-1.7,1.7v3.7c0,1,0.7,1.7,1.7,1.7h4
				C488.7,295,489.4,294.3,489.4,293.3z"/>
			<path class="st3" d="M483.2,350.3H567c3.2,0,5.8-2.6,5.8-5.8V328c0-3.2-2.6-5.8-5.8-5.8h-83.8c-3.2,0-5.8,2.6-5.8,5.8v16.5
				C477.2,347.7,480,350.3,483.2,350.3z"/>
			<path class="st4" d="M489.4,338v-3.7c0-1-0.7-1.7-1.7-1.7h-4c-1,0-1.7,0.7-1.7,1.7v3.7c0,1,0.7,1.7,1.7,1.7h4
				C488.7,339.7,489.4,339,489.4,338z"/>
			<path class="st3" d="M483.2,394.9H567c3.2,0,5.8-2.6,5.8-5.8v-16.5c0-3.2-2.6-5.8-5.8-5.8h-83.8c-3.2,0-5.8,2.6-5.8,5.8v16.5
				C477.2,392.3,480,394.9,483.2,394.9z"/>
			<path class="st4" d="M489.4,382.6v-3.7c0-1-0.7-1.7-1.7-1.7h-4c-1,0-1.7,0.7-1.7,1.7v3.7c0,1,0.7,1.7,1.7,1.7h4
				C488.7,384.4,489.4,383.6,489.4,382.6z"/>
			<path class="st3" d="M483.2,439.6H567c3.2,0,5.8-2.6,5.8-5.8v-16.5c0-3.2-2.6-5.8-5.8-5.8h-83.8c-3.2,0-5.8,2.6-5.8,5.8v16.5
				C477.2,437,480,439.6,483.2,439.6z"/>
			<path class="st4" d="M489.4,427.3v-3.7c0-1-0.7-1.7-1.7-1.7h-4c-1,0-1.7,0.7-1.7,1.7v3.7c0,1,0.7,1.7,1.7,1.7h4
				C488.7,429.1,489.4,428.3,489.4,427.3z"/>
			<path class="st3" d="M483.2,484.2H567c3.2,0,5.8-2.6,5.8-5.8v-16.5c0-3.2-2.6-5.8-5.8-5.8h-83.8c-3.2,0-5.8,2.6-5.8,5.8v16.5
				C477.2,481.6,480,484.2,483.2,484.2z"/>
			<path class="st4" d="M489.4,472.1v-3.7c0-1-0.7-1.7-1.7-1.7h-4c-1,0-1.7,0.7-1.7,1.7v3.7c0,1,0.7,1.7,1.7,1.7h4
				C488.7,473.8,489.4,472.9,489.4,472.1z"/>
			<path class="st3" d="M483.2,529H567c3.2,0,5.8-2.6,5.8-5.8v-16.5c0-3.2-2.6-5.8-5.8-5.8h-83.8c-3.2,0-5.8,2.6-5.8,5.8v16.5
				C477.2,526.3,480,529,483.2,529z"/>
			<path class="st4" d="M489.4,516.7V513c0-1-0.7-1.7-1.7-1.7h-4c-1,0-1.7,0.7-1.7,1.7v3.7c0,1,0.7,1.7,1.7,1.7h4
				C488.7,518.4,489.4,517.7,489.4,516.7z"/>
			<path class="st4" d="M501,203.9v-3.7c0-1-0.7-1.7-1.7-1.7h-4c-1,0-1.7,0.7-1.7,1.7v3.7c0,1,0.7,1.7,1.7,1.7h4
				C500.1,205.7,501,204.9,501,203.9z"/>
			<path class="st4" d="M501,248.7V245c0-1-0.7-1.7-1.7-1.7h-4c-1,0-1.7,0.7-1.7,1.7v3.7c0,1,0.7,1.7,1.7,1.7h4
				C500.1,250.4,501,249.5,501,248.7z"/>
			<path class="st4" d="M501,293.3v-3.7c0-1-0.7-1.7-1.7-1.7h-4c-1,0-1.7,0.7-1.7,1.7v3.7c0,1,0.7,1.7,1.7,1.7h4
				C500.1,295,501,294.3,501,293.3z"/>
			<path class="st4" d="M501,338v-3.7c0-1-0.7-1.7-1.7-1.7h-4c-1,0-1.7,0.7-1.7,1.7v3.7c0,1,0.7,1.7,1.7,1.7h4
				C500.1,339.7,501,339,501,338z"/>
			<path class="st4" d="M501,382.6v-3.7c0-1-0.7-1.7-1.7-1.7h-4c-1,0-1.7,0.7-1.7,1.7v3.7c0,1,0.7,1.7,1.7,1.7h4
				C500.1,384.4,501,383.6,501,382.6z"/>
			<path class="st4" d="M501,427.3v-3.7c0-1-0.7-1.7-1.7-1.7h-4c-1,0-1.7,0.7-1.7,1.7v3.7c0,1,0.7,1.7,1.7,1.7h4
				C500.1,429.1,501,428.3,501,427.3z"/>
			<path class="st4" d="M501,472.1v-3.7c0-1-0.7-1.7-1.7-1.7h-4c-1,0-1.7,0.7-1.7,1.7v3.7c0,1,0.7,1.7,1.7,1.7h4
				C500.1,473.8,501,472.9,501,472.1z"/>
			<path class="st4" d="M501,516.7V513c0-1-0.7-1.7-1.7-1.7h-4c-1,0-1.7,0.7-1.7,1.7v3.7c0,1,0.7,1.7,1.7,1.7h4
				C500.1,518.4,501,517.7,501,516.7z"/>
			<path class="st4" d="M512.4,203.9v-3.7c0-1-0.7-1.7-1.7-1.7h-4c-1,0-1.7,0.7-1.7,1.7v3.7c0,1,0.7,1.7,1.7,1.7h4
				C511.7,205.7,512.4,204.9,512.4,203.9z"/>
			<path class="st4" d="M512.4,248.7V245c0-1-0.7-1.7-1.7-1.7h-4c-1,0-1.7,0.7-1.7,1.7v3.7c0,1,0.7,1.7,1.7,1.7h4
				C511.7,250.4,512.4,249.5,512.4,248.7z"/>
			<path class="st4" d="M512.4,293.3v-3.7c0-1-0.7-1.7-1.7-1.7h-4c-1,0-1.7,0.7-1.7,1.7v3.7c0,1,0.7,1.7,1.7,1.7h4
				C511.7,295,512.4,294.3,512.4,293.3z"/>
			<path class="st4" d="M512.4,338v-3.7c0-1-0.7-1.7-1.7-1.7h-4c-1,0-1.7,0.7-1.7,1.7v3.7c0,1,0.7,1.7,1.7,1.7h4
				C511.7,339.7,512.4,339,512.4,338z"/>
			<path class="st4" d="M512.4,382.6v-3.7c0-1-0.7-1.7-1.7-1.7h-4c-1,0-1.7,0.7-1.7,1.7v3.7c0,1,0.7,1.7,1.7,1.7h4
				C511.7,384.4,512.4,383.6,512.4,382.6z"/>
			<path class="st4" d="M512.4,427.3v-3.7c0-1-0.7-1.7-1.7-1.7h-4c-1,0-1.7,0.7-1.7,1.7v3.7c0,1,0.7,1.7,1.7,1.7h4
				C511.7,429.1,512.4,428.3,512.4,427.3z"/>
			<path class="st4" d="M512.4,472.1v-3.7c0-1-0.7-1.7-1.7-1.7h-4c-1,0-1.7,0.7-1.7,1.7v3.7c0,1,0.7,1.7,1.7,1.7h4
				C511.7,473.8,512.4,472.9,512.4,472.1z"/>
			<path class="st4" d="M512.4,516.7V513c0-1-0.7-1.7-1.7-1.7h-4c-1,0-1.7,0.7-1.7,1.7v3.7c0,1,0.7,1.7,1.7,1.7h4
				C511.7,518.4,512.4,517.7,512.4,516.7z"/>
			<path class="st4" d="M524,203.9v-3.7c0-1-0.7-1.7-1.7-1.7h-4c-1,0-1.7,0.7-1.7,1.7v3.7c0,1,0.7,1.7,1.7,1.7h4
				C523.3,205.7,524,204.9,524,203.9z"/>
			<path class="st4" d="M524,248.7V245c0-1-0.7-1.7-1.7-1.7h-4c-1,0-1.7,0.7-1.7,1.7v3.7c0,1,0.7,1.7,1.7,1.7h4
				C523.3,250.4,524,249.5,524,248.7z"/>
			<path class="st4" d="M524,293.3v-3.7c0-1-0.7-1.7-1.7-1.7h-4c-1,0-1.7,0.7-1.7,1.7v3.7c0,1,0.7,1.7,1.7,1.7h4
				C523.3,295,524,294.3,524,293.3z"/>
			<path class="st4" d="M524,338v-3.7c0-1-0.7-1.7-1.7-1.7h-4c-1,0-1.7,0.7-1.7,1.7v3.7c0,1,0.7,1.7,1.7,1.7h4
				C523.3,339.7,524,339,524,338z"/>
			<path class="st4" d="M524,382.6v-3.7c0-1-0.7-1.7-1.7-1.7h-4c-1,0-1.7,0.7-1.7,1.7v3.7c0,1,0.7,1.7,1.7,1.7h4
				C523.3,384.4,524,383.6,524,382.6z"/>
			<path class="st4" d="M524,427.3v-3.7c0-1-0.7-1.7-1.7-1.7h-4c-1,0-1.7,0.7-1.7,1.7v3.7c0,1,0.7,1.7,1.7,1.7h4
				C523.3,429.1,524,428.3,524,427.3z"/>
			<path class="st4" d="M524,472.1v-3.7c0-1-0.7-1.7-1.7-1.7h-4c-1,0-1.7,0.7-1.7,1.7v3.7c0,1,0.7,1.7,1.7,1.7h4
				C523.3,473.8,524,472.9,524,472.1z"/>
			<path class="st4" d="M524,516.7V513c0-1-0.7-1.7-1.7-1.7h-4c-1,0-1.7,0.7-1.7,1.7v3.7c0,1,0.7,1.7,1.7,1.7h4
				C523.3,518.4,524,517.7,524,516.7z"/>
			<g>
				<ellipse class="st4" cx="587.3" cy="202.1" rx="4.7" ry="4.6"/>
				<ellipse class="st4" cx="600.8" cy="202.1" rx="4.7" ry="4.6"/>
				<ellipse class="st4" cx="614.3" cy="202.1" rx="4.7" ry="4.6"/>
				<ellipse class="st4" cx="627.9" cy="202.1" rx="4.7" ry="4.6"/>
			</g>
			<g>
				<ellipse class="st4" cx="587.3" cy="246.8" rx="4.7" ry="4.6"/>
				<ellipse class="st4" cx="600.8" cy="246.8" rx="4.7" ry="4.6"/>
				<ellipse class="st4" cx="614.3" cy="246.8" rx="4.7" ry="4.6"/>
				<ellipse class="st4" cx="627.9" cy="246.8" rx="4.7" ry="4.6"/>
			</g>
			<g>
				<ellipse class="st4" cx="587.3" cy="291.4" rx="4.7" ry="4.6"/>
				<ellipse class="st4" cx="600.8" cy="291.4" rx="4.7" ry="4.6"/>
				<ellipse class="st4" cx="614.3" cy="291.4" rx="4.7" ry="4.6"/>
				<ellipse class="st4" cx="627.9" cy="291.4" rx="4.7" ry="4.6"/>
			</g>
			<g>
				<ellipse class="st4" cx="587.3" cy="336.1" rx="4.7" ry="4.6"/>
				<ellipse class="st4" cx="600.8" cy="336.1" rx="4.7" ry="4.6"/>
				<ellipse class="st4" cx="614.3" cy="336.1" rx="4.7" ry="4.6"/>
				<ellipse class="st4" cx="627.9" cy="336.1" rx="4.7" ry="4.6"/>
			</g>
			<g>
				<ellipse class="st4" cx="587.3" cy="380.8" rx="4.7" ry="4.6"/>
				<ellipse class="st4" cx="600.8" cy="380.8" rx="4.7" ry="4.6"/>
				<ellipse class="st4" cx="614.3" cy="380.8" rx="4.7" ry="4.6"/>
				<ellipse class="st4" cx="627.9" cy="380.8" rx="4.7" ry="4.6"/>
			</g>
			<g>
				<ellipse class="st4" cx="587.3" cy="425.5" rx="4.7" ry="4.6"/>
				<ellipse class="st4" cx="600.8" cy="425.5" rx="4.7" ry="4.6"/>
				<ellipse class="st4" cx="614.3" cy="425.5" rx="4.7" ry="4.6"/>
				<ellipse class="st4" cx="627.9" cy="425.5" rx="4.7" ry="4.6"/>
			</g>
			<g>
				<ellipse class="st4" cx="587.3" cy="470.2" rx="4.7" ry="4.6"/>
				<ellipse class="st4" cx="600.8" cy="470.2" rx="4.7" ry="4.6"/>
				<ellipse class="st4" cx="614.3" cy="470.2" rx="4.7" ry="4.6"/>
				<ellipse class="st4" cx="627.9" cy="470.2" rx="4.7" ry="4.6"/>
			</g>
			<g>
				<ellipse class="st4" cx="587.3" cy="514.8" rx="4.7" ry="4.6"/>
				<ellipse class="st4" cx="600.8" cy="514.8" rx="4.7" ry="4.6"/>
				<ellipse class="st4" cx="614.3" cy="514.8" rx="4.7" ry="4.6"/>
				<ellipse class="st4" cx="627.9" cy="514.8" rx="4.7" ry="4.6"/>
			</g>
		</g>
	</g>
	<g>
		<rect x="151.2" y="615.2" class="st6" width="174" height="19.8"/>
		<g class="st7">
			<rect x="155.9" y="617.9" class="st8" width="4.4" height="14.2"/>
			<rect x="163.5" y="617.9" class="st8" width="4.4" height="14.2"/>
			<rect x="171.1" y="617.9" class="st8" width="4.4" height="14.2"/>
			<rect x="178.8" y="617.9" class="st8" width="4.4" height="14.2"/>
			<rect x="186.3" y="617.9" class="st8" width="4.4" height="14.2"/>
			<rect x="194.2" y="617.9" class="st8" width="4.4" height="14.2"/>
			<rect x="201.7" y="617.9" class="st8" width="4.4" height="14.2"/>
			<rect x="209.3" y="617.9" class="st8" width="4.4" height="14.2"/>
			<rect x="217" y="617.9" class="st8" width="4.4" height="14.2"/>
			<rect x="224.7" y="617.9" class="st8" width="4.4" height="14.2"/>
			<rect x="232.4" y="617.9" class="st8" width="4.4" height="14.2"/>
			<rect x="240" y="617.9" class="st8" width="4.4" height="14.2"/>
			<rect x="247.6" y="617.9" class="st8" width="4.4" height="14.2"/>
			<rect x="255.3" y="617.9" class="st8" width="4.4" height="14.2"/>
			<rect x="263" y="617.9" class="st8" width="4.4" height="14.2"/>
			<rect x="270.7" y="617.9" class="st8" width="4.4" height="14.2"/>
			<rect x="278.3" y="617.9" class="st8" width="4.4" height="14.2"/>
			<rect x="285.9" y="617.9" class="st8" width="4.4" height="14.2"/>
			<rect x="293.5" y="617.9" class="st8" width="4.4" height="14.2"/>
			<rect x="301.3" y="617.9" class="st8" width="4.4" height="14.2"/>
			<rect x="308.9" y="617.9" class="st8" width="4.4" height="14.2"/>
			<rect x="316.5" y="617.9" class="st8" width="4.4" height="14.2"/>
		</g>
		<rect x="325.4" y="615.1" class="st9" width="27.1" height="19.8"/>
		<rect x="142.2" y="265.9" class="st10" width="183" height="349.1"/>
		<rect x="154.3" y="263" class="st11" width="195.3" height="3"/>
		<rect x="325.3" y="266" class="st12" width="36.3" height="349.1"/>
		<g>
			<path class="st13" d="M316.2,392.9H151.3c-2.6,0-4.9-2.1-4.9-4.9v-25c0-2.6,2.1-4.9,4.9-4.9h164.8c2.6,0,4.9,2.1,4.9,4.9v25
				C321,390.8,318.9,392.9,316.2,392.9z"/>
			<path class="st12" d="M306.4,370.9l-7-14.4v38.3h7.3h2h12.4v-19.2h-7.2C310.7,375.7,307.7,373.8,306.4,370.9z"/>
			<rect x="146.5" y="270.2" class="st1" width="174.5" height="38.3"/>
			<rect x="146.5" y="572.5" class="st1" width="174.5" height="38.3"/>
			<rect x="146.5" y="529.4" class="st1" width="174.5" height="38.3"/>
			<rect x="146.5" y="486.1" class="st1" width="174.5" height="38.3"/>
			<rect x="146.5" y="442.8" class="st1" width="174.5" height="38.3"/>
			<rect x="146.5" y="399.7" class="st1" width="174.5" height="38.3"/>
			<rect x="124.7" y="356.5" class="st1" width="174.5" height="38.3"/>
			<rect x="146.5" y="313.3" class="st1" width="174.5" height="38.3"/>
		</g>
		<path class="st12" d="M310.2,302.9h-66.4c-3.1,0-5.6-2.5-5.6-5.6v-16.2c0-3.1,2.5-5.6,5.6-5.6h66.4c3.1,0,5.6,2.5,5.6,5.6v16.2
			C315.8,300.4,313.3,302.9,310.2,302.9z"/>
		<path class="st14" d="M279.3,290.4v-2.2c0-1.4,1.1-2.4,2.4-2.4h21.5c1.4,0,2.4,1.1,2.4,2.4v2.2c0,1.4-1.1,2.4-2.4,2.4h-21.5
			C280.4,292.8,279.3,291.7,279.3,290.4z"/>
		<path class="st12" d="M310.2,346h-66.4c-3.1,0-5.6-2.5-5.6-5.6v-16.2c0-3.1,2.5-5.6,5.6-5.6h66.4c3.1,0,5.6,2.5,5.6,5.6v16.2
			C315.8,343.6,313.3,346,310.2,346z"/>
		<path class="st14" d="M279.3,333.6v-2.2c0-1.4,1.1-2.4,2.4-2.4h21.5c1.4,0,2.4,1.1,2.4,2.4v2.2c0,1.4-1.1,2.4-2.4,2.4h-21.5
			C280.4,336,279.3,334.9,279.3,333.6z"/>
		<path class="st12" d="M288.5,389.3h-66.4c-3.1,0-5.6-2.5-5.6-5.6v-16.2c0-3.1,2.5-5.6,5.6-5.6h66.4c3.1,0,5.6,2.5,5.6,5.6v16.2
			C294,386.7,291.5,389.3,288.5,389.3z"/>
		<path class="st14" d="M257.6,376.8v-2.2c0-1.4,1.1-2.4,2.4-2.4h21.5c1.4,0,2.4,1.1,2.4,2.4v2.2c0,1.4-1.1,2.4-2.4,2.4H260
			C258.6,379.1,257.6,378,257.6,376.8z"/>
		<path class="st12" d="M310.2,432.5h-66.4c-3.1,0-5.6-2.5-5.6-5.6v-16.2c0-3.1,2.5-5.6,5.6-5.6h66.4c3.1,0,5.6,2.5,5.6,5.6v16.2
			C315.8,430,313.3,432.5,310.2,432.5z"/>
		<path class="st14" d="M279.3,419.9v-2.2c0-1.4,1.1-2.4,2.4-2.4h21.5c1.4,0,2.4,1.1,2.4,2.4v2.2c0,1.4-1.1,2.4-2.4,2.4h-21.5
			C280.4,422.3,279.3,421.2,279.3,419.9z"/>
		<path class="st12" d="M310.2,475.8h-66.4c-3.1,0-5.6-2.5-5.6-5.6V454c0-3.1,2.5-5.6,5.6-5.6h66.4c3.1,0,5.6,2.5,5.6,5.6v16.2
			C315.8,473.3,313.3,475.8,310.2,475.8z"/>
		<path class="st14" d="M279.3,463.2V461c0-1.4,1.1-2.4,2.4-2.4h21.5c1.4,0,2.4,1.1,2.4,2.4v2.2c0,1.4-1.1,2.4-2.4,2.4h-21.5
			C280.4,465.6,279.3,464.6,279.3,463.2z"/>
		<path class="st12" d="M310.2,518.9h-66.4c-3.1,0-5.6-2.5-5.6-5.6v-16.2c0-3.1,2.5-5.6,5.6-5.6h66.4c3.1,0,5.6,2.5,5.6,5.6v16.2
			C315.8,516.4,313.3,518.9,310.2,518.9z"/>
		<path class="st14" d="M279.3,506.4v-2.3c0-1.4,1.1-2.4,2.4-2.4h21.5c1.4,0,2.4,1.1,2.4,2.4v2.2c0,1.4-1.1,2.4-2.4,2.4h-21.5
			C280.4,508.7,279.3,507.7,279.3,506.4z"/>
		<path class="st12" d="M310.2,562.1h-66.4c-3.1,0-5.6-2.5-5.6-5.6v-16.2c0-3.1,2.5-5.6,5.6-5.6h66.4c3.1,0,5.6,2.5,5.6,5.6v16.2
			C315.8,559.6,313.3,562.1,310.2,562.1z"/>
		<path class="st14" d="M279.3,549.5v-2.2c0-1.4,1.1-2.4,2.4-2.4h21.5c1.4,0,2.4,1.1,2.4,2.4v2.2c0,1.4-1.1,2.4-2.4,2.4h-21.5
			C280.4,551.9,279.3,550.9,279.3,549.5z"/>
		<path class="st12" d="M310.2,605.2h-66.4c-3.1,0-5.6-2.5-5.6-5.6v-16.2c0-3.1,2.5-5.6,5.6-5.6h66.4c3.1,0,5.6,2.5,5.6,5.6v16.2
			C315.8,602.8,313.3,605.2,310.2,605.2z"/>
		<path class="st14" d="M279.3,592.8v-2.2c0-1.4,1.1-2.4,2.4-2.4h21.5c1.4,0,2.4,1.1,2.4,2.4v2.2c0,1.4-1.1,2.4-2.4,2.4h-21.5
			C280.4,595.2,279.3,594.1,279.3,592.8z"/>
		<g>
			<ellipse class="st12" cx="224.7" cy="289.2" rx="4.4" ry="4.4"/>
			<ellipse class="st12" cx="212" cy="289.2" rx="4.4" ry="4.4"/>
			<ellipse class="st10" cx="199.4" cy="289.2" rx="4.4" ry="4.4"/>
			<ellipse class="st12" cx="186.7" cy="289.2" rx="4.4" ry="4.4"/>
		</g>
		<g>
			<ellipse class="st12" cx="224.7" cy="332.5" rx="4.4" ry="4.4"/>
			<ellipse class="st12" cx="212" cy="332.5" rx="4.4" ry="4.4"/>
			<ellipse class="st12" cx="199.4" cy="332.5" rx="4.4" ry="4.4"/>
			<ellipse class="st10" cx="186.7" cy="332.5" rx="4.4" ry="4.4"/>
		</g>
		<g>
			<ellipse class="st10" cx="203" cy="375.7" rx="4.4" ry="4.4"/>
			<ellipse class="st12" cx="190.3" cy="375.7" rx="4.4" ry="4.4"/>
			<ellipse class="st10" cx="177.6" cy="375.7" rx="4.4" ry="4.4"/>
			<ellipse class="st12" cx="165" cy="375.7" rx="4.4" ry="4.4"/>
		</g>
		<g>
			<ellipse class="st10" cx="224.7" cy="418.8" rx="4.4" ry="4.4"/>
			<ellipse class="st10" cx="212" cy="418.8" rx="4.4" ry="4.4"/>
			<ellipse class="st12" cx="199.4" cy="418.8" rx="4.4" ry="4.4"/>
			<ellipse class="st12" cx="186.7" cy="418.8" rx="4.4" ry="4.4"/>
		</g>
		<g>
			<ellipse class="st12" cx="224.7" cy="462.1" rx="4.4" ry="4.4"/>
			<ellipse class="st10" cx="212" cy="462.1" rx="4.4" ry="4.4"/>
			<ellipse class="st12" cx="199.4" cy="462.1" rx="4.4" ry="4.4"/>
			<ellipse class="st12" cx="186.7" cy="462.1" rx="4.4" ry="4.4"/>
		</g>
		<g>
			<ellipse class="st12" cx="224.7" cy="505.2" rx="4.4" ry="4.4"/>
			<ellipse class="st12" cx="212" cy="505.2" rx="4.4" ry="4.4"/>
			<ellipse class="st10" cx="199.4" cy="505.2" rx="4.4" ry="4.4"/>
			<ellipse class="st10" cx="186.7" cy="505.2" rx="4.4" ry="4.4"/>
		</g>
		<g>
			<ellipse class="st10" cx="224.7" cy="548.4" rx="4.4" ry="4.4"/>
			<ellipse class="st12" cx="212" cy="548.4" rx="4.4" ry="4.4"/>
			<ellipse class="st12" cx="199.4" cy="548.4" rx="4.4" ry="4.4"/>
			<ellipse class="st12" cx="186.7" cy="548.4" rx="4.4" ry="4.4"/>
		</g>
		<g>
			<ellipse class="st12" cx="224.7" cy="591.6" rx="4.4" ry="4.4"/>
			<ellipse class="st12" cx="212" cy="591.6" rx="4.4" ry="4.4"/>
			<ellipse class="st10" cx="199.4" cy="591.6" rx="4.4" ry="4.4"/>
			<ellipse class="st12" cx="186.7" cy="591.6" rx="4.4" ry="4.4"/>
		</g>
		<ellipse class="st14" cx="163.7" cy="289.2" rx="9.6" ry="9.6"/>
		<ellipse class="st14" cx="163.7" cy="332.5" rx="9.6" ry="9.6"/>
		<ellipse class="st14" cx="142.1" cy="375.7" rx="9.6" ry="9.6"/>
		<ellipse class="st14" cx="163.7" cy="418.8" rx="9.6" ry="9.6"/>
		<ellipse class="st14" cx="163.7" cy="462.1" rx="9.6" ry="9.6"/>
		<ellipse class="st14" cx="163.7" cy="505.2" rx="9.6" ry="9.6"/>
		<ellipse class="st14" cx="163.7" cy="548.4" rx="9.6" ry="9.6"/>
		<ellipse class="st14" cx="163.7" cy="591.6" rx="9.6" ry="9.6"/>
	</g>
</g>
<g>
	<g>
		<rect x="322.7" y="502.3" class="st15" width="13.1" height="108.1"/>
		<path class="st16" d="M317.8,610.4h22.4v-44c0-3.9-3.1-7.1-7.1-7.1h-8.2c-3.9,0-7.1,3.1-7.1,7.1L317.8,610.4L317.8,610.4z"/>
		<path class="st17" d="M262.2,492.2c2.5-0.5,4.6-0.9,7.1-1.2c-9.5-63.8-14.8-128.5-28.2-192.1c-1,0.1-8,1.1-8.8,1.2
			c-4.5,0.6-7.3,5.1-6.3,9.6C239.6,370.4,252,431.3,262.2,492.2z"/>
		<path class="st17" d="M268.1,487.6c27.9-4.4,56.1-4.5,84.1-0.2c4.6-58.8,3.6-123.5-14.9-181.6c-1.5-4.5-5.3-7.7-10.1-8.1
			c-37.2-3.2-51.9-3.2-86.3,1.4c-4.1,0.5-7,4.6-6.1,8.7C247.9,367.4,258.9,427.5,268.1,487.6z"/>
		<path class="st17" d="M261.8,488.7c0,2.4,2,6.5,6.1,9.7c4.2,3.4,46.1,6.8,82.2,6.8c32.8,0,62.4-2,78.4-3.2
			c6.8-0.5,12.1-7,11.8-14.7l0,0c-0.2-7.5-5.6-13.6-12.3-13.7c-18.2-0.6-53.2-1.6-77.7-1.6C301.3,472.1,261.8,479.5,261.8,488.7z"/>
		<path class="st17" d="M261.8,490.2c0.2,4.7,4,8.5,8.6,8.8c17,1.4,56.5,4.2,68.8,3.4c6.8-0.5,12.1-6.3,11.8-13.3l0,0
			c-0.2-6.8-5.6-12.2-12.3-12.4c-13.4-0.4-49.9-1-67.7-1.2c-5.5-0.1-9.8,4.6-9.5,10.1L261.8,490.2z"/>
		<g>
			<path class="st17" d="M386.9,630.9c0.4,0,0.7-0.1,1.1-0.4c1.1-0.6,1.6-2.1,1-3.4l-8.8-16c-0.4-0.7-1.2-1.2-2.1-1.2h-97.9
				c-0.9,0-1.6,0.5-2.1,1.1l-9.7,16c-0.7,1.1-0.4,2.7,0.7,3.4s2.6,0.4,3.4-0.9l9.1-14.9h95.2l8.2,14.8
				C385.3,630.4,386.2,630.9,386.9,630.9z"/>
		</g>
		<g>
			<path class="st17" d="M303.5,630.9c1.1,0,2.1-0.7,2.4-1.9l3.9-14.3h39.7l3.5,14.2c0.4,1.4,1.6,2.1,3,1.7c1.2-0.4,2.1-1.6,1.7-3
				l-4-16c-0.2-1.1-1.2-1.9-2.4-1.9h-43.4c-1.1,0-2.1,0.7-2.4,1.9l-4.4,16c-0.4,1.4,0.4,2.6,1.7,3
				C303.1,630.9,303.2,630.9,303.5,630.9z"/>
		</g>
		<g>
			<ellipse class="st17" cx="386.9" cy="636.2" rx="8.5" ry="8.6"/>
			<ellipse class="st17" cx="386.9" cy="636.2" rx="6.5" ry="6.6"/>
		</g>
		<g>
			<ellipse class="st17" cx="356.1" cy="636.2" rx="8.5" ry="8.6"/>
			<ellipse class="st17" cx="356.1" cy="636.2" rx="6.5" ry="6.6"/>
		</g>
		<g>
			<ellipse class="st17" cx="269.3" cy="636.2" rx="8.5" ry="8.6"/>
			<ellipse class="st17" cx="269.3" cy="636.2" rx="6.5" ry="6.6"/>
		</g>
		<g>
			<ellipse class="st17" cx="303.5" cy="636.2" rx="8.5" ry="8.6"/>
			<ellipse class="st17" cx="303.5" cy="636.2" rx="6.5" ry="6.6"/>
		</g>
	</g>
	<path class="st18" d="M368.3,248.5c0,0,11.9,6.6,11.1,20.9c-0.9,15.2-11.3,29.5-18.4,37.7c-10.7,12.6-36.9,33.6-54,33.8
		c-54.5,1.1-49.8-43.4-45.5-51.5c13.1-24.5,35.6-10.7,40.3-15.4c6.2-6.3,8.5-19.8,14.8-27.9C332.6,226.1,359.4,228.9,368.3,248.5z"
		/>
	<path class="st8" d="M316.5,246.3c3.6-3.9,7.6-7.2,12.3-9.5c4.6-2.2,9.6-3.5,14.7-3.4c5,0.2,10,1.6,14.1,4.4
		c4.2,2.7,7.5,6.7,9.5,11.3l0.1,0.4l0.5,0.2c4.4,2.7,8.1,7.1,9.6,12.1c1.6,5.1,0.9,10.7-0.5,15.9c-1.4,5.3-3.7,10.4-6.5,15.3
		s-6,9.5-9.3,13.9c3.9-4,7.5-8.5,10.6-13.2s5.7-10,7.5-15.4c1.6-5.5,2.5-11.6,0.9-17.4c-1.7-5.7-5.6-10.7-10.7-13.8l0.6,0.6
		c-2.2-5-6-9.5-10.7-12.3c-4.6-3-10.1-4.5-15.5-4.4c-5.3,0.1-10.7,1.6-15.3,4.2C323.5,238.3,319.6,241.9,316.5,246.3z"/>
	<path class="st19" d="M444.8,404.6c-13.3,10.6-50.4,3.7-72.1-22.3c-7.2-8.6-8.2-17.5-4-24.3c6.3-10.2,21.4-0.9,31.7,3.9
		c20.8,9.6,47.1,31.6,47.1,31.6S445.4,404.1,444.8,404.6z"/>
	<polygon class="st20" points="495.8,646.4 505.1,646.4 505.1,434.4 483.3,434.4 	"/>
	<polygon class="st20" points="492.5,646.4 495.8,646.4 483.3,433.5 480.1,433.5 	"/>
	<polygon class="st20" points="579.1,646.4 588.3,646.4 600.8,433.5 579.1,433.5 	"/>
	<rect x="575.7" y="433.5" class="st20" width="3.2" height="213"/>
	<g>
		<g>
			<path class="st21" d="M360.2,374c7.6,8.3,16.5,33.6,16.5,33.6s21.8,4.9,36.4,11.2c29.1,12.3,58.8,25,55.2,55.5
				c-3.7,31.2-50.9,102.1-76,141.1c-8.5,13.1-17.3,21.4-17.3,21.4l-2.2-4c0,0,25.5-84.8,29.6-113.1c2.9-19.4,11.7-43.4,11.7-43.4
				L338,453l-10.7-68.4C327.2,384.4,355.1,376.3,360.2,374z"/>
		</g>
	</g>
	<path class="st22" d="M353.8,633.6c0,0-1.7,13.3-4.6,18.5c0,0-5.6,4-8.1,3.9c-2.2-0.2-5-9.6-3.9-11.2c3.4-5.3,11.8-13.2,11.8-13.2
		L353.8,633.6z"/>
	<path class="st23" d="M356.9,626.7c0,0-2.2,4.5-3,6.5c-1.5,4.2-3.5,10.7-4.7,12.4c-1.5,1.9-2.1,2.2-2.9,2.1
		c-1.6-0.2-3.9-3.1-3.6-5.2c0.1-1.1,3.5-7,7-11.7c2.7-3.9,4.2-7.8,4.2-7.8L356.9,626.7z"/>
	<path class="st22" d="M373.2,638.7c0,0-5.3,12.3-9.6,16.4c0,0-6.5,2.2-8.8,1.4c-2.1-0.9-2.1-10.6-0.6-11.8
		c4.7-4.1,15.1-9.2,15.1-9.2L373.2,638.7z"/>
	<path class="st21" d="M378.2,633c0,0-3.5,3.6-4.6,5.3c-2.6,3.6-6.3,9.3-8,10.6c-1.9,1.4-2.7,1.6-3.4,1.2c-1.5-0.7-2.9-4.1-2-6
		c0.5-1.1,5.3-5.7,10-9.2c3.7-2.9,6.3-6.2,6.3-6.2L378.2,633z"/>
	<g>
		<g>
			<path class="st23" d="M299.2,375.2c-5.6,9.7-21.5,47.3-20,64.1c4.2,46.6,104.7,40.4,104.7,40.4c-1.5,0.1-8,6.8-19.9,40.7
				c-9,25.1-11.7,106.2-11.7,106.2l3.7,2c0,0,85.1-125.3,81.5-155.1c-5.7-47.8-90.7-49.4-90.7-49.4s-5-30.7-6.8-43.9
				C330.3,379.8,315.2,377,299.2,375.2z"/>
		</g>
	</g>
	<path class="st24" d="M361.9,375.2c0,0,12.7,18,16.2,31.8c0,0,44.4,11.3,71.5,30.1c0.6,0.4,2.7,2,2.7,2s-27.6,8.1-54.2,24.8
		c-20.5,12.8-29.4,20.4-34.5,20c-15.5-1-50.3-1.7-72.8-16.7c-39.4-26.2,9.5-91.9,9.5-91.9L361.9,375.2z"/>
	<path class="st25" d="M424,449.7c0,0-0.7,0.4-1.1,0.5c-7.7,3.7-16.4,8.2-24.9,13.6c-20.5,12.8-29.4,20.4-34.5,20
		c-15.5-1-54.2-1-76.6-15.9c-39.4-26.2,13.3-92.7,13.3-92.7h37.2l6,42c0,0,28,7.6,38.6,10.4C407.1,434.2,424,449.7,424,449.7z"/>
	<path class="st19" d="M389.9,394.8c10.2,1.7,11.4-20.5,11.4-20.5s-7.7-23.3-11.8-38.8c-5.3-20.2-18-37.1-36.3-38.3l0,0
		C353.3,297.3,361.1,389.8,389.9,394.8z"/>
	<path class="st26" d="M302.3,374.7c0,0,18.3,10.7,37.7,14.3c25.1,4.7,29.7-1.2,29.7-1.2l8.7-47.4c1.5-13.6,1.6-31.2-17.3-41
		c-9.1-4.7-26.2-6.2-35.9-6.6c-20.6-1-26.9,10.3-28.6,25.6C295,332.9,302.3,374.7,302.3,374.7z"/>
	<g>
		<path class="st21" d="M347.6,297.5L347.6,297.5c1.9,0.2,3.6-1,4-3l1.6-11.3c0.2-1.9-1-3.7-3-4l0,0c-1.9-0.2-3.6,1-4,3l-1.6,11.3
			C344.4,295.4,345.8,297.3,347.6,297.5z"/>
		<path class="st21" d="M353,285.1c0.4-3-0.7-5.6-2.6-5.8l0,0c-1.9-0.2-3.7,1.9-4.2,4.9l-1.1,7.7c-0.2,1.6,2.7,1.2,5.1-0.9
			c1.5-1.5,2.5-2.7,2.5-2.7L353,285.1z"/>
	</g>
	<path class="st21" d="M341.8,266.1c0.6,0,1.1,0.4,1.6,1c0.5-1.7,1-3.1,1-3.1c0.2-0.9,0.6-1.7,1.1-2.6c1.9-3.5,5.2-5.7,9-6.2
		c0.1,0,0.1,0,0.2,0c0.2,0,0.6,0,0.9-0.1c0.1,0,0.2,0,0.4,0c0.2,0,0.5,0,0.7,0c0.1,0,0.4,0,0.5,0c0.2,0,0.5,0,0.7,0.1
		c0.1,0,0.2,0,0.5,0.1c0.2,0,0.6,0.1,0.9,0.2h0.1c0,0,0,0,0.1,0c0.2,0.1,0.5,0.1,0.9,0.2c6.2,2.2,9.5,9.2,7.5,15.7
		c0,0-0.4,1.4-0.9,3.1c0.7-0.2,1.4-0.2,1.9,0.1c1.1,0.7,1.1,3-0.2,5c-1.1,1.7-2.9,2.7-4.1,2.2c0,0.1-0.1,0.1-0.1,0.2
		c-2.2,4.1-6.2,5.5-10,6.7c-1.6,0.5-3.4,0.5-4.9,0c-1.6-0.5-3-1.4-4-2.7c-2.4-3.2-4.7-6.6-4.4-11.2c0,0,0-0.1,0-0.2
		c-0.4-0.1-0.7-0.4-1-0.7c-0.6-0.7-1-2-1-3.5C339.2,267.9,340.4,266.1,341.8,266.1z"/>
	<path class="st21" d="M359.2,255.5h0.1c0,0,0,0,0.1,0c0.2,0.1,0.5,0.1,0.9,0.2c6.2,2.2,9.5,9.2,7.5,15.7c0,0-0.4,1.4-0.9,3.1
		c0.7-0.2,1.4-0.2,1.9,0.1c1.1,0.7,1.1,3-0.2,5c-1.1,1.7-2.9,2.7-4.1,2.2c0,0.1-0.1,0.1-0.1,0.2c-2.2,4.1-6.2,5.5-10,6.7
		c-1.6,0.5-3.4,0.5-4.9,0c-0.9-0.2,3.2-2.7,7.3-15.9C360.4,261.3,359.1,255.5,359.2,255.5z"/>
	<g>
		<path class="st27" d="M339.5,273.2c-4.7-0.2-7.5,7-2.5,9c5.2,2.2,8.6-5.5,4.1-8.5c-0.7-0.5,0.1-1,0.7-0.6c2.5,1.6,3.7,4.9,2.1,7.6
			c-1.4,2.4-4.2,3.4-6.7,2.5c-6.2-2.1-4.5-11.3,2.1-10.9C339.8,272.2,340.4,273.2,339.5,273.2L339.5,273.2z"/>
	</g>
	<path class="st19" d="M319,374.3c0,0-18.3,17.8-24,13.1c-7.8-6.5-9-30.1-7.7-46.1c1.6-19.7,9.5-46.5,27.2-47.5
		c1,0,4.7,5.7,4.2,20.8c-0.2,10-1.2,25.9-1.5,34.5C316.9,367.2,319,374.3,319,374.3z"/>
	<g>
		<path class="st28" d="M482.3,408.9c0,0,3-0.7,4-1.5c0.7-0.6,1.6-3.2,1.6-3.2s-4.5-2.9-6.3-3.6c-1.2-0.5-2.5-0.6-3.6,0.5
			c-0.7,0.7-0.9,1.9-0.2,2.6L482.3,408.9z"/>
		<path class="st28" d="M486.6,412.5L486.6,412.5c-1,0.5-2.1,0.1-2.6-0.7l-2.4-4.4l1.7-1L486.6,412.5L486.6,412.5z"/>
		<path class="st28" d="M479,409.7L479,409.7c1-0.2,1.6-1.4,1.4-2.5l-1.2-4.9c0,0-1.6-0.7-1.7-0.2C476.9,403.9,479,409.7,479,409.7
			L479,409.7z"/>
		<path class="st28" d="M490,413.5L490,413.5c-0.9,0.6-2.2,0.2-2.9-0.7l-3.1-4.7l1.6-1.1L490,413.5L490,413.5z"/>
		<path class="st28" d="M491.2,412.3L491.2,412.3c-0.9,0.6-2.2,0.2-2.9-0.9l-3.1-4.9l1.6-1.1L491.2,412.3L491.2,412.3z"/>
		<path class="st28" d="M492.2,409.7L492.2,409.7c-0.9,0.6-2.1,0.5-3-0.5l-3.5-4.5c0,0,1.4-0.9,1.9-0.7
			C488.8,404.4,492.2,409.7,492.2,409.7L492.2,409.7z"/>
	</g>
	<g>
		<path class="st27" d="M360.2,284.8c-0.4,1.6-0.4,3.4,1,4.5c1.5,1.4,3.6,1.2,5-0.1c2.5-2.4,2.4-6.2-0.6-8c-0.7-0.5,0.1-1,0.7-0.6
			c4,2.4,4.1,8.8-0.7,10.4c-4.2,1.4-7.6-2.9-6.6-6.8C359.2,283.6,360.4,284.2,360.2,284.8L360.2,284.8z"/>
	</g>
	<path class="st18" d="M361.8,254.2c3.6,1.5,10.1,4.2,8,14.8c-0.2,1-1,3.9-1,3.9l-17.5-5l1.5-8l-3.5,7.5l-6.3-1.7
		C342.8,265.6,348.5,248.7,361.8,254.2z"/>
	<path class="st19" d="M361.4,407.6c-11.9,4.6-29.5,2-48.4-5.5c-8.3-3.2-22.3-13.6-24.9-29.9c-1.9-11.9,12.4-10.1,21.5-8.1
		c14.6,3.2,58.1,30.1,58.1,30.1S364.8,406.4,361.4,407.6z"/>
	<polygon class="st20" points="287.2,646.4 296.5,646.4 308.9,433.5 287.2,433.5 	"/>
	<rect x="284.1" y="433.5" class="st20" width="3.2" height="213"/>
	<polygon class="st20" points="223.1,646.4 232.3,646.4 232.3,434.4 210.5,434.4 	"/>
	<polygon class="st20" points="219.7,646.4 223.1,646.4 210.5,433.5 207.3,433.5 	"/>
	<rect x="221.4" y="634.1" class="st20" width="65.8" height="12.3"/>
	<g>
		<polygon class="st29" points="196.6,438 609.5,438 617.9,422.8 184.4,422.8 		"/>
	</g>
	<g>
		
			<linearGradient id="SVGID_1_" gradientUnits="userSpaceOnUse" x1="363.4931" y1="-6361.2998" x2="459.7" y2="-6361.2998" gradientTransform="matrix(1 0 0 -1 0 -5944)">
			<stop  offset="7.000000e-02" style="stop-color:#E6E7E8"/>
			<stop  offset="0.8" style="stop-color:#6D6E71"/>
		</linearGradient>
		<path class="st30" d="M365.8,421.9l66.7,1.1l27.2-9.8l-93.7-1.6c-1.4,0-2.4,1-2.4,2.4l-0.1,5.5
			C363.4,420.8,364.4,421.9,365.8,421.9z"/>
		
			<linearGradient id="SVGID_2_" gradientUnits="userSpaceOnUse" x1="439.3307" y1="-6289.7739" x2="582.1232" y2="-6328.0352" gradientTransform="matrix(1 0 0 -1 0 -5944)">
			<stop  offset="9.366561e-02" style="stop-color:#E6E7E8"/>
			<stop  offset="0.2294" style="stop-color:#DADBDD"/>
			<stop  offset="0.4722" style="stop-color:#BCBDBE"/>
			<stop  offset="0.7918" style="stop-color:#8A8B8D"/>
			<stop  offset="0.9597" style="stop-color:#6D6E71"/>
		</linearGradient>
		<path class="st31" d="M427.7,423.2l139.8,0.1c2.5,0,4.6-1.7,5.2-4.1l26.9-105.4c0.9-3.5-1.6-6.8-5.1-6.8l-140.1-2.5
			c-2.5,0-4.6,1.7-5.1,4.1L427.7,423.2z"/>
		
			<rect x="413.5" y="411.5" transform="matrix(1.751778e-02 -0.9998 0.9998 1.751778e-02 -10.5357 826.0718)" class="st17" width="3.2" height="13.8"/>
		
			<rect x="389" y="411" transform="matrix(1.751778e-02 -0.9998 0.9998 1.751778e-02 -34.0932 801.116)" class="st17" width="3.2" height="13.8"/>
		
			<ellipse transform="matrix(1.753171e-02 -0.9998 0.9998 1.753171e-02 -47.4414 787.0405)" class="st17" cx="376.8" cy="417.7" rx="1.7" ry="1.7"/>
		<g>
			<polygon class="st25" points="525.4,376.5 537.7,369.2 538.6,365.5 519.7,376.6 			"/>
			<polygon class="st27" points="524.3,353 510.7,353.2 516.4,357.6 			"/>
			<polygon class="st27" points="532.8,352.8 526.8,352.9 516.1,359.2 508.2,353.2 502.2,353.3 515.1,363.3 			"/>
			<polygon class="st25" points="491.7,360.6 490.8,364.6 506.6,376.8 517.3,376.6 539,363.8 539.9,359.8 512.1,376.3 			"/>
			<polygon class="st27" points="514.7,364.9 499.7,353.4 493.7,353.5 513.8,369 541.3,352.7 535.2,352.8 			"/>
			<polygon class="st25" points="504.2,376.9 490.4,366.2 489.5,370 498.6,376.9 			"/>
			<polygon class="st25" points="536.1,376.3 537.4,370.8 527.8,376.5 			"/>
			<polygon class="st25" points="493.1,354.9 492.1,359 512.5,374.6 540.3,358.2 541.3,354.1 513.4,370.6 			"/>
			<polygon class="st25" points="487.9,377.1 496.1,377 489.2,371.6 			"/>
			<polygon class="st32" points="526.8,352.9 524.3,353 516.4,357.6 510.7,353.2 508.2,353.2 516.1,359.2 			"/>
			<polygon class="st32" points="535.2,352.8 532.8,352.8 515.1,363.3 502.2,353.3 499.7,353.4 514.7,364.9 			"/>
			<polygon class="st32" points="493.7,353.5 493.4,353.5 493.1,354.9 513.4,370.6 541.3,354.1 541.6,352.7 541.3,352.7 513.8,369 
							"/>
			<polygon class="st32" points="492.1,359 491.7,360.6 512.1,376.3 539.9,359.8 540.3,358.2 512.5,374.6 			"/>
			<polygon class="st32" points="519.7,376.6 538.6,365.5 539,363.8 517.3,376.6 			"/>
			<polygon class="st32" points="506.6,376.8 490.8,364.6 490.4,366.2 504.2,376.9 			"/>
			<polygon class="st32" points="489.5,370 489.2,371.6 496.1,377 498.6,376.9 			"/>
			<polygon class="st32" points="527.8,376.5 537.4,370.8 537.7,369.2 525.4,376.5 			"/>
		</g>
	</g>
	<g>
		<path class="st23" d="M379.5,409.4c0,0,3.4-0.9,4.1-1.9c0.6-0.7,0.6-3.6,0.6-3.6s-6.2-4.1-9-4.5c-1-0.1-1.7,1.7-2.6,3.1
			c-0.2,0.2-0.1,1.5,1,2.6C375.6,407,379.5,409.4,379.5,409.4z"/>
		<path class="st23" d="M382.7,411.7L382.7,411.7c-1,0.5-2.1,0-2.6-1l-2.1-4.6l1.7-0.9L382.7,411.7L382.7,411.7z"/>
		<path class="st23" d="M383.8,412.7L383.8,412.7c-1,0.2-2.1-0.4-2.5-1.6l-1.6-5.6l1.9-0.5L383.8,412.7L383.8,412.7z"/>
		<path class="st23" d="M385.7,412.2L385.7,412.2c-1,0.4-2.2-0.2-2.6-1.5l-2-5.3l1.9-0.7L385.7,412.2L385.7,412.2z"/>
		<path class="st23" d="M390.2,409.9L390.2,409.9c-0.7,0.7-2.2,0.5-3.4-0.5l-5-5l2.4-0.5L390.2,409.9L390.2,409.9z"/>
	</g>
	<polygon class="st23" points="369.5,401.8 374.5,403.4 375.7,399.4 370.8,397.8 	"/>
	<polygon class="st19" points="363,404 370,406.4 372.7,397.7 365.9,395.4 	"/>
</g>
<polygon class="st24" points="550.5,229.7 550.4,229.9 550.4,229.7 "/>
</svg>
