<?xml version="1.0" encoding="utf-8"?>
<!-- Generator: Adobe Illustrator 21.0.0, SVG Export Plug-In . SVG Version: 6.00 Build 0)  -->
<svg version="1.1" id="Layer_1" xmlns="http://www.w3.org/2000/svg" xmlns:xlink="http://www.w3.org/1999/xlink" x="0px" y="0px"
	 viewBox="0 0 871 690" style="enable-background:new 0 0 871 690;" xml:space="preserve">
<style type="text/css">
	.st0{fill:#FEF0E0;}
	.st1{opacity:0.88;}
	.st2{opacity:0.77;}
	.st3{opacity:0.6;fill:#B8B8E8;enable-background:new    ;}
	.st4{opacity:0.74;}
	.st5{opacity:0.74;fill:url(#SVGID_1_);enable-background:new    ;}
	.st6{fill:url(#SVGID_2_);}
	.st7{fill:#E8443C;}
	.st8{fill:#E7A585;}
	.st9{fill:url(#SVGID_3_);}
	.st10{fill:#020203;}
	.st11{fill:url(#SVGID_4_);}
	.st12{fill:url(#SVGID_5_);}
	.st13{fill:url(#SVGID_6_);}
	.st14{fill:url(#SVGID_7_);}
	.st15{fill:#9595CB;}
	.st16{fill:#020202;}
	.st17{fill:#FF8888;}
	.st18{fill:url(#SVGID_8_);}
	.st19{fill:url(#SVGID_9_);}
	.st20{fill:url(#SVGID_10_);}
	.st21{fill:#523042;}
	.st22{opacity:0.44;}
	.st23{opacity:0.44;fill:url(#SVGID_11_);enable-background:new    ;}
	.st24{opacity:0.44;fill:url(#SVGID_12_);enable-background:new    ;}
	.st25{opacity:0.44;fill:url(#SVGID_13_);enable-background:new    ;}
	.st26{opacity:0.44;fill:url(#SVGID_14_);enable-background:new    ;}
	.st27{fill:#273271;}
	.st28{fill:#F2B3A5;}
	.st29{fill:#7F8080;}
	.st30{fill:#CCC9C5;}
	.st31{fill:#FFFFFF;}
	.st32{fill:#1A1D23;}
	.st33{fill:url(#SVGID_15_);}
	.st34{opacity:0.72;}
	.st35{opacity:0.72;fill:#FFFFFF;enable-background:new    ;}
	.st36{fill:#F6BC73;}
	.st37{fill:url(#SVGID_16_);}
	.st38{opacity:0.55;fill:url(#SVGID_17_);enable-background:new    ;}
	.st39{opacity:0.55;fill:url(#SVGID_18_);enable-background:new    ;}
	.st40{opacity:0.55;fill:url(#SVGID_19_);enable-background:new    ;}
	.st41{opacity:0.55;fill:url(#SVGID_20_);enable-background:new    ;}
	.st42{opacity:0.55;fill:url(#SVGID_21_);enable-background:new    ;}
	.st43{opacity:0.55;fill:url(#SVGID_22_);enable-background:new    ;}
	.st44{opacity:0.55;fill:url(#SVGID_23_);enable-background:new    ;}
	.st45{opacity:0.55;fill:url(#SVGID_24_);enable-background:new    ;}
	.st46{opacity:0.55;fill:url(#SVGID_25_);enable-background:new    ;}
	.st47{opacity:0.55;fill:url(#SVGID_26_);enable-background:new    ;}
	.st48{opacity:0.55;fill:#FFFFFF;enable-background:new    ;}
	.st49{fill:url(#SVGID_27_);}
</style>
<path class="st0" d="M440.4,182.1c70.7-2.9,135.1-3,192.2,27.9c56.5,30.6,68.2,82.4,90.1,134.5C742.4,391.1,833,466,844,520
	c13,56-7.5,89.7-68,110c-101.5,36.9-324.8,41.7-440.2,9.2c-78.6-21.1-193,54.6-247.9-11.8C12.6,489.7,120,425,123.4,329.1
	c3.8-106.4-48.9-136.1,9.9-184.9C245.4,79.1,361,185.2,440.4,182.1z"/>
<g class="st1">
	<g class="st2">
		<path class="st3" d="M468.1,346.1l-5-0.3c0-1.7-0.1-3.4-0.3-5l5-0.9c0.7-0.1,1.2-0.4,1.7-0.7c0.5-0.4,0.9-0.8,1.3-1.3
			s0.5-1.1,0.7-1.7c0.1-0.7,0.1-1.2,0-1.9c-0.1-0.7-0.4-1.2-0.7-1.7c-0.4-0.5-0.8-0.9-1.3-1.3s-1.1-0.5-1.7-0.7s-1.2-0.1-1.9,0
			l-5,0.9c-0.7-2.4-1.3-4.6-2.2-6.9l4.5-2.2c0.5-0.3,1.1-0.7,1.5-1.1c0.4-0.5,0.7-1.1,0.9-1.6c0.1-0.5,0.3-1.2,0.3-1.9
			s-0.3-1.2-0.5-1.7c-0.3-0.5-0.7-1.1-1.1-1.5c-0.5-0.4-1.1-0.7-1.6-0.9c-0.5-0.1-1.2-0.3-1.9-0.3c-0.7,0-1.2,0.3-1.7,0.5l-4.5,2.2
			c-0.9-1.6-2-3.2-3.2-4.6l3.8-3.3c0.9-0.8,1.5-2,1.6-3.2s-0.4-2.5-1.2-3.4c-0.8-0.9-2-1.5-3.2-1.6s-2.5,0.4-3.4,1.2l-3.8,3.4
			c-1.2-1.2-2.5-2.4-3.8-3.4l2.9-4.2c0.4-0.5,0.5-1.1,0.7-1.7c0.1-0.7,0.1-1.2,0-1.9c-0.1-0.7-0.4-1.2-0.7-1.7
			c-0.4-0.5-0.8-0.9-1.3-1.3s-1.1-0.5-1.7-0.7c-0.7-0.1-1.2-0.1-1.9,0c-0.7,0.1-1.2,0.4-1.7,0.7c-0.5,0.4-0.9,0.8-1.3,1.3l-2.9,4.2
			c-1.9-1.1-3.8-2.1-5.7-2.9l1.7-4.8c0.3-0.5,0.3-1.2,0.3-1.9c0-0.7-0.1-1.2-0.4-1.7s-0.7-1.1-1.1-1.5s-1.1-0.7-1.6-0.9
			c-0.5-0.3-1.2-0.3-1.9-0.3c-0.7,0-1.2,0.1-1.7,0.4s-1.1,0.7-1.5,1.1s-0.7,1.1-0.9,1.6l-1.7,5c-1.9-0.5-3.8-0.9-5.7-1.2l0.4-5
			c0-0.7,0-1.2-0.3-1.9c-0.1-0.5-0.5-1.1-0.9-1.6c-0.8-0.9-2-1.5-3.2-1.6s-2.5,0.3-3.4,1.1c-0.9,0.8-1.5,2-1.6,3.2l-0.4,5
			c-2.4,0-4.6,0.1-7,0.4l-1.1-5c-0.3-1.2-0.9-2.2-2-2.9c-1.1-0.7-2.2-0.9-3.6-0.7c-1.2,0.3-2.2,0.9-2.9,2s-0.9,2.2-0.7,3.6l1.1,5
			c-1.7,0.5-3.3,1.1-4.9,1.7l-2.2-4.6c-0.3-0.5-0.7-1.2-1.1-1.6s-1.1-0.8-1.6-1.1c-0.7-0.3-1.2-0.4-1.9-0.3c-0.7,0-1.3,0.1-1.9,0.5
			c-0.5,0.3-1.1,0.7-1.5,1.2s-0.7,1.1-0.9,1.7c-0.1,0.7-0.3,1.2-0.1,1.9c0.1,0.7,0.3,1.2,0.5,1.9l2.2,4.6c-1.9,1.1-3.7,2.2-5.4,3.6
			l-3.4-3.8c-0.8-0.9-2-1.5-3.2-1.6s-2.5,0.4-3.4,1.2c-0.9,0.8-1.5,2-1.6,3.2s0.4,2.5,1.2,3.4l3.4,3.8c-1.3,1.5-2.6,2.8-3.8,4.4
			l-4.2-2.8c-0.5-0.4-1.1-0.5-1.7-0.7c-0.7-0.1-1.2-0.1-1.9,0c-1.2,0.3-2.2,0.9-3,2c-0.7,1.1-0.9,2.2-0.7,3.6c0.3,1.2,0.9,2.2,2,3
			l4.2,2.8c-0.9,1.6-1.7,3.3-2.5,5l-4.8-1.7c-0.5-0.3-1.2-0.3-1.9-0.3c-0.7,0-1.2,0.1-1.7,0.4s-1.1,0.7-1.5,1.1s-0.7,1.1-0.9,1.6
			c-0.3,0.5-0.3,1.2-0.3,1.9c0,0.7,0.1,1.2,0.4,1.7s0.7,1.1,1.1,1.5s1.1,0.7,1.6,0.9l4.8,1.7c-0.5,2.1-1.1,4.2-1.3,6.5l-5-0.3
			c-1.2-0.1-2.5,0.4-3.4,1.2c-0.9,0.8-1.5,2-1.6,3.2s0.4,2.5,1.2,3.4c0.8,0.9,2,1.5,3.2,1.6l5,0.3c0,1.7,0.1,3.4,0.3,5l-5,0.9
			c-0.7,0.1-1.2,0.4-1.7,0.7c-0.5,0.4-0.9,0.8-1.3,1.3s-0.5,1.1-0.7,1.7c-0.1,0.7-0.1,1.2,0,1.9c0.1,0.7,0.4,1.2,0.7,1.7
			c0.4,0.5,0.8,0.9,1.3,1.3s1.1,0.5,1.7,0.7c0.7,0.1,1.2,0.1,1.9,0l5-0.9c0.7,2.4,1.3,4.6,2.2,6.9l-4.5,2.2
			c-0.5,0.3-1.1,0.7-1.5,1.1c-0.4,0.5-0.7,1.1-0.9,1.6c-0.1,0.5-0.3,1.2-0.3,1.9c0,0.7,0.3,1.2,0.5,1.7s0.7,1.1,1.1,1.5
			c0.5,0.4,1.1,0.7,1.6,0.9c0.5,0.1,1.2,0.3,1.9,0.3c0.7,0,1.2-0.3,1.7-0.5l4.5-2.2c0.9,1.6,2,3.2,3.2,4.6l-3.8,3.4
			c-0.4,0.4-0.8,0.9-1.1,1.5c-0.3,0.5-0.4,1.2-0.5,1.7c0,0.7,0,1.2,0.3,1.9c0.1,0.5,0.5,1.1,0.9,1.6c0.4,0.4,0.9,0.8,1.5,1.1
			c0.5,0.3,1.2,0.4,1.7,0.5c0.7,0,1.2,0,1.9-0.3c0.5-0.1,1.1-0.5,1.6-0.9l3.8-3.4c1.2,1.2,2.5,2.4,3.8,3.4l-2.9,4.2
			c-0.4,0.5-0.5,1.1-0.7,1.7c-0.1,0.7-0.1,1.2,0,1.9c0.1,0.7,0.4,1.2,0.7,1.7c0.4,0.5,0.8,0.9,1.3,1.3s1.1,0.5,1.7,0.7
			c0.7,0.1,1.2,0.1,1.9,0c0.7-0.1,1.2-0.4,1.7-0.7c0.5-0.4,0.9-0.8,1.3-1.3l2.9-4.2c1.9,1.1,3.8,2.1,5.7,2.9l-1.7,4.8
			c-0.3,0.5-0.3,1.2-0.3,1.9c0,0.7,0.1,1.2,0.4,1.7s0.7,1.1,1.1,1.5s1.1,0.7,1.6,0.9c0.5,0.3,1.2,0.3,1.9,0.3c0.7,0,1.2-0.1,1.7-0.5
			s1.1-0.7,1.5-1.1s0.7-1.1,0.9-1.6l1.7-4.8c1.9,0.5,3.8,0.9,5.7,1.2l-0.4,5c-0.1,1.2,0.3,2.5,1.1,3.4c0.8,0.9,2,1.5,3.2,1.6
			s2.5-0.3,3.4-1.1c0.9-0.8,1.5-2,1.6-3.2l0.4-5c2.4,0,4.6-0.1,7-0.4l1.1,5c0.1,0.7,0.4,1.2,0.7,1.7c0.4,0.5,0.8,0.9,1.3,1.3
			s1.1,0.5,1.7,0.7c0.7,0.1,1.2,0.1,1.9,0c0.7-0.1,1.2-0.4,1.7-0.7c0.5-0.4,0.9-0.8,1.3-1.3s0.5-1.1,0.7-1.7c0.1-0.7,0.1-1.2,0-1.9
			l-1.1-5c1.7-0.5,3.3-1.1,4.9-1.7l2.2,4.6c0.3,0.5,0.7,1.2,1.1,1.6s1.1,0.8,1.6,1.1c0.7,0.3,1.2,0.4,1.9,0.3c0.7,0,1.3-0.1,1.9-0.5
			c0.5-0.3,1.1-0.7,1.5-1.2s0.8-1.1,0.9-1.7c0.1-0.7,0.3-1.3,0.1-1.9c-0.1-0.7-0.3-1.2-0.5-1.9l-2.2-4.6c1.9-1.1,3.7-2.2,5.4-3.6
			l3.4,3.8c0.8,0.9,2,1.5,3.2,1.6s2.5-0.4,3.4-1.2c0.9-0.8,1.5-2,1.6-3.2s-0.4-2.5-1.2-3.4l-3.4-3.8c1.3-1.5,2.6-2.8,3.8-4.4
			l4.2,2.8c0.5,0.4,1.1,0.5,1.7,0.7c0.7,0.1,1.2,0.1,1.9,0c0.7-0.1,1.2-0.4,1.7-0.7c0.5-0.4,0.9-0.8,1.3-1.3s0.5-1.1,0.7-1.7
			c0.1-0.7,0.1-1.2,0-1.9c-0.1-0.7-0.4-1.2-0.7-1.7c-0.4-0.5-0.8-0.9-1.3-1.3l-4.2-2.8c0.9-1.6,1.7-3.3,2.5-5l4.8,1.7
			c1.2,0.4,2.5,0.4,3.6-0.3c1.1-0.5,2-1.5,2.4-2.6s0.4-2.5-0.3-3.6c-0.5-1.1-1.5-2-2.6-2.4l-4.8-1.7c0.5-2.1,0.9-4.2,1.3-6.5l5,0.3
			c1.2,0.1,2.5-0.4,3.4-1.2c0.9-0.8,1.5-2,1.6-3.2s-0.4-2.5-1.2-3.4C470.5,346.8,469.4,346.2,468.1,346.1L468.1,346.1z M412.8,296.5
			c7.1,1.2,13.9,3.8,20,7.9c6,4,11.1,9.3,15,15.4L427.6,330c-4-5.4-9.7-9.3-16.3-10.9L412.8,296.5z M403.5,295.8l-1.7,22.6
			c-6.9,0.7-13.4,3.8-18.1,8.9l-18.9-12.7c4.6-5.8,10.6-10.5,17.2-13.8C388.7,297.7,396.1,295.8,403.5,295.8L403.5,295.8z
			 M356.9,365.4c-2.1-5.6-3.3-11.4-3.6-17.2l0.5-9.4c0.9-5.8,2.8-11.4,5.6-16.5l18.9,12.7c-0.8,1.7-1.3,3.4-1.9,5.3l-0.5,9.4
			c0.1,1.9,0.5,3.7,1.1,5.6L356.9,365.4z M396,397.2c-7.1-1.2-13.9-4-20-7.9c-6-4-11.1-9.3-15-15.5l20.4-10.2
			c4,5.4,9.7,9.3,16.3,10.9L396,397.2z M404.3,359.5c-2.5,0-5-0.8-7-2.2c-2.1-1.5-3.7-3.4-4.6-5.8s-1.2-4.9-0.7-7.4s1.7-4.8,3.6-6.5
			s4.1-2.9,6.6-3.4s5-0.1,7.3,0.8s4.2,2.6,5.7,4.8c1.3,2.1,2.1,4.6,2.1,7.1c0,1.7-0.4,3.3-1.1,4.9s-1.6,2.9-2.8,4.1
			c-1.2,1.2-2.6,2.1-4.1,2.8C407.6,359.2,405.9,359.6,404.3,359.5L404.3,359.5z M405.2,397.8l1.7-22.8c6.9-0.7,13.4-3.8,18.1-8.9
			l18.9,12.7c-4.6,5.8-10.6,10.5-17.2,13.8C420.1,396,412.8,397.7,405.2,397.8L405.2,397.8z M454.9,354.7
			c-0.9,5.8-2.8,11.4-5.6,16.5l-18.9-12.7c0.8-1.7,1.3-3.4,1.9-5.3l0.5-9.4c-0.1-1.9-0.5-3.7-1.1-5.6l20.2-10.2
			c2.1,5.4,3.3,11.2,3.4,17.2L454.9,354.7z"/>
	</g>
	<g class="st4">
		
			<linearGradient id="SVGID_1_" gradientUnits="userSpaceOnUse" x1="269.3551" y1="-4272.9727" x2="296.6928" y2="-4272.9727" gradientTransform="matrix(1 0 0 -1 0 -3826.2227)">
			<stop  offset="3.000000e-02" style="stop-color:#B4BFEB"/>
			<stop  offset="0.37" style="stop-color:#C3CDF0"/>
			<stop  offset="1" style="stop-color:#E9EFFD"/>
		</linearGradient>
		<path class="st5" d="M296.6,448.4c0.9-7.5-4.4-14.3-11.9-15.2c-7.5-0.9-14.3,4.4-15.2,11.9s4.4,14.3,11.9,15.2
			C288.8,461.2,295.7,455.9,296.6,448.4z"/>
		<path class="st3" d="M410.5,452.9l-14.3-1.7c0.4-8.3-0.3-16.7-1.7-24.9l13.8-3.8c1.2-0.4,2.4-0.9,3.4-1.7c1.1-0.8,1.9-1.7,2.5-2.9
			c0.7-1.1,1.1-2.4,1.2-3.6c0.1-1.3,0.1-2.5-0.3-3.8c-0.4-1.2-0.9-2.4-1.7-3.4c-0.8-1.1-1.7-1.9-2.9-2.5c-1.1-0.7-2.4-1.1-3.6-1.2
			c-1.3-0.1-2.5-0.1-3.8,0.3l-13.8,3.8c-2.9-7.9-6.6-15.5-11.2-22.5l11.4-8.9c2-1.6,3.2-4,3.6-6.5c0.3-2.5-0.4-5-2-7
			s-3.8-3.3-6.4-3.7s-5,0.3-7.1,1.9l-11.4,8.9c-5.7-6.1-11.9-11.6-18.8-16.3l7.1-12.4c1.1-2.2,1.3-4.8,0.5-7.1s-2.4-4.4-4.5-5.6
			s-4.6-1.6-7.1-0.9c-2.4,0.5-4.5,2.1-5.8,4.1l-7.1,12.4c-7.7-3.6-15.6-6.2-23.8-7.9l1.9-14.3c0.1-1.3,0.1-2.6-0.1-3.8
			c-0.3-1.3-0.9-2.4-1.7-3.4c-0.8-1.1-1.7-1.9-2.9-2.5c-1.1-0.7-2.4-1.1-3.7-1.2c-1.3-0.1-2.6,0-3.8,0.3c-1.2,0.4-2.4,0.9-3.4,1.7
			c-1.1,0.8-1.9,1.9-2.5,2.9c-0.7,1.2-1.1,2.4-1.2,3.7l-1.9,14.3c-8.3-0.4-16.7,0.3-24.7,1.7l-3.8-13.8c-0.3-1.2-0.9-2.4-1.7-3.4
			c-0.8-1.1-1.7-1.9-2.9-2.5c-1.1-0.7-2.4-1.1-3.6-1.2c-1.3-0.1-2.5-0.1-3.8,0.3c-1.2,0.4-2.4,0.9-3.4,1.7c-1.1,0.8-1.9,1.9-2.5,2.9
			c-0.7,1.2-1.1,2.4-1.2,3.7c-0.1,1.3,0,2.6,0.4,3.8l3.8,13.9c-7.9,2.9-15.4,6.7-22.5,11.2l-8.9-11.4c-0.8-1.1-1.7-1.9-2.9-2.5
			c-1.1-0.7-2.4-1.1-3.6-1.3c-1.3-0.1-2.6-0.1-3.8,0.3s-2.4,0.9-3.4,1.7c-1.1,0.8-1.9,1.9-2.5,2.9c-0.7,1.2-1.1,2.4-1.2,3.7
			c-0.1,1.3,0,2.6,0.4,3.8c0.4,1.2,0.9,2.4,1.9,3.4l8.9,11.4c-6.1,5.7-11.5,11.9-16.3,18.8l-12.4-7.1c-1.1-0.7-2.4-1.1-3.6-1.3
			c-1.3-0.1-2.6-0.1-3.8,0.3c-1.2,0.3-2.4,0.9-3.4,1.7c-1.1,0.8-1.9,1.7-2.5,2.9c-0.7,1.2-1.1,2.4-1.2,3.7c-0.1,1.3,0,2.6,0.3,3.8
			c0.4,1.2,0.9,2.4,1.7,3.4c0.8,1.1,1.9,1.9,2.9,2.5l12.4,7.1c-3.6,7.7-6.2,15.6-7.9,23.8l-14.3-1.7c-1.3-0.1-2.6-0.1-3.8,0.1
			c-1.3,0.3-2.4,0.9-3.4,1.7c-1.1,0.8-1.9,1.7-2.5,2.9c-0.7,1.1-1.1,2.4-1.2,3.7c-0.1,1.3,0,2.6,0.3,3.8c0.4,1.2,0.9,2.4,1.7,3.4
			c0.8,1.1,1.9,1.9,2.9,2.5c1.2,0.7,2.4,1.1,3.7,1.2l14.3,1.7c-0.4,8.3,0.3,16.7,1.7,24.9l-13.8,3.8c-1.2,0.4-2.4,0.9-3.4,1.7
			c-1.1,0.8-1.9,1.7-2.5,2.9c-0.7,1.1-1.1,2.4-1.2,3.6c-0.1,1.3-0.1,2.5,0.3,3.8c0.4,1.2,0.9,2.4,1.7,3.4c0.8,1.1,1.7,1.9,2.9,2.5
			c1.1,0.7,2.4,1.1,3.6,1.2c1.3,0.1,2.5,0.1,3.8-0.3l13.9-3.8c2.9,7.8,6.6,15.4,11.2,22.5l-11.4,8.9c-1.1,0.8-1.9,1.7-2.5,2.9
			c-0.7,1.1-1.1,2.4-1.3,3.6c-0.1,1.3-0.1,2.6,0.3,3.8c0.4,1.2,0.9,2.4,1.7,3.4c0.8,1.1,1.9,1.9,2.9,2.5c1.2,0.7,2.4,1.1,3.7,1.2
			s2.6,0,3.8-0.4s2.4-0.9,3.4-1.9l11.4-8.9c5.7,6.1,11.9,11.6,18.8,16.4l-7.1,12.4c-1.1,2.2-1.3,4.8-0.5,7.1s2.4,4.4,4.5,5.6
			c2.1,1.2,4.6,1.6,7.1,0.9c2.4-0.5,4.5-2.1,5.8-4.1l7.1-12.4c7.7,3.6,15.6,6.2,23.8,7.9l-1.7,14.3c-0.3,2.5,0.5,5,2.1,7
			s3.8,3.3,6.4,3.6s5-0.4,7-1.9c2-1.6,3.3-3.8,3.7-6.4l1.7-14.3c8.3,0.4,16.7-0.3,24.7-1.7l3.8,13.8c0.3,1.2,0.9,2.4,1.7,3.4
			c0.8,1.1,1.7,1.9,2.9,2.5c1.1,0.7,2.4,1.1,3.6,1.2c1.3,0.1,2.5,0.1,3.8-0.3c1.2-0.4,2.4-0.9,3.4-1.7c1.1-0.8,1.9-1.9,2.5-2.9
			c0.7-1.2,1.1-2.4,1.2-3.7s0-2.6-0.4-3.8l-3.8-13.9c7.9-2.9,15.4-6.7,22.5-11.2l8.9,11.4c0.8,1.1,1.7,1.9,2.9,2.5
			c1.1,0.7,2.4,1.1,3.6,1.3c1.2,0.3,2.6,0.1,3.8-0.3s2.4-0.9,3.4-1.7c1.1-0.8,1.9-1.9,2.5-2.9c0.7-1.2,1.1-2.4,1.2-3.7
			s0-2.6-0.4-3.8s-0.9-2.4-1.9-3.4l-8.9-11.4c6.1-5.7,11.5-11.9,16.3-18.8l12.4,7.1c2.2,1.2,4.9,1.5,7.3,0.8s4.5-2.4,5.7-4.5
			c1.2-2.2,1.6-4.8,0.9-7.3s-2.2-4.5-4.4-5.8l-12.4-7.1c3.6-7.7,6.2-15.6,7.9-23.8l14.3,1.7c2.5,0.3,5-0.5,7-2.1s3.3-3.8,3.6-6.4
			c0.3-2.5-0.4-5-1.9-7C415.2,454.6,412.9,453.1,410.5,452.9L410.5,452.9z M212,398.1c2.2-3.3,5.6-6,9.3-7.4s7.9-1.9,11.9-1.1
			s7.5,2.8,10.5,5.7c2.8,2.9,4.8,6.6,5.4,10.6c0.8,4,0.3,8.1-1.3,11.8c-1.6,3.7-4.2,6.9-7.7,9.1c-3.4,2.2-7.4,3.3-11.4,3.3
			c-4.1,0-7.9-1.3-11.4-3.6c-2.2-1.6-4.1-3.4-5.6-5.7c-1.5-2.2-2.5-4.8-2.9-7.4c-0.5-2.6-0.5-5.4,0.1-7.9
			C209.4,402.9,210.4,400.3,212,398.1z M232.3,493.1c-3.7,1.7-7.8,2.2-11.8,1.7s-7.8-2.4-10.7-5.2c-3-2.8-5.2-6.4-6.1-10.2
			c-0.9-4-0.8-8.1,0.7-11.9c1.3-3.8,3.8-7.1,7.1-9.5s7.1-3.8,11.2-4c4.1-0.1,8.1,0.8,11.5,2.9s6.2,5.2,7.9,8.9
			c2.2,4.9,2.5,10.6,0.7,15.6C241,486.6,237.3,490.7,232.3,493.1L232.3,493.1z M293.7,361.2c4,0.5,7.8,2.2,10.9,4.9
			s5.3,6.2,6.4,10.1c1.1,4,0.9,8.1-0.3,11.9c-1.3,3.8-3.7,7.3-6.9,9.8c-3.2,2.5-7,4-11.1,4.2c-4.1,0.3-8.1-0.7-11.6-2.6
			c-3.6-2-6.4-5-8.2-8.6c-1.9-3.6-2.5-7.7-2-11.8c0.4-2.6,1.2-5.3,2.5-7.5s3-4.4,5.3-6.1c2.1-1.7,4.5-2.9,7.1-3.6
			C288.4,361,291,360.9,293.7,361.2z M272.4,532.1c-4-0.5-7.8-2.2-10.9-4.9c-3-2.6-5.3-6.2-6.4-10.1c-1.1-4-0.9-8.1,0.3-11.9
			c1.3-3.8,3.7-7.3,6.9-9.8s7-4,11.1-4.2c4.1-0.3,8.1,0.7,11.6,2.6c3.6,2,6.4,5,8.2,8.6c1.9,3.6,2.5,7.7,2,11.8
			c-0.7,5.4-3.4,10.3-7.8,13.6C283.2,531.4,277.8,532.8,272.4,532.1L272.4,532.1z M279.9,472.1c-5-0.7-9.7-2.8-13.5-6.1
			c-3.8-3.3-6.6-7.7-7.9-12.6s-1.2-10.1,0.4-14.8s4.5-9,8.6-12.2c4-3,8.7-4.9,13.9-5.3c5-0.4,10.1,0.8,14.4,3.3
			c4.4,2.5,7.9,6.2,10.2,10.7c2.2,4.5,3.2,9.7,2.5,14.6c-0.4,3.3-1.5,6.5-3.2,9.5s-3.8,5.4-6.5,7.5c-2.6,2.1-5.7,3.6-8.9,4.5
			C286.5,472.2,283.2,472.5,279.9,472.1L279.9,472.1z M333.8,400.3c3.7-1.7,7.8-2.2,11.8-1.7c4,0.7,7.8,2.4,10.7,5.2
			c3,2.8,5.2,6.4,6.1,10.2c0.9,4,0.8,8.1-0.7,11.9c-1.3,3.8-3.8,7.1-7.1,9.5c-3.3,2.4-7.1,3.8-11.2,4c-4.1,0.1-8.1-0.8-11.5-2.9
			s-6.2-5.2-7.9-8.9c-1.2-2.4-1.9-5-1.9-7.8c-0.1-2.6,0.3-5.4,1.2-7.9c0.9-2.5,2.4-4.9,4.1-6.9C329.1,403,331.3,401.4,333.8,400.3
			L333.8,400.3z M354,495.2c-2.2,3.3-5.6,6-9.3,7.4c-3.7,1.5-7.9,1.9-11.9,1.1s-7.5-2.8-10.5-5.7c-2.8-2.9-4.8-6.6-5.6-10.6
			c-0.8-4-0.3-8.1,1.3-11.8c1.6-3.7,4.2-6.9,7.7-9.1c3.4-2.2,7.4-3.4,11.4-3.3c4.1,0,7.9,1.3,11.4,3.6c4.5,3,7.5,7.8,8.6,13.1
			C358.3,485.3,357.2,490.7,354,495.2L354,495.2z"/>
	</g>
</g>
<linearGradient id="SVGID_2_" gradientUnits="userSpaceOnUse" x1="362.4714" y1="-4216.5063" x2="375.5124" y2="-4333.1611" gradientTransform="matrix(1 0 0 -1 0 -3826.2227)">
	<stop  offset="7.000000e-02" style="stop-color:#E9DDCC"/>
	<stop  offset="0.8" style="stop-color:#E58056"/>
</linearGradient>
<path class="st6" d="M378.6,489.9l-43-1.7l26.5-92.2l39.7,7.8L378.6,489.9z"/>
<path class="st7" d="M574.1,381.8c0-18.7-7.4-36.5-20.5-49.8c-13.2-13.2-31-20.6-49.6-20.6h-79.8c-18.7,0-36.5,7.4-49.6,20.6
	c-13.2,13.2-20.5,31.1-20.5,49.8V412l44.3,6.7v125.4l158.3-10.5v-124l17.7,3.8v-31.8L574.1,381.8L574.1,381.8z"/>
<path class="st8" d="M460.8,338.7c2.6,0,5.2-0.5,7.5-1.6c2.4-1.1,4.6-2.5,6.4-4.4c1.9-1.9,3.2-4.1,4.1-6.6s1.3-5,1.2-7.7l-2-41.4
	l-35.6,3.4l-1.1,38.2c-0.1,2.6,0.4,5.2,1.3,7.5c0.9,2.4,2.4,4.6,4.1,6.5c1.9,1.9,4,3.3,6.4,4.4C455.8,338.2,458.3,338.7,460.8,338.7
	z"/>
<path class="st8" d="M496.3,263.1c0,1.3-0.3,2.5-0.8,3.7s-1.3,2.2-2.4,3s-2.1,1.5-3.4,1.7c-1.3,0.3-2.5,0.3-3.8,0l-0.3-0.1l-0.4-0.1
	l-0.5-0.1c-0.3-0.1-0.7-0.3-0.9-0.4c-1.7-0.8-3-2.2-3.8-3.8c-0.3,0.3-0.7,0.5-0.9,0.8c-1.3,1.5-2.8,2.8-4.4,4
	c-5.6,4.2-16.8,3.7-20.9-1.7c-1.1-1.5-2.8-2.5-4.5-2.9c-2-0.3-4,0-5.7,1.1c-3.2,1.7-5,1.1-6.2-0.8c-0.3-0.5-0.5-1.1-0.8-1.6
	c-2-4-2.9-8.2-2.9-12.6c0.1-7.4,3.2-14.4,8.5-19.6s12.3-8.1,19.7-8.1c7.4,0,14.4,2.9,19.7,8.1c5.3,5.2,8.3,12.2,8.5,19.6
	c0,0.4,0,0.9,0,1.3c1.9,0.5,3.4,1.6,4.6,3C495.6,259.3,496.3,261.1,496.3,263.1z"/>
<linearGradient id="SVGID_3_" gradientUnits="userSpaceOnUse" x1="661.1198" y1="-7659.2188" x2="649.4738" y2="-7452.3887" gradientTransform="matrix(1 0 0 -1 0 -3826.2227)">
	<stop  offset="7.000000e-02" style="stop-color:#EBDECE"/>
	<stop  offset="0.8" style="stop-color:#E58056"/>
</linearGradient>
<path class="st9" d="M483.7,270.8c-2.9,3.6-6.5,6.5-10.7,8.3c-4.2,1.9-8.7,2.6-13.4,2.4s-9-1.7-13-4.2c-3.8-2.4-7.1-5.8-9.4-9.8
	c1.2,1.7,3,2.5,6.2,0.8c1.7-1.1,3.7-1.3,5.7-1.1c1.9,0.4,3.4,1.3,4.5,2.9c4.1,5.3,15.4,5.8,20.9,1.7c1.6-1.2,3-2.5,4.4-4
	c0.3-0.3,0.5-0.5,0.9-0.8C480.7,268.7,482.1,270,483.7,270.8z"/>
<path class="st10" d="M485.8,271.6l-3.2,13c-4.1,15.6-21.4,25.7-38.8,22.4c-8.9-1.7-13.9-9.1-13.6-22.1s2.9-18.4,4.4-23
	c0.4,1.5,1.1,2.8,1.7,4.1c0.3,0.5,0.5,1.1,0.8,1.6c1.2,1.7,3,2.5,6.2,0.8c1.7-1.1,3.7-1.3,5.7-1.1c1.9,0.4,3.4,1.3,4.5,2.9
	c4.1,5.3,15.4,5.8,20.9,1.7c1.6-1.2,3-2.5,4.4-4c0.3-0.3,0.5-0.5,0.9-0.8c0.8,1.7,2.1,3,3.8,3.8c0.3,0.1,0.7,0.3,0.9,0.4
	c0.1,0,0.3,0.1,0.5,0.1c0.1,0,0.3,0.1,0.4,0.1L485.8,271.6L485.8,271.6z"/>
<path class="st10" d="M443.3,217.7c9.5-1.2,25.1,2.6,36.1,4c5.6,0.7,10.3,3.4,11.5,7.5c1.2,4,1.7,18.3-1.3,25.4
	c-1.3-0.3-2.8-0.3-4.1,0c-1.3,0.4-2.6,1.1-3.6,2c-1.5-3.8-0.3-11.8-16.5-14.6c-5,1.6-10.1,2.5-15.4,3c-8.2,1.1-17.9-3.2-18.8-10.9
	C430.2,226.7,435,218.7,443.3,217.7z"/>
<linearGradient id="SVGID_4_" gradientUnits="userSpaceOnUse" x1="398.2" y1="-4242.5225" x2="514" y2="-4242.5225" gradientTransform="matrix(1 0 0 -1 0 -3826.2227)">
	<stop  offset="0" style="stop-color:#FFFFFF"/>
	<stop  offset="1" style="stop-color:#FFFFFF"/>
</linearGradient>
<path class="st11" d="M514,414.4H398.2v3.8H514V414.4z"/>
<linearGradient id="SVGID_5_" gradientUnits="userSpaceOnUse" x1="29224.9902" y1="-4255.8228" x2="42021.7188" y2="-4255.8228" gradientTransform="matrix(1 0 0 -1 0 -3826.2227)">
	<stop  offset="0" style="stop-color:#FFFFFF"/>
	<stop  offset="1" style="stop-color:#FFFFFF"/>
</linearGradient>
<path class="st12" d="M514,427.7H398.2v3.8H514V427.7z"/>
<linearGradient id="SVGID_6_" gradientUnits="userSpaceOnUse" x1="29224.9902" y1="-4269.1226" x2="42021.7188" y2="-4269.1226" gradientTransform="matrix(1 0 0 -1 0 -3826.2227)">
	<stop  offset="0" style="stop-color:#FFFFFF"/>
	<stop  offset="1" style="stop-color:#FFFFFF"/>
</linearGradient>
<path class="st13" d="M514,441H398.2v3.8H514V441z"/>
<linearGradient id="SVGID_7_" gradientUnits="userSpaceOnUse" x1="29224.9902" y1="-4282.4229" x2="42021.7188" y2="-4282.4229" gradientTransform="matrix(1 0 0 -1 0 -3826.2227)">
	<stop  offset="0" style="stop-color:#FFFFFF"/>
	<stop  offset="1" style="stop-color:#FFFFFF"/>
</linearGradient>
<path class="st14" d="M514,454.3H398.2v3.8H514V454.3z"/>
<path class="st15" d="M662.7,570.9H496V469.7c0-29.2,1.9-52.9,31.1-52.9h95.3c10.7,0,21,4.2,28.7,11.9c7.5,7.7,11.9,18,11.9,28.7
	L662.7,570.9z"/>
<path class="st16" d="M521,332.3c0,0-9.1,2.5-8.3,14.2c0.7,9.9,0.3,62.7,0,78.9c0,4.5,0.9,9.4,4.2,12.4c2.8,2.5,3.2,4.5,20.8,5.3
	c27.3,1.3,15.9-58.9,15.9-58.9L521,332.3z"/>
<path class="st17" d="M552.5,416.9h9.3c20.2,0,39.6,8.1,53.9,22.4c14.3,14.3,22.4,33.7,22.4,54v76.9H476.4v-76.9
	c0-10.1,2-20,5.8-29.2s9.4-17.6,16.5-24.7c7-7.1,15.5-12.7,24.7-16.5C532.7,418.9,542.6,416.9,552.5,416.9z"/>
<path class="st17" d="M608.8,484.5h27.9c0.4,0,0.7,0.1,0.9,0.4s0.4,0.5,0.4,0.9v84.7h-29.2L608.8,484.5L608.8,484.5z"/>
<linearGradient id="SVGID_8_" gradientUnits="userSpaceOnUse" x1="15869.502" y1="-24395.8965" x2="18682.9824" y2="-28063.7871" gradientTransform="matrix(1 0 0 -1 0 -3826.2227)">
	<stop  offset="7.000000e-02" style="stop-color:#E9DDCC"/>
	<stop  offset="0.8" style="stop-color:#E58056"/>
</linearGradient>
<path class="st18" d="M501.4,482.5h-29.5v65.6h29.5V482.5z"/>
<linearGradient id="SVGID_9_" gradientUnits="userSpaceOnUse" x1="679.0659" y1="-25822.8945" x2="661.7311" y2="-22786.4746" gradientTransform="matrix(1 0 0 -1 0 -3826.2227)">
	<stop  offset="7.000000e-02" style="stop-color:#E9DDCC"/>
	<stop  offset="0.8" style="stop-color:#E58056"/>
</linearGradient>
<path class="st19" d="M539.1,428.3c0,2.1,0.4,4.1,1.2,6s2,3.6,3.4,5c1.5,1.5,3.2,2.6,5,3.4s4,1.2,6,1.2h2.2c2.1,0,4.1-0.4,6-1.2
	s3.6-2,5-3.4s2.6-3.2,3.4-5c0.8-1.9,1.2-4,1.2-6v-46.7H539L539.1,428.3L539.1,428.3z"/>
<linearGradient id="SVGID_10_" gradientUnits="userSpaceOnUse" x1="606.3748" y1="-23882.9727" x2="594.9952" y2="-20082.0898" gradientTransform="matrix(1 0 0 -1 0 -3826.2227)">
	<stop  offset="7.000000e-02" style="stop-color:#E9DDCC"/>
	<stop  offset="0.8" style="stop-color:#E58056"/>
</linearGradient>
<path class="st20" d="M547.4,391.9c18.3,0,33.2-14.8,33.2-33.2s-14.8-33.2-33.2-33.2c-18.3,0-33.2,14.8-33.2,33.2
	C514.3,377.1,529.1,391.9,547.4,391.9z"/>
<path class="st21" d="M579.6,338.2c6.4,0,11.4-5.2,11.4-11.4c0-6.4-5.2-11.4-11.4-11.4c-6.4,0-11.4,5.2-11.4,11.4
	C568.3,333,573.4,338.2,579.6,338.2z"/>
<path class="st21" d="M517.7,333.1c0,0,11.6,21.7,34.1,24.2s1.2,22.5,1.7,34.3c0.9,21,9.1,54.9,43.4,53.3
	c13.5-0.7,21.3-6.7,25.8-13.8c3.2-5.2,4.8-11.1,4.6-17.1c-0.1-6.1-2.1-11.9-5.4-16.8c-13-19.2-45.8-66.8-50.8-70
	C564.4,323.1,518.5,322.3,517.7,333.1z"/>
<g class="st22">
	
		<linearGradient id="SVGID_11_" gradientUnits="userSpaceOnUse" x1="37546.3555" y1="-4348.5728" x2="48342.4023" y2="-4348.5728" gradientTransform="matrix(1 0 0 -1 0 -3826.2227)">
		<stop  offset="0" style="stop-color:#FFFFFF"/>
		<stop  offset="1" style="stop-color:#FFFFFF"/>
	</linearGradient>
	<path class="st23" d="M608.8,521.4H502.4v1.9h106.4V521.4z"/>
</g>
<g class="st22">
	
		<linearGradient id="SVGID_12_" gradientUnits="userSpaceOnUse" x1="37546.3555" y1="-4360.7725" x2="48342.4023" y2="-4360.7725" gradientTransform="matrix(1 0 0 -1 0 -3826.2227)">
		<stop  offset="0" style="stop-color:#FFFFFF"/>
		<stop  offset="1" style="stop-color:#FFFFFF"/>
	</linearGradient>
	<path class="st24" d="M608.8,533.6H502.4v1.9h106.4V533.6z"/>
</g>
<g class="st22">
	
		<linearGradient id="SVGID_13_" gradientUnits="userSpaceOnUse" x1="37546.3555" y1="-4373.0728" x2="48342.4023" y2="-4373.0728" gradientTransform="matrix(1 0 0 -1 0 -3826.2227)">
		<stop  offset="0" style="stop-color:#FFFFFF"/>
		<stop  offset="1" style="stop-color:#FFFFFF"/>
	</linearGradient>
	<path class="st25" d="M608.8,545.9H502.4v1.9h106.4V545.9z"/>
</g>
<g class="st22">
	
		<linearGradient id="SVGID_14_" gradientUnits="userSpaceOnUse" x1="37546.3555" y1="-4385.2725" x2="48342.4023" y2="-4385.2725" gradientTransform="matrix(1 0 0 -1 0 -3826.2227)">
		<stop  offset="0" style="stop-color:#FFFFFF"/>
		<stop  offset="1" style="stop-color:#FFFFFF"/>
	</linearGradient>
	<path class="st26" d="M608.8,558.1H502.4v1.9h106.4V558.1z"/>
</g>
<path class="st27" d="M414.6,538.6c3.4,0,6.9-0.9,9.8-2.6c2.9-1.7,5.4-4.2,7.1-7.3c1.7-3,2.5-6.4,2.5-9.9c0-3.6-1.1-6.9-2.8-9.8
	l-58.1-95.3c-1.3-2.1-3-4.1-5.2-5.6c-2.1-1.5-4.4-2.6-6.9-3.2c-2.5-0.7-5-0.7-7.5-0.3c-2.5,0.4-4.9,1.3-7.1,2.6
	c-2.1,1.3-4.1,3-5.6,5.2c-1.5,2.1-2.6,4.4-3.2,6.9c-0.5,2.5-0.7,5-0.3,7.5c0.4,2.5,1.3,4.9,2.6,7.1l58.1,95.3
	c1.7,2.9,4.2,5.2,7.1,6.9C408,537.7,411.3,538.6,414.6,538.6z"/>
<path class="st27" d="M349.3,402.7h-67.8c-20.5,0-29.8,19.8-29,32.4l15.6,128c0.3,2.9,1.7,5.6,3.8,7.5c2.1,2,5,3,7.9,2.9l80.3-0.7
	c2.9,0,5.8-1.2,7.9-3.2s3.4-4.8,3.7-7.8l5.2-124.1C378.4,418.5,371.8,402.7,349.3,402.7z"/>
<path class="st28" d="M342.9,546.4c-5-1.3-9.8-2.9-15-1.5c-1.5,0.3-2.8,0.5-4.2,0.7l-24.5-4.8l0.8,19.1l22.8-0.3h6.7H366
	C366.2,555.8,355.2,549.9,342.9,546.4z"/>
<path class="st27" d="M301.6,570l-81.1-0.4c-4.9,0-9.5-1.7-13.2-4.9c-3-2.6-5-6.2-6-10.2s-0.5-8.1,1.1-11.8l52.8-122.1
	c2-4.5,5.6-7.9,9.9-9.8c4.5-1.9,9.5-1.9,14-0.1c2.4,0.9,4.5,2.2,6.2,4c1.7,1.7,3.2,3.8,4.1,6.1c0.9,2.2,1.5,4.8,1.5,7.3
	s-0.5,5-1.5,7.3l-40.5,96.1l53.2,9.3L301.6,570z"/>
<path class="st29" d="M388.4,570h-79.3v-0.5c0-2.5,1.1-5,2.8-6.7c1.9-1.9,4.2-2.8,6.7-2.8h69.7L388.4,570L388.4,570z"/>
<path class="st30" d="M382.1,570h119.5c3.3,0,6.6-1.1,9.3-3.2c2.6-2,4.6-4.9,5.6-8.1l23.3-83.8c0.5-1.7,0.5-3.6,0.3-5.3
	c-0.4-1.7-1.1-3.4-2.1-4.9c-1.1-1.5-2.5-2.6-4.1-3.4s-3.3-1.2-5.2-1.2H420.3c-2.2,0-4.4,0.8-6.2,2.1c-1.7,1.3-3,3.3-3.6,5.4
	L382.1,570z"/>
<path class="st31" d="M465.8,530.4c6.2,0,11.2-5,11.2-11.4c0-6.2-5-11.4-11.2-11.4s-11.2,5-11.2,11.4
	C454.5,525.3,459.5,530.4,465.8,530.4z"/>
<path class="st32" d="M357.2,393.1l-79.4,1.6l3.6-41c0.3-5.3,1.3-10.5,2.9-15.5c5.8-16,18.8-27.9,34.7-27.9
	c19.1,0.1,33.5,15,35.6,37.2C355.9,359.9,357.2,393.1,357.2,393.1z"/>
<path class="st28" d="M303.6,364.5h32v44.3c0,4-1.6,7.8-4.4,10.6c-2.8,2.8-6.6,4.4-10.6,4.4h-1.9c-4,0-7.8-1.6-10.6-4.4
	c-2.8-2.8-4.4-6.6-4.4-10.6L303.6,364.5L303.6,364.5z"/>
<path class="st17" d="M344.5,365.4l-7.7,12.8h14.4L344.5,365.4z"/>
<linearGradient id="SVGID_15_" gradientUnits="userSpaceOnUse" x1="91967.1094" y1="-4179.1226" x2="93458.3281" y2="-4179.1226" gradientTransform="matrix(1 0 0 -1 0 -3826.2227)">
	<stop  offset="0" style="stop-color:#F2B3A5"/>
	<stop  offset="0.32" style="stop-color:#F2B5A8"/>
	<stop  offset="0.51" style="stop-color:#F4BCB0"/>
	<stop  offset="0.67" style="stop-color:#F6C8BE"/>
	<stop  offset="0.8" style="stop-color:#F9D9D2"/>
	<stop  offset="0.93" style="stop-color:#FCEFEC"/>
	<stop  offset="1" style="stop-color:#FFFFFF"/>
</linearGradient>
<path class="st33" d="M320.8,382.5c16.4,0,29.6-13.2,29.6-29.6s-13.2-29.6-29.6-29.6s-29.6,13.2-29.6,29.6
	C291.2,369.3,304.5,382.5,320.8,382.5z"/>
<path class="st32" d="M351.2,346.2c-11-1.9-15.9-3.2-28.8-3.2l0.3-21.6l24.1,3.2L351.2,346.2z"/>
<path class="st32" d="M304,324c-3.7,1.7-9.3,7.4-11.2,10.9c-1.9,3.4-3.8,10.7-4.5,14.4c-1.6,8.2-2.5,33.3-2.5,33.3l15.4,0.8
	c0,0-1.3-11.5-1.2-15.2c0-0.5,0-1.1,0.1-1.7c-2.5-0.8-4.5-2.4-5.8-4.6c-1.2-2.2-1.6-4.9-0.9-7.4s2.2-4.6,4.4-6
	c2.1-1.3,4.8-1.9,7.3-1.3c4.9-1.3,11.5-7,13.6-10.7c1.9-3.2,6.5-13.4,6.5-13.4S309.2,321.7,304,324z"/>
<path class="st17" d="M297.5,366.6c1.6,0,2.9-1.3,2.9-2.9s-1.3-2.9-2.9-2.9s-2.9,1.3-2.9,2.9C294.6,365.3,295.9,366.6,297.5,366.6z"
	/>
<path class="st17" d="M297.5,364.5l-7.7,12.8h14.4L297.5,364.5z"/>
<g class="st34">
	<path class="st35" d="M305.7,460.2c1.1,0,2-0.9,2-2s-0.9-2-2-2s-2,0.9-2,2S304.5,460.2,305.7,460.2z"/>
	<path class="st35" d="M279.9,507.8c1.1,0,2-0.9,2-2s-0.9-2-2-2s-2,0.9-2,2S278.7,507.8,279.9,507.8z"/>
	<path class="st35" d="M353,484.5c1.1,0,2-0.9,2-2s-0.9-2-2-2s-2,0.9-2,2S351.8,484.5,353,484.5z"/>
	<path class="st35" d="M318.8,501.1c1.1,0,2-0.9,2-2s-0.9-2-2-2s-2,0.9-2,2C316.8,500.1,317.6,501.1,318.8,501.1z"/>
	<path class="st35" d="M354.9,537c1.1,0,2-0.9,2-2s-0.9-2-2-2s-2,0.9-2,2C353,536.1,353.9,537,354.9,537z"/>
	<path class="st35" d="M250.5,483.5c1.1,0,2-0.9,2-2s-0.9-2-2-2s-2,0.9-2,2C248.6,482.5,249.5,483.5,250.5,483.5z"/>
	<path class="st35" d="M267.3,436.3c1.1,0,2-0.9,2-2s-0.9-2-2-2s-2,0.9-2,2S266.3,436.3,267.3,436.3z"/>
	<path class="st35" d="M354.9,429.5c1.1,0,2-0.9,2-2s-0.9-2-2-2s-2,0.9-2,2C353,428.5,353.9,429.5,354.9,429.5z"/>
	<path class="st35" d="M387.6,462.3c1.1,0,2-0.9,2-2s-0.9-2-2-2s-2,0.9-2,2S386.4,462.3,387.6,462.3z"/>
	<path class="st35" d="M220.6,517.2c1.1,0,2-0.9,2-2s-0.9-2-2-2s-2,0.9-2,2S219.6,517.2,220.6,517.2z"/>
	<path class="st35" d="M244.3,555.8c1.1,0,2-0.9,2-2s-0.9-2-2-2s-2,0.9-2,2C242.3,554.9,243.1,555.8,244.3,555.8z"/>
	<path class="st35" d="M275.8,544.7c1.1,0,2-0.9,2-2s-0.9-2-2-2s-2,0.9-2,2S274.8,544.7,275.8,544.7z"/>
</g>
<path class="st15" d="M150.8,583.9h570.1c3.3,0,6.1-3.2,6.1-7s-2.6-7-6.1-7H150.8c-3.3,0-6.1,3.2-6.1,7l0,0
	C144.7,580.8,147.5,583.9,150.8,583.9z"/>
<g>
	<path class="st17" d="M355.3,93.7v52.7c0,12.2,6,22.6,14.2,26.6c1.5,0.8,35.7,1.3,37.3,1.6l22.6,24.6l0.1-24.3h24.1
		c12,0,21.8-12.7,21.8-28.5V93.7c0-15.7-9.8-28.5-21.8-28.5h-76.5C365.1,65.2,355.3,77.9,355.3,93.7z"/>
	<g>
		<path class="st36" d="M439.1,110.6c-0.1-4.1-1.5-8.2-3.6-11.6c-2.2-3.6-5.3-6.4-8.9-8.3c-3.6-2-7.7-3-11.8-3
			c-4.1,0-8.2,1.1-11.8,3.2c-3.6,2-6.6,5-8.7,8.5c-2.1,3.6-3.3,7.5-3.4,11.6s0.8,8.2,2.6,11.9c1.9,3.7,4.6,6.7,8.1,9.1
			c1.5,0.9,2.8,2.2,3.7,3.8c0.9,1.6,1.5,3.3,1.5,5l0.3,4.8l18.5-0.9l-0.3-4.2c-0.1-1.9,0.3-3.6,0.9-5.3c0.8-1.6,1.9-3,3.3-4.2
			c3.2-2.4,5.6-5.4,7.3-9C438.4,118.4,439.2,114.5,439.1,110.6z"/>
		
			<linearGradient id="SVGID_16_" gradientUnits="userSpaceOnUse" x1="194.3922" y1="-4172.7524" x2="194.3922" y2="-4176.4116" gradientTransform="matrix(0.9989 -4.712182e-02 -4.712182e-02 -0.9989 25.0799 -4013.9084)">
			<stop  offset="7.000000e-02" style="stop-color:#B4AFB9"/>
			<stop  offset="0.17" style="stop-color:#A7A5B6"/>
			<stop  offset="0.44" style="stop-color:#898DB0"/>
			<stop  offset="0.68" style="stop-color:#777EAC"/>
			<stop  offset="0.84" style="stop-color:#7079AB"/>
		</linearGradient>
		<path class="st37" d="M425.5,144.8l-19.2,0.9c-0.7,0-1.1,0.5-1.1,1.2v0.1c0,0.7,0.5,1.1,1.2,1.1l19.2-0.9c0.7,0,1.1-0.5,1.1-1.2
			v-0.1C426.7,145.2,426.1,144.6,425.5,144.8z"/>
		<path class="st30" d="M425.6,147.2l-19.2,0.9c-0.7,0-1.1,0.5-1.1,1.2v0.1c0,0.7,0.5,1.1,1.2,1.1l19.2-0.9c0.7,0,1.1-0.5,1.1-1.2
			v-0.1C426.8,147.5,426.3,147,425.6,147.2z"/>
		<path class="st30" d="M425.7,149.5l-19.2,0.9c-0.7,0-1.1,0.5-1.1,1.2v0.1c0,0.7,0.5,1.1,1.2,1.1l19.2-0.9c0.7,0,1.1-0.5,1.1-1.2
			v-0.1C426.8,149.9,426.3,149.4,425.7,149.5z"/>
		<path class="st30" d="M425.9,151.9l-19.2,0.9c-0.7,0-1.1,0.5-1.1,1.2v0.1c0,0.7,0.5,1.1,1.2,1.1l19.2-0.9c0.7,0,1.1-0.5,1.1-1.2
			V153C426.9,152.3,426.4,151.9,425.9,151.9z"/>
		<path class="st30" d="M406.8,155.4l18.9-0.9c0.1,0,0.4,0,0.5,0.1s0.3,0.3,0.3,0.4v0.4c0.1,1.5-0.4,2.9-1.5,4
			c-0.9,1.1-2.4,1.7-3.8,1.9l-9.3,0.4c-1.5,0.1-2.9-0.4-4-1.5c-1.1-0.9-1.7-2.4-1.9-3.8V156c0-0.1,0-0.1,0-0.3s0.1-0.1,0.1-0.3
			c0,0,0.1-0.1,0.3-0.1C406.7,155.4,406.8,155.4,406.8,155.4z"/>
		<g>
			
				<linearGradient id="SVGID_17_" gradientUnits="userSpaceOnUse" x1="386.968" y1="2397.3" x2="392.6581" y2="2397.3" gradientTransform="matrix(1 0 0 1 0 -2308)">
				<stop  offset="0" style="stop-color:#FFFFFF"/>
				<stop  offset="1" style="stop-color:#FFFFFF"/>
			</linearGradient>
			<path class="st38" d="M392,91.8h-0.1c0,0-0.1,0-0.1-0.1l-4.6-4.4l-0.1-0.1v-0.1c0-0.1,0-0.3,0.1-0.4s0.3-0.1,0.4-0.1
				s0.3,0,0.4,0.1l4.6,4.4c0.1,0,0.1,0.1,0.1,0.3c0,0.1,0,0.1,0,0.3c0,0.1-0.1,0.1-0.1,0.3C392.3,91.8,392.1,91.8,392,91.8L392,91.8
				z"/>
			
				<linearGradient id="SVGID_18_" gradientUnits="userSpaceOnUse" x1="435.268" y1="2443.8501" x2="440.8258" y2="2443.8501" gradientTransform="matrix(1 0 0 1 0 -2308)">
				<stop  offset="0" style="stop-color:#FFFFFF"/>
				<stop  offset="1" style="stop-color:#FFFFFF"/>
			</linearGradient>
			<path class="st39" d="M440.3,138.6c-0.1,0-0.1,0-0.3,0c0,0-0.1,0-0.1-0.1l-4.5-4.5c-0.1-0.1-0.1-0.3-0.1-0.4s0-0.3,0.1-0.4
				s0.3-0.1,0.4-0.1s0.3,0,0.4,0.1l4.5,4.5c0.1,0.1,0.1,0.1,0.1,0.3c0,0.1,0,0.1,0,0.3c0,0.1-0.1,0.1-0.1,0.3
				C440.6,138.6,440.4,138.6,440.3,138.6z"/>
			
				<linearGradient id="SVGID_19_" gradientUnits="userSpaceOnUse" x1="377.8373" y1="2412.8501" x2="384.9832" y2="2412.8501" gradientTransform="matrix(1 0 0 1 0 -2308)">
				<stop  offset="0" style="stop-color:#FFFFFF"/>
				<stop  offset="1" style="stop-color:#FFFFFF"/>
			</linearGradient>
			<path class="st40" d="M384.6,106C384.5,106,384.5,106,384.6,106l-6.4-1.5c0,0-0.1,0-0.1-0.1l-0.1-0.1c0,0,0-0.1-0.1-0.1V104
				c0,0,0-0.1,0.1-0.1l0.1-0.1c0,0,0.1,0,0.1-0.1h0.1l6.2,1.5c0.1,0,0.3,0.1,0.3,0.1c0.1,0.1,0.1,0.3,0.1,0.4s-0.1,0.3-0.1,0.3
				C384.9,106,384.7,106,384.6,106L384.6,106z"/>
			
				<linearGradient id="SVGID_20_" gradientUnits="userSpaceOnUse" x1="443.0754" y1="2429.3" x2="450.2213" y2="2429.3" gradientTransform="matrix(1 0 0 1 0 -2308)">
				<stop  offset="0" style="stop-color:#FFFFFF"/>
				<stop  offset="1" style="stop-color:#FFFFFF"/>
			</linearGradient>
			<path class="st41" d="M449.7,122.3h-0.1l-6.2-1.6c0,0-0.1,0-0.1-0.1l-0.1-0.1v-0.1v-0.1c0,0,0-0.1,0.1-0.1l0.1-0.1h0.1h0.1
				l6.2,1.6c0.1,0,0.3,0.1,0.3,0.1c0.1,0.1,0.1,0.3,0.1,0.4s-0.1,0.3-0.1,0.3C450,122.3,449.8,122.3,449.7,122.3L449.7,122.3z"/>
			
				<linearGradient id="SVGID_21_" gradientUnits="userSpaceOnUse" x1="378.6313" y1="2430.3999" x2="385.7771" y2="2430.3999" gradientTransform="matrix(1 0 0 1 0 -2308)">
				<stop  offset="0" style="stop-color:#FFFFFF"/>
				<stop  offset="1" style="stop-color:#FFFFFF"/>
			</linearGradient>
			<path class="st42" d="M379.2,123.9c-0.1,0-0.3,0-0.4-0.1s-0.1-0.1-0.1-0.3c0-0.1,0-0.3,0.1-0.4c0-0.1,0.1-0.1,0.3-0.3l6.1-1.9
				c0.1,0,0.3,0,0.4,0s0.3,0.1,0.3,0.3c0,0.1,0,0.3,0,0.4s-0.1,0.3-0.3,0.3L379.2,123.9L379.2,123.9z"/>
			
				<linearGradient id="SVGID_22_" gradientUnits="userSpaceOnUse" x1="443.2078" y1="2411.8999" x2="450.3536" y2="2411.8999" gradientTransform="matrix(1 0 0 1 0 -2308)">
				<stop  offset="0" style="stop-color:#FFFFFF"/>
				<stop  offset="1" style="stop-color:#FFFFFF"/>
			</linearGradient>
			<path class="st43" d="M443.7,105.2c-0.1,0-0.3,0-0.4-0.1s-0.1-0.1-0.1-0.3s0-0.3,0.1-0.4s0.1-0.1,0.3-0.1l6.2-1.7h0.1h0.1
				l0.1,0.1l0.1,0.1v0.1v0.1l-0.1,0.1l-0.1,0.1L443.7,105.2L443.7,105.2z"/>
			
				<linearGradient id="SVGID_23_" gradientUnits="userSpaceOnUse" x1="389.2176" y1="2445.05" x2="394.3785" y2="2445.05" gradientTransform="matrix(1 0 0 1 0 -2308)">
				<stop  offset="0" style="stop-color:#FFFFFF"/>
				<stop  offset="1" style="stop-color:#FFFFFF"/>
			</linearGradient>
			<path class="st44" d="M389.6,139.9c-0.1,0-0.1,0-0.3-0.1c-0.1,0-0.1-0.1-0.1-0.3c0-0.1,0-0.1,0-0.3c0-0.1,0-0.1,0.1-0.3l4.4-4.6
				l0.1-0.1h0.1h0.1c0,0,0.1,0,0.1,0.1s0.1,0.1,0.1,0.1v0.1v0.1c0,0,0,0.1-0.1,0.1l-4.4,4.6C389.7,139.9,389.7,139.9,389.6,139.9z"
				/>
			
				<linearGradient id="SVGID_24_" gradientUnits="userSpaceOnUse" x1="435.665" y1="2396.6001" x2="441.2228" y2="2396.6001" gradientTransform="matrix(1 0 0 1 0 -2308)">
				<stop  offset="0" style="stop-color:#FFFFFF"/>
				<stop  offset="1" style="stop-color:#FFFFFF"/>
			</linearGradient>
			<path class="st45" d="M436.1,91.4c-0.1,0-0.1,0-0.3-0.1c-0.1,0-0.1-0.1-0.1-0.3s0-0.1,0-0.3c0-0.1,0-0.1,0.1-0.3l4.5-4.5
				c0.1-0.1,0.3-0.1,0.4-0.1s0.3,0,0.4,0.1s0.1,0.3,0.1,0.4s0,0.3-0.1,0.4l-4.5,4.5C436.3,91.4,436.2,91.4,436.1,91.4z"/>
			
				<linearGradient id="SVGID_25_" gradientUnits="userSpaceOnUse" x1="422.0351" y1="2387.8501" x2="424.4171" y2="2387.8501" gradientTransform="matrix(1 0 0 1 0 -2308)">
				<stop  offset="0" style="stop-color:#FFFFFF"/>
				<stop  offset="1" style="stop-color:#FFFFFF"/>
			</linearGradient>
			<path class="st46" d="M422.6,83.4c-0.1,0-0.1,0-0.3,0c-0.1,0-0.1-0.1-0.1-0.1S422,83.1,422,83s0-0.1,0-0.3l1.6-6.2
				c0,0,0-0.1,0.1-0.1l0.1-0.1h0.1h0.1c0,0,0.1,0,0.1,0.1l0.1,0.1v0.1v0.1l-1.6,6.2c0,0.1-0.1,0.1-0.1,0.3L422.6,83.4z"/>
			
				<linearGradient id="SVGID_26_" gradientUnits="userSpaceOnUse" x1="404.4354" y1="2387.6697" x2="406.9497" y2="2387.6697" gradientTransform="matrix(1 0 0 1 0 -2308)">
				<stop  offset="0" style="stop-color:#FFFFFF"/>
				<stop  offset="1" style="stop-color:#FFFFFF"/>
			</linearGradient>
			<path class="st47" d="M406.6,83.1c-0.1,0-0.3,0-0.3-0.1c-0.1,0-0.1-0.1-0.1-0.3l-1.7-6.1v-0.1v-0.1l0.1-0.1l0.1-0.1h0.1h0.1
				l0.1,0.1l0.1,0.1l1.7,6.2v0.1v0.1l-0.1,0.1C406.8,83.1,406.7,83.2,406.6,83.1L406.6,83.1z"/>
		</g>
		<path class="st48" d="M414.6,144.9L413,145c-0.3-2.4-0.5-4.6-0.8-6.9c-0.5-5.3-1.1-10.6-1.7-15.9c0-0.7-0.4-0.8-0.9-1.1
			c-1.3-0.5-2.5-1.3-3.7-2.1c-0.7-0.5-1.1-1.2-1.3-1.9c-0.3-0.8-0.4-1.6-0.3-2.4s0.4-1.6,1.1-2.1s1.5-0.9,2.2-0.9
			c0.8-0.1,1.6,0.1,2.2,0.7c0.7,0.5,1.1,1.2,1.3,2c0.3,1.6,0.4,3.3,0.7,4.9c0,0.7,0.3,0.9,0.9,0.9c1.2,0,2.5-0.1,3.8-0.1
			c0.7,0,0.9-0.3,0.9-1.1c0-1.6,0-3.2,0.1-4.8c0-0.7,0.3-1.3,0.7-1.7c0.4-0.5,0.9-0.9,1.6-1.1c0.7-0.3,1.3-0.3,2-0.1
			c0.7,0.1,1.3,0.4,1.7,0.9c1.2,1.2,1.3,2.6,0.9,4.1c-0.7,2.4-2.4,3.6-4.4,4.5c-0.3,0.1-0.7,0.3-0.8,0.5s-0.3,0.7-0.3,0.9
			c0,6.4-0.1,12.7-0.3,18.9c0,1.2,0,2.4-0.1,3.6l-1.6,0.1l0.3-23.2l-5.3,0.3L414.6,144.9z M419.3,119.2c2.4-0.7,4.1-2.6,3.8-4.6
			c0-0.5-0.3-0.9-0.5-1.2c-0.3-0.4-0.8-0.5-1.2-0.5c-0.3,0-0.5,0-0.7,0c-0.3,0-0.4,0.1-0.7,0.3c-0.1,0.1-0.4,0.4-0.4,0.5
			c-0.1,0.3-0.1,0.4-0.3,0.7C419.3,115.9,419.3,117.5,419.3,119.2z M410.4,119.6c-0.1-1.6-0.3-3.2-0.5-4.6c0-0.3-0.1-0.5-0.3-0.7
			c-0.1-0.3-0.3-0.4-0.5-0.5c-0.3-0.1-0.4-0.3-0.7-0.3c-0.3,0-0.5,0-0.8,0c-0.5,0-0.9,0.3-1.2,0.7c-0.3,0.4-0.4,0.9-0.4,1.3
			C406.2,117.4,407.7,119.1,410.4,119.6L410.4,119.6z"/>
	</g>
</g>
<g>
	<path class="st27" d="M222.3,221.5v29.1c0,8.9,4.2,16.4,10.3,19.3c1.1,0.5,43.4,0.9,44.6,1.1l16.4,17.9l0.1-17.6H311
		c8.7,0,15.7-9.3,15.7-20.6v-29.1c0-11.4-7.1-20.6-15.7-20.6h-72.9C229.5,200.9,222.3,210.1,222.3,221.5z"/>
	<path class="st7" d="M301.6,252.6h-54.7v-34.9h54.7V252.6z"/>
	
		<linearGradient id="SVGID_27_" gradientUnits="userSpaceOnUse" x1="247" y1="4920.0498" x2="301.5895" y2="4920.0498" gradientTransform="matrix(1 0 0 1 0 -4690)">
		<stop  offset="0" style="stop-color:#FFFFFF"/>
		<stop  offset="1" style="stop-color:#FFFFFF"/>
	</linearGradient>
	<path class="st49" d="M274.3,242.4L247,217.7h54.7L274.3,242.4z"/>
</g>
<g>
	<path class="st36" d="M646.6,186.9h-69.1c-9.5,0-17.2,10.1-17.2,22.4v31.5c0,12.3,7.7,22.4,17.2,22.4h18.9l0.1,19.2l17.7-19.3
		c1.3-0.3,37.1-0.7,38.2-1.2c6.5-3.2,11.1-11.4,11.1-20.9v-31.5C663.8,196.9,656.1,186.9,646.6,186.9z"/>
	<g>
		<path class="st27" d="M607.3,213.3l-7.1-1.2l0.9-5.2c0.3-1.6,1.1-3.2,2.2-4.2c1.2-1.2,2.8-1.9,4.4-2c2.8-0.3,5.7-0.3,8.5,0.3
			c8.3,1.5,14.3,6,12.8,14c-1.2,6.6-6.6,9-9.8,10.5c-4.9,2.2-6.2,2.6-6.9,6.5c-0.1,0.8,0.7,3.3,1.1,4.6l-7.4-1.3
			c-0.8-1.3-1.1-3.8-0.5-6.9c0.5-2.9,2.5-5.6,6.4-7.9c3-2,5.3-3.6,6.1-8.1c0.5-3.2-0.9-5-4-5.6C610.7,206,608.3,208.9,607.3,213.3z"
			/>
		<path class="st27" d="M607.5,249.1c3,0.5,5.8-1.6,6.4-4.6s-1.5-6-4.5-6.5s-5.8,1.6-6.4,4.6C602.5,245.7,604.5,248.6,607.5,249.1z"
			/>
	</g>
</g>
</svg>
