<?xml version="1.0" encoding="utf-8"?>
<!-- Generator: Adobe Illustrator 21.0.0, SVG Export Plug-In . SVG Version: 6.00 Build 0)  -->
<svg version="1.1" id="Layer_1" xmlns="http://www.w3.org/2000/svg" xmlns:xlink="http://www.w3.org/1999/xlink" x="0px" y="0px"
	 viewBox="0 0 216 204" style="enable-background:new 0 0 216 204;" xml:space="preserve">
<style type="text/css">
	.st0{opacity:0.5;fill:#C1C1EB;enable-background:new    ;}
	.st1{opacity:0.3;fill:#C1C1EB;}
	.st2{fill:#141939;}
	.st3{fill:#FFFFFF;}
	.st4{opacity:0.6;}
	.st5{fill:#FFFFFF;filter:url(#Adobe_OpacityMaskFilter);}
	.st6{mask:url(#path-8-inside-1);fill:none;stroke:#F59E35;stroke-width:4;}
	.st7{opacity:0.6;fill:#F59E35;enable-background:new    ;}
	.st8{fill:#B8B8E8;}
	.st9{fill:#ACEBF4;}
	.st10{fill:#FDCDCA;}
	.st11{fill:#FFFFFF;filter:url(#Adobe_OpacityMaskFilter_1_);}
	.st12{mask:url(#path-22-inside-2);fill:#273271;}
</style>
<path class="st0" d="M131.7,174.4c-11.7,1.2-24.1,5.1-34.5-0.6c-11-6.1-20.6-17.5-21.4-30.1c-0.8-12.3,13-20,17.2-31.6
	c4.3-12-2-28,7.4-36.5c9.4-8.5,24.3-5,36.8-3.3c11.6,1.6,22.8,5.3,31.8,12.8c8.9,7.4,17,17.2,18.2,28.9c1.1,11-7.1,20.2-12.2,30
	c-4.4,8.5-7.7,17.9-15.5,23.4C151.5,173.1,141.5,173.4,131.7,174.4z"/>
<path class="st0" d="M59.5,93.9c-2.7-16.3-9.3-33.3-2.3-48.2c7.5-16,22.6-30.3,40.1-32.6c17.1-2.3,29.1,16.4,45.6,21.2
	c17.1,5,39-5.3,51.7,7.2c12.7,12.4,9.2,33.5,7.8,51.2c-1.2,16.3-5.3,32.3-15,45.5c-9.6,13.2-22.6,25.3-38.7,28
	c-15.3,2.5-28.8-8.2-43-14.4c-12.3-5.4-25.7-9.1-34.1-19.6C63.1,121.4,61.8,107.4,59.5,93.9z"/>
<path class="st0" d="M38.2,65c6.9-14.2,11.2-31.1,25-38.9c14.7-8.3,34.4-11.1,49.4-3.2c14.6,7.7,13.7,29,23.9,41.9
	C147.2,78.1,170,82.2,173,99c3,16.7-11.5,31.3-22.3,44.4c-10,12.1-22.1,22.3-37,27.3c-14.8,4.9-31.7,7.2-45.8,0.4
	c-13.3-6.5-18-22.4-25.6-35.1c-6.6-11.1-15.1-21.4-15.8-34.3C25.8,88.5,32.5,76.8,38.2,65z"/>
<path class="st0" d="M190.4,75.1c5.5,16.4,15,33,10.2,49.6c-5.1,17.8-18.5,35-36.3,40.3c-17.3,5.1-32.9-12.2-50.8-14.5
	c-18.5-2.4-39.5,11.8-54.7,1c-15.1-10.8-15-33.3-16.5-51.7c-1.4-17.1,0.3-34.4,8.1-49.7c7.8-15.2,19.3-29.9,35.5-35.3
	c15.4-5.1,31.2,3.8,46.9,7.9c13.6,3.6,28.2,5.3,38.6,14.8C182.2,47.2,185.9,61.4,190.4,75.1z"/>
<path class="st1" d="M104.9,13.5c20.6-3.7,44.5-18.2,60.9-5.2c16.5,13.1,2.6,40.9,9.5,60.8c7.1,20.6,33,34,31,55.6
	c-2,22-22.6,37.6-40.7,50.4c-17.9,12.6-38.7,21.5-60.6,20.9c-21.5-0.6-41-11.2-58.2-24.2c-16.9-12.7-33-28.2-38.4-48.6
	c-5.2-19.9,0.5-41.1,10-59.3c8.5-16.3,23.8-27,39.7-36.2C72.5,19.2,88.5,16.5,104.9,13.5z"/>
<path class="st2" d="M60.3,92.8c-0.5,0.3-0.6,0.9-0.4,1.4c0.3,0.5,0.9,0.6,1.4,0.4L60.3,92.8z M161.3,94.5c0.5,0.3,1.1,0.1,1.4-0.3
	c0.3-0.5,0.1-1.1-0.3-1.4L161.3,94.5z M112.4,63.6l0.5,0.9L112.4,63.6z M61.3,94.5l51.6-30l-1-1.7l-51.6,30L61.3,94.5z M112.9,64.5
	l48.3,30l1.1-1.7l-48.3-30L112.9,64.5z M112.9,64.5L112.9,64.5l1.1-1.7c-0.6-0.4-1.4-0.4-2.1,0L112.9,64.5z"/>
<rect x="72.2" y="41" class="st3" width="77.8" height="96.7"/>
<g class="st4">
	<defs>
		<filter id="Adobe_OpacityMaskFilter" filterUnits="userSpaceOnUse" x="79.7" y="63" width="62.8" height="25.6">
			<feColorMatrix  type="matrix" values="1 0 0 0 0  0 1 0 0 0  0 0 1 0 0  0 0 0 1 0"/>
		</filter>
	</defs>
	<mask maskUnits="userSpaceOnUse" x="79.7" y="63" width="62.8" height="25.6" id="path-8-inside-1">
		<path class="st5" d="M82.2,65H140c0.3,0,0.5,0.2,0.5,0.5V86c0,0.3-0.2,0.5-0.5,0.5H82.2c-0.3,0-0.5-0.2-0.5-0.5V65.5
			C81.7,65.2,81.9,65,82.2,65z"/>
	</mask>
	<path class="st6" d="M82.2,65H140c0.3,0,0.5,0.2,0.5,0.5V86c0,0.3-0.2,0.5-0.5,0.5H82.2c-0.3,0-0.5-0.2-0.5-0.5V65.5
		C81.7,65.2,81.9,65,82.2,65z"/>
</g>
<path class="st7" d="M82.2,52.5H140c0.3,0,0.5,0.2,0.5,0.5v3.5c0,0.3-0.2,0.5-0.5,0.5H82.2c-0.3,0-0.5-0.2-0.5-0.5V53
	C81.7,52.7,81.9,52.5,82.2,52.5z"/>
<rect x="81.7" y="93.7" class="st8" width="26.6" height="3.6"/>
<rect x="113.9" y="93.7" class="st8" width="26.6" height="3.6"/>
<rect x="81.7" y="100.9" class="st8" width="26.6" height="3.6"/>
<rect x="113.9" y="100.9" class="st8" width="26.6" height="3.6"/>
<rect x="81.7" y="108.1" class="st8" width="26.6" height="3.6"/>
<rect x="113.9" y="108.1" class="st8" width="26.6" height="3.6"/>
<rect x="81.7" y="115.3" class="st8" width="26.6" height="3.6"/>
<rect x="113.9" y="115.3" class="st8" width="26.6" height="3.6"/>
<rect x="81.7" y="122.5" class="st9" width="26.6" height="3.6"/>
<rect x="113.9" y="122.5" class="st9" width="26.6" height="3.6"/>
<rect x="81.7" y="129.6" class="st9" width="26.6" height="3.6"/>
<rect x="113.9" y="129.6" class="st9" width="26.6" height="3.6"/>
<path class="st10" d="M163.2,93.9V150c0,0.6-0.4,1-1,1H59.9V93.9c0-0.8,0.8-1.3,1.5-0.9l50.2,29l50.2-29
	C162.4,92.7,163.2,93.2,163.2,93.9z"/>
<defs>
	<filter id="Adobe_OpacityMaskFilter_1_" filterUnits="userSpaceOnUse" x="57.9" y="90.9" width="107.4" height="62.1">
		<feColorMatrix  type="matrix" values="1 0 0 0 0  0 1 0 0 0  0 0 1 0 0  0 0 0 1 0"/>
	</filter>
</defs>
<mask maskUnits="userSpaceOnUse" x="57.9" y="90.9" width="107.4" height="62.1" id="path-22-inside-2">
	<path class="st11" d="M163.2,93.9V150c0,0.6-0.4,1-1,1H59.9V93.9c0-0.8,0.8-1.3,1.5-0.9l50.2,29l50.2-29
		C162.4,92.7,163.2,93.2,163.2,93.9z"/>
</mask>
<path class="st12" d="M111.1,121.2l-51.7,28.9l1,1.7l51.7-28.9L111.1,121.2z M59.9,151h-2v2h2V151z M161.7,93.1l-1-1.7l0,0
	L161.7,93.1z M111.5,122.1l-1,1.7c0.6,0.4,1.4,0.4,2,0L111.5,122.1z M61.4,93.1l1-1.7l0,0L61.4,93.1z M161.2,93.9V150h4V93.9H161.2z
	 M162.2,149H59.9v4h102.4V149z M61.9,151V93.9h-4V151H61.9z M160.7,91.3l-50.2,29l2,3.5l50.2-29L160.7,91.3z M60.4,94.8l50.2,29
	l2-3.5l-50.2-29L60.4,94.8z M161.2,150c0-0.6,0.4-1,1-1v4c1.7,0,3-1.3,3-3H161.2z M165.2,93.9c0-2.3-2.5-3.8-4.5-2.6l2,3.5
	c-0.7,0.4-1.5-0.1-1.5-0.9H165.2z M61.9,93.9c0,0.8-0.8,1.3-1.5,0.9l2-3.5c-2-1.2-4.5,0.3-4.5,2.6H61.9z"/>
</svg>
