<?xml version="1.0" encoding="utf-8"?>
<!-- Generator: Adobe Illustrator 21.0.0, SVG Export Plug-In . SVG Version: 6.00 Build 0)  -->
<svg version="1.1" id="Layer_1" xmlns="http://www.w3.org/2000/svg" xmlns:xlink="http://www.w3.org/1999/xlink" x="0px" y="0px"
	 viewBox="0 0 884.4 732" style="enable-background:new 0 0 884.4 732;" xml:space="preserve">
<style type="text/css">
	.st0{opacity:0.75;fill:#FDCDCA;enable-background:new    ;}
	.st1{fill:#AE302A;}
	.st2{fill:#F8443C;}
	.st3{fill:#1F285A;}
	.st4{fill:#21212D;}
	.st5{fill:#E9B296;}
	.st6{fill:#DD8E30;}
	.st7{fill:#E79E7D;}
	.st8{fill:url(#SVGID_1_);}
	.st9{fill:#F59E35;}
	.st10{fill:#273271;}
	.st11{fill:url(#SVGID_2_);}
	.st12{fill:url(#SVGID_3_);}
	.st13{fill:#323244;}
	.st14{fill:#3325EF;}
	.st15{fill:url(#SVGID_4_);}
	.st16{fill:#0094F9;}
	.st17{fill:#3A3936;}
	.st18{fill:#CC8264;}
	.st19{fill:url(#SVGID_5_);}
	.st20{fill:url(#SVGID_6_);}
	.st21{fill:#BCC1C9;}
	.st22{fill:#E5E5E5;}
	.st23{fill:url(#SVGID_7_);}
	.st24{fill:url(#SVGID_8_);}
	.st25{opacity:0.9;}
	.st26{opacity:0.9;fill:#623F15;enable-background:new    ;}
	.st27{fill:#000105;}
	.st28{fill:url(#SVGID_9_);}
	.st29{fill:#320E0C;}
	.st30{fill:#4A1412;}
	.st31{fill:#8C0E0E;}
	.st32{fill:#A6A6E2;}
	.st33{fill:#EA956C;}
	.st34{fill:url(#SVGID_10_);}
	.st35{fill:url(#SVGID_11_);}
	.st36{fill:url(#SVGID_12_);}
	.st37{fill:#F8BB72;}
	.st38{opacity:0.9;fill:#DF3D36;enable-background:new    ;}
	.st39{fill:#FFFFFF;}
	.st40{opacity:0.9;fill:#F59E35;enable-background:new    ;}
	.st41{fill:#DF3D36;}
	.st42{fill:#FFFFFF;stroke:#FFFFFF;stroke-width:0.537;stroke-miterlimit:10;}
</style>
<path class="st0" d="M244.2,586.7c30,6.3,159.9,21.1,248.7,8c73.8-10.9,109.9-17.6,171.6-55.1c25.6-15.6,63.4-44.7,77.9-72.5
	c31-57,28.8-143.2-12.7-194.8c-33.7-41.9-71.6-51.5-133-50.9c-149.9,13.7-165.3-13.7-211.3-61.9c-23.3-27.6-60-51.1-100.7-60.1
	C242.9,90,168.9,99.4,90.6,282.8C-18.3,537.8,187.6,574.9,244.2,586.7z"/>
<g>
	<g>
		<path class="st1" d="M464.6,313.4l135-0.9c5,0,10,0.4,14.9,1.4c20.2,3.9,49.2,9.9,56.6,16.6H484.7
			C475.3,326.4,471.1,325.4,464.6,313.4z"/>
		<path class="st1" d="M459,321c0-4.2,3.1-7.6,7.1-7.6h140.9c3.9,0,7.1,3.3,7.1,7.6v94.5c0,4.2-3.1,7.6-7.1,7.6h-112
			c-5,0-10-1.5-14.4-4.2l-15.2-9.8c-4.6-3-7.4-8.3-7.4-14L459,321z"/>
		<path class="st2" d="M489.7,418.2v-83.3c0-2.6,2-4.9,4.6-4.9h176.1c2.5,0,4.6,2.1,4.6,4.9v83.4c0,2.6-2,4.9-4.6,4.9H494.3
			C491.8,423.1,489.7,420.9,489.7,418.2z"/>
	</g>
	<g>
		<path class="st3" d="M586.2,321.4c-19.7-7-44.6-15.7-45.1-17.1c-0.4-1.7-0.8-3.4-0.8-5.2c-0.5-4.6-1.5-10.4-1.5-10.4l-31.5-2.1
			c0,0-10.7,38.1-4.2,44.6c4.8,4.8,52,11.8,77.9,14.7c1.5-9.9,4.1-18.5,8.5-23.4L586.2,321.4z"/>
		<path class="st4" d="M529.8,214.6c0,0,2.4,4.4,4.9,4.6c2.5,0.1,13.6-6.9,13.8-12.4c0.1-1.3,2.2-7.5,3-9.7c0.5-1.7,0.5-3.6,0.3-5.3
			s-0.9-3.4-1.9-5L529.8,214.6z"/>
		<path class="st5" d="M533.3,270.3c2.4,2.6,34.1,21.2,34.1,21.2s15.1,2.1,13.6,0c-1.2-1.5-2.8-2.6-4.5-3.4s-3.6-1.2-5.6-1.2
			c-4.8,0-19.3-12.3-25-17.6c-5.6-5.3-8.5-28.8-8.5-28.8C534,245.1,533.4,270.3,533.3,270.3z"/>
		<path class="st6" d="M508.1,254.1l-8.2-2.4c0,0,2.6-14.7,7-25.9c4.4-11.1,16.7-14.7,16.7-14.7l9.2,4.6c1.3,0.6,2.2,1.8,2.6,3.1
			c1.6,5.8,5.8,21.4,4.4,25.2c-1.7,4.8-3.8,7.9-3.8,16.1c0,8.2,3.6,32.8,3.6,32.8l-34.4,1.6L508.1,254.1z"/>
		<path class="st7" d="M513.3,265.4c0.5,1.2,37.2,20,39.8,20.6c2.6,0.5,7.4,0.5,12,2.9c4.8,2.4,7.7,6.5,4.8,5.8
			c-2.9-0.5-14.9-2.1-15.9-3.2c-0.9-1.2-30-9.1-33.5-10.6c-1.7-0.7-17.5-8.2-18.4-8.2c-0.9,0-2.2-0.4-2.2-1.6
			c0.1-1.6,2.9-21.2,2.9-21.2l12.3,2.5C515,252.4,512.6,264,513.3,265.4z"/>
		
			<linearGradient id="SVGID_1_" gradientUnits="userSpaceOnUse" x1="-21195.0938" y1="-3679.1335" x2="-21563.043" y2="-3663.2625" gradientTransform="matrix(-1 0 0 -1 -8350.5352 -3798)">
			<stop  offset="0" style="stop-color:#F2B3A5"/>
			<stop  offset="0.32" style="stop-color:#F2B5A8"/>
			<stop  offset="0.51" style="stop-color:#F4BCB0"/>
			<stop  offset="0.67" style="stop-color:#F6C8BE"/>
			<stop  offset="0.8" style="stop-color:#F9D9D2"/>
			<stop  offset="0.93" style="stop-color:#FCEFEC"/>
			<stop  offset="1" style="stop-color:#FFFFFF"/>
		</linearGradient>
		<path class="st8" d="M595.2,385.2l-10.1,49.1l-8.2-20.1c0,0,6.6-3.2,6.9-4.9s0.5-23.5,0.5-23.5L595.2,385.2z"/>
		<path class="st9" d="M499.8,251.7l17.6,3.6c0,0,4.4-16.1,5.3-19.7c0.9-3.6,1.1-14.4-5.3-16.4C504.6,215,499.8,251.7,499.8,251.7z"
			/>
		<path class="st3" d="M674.1,436c0,0-17.6-13.8-20.2-17.1c-2.4-2.9-32.9-71-42.5-86c-0.5-1.1-1.3-2-2.2-2.8
			c-1.7-1.1-9.8-4.1-19.8-7.7c-4.4,4.9-7,13.5-8.5,23.4c9.1,1.1,15.1,1.6,15.1,1.6c1.2,5.6,2.9,11.1,4.9,16.4
			c1.2,3.4,2.8,6.6,4.9,9.7c5.8,8.2,39.4,45.2,44.7,50.3c5.3,5,2.1,8.5,2.1,8.5L674.1,436z"/>
		<path class="st10" d="M591.2,411.1c0.3-2.1,4.5-28.7,9.5-47c3-10.6,6.5-20.9,10.6-31.1c5.8-13.5,15.1-29.5,6.9-33.6
			c-10.7-5.6-66-1.2-78.2-0.3c0.1,1.7,0.4,4.1,0.8,5.9c13.6,5.3,21.3,8.1,48.3,17.4c-4.4,4.9-7,13.5-8.5,23.4
			c-3.7,25.3,0,59.1,0.3,61.6L591.2,411.1z"/>
		<path class="st7" d="M528.6,203.2l-4.2,8.5c0,0,9.1,9.1,9,7.1c-0.1-1.9,3.6-12.2,3.6-12.2L528.6,203.2z"/>
		<path class="st7" d="M525.3,194.5c0-6.7,5.4-12.2,12.2-12.2s12.2,5.4,12.2,12.2s-5.4,12.2-12.2,12.2
			C530.7,206.6,525.3,201.2,525.3,194.5z"/>
		<linearGradient id="SVGID_2_" gradientUnits="userSpaceOnUse" x1="547.6713" y1="295.5154" x2="591.7142" y2="295.5154">
			<stop  offset="7.000000e-02" style="stop-color:#E6E7E8"/>
			<stop  offset="0.8" style="stop-color:#6D6E71"/>
		</linearGradient>
		<path class="st11" d="M591.4,296.3l0.3-3.8l-37.2,2c-4.9,0.3-5,2.1-6.9,4.1L591.4,296.3z"/>
		<linearGradient id="SVGID_3_" gradientUnits="userSpaceOnUse" x1="575.7106" y1="276.4037" x2="614.463" y2="276.4037">
			<stop  offset="7.000000e-02" style="stop-color:#E6E7E8"/>
			<stop  offset="0.8" style="stop-color:#6D6E71"/>
		</linearGradient>
		<path class="st12" d="M614.5,257.2c0-0.3-0.1-0.5-0.3-0.8c-0.1-0.3-0.4-0.4-0.5-0.5c-0.1-0.1-0.5-0.1-0.8-0.1l-9.8,0.7
			c-0.5,0-1.1,0.3-1.6,0.5c-0.5,0.3-0.9,0.7-1.2,1.2l-24.6,39l16.1-0.5l22.5-38.6C614.3,257.7,614.5,257.4,614.5,257.2z"/>
		<path class="st13" d="M526,179.5c-5.7,3.3-7.9,12-11,12.4c-3,0.4-5.7,3.3-7,5.3c-1.3,2-1.6,8.9-5.8,11c-4.2,2.2-10.1-7-16.3,7.1
			c-6.2,14.2,11.6,24.1,15.3,22.9c3.8-1.1,2.6-8.3,11.4-11.1c8.7-2.9,6.1-9,7.4-12.7c1.3-3.7,5-2.6,6.7-3.3c5-1.9,6.6-9,2.6-11.6
			c-3.2-2.1-0.1-7.3,2.4-6.6c0.7,0.1,1.2,0.4,1.6,0.9c0.4,0.5,0.7,1.1,0.8,1.7c12.8,3.3,16.9-8.9,16.9-8.9
			C547,175,531.7,176.2,526,179.5z"/>
		<path class="st4" d="M527.3,173.8c0-2.1,1.7-3.8,3.8-3.8c2.1,0,3.8,1.7,3.8,3.8s-1.7,3.8-3.8,3.8
			C529.2,177.7,527.3,176,527.3,173.8z"/>
		<path class="st14" d="M528.6,199.6c0-0.7,0.5-1.2,1.2-1.2c0.7,0,1.2,0.5,1.2,1.2s-0.5,1.2-1.2,1.2
			C529.2,200.8,528.6,200.2,528.6,199.6z"/>
		
			<linearGradient id="SVGID_4_" gradientUnits="userSpaceOnUse" x1="-19488.0918" y1="-240.6861" x2="-19695.4766" y2="-161.8191" gradientTransform="matrix(-1 0 0 -1 -8350.5352 -3798)">
			<stop  offset="0" style="stop-color:#F2B3A5"/>
			<stop  offset="0.32" style="stop-color:#F2B5A8"/>
			<stop  offset="0.51" style="stop-color:#F4BCB0"/>
			<stop  offset="0.67" style="stop-color:#F6C8BE"/>
			<stop  offset="0.8" style="stop-color:#F9D9D2"/>
			<stop  offset="0.93" style="stop-color:#FCEFEC"/>
			<stop  offset="1" style="stop-color:#FFFFFF"/>
		</linearGradient>
		<path class="st15" d="M650.3,423.9c4.5,4.5,2.4,7.3,2.4,7.3l18.3,2.4c0,0-14.5-11.6-17.1-14.5L650.3,423.9z"/>
		<path class="st16" d="M529.4,199.6c0-0.3,0.1-0.4,0.4-0.4s0.4,0.1,0.4,0.4c0,0.3-0.1,0.4-0.4,0.4
			C529.6,200,529.4,199.7,529.4,199.6z"/>
		<path class="st14" d="M531.7,205.3c0,0.1,0,0.1,0,0.3c0,0.1,0,0.1-0.1,0.3c0,0.1-0.1,0.1-0.3,0.1s-0.1,0-0.3,0l-4.2-0.3
			c-0.1,0-0.3,0-0.3-0.1c-0.1,0-0.1-0.1-0.3-0.3c0-0.1,0-0.3,0-0.4c0-0.1,0-0.3,0.1-0.3l3.4-4.4L531.7,205.3z"/>
		<path class="st16" d="M530.4,205.4c0-0.3,0.1-0.4,0.4-0.5c0.3,0,0.4,0.1,0.5,0.4c0,0.3-0.1,0.4-0.4,0.5
			C530.7,205.8,530.4,205.5,530.4,205.4z"/>
		<path class="st16" d="M526.6,205c0-0.3,0.1-0.4,0.4-0.5c0.3-0.1,0.4,0.1,0.5,0.4c0,0.3-0.1,0.4-0.4,0.5
			C526.9,205.4,526.6,205.3,526.6,205z"/>
		<path class="st16" d="M529.2,202.3c0-0.3,0.1-0.4,0.4-0.5c0.3,0,0.4,0.1,0.5,0.4c0,0.3-0.1,0.4-0.4,0.5
			C529.4,202.8,529.2,202.5,529.2,202.3z"/>
		<path class="st17" d="M650.3,437.6c-0.1-0.3-0.1-0.7,0-0.9c0-0.3,0.1-0.5,0.3-0.8l8.1,1.6h0.1l0.1-0.1c0.5-0.3,1.2-0.4,1.7-0.4
			c0.4,0.1,0.9,0.3,1.3,0.4c1.2,0.4,2.8,0.9,6.1,1.9c0.5,0.1,0.9,0.3,1.5,0.4c7,1.3,12.8-0.1,13.6-0.5h0.3c0.1,0.5,0,1.1-0.4,1.6
			c-2.9,1.5-7.1,1.1-12.2,0.7s-9.5-2.2-10.6-2.4c-0.7,0-1.5,0-2.1,0.1C658.1,438.9,650.7,438.4,650.3,437.6z"/>
		<path class="st4" d="M673.5,434.4c0.7,0.4,1.3,0.7,2,0.8c0.9,0.1,2.2,0.3,3.7,0.5c0.9,0.1,1.7,0.4,2.5,0.9c0.8,0.5,1.3,1.2,1.7,2
			c0,0-0.3,0.1-0.9,0.4c-2,0.9-7,1.3-12.6,0.4c-0.5-0.1-0.9-0.1-1.5-0.3c-5.2-1.5-6.3-2.2-7.4-2.4c-0.7,0-1.5,0.1-2,0.4l-7.9-1.6
			l-0.4-0.1c0.1-2.6,1.1-5.2,2.5-7.4c1.7,1.3,3.7,2.4,5.8,2.9c1.6,0.3,3.2,0.1,4.6-0.7l0.1-0.9c0.1-0.5,0.3-1.1,0.5-1.5l0.3,0.3
			c0.8,0.5,1.2,0.8,2,1.3C668.3,430.7,671.6,433.5,673.5,434.4z"/>
		<path class="st17" d="M572.1,414.6c0.1-0.3,0.4-0.4,0.7-0.7c0.3-0.1,0.5-0.3,0.8-0.3l3.8,7.1l0.1,0.1l0.1,0.1
			c0.9,0.5,1.2,0.7,1.5,1.1c0.1,0.4,0.4,0.8,0.4,1.3c0.3,1.1,1.2,2.8,2.6,5.8c0.3,0.5,0.4,0.9,0.7,1.3c3.6,6.2,8.3,9.8,9.1,10.1
			l0.1,0.1c-0.4,0.4-0.8,0.7-1.3,0.7c-3-1.3-5.3-4.9-8.3-9c-2.9-4.1-4.4-8.9-4.9-9.7c-0.4-0.5-0.9-1.2-1.5-1.6
			C576.1,421.3,571.7,415.3,572.1,414.6z"/>
		<path class="st4" d="M589.1,430.3c0,0.8,0.3,1.5,0.7,2.1c0.5,0.8,1.2,1.9,2,3.2c0.5,0.8,0.8,1.6,0.9,2.5c0.1,0.9,0,1.7-0.4,2.6
			c0,0-0.4-0.1-0.9-0.4c-2-0.9-5.6-4.5-8.3-9.4c-0.3-0.4-0.5-0.9-0.7-1.3c-2.2-4.9-2.4-6.3-2.9-7.3c-0.4-0.5-0.9-1.1-1.7-1.3l-3.8-7
			l-0.1-0.3c2.4-1.5,5-2.4,7.8-2.8c-0.1,2.1,0.3,4.2,1.2,6.1c0.8,1.5,2,2.5,3.4,3.2l0.8-0.5c0.4-0.3,0.8-0.4,1.2-0.4
			c0.3,0.9,0.4,1.7,0.5,2.6C588.8,423.9,588.8,428.2,589.1,430.3z"/>
	</g>
</g>
<g>
	<path class="st18" d="M228.5,232.4l-1.8,20.1l-61.9-27.6c-2.5-0.2-5.2-0.7-7.6-1.2l-1.6-0.7c-0.7-0.5-2.1-2.1-3-2.3
		c-1.4-0.2-4.4-0.9-4.4-0.9c-1.2-0.4,0.4-2,1.2-2c1.6,0,3.2,0.2,4.8,0.4c0,0-0.2-0.7-0.4-2.3c-0.4,0-0.5,0-0.7,0l-1.8-0.5
		c0,0-8.7-1.4-9.2-2.1c-0.9-1.1,10.1-1.4,11.9-1.1c0.7,0,9.4,1.8,10.5,2.7c0.7,0.5,3.7,3.2,5.3,4.4L228.5,232.4z"/>
	
		<linearGradient id="SVGID_5_" gradientUnits="userSpaceOnUse" x1="-8533.2129" y1="-40176.1406" x2="-8533.2129" y2="-38735.4219" gradientTransform="matrix(-1 0 0 -1 -8350.5352 -3798)">
		<stop  offset="7.000000e-02" style="stop-color:#ECDFCF"/>
		<stop  offset="0.8" style="stop-color:#E58057"/>
	</linearGradient>
	<path class="st19" d="M188.2,448c0,0,6.9,34.1-3.2,38c-11.2,4.4-23.8,9.8-20.8,14.8c0.7,1.1,24.9,0.4,34.3,0.2
		c0.5,0,0.9-0.2,1.4-0.4c0.4-0.2,0.7-0.5,1.1-0.9c0.4-0.4,0.5-0.7,0.5-1.2c0.2-0.5,0.2-0.9,0-1.4l-2-11.2l1.8-23.1L188.2,448z"/>
	<path class="st9" d="M223.2,277.3c0.4-16-9.4-29.3-21.9-29.5c-12.4-0.4-22.9,12.4-23.3,28.4c-0.4,11.9-6.2,70.2,0.7,100.3
		c0,0.2,0,0.2,0,0.4c1.2,8.7,2.1,59.7,6.4,90.5h22.2c2-28.8,1.8-85.3,0.5-94.2C207.2,369,222.8,287.5,223.2,277.3z"/>
	
		<linearGradient id="SVGID_6_" gradientUnits="userSpaceOnUse" x1="-8583.8877" y1="-40176.1406" x2="-8583.8877" y2="-38735.4219" gradientTransform="matrix(-1 0 0 -1 -8350.5352 -3798)">
		<stop  offset="7.000000e-02" style="stop-color:#ECDFCF"/>
		<stop  offset="0.8" style="stop-color:#E58057"/>
	</linearGradient>
	<path class="st20" d="M234.2,448c0,0,11.6,34.7,1.4,38.6c-10.1,3.9-23.8,9.2-20.8,14.2c0.7,1.1,24.9,0.4,34.3,0.2
		c0.5,0,0.9-0.2,1.4-0.4c0.4-0.2,0.7-0.5,1.1-0.9c0.4-0.4,0.5-0.7,0.5-1.2c0.2-0.5,0.2-0.9,0-1.4l-2-11.2l1.2-23.1L234.2,448z"/>
	<path class="st6" d="M247.7,277c0.4-16-6.8-29-19.2-29.2c-12.4-0.4-25.6,12.1-26,28.1c-0.2,11.7,5.9,70.6,12.6,100.6
		c0,0.2,0,0.2,0,0.4c1.2,8.7,13.9,62.6,19.9,90.5H255c-0.2-32.5-11.4-85.3-12.6-94.2C241.7,369,247.4,287.1,247.7,277z"/>
	<path class="st21" d="M181,162.4c-1.2,5.7-3.4,32.7-3.4,32.7c4.8-0.4,23.6-0.9,26.3,0.2c1.1-3.9,1.2-9.2,2.1-13.3
		c1.2-6,2.1-12.3,2.7-18.5c0.2-1.8,0-3.4-0.5-5s-1.4-3.2-2.5-4.4c-1.1-1.2-2.5-2.3-3.9-3.2c-1.6-0.7-3.1-1.6-4.9-1.8
		C195.3,148.8,183.2,150,181,162.4z"/>
	<path class="st22" d="M203.5,149h-7.1c-10,0.7-13.6,6.1-14.4,13.5c-1.2,13.2-0.7,30.6,0.2,53.3c1.2,27.4-5.9,56.5-4.4,62.2
		c13.5,11.9,70.9,9.8,70.9,9.8c0.7-13.9-2.1-28.3-3.9-54c-2-28.6,13-53,12.4-69.5c-0.2-6.2-4.6-11.4-13.7-15.1
		c-2.3-0.9-9.8-1.8-9.8-1.8L203.5,149z"/>
	<path class="st2" d="M161.2,227.6l-1-3.7l-1.3-5l-5.3-19.4c-0.2-0.6-0.5-1.5-1.1-1.9c-0.5-0.5-1.1-1-1.8-1.3l-14.1-5.7
		c-0.3-0.2-0.6-0.2-1-0.2s-0.6,0.2-1,0.5c-0.3,0.2-0.5,0.5-0.5,0.8c-0.2,0.3-0.2,0.6,0,1l10.2,36.1c0.2,0.6,0.5,1.1,0.8,1.6
		c0.5,0.5,1,0.8,1.5,1.1l16.2,7.4c0.2,0.2,0.3,0.2,0.5,0.2c0.2,0,0.3-0.2,0.5-0.2c0.2-0.2,0.3-0.3,0.3-0.5c0-0.2,0-0.3,0-0.5
		l-0.8-2.9L161.2,227.6z"/>
	
		<linearGradient id="SVGID_7_" gradientUnits="userSpaceOnUse" x1="-8816.9502" y1="-4807.7905" x2="-8635.6377" y2="-4181.7134" gradientTransform="matrix(-1 0 0 -1 -8350.5352 -3798)">
		<stop  offset="7.000000e-02" style="stop-color:#ECDFCF"/>
		<stop  offset="0.8" style="stop-color:#E58057"/>
	</linearGradient>
	<path class="st23" d="M209.9,155.7c-1.2-0.5-2.5-1.2-3.4-2.3c-0.9-1.1-1.8-2.1-2.1-3.4c-0.5-1.2-0.7-2.7-0.7-4.1l0.5-20.3l18.8-1.8
		l1.1,21.9c0,1.4-0.2,2.8-0.7,4.1s-1.2,2.5-2.1,3.6c-0.9,1.1-2.1,1.8-3.4,2.3c-1.2,0.5-2.7,0.9-4.1,0.9
		C212.5,156.6,211.1,156.3,209.9,155.7z"/>
	
		<linearGradient id="SVGID_8_" gradientUnits="userSpaceOnUse" x1="-9324.4336" y1="-17694.9316" x2="-9294.3877" y2="-17150.9609" gradientTransform="matrix(-1 0 0 -1 -8350.5352 -3798)">
		<stop  offset="7.000000e-02" style="stop-color:#ECDFCF"/>
		<stop  offset="0.8" style="stop-color:#E58057"/>
	</linearGradient>
	<path class="st24" d="M207.9,105.3c-2.5,0.5-4.8,1.6-6.8,3.4c-2,1.6-3.4,3.7-4.3,6.2c-0.9,2.3-1.1,5-0.7,7.5s1.4,4.8,3,6.9
		c1.6,2,3.6,3.6,5.9,4.6c2.3,1.1,4.8,1.4,7.3,1.1c2.5-0.2,5-1.1,6.9-2.7c2.1-1.4,3.7-3.4,4.8-5.7c0.7,0.2,1.2,0.2,2,0.2
		c0.7-0.2,1.2-0.4,1.8-0.7c0.5-0.4,1.1-0.9,1.4-1.4c0.4-0.5,0.5-1.2,0.7-1.8c0.2-0.7,0-1.2-0.2-2c-0.2-0.5-0.5-1.2-0.9-1.8
		c-0.4-0.5-0.9-0.9-1.6-1.2c-0.5-0.4-1.2-0.4-1.8-0.5c0-0.2-0.2-0.5-0.2-0.7c-0.9-3.9-3.2-7.3-6.4-9.4
		C215.9,105.3,211.8,104.5,207.9,105.3L207.9,105.3z"/>
	<g class="st25">
		<path class="st26" d="M211.3,503.6h43c0.5,0,1.1-0.2,1.1-0.4v-3.7c0-0.2-0.5-0.4-1.1-0.4l-43,0.5c-0.5,0-1.1,0.2-1.1,0.4v3.2
			C210.4,503.4,210.7,503.6,211.3,503.6z"/>
		<path class="st26" d="M237.2,499.5l18-0.4v-12.6c0-2.8-0.9-3.7-1.6-3.9c-1.8-0.5-3,2-3,2c-2.5,6-5.2,6.9-5.2,6.9
			c-8,3.6-7.5-3.6-7.5-3.6c3-9.8-0.5-5.7-0.5-5.7c-7.6,10-24.7,11.9-24.7,11.9c-5.3,1.2-1.8,5.5-1.8,5.5h18.1L237.2,499.5z"/>
	</g>
	<g class="st25">
		<path class="st26" d="M160.3,502.4h43c0.5,0,1.1-0.2,1.1-0.4v-3.7c0-0.2-0.5-0.4-1.1-0.4l-43,0.5c-0.5,0-1.1,0.2-1.1,0.4v3.2
			C159.4,502.2,159.7,502.4,160.3,502.4z"/>
		<path class="st26" d="M186,498.3l18-0.4v-12.6c0-2.8-0.9-3.7-1.6-3.9c-1.8-0.5-3,2-3,2c-2.5,6-5.2,6.9-5.2,6.9
			c-8,3.6-7.5-3.6-7.5-3.6c3-9.8-0.5-5.7-0.5-5.7c-7.6,10-24.7,11.9-24.7,11.9c-5.3,1.2-1.8,5.5-1.8,5.5H178L186,498.3z"/>
	</g>
	<path class="st27" d="M198.3,139.7c1.2,6.8,4.8,10,9.4,10c9.2-0.2,17.2-7.3,17.6-15.8l0.2-7.1c-0.7,0-1.4-0.2-2-0.5
		c-0.5-0.4-1.2-0.7-1.6-1.2c-0.2,0.2-0.2,0.4-0.4,0.5c-0.5,0.9-1.2,1.8-2,2.5c-2.5,2.7-8.4,3.7-11,1.4c-0.7-0.7-1.6-1.1-2.7-1.1
		c-1.1,0-2.1,0.5-2.8,1.2c-2.1,1.8-3.6,0.9-4.4-0.7c-0.5-0.9-0.9-1.8-1.2-2.7C197.2,130.7,197.4,135.3,198.3,139.7z"/>
	
		<linearGradient id="SVGID_9_" gradientUnits="userSpaceOnUse" x1="-24081.1816" y1="215.6681" x2="-14505.4541" y2="-2391.6704" gradientTransform="matrix(-1 0 0 -1 -8350.5352 -3798)">
		<stop  offset="0" style="stop-color:#E58057"/>
		<stop  offset="1" style="stop-color:#E58057"/>
	</linearGradient>
	<path class="st28" d="M249.1,156.6c-3.6-0.4-7.1,0.5-10,2.7s-4.6,5.5-5.2,9.1l0.4,59.9l-62.4-2.5c-2.7-2.7-7.1-5-7.1-5
		c-2.1-1.4-4.3-2.8-6.6-4.1l1.4,5.2c1.2,1.2,0.7,2.3,0.5,3.2c0,0.2-0.2,0.4-0.4,0.5c-0.2,0.2-0.4,0.2-0.5,0.2
		c-1.4,0.4-4.4-1.4-6.9-3.4c-3.2-2.3-9.8-7.5-9.6-3.4c0,1.1,4.8,8,8.7,10.5c3.2,2,6.6,3.2,10.1,4.1c1.8,0.5,3.7,0.7,5.7,0.7
		c0.7,0,1.2,0,2-0.2c14.2,3.6,42.1,8.5,56.5,11.7c3.4,0.7,13.7,2.8,13.7,2.8c7.6,0.7,14.6-1.1,15.3-8.4l0.9-8.7l5.3-53.5
		C261.4,171,256.6,157.3,249.1,156.6z"/>
	<path class="st27" d="M193.5,107.6c-0.9,1.8-0.9,3.9-0.2,5.9c1.2,3.7,6.8,5,10.8,3.6c2.7-0.7,5.2-2,7.6-3.2
		c8.7-0.4,9.1,3.9,10.1,5.7c0.4-0.5,1.1-1.1,1.6-1.4s1.4-0.5,2.1-0.5c0.7-4.1-1.1-11.4-2.1-13.3s-3.7-2.8-6.8-2.7
		c-5.9,0.5-14.2,0.2-19.2,2C195.8,104.2,194.2,105.6,193.5,107.6z"/>
	<path class="st21" d="M263.2,195.6c1.2-24.9-6-38.2-7.1-39.3c0,0-6.8-7.8-15.1-3.6c-10.5,5.5-9.1,13.5-9.1,13.5s0,19.6,0.5,31.3
		C232.6,199.5,263.2,195.6,263.2,195.6z"/>
</g>
<g>
	<path class="st29" d="M356.4,178.5c0-6,4.5-10.5,10.1-10.5s10.1,4.9,10.1,10.5c0,6-4.5,10.5-10.1,10.5
		C360.9,189.3,356.4,184.4,356.4,178.5z"/>
	<path class="st30" d="M411.8,229.6c-2.2-24.3-21.7-44.4-44.8-44.8c-19,0-34.7,14.2-41.8,33.6c-1.9,6-3,12.3-3.4,18.7l-4.1,43.7
		l97.4-1.9C414.8,278.9,413.3,244.5,411.8,229.6z"/>
	<path class="st3" d="M311.5,453.4l-2.6-66.4c0,0-20.5-17.5-16.1-44v-25c0-3.4,1.1-5.4,3.4-8c1.9-2.6,4.9-4.9,8.2-6
		c15.6-7.8,40.3-15.9,60.1-17c32.2,0.5,73.4,23.7,73.4,23.7l0.1,33.1c0,9.3-0.7,29.9-14.6,42.6l-10.8,65L311.5,453.4z"/>
	<path class="st31" d="M398.1,460.9h-71.3v-9h71.3V460.9z"/>
	<path class="st32" d="M275,480.9c2.2-47.4,3.6-158.9,12.9-167.8c9.3-8.6,34.3-16.8,34.3-16.8l19.8,223.6l-65.3-4.1L275,480.9z"/>
	<path class="st32" d="M453,510.5l-69.1,3.7l26.7-216.4c0,0,16.5,6,27.5,12.6c9.3,8.6,18.9,114.4,20.7,161.8L453,510.5z"/>
	<path class="st10" d="M464,470l5.6-1.1c9-1.5,18.7-4.9,22.4-9.7c5.2-7.1,3.5-19.2,3.5-28.2c0-9-4.9-16.1-9-23.5
		c-8.6-16.1-24.3-46.3-28.4-59c-4.5-14.6-10.5-31.4-20.2-38.1l-10.1,109l0.4,8.2l1.1,28.7c5.2,3.7,13.7,9.9,19.6,12.1
		C453.6,470.4,458.8,470.7,464,470z"/>
	<path class="st10" d="M295.5,426.1l-1.1,28.7c-7.1,6-15.3,10.5-24.3,13.1c-4.5,1.1-9.3,1.5-13.8,1.1h-1.1c-3,0-6-0.4-9-1.1
		c-7.1-1.1-13.8-5.2-17.9-11.2c-4.9-7.1-9-14.9-9-23.9c0-9,4.9-16.1,8.6-23.5c8.2-16.1,35.1-50,38.8-62.7
		c4.5-14.6,15.7-32.9,30.4-39.4l-0.9,110.7L295.5,426.1z"/>
	<path class="st33" d="M278.4,457.9c3.7,3.7,41.1,4.9,45.9,3.4c4.5-1.5,7.8-14.2,7.1-15.3c-0.7-1.5-21.3-5.6-21.3-5.6
		s23.9,3.4,21.3-1.1c-1.5-2.2-25.8-6.3-25.8-6.3l2.2-6.7c-16.1-2.6-32.1,15.3-32.1,15.3C272,449.7,274.6,454.1,278.4,457.9z"/>
	<path class="st33" d="M444.9,459.4c-10.8,1.5-40.7-5.6-44.8-8.6c-4.1-2.6-3.7-15.7-2.6-16.8c1.1-1.1,22,0.7,22,0.7
		s-24.3-1.5-19.8-6c1.9-1.9,28.7,1.5,28.7,1.5s-4.5-4.9-5.6-6c-0.7-1.5-1.5-3.4-1.9-5.2c-0.4-1.5,3-4.1,3.4-2.6
		c0.7,2.6,9,9,15.7,15.3c3.4,3,6,6,9,9.3c1.5,1.5,2.6,3.4,2.6,5.6C452,453.8,449.4,459,444.9,459.4z"/>
	
		<linearGradient id="SVGID_10_" gradientUnits="userSpaceOnUse" x1="-9259.4648" y1="-15483.5371" x2="-9184.8809" y2="-13912.9531" gradientTransform="matrix(-1 0 0 -1 -8350.5352 -3798)">
		<stop  offset="7.000000e-02" style="stop-color:#ECDFCF"/>
		<stop  offset="0.8" style="stop-color:#E58057"/>
	</linearGradient>
	<path class="st34" d="M384.3,297.9v-43.3H350v43.3c0,8.6,17.2,19,17.2,19S384.3,306.5,384.3,297.9z"/>
	
		<linearGradient id="SVGID_11_" gradientUnits="userSpaceOnUse" x1="-8575.2666" y1="-13717.6953" x2="-8591.0566" y2="-12639.6309" gradientTransform="matrix(-1 0 0 -1 -8350.5352 -3798)">
		<stop  offset="7.000000e-02" style="stop-color:#ECDFCF"/>
		<stop  offset="0.8" style="stop-color:#E58057"/>
	</linearGradient>
	<path class="st35" d="M390.3,212c-6.3-6.3-14.9-9.7-23.9-9.7c-9,0-17.2,3.4-23.5,9.7c-6.3,6.3-9.7,14.6-9.7,23.5
		c0,9,3.4,17.2,9.7,23.5c6.3,6.3,14.6,9.7,23.5,9.7c9,0,17.2-3.4,23.5-9.7c6.3-6.3,10.1-14.6,10.1-23.5
		C400,226.6,396.6,218.4,390.3,212z"/>
	<linearGradient id="SVGID_12_" gradientUnits="userSpaceOnUse" x1="285.2621" y1="441.7804" x2="440.9245" y2="441.7804">
		<stop  offset="7.000000e-02" style="stop-color:#E6E7E8"/>
		<stop  offset="0.8" style="stop-color:#6D6E71"/>
	</linearGradient>
	<path class="st36" d="M285.3,493.9h155.3l0.4-94.1c0-1.5-0.4-2.6-0.7-3.7c-0.4-1.1-1.1-2.2-2.2-3.4c-0.7-1.1-1.9-1.5-3.4-2.2
		c-1.1-0.4-2.6-0.7-3.7-0.7H295.7c-2.6,0-5.2,1.1-7.1,3c-1.9,1.9-3,4.1-3,6.7l0.4,79.1L285.3,493.9z"/>
	<path class="st10" d="M276.4,536.6l-17.9,2.6l-0.4-17.9l13.4-1.1L276.4,536.6z"/>
	<path class="st4" d="M261.1,532.2c0.7,3.7,3,7.1,6,9.3c0,0-14.9,3-29.1,4.9c-14.2,2.2-35.1,2.6-36.6-12.7
		c-1.5-15.3,9.7-14.2,16.8-15.7c7.1-1.5,44.4,3,44.4,3C260.7,524.3,260.4,528.4,261.1,532.2z"/>
	<path class="st10" d="M455.6,540.4l18.3,0.7l-1.5-17.9H459L455.6,540.4z"/>
	<path class="st9" d="M515,489.4c-1.9-17.7-26-27.9-42.7-26l-211.7,52.9l10.3,30.6L486.2,522C503,519.6,516.9,507.1,515,489.4z"/>
	<path class="st37" d="M209.6,487c1.9-17.9,24.6-29.8,41.4-27.8l212.8,61.1l-3.7,23.4l-176.9-15.1l-43.3-9.5
		C223,516.7,207.4,504.4,209.6,487z"/>
	<path class="st4" d="M470.5,534.4c-0.4,3.7-2.2,7.1-5.2,9.7c0,0,15.3,1.5,29.5,2.6c14.2,1.1,35.5-0.4,35.5-15.7
		s-10.8-13.1-17.9-14.2c-7.1-1.1-44,6.7-44,6.7C470.2,526.6,471.3,530.7,470.5,534.4z"/>
	<path class="st29" d="M403.9,235.9C403.9,236.3,403.9,236.3,403.9,235.9c-0.4,0.4-0.8,0.4-1.1,0.4c-11.8-2.3-24.1-3.1-36.3-2.7
		c0,0,0.8-10.7,1.1-17.2l-7.1,9.1c-1.6,2.3-5.6,4.9-8.2,6.6c-2.6,1.6-5.3,2.3-8.4,2.3l-14.9,1.1l13.1-26.9
		c2.3-4.2,17.3-15.9,38.8-8.1c19.6,8.5,21.4,30.4,22.6,34.9C403.9,235.9,403.9,235.9,403.9,235.9z"/>
</g>
<g>
	<path class="st38" d="M602.5,174.5c0-4.1,2.6-7.3,6-7.3h60.7c3.4,0,6,3.2,6,7.3v44.6c0,4.1-2.6,7.3-6,7.3h-32.8
		c-7.2,6.3-14.6,13.2-14.6,13.2c0-5.7,0-8.8,0-13.2h-13.2c-3.4,0-6-3.2-6-7.3V174.5z"/>
	<path class="st39" d="M642.7,185.3c4.3,1.5,7.4,5.6,7.4,10.5v9.3c0,1,0.7,1.9,1.8,2.1c2.5,0.4,2.2,4.3-0.4,4.3h-25
		c-2.7,0-3-3.8-0.4-4.3c1-0.1,1.8-1,1.8-2.1v-9.3c0-4.9,3.1-9,7.4-10.5c0-2.5,1.6-4.4,3.7-4.4C641,180.9,642.7,182.8,642.7,185.3z"
		/>
</g>
<g>
	<path class="st40" d="M149.9,150.3c0,4.9-3.2,8.7-7.2,8.7h-15.8c0,5.3,0,8,0,14.9c0,0-9.3-7.8-17.6-14.9H69.7c-4,0-7.2-3.8-7.2-8.7
		V96.6c0-4.9,3.2-8.7,7.2-8.7h73c4,0,7.2,3.8,7.2,8.7V150.3z"/>
	<path class="st39" d="M106.2,104.2c2.5,0,4.4,2.3,4.4,5.3c5.2,1.8,8.9,6.8,8.9,12.6v11.2c0,1.2,0.9,2.3,2.1,2.5
		c3,0.5,2.7,5.2-0.5,5.2h-30c-3.2,0-3.6-4.6-0.5-5.2c1.2-0.2,2.1-1.2,2.1-2.5v-11.2c0-5.9,3.7-10.8,8.9-12.6
		C101.6,106.5,103.6,104.2,106.2,104.2z"/>
</g>
<g>
	<path class="st41" d="M307.1,401.2c-6.3,11.8-21,16.2-32.8,9.9s-16.2-21-9.9-32.8c6.3-11.8,21-16.2,32.8-9.9
		C309,374.7,313.3,389.4,307.1,401.2z"/>
	<path class="st42" d="M285.8,404c-1.2,0-2.1-1-2.2-2.3l-0.2-19.1l-0.4,0.1c-1.2,0-2.1-1-2.2-2.3c0-1.2,0.9-2.4,2.1-2.4l2.5,0
		c1.2,0,2.1,1,2.2,2.3l0.2,21.4C287.9,403,286.9,404,285.8,404z"/>
</g>
</svg>
