<?xml version="1.0" encoding="utf-8"?>
<!-- Generator: Adobe Illustrator 21.0.0, SVG Export Plug-In . SVG Version: 6.00 Build 0)  -->
<svg version="1.1" id="Layer_1" xmlns="http://www.w3.org/2000/svg" xmlns:xlink="http://www.w3.org/1999/xlink" x="0px" y="0px"
	 viewBox="0 0 238 249" style="enable-background:new 0 0 238 249;" xml:space="preserve">
<style type="text/css">
	.st0{opacity:0.5;fill:#FDCDCA;enable-background:new    ;}
	.st1{opacity:0.3;fill:#FEE6E4;enable-background:new    ;}
	.st2{fill:#FFFFFF;stroke:#273271;stroke-width:2;}
	.st3{fill:#273271;}
	.st4{fill:#B8B8E8;}
	.st5{fill:#FEFBF8;stroke:#273271;stroke-width:2;}
	.st6{fill:#141939;}
	.st7{fill:#F78B89;}
	.st8{fill:#FEFBF8;}
	.st9{display:none;fill:#FCE1C0;}
	.st10{fill:#FFFFFF;filter:url(#Adobe_OpacityMaskFilter);}
	.st11{display:none;mask:url(#path-10-inside-1);fill:#273271;}
	.st12{display:none;fill:#FCE1C0;stroke:#273271;stroke-width:2;}
	.st13{fill:#FCE1C0;stroke:#273271;stroke-width:2;}
	.st14{fill:#FFFFFF;}
</style>
<g>
	<path class="st0" d="M59.4,121.6c-2.7-16.3-9.3-33.3-2.3-48.2c7.5-16,22.6-30.3,40.1-32.6c17.1-2.3,29.1,16.4,45.6,21.2
		c17.1,5,39-5.3,51.7,7.2c12.7,12.4,9.2,33.5,7.8,51.2c-1.2,16.3-5.3,32.3-15,45.5c-9.6,13.2-22.6,25.3-38.7,28
		c-15.3,2.5-28.8-8.2-43-14.4c-12.3-5.4-25.7-9.1-34.1-19.6C63,149.1,61.6,135.2,59.4,121.6z"/>
	<path class="st0" d="M38.1,92.7c6.9-14.2,11.2-31.1,25-38.9c14.7-8.3,34.4-11.1,49.4-3.2c14.6,7.7,13.7,29,23.9,41.9
		c10.6,13.4,33.4,17.5,36.4,34.3c3,16.7-11.5,31.3-22.3,44.3c-10,12.1-22.1,22.3-37,27.3c-14.8,4.9-31.7,7.2-45.8,0.4
		c-13.3-6.5-18-22.4-25.6-35.1c-6.6-11.1-15.1-21.4-15.8-34.3C25.7,116.2,32.4,104.5,38.1,92.7z"/>
	<path class="st0" d="M190.3,102.8c5.5,16.4,15,33,10.2,49.6c-5.1,17.8-18.5,35-36.3,40.3c-17.3,5.1-32.9-12.2-50.8-14.5
		c-18.5-2.4-39.5,11.8-54.7,1c-15.1-10.8-15-33.3-16.5-51.7c-1.4-17.1,0.3-34.4,8.1-49.7C58.2,62.6,69.7,47.9,86,42.5
		c15.4-5.1,31.2,3.8,46.9,7.9c13.6,3.6,28.2,5.3,38.6,14.8C182.1,74.9,185.7,89.2,190.3,102.8z"/>
	<path class="st1" d="M113,41.1c19.7-3.6,42.7-17.5,58.5-5.1c15.9,12.6,2.5,39.5,9.1,58.6c6.9,19.8,31.7,32.8,29.8,53.6
		c-1.9,21.2-21.7,36.3-39.1,48.6C154,209,134,217.6,113,217c-20.7-0.6-39.4-10.8-55.9-23.3c-16.2-12.3-31.7-27.2-36.8-46.9
		c-5-19.2,0.5-39.6,9.6-57.2C38,73.9,52.8,63.6,68,54.7C81.9,46.6,97.2,44,113,41.1z"/>
</g>
<g>
	<g>
		<path class="st2" d="M109.8,159.3H67.4c-1.4,0-2.5-1.1-2.5-2.5V70.3c0-1.4,1.1-2.5,2.5-2.5h42.4c1.4,0,2.5,1.1,2.5,2.5v86.5
			C112.4,158.2,111.2,159.3,109.8,159.3z"/>
		<rect x="64" y="147.2" class="st3" width="49.2" height="1.7"/>
		<rect x="64" y="78.8" class="st3" width="49.2" height="1.7"/>
		<path class="st4" d="M92.6,74.9h-8.7c-0.6,0-1-0.5-1-1l0,0c0-0.6,0.5-1,1-1h8.7c0.6,0,1,0.5,1,1l0,0
			C93.6,74.4,93.2,74.9,92.6,74.9z"/>
	</g>
	<path class="st5" d="M76.9,89.8h86.8c0.6,0,1,0.4,1,1V176c0,0.6-0.4,1-1,1H76.9c-0.6,0-1-0.4-1-1V90.8
		C75.9,90.2,76.3,89.8,76.9,89.8z"/>
	<rect x="74.9" y="118" class="st6" width="90.8" height="1.5"/>
	<circle class="st7" cx="86.4" cy="103.4" r="3.8"/>
	<circle class="st7" cx="97.2" cy="103.4" r="3.8"/>
	<path class="st4" d="M108.3,101.8h50.8c0.6,0,1.2,0.5,1.2,1.2l0,0c0,0.6-0.5,1.2-1.2,1.2h-50.8c-0.6,0-1.2-0.5-1.2-1.2l0,0
		C107.2,102.4,107.7,101.8,108.3,101.8z"/>
	<path class="st8" d="M142.8,103.5c0.3-5.8,4.7-10.7,10.5-11.6l6.8-1.1c8.6-1.4,16.4,5.1,16.5,13.8c0.1,5.4-3,10.4-7.8,12.8
		l-4.8,2.4c-0.7,0.4-1.5,0.6-2.3,0.6h-21.4c-4,0-4.5-5.8-0.6-6.5c1.5-0.3,2.6-1.5,2.7-3L142.8,103.5z"/>
	<path class="st9" d="M167.5,77.9c6.6,2.3,11.3,8.6,11.3,16.1v14.2c0,1.6,1.1,2.9,2.7,3.2c3.9,0.7,3.4,6.5-0.6,6.5h-38.2
		c-4,0-4.5-5.8-0.6-6.5c1.6-0.3,2.7-1.6,2.7-3.2V94c0-7.4,4.7-13.7,11.4-16.1c0.1-3.8,2.6-6.8,5.7-6.8
		C165,71.1,167.5,74.1,167.5,77.9z"/>
	<defs>
		<filter id="Adobe_OpacityMaskFilter" filterUnits="userSpaceOnUse" x="137.5" y="69.1" width="48.8" height="50.8">
			<feColorMatrix  type="matrix" values="1 0 0 0 0  0 1 0 0 0  0 0 1 0 0  0 0 0 1 0"/>
		</filter>
	</defs>
	<mask maskUnits="userSpaceOnUse" x="137.5" y="69.1" width="48.8" height="50.8" id="path-10-inside-1">
		<path class="st10" d="M167.5,77.9c6.6,2.3,11.3,8.6,11.3,16.1v14.2c0,1.6,1.1,2.9,2.7,3.2c3.9,0.7,3.4,6.5-0.6,6.5h-38.2
			c-4,0-4.5-5.8-0.6-6.5c1.6-0.3,2.7-1.6,2.7-3.2V94c0-7.4,4.7-13.7,11.4-16.1c0.1-3.8,2.6-6.8,5.7-6.8
			C165,71.1,167.5,74.1,167.5,77.9z"/>
	</mask>
	<path class="st11" d="M167.5,77.9l-2,0l0,1.4l1.3,0.5L167.5,77.9z M181.6,111.4l-0.4,2L181.6,111.4z M142.2,111.4l0.4,2
		L142.2,111.4z M156.2,77.9l0.7,1.9l1.3-0.5l0-1.4L156.2,77.9z M166.9,79.8c5.8,2.1,10,7.6,10,14.2h4c0-8.3-5.3-15.3-12.7-17.9
		L166.9,79.8z M176.9,94v14.2h4V94H176.9z M176.9,108.2c0,2.6,1.8,4.7,4.3,5.2l0.7-3.9c-0.6-0.1-1.1-0.6-1.1-1.3H176.9z
		 M181.2,113.4c0.5,0.1,0.7,0.3,0.8,0.5c0.2,0.2,0.2,0.5,0.2,0.9c0,0.4-0.2,0.7-0.4,0.8c-0.2,0.2-0.4,0.3-0.9,0.3v4
		c6.4,0,7.3-9.3,1-10.5L181.2,113.4z M181,115.9h-38.2v4H181V115.9z M142.8,115.9c-0.5,0-0.8-0.2-0.9-0.3c-0.2-0.2-0.3-0.5-0.4-0.8
		c0-0.4,0.1-0.7,0.2-0.9c0.1-0.2,0.4-0.4,0.8-0.5l-0.7-3.9c-6.3,1.2-5.5,10.5,1,10.5V115.9z M142.5,113.4c2.5-0.5,4.3-2.7,4.3-5.2
		h-4c0,0.6-0.4,1.2-1.1,1.3L142.5,113.4z M146.9,108.2V94h-4v14.2H146.9z M146.9,94c0-6.5,4.2-12.1,10-14.2l-1.3-3.8
		c-7.4,2.6-12.7,9.7-12.7,17.9H146.9z M158.2,77.9c0.1-3.1,2-4.9,3.7-4.9v-4c-4.5,0-7.6,4.3-7.7,8.8L158.2,77.9z M161.9,73.1
		c1.6,0,3.6,1.8,3.7,4.9l4-0.1c-0.1-4.5-3.1-8.8-7.7-8.8V73.1z"/>
	<path class="st12" d="M167.8,117.8c-0.5,2.5-2.9,4.6-6,4.6s-5.5-2-6-4.6H167.8z"/>
</g>
<g>
	<path class="st13" d="M128.4,86.5c0-2.8,2.2-5,5-5h50.5c2.8,0,5,2.2,5,5v30.7c0,2.8-2.2,5-5,5h-30.5c-0.7,0-1.3,0.5-1.4,1.2
		c-0.5,3.9-1.8,6-3.7,7.3c-2,1.4-4.9,2-9.2,2.6l0,0c0,0,0,0,0,0c0,0,0,0,0,0c1.6-1.8,2.9-3.3,3.5-4.9c0.7-1.7,0.6-3.3-0.1-5.3
		c-0.2-0.6-0.7-0.9-1.3-0.9h-7.8c-2.8,0-5-2.2-5-5V86.5z"/>
	<path class="st14" d="M161.2,92.4c2.9,1,5,3.8,5,7.1v6.3c0,0.7,0.5,1.3,1.2,1.4c1.7,0.3,1.5,2.9-0.3,2.9h-16.9
		c-1.8,0-2-2.6-0.3-2.9c0.7-0.1,1.2-0.7,1.2-1.4v-6.3c0-3.3,2.1-6.1,5-7.1c0-1.7,1.1-3,2.5-3C160.1,89.4,161.2,90.7,161.2,92.4z"/>
</g>
</svg>
