<svg width="1280" height="837" viewBox="0 0 1280 837" fill="none" xmlns="http://www.w3.org/2000/svg">
    <path fill-rule="evenodd" clip-rule="evenodd" d="M58.9999 502C-84.2731 553.294 -43.375 566.072 -111.181 689.651C-173.949 804.048 -260.937 865.746 -259.669 982.36C-258.345 1104.04 -199.592 1212.68 -104.148 1286.28C-10.2037 1358.73 122.957 1382.04 259.454 1382.69C393.079 1383.34 542.995 1373.27 657.719 1289.94C767.63 1210.1 1098.88 1142.71 1173.2 1037.32C1255.74 920.278 1339.27 807.432 1321.11 650.531C1305.06 511.93 910.337 549.116 818.477 559.676C805.683 561.147 793.16 561.892 780.287 561.528C721.561 559.872 543.986 553.221 470.5 532C335.21 492.932 209.012 448.294 58.9999 502Z" fill="#F1F1FB"/>
</svg>
