<svg width="170" height="148" viewBox="0 0 170 148" fill="none" xmlns="http://www.w3.org/2000/svg">
    <path d="M133.634 31.1356C116.321 24.3604 102.401 42.8651 84.9998 35.276C84.9998 25.4044 84.9998 15.5327 84.9998 5.66106C102.557 13.3175 116.569 -5.58598 134.098 1.70825C134.323 1.80189 134.469 2.02091 134.469 2.25938V30.5829C134.469 31.0031 134.034 31.2921 133.634 31.1356Z" fill="#F8443C"/>
    <path d="M134.098 1.71029C128.829 -0.482225 123.878 -0.306293 119.053 0.802438V30.4168C123.736 29.3404 128.538 29.1434 133.634 31.138C134.034 31.2945 134.469 31.0055 134.469 30.5852V2.26141C134.469 2.02295 134.323 1.80392 134.098 1.71029Z" fill="#EA2828"/>
    <path d="M169.562 143.426L132.752 85.0452C131.612 83.2376 128.92 83.2376 127.78 85.0452L121.474 95.0458L154.716 147.766H167.077C169.36 147.766 170.759 145.323 169.562 143.426Z" fill="#9595CB"/>
    <path d="M85.365 78.7492C84.2605 78.7492 83.365 77.598 83.365 76.1782V7.18032C83.365 5.76055 84.2605 4.60938 85.365 4.60938C86.4697 4.60938 87.365 5.76055 87.365 7.18032V76.1782C87.365 77.598 86.4697 78.7492 85.365 78.7492Z" fill="#273271"/>
    <path d="M132.329 85.3118L132.329 85.3118L169.14 143.692C170.115 145.238 168.989 147.266 167.077 147.266H89.1385L128.203 85.3118C129.146 83.8153 131.385 83.8154 132.329 85.3118Z" stroke="#273271"/>
    <path d="M45.3817 90.0619L8.99609 147.768H24.745L53.2562 102.55L45.3817 90.0619Z" fill="#9595CB"/>
    <path d="M37.6711 85.3122L37.6711 85.3122C38.6145 83.8158 40.8533 83.8156 41.797 85.3122L80.8615 147.267H2.92344C1.01146 147.267 -0.114491 145.239 0.860454 143.693L0.437519 143.426L0.860464 143.693L37.6711 85.3122Z" stroke="#273271"/>
    <path d="M87.4856 56.1487C86.3461 54.3411 83.6536 54.3411 82.5138 56.1487L77.3291 64.3715L129.913 147.768H145.254L87.4856 56.1487Z" fill="#9595CB"/>
    <path d="M144.348 147.27H25.6515L82.9368 56.4175C83.8805 54.9212 86.1191 54.9212 87.0628 56.4175L144.348 147.27Z" fill="#FDD9D7" stroke="#273271"/>
</svg>
