<svg width="320" height="596" viewBox="0 0 320 596" fill="none" xmlns="http://www.w3.org/2000/svg">
    <path fill-rule="evenodd" clip-rule="evenodd" d="M320 208.5V325.5C320 325.5 447.207 428.328 426.616 483.567C404.992 541.573 343.23 587.798 276.715 595.331C212 602.66 158.554 547.913 98.4189 520.733C47.0983 497.537 -22.2563 494.563 -49.288 447.986C-76.2449 401.537 0.00012207 298 0.00012207 298L3.8147e-05 162V0L320 2.67029e-05V208.5Z" fill="#F1F1FB"/>
    <path d="M285.647 449.706C284.347 448.002 277.146 435.695 275.846 434.987C274.546 434.279 271.939 436.049 272.48 437.565C273.643 440.844 278.749 450.204 279.905 451.844C281.999 454.812 290.854 465.515 293.916 462.244C296.53 459.456 286.947 451.418 285.647 449.706Z" fill="#FA9B2A"/>
    <path d="M271.948 430.923C272.555 430.995 273.357 431.645 274.115 432.562L274.404 431.067C275.408 432.396 276.181 435.581 276.181 435.581C276.621 436.896 276.007 437.748 274.621 438.116C273.942 438.29 273.039 438.167 272.05 436.412C271.45 435.35 270.901 434.483 270.511 433.877C269.623 432.454 271.096 430.815 271.948 430.923Z" fill="url(#paint0_linear)"/>
    <path d="M162.138 512.485C164.334 510.807 166.989 509.836 169.75 509.702C170.105 509.702 170.446 509.702 170.808 509.702H170.919H171.239L125.49 478.279C124.154 480.609 123.451 483.248 123.451 485.933L162.138 512.485Z" fill="white"/>
    <path d="M93.6287 492.801V499.585L176.701 556.53H177.967V548.458L96.3423 492.801H93.6287Z" fill="white"/>
    <path d="M93.6287 525.038V533.819L126.749 556.531H139.802L93.6287 525.038Z" fill="white"/>
    <path d="M171.239 509.744C171.462 509.744 171.684 509.744 171.935 509.793H172.088C172.403 509.83 172.716 509.881 173.027 509.946H173.187C173.498 510.011 173.804 510.085 174.106 510.169L174.245 510.21L174.551 510.301C174.951 510.431 175.377 510.464 175.793 510.397C176.208 510.331 176.602 510.166 176.942 509.918C177.282 509.669 177.558 509.343 177.747 508.967C177.936 508.591 178.033 508.175 178.03 507.754V492.801H151.729C150.337 492.801 148.618 491.744 148.437 490.262C148.412 489.794 148.456 489.325 148.57 488.87C149.085 486.087 149.265 482.114 147.825 479.525C147.626 479.164 147.408 478.811 147.171 478.468C145.649 476.233 143.51 474.49 141.013 473.451L140.429 473.221C140.034 473.078 139.633 472.952 139.225 472.846C138.395 472.631 137.547 472.496 136.692 472.442C134.463 472.247 132.225 472.694 130.241 473.729C128.257 474.765 126.611 476.346 125.497 478.287L171.239 509.744Z" fill="#E94741"/>
    <path d="M176.109 536.651C175.928 536.707 175.741 536.756 175.553 536.804L175.128 536.916C174.927 536.964 174.725 536.992 174.523 537.034L174.119 537.11C173.897 537.11 173.66 537.166 173.424 537.187L173.076 537.229C172.728 537.256 172.375 537.27 172.018 537.27C171.559 537.27 171.107 537.27 170.626 537.201H170.306C168.642 537.2 166.991 536.896 165.436 536.303C165.074 536.164 164.74 536.004 164.364 535.837C163.988 535.67 163.821 535.566 163.557 535.42C162.959 535.08 162.386 534.696 161.845 534.271C161.574 534.056 161.31 533.826 161.052 533.576C160.795 533.325 160.725 533.27 160.565 533.109C160.405 532.949 160.12 532.65 159.911 532.414C159.546 531.989 159.206 531.543 158.895 531.078C158.686 530.765 158.485 530.438 158.297 530.104C157.262 528.244 156.676 526.169 156.585 524.043C156.559 523.549 156.559 523.055 156.585 522.561C156.728 520.58 157.298 518.654 158.256 516.914C159.215 515.175 160.539 513.664 162.138 512.486L123.451 485.962C123.451 486.031 123.451 486.101 123.451 486.163C123.451 486.46 123.451 486.755 123.451 487.047C123.451 487.145 123.451 487.242 123.451 487.339C123.451 487.437 123.451 487.722 123.506 487.917C123.562 488.112 123.541 488.146 123.562 488.258C123.583 488.369 123.611 488.599 123.646 488.766C123.68 488.933 123.694 489.002 123.722 489.121C123.75 489.239 123.778 489.399 123.813 489.531C124.23 491.201 121.551 492.815 119.833 492.815H96.3422L177.974 548.48V539.114C177.976 538.568 177.809 538.035 177.495 537.589C177.181 537.143 176.735 536.805 176.221 536.623H176.144L176.109 536.651Z" fill="#263370"/>
    <path d="M93.6287 499.585V525.038L139.802 556.53H176.701L93.6287 499.585Z" fill="#263370"/>
    <path d="M93.6287 533.82V542.921C93.6287 546.53 95.0626 549.992 97.6149 552.545C100.167 555.097 103.629 556.531 107.239 556.531H126.721L93.6287 533.82Z" fill="#263370"/>
    <path d="M180.444 454.115L190.944 446.802C190.231 446.493 189.493 446.247 188.739 446.064H188.697L188.182 445.953L187.973 445.918L187.57 445.848L187.229 445.807L186.916 445.772L186.47 445.737H186.234H186.074H185.538H185.28L184.779 445.688L184.188 445.73L183.708 445.786L183.13 445.876L182.664 445.967L182.101 446.099L181.648 446.217L181.474 446.266C181.076 446.391 180.653 446.421 180.241 446.353C179.829 446.286 179.438 446.123 179.1 445.877C178.762 445.632 178.486 445.311 178.294 444.94C178.102 444.569 178 444.158 177.995 443.74L154.498 427.597H142.196L180.444 454.115Z" fill="white"/>
    <path d="M93.6287 489.621V491.298H96.0849L93.6287 489.621Z" fill="white"/>
    <path d="M93.6287 464.175L122.087 483.658C122.267 481.039 123.197 478.526 124.766 476.422L93.6287 455.039V464.175Z" fill="white"/>
    <path d="M177.967 486.963V478.015L104.615 427.826C101.929 428.353 99.4648 429.68 97.546 431.632L177.967 486.963Z" fill="white"/>
    <path d="M177.974 443.768L177.967 443.761V427.57H154.498L177.974 443.768Z" fill="#E94741"/>
    <path d="M177.967 478.016V475.1C177.966 474.683 178.063 474.272 178.25 473.899C178.438 473.526 178.71 473.203 179.045 472.955C179.381 472.707 179.769 472.542 180.181 472.472C180.592 472.402 181.013 472.43 181.412 472.553H181.481H181.6C181.869 472.632 182.142 472.704 182.421 472.769H182.511C182.796 472.832 183.089 472.887 183.388 472.936H183.562C183.854 472.978 184.146 473.013 184.445 473.034H184.599C184.898 473.034 185.204 473.034 185.517 473.034H185.552H186.185H186.234H186.47L186.916 472.999L187.229 472.964L187.563 472.922L187.973 472.853L188.175 472.818L188.697 472.707H188.739C191.318 472.074 193.662 470.715 195.491 468.789C197.32 466.864 198.558 464.453 199.057 461.845C199.057 461.706 199.106 461.574 199.127 461.434C199.148 461.295 199.127 461.288 199.127 461.212C199.127 461.135 199.169 460.899 199.183 460.746C199.197 460.593 199.183 460.586 199.183 460.502C199.183 460.419 199.183 460.3 199.183 460.203C199.183 460.105 199.183 460.112 199.183 460.071C199.183 460.029 199.183 459.827 199.183 459.702C199.183 459.577 199.183 459.458 199.183 459.333C199.183 459.208 199.183 459.09 199.183 458.964C199.183 458.839 199.183 458.721 199.183 458.596C199.183 458.47 199.183 458.31 199.183 458.164C199.183 458.018 199.183 458.004 199.183 457.921C199.183 457.837 199.148 457.608 199.127 457.454C199.106 457.301 199.127 457.308 199.127 457.232C199.127 457.155 199.078 456.953 199.057 456.821C198.626 454.615 197.662 452.549 196.247 450.802C194.833 449.055 193.012 447.682 190.944 446.802L180.445 454.115L142.196 427.597H107.239C106.358 427.598 105.48 427.685 104.616 427.855L177.967 478.016Z" fill="#E94741"/>
    <path d="M151.728 491.298H177.974V486.963L97.5461 431.633C95.0333 434.174 93.6255 437.605 93.6287 441.179V455.04L124.766 476.45C126.133 474.606 127.94 473.134 130.022 472.169C132.104 471.204 134.395 470.776 136.685 470.925C137.54 470.979 138.388 471.114 139.218 471.328C139.626 471.435 140.027 471.56 140.422 471.704L141.006 471.934C143.503 472.972 145.642 474.716 147.164 476.951C147.396 477.294 147.614 477.646 147.818 478.008C148.854 479.857 149.442 481.923 149.537 484.041C149.537 484.379 149.537 484.713 149.537 485.043C149.537 485.154 149.537 485.265 149.537 485.377C149.537 485.592 149.537 485.815 149.495 486.031C149.453 486.247 149.495 486.288 149.446 486.42C149.398 486.553 149.398 486.81 149.363 486.998C149.328 487.186 149.307 487.269 149.279 487.402C149.251 487.534 149.21 487.763 149.168 487.937V488.007C149.072 488.397 149.066 488.803 149.15 489.195C149.234 489.587 149.405 489.956 149.652 490.272C149.898 490.589 150.213 490.846 150.572 491.023C150.932 491.201 151.327 491.295 151.728 491.298Z" fill="#E94741"/>
    <path d="M93.6287 464.176V489.622L96.0849 491.299H119.874C120.277 491.299 120.675 491.209 121.037 491.033C121.4 490.858 121.718 490.602 121.967 490.286C122.217 489.97 122.391 489.601 122.477 489.207C122.562 488.814 122.558 488.406 122.463 488.014C122.463 487.882 122.4 487.743 122.372 487.604C122.345 487.465 122.317 487.367 122.296 487.249C122.275 487.131 122.24 486.908 122.212 486.741C122.185 486.574 122.171 486.518 122.157 486.4C122.143 486.282 122.115 486.017 122.101 485.823C122.087 485.628 122.101 485.628 122.101 485.53C122.101 485.238 122.101 484.946 122.101 484.647C122.101 484.348 122.101 484 122.136 483.687L93.6287 464.176Z" fill="#263370"/>
    <path d="M182.198 524.043L207.574 506.647C206.247 504.488 205.546 502.002 205.549 499.467C205.549 499.314 205.549 499.161 205.549 499.014L182.184 515.06L176.84 511.386C176.185 511.57 175.496 511.593 174.829 511.455C171.626 510.73 168.272 511.092 165.297 512.485L182.198 524.043Z" fill="white"/>
    <path d="M185.844 555.716L263.99 502.285V493.288L182.198 549.161L179.651 547.422V555.716H185.844Z" fill="white"/>
    <path d="M222.59 555.716H235.796L263.99 536.47V527.473L222.59 555.716Z" fill="white"/>
    <path d="M182.198 515.087L205.563 499.042C205.592 498.066 205.725 497.096 205.96 496.148C206.054 495.756 206.059 495.348 205.973 494.955C205.887 494.561 205.713 494.192 205.464 493.876C205.215 493.56 204.897 493.304 204.534 493.129C204.172 492.953 203.774 492.863 203.371 492.863H179.651V507.865C179.664 508.686 179.394 509.486 178.888 510.132C178.381 510.778 177.668 511.23 176.868 511.414L182.198 515.087Z" fill="#E94741"/>
    <path d="M182.198 549.161L263.99 493.295V492.863H235.225C234.822 492.862 234.423 492.953 234.06 493.129C233.697 493.305 233.379 493.561 233.129 493.878C232.88 494.195 232.706 494.565 232.621 494.96C232.535 495.354 232.541 495.763 232.637 496.155C233.428 499.338 233.055 502.699 231.585 505.632C230.115 508.564 227.645 510.874 224.621 512.145C221.597 513.416 218.218 513.564 215.095 512.562C211.971 511.56 209.309 509.475 207.588 506.682L182.212 524.077L165.297 512.485C163.322 513.384 161.63 514.805 160.403 516.596C159.177 518.386 158.463 520.477 158.339 522.644C158.313 523.138 158.313 523.632 158.339 524.126C158.43 526.252 159.016 528.327 160.05 530.186C160.238 530.52 160.44 530.841 160.649 531.161C160.96 531.626 161.299 532.072 161.665 532.497C161.874 532.74 162.089 532.97 162.319 533.192C162.548 533.415 162.639 533.505 162.806 533.659C162.973 533.812 163.328 534.125 163.599 534.354C164.14 534.779 164.712 535.163 165.311 535.502C165.575 535.655 165.847 535.788 166.118 535.92C166.389 536.052 166.814 536.247 167.189 536.386C168.326 536.818 169.514 537.096 170.724 537.214C170.968 537.214 171.218 537.214 171.462 537.214L171.81 537.172C172.039 537.172 172.269 537.131 172.505 537.096L172.909 537.019C173.111 536.984 173.313 536.95 173.514 536.901L173.939 536.79C174.127 536.741 174.315 536.692 174.495 536.637C175.069 536.457 175.685 536.472 176.249 536.678C176.647 536.559 177.067 536.535 177.476 536.606C177.885 536.678 178.271 536.844 178.605 537.091C178.938 537.339 179.21 537.66 179.398 538.03C179.585 538.401 179.684 538.81 179.686 539.225V547.477L182.198 549.161Z" fill="#263370"/>
    <path d="M174.46 536.588C174.28 536.644 174.092 536.693 173.904 536.741L173.479 536.853C173.278 536.901 173.076 536.929 172.874 536.971L172.47 537.047C172.241 537.047 172.011 537.103 171.775 537.124L171.427 537.166C171.183 537.166 170.94 537.166 170.689 537.166C171.135 537.207 171.587 537.235 172.081 537.235C172.433 537.235 172.786 537.221 173.138 537.194L173.486 537.152C173.716 537.152 173.946 537.11 174.182 537.075L174.586 536.999C174.788 536.964 174.989 536.929 175.191 536.88L175.616 536.769C175.803 536.72 175.991 536.672 176.172 536.616H176.249C175.673 536.406 175.043 536.396 174.46 536.588Z" fill="#263370"/>
    <path d="M185.844 555.716H222.589L263.99 527.473V502.285L185.844 555.716Z" fill="#263370"/>
    <path d="M235.796 555.716H255.139C257.738 554.749 259.98 553.01 261.563 550.733C263.146 548.456 263.995 545.749 263.997 542.976V536.463L235.796 555.716Z" fill="#263370"/>
    <path d="M207.289 455.317C207.008 457.905 207.471 460.519 208.625 462.853L270.405 435.8L272.103 426.803L207.289 455.317Z" fill="white"/>
    <path d="M274.733 401.92C273.869 399.677 272.429 397.702 270.558 396.194L188.919 431.854L185.892 428.813L184.229 437.608L187.249 440.656L274.733 401.92Z" fill="white"/>
    <path d="M223.626 385.681L195.293 398.205L192.253 395.13L192.058 396.181C191.982 396.595 192.005 397.022 192.125 397.426C192.246 397.83 192.46 398.2 192.75 398.506C193.04 398.812 193.398 399.045 193.796 399.186C194.193 399.327 194.618 399.373 195.036 399.319H195.217L195.683 399.284H196.26H196.734H197.318L197.798 399.319L198.383 399.381L198.87 399.458L199.127 399.5L199.649 399.611H199.753H199.802L200.032 399.674L200.463 399.792L200.762 399.889L201.082 399.994L201.472 400.133L201.667 400.209L202.154 400.418H202.196C203.034 400.8 203.831 401.267 204.575 401.81L235.573 387.935L223.626 385.681Z" fill="white"/>
    <path d="M223.626 385.682L195.063 380.282L192.252 395.145L195.293 398.22L223.626 385.682Z" fill="#E94741"/>
    <path d="M188.919 431.855L270.572 396.195C268.83 394.784 266.764 393.828 264.561 393.412L235.573 387.936L204.582 401.852C206.362 403.129 207.812 404.812 208.81 406.761C209.809 408.711 210.327 410.871 210.322 413.062C210.322 413.201 210.322 413.34 210.322 413.479C210.322 413.618 210.322 413.632 210.322 413.702C210.322 413.771 210.322 414.015 210.322 414.175C210.322 414.335 210.322 414.335 210.322 414.418C210.322 414.502 210.322 414.62 210.322 414.718C210.322 414.815 210.322 414.808 210.322 414.85C210.322 414.892 210.288 415.093 210.267 415.212C210.246 415.33 210.225 415.455 210.204 415.573C210.183 415.692 210.155 415.81 210.128 415.935C210.1 416.061 210.079 416.179 210.044 416.297V416.429C210.044 416.527 209.988 416.624 209.961 416.715L209.898 416.944C209.856 417.097 209.808 417.243 209.752 417.39L209.682 417.605C209.634 417.737 209.585 417.863 209.536 417.995C208.573 420.473 206.912 422.619 204.755 424.174C202.598 425.729 200.036 426.625 197.38 426.755H197.332H196.803H196.184H195.843H195.53L195.084 426.706H194.848H194.799L194.173 426.602H194.138C193.839 426.546 193.54 426.477 193.247 426.4L193.101 426.365C192.814 426.287 192.531 426.198 192.252 426.101L192.085 426.045C191.807 425.948 191.529 425.837 191.257 425.718L191.042 425.579C190.782 425.463 190.527 425.34 190.276 425.21L190.165 425.155H190.102C189.734 424.96 189.325 424.855 188.908 424.847C188.491 424.84 188.079 424.931 187.703 425.112C187.328 425.294 187.001 425.561 186.748 425.892C186.495 426.224 186.324 426.61 186.248 427.019L185.9 428.849L188.919 431.855Z" fill="#E94741"/>
    <path d="M274.733 401.921L187.25 440.657L184.23 437.609L183.228 442.904L200.567 446.181L201.841 446.425L206.53 447.309C206.926 447.382 207.301 447.545 207.624 447.785C207.948 448.025 208.213 448.335 208.4 448.692C208.586 449.05 208.689 449.445 208.7 449.847C208.711 450.25 208.631 450.65 208.465 451.017C207.991 452.042 207.645 453.122 207.435 454.232C207.365 454.594 207.317 454.928 207.275 455.324L272.096 426.796L275.401 409.311C275.872 406.833 275.64 404.274 274.733 401.921Z" fill="#E94741"/>
    <path d="M208.625 462.854C210.025 465.705 212.369 467.982 215.258 469.3C218.147 470.619 221.404 470.896 224.474 470.085C227.545 469.274 230.24 467.426 232.102 464.853C233.964 462.281 234.878 459.143 234.689 455.973C234.663 455.568 234.73 455.162 234.885 454.787C235.039 454.411 235.278 454.077 235.582 453.808C235.887 453.539 236.249 453.344 236.64 453.237C237.032 453.129 237.443 453.113 237.841 453.19L247.416 454.999L253.497 456.147L266.105 458.534L270.405 435.774L208.625 462.854Z" fill="#263370"/>
    <path d="M46.5071 543.631C46.5071 543.631 46.0431 546.901 46.2976 547.478C46.2976 547.478 57.1419 549.678 61.3854 548.391C63.4809 547.021 53.0931 542.651 53.0931 542.651L46.5071 543.631Z" fill="#151912"/>
    <path d="M43.9896 493.987C46.9832 504.629 57.7783 519.389 57.7783 521.013C53.5722 528.19 50.0566 537.007 46.2151 543.802C47.7119 544.648 52.8834 543.899 53.9461 542.926C56.0417 538.87 65.5874 522.641 65.7757 521.013C65.9639 519.385 59.8136 502.262 56.2287 494.538C52.0901 494.464 48.1358 494.002 43.9896 493.987Z" fill="#1E2529"/>
    <circle cx="72.3942" cy="458.688" r="6.34277" fill="#F2B3A5"/>
    <path d="M90.3111 478.644C90.3111 478.644 92.7285 478.973 93.2149 478.703C93.9184 478.314 95.071 475.463 96.3807 475.425V477.94C96.3807 477.94 100.31 477.88 101.028 478.419C102.016 479.167 101.44 482.258 99.8533 483.336C99.1049 483.867 95.7595 483.561 95.1383 483.463C94.2477 483.336 94.0457 482.85 93.0653 482.812C92.4965 482.812 89.8396 482.445 89.8396 482.445C88.9191 481.592 89.3981 478.606 90.3111 478.644Z" fill="#F2B3A5"/>
    <path d="M68.5848 451.089C71.4138 450.655 76.6601 454.442 76.9146 455.078C79.6149 458.196 75.0907 463.546 75.0907 463.546C75.0907 463.546 74.7068 463.778 74.5122 463.778L71.0153 464.755C69.6784 465.162 69.5577 467.237 69.5577 468.609L68.0609 470.6L64.4761 463.864C65.0037 463.059 65.3447 462.145 65.4742 461.191C65.6036 460.237 65.5183 459.266 65.2245 458.349C64.9704 457.616 64.8611 456.841 64.9027 456.066C64.9574 455.39 65.1138 454.727 65.3667 454.098L65.6436 453.402C65.8878 452.792 66.2881 452.257 66.8044 451.851C67.3207 451.445 67.9347 451.183 68.5848 451.089Z" fill="url(#paint1_linear)"/>
    <path d="M12.4696 546.377C12.4696 546.377 11.8035 549.566 12.0579 550.119C12.0579 550.119 22.9023 552.32 27.1458 551.033C28.4854 549.259 18.8535 545.292 18.8535 545.292L12.4696 546.377Z" fill="#151912"/>
    <path d="M70.3811 449.839C69.2757 449.774 68.177 450.049 67.2325 450.627C66.2881 451.205 65.543 452.058 65.0974 453.072C64.5917 454.806 64.5607 456.643 65.0076 458.393C65.3545 459.199 65.5303 460.068 65.524 460.945C65.4886 461.268 65.4311 461.588 65.3518 461.903C67.2603 462.509 67.6495 461.776 68.1733 461.604C68.8169 461.452 69.4918 461.504 70.1042 461.754L69.6028 461.305C69.4061 461.127 69.2515 460.908 69.1505 460.663C69.0495 460.419 69.0046 460.154 69.019 459.89L69.0639 459.142C69.0697 458.975 69.1085 458.812 69.1781 458.661C69.2477 458.51 69.3468 458.375 69.4694 458.262C69.5921 458.15 69.7359 458.064 69.8925 458.008C70.049 457.952 70.2151 457.928 70.3811 457.937H70.5757C70.8723 457.954 71.1499 458.088 71.3476 458.31C71.5454 458.532 71.6473 458.823 71.631 459.119V459.314C71.641 459.509 71.7111 459.697 71.8317 459.851C71.9522 460.005 72.1173 460.118 72.3045 460.174C72.4841 458.865 74.0186 459.262 74.5575 457.481C77.0823 459.119 79.0128 459.671 79.2885 456.482C79.1763 452.59 73.8163 449.936 70.3811 449.839Z" fill="url(#paint2_linear)"/>
    <path d="M40.1289 492.608C37.9227 504.19 36.8196 522.284 34.6134 524.046C32.887 525.425 19.4459 538.937 12.1028 546.587C14.0786 547.47 18.7187 547.725 20.3352 545.966C26.0644 541.695 35.0505 535.109 43.4381 528.182C45.5299 524.354 52.2904 497.008 52.2904 497.008C52.2904 497.008 40.6453 491.605 40.1289 492.608Z" fill="#2C2D39"/>
    <path d="M63.9972 462.614C64.3487 462.385 64.7356 462.215 65.1423 462.112C65.8383 462.112 69.3633 466.086 68.9292 470.629C68.555 474.528 64.9028 480.852 64.9028 480.852L63.9972 462.614Z" fill="white"/>
    <path d="M64.2293 462.068C62.8297 461.985 58.054 465.031 49.2293 477.165C44.6264 482.425 41.4224 489.01 40.3013 491.49C40.0181 492.117 40.1035 492.835 40.5656 493.344C42.4623 495.433 48.1872 500.588 57.7119 499.478C58.401 499.398 58.9802 498.932 59.2428 498.29C63.2883 488.398 63.257 487.245 66.0514 481.577C67.6831 478.279 67.9595 474.719 68.2257 471.049C68.57 467.209 64.8579 462.105 64.2293 462.068Z" fill="#273271"/>
    <path d="M268.666 439.508C268.666 439.508 268.666 436.709 267.791 435.137C267.17 434.052 266.601 435.197 266.893 436.095C267.337 437.303 267.933 438.45 268.666 439.508Z" fill="url(#paint3_linear)"/>
    <path d="M172.99 424.281C172.99 424.281 172.649 425.211 172.386 426.007C172.315 426.22 172.258 426.412 172.201 426.597C172.144 426.782 173.338 427.428 174.468 427.457C175.356 427.457 176.258 427.059 176.031 426.576C175.874 425.932 175.812 425.269 175.846 424.607L172.99 424.281Z" fill="#EBBEAF"/>
    <path d="M176.066 377.611C176.066 377.611 176.066 392.502 178.015 405.739C176.636 418.149 176.023 424.542 176.066 425.388C174.862 425.685 173.607 425.709 172.393 425.459C172.393 425.459 172.393 420.08 172.393 407.118C171.672 402.982 171.121 402.154 167.525 391.572C167.134 388.317 168.236 383.848 168.236 383.848L176.066 377.611Z" fill="#800F09"/>
    <path d="M153.093 424.281C153.093 424.281 152.752 425.211 152.489 426.007C152.418 426.22 152.362 426.412 152.305 426.597C152.248 426.782 153.442 427.428 154.571 427.457C155.46 427.457 156.362 427.059 156.135 426.576C155.978 425.932 155.916 425.269 155.95 424.607L153.093 424.281Z" fill="#EBBEAF"/>
    <path d="M152.596 426.008C153.103 426.411 153.706 426.677 154.346 426.778C154.986 426.878 155.642 426.811 156.248 426.583C157.122 426.803 162.693 429.802 161.585 430.676C160.832 431.273 151.992 430.847 151.345 429.965C151.097 429.632 151.843 426.789 152.596 426.008Z" fill="#242025"/>
    <path d="M172.379 426.008C172.886 426.411 173.489 426.677 174.129 426.778C174.769 426.878 175.424 426.811 176.031 426.583C176.905 426.803 182.476 429.802 181.367 430.676C180.614 431.273 171.775 430.847 171.128 429.965C170.858 429.632 171.625 426.789 172.379 426.008Z" fill="#242025"/>
    <path d="M173.603 379.048C173.603 379.048 168.823 394.445 166.025 400.513C163.277 406.457 156.167 426.26 156.167 426.26C155.473 426.448 154.745 426.473 154.04 426.333C153.334 426.193 152.668 425.891 152.093 425.451C152.093 425.451 155.048 409.502 156.175 407.281C157.229 405.104 158.057 400.753 158.846 398.461C159.851 395.857 160.824 388.486 161.72 385.97C162.342 384.197 164.889 377.989 166.025 376.508L173.603 379.048Z" fill="#841712"/>
    <path d="M191.992 350.315C190.16 347.838 182.66 348.684 182.66 348.684C182.66 348.684 179.909 348.495 177.466 351.811C174.271 353.422 174.649 357.259 172.527 357.562C170.405 357.865 164.216 358.181 162.761 364.014C161.535 368.916 165.955 373.421 170.161 373.781C175.657 374.229 175.15 370.206 179.133 370.914C186.872 372.299 188.021 367.293 188.24 365.128C188.654 361.175 191.494 360.166 192.556 357.668C193.112 356.5 193.352 355.206 193.253 353.916C193.154 352.626 192.719 351.384 191.992 350.315Z" fill="#220A52"/>
    <path d="M186.689 364.334C186.689 364.334 188.915 370.17 191.545 372.545C194.419 375.014 197.478 377.259 200.695 379.26C202.751 380.494 204.597 382.048 206.163 383.863L201.098 382.052C199.693 381.839 200.571 384.344 199.573 384.43C198.575 384.515 199.487 381.491 198.264 380.695C197.401 380.133 191.302 376.936 189.778 375.044C188.637 373.614 184.035 368.179 184.035 368.179L186.689 364.334Z" fill="url(#paint4_linear)"/>
    <path d="M187.064 364.657C187.379 365.576 186.731 366.927 185.858 367.808C184.473 369.208 185.25 372.517 183.513 373.551C181.775 374.586 181.058 374.651 179.854 376.427C178.635 378.611 177.754 380.966 177.238 383.413C177.238 383.413 167.919 383.03 164.189 379.469C164.189 379.469 170.571 368.588 170.401 369.129C170.231 369.671 174.279 360.75 177.077 360.465C178.92 360.278 182.521 361.012 183.761 361.731C185.038 362.488 186.159 363.481 187.064 364.657Z" fill="#9595CB"/>
    <path d="M176.195 361.234C178.684 360.244 182.011 369.387 183.298 370.451C185.164 372.004 190.392 377.199 191.749 378.595C192.973 379.855 194.316 379.704 195.615 380.078L195.316 381.212C195.927 381.73 196.572 382.205 197.249 382.634C197.925 383.15 198.231 384.296 197.485 384.58C196.264 385.045 194.04 384.344 192.916 383.497C192.442 383.137 192.014 381.697 190.898 381.144C187.727 379.048 184.678 376.775 181.764 374.335C180.324 373.004 178.473 370.398 177.07 368.628C174.91 365.951 174.027 362.097 176.195 361.234Z" fill="url(#paint5_linear)"/>
    <path d="M186.409 360.189C185.847 361.186 185.439 362.263 185.2 363.383C185.121 364.545 183.602 366.649 182.675 366.55C181.749 366.451 180.444 362.949 181.294 361.555C182.278 360.088 182.96 358.44 183.301 356.707C183.301 356.707 183.643 359.615 186.409 360.189Z" fill="url(#paint6_linear)"/>
    <path d="M131.068 425.691L111.153 425.774C110.992 425.775 110.832 425.744 110.683 425.683C110.534 425.622 110.398 425.533 110.283 425.419C110.169 425.306 110.077 425.171 110.015 425.023C109.952 424.874 109.919 424.715 109.918 424.554C109.917 424.393 109.948 424.233 110.009 424.084C110.07 423.934 110.159 423.798 110.273 423.684C110.386 423.569 110.521 423.478 110.669 423.415C110.818 423.353 110.977 423.32 111.138 423.319L131.053 423.237C131.215 423.236 131.374 423.266 131.524 423.327C131.673 423.388 131.809 423.478 131.924 423.591C132.038 423.704 132.129 423.839 132.192 423.987C132.255 424.136 132.287 424.295 132.288 424.456C132.289 424.618 132.259 424.777 132.198 424.927C132.137 425.076 132.047 425.212 131.934 425.327C131.821 425.441 131.686 425.532 131.538 425.595C131.389 425.658 131.23 425.69 131.068 425.691Z" fill="url(#paint7_linear)"/>
    <path d="M123.093 378.54C123.932 378.537 124.609 377.804 124.606 376.903C124.602 376.002 123.919 375.274 123.08 375.277C122.24 375.281 121.563 376.014 121.567 376.915C121.571 377.816 122.254 378.544 123.093 378.54Z" fill="url(#paint8_linear)"/>
    <path d="M130.667 392.286L115.698 392.63L116.32 385.895C116.376 384.922 116.549 383.96 116.836 383.028C117.891 380.035 120.279 377.864 123.227 377.857C126.745 377.857 129.739 380.948 130.12 384.69C130.382 387.032 130.667 392.286 130.667 392.286Z" fill="url(#paint9_linear)"/>
    <path d="M130.292 417.232L131.916 407.233C134.012 405.235 134.117 402.077 134.109 400.67V395.431C134.109 395.431 126.737 392.048 122.808 392.041C119.755 392.235 115.818 393.672 113.595 394.496C113.099 394.658 112.666 394.972 112.357 395.394C112.048 395.815 111.879 396.323 111.874 396.846V400.67C111.186 404.771 114.359 407.45 114.359 407.45L114.823 417.644L130.292 417.232Z" fill="#273271"/>
    <path d="M112.391 412.181L112.323 395.05C110.29 396.68 108.738 398.832 107.833 401.277C107.264 403.245 103.155 408.476 101.891 410.961C101.314 412.091 100.581 413.206 100.588 414.553C100.662 415.887 101.152 417.164 101.988 418.206C102.656 419.116 103.657 419.726 104.772 419.904C105.226 420.023 105.694 420.083 106.164 420.084H106.321C107.043 420.119 107.766 420.051 108.469 419.882C109.829 419.469 111.09 418.781 112.174 417.861L112.338 413.476L112.391 412.181Z" fill="#F59E35"/>
    <path d="M109.562 427L119.598 427.591L116.394 393.276C116.394 393.276 112.563 394.504 111.156 395.851C109.749 397.198 109.547 414.696 109.247 421.978L109.562 427Z" fill="#F59E35"/>
    <path d="M136.961 419.949C136.601 412.674 135.524 396.748 134.094 395.401C132.665 394.054 128.556 393.223 128.556 393.223L125.952 426.901L136.549 426.258L136.961 419.949Z" fill="#F59E35"/>
    <path d="M135.546 419.355C134.611 418.996 133.72 418.531 132.889 417.971L132.68 413.585L132.62 412.313L134.117 395.384C135.614 396.379 136.557 399.126 137.253 401.371C137.859 403.332 140.299 407.935 141.638 410.412C142.244 411.534 143.015 412.657 143.023 413.989C143.143 415.34 142.834 416.694 142.14 417.858C141.578 418.644 140.082 419.116 138.719 419.355L137.851 419.527C137.082 419.687 136.283 419.628 135.546 419.355Z" fill="#F59E35"/>
    <path d="M107.818 415.81C107.818 415.81 110.295 413.079 112.765 413.453L112.443 414.486C112.443 414.486 116.185 415.099 116.387 415.429C116.814 416.117 113.132 415.608 113.132 415.608C113.132 415.608 116.267 416.222 116.372 416.439C116.477 416.656 116.013 418.587 115.302 418.811C114.591 419.036 108.858 418.871 108.274 418.325C107.901 418.036 107.647 417.62 107.563 417.155C107.479 416.691 107.57 416.212 107.818 415.81Z" fill="url(#paint10_linear)"/>
    <path d="M135.621 416.467C135.578 416.149 135.44 415.851 135.224 415.613C134.814 415.097 134.361 414.617 133.87 414.176C132.814 413.226 131.565 412.246 131.437 411.849C131.363 411.624 130.846 412.043 130.921 412.261C130.982 412.541 131.078 412.812 131.205 413.069C131.34 413.271 132.066 413.997 132.066 413.997C132.066 413.997 127.927 413.533 127.658 413.817C126.984 414.521 130.726 414.723 130.726 414.723C130.726 414.723 127.538 414.461 127.381 414.64C127.224 414.82 127.149 416.803 127.77 417.215C128.391 417.627 133.009 418.712 134.641 418.48C135.307 418.375 135.673 417.582 135.621 416.467Z" fill="url(#paint11_linear)"/>
    <path d="M123.332 398.169C123.332 398.169 120.66 396.568 120.653 395.221V388.612H125.892V395.221C125.922 396.545 123.332 398.169 123.332 398.169Z" fill="url(#paint12_linear)"/>
    <path d="M128.309 385.678C128.297 387.038 127.749 388.339 126.783 389.298C125.818 390.256 124.513 390.795 123.153 390.797C121.8 390.803 120.5 390.271 119.539 389.319C118.579 388.367 118.036 387.072 118.03 385.719C118.024 384.366 118.555 383.067 119.508 382.106C120.46 381.145 121.755 380.602 123.108 380.596C124.47 380.586 125.78 381.115 126.754 382.066C127.729 383.018 128.287 384.316 128.309 385.678Z" fill="url(#paint13_linear)"/>
    <path d="M110.789 421.789L110.692 409.627C110.703 409.228 110.87 408.848 111.156 408.569C111.442 408.29 111.826 408.132 112.226 408.131L132.979 408.033C133.182 408.032 133.384 408.072 133.571 408.149C133.759 408.226 133.93 408.339 134.074 408.482C134.218 408.626 134.332 408.796 134.41 408.983C134.488 409.171 134.528 409.372 134.528 409.575V424.042L110.692 424.139L110.789 421.789Z" fill="url(#paint14_linear)"/>
    <path d="M108.708 427.903L106.673 428.09L106.718 430.83L109.494 430.433L108.708 427.903Z" fill="#F59E35"/>
    <path d="M107.361 428.03C107.361 428.03 101.613 427.341 100.536 427.588C99.4581 427.835 97.7667 427.656 97.9837 430.006C98.2008 432.356 101.419 432.251 103.589 431.944C105.76 431.637 108.08 431.158 108.08 431.158C107.598 430.815 107.259 430.307 107.126 429.731C106.994 429.154 107.077 428.549 107.361 428.03Z" fill="#878686"/>
    <path d="M102.19 427.59C101.139 427.499 100.081 427.537 99.0391 427.702C98.5526 427.882 97.8192 428.196 97.9838 429.947C98.2009 432.297 99.6453 432.147 100.656 432.147C101.364 432.133 102.07 432.06 102.766 431.93C102.766 431.93 101.823 429.476 102.19 427.59Z" fill="#BFBFBF"/>
    <path d="M106.456 430.404C106.469 430.398 106.48 430.39 106.49 430.38C106.5 430.369 106.507 430.357 106.512 430.344C106.517 430.331 106.519 430.317 106.519 430.302C106.518 430.288 106.514 430.274 106.508 430.262C106.311 429.676 106.295 429.045 106.463 428.451C106.467 428.437 106.468 428.422 106.467 428.408C106.465 428.394 106.461 428.38 106.454 428.368C106.447 428.355 106.437 428.344 106.426 428.335C106.415 428.326 106.402 428.32 106.388 428.316C106.374 428.312 106.36 428.311 106.346 428.312C106.332 428.314 106.318 428.318 106.305 428.325C106.293 428.332 106.282 428.342 106.273 428.353C106.264 428.364 106.257 428.377 106.254 428.391C106.07 429.035 106.091 429.72 106.313 430.352C106.319 430.364 106.327 430.376 106.338 430.386C106.348 430.396 106.36 430.403 106.373 430.408C106.387 430.413 106.401 430.415 106.415 430.414C106.429 430.414 106.443 430.41 106.456 430.404Z" fill="white"/>
    <path d="M105.58 430.478C105.593 430.472 105.605 430.464 105.615 430.454C105.624 430.443 105.632 430.431 105.637 430.418C105.642 430.405 105.644 430.391 105.643 430.376C105.642 430.362 105.639 430.348 105.632 430.336C105.436 429.75 105.42 429.119 105.588 428.525C105.592 428.511 105.593 428.496 105.591 428.482C105.589 428.468 105.585 428.454 105.578 428.442C105.571 428.429 105.562 428.418 105.551 428.409C105.539 428.4 105.527 428.394 105.513 428.39C105.499 428.386 105.485 428.385 105.47 428.386C105.456 428.388 105.442 428.392 105.43 428.399C105.417 428.406 105.406 428.416 105.397 428.427C105.389 428.438 105.382 428.451 105.378 428.465C105.194 429.109 105.215 429.794 105.438 430.425C105.444 430.438 105.452 430.45 105.462 430.46C105.472 430.47 105.485 430.477 105.498 430.482C105.511 430.487 105.525 430.489 105.539 430.488C105.554 430.488 105.567 430.484 105.58 430.478Z" fill="white"/>
    <path d="M103.791 430.642C103.804 430.636 103.816 430.628 103.826 430.618C103.836 430.607 103.843 430.595 103.848 430.582C103.853 430.568 103.855 430.554 103.854 430.54C103.854 430.526 103.85 430.512 103.844 430.499C103.647 429.914 103.631 429.283 103.799 428.688C103.803 428.675 103.804 428.66 103.802 428.646C103.801 428.632 103.796 428.618 103.789 428.605C103.782 428.593 103.773 428.582 103.762 428.573C103.751 428.564 103.738 428.558 103.724 428.554C103.71 428.55 103.696 428.549 103.682 428.55C103.667 428.552 103.654 428.556 103.641 428.563C103.629 428.57 103.618 428.579 103.609 428.591C103.6 428.602 103.593 428.615 103.589 428.628C103.406 429.273 103.427 429.958 103.649 430.589C103.655 430.602 103.663 430.614 103.673 430.624C103.684 430.633 103.696 430.641 103.709 430.646C103.722 430.651 103.737 430.653 103.751 430.652C103.765 430.651 103.779 430.648 103.791 430.642Z" fill="white"/>
    <path d="M137.544 428.287L139.587 428.272L139.805 431.003L137.005 430.876L137.544 428.287Z" fill="#F59E35"/>
    <path d="M141.646 428.009L108.529 431.138L107.032 426.692L139.662 419.515C142.244 419.275 145.897 420.772 146.143 423.362C146.361 425.951 144.205 427.77 141.646 428.009Z" fill="#1A245A"/>
    <path d="M103.851 428.211L110.512 429.573L137.649 431.639L138.211 428.234L105.52 419.537C102.946 419.23 99.533 420.974 99.1962 423.548C98.8968 426.093 101.277 427.904 103.851 428.211Z" fill="#273271"/>
    <path d="M138.892 428.278C138.892 428.278 144.55 427.05 145.627 427.192C146.705 427.335 148.389 426.998 148.396 429.355C148.404 431.713 145.193 431.952 143 431.818C140.807 431.683 138.51 431.458 138.51 431.458C138.951 431.066 139.233 430.526 139.303 429.94C139.374 429.354 139.227 428.763 138.892 428.278Z" fill="#878686"/>
    <path d="M140.022 430.583C140.008 430.578 139.996 430.572 139.985 430.562C139.974 430.553 139.966 430.542 139.959 430.53C139.953 430.517 139.949 430.503 139.949 430.489C139.948 430.475 139.95 430.461 139.954 430.448C140.094 429.848 140.05 429.219 139.827 428.644C139.816 428.617 139.816 428.587 139.828 428.561C139.839 428.534 139.86 428.513 139.887 428.502C139.914 428.491 139.944 428.491 139.97 428.503C139.997 428.514 140.018 428.535 140.029 428.562C140.272 429.184 140.317 429.867 140.156 430.515C140.152 430.529 140.145 430.541 140.136 430.552C140.127 430.562 140.116 430.571 140.103 430.578C140.091 430.584 140.077 430.587 140.063 430.588C140.049 430.589 140.035 430.587 140.022 430.583Z" fill="white"/>
    <path d="M140.897 430.583C140.884 430.578 140.871 430.572 140.861 430.562C140.85 430.553 140.841 430.542 140.835 430.53C140.829 430.517 140.825 430.503 140.824 430.489C140.823 430.475 140.825 430.461 140.83 430.448C140.97 429.848 140.925 429.219 140.703 428.644C140.697 428.631 140.694 428.617 140.695 428.602C140.695 428.588 140.698 428.574 140.703 428.561C140.709 428.548 140.717 428.536 140.727 428.526C140.737 428.515 140.749 428.507 140.763 428.502C140.776 428.497 140.79 428.494 140.804 428.494C140.819 428.494 140.833 428.497 140.846 428.503C140.859 428.508 140.871 428.516 140.881 428.526C140.891 428.537 140.899 428.549 140.905 428.562C141.148 429.184 141.192 429.867 141.032 430.515C141.028 430.529 141.021 430.541 141.012 430.552C141.003 430.562 140.991 430.571 140.979 430.578C140.966 430.584 140.953 430.587 140.939 430.588C140.925 430.589 140.91 430.587 140.897 430.583Z" fill="white"/>
    <path d="M141.78 430.583C141.767 430.578 141.755 430.572 141.744 430.562C141.733 430.553 141.724 430.542 141.718 430.53C141.712 430.517 141.708 430.503 141.707 430.489C141.706 430.475 141.708 430.461 141.713 430.448C141.853 429.848 141.808 429.219 141.586 428.644C141.58 428.631 141.578 428.617 141.578 428.602C141.578 428.588 141.581 428.574 141.586 428.561C141.592 428.548 141.6 428.536 141.61 428.526C141.62 428.515 141.632 428.507 141.646 428.502C141.659 428.497 141.673 428.494 141.687 428.494C141.702 428.494 141.716 428.497 141.729 428.503C141.742 428.508 141.754 428.516 141.764 428.526C141.775 428.537 141.782 428.549 141.788 428.562C142.031 429.184 142.076 429.867 141.915 430.515C141.911 430.529 141.904 430.541 141.895 430.552C141.886 430.562 141.875 430.571 141.862 430.578C141.849 430.584 141.836 430.587 141.822 430.588C141.808 430.589 141.794 430.587 141.78 430.583Z" fill="white"/>
    <path d="M142.663 430.544C142.65 430.54 142.638 430.533 142.627 430.524C142.616 430.515 142.607 430.504 142.601 430.491C142.595 430.478 142.591 430.465 142.59 430.451C142.589 430.437 142.591 430.423 142.596 430.409C142.736 429.809 142.691 429.18 142.469 428.606C142.463 428.592 142.461 428.578 142.461 428.564C142.461 428.55 142.464 428.535 142.469 428.522C142.475 428.509 142.483 428.497 142.493 428.487C142.503 428.477 142.515 428.469 142.529 428.464C142.542 428.458 142.556 428.455 142.57 428.455C142.585 428.456 142.599 428.458 142.612 428.464C142.625 428.47 142.637 428.478 142.647 428.488C142.657 428.498 142.665 428.51 142.671 428.523C142.914 429.146 142.958 429.828 142.798 430.477C142.794 430.49 142.787 430.503 142.778 430.513C142.769 430.524 142.758 430.533 142.745 430.539C142.732 430.545 142.719 430.549 142.705 430.55C142.691 430.551 142.677 430.549 142.663 430.544Z" fill="white"/>
    <path d="M123.115 417.701C123.909 417.698 124.549 417.052 124.546 416.259C124.543 415.465 123.897 414.824 123.103 414.828C122.309 414.831 121.669 415.477 121.672 416.271C121.675 417.064 122.322 417.705 123.115 417.701Z" fill="white"/>
    <path d="M128.549 385.791C126.691 385.468 124.806 385.33 122.921 385.38L123.332 379.677L127.74 381.997L128.549 385.791Z" fill="url(#paint15_linear)"/>
    <path d="M119.508 385.522L117.263 385.679L119.59 381.188C119.799 380.864 120.078 380.59 120.405 380.386C120.733 380.182 121.102 380.053 121.485 380.008C121.868 379.963 122.257 380.003 122.622 380.125C122.988 380.248 123.323 380.45 123.602 380.717L124.021 381.75L121.753 384.242C121.511 384.621 121.179 384.936 120.788 385.159C120.397 385.382 119.958 385.506 119.508 385.522Z" fill="url(#paint16_linear)"/>
    <path d="M104.724 430.534C104.737 430.529 104.749 430.521 104.759 430.51C104.769 430.5 104.776 430.488 104.781 430.474C104.786 430.461 104.788 430.447 104.787 430.433C104.787 430.419 104.783 430.405 104.777 430.392C104.58 429.807 104.564 429.176 104.732 428.581C104.74 428.553 104.736 428.523 104.722 428.498C104.708 428.473 104.685 428.454 104.657 428.446C104.629 428.438 104.599 428.442 104.574 428.456C104.549 428.47 104.53 428.493 104.522 428.521C104.339 429.165 104.36 429.85 104.582 430.482C104.588 430.495 104.596 430.507 104.606 430.516C104.617 430.526 104.629 430.534 104.642 430.539C104.655 430.543 104.67 430.546 104.684 430.545C104.698 430.544 104.712 430.541 104.724 430.534Z" fill="white"/>
    <path d="M294.113 554.086C291.127 553.248 287.193 551.362 287.221 550.121C287.286 547.296 298.529 548.629 298.529 548.629C298.743 550.2 298.833 551.791 298.795 553.382C298.724 554.421 296.084 554.639 294.113 554.086Z" fill="#151912"/>
    <path d="M281.174 465.592C280.608 468.928 281.72 475.229 281.567 482.032C281.378 490.296 280.382 497.295 280.753 497.6C286.066 502.114 299.228 496.438 299.497 494.381C301.184 481.298 296.968 464.385 294.708 461.529C291.103 456.993 281.712 462.437 281.174 465.592Z" fill="#F59E35"/>
    <circle cx="287.773" cy="452.346" r="6.61854" fill="#E58057"/>
    <path d="M282.19 560.752C279.287 560.242 273.974 558.669 273.48 556.578C273.175 555.272 274.315 554.175 277.458 553.898C279.708 553.708 287.242 553.976 287.242 553.976C287.242 553.976 287.968 558.877 287.721 560.026C287.475 561.176 284.484 561.15 282.19 560.752Z" fill="#151912"/>
    <path d="M286.685 529.477C286.507 524.287 288.905 509.377 288.905 509.377L293.065 493.121C287.743 494.161 280.696 496.527 280.785 497.776C280.857 498.777 280.365 505.914 279.873 513.065C279.395 520 278.917 526.949 278.95 528.332C278.96 528.781 278.976 529.675 278.997 530.871L279.001 531.115C279.111 537.518 279.357 551.794 279.756 554.324C280.052 556.179 287.98 555.628 287.832 553.956C287.64 551.775 286.774 532.427 286.685 529.477Z" fill="#4F4F4F"/>
    <path d="M297.262 520.701C297.373 513.179 298.854 493.121 298.854 493.121C298.648 492.361 296.145 492.519 293.065 493.121L288.905 509.377C288.905 509.377 290.179 521.236 290.334 527.429C290.408 531.006 291.689 545.858 291.888 548.323C292.088 550.789 299.216 550.672 299.35 548.432C299.483 546.192 297.151 528.223 297.262 520.701Z" fill="#4F4F4F"/>
    <path d="M297.367 521.168C297.472 513.669 298.879 493.119 298.879 493.119C298.683 492.362 296.305 492.519 293.379 493.119L289.427 509.878C289.427 509.878 290.637 521.702 290.784 527.876C290.855 531.442 292.071 546.249 292.261 548.707C292.451 551.166 299.223 551.049 299.35 548.816C299.476 546.583 297.261 528.668 297.367 521.168Z" fill="#414141"/>
    <path d="M292.68 450.271C292.68 446.411 291.001 444.194 286.866 445.314C282.941 446.375 282.145 449.088 281.798 451.055C281.452 453.021 284.154 453.807 285.79 456.616C286.102 457.008 286.394 457.861 285.79 459.61C285.761 460.86 285.623 461.754 285.943 461.994C286.822 462.641 291.648 461.195 291.648 460.083C291.648 459.298 291.735 457.866 291.844 456.616C292.985 455.496 292.68 453.905 292.68 450.271Z" fill="url(#paint17_linear)"/>
    <path d="M269.088 438.526C268.121 436.789 266.907 435.03 265.94 434.783C264.974 434.536 263.309 436.069 264.073 437.69C264.4 438.381 264.858 439.362 265.337 440.546C266.137 442.509 267.06 442.727 267.794 442.676C269.778 442.422 270.454 441.019 269.088 438.526Z" fill="url(#paint18_linear)"/>
    <path d="M276.814 455.154C275.687 453.199 271.501 441.948 270.272 441.032C269.044 440.116 266.05 441.613 266.406 443.27C267.176 446.854 271.239 457.312 272.22 459.188C274.008 462.567 282.221 474.865 284.859 470.577C287.156 466.805 277.947 457.109 276.814 455.154Z" fill="#FBA63F"/>
    <path d="M287.207 452.844C286.422 452.706 286.051 454.051 285.884 453.992C285.55 453.876 286.262 451.303 285.157 450.155C284.496 449.428 282.563 449.604 282.257 448.761C281.828 447.307 284.184 445.583 286.684 445.016C291.045 444.028 295.219 447.382 295.219 452.071C295.219 456.76 293.012 456.759 291.677 458.31C291.677 459.153 288.871 459.08 288.116 458.44C287.772 458.073 287.53 457.622 287.413 457.133C287.296 456.644 287.307 456.133 287.447 455.65C288.145 454.567 288.225 453.018 287.207 452.844Z" fill="#552D1A"/>
    <circle cx="287.221" cy="454" r="1.65464" fill="#E58057"/>
    <path d="M75.0437 480.628C81.4576 482.125 90.618 483.622 91.808 483.293C92.489 483.083 93.6116 479.176 93.0728 478.144C88.051 477.508 83.076 476.546 78.1795 475.262C75.5152 474.424 69.4008 469.776 67.8965 468.886C66.3922 467.995 62.5379 466.805 61.2207 469.252C59.9035 471.7 63.0693 475.24 65.1199 476.205C65.1423 476.198 73.1428 480.187 75.0437 480.628Z" fill="#273271"/>
    <circle cx="185.851" cy="357.475" r="4.41236" transform="rotate(3.92481 185.851 357.475)" fill="#FFACA8"/>
    <path d="M189.125 355.181C192.069 354.462 191.04 351.442 191.04 351.442C189.326 350.615 181.653 350.502 180.957 357.385C183.082 357.751 184.34 357.88 189.125 355.181Z" fill="#220A52"/>
    <circle cx="70.188" cy="459.791" r="1.93041" fill="#F2B3A5"/>
    <defs>
        <linearGradient id="paint0_linear" x1="-12714.1" y1="4774.33" x2="-12724.1" y2="4642.28" gradientUnits="userSpaceOnUse">
            <stop offset="0.07" stop-color="#ECDFCF"/>
            <stop offset="0.8" stop-color="#E58057"/>
        </linearGradient>
        <linearGradient id="paint1_linear" x1="20625.6" y1="22495.4" x2="20960.1" y2="22495.4" gradientUnits="userSpaceOnUse">
            <stop stop-color="#F2B3A5"/>
            <stop offset="0.32" stop-color="#F2B5A8"/>
            <stop offset="0.51" stop-color="#F4BCB0"/>
            <stop offset="0.67" stop-color="#F6C8BE"/>
            <stop offset="0.8" stop-color="#F9D9D2"/>
            <stop offset="0.93" stop-color="#FCEFEC"/>
            <stop offset="1" stop-color="white"/>
        </linearGradient>
        <linearGradient id="paint2_linear" x1="12989.8" y1="2644.36" x2="12858.3" y2="2917.34" gradientUnits="userSpaceOnUse">
            <stop offset="0.07" stop-color="#7A3E25"/>
            <stop offset="1" stop-color="#3E2212"/>
        </linearGradient>
        <linearGradient id="paint3_linear" x1="-3685.81" y1="3315.39" x2="-3699.86" y2="3229.61" gradientUnits="userSpaceOnUse">
            <stop offset="0.07" stop-color="#ECDFCF"/>
            <stop offset="0.8" stop-color="#E58057"/>
        </linearGradient>
        <linearGradient id="paint4_linear" x1="190.902" y1="372.185" x2="182.607" y2="362.035" gradientUnits="userSpaceOnUse">
            <stop offset="0.22" stop-color="#FFD6D6"/>
            <stop offset="1" stop-color="#FFACA8"/>
        </linearGradient>
        <linearGradient id="paint5_linear" x1="-33380.3" y1="1572.63" x2="-34112.3" y2="1625.41" gradientUnits="userSpaceOnUse">
            <stop offset="0.22" stop-color="#FFD6D6"/>
            <stop offset="1" stop-color="#FFACA8"/>
        </linearGradient>
        <linearGradient id="paint6_linear" x1="8189.2" y1="1790.32" x2="8153.38" y2="1641.62" gradientUnits="userSpaceOnUse">
            <stop offset="0.22" stop-color="#FFD6D6"/>
            <stop offset="1" stop-color="#FFACA8"/>
        </linearGradient>
        <linearGradient id="paint7_linear" x1="121.143" y1="417.532" x2="121.075" y2="428.212" gradientUnits="userSpaceOnUse">
            <stop stop-color="#032B6B"/>
            <stop offset="0.95" stop-color="#030C43"/>
        </linearGradient>
        <linearGradient id="paint8_linear" x1="121.567" y1="376.908" x2="124.613" y2="376.895" gradientUnits="userSpaceOnUse">
            <stop stop-color="#92525D"/>
            <stop offset="0.2" stop-color="#6D3C4D"/>
            <stop offset="0.44" stop-color="#47263C"/>
            <stop offset="0.66" stop-color="#2B1631"/>
            <stop offset="0.85" stop-color="#1B0C2A"/>
            <stop offset="1" stop-color="#150927"/>
        </linearGradient>
        <linearGradient id="paint9_linear" x1="2527.06" y1="1331.35" x2="2493.86" y2="1032.23" gradientUnits="userSpaceOnUse">
            <stop stop-color="#92525D"/>
            <stop offset="0.2" stop-color="#6D3C4D"/>
            <stop offset="0.44" stop-color="#47263C"/>
            <stop offset="0.66" stop-color="#2B1631"/>
            <stop offset="0.85" stop-color="#1B0C2A"/>
            <stop offset="1" stop-color="#150927"/>
        </linearGradient>
        <linearGradient id="paint10_linear" x1="106.09" y1="416.592" x2="112.584" y2="416.198" gradientUnits="userSpaceOnUse">
            <stop offset="0.07" stop-color="#ECDFCF"/>
            <stop offset="0.8" stop-color="#E58057"/>
        </linearGradient>
        <linearGradient id="paint11_linear" x1="1523.52" y1="1022.69" x2="1608.05" y2="1043.24" gradientUnits="userSpaceOnUse">
            <stop offset="0.07" stop-color="#ECDFCF"/>
            <stop offset="0.8" stop-color="#E58057"/>
        </linearGradient>
        <linearGradient id="paint12_linear" x1="961.946" y1="1062.39" x2="955.332" y2="927.383" gradientUnits="userSpaceOnUse">
            <stop offset="0.07" stop-color="#ECDFCF"/>
            <stop offset="0.8" stop-color="#E58057"/>
        </linearGradient>
        <linearGradient id="paint13_linear" x1="1763.86" y1="988.878" x2="1765.28" y2="896.05" gradientUnits="userSpaceOnUse">
            <stop offset="0.07" stop-color="#ECDFCF"/>
            <stop offset="0.8" stop-color="#E58057"/>
        </linearGradient>
        <linearGradient id="paint14_linear" x1="122.618" y1="408.454" x2="122.622" y2="425.555" gradientUnits="userSpaceOnUse">
            <stop offset="0.07" stop-color="#E6E7E8"/>
            <stop offset="0.8" stop-color="#6D6E71"/>
        </linearGradient>
        <linearGradient id="paint15_linear" x1="1058.27" y1="823.874" x2="1036.84" y2="647.804" gradientUnits="userSpaceOnUse">
            <stop stop-color="#92525D"/>
            <stop offset="0.2" stop-color="#6D3C4D"/>
            <stop offset="0.44" stop-color="#47263C"/>
            <stop offset="0.66" stop-color="#2B1631"/>
            <stop offset="0.85" stop-color="#1B0C2A"/>
            <stop offset="1" stop-color="#150927"/>
        </linearGradient>
        <linearGradient id="paint16_linear" x1="1196.95" y1="798.474" x2="1181.52" y2="636.316" gradientUnits="userSpaceOnUse">
            <stop stop-color="#92525D"/>
            <stop offset="0.2" stop-color="#6D3C4D"/>
            <stop offset="0.44" stop-color="#47263C"/>
            <stop offset="0.66" stop-color="#2B1631"/>
            <stop offset="0.85" stop-color="#1B0C2A"/>
            <stop offset="1" stop-color="#150927"/>
        </linearGradient>
        <linearGradient id="paint17_linear" x1="-23081.1" y1="10699.3" x2="-23111.7" y2="10388.8" gradientUnits="userSpaceOnUse">
            <stop offset="0.07" stop-color="#ECDFCF"/>
            <stop offset="0.8" stop-color="#E58057"/>
        </linearGradient>
        <linearGradient id="paint18_linear" x1="-12379.2" y1="5178.99" x2="-12391.3" y2="5034.96" gradientUnits="userSpaceOnUse">
            <stop offset="0.07" stop-color="#ECDFCF"/>
            <stop offset="0.8" stop-color="#E58057"/>
        </linearGradient>
    </defs>
</svg>
