<svg width="625" height="774" viewBox="0 0 625 774" fill="none" xmlns="http://www.w3.org/2000/svg">
    <path fill-rule="evenodd" clip-rule="evenodd" d="M532.828 9.37606C602.94 13.4801 669.133 18.1975 736.228 38.9526C837.236 70.1985 960.948 73.2179 1020.85 160.342C1083.76 251.832 1092.97 385.603 1042.61 484.554C993.61 580.828 866.383 595.419 772.347 648.587C692.095 693.962 624.128 785.575 532.828 772.788C441.781 760.037 409.249 645.241 337.552 587.692C271.207 534.438 174.856 522.182 130.313 449.7C79.9999 367.829 45.5655 261.309 82.4453 172.572C118.958 84.7201 221.914 46.4932 311.36 14.0827C382.524 -11.7036 457.266 4.95296 532.828 9.37606Z" fill="#F1F1FB"/>
    <path d="M496.145 216.215C493.788 213.124 480.733 190.812 478.376 189.528C476.019 188.245 471.292 191.453 472.274 194.203C474.382 200.148 483.64 217.118 485.735 220.091C489.532 225.473 505.586 244.879 511.138 238.947C515.879 233.892 498.502 219.318 496.145 216.215Z" fill="#FA9B2A"/>
    <path d="M471.309 182.16C472.409 182.291 473.863 183.469 475.238 185.132L475.761 182.422C477.582 184.831 478.983 190.606 478.983 190.606C479.781 192.989 478.668 194.534 476.154 195.202C474.923 195.516 473.287 195.293 471.493 192.111C470.406 190.187 469.411 188.615 468.703 187.515C467.093 184.936 469.764 181.963 471.309 182.16Z" fill="url(#paint0_linear)"/>
    <path d="M272.213 330.039C276.195 326.996 281.009 325.236 286.014 324.993C286.658 324.993 287.276 324.993 287.932 324.993H288.134H288.714L205.767 268.021C203.345 272.245 202.071 277.029 202.07 281.898L272.213 330.039Z" fill="white"/>
    <path d="M148 294.349V306.65L298.617 409.895H300.913V395.261L152.92 294.349H148Z" fill="white"/>
    <path d="M148 352.799V368.72L208.05 409.897H231.717L148 352.799Z" fill="white"/>
    <path d="M288.714 325.069C289.118 325.069 289.521 325.069 289.976 325.158H290.253C290.825 325.225 291.393 325.318 291.956 325.435H292.246C292.81 325.553 293.365 325.688 293.912 325.839L294.164 325.915L294.719 326.079C295.445 326.315 296.217 326.374 296.97 326.254C297.724 326.133 298.438 325.835 299.054 325.384C299.67 324.933 300.17 324.342 300.513 323.66C300.856 322.978 301.032 322.225 301.027 321.461V294.351H253.34C250.817 294.351 247.701 292.433 247.373 289.746C247.326 288.898 247.407 288.047 247.613 287.223C248.546 282.177 248.874 274.973 246.263 270.28C245.901 269.624 245.506 268.985 245.077 268.362C242.318 264.31 238.438 261.15 233.912 259.267L232.852 258.85C232.137 258.59 231.41 258.363 230.67 258.169C229.166 257.78 227.628 257.535 226.078 257.437C222.036 257.084 217.977 257.894 214.381 259.771C210.784 261.649 207.8 264.516 205.779 268.034L288.714 325.069Z" fill="#E94741"/>
    <path d="M297.545 373.854C297.217 373.955 296.876 374.043 296.536 374.131L295.766 374.333C295.4 374.422 295.034 374.472 294.669 374.548L293.937 374.687C293.533 374.687 293.104 374.787 292.675 374.825L292.044 374.901C291.414 374.951 290.775 374.977 290.127 374.977C289.294 374.977 288.474 374.977 287.604 374.851H287.023C284.005 374.849 281.013 374.297 278.193 373.223C277.537 372.971 276.931 372.681 276.25 372.378C275.569 372.075 275.266 371.886 274.786 371.621C273.701 371.006 272.664 370.31 271.683 369.539C271.191 369.148 270.712 368.732 270.245 368.278C269.778 367.824 269.652 367.723 269.362 367.433C269.072 367.142 268.554 366.6 268.176 366.171C267.513 365.402 266.898 364.593 266.334 363.749C265.955 363.181 265.59 362.588 265.249 361.983C263.374 358.611 262.311 354.849 262.146 350.994C262.099 350.099 262.099 349.202 262.146 348.307C262.404 344.716 263.438 341.223 265.176 338.07C266.914 334.916 269.314 332.177 272.213 330.04L202.07 281.949C202.07 282.076 202.07 282.202 202.07 282.315C202.07 282.854 202.07 283.388 202.07 283.917C202.07 284.094 202.07 284.271 202.07 284.447C202.07 284.624 202.07 285.141 202.171 285.494C202.272 285.848 202.234 285.911 202.272 286.113C202.31 286.314 202.36 286.731 202.423 287.034C202.487 287.336 202.512 287.462 202.562 287.677C202.613 287.891 202.663 288.182 202.726 288.421C203.483 291.449 198.626 294.376 195.51 294.376H152.92L300.926 395.3V378.32C300.93 377.33 300.626 376.364 300.057 375.555C299.487 374.745 298.68 374.133 297.747 373.803H297.608L297.545 373.854Z" fill="#263370"/>
    <path d="M148 306.65V352.798L231.717 409.896H298.617L148 306.65Z" fill="#263370"/>
    <path d="M148 368.72V385.221C148 391.766 150.6 398.042 155.227 402.67C159.855 407.298 166.132 409.897 172.676 409.897H208L148 368.72Z" fill="#263370"/>
    <path d="M305.405 224.208L324.442 210.949C323.149 210.39 321.811 209.943 320.443 209.612H320.367L319.433 209.41L319.055 209.347L318.323 209.221L317.705 209.145L317.137 209.082L316.33 209.019H315.901H315.611H314.64H314.173L313.264 208.93L312.192 209.006L311.322 209.107L310.275 209.271L309.429 209.435L308.407 209.675L307.587 209.889L307.272 209.977C306.549 210.204 305.784 210.258 305.036 210.135C304.289 210.013 303.58 209.718 302.967 209.273C302.355 208.828 301.854 208.246 301.506 207.573C301.159 206.9 300.973 206.155 300.964 205.398L258.361 176.13H236.057L305.405 224.208Z" fill="white"/>
    <path d="M148 288.585V291.625H152.453L148 288.585Z" fill="white"/>
    <path d="M148 242.449L199.598 277.773C199.923 273.024 201.61 268.469 204.455 264.652L148 225.885V242.449Z" fill="white"/>
    <path d="M300.913 283.765V267.541L167.92 176.545C163.049 177.5 158.582 179.906 155.103 183.446L300.913 283.765Z" fill="white"/>
    <path d="M300.926 205.449L300.914 205.437V176.08H258.361L300.926 205.449Z" fill="#E94741"/>
    <path d="M300.913 267.542V262.256C300.911 261.5 301.087 260.754 301.426 260.079C301.766 259.403 302.259 258.817 302.867 258.368C303.475 257.918 304.18 257.618 304.926 257.491C305.671 257.365 306.436 257.415 307.158 257.639H307.284H307.499C307.986 257.782 308.483 257.912 308.987 258.03H309.151C309.669 258.144 310.198 258.245 310.741 258.333H311.056C311.586 258.409 312.116 258.472 312.658 258.51H312.936C313.478 258.51 314.034 258.51 314.601 258.51H314.664H315.812H315.901H316.33L317.137 258.447L317.705 258.383L318.31 258.308L319.055 258.182L319.42 258.119L320.367 257.917H320.442C325.119 256.77 329.368 254.305 332.685 250.814C336.001 247.323 338.246 242.953 339.151 238.224C339.151 237.971 339.239 237.732 339.277 237.479C339.315 237.227 339.277 237.214 339.277 237.076C339.277 236.937 339.353 236.508 339.378 236.23C339.403 235.953 339.378 235.94 339.378 235.789C339.378 235.638 339.378 235.423 339.378 235.246C339.378 235.07 339.378 235.082 339.378 235.007C339.378 234.931 339.378 234.565 339.378 234.338C339.378 234.111 339.378 233.897 339.378 233.67C339.378 233.442 339.378 233.228 339.378 233.001C339.378 232.774 339.378 232.559 339.378 232.332C339.378 232.105 339.378 231.815 339.378 231.55C339.378 231.285 339.378 231.26 339.378 231.109C339.378 230.957 339.315 230.541 339.277 230.263C339.239 229.986 339.277 229.998 339.277 229.86C339.277 229.721 339.189 229.355 339.151 229.115C338.37 225.116 336.621 221.369 334.056 218.202C331.492 215.035 328.191 212.545 324.441 210.949L305.404 224.208L236.057 176.13H172.676C171.079 176.132 169.487 176.288 167.92 176.597L300.913 267.542Z" fill="#E94741"/>
    <path d="M253.34 291.625H300.926V283.765L155.103 183.446C150.547 188.054 147.994 194.275 148 200.755V225.885L204.455 264.703C206.932 261.36 210.209 258.692 213.984 256.942C217.759 255.192 221.913 254.417 226.065 254.686C227.616 254.784 229.153 255.029 230.657 255.418C231.397 255.612 232.125 255.839 232.84 256.099L233.899 256.516C238.426 258.399 242.305 261.559 245.064 265.612C245.485 266.234 245.88 266.873 246.25 267.529C248.128 270.882 249.195 274.628 249.366 278.467C249.366 279.081 249.366 279.686 249.366 280.283C249.366 280.485 249.366 280.687 249.366 280.889C249.366 281.28 249.366 281.684 249.29 282.075C249.215 282.466 249.29 282.542 249.202 282.781C249.114 283.021 249.114 283.488 249.051 283.828C248.988 284.169 248.95 284.32 248.899 284.56C248.849 284.8 248.773 285.216 248.698 285.532V285.658C248.524 286.364 248.513 287.101 248.665 287.812C248.817 288.523 249.128 289.191 249.574 289.765C250.021 290.339 250.592 290.805 251.244 291.127C251.896 291.449 252.613 291.619 253.34 291.625Z" fill="#E94741"/>
    <path d="M148 242.45V288.586L152.453 291.626H195.586C196.316 291.627 197.037 291.463 197.695 291.145C198.352 290.827 198.928 290.363 199.38 289.79C199.832 289.216 200.148 288.548 200.304 287.834C200.46 287.121 200.451 286.381 200.279 285.671C200.279 285.432 200.165 285.179 200.115 284.927C200.064 284.675 200.014 284.498 199.976 284.284C199.938 284.069 199.875 283.666 199.825 283.363C199.774 283.06 199.749 282.959 199.724 282.745C199.699 282.53 199.648 282.051 199.623 281.697C199.598 281.344 199.623 281.344 199.623 281.168C199.623 280.638 199.623 280.108 199.623 279.565C199.623 279.023 199.623 278.392 199.686 277.825L148 242.45Z" fill="#263370"/>
    <path d="M308.584 350.993L354.593 319.455C352.186 315.539 350.915 311.031 350.922 306.435C350.922 306.158 350.922 305.88 350.922 305.615L308.558 334.707L298.87 328.046C297.682 328.379 296.432 328.422 295.224 328.172C289.415 326.856 283.334 327.513 277.94 330.039L308.584 350.993Z" fill="white"/>
    <path d="M315.194 408.42L456.88 311.545V295.233L308.584 396.536L303.966 393.382V408.42H315.194Z" fill="white"/>
    <path d="M381.817 408.42H405.762L456.88 373.526V357.214L381.817 408.42Z" fill="white"/>
    <path d="M308.583 334.757L350.947 305.666C350.999 303.896 351.24 302.136 351.666 300.417C351.838 299.708 351.846 298.968 351.691 298.255C351.535 297.541 351.219 296.873 350.767 296.299C350.315 295.725 349.739 295.262 349.081 294.944C348.424 294.626 347.703 294.461 346.973 294.463H303.966V321.662C303.989 323.15 303.501 324.601 302.582 325.772C301.664 326.944 300.371 327.764 298.92 328.096L308.583 334.757Z" fill="#E94741"/>
    <path d="M308.584 396.536L456.88 295.245V294.463H404.727C403.995 294.461 403.273 294.626 402.614 294.944C401.956 295.263 401.379 295.728 400.926 296.303C400.474 296.878 400.159 297.548 400.004 298.264C399.849 298.979 399.86 299.72 400.034 300.43C401.468 306.202 400.791 312.296 398.126 317.613C395.461 322.929 390.982 327.118 385.5 329.422C380.017 331.726 373.891 331.994 368.228 330.178C362.565 328.362 357.738 324.581 354.618 319.517L308.609 351.056L277.94 330.039C274.359 331.669 271.292 334.246 269.068 337.492C266.845 340.738 265.551 344.53 265.325 348.458C265.278 349.353 265.278 350.25 265.325 351.145C265.49 354.999 266.553 358.762 268.428 362.133C268.769 362.738 269.135 363.319 269.513 363.899C270.078 364.743 270.693 365.552 271.355 366.321C271.734 366.763 272.125 367.179 272.541 367.583C272.957 367.986 273.121 368.15 273.424 368.428C273.727 368.706 274.37 369.273 274.862 369.69C275.843 370.46 276.881 371.156 277.966 371.771C278.445 372.049 278.937 372.288 279.429 372.528C279.921 372.768 280.691 373.121 281.372 373.373C283.432 374.156 285.587 374.661 287.781 374.875C288.222 374.875 288.676 374.875 289.118 374.875L289.749 374.799C290.165 374.799 290.581 374.723 291.01 374.66L291.742 374.521C292.108 374.458 292.474 374.395 292.839 374.307L293.609 374.105C293.95 374.017 294.29 373.928 294.618 373.827C295.657 373.502 296.775 373.529 297.797 373.903C298.519 373.688 299.28 373.643 300.022 373.773C300.763 373.903 301.464 374.204 302.069 374.652C302.674 375.1 303.166 375.683 303.506 376.355C303.847 377.026 304.026 377.768 304.029 378.52V393.483L308.584 396.536Z" fill="#263370"/>
    <path d="M294.555 373.74C294.227 373.841 293.886 373.929 293.546 374.017L292.776 374.219C292.41 374.308 292.044 374.358 291.679 374.434L290.947 374.573C290.531 374.573 290.114 374.673 289.685 374.711L289.055 374.787C288.613 374.787 288.171 374.787 287.717 374.787C288.525 374.863 289.345 374.913 290.24 374.913C290.88 374.913 291.519 374.888 292.158 374.837L292.789 374.762C293.205 374.762 293.621 374.686 294.05 374.623L294.782 374.484C295.148 374.421 295.514 374.358 295.88 374.27L296.649 374.068C296.99 373.98 297.33 373.891 297.658 373.79H297.797C296.753 373.41 295.611 373.392 294.555 373.74Z" fill="#263370"/>
    <path d="M315.194 408.42H381.817L456.88 357.214V311.545L315.194 408.42Z" fill="#263370"/>
    <path d="M405.762 408.42H440.833C445.545 406.666 449.609 403.514 452.479 399.385C455.35 395.257 456.89 390.35 456.893 385.321V373.513L405.762 408.42Z" fill="#263370"/>
    <path d="M354.076 226.389C353.566 231.081 354.406 235.82 356.498 240.051L468.511 191.002L471.59 174.69L354.076 226.389Z" fill="white"/>
    <path d="M476.358 129.575C474.792 125.508 472.181 121.927 468.788 119.192L320.77 183.847L315.282 178.334L312.267 194.28L317.742 199.806L476.358 129.575Z" fill="white"/>
    <path d="M383.697 100.132L332.327 122.84L326.814 117.264L326.46 119.168C326.323 119.92 326.365 120.694 326.583 121.427C326.801 122.159 327.189 122.83 327.715 123.384C328.241 123.939 328.891 124.361 329.611 124.617C330.331 124.873 331.102 124.956 331.86 124.858H332.188L333.033 124.795H334.08H334.938H335.998L336.868 124.858L337.928 124.972L338.811 125.11L339.278 125.186L340.224 125.388H340.413H340.501L340.918 125.502L341.7 125.716L342.242 125.893L342.823 126.082L343.529 126.334L343.882 126.473L344.766 126.851H344.841C346.361 127.545 347.807 128.39 349.156 129.374L405.358 104.219L383.697 100.132Z" fill="white"/>
    <path d="M383.697 100.133L331.91 90.3438L326.813 117.291L332.326 122.867L383.697 100.133Z" fill="#E94741"/>
    <path d="M320.77 183.85L468.814 119.195C465.654 116.637 461.909 114.903 457.914 114.149L405.358 104.22L349.168 129.452C352.395 131.766 355.024 134.817 356.834 138.352C358.644 141.887 359.584 145.804 359.576 149.775C359.576 150.028 359.576 150.28 359.576 150.532C359.576 150.785 359.576 150.81 359.576 150.936C359.576 151.062 359.576 151.504 359.576 151.794C359.576 152.084 359.576 152.084 359.576 152.235C359.576 152.387 359.576 152.601 359.576 152.778C359.576 152.954 359.576 152.942 359.576 153.018C359.576 153.093 359.513 153.459 359.475 153.674C359.437 153.888 359.399 154.115 359.361 154.33C359.323 154.544 359.273 154.758 359.222 154.986C359.172 155.213 359.134 155.427 359.071 155.642V155.881C359.071 156.058 358.97 156.234 358.92 156.398L358.806 156.815C358.73 157.092 358.642 157.357 358.541 157.622L358.415 158.013C358.327 158.253 358.238 158.48 358.15 158.72C356.403 163.213 353.392 167.105 349.481 169.923C345.57 172.742 340.926 174.367 336.111 174.603H336.022H335.064H333.941H333.323H332.755L331.947 174.514H331.519H331.43L330.295 174.325H330.232C329.689 174.224 329.147 174.098 328.617 173.959L328.352 173.896C327.831 173.753 327.318 173.593 326.813 173.417L326.51 173.316C326.006 173.139 325.501 172.938 325.009 172.723L324.618 172.471C324.147 172.26 323.684 172.038 323.23 171.802L323.028 171.701H322.915C322.247 171.348 321.505 171.157 320.749 171.144C319.994 171.131 319.245 171.295 318.565 171.624C317.885 171.953 317.292 172.438 316.833 173.038C316.375 173.639 316.064 174.339 315.926 175.082L315.295 178.4L320.77 183.85Z" fill="#E94741"/>
    <path d="M476.358 129.577L317.742 199.808L312.267 194.282L310.451 203.882L341.889 209.824L344.197 210.266L352.7 211.868C353.418 212.002 354.097 212.297 354.684 212.732C355.271 213.167 355.752 213.729 356.09 214.377C356.427 215.025 356.614 215.741 356.634 216.471C356.654 217.201 356.509 217.927 356.207 218.592C355.348 220.451 354.721 222.408 354.34 224.421C354.214 225.077 354.126 225.682 354.05 226.401L471.577 174.677L477.569 142.974C478.422 138.483 478.003 133.842 476.358 129.577Z" fill="#E94741"/>
    <path d="M356.498 240.054C359.037 245.222 363.286 249.352 368.525 251.741C373.763 254.131 379.668 254.634 385.235 253.164C390.802 251.694 395.689 248.343 399.065 243.678C402.441 239.014 404.098 233.325 403.755 227.577C403.708 226.843 403.829 226.107 404.109 225.427C404.39 224.746 404.823 224.139 405.375 223.652C405.926 223.165 406.582 222.81 407.292 222.616C408.002 222.422 408.747 222.393 409.47 222.531L426.829 225.811L437.855 227.893L460.715 232.22L468.511 190.954L356.498 240.054Z" fill="#263370"/>
    <path d="M62.5646 386.509C62.5646 386.509 61.7233 392.439 62.1846 393.484C62.1846 393.484 81.8464 397.473 89.5402 395.139C93.3396 392.656 74.5055 384.732 74.5055 384.732L62.5646 386.509Z" fill="#151912"/>
    <path d="M58 296.5C63.4277 315.796 83 342.556 83 345.5C75.3741 358.513 69 374.5 62.035 386.819C64.7488 388.353 74.1252 386.996 76.052 385.232C79.8514 377.877 97.1587 348.452 97.5 345.5C97.8413 342.549 86.6903 311.504 80.1906 297.5C72.6868 297.365 65.5174 296.527 58 296.5Z" fill="#1E2529"/>
    <circle cx="109.5" cy="232.5" r="11.5" fill="#F2B3A5"/>
    <path d="M141.985 268.681C141.985 268.681 146.368 269.279 147.25 268.79C148.525 268.084 150.615 262.915 152.989 262.847V267.406C152.989 267.406 160.113 267.297 161.416 268.274C163.207 269.631 162.162 275.235 159.286 277.189C157.929 278.153 151.863 277.596 150.737 277.42C149.122 277.189 148.756 276.307 146.978 276.24C145.947 276.24 141.13 275.575 141.13 275.575C139.461 274.028 140.329 268.614 141.985 268.681Z" fill="#F2B3A5"/>
    <path d="M102.593 218.723C107.722 217.936 117.234 224.802 117.696 225.955C122.592 231.608 114.389 241.309 114.389 241.309C114.389 241.309 113.693 241.73 113.34 241.73L107 243.5C104.576 244.238 104.357 248 104.357 250.488L101.643 254.098L95.1436 241.885C96.1002 240.425 96.7184 238.769 96.9532 237.039C97.1879 235.309 97.0333 233.548 96.5005 231.885C96.0397 230.556 95.8416 229.151 95.917 227.746C96.0162 226.521 96.2999 225.318 96.7583 224.178L97.2604 222.916C97.7031 221.81 98.429 220.841 99.3651 220.105C100.301 219.369 101.414 218.892 102.593 218.723Z" fill="url(#paint1_linear)"/>
    <path d="M0.85136 391.489C0.85136 391.489 -0.356301 397.27 0.105053 398.274C0.105053 398.274 19.7669 402.263 27.4606 399.929C29.8895 396.713 12.4259 389.521 12.4259 389.521L0.85136 391.489Z" fill="#151912"/>
    <path d="M105.85 216.456C103.846 216.339 101.854 216.838 100.141 217.886C98.429 218.934 97.0782 220.48 96.2702 222.318C95.3534 225.461 95.2972 228.793 96.1074 231.966C96.7363 233.427 97.0551 235.002 97.0437 236.593C96.9795 237.178 96.8752 237.759 96.7316 238.33C100.192 239.429 100.897 238.099 101.847 237.787C103.014 237.511 104.238 237.606 105.348 238.058L104.439 237.244C104.082 236.923 103.802 236.526 103.619 236.082C103.436 235.638 103.354 235.159 103.381 234.68L103.462 233.323C103.472 233.022 103.543 232.725 103.669 232.452C103.795 232.178 103.975 231.932 104.197 231.729C104.42 231.525 104.68 231.368 104.964 231.267C105.248 231.165 105.549 231.122 105.85 231.138H106.203C106.741 231.17 107.244 231.413 107.602 231.815C107.961 232.217 108.146 232.744 108.116 233.282V233.635C108.134 233.989 108.262 234.329 108.48 234.608C108.699 234.887 108.998 235.092 109.337 235.195C109.663 232.821 112.445 233.541 113.422 230.311C118 233.282 121.5 234.282 122 228.5C121.796 221.444 112.078 216.633 105.85 216.456Z" fill="url(#paint2_linear)"/>
    <path d="M51.0002 293.999C47.0002 315 45.0002 347.805 41.0002 351C37.8702 353.5 13.5002 378 0.186523 391.869C3.7688 393.47 12.1817 393.932 15.1127 390.743C25.5002 383 41.7928 371.059 57.0002 358.5C60.7928 351.559 73.0502 301.978 73.0502 301.978C73.0502 301.978 51.9365 292.181 51.0002 293.999Z" fill="#2C2D39"/>
    <path d="M94.2754 239.618C94.9126 239.203 95.6141 238.896 96.3515 238.709C97.6134 238.709 104.005 245.914 103.218 254.151C102.539 261.22 95.9173 272.686 95.9173 272.686L94.2754 239.618Z" fill="white"/>
    <path d="M94.6961 238.628C92.1586 238.479 83.4998 244 67.4998 266.001C58.5821 276.192 52.5604 289.125 50.948 292.791C50.6713 293.42 50.7516 294.13 51.1955 294.655C53.9176 297.874 64.798 308.95 83.7717 306.343C84.459 306.249 85.052 305.773 85.3154 305.131C92.993 286.43 92.8563 284.434 97.9998 274C100.958 268.02 101.459 261.566 101.942 254.911C102.566 247.95 95.8359 238.696 94.6961 238.628Z" fill="#273271"/>
    <path d="M465.359 197.726C465.359 197.726 465.359 192.651 463.771 189.801C462.645 187.834 461.614 189.91 462.143 191.538C462.948 193.728 464.029 195.808 465.359 197.726Z" fill="url(#paint3_linear)"/>
    <path d="M291.888 170.116C291.888 170.116 291.27 171.804 290.793 173.247C290.664 173.634 290.561 173.981 290.458 174.316C290.355 174.651 292.519 175.824 294.568 175.875C296.178 175.875 297.815 175.154 297.402 174.278C297.118 173.111 297.005 171.909 297.067 170.709L291.888 170.116Z" fill="#EBBEAF"/>
    <path d="M297.467 85.4998C297.467 85.4998 297.467 112.5 301 136.5C298.5 159 297.389 170.591 297.467 172.125C295.284 172.662 293.008 172.706 290.806 172.254C290.806 172.254 290.806 162.5 290.806 139C289.5 131.5 288.5 130 281.981 110.813C281.272 104.912 283.269 96.8083 283.269 96.8083L297.467 85.4998Z" fill="#800F09"/>
    <path d="M255.814 170.116C255.814 170.116 255.196 171.804 254.719 173.247C254.591 173.634 254.487 173.981 254.384 174.316C254.281 174.651 256.446 175.824 258.494 175.875C260.105 175.875 261.741 175.154 261.329 174.278C261.044 173.111 260.932 171.909 260.994 170.709L255.814 170.116Z" fill="#EBBEAF"/>
    <path d="M254.913 173.248C255.832 173.98 256.925 174.461 258.086 174.644C259.247 174.827 260.435 174.705 261.535 174.291C263.119 174.69 273.22 180.127 271.21 181.712C269.844 182.794 253.817 182.021 252.645 180.424C252.194 179.818 253.547 174.665 254.913 173.248Z" fill="#242025"/>
    <path d="M290.78 173.248C291.699 173.98 292.792 174.461 293.953 174.644C295.114 174.827 296.302 174.705 297.402 174.291C298.987 174.69 309.087 180.127 307.077 181.712C305.712 182.794 289.685 182.021 288.512 180.424C288.023 179.818 289.414 174.665 290.78 173.248Z" fill="#242025"/>
    <path d="M293 88.1057C293 88.1057 284.333 116.021 279.26 127.024C274.279 137.801 261.388 173.705 261.388 173.705C260.128 174.047 258.81 174.092 257.53 173.838C256.251 173.584 255.044 173.037 254 172.238C254 172.238 259.359 143.322 261.401 139.295C263.314 135.348 264.813 127.459 266.245 123.303C268.066 118.582 269.83 105.218 271.456 100.656C272.584 97.4412 277.2 86.1858 279.26 83.5L293 88.1057Z" fill="#841712"/>
    <path d="M326.34 36.0095C323.02 31.5202 309.421 33.0534 309.421 33.0534C309.421 33.0534 304.433 32.7112 300.004 38.7224C294.212 41.6439 294.897 48.5997 291.05 49.1493C287.202 49.6989 275.98 50.272 273.343 60.8482C271.119 69.7352 279.133 77.9042 286.759 78.5565C296.725 79.3694 295.805 72.0746 303.026 73.3577C317.058 75.8701 319.14 66.7926 319.539 62.8683C320.289 55.701 325.438 53.8718 327.363 49.3421C328.371 47.2239 328.807 44.8786 328.628 42.5396C328.448 40.2006 327.66 37.9493 326.34 36.0095Z" fill="#220A52"/>
    <path d="M316.726 61.4278C316.726 61.4278 320.763 72.0091 325.53 76.3161C330.741 80.7921 336.288 84.862 342.121 88.4899C345.848 90.7279 349.194 93.5451 352.035 96.8357L342.851 93.5525C340.304 93.1659 341.895 97.7076 340.086 97.8631C338.277 98.0186 339.93 92.5358 337.713 91.0917C336.147 90.0722 325.091 84.2765 322.327 80.847C320.258 78.2525 311.915 68.399 311.915 68.399L316.726 61.4278Z" fill="url(#paint4_linear)"/>
    <path d="M317.407 62.0131C317.977 63.6794 316.801 66.1298 315.22 67.7259C312.708 70.2655 314.117 76.2637 310.967 78.1396C307.816 80.0155 306.517 80.133 304.333 83.3536C302.124 87.3131 300.525 91.583 299.59 96.0194C299.59 96.0194 282.695 95.3251 275.932 88.8692C275.932 88.8692 287.502 69.1414 287.194 70.1226C286.886 71.1038 294.226 54.9304 299.298 54.4132C302.64 54.0743 309.169 55.4044 311.417 56.7079C313.732 58.0807 315.764 59.8811 317.407 62.0131Z" fill="#9595CB"/>
    <path d="M297.7 55.8073C302.213 54.0121 308.244 70.5902 310.578 72.5195C313.962 75.3344 323.441 84.7531 325.901 87.2851C328.121 89.5682 330.554 89.2961 332.91 89.9742L332.368 92.0291C333.475 92.9685 334.646 93.8298 335.872 94.6068C337.099 95.5433 337.654 97.6218 336.301 98.1359C334.087 98.9784 330.055 97.7073 328.016 96.1728C327.157 95.5198 326.381 92.9096 324.357 91.9056C318.609 88.1063 313.08 83.9846 307.797 79.5603C305.186 77.1471 301.83 72.4229 299.286 69.2137C295.371 64.3606 293.77 57.3715 297.7 55.8073Z" fill="url(#paint5_linear)"/>
    <path d="M316.219 53.9134C315.2 55.7214 314.461 57.6736 314.027 59.7033C313.882 61.8113 311.128 65.6256 309.449 65.4458C307.77 65.266 305.403 58.9179 306.945 56.3894C308.728 53.7293 309.965 50.7414 310.583 47.5993C310.583 47.5993 311.203 52.8719 316.219 53.9134Z" fill="url(#paint6_linear)"/>
    <path d="M215.882 172.674L179.774 172.824C179.482 172.825 179.192 172.77 178.921 172.659C178.651 172.549 178.404 172.387 178.197 172.181C177.989 171.976 177.823 171.732 177.71 171.462C177.596 171.193 177.537 170.904 177.535 170.612C177.533 170.32 177.589 170.03 177.699 169.759C177.81 169.489 177.972 169.242 178.177 169.034C178.383 168.826 178.627 168.661 178.896 168.548C179.166 168.434 179.455 168.375 179.747 168.373L215.855 168.224C216.147 168.222 216.437 168.278 216.707 168.388C216.978 168.498 217.224 168.66 217.432 168.866C217.64 169.071 217.806 169.316 217.919 169.585C218.033 169.854 218.092 170.143 218.094 170.435C218.095 170.728 218.04 171.017 217.929 171.288C217.819 171.559 217.657 171.805 217.451 172.013C217.246 172.221 217.002 172.386 216.732 172.5C216.463 172.613 216.174 172.673 215.882 172.674Z" fill="url(#paint7_linear)"/>
    <path d="M201.422 87.1856C202.943 87.1792 204.171 85.8497 204.164 84.216C204.157 82.5823 202.918 81.2631 201.397 81.2695C199.876 81.2758 198.648 82.6054 198.655 84.2391C198.662 85.8728 199.901 87.192 201.422 87.1856Z" fill="url(#paint8_linear)"/>
    <path d="M215.153 112.108L188.015 112.732L189.141 100.52C189.242 98.7559 189.557 97.0109 190.077 95.3226C191.99 89.8949 196.319 85.9599 201.665 85.9463C208.043 85.9463 213.471 91.5504 214.163 98.335C214.637 102.582 215.153 112.108 215.153 112.108Z" fill="url(#paint9_linear)"/>
    <path d="M214.474 157.337L217.419 139.208C221.218 135.585 221.408 129.859 221.395 127.308V117.81C221.395 117.81 208.029 111.676 200.905 111.663C195.369 112.016 188.232 114.621 184.202 116.114C183.301 116.408 182.516 116.978 181.956 117.742C181.396 118.507 181.09 119.427 181.081 120.374V127.308C179.832 134.744 185.586 139.602 185.586 139.602L186.427 158.083L214.474 157.337Z" fill="#273271"/>
    <path d="M182.017 148.179L181.895 117.119C178.208 120.074 175.394 123.977 173.754 128.408C172.722 131.977 165.273 141.462 162.98 145.967C161.935 148.016 160.605 150.038 160.619 152.48C160.753 154.898 161.64 157.214 163.156 159.102C164.368 160.752 166.182 161.859 168.204 162.182C169.028 162.397 169.876 162.507 170.728 162.508H171.013C172.322 162.571 173.633 162.448 174.907 162.141C177.373 161.392 179.659 160.145 181.624 158.478L181.922 150.526L182.017 148.179Z" fill="#F59E35"/>
    <path d="M176.888 175.046L195.084 176.118L189.276 113.903C189.276 113.903 182.329 116.129 179.778 118.571C177.227 121.014 176.861 152.738 176.318 165.941L176.888 175.046Z" fill="#F59E35"/>
    <path d="M226.565 162.263C225.914 149.073 223.96 120.198 221.368 117.756C218.776 115.313 211.327 113.807 211.327 113.807L206.604 174.868L225.819 173.701L226.565 162.263Z" fill="#F59E35"/>
    <path d="M224 161.187C222.305 160.535 220.689 159.693 219.183 158.676L218.803 150.725L218.695 148.418L221.409 117.724C224.123 119.529 225.832 124.509 227.094 128.58C228.193 132.135 232.617 140.48 235.046 144.971C236.145 147.007 237.542 149.042 237.556 151.457C237.774 153.906 237.213 156.361 235.955 158.473C234.937 159.898 232.223 160.752 229.754 161.187L228.18 161.499C226.785 161.788 225.337 161.68 224 161.187Z" fill="#F59E35"/>
    <path d="M173.726 154.759C173.726 154.759 178.218 149.806 182.695 150.485L182.112 152.357C182.112 152.357 188.897 153.47 189.263 154.067C190.036 155.315 183.36 154.393 183.36 154.393C183.36 154.393 189.046 155.505 189.236 155.899C189.426 156.292 188.584 159.793 187.295 160.2C186.006 160.607 175.612 160.309 174.554 159.318C173.877 158.795 173.417 158.04 173.264 157.198C173.111 156.356 173.276 155.487 173.726 154.759Z" fill="url(#paint10_linear)"/>
    <path d="M224.136 155.949C224.058 155.372 223.808 154.833 223.417 154.402C222.673 153.466 221.851 152.595 220.961 151.797C219.048 150.073 216.782 148.296 216.551 147.577C216.415 147.17 215.479 147.929 215.615 148.323C215.726 148.831 215.899 149.323 216.13 149.788C216.374 150.155 217.691 151.471 217.691 151.471C217.691 151.471 210.187 150.63 209.698 151.145C208.477 152.421 215.262 152.787 215.262 152.787C215.262 152.787 209.481 152.312 209.196 152.638C208.911 152.964 208.776 156.56 209.902 157.306C211.028 158.052 219.4 160.02 222.359 159.599C223.566 159.409 224.231 157.971 224.136 155.949Z" fill="url(#paint11_linear)"/>
    <path d="M201.855 122.775C201.855 122.775 197.011 119.871 196.998 117.428V105.447H206.496V117.428C206.55 119.83 201.855 122.775 201.855 122.775Z" fill="url(#paint12_linear)"/>
    <path d="M210.879 100.127C210.857 102.593 209.863 104.952 208.113 106.69C206.362 108.428 203.996 109.404 201.529 109.408C199.077 109.419 196.72 108.455 194.979 106.728C193.237 105.002 192.252 102.654 192.241 100.201C192.231 97.7487 193.194 95.3923 194.921 93.6504C196.648 91.9085 198.995 90.9239 201.448 90.9131C203.917 90.8949 206.294 91.8529 208.06 93.5785C209.826 95.3041 210.839 97.6576 210.879 100.127Z" fill="url(#paint13_linear)"/>
    <path d="M179.113 165.599L178.937 143.549C178.958 142.824 179.26 142.136 179.779 141.63C180.298 141.123 180.994 140.838 181.719 140.835L219.346 140.659C219.714 140.657 220.079 140.728 220.42 140.868C220.761 141.007 221.07 141.213 221.331 141.473C221.592 141.732 221.8 142.041 221.941 142.381C222.082 142.721 222.155 143.086 222.155 143.454V169.683L178.937 169.86L179.113 165.599Z" fill="url(#paint14_linear)"/>
    <path d="M175.341 176.685L171.65 177.024L171.732 181.99L176.766 181.271L175.341 176.685Z" fill="#F59E35"/>
    <path d="M172.899 176.914C172.899 176.914 162.477 175.666 160.523 176.114C158.569 176.562 155.503 176.236 155.896 180.497C156.29 184.757 162.125 184.567 166.06 184.011C169.995 183.455 174.201 182.586 174.201 182.586C173.328 181.964 172.713 181.043 172.473 179.998C172.233 178.952 172.384 177.855 172.899 176.914Z" fill="#878686"/>
    <path d="M163.522 176.116C161.617 175.951 159.698 176.02 157.81 176.32C156.928 176.645 155.598 177.215 155.896 180.39C156.29 184.651 158.909 184.38 160.741 184.38C162.025 184.353 163.304 184.221 164.567 183.986C164.567 183.986 162.857 179.536 163.522 176.116Z" fill="#BFBFBF"/>
    <path d="M171.257 181.218C171.28 181.208 171.301 181.193 171.319 181.175C171.337 181.156 171.35 181.134 171.359 181.11C171.368 181.086 171.372 181.06 171.371 181.034C171.369 181.009 171.363 180.984 171.351 180.961C170.994 179.899 170.966 178.755 171.27 177.677C171.277 177.652 171.279 177.626 171.276 177.6C171.273 177.574 171.265 177.549 171.253 177.527C171.24 177.504 171.223 177.484 171.203 177.468C171.183 177.452 171.159 177.44 171.134 177.433C171.109 177.426 171.083 177.423 171.058 177.426C171.032 177.429 171.007 177.437 170.984 177.45C170.961 177.463 170.942 177.479 170.925 177.5C170.909 177.52 170.897 177.543 170.89 177.568C170.557 178.736 170.595 179.978 170.999 181.123C171.009 181.147 171.024 181.168 171.042 181.186C171.061 181.204 171.083 181.217 171.107 181.226C171.131 181.235 171.157 181.239 171.183 181.238C171.208 181.236 171.233 181.23 171.257 181.218Z" fill="white"/>
    <path d="M169.669 181.353C169.693 181.343 169.714 181.328 169.732 181.309C169.749 181.29 169.763 181.268 169.772 181.244C169.781 181.22 169.785 181.194 169.783 181.169C169.782 181.143 169.775 181.118 169.764 181.095C169.407 180.033 169.379 178.889 169.683 177.811C169.69 177.786 169.692 177.76 169.689 177.734C169.686 177.709 169.678 177.684 169.665 177.661C169.653 177.638 169.636 177.618 169.616 177.602C169.595 177.586 169.572 177.574 169.547 177.567C169.522 177.56 169.496 177.558 169.47 177.561C169.444 177.564 169.419 177.572 169.397 177.584C169.374 177.597 169.354 177.614 169.338 177.634C169.322 177.654 169.31 177.678 169.303 177.703C168.97 178.87 169.008 180.113 169.411 181.258C169.422 181.281 169.436 181.303 169.455 181.32C169.474 181.338 169.496 181.352 169.52 181.36C169.544 181.369 169.57 181.373 169.595 181.372C169.621 181.371 169.646 181.364 169.669 181.353Z" fill="white"/>
    <path d="M166.426 181.65C166.449 181.639 166.471 181.625 166.488 181.606C166.506 181.587 166.52 181.565 166.529 181.541C166.537 181.517 166.541 181.491 166.54 181.466C166.539 181.44 166.532 181.415 166.521 181.392C166.164 180.33 166.136 179.186 166.439 178.108C166.447 178.083 166.449 178.057 166.446 178.031C166.443 178.005 166.435 177.981 166.422 177.958C166.41 177.935 166.393 177.915 166.372 177.899C166.352 177.883 166.329 177.871 166.304 177.864C166.279 177.857 166.253 177.855 166.227 177.857C166.201 177.86 166.176 177.868 166.154 177.881C166.131 177.894 166.111 177.911 166.095 177.931C166.079 177.951 166.067 177.975 166.06 177.999C165.727 179.167 165.765 180.409 166.168 181.555C166.178 181.578 166.193 181.599 166.212 181.617C166.231 181.635 166.253 181.648 166.277 181.657C166.301 181.666 166.326 181.67 166.352 181.669C166.378 181.667 166.403 181.661 166.426 181.65Z" fill="white"/>
    <path d="M227.623 177.38L231.328 177.353L231.721 182.306L226.646 182.075L227.623 177.38Z" fill="#F59E35"/>
    <path d="M235.059 176.877L175.015 182.549L172.301 174.489L231.463 161.476C236.144 161.042 242.766 163.756 243.214 168.451C243.608 173.146 239.7 176.443 235.059 176.877Z" fill="#1A245A"/>
    <path d="M166.535 177.243L178.611 179.712L227.813 183.457L228.831 177.283L169.561 161.516C164.893 160.96 158.705 164.121 158.095 168.789C157.552 173.403 161.867 176.686 166.535 177.243Z" fill="#273271"/>
    <path d="M230.066 177.363C230.066 177.363 240.324 175.138 242.278 175.396C244.232 175.654 247.285 175.043 247.298 179.317C247.312 183.592 241.491 184.026 237.515 183.782C233.539 183.537 229.374 183.13 229.374 183.13C230.173 182.419 230.685 181.44 230.812 180.378C230.939 179.316 230.674 178.243 230.066 177.363Z" fill="#878686"/>
    <path d="M232.114 181.543C232.09 181.535 232.068 181.523 232.048 181.506C232.029 181.49 232.013 181.469 232.002 181.446C231.99 181.424 231.984 181.399 231.982 181.373C231.98 181.348 231.984 181.323 231.992 181.298C232.246 180.21 232.165 179.07 231.762 178.028C231.742 177.98 231.742 177.925 231.763 177.877C231.783 177.829 231.822 177.79 231.87 177.77C231.919 177.751 231.973 177.751 232.022 177.771C232.07 177.792 232.108 177.83 232.128 177.879C232.569 179.007 232.65 180.245 232.359 181.421C232.351 181.445 232.339 181.467 232.322 181.487C232.306 181.506 232.285 181.522 232.262 181.533C232.24 181.545 232.215 181.552 232.189 181.553C232.164 181.555 232.139 181.551 232.114 181.543Z" fill="white"/>
    <path d="M233.702 181.543C233.678 181.535 233.656 181.523 233.636 181.506C233.617 181.49 233.601 181.469 233.59 181.446C233.578 181.424 233.571 181.399 233.57 181.373C233.568 181.348 233.572 181.323 233.58 181.298C233.834 180.21 233.753 179.07 233.35 178.028C233.34 178.004 233.335 177.978 233.335 177.953C233.335 177.927 233.34 177.901 233.35 177.877C233.361 177.853 233.375 177.831 233.394 177.813C233.412 177.795 233.434 177.78 233.458 177.77C233.482 177.761 233.508 177.756 233.534 177.756C233.56 177.756 233.586 177.761 233.61 177.771C233.633 177.781 233.655 177.796 233.673 177.815C233.692 177.833 233.706 177.855 233.716 177.879C234.157 179.007 234.238 180.245 233.947 181.421C233.939 181.445 233.926 181.467 233.91 181.487C233.893 181.506 233.873 181.522 233.85 181.533C233.828 181.545 233.803 181.552 233.777 181.553C233.752 181.555 233.726 181.551 233.702 181.543Z" fill="white"/>
    <path d="M235.303 181.543C235.279 181.535 235.257 181.523 235.237 181.506C235.218 181.49 235.202 181.469 235.191 181.446C235.179 181.424 235.173 181.399 235.171 181.373C235.169 181.348 235.173 181.323 235.181 181.298C235.435 180.21 235.354 179.07 234.951 178.028C234.941 178.004 234.936 177.978 234.936 177.953C234.936 177.927 234.941 177.901 234.952 177.877C234.962 177.853 234.976 177.831 234.995 177.813C235.013 177.795 235.035 177.78 235.059 177.77C235.083 177.761 235.109 177.756 235.135 177.756C235.161 177.756 235.187 177.761 235.211 177.771C235.235 177.781 235.256 177.796 235.275 177.815C235.293 177.833 235.307 177.855 235.317 177.879C235.758 179.007 235.839 180.245 235.548 181.421C235.54 181.445 235.528 181.467 235.511 181.487C235.495 181.506 235.474 181.522 235.451 181.533C235.429 181.545 235.404 181.552 235.378 181.553C235.353 181.555 235.327 181.551 235.303 181.543Z" fill="white"/>
    <path d="M236.905 181.473C236.88 181.465 236.858 181.453 236.838 181.436C236.819 181.419 236.803 181.399 236.792 181.376C236.78 181.354 236.774 181.329 236.772 181.303C236.77 181.278 236.774 181.252 236.782 181.228C237.036 180.14 236.955 179 236.552 177.958C236.542 177.934 236.537 177.908 236.537 177.882C236.537 177.856 236.543 177.831 236.553 177.807C236.563 177.783 236.577 177.761 236.596 177.743C236.614 177.725 236.636 177.71 236.66 177.7C236.684 177.691 236.71 177.686 236.736 177.686C236.762 177.686 236.788 177.691 236.812 177.701C236.836 177.711 236.857 177.726 236.876 177.745C236.894 177.763 236.908 177.785 236.918 177.809C237.359 178.937 237.44 180.175 237.149 181.351C237.141 181.375 237.129 181.397 237.112 181.417C237.096 181.436 237.075 181.452 237.053 181.463C237.03 181.475 237.005 181.481 236.979 181.483C236.954 181.485 236.929 181.481 236.905 181.473Z" fill="white"/>
    <path d="M201.462 158.188C202.9 158.182 204.062 157.011 204.056 155.572C204.05 154.133 202.879 152.971 201.44 152.977C200.001 152.983 198.839 154.155 198.845 155.594C198.851 157.032 200.023 158.194 201.462 158.188Z" fill="white"/>
    <path d="M211.313 100.332C207.945 99.7459 204.527 99.4959 201.109 99.5856L201.855 89.2458L209.847 93.4523L211.313 100.332Z" fill="url(#paint15_linear)"/>
    <path d="M194.921 99.8428L190.851 100.128L195.071 91.9863C195.45 91.3985 195.955 90.9018 196.549 90.5318C197.143 90.1618 197.811 89.9276 198.506 89.8459C199.201 89.7643 199.905 89.8371 200.569 90.0594C201.232 90.2816 201.838 90.6476 202.344 91.1314L203.104 93.0039L198.992 97.5225C198.553 98.2103 197.952 98.7809 197.243 99.1852C196.534 99.5894 195.737 99.8151 194.921 99.8428Z" fill="url(#paint16_linear)"/>
    <path d="M168.118 181.455C168.141 181.445 168.163 181.43 168.18 181.411C168.198 181.393 168.212 181.371 168.22 181.346C168.229 181.322 168.233 181.297 168.232 181.271C168.231 181.245 168.224 181.22 168.213 181.197C167.856 180.136 167.827 178.991 168.131 177.913C168.146 177.863 168.14 177.809 168.114 177.763C168.089 177.717 168.046 177.684 167.996 177.669C167.945 177.655 167.891 177.661 167.845 177.686C167.8 177.712 167.766 177.755 167.751 177.805C167.419 178.973 167.457 180.215 167.86 181.36C167.87 181.384 167.885 181.405 167.904 181.422C167.922 181.44 167.945 181.454 167.969 181.463C167.993 181.472 168.018 181.475 168.044 181.474C168.07 181.473 168.095 181.466 168.118 181.455Z" fill="white"/>
    <path d="M511.495 405.465C506.083 403.945 498.949 400.525 499.001 398.276C499.118 393.154 519.503 395.57 519.503 395.57C519.891 398.42 520.053 401.305 519.986 404.188C519.855 406.073 515.069 406.468 511.495 405.465Z" fill="#151912"/>
    <path d="M488.037 245.017C487.01 251.065 489.026 262.49 488.749 274.825C488.406 289.808 486.601 302.498 487.273 303.051C496.906 311.235 520.771 300.943 521.259 297.214C524.316 273.494 516.673 242.829 512.574 237.65C506.038 229.427 489.013 239.298 488.037 245.017Z" fill="#F59E35"/>
    <circle cx="500" cy="221.001" r="12" fill="#E58057"/>
    <path d="M489.879 417.551C484.615 416.626 474.982 413.774 474.087 409.982C473.534 407.616 475.6 405.626 481.299 405.124C485.379 404.78 499.039 405.265 499.039 405.265C499.039 405.265 500.355 414.15 499.908 416.235C499.46 418.319 494.038 418.272 489.879 417.551Z" fill="#151912"/>
    <path d="M498.028 360.846C497.706 351.436 502.054 324.403 502.054 324.403L509.596 294.93C499.947 296.816 487.17 301.105 487.332 303.37C487.461 305.186 486.57 318.124 485.677 331.09C484.812 343.664 483.944 356.263 484.003 358.77C484.023 359.585 484.051 361.205 484.088 363.375L484.096 363.816C484.296 375.426 484.743 401.31 485.466 405.896C486.003 409.26 500.376 408.26 500.108 405.229C499.759 401.274 498.189 366.195 498.028 360.846Z" fill="#4F4F4F"/>
    <path d="M517.206 344.935C517.407 331.297 520.091 294.93 520.091 294.93C519.717 293.552 515.18 293.838 509.596 294.93L502.054 324.403C502.054 324.403 504.362 345.905 504.644 357.133C504.778 363.619 507.1 390.546 507.463 395.016C507.825 399.486 520.749 399.274 520.991 395.213C521.232 391.152 517.005 358.573 517.206 344.935Z" fill="#4F4F4F"/>
    <path d="M517.395 345.782C517.587 332.185 520.137 294.927 520.137 294.927C519.782 293.553 515.471 293.839 510.165 294.927L503 325.311C503 325.311 505.194 346.749 505.461 357.944C505.589 364.41 507.795 391.256 508.139 395.713C508.483 400.17 520.762 399.958 520.991 395.909C521.221 391.86 517.204 359.379 517.395 345.782Z" fill="#414141"/>
    <path d="M508.898 217.238C508.898 210.241 505.854 206.222 498.356 208.251C491.24 210.175 489.797 215.094 489.168 218.66C488.54 222.226 493.44 223.651 496.406 228.743C496.972 229.454 497.501 231 496.406 234.172C496.353 236.438 496.103 238.059 496.682 238.494C498.277 239.667 507.027 237.045 507.027 235.028C507.027 233.605 507.185 231.009 507.383 228.743C509.452 226.713 508.898 223.827 508.898 217.238Z" fill="url(#paint17_linear)"/>
    <path d="M466.123 195.944C464.37 192.795 462.17 189.606 460.417 189.158C458.664 188.71 455.647 191.49 457.03 194.429C457.623 195.681 458.453 197.46 459.323 199.608C460.773 203.166 462.446 203.561 463.777 203.469C467.375 203.008 468.6 200.464 466.123 195.944Z" fill="url(#paint18_linear)"/>
    <path d="M480.131 226.092C478.088 222.547 470.498 202.148 468.271 200.488C466.044 198.827 460.615 201.542 461.26 204.546C462.657 211.043 470.024 230.006 471.803 233.406C475.044 239.533 489.935 261.83 494.719 254.055C498.883 247.216 482.187 229.637 480.131 226.092Z" fill="#FBA63F"/>
    <path d="M498.975 221.904C497.551 221.654 496.879 224.092 496.576 223.986C495.97 223.775 497.261 219.11 495.258 217.028C494.059 215.711 490.554 216.029 490 214.501C489.223 211.865 493.493 208.74 498.026 207.712C505.932 205.92 513.5 212.001 513.5 220.502C513.5 229.003 509.5 229.002 507.079 231.814C507.079 233.342 501.992 233.211 500.622 232.051C499.999 231.385 499.56 230.568 499.348 229.681C499.135 228.794 499.156 227.867 499.409 226.991C500.674 225.027 500.819 222.22 498.975 221.904Z" fill="#552D1A"/>
    <circle cx="499" cy="224.001" r="3" fill="#E58057"/>
    <path d="M114.304 272.28C125.933 274.994 142.542 277.707 144.699 277.11C145.934 276.73 147.969 269.647 146.992 267.775C137.887 266.622 128.867 264.877 119.99 262.551C115.159 261.031 104.073 252.604 101.345 250.99C98.618 249.375 91.6298 247.217 89.2417 251.654C86.8535 256.092 92.5933 262.51 96.3112 264.26C96.3519 264.247 110.857 271.479 114.304 272.28Z" fill="#273271"/>
    <circle cx="315.207" cy="48.9917" r="8" transform="rotate(3.92481 315.207 48.9917)" fill="#FFACA8"/>
    <path d="M321.143 44.8327C326.481 43.5292 324.615 38.0544 324.615 38.0544C321.507 36.555 307.596 36.3492 306.334 48.8285C310.186 49.492 312.468 49.7266 321.143 44.8327Z" fill="#220A52"/>
    <circle cx="105.5" cy="234.5" r="3.5" fill="#F2B3A5"/>
    <defs>
        <linearGradient id="paint0_linear" x1="-23073.6" y1="8057.14" x2="-23091.6" y2="7817.73" gradientUnits="userSpaceOnUse">
            <stop offset="0.07" stop-color="#ECDFCF"/>
            <stop offset="0.8" stop-color="#E58057"/>
        </linearGradient>
        <linearGradient id="paint1_linear" x1="37374.3" y1="40187" x2="37980.7" y2="40187" gradientUnits="userSpaceOnUse">
            <stop stop-color="#F2B3A5"/>
            <stop offset="0.32" stop-color="#F2B5A8"/>
            <stop offset="0.51" stop-color="#F4BCB0"/>
            <stop offset="0.67" stop-color="#F6C8BE"/>
            <stop offset="0.8" stop-color="#F9D9D2"/>
            <stop offset="0.93" stop-color="#FCEFEC"/>
            <stop offset="1" stop-color="white"/>
        </linearGradient>
        <linearGradient id="paint2_linear" x1="23529.8" y1="4195.32" x2="23291.5" y2="4690.25" gradientUnits="userSpaceOnUse">
            <stop offset="0.07" stop-color="#7A3E25"/>
            <stop offset="1" stop-color="#3E2212"/>
        </linearGradient>
        <linearGradient id="paint3_linear" x1="-6704.46" y1="5411.95" x2="-6729.92" y2="5256.43" gradientUnits="userSpaceOnUse">
            <stop offset="0.07" stop-color="#ECDFCF"/>
            <stop offset="0.8" stop-color="#E58057"/>
        </linearGradient>
        <linearGradient id="paint4_linear" x1="324.365" y1="75.6627" x2="309.325" y2="57.2593" gradientUnits="userSpaceOnUse">
            <stop offset="0.22" stop-color="#FFD6D6"/>
            <stop offset="1" stop-color="#FFACA8"/>
        </linearGradient>
        <linearGradient id="paint5_linear" x1="-60543.1" y1="2252.17" x2="-61870.3" y2="2347.86" gradientUnits="userSpaceOnUse">
            <stop offset="0.22" stop-color="#FFD6D6"/>
            <stop offset="1" stop-color="#FFACA8"/>
        </linearGradient>
        <linearGradient id="paint6_linear" x1="14826" y1="2646.87" x2="14761" y2="2377.26" gradientUnits="userSpaceOnUse">
            <stop offset="0.22" stop-color="#FFD6D6"/>
            <stop offset="1" stop-color="#FFACA8"/>
        </linearGradient>
        <linearGradient id="paint7_linear" x1="197.885" y1="157.881" x2="197.763" y2="177.245" gradientUnits="userSpaceOnUse">
            <stop stop-color="#032B6B"/>
            <stop offset="0.95" stop-color="#030C43"/>
        </linearGradient>
        <linearGradient id="paint8_linear" x1="198.655" y1="84.2255" x2="204.178" y2="84.2024" gradientUnits="userSpaceOnUse">
            <stop stop-color="#92525D"/>
            <stop offset="0.2" stop-color="#6D3C4D"/>
            <stop offset="0.44" stop-color="#47263C"/>
            <stop offset="0.66" stop-color="#2B1631"/>
            <stop offset="0.85" stop-color="#1B0C2A"/>
            <stop offset="1" stop-color="#150927"/>
        </linearGradient>
        <linearGradient id="paint9_linear" x1="4560.02" y1="1814.71" x2="4499.83" y2="1272.39" gradientUnits="userSpaceOnUse">
            <stop stop-color="#92525D"/>
            <stop offset="0.2" stop-color="#6D3C4D"/>
            <stop offset="0.44" stop-color="#47263C"/>
            <stop offset="0.66" stop-color="#2B1631"/>
            <stop offset="0.85" stop-color="#1B0C2A"/>
            <stop offset="1" stop-color="#150927"/>
        </linearGradient>
        <linearGradient id="paint10_linear" x1="170.593" y1="156.176" x2="182.368" y2="155.462" gradientUnits="userSpaceOnUse">
            <stop offset="0.07" stop-color="#ECDFCF"/>
            <stop offset="0.8" stop-color="#E58057"/>
        </linearGradient>
        <linearGradient id="paint11_linear" x1="2740.52" y1="1255.08" x2="2893.78" y2="1292.34" gradientUnits="userSpaceOnUse">
            <stop offset="0.07" stop-color="#ECDFCF"/>
            <stop offset="0.8" stop-color="#E58057"/>
        </linearGradient>
        <linearGradient id="paint12_linear" x1="1722.34" y1="1327.06" x2="1710.34" y2="1082.29" gradientUnits="userSpaceOnUse">
            <stop offset="0.07" stop-color="#ECDFCF"/>
            <stop offset="0.8" stop-color="#E58057"/>
        </linearGradient>
        <linearGradient id="paint13_linear" x1="3176.28" y1="1193.78" x2="3178.85" y2="1025.47" gradientUnits="userSpaceOnUse">
            <stop offset="0.07" stop-color="#ECDFCF"/>
            <stop offset="0.8" stop-color="#E58057"/>
        </linearGradient>
        <linearGradient id="paint14_linear" x1="200.56" y1="141.421" x2="200.568" y2="172.427" gradientUnits="userSpaceOnUse">
            <stop offset="0.07" stop-color="#E6E7E8"/>
            <stop offset="0.8" stop-color="#6D6E71"/>
        </linearGradient>
        <linearGradient id="paint15_linear" x1="1896.97" y1="894.615" x2="1858.13" y2="575.385" gradientUnits="userSpaceOnUse">
            <stop stop-color="#92525D"/>
            <stop offset="0.2" stop-color="#6D3C4D"/>
            <stop offset="0.44" stop-color="#47263C"/>
            <stop offset="0.66" stop-color="#2B1631"/>
            <stop offset="0.85" stop-color="#1B0C2A"/>
            <stop offset="1" stop-color="#150927"/>
        </linearGradient>
        <linearGradient id="paint16_linear" x1="2148.41" y1="848.562" x2="2120.43" y2="554.555" gradientUnits="userSpaceOnUse">
            <stop stop-color="#92525D"/>
            <stop offset="0.2" stop-color="#6D3C4D"/>
            <stop offset="0.44" stop-color="#47263C"/>
            <stop offset="0.66" stop-color="#2B1631"/>
            <stop offset="0.85" stop-color="#1B0C2A"/>
            <stop offset="1" stop-color="#150927"/>
        </linearGradient>
        <linearGradient id="paint17_linear" x1="-41869.8" y1="18799.6" x2="-41925.3" y2="18236.6" gradientUnits="userSpaceOnUse">
            <stop offset="0.07" stop-color="#ECDFCF"/>
            <stop offset="0.8" stop-color="#E58057"/>
        </linearGradient>
        <linearGradient id="paint18_linear" x1="-22466.3" y1="8790.82" x2="-22488.3" y2="8529.69" gradientUnits="userSpaceOnUse">
            <stop offset="0.07" stop-color="#ECDFCF"/>
            <stop offset="0.8" stop-color="#E58057"/>
        </linearGradient>
    </defs>
</svg>
