<svg width="397" height="334" viewBox="0 0 397 334" fill="none" xmlns="http://www.w3.org/2000/svg">
    <path fill-rule="evenodd" clip-rule="evenodd" d="M174.674 22.3479C219.207 22.3715 264.118 -10.4467 304.033 7.73162C344.702 26.2529 357.829 72.937 372.524 112.453C387.447 152.581 408.954 197.532 388.801 235.675C368.937 273.271 315.102 279.398 274.461 298.059C241.698 313.102 211.285 333.638 174.674 333.991C137.829 334.348 99.8849 323.541 73.3545 300.002C48.4039 277.864 49.947 242.445 37.817 212.563C24.8963 180.733 -1.18275 153.358 0.0416479 119.397C1.51031 78.6611 7.3016 28.6593 45.2068 7.59407C83.3679 -13.6134 130.098 22.3242 174.674 22.3479Z" fill="#FAD3A2"/>
</svg>
