<svg width="20" height="14" viewBox="0 0 20 14" fill="none" xmlns="http://www.w3.org/2000/svg">
    <path d="M10.5 10.1C10.5 8.26 11.18 6.42 12.54 4.58C13.9 2.74 15.54 1.34 17.46 0.379997L19.26 2.36C16.66 3.68 14.98 5.36 14.22 7.4C14.3 7.36 14.48 7.34 14.76 7.34C15.44 7.34 16.02 7.6 16.5 8.12C17.02 8.6 17.28 9.24 17.28 10.04C17.28 11 16.92 11.84 16.2 12.56C15.48 13.24 14.64 13.58 13.68 13.58C12.76 13.58 12 13.28 11.4 12.68C10.8 12.08 10.5 11.22 10.5 10.1ZM0.96 10.1C0.96 8.26 1.64 6.42 3 4.58C4.36 2.74 6 1.34 7.92 0.379997L9.72 2.36C7.04 3.72 5.36 5.4 4.68 7.4C4.72 7.36 4.88 7.34 5.16 7.34C5.88 7.34 6.48 7.6 6.96 8.12C7.48 8.6 7.74 9.24 7.74 10.04C7.74 11 7.38 11.84 6.66 12.56C5.94 13.24 5.1 13.58 4.14 13.58C3.22 13.58 2.46 13.28 1.86 12.68C1.26 12.08 0.96 11.22 0.96 10.1Z" fill="#141939"/>
</svg>
