<svg width="269" height="216" viewBox="0 0 269 216" fill="none" xmlns="http://www.w3.org/2000/svg">
    <path fill-rule="evenodd" clip-rule="evenodd" d="M140.829 0.00244723C167.411 0.278049 185.359 23.6778 206.167 38.9262C225.883 53.3748 248.845 65.1581 258.824 86.4737C269.35 108.957 273.77 136.148 261.95 158.078C250.561 179.208 222.335 185.517 199.598 196.357C180.645 205.392 162.127 214.61 140.829 215.82C118.426 217.093 97.1923 211.47 76.5487 203.348C50.1263 192.954 17.1158 186.508 5.14256 162.44C-6.96744 138.097 4.40588 108.761 17.6326 84.9163C29.5436 63.4436 53.4594 52.0034 74.4142 37.5602C95.736 22.864 114.206 -0.273584 140.829 0.00244723Z" fill="#FEF0E0"/>
    <rect x="66.5" y="68.5" width="139" height="109" rx="1.5" fill="#FEFBF8" stroke="#141939"/>
    <rect x="66.2957" y="103.779" width="139.409" height="0.591398" stroke="#141939" stroke-width="0.591398"/>
    <circle cx="79.7471" cy="85.4668" r="4.5" fill="#F78B89"/>
    <circle cx="92.6904" cy="85.4668" r="4.5" fill="#F78B89"/>
    <rect x="104.833" y="83.8271" width="63.7999" height="2.85913" rx="1.42957" fill="#B8B8E8"/>
    <path d="M128.527 118.416V127.583H172.721V138.583H105.131L128.527 118.416Z" fill="#9399B8"/>
    <path d="M149.325 163.333V154.166H105.132V143.166H172.722L149.325 163.333Z" fill="#FF8888"/>
</svg>
