<svg width="244" height="197" viewBox="0 0 244 197" fill="none" xmlns="http://www.w3.org/2000/svg">
    <path fill-rule="evenodd" clip-rule="evenodd" d="M82.3606 17.4137C104.822 12.4906 124.407 -2.84008 147.274 0.461373C171.17 3.91146 189.368 19.726 205.647 35.2136C223.043 51.7651 240.319 69.7344 243.392 91.9093C246.598 115.05 236.758 137.849 222.619 157.695C208.03 178.172 189.918 190.542 162.6 195.31C135.954 199.96 113.322 189.913 88.0794 181.175C66.3323 173.646 38.8082 174.125 25.1221 157.715C11.5434 141.434 22.9715 119.08 19.7329 99.2258C15.939 75.9669 -10.4227 51.3275 4.57311 31.7382C19.545 12.18 56.02 23.187 82.3606 17.4137Z" fill="#FEF4F3"/>
    <path d="M161.228 152.5H79.4189C79.1428 152.5 78.9189 152.276 78.9189 152V44C78.9189 43.7239 79.1428 43.5 79.4189 43.5H146.1C146.233 43.5 146.36 43.5527 146.454 43.6464L161.582 58.7749C161.676 58.8687 161.728 58.9959 161.728 59.1285V152C161.728 152.276 161.505 152.5 161.228 152.5Z" fill="#F4F4F6" stroke="#141939"/>
    <rect x="90.6406" y="100.619" width="59.3651" height="3.49206" fill="#B8B8E8"/>
    <rect x="90.3359" y="107.167" width="37.5833" height="3.66667" fill="#B8B8E8"/>
    <rect x="97.6689" y="132.833" width="15.5833" height="19.25" fill="#FCE1C0"/>
    <rect x="120.586" y="124.583" width="15.5833" height="27.5" fill="#FCE1C0"/>
    <rect x="142.586" y="105.333" width="16.5" height="46.75" fill="#F5C995"/>
    <rect x="165.502" y="93.4166" width="15.5833" height="58.6667" fill="#F5C995"/>
    <circle cx="105.482" cy="77.0474" r="14.8413" fill="#FDCDCA"/>
    <path d="M123.816 76.1743C123.816 73.8814 123.364 71.6109 122.487 69.4925C121.609 67.3741 120.323 65.4493 118.702 63.828C117.08 62.2067 115.156 60.9205 113.037 60.0431C110.919 59.1656 108.648 58.714 106.355 58.714L106.355 76.1743H123.816Z" fill="#FF8888"/>
    <path d="M161.522 59H145.85L146.262 44.1531L161.522 59Z" fill="#FCE1C0" stroke="#141939"/>
</svg>
