<svg width="281" height="192" viewBox="0 0 281 192" fill="none" xmlns="http://www.w3.org/2000/svg">
    <path fill-rule="evenodd" clip-rule="evenodd" d="M37.9172 19.8347C60.0941 5.33268 83.4681 4.80542 113.947 2.62886C142.585 0.583751 202.81 -4.00964 228.412 7.65933C253.319 19.0115 259.811 42.3785 272.692 61.6217C284.386 79.0923 280.049 105.783 280 124.61C279.948 144.33 271.359 164.146 252.416 177.019C234.08 189.48 206.768 191.622 180.846 191.991C157.726 192.321 136.857 183.227 113.947 178.994C81.7709 173.048 42.9318 180.36 19.6413 162.206C-3.81685 143.921 -1.14954 115.607 2.13217 91.8378C5.35868 68.4684 14.7706 34.9709 37.9172 19.8347Z" fill="#FEF0E0"/>
    <rect x="85.4902" y="125.982" width="16.6056" height="20.5128" fill="#FCE1C0"/>
    <rect x="109.909" y="117.19" width="16.6056" height="29.304" fill="#FCE1C0"/>
    <rect x="133.353" y="98.6311" width="17.5824" height="47.8632" fill="#F5C995"/>
    <rect x="157.772" y="85.9329" width="16.6056" height="60.5616" fill="#F5C995"/>
    <rect x="138.402" y="106.942" width="15.2109" height="9.28642" transform="rotate(-43.7308 138.402 106.942)" fill="#B8B8E8" stroke="#273271"/>
    <path fill-rule="evenodd" clip-rule="evenodd" d="M142.596 105.373C146.037 103.043 149.002 100.078 151.332 96.6368C156.131 89.6589 158.149 81.1395 156.991 72.7501C155.833 64.3607 151.581 56.707 145.071 51.2905C138.56 45.8741 130.261 43.086 121.801 43.4732C113.341 43.8603 105.331 47.3949 99.3422 53.3834C93.3538 59.3718 89.8192 67.3819 89.432 75.842C89.0448 84.3021 91.833 92.6016 97.2494 99.112C102.666 105.622 110.32 109.874 118.709 111.032C127.098 112.191 135.618 110.172 142.596 105.373ZM123.929 100.992C137.279 100.992 148.102 90.1694 148.102 76.8192C148.102 63.469 137.279 52.6465 123.929 52.6465C110.579 52.6465 99.7564 63.469 99.7564 76.8192C99.7564 90.1694 110.579 100.992 123.929 100.992Z" fill="#FDCDCA"/>
    <circle cx="123.91" cy="76.8374" r="23.9935" stroke="#273271"/>
    <circle cx="123.353" cy="77.3945" r="33.4569" stroke="#273271"/>
    <rect x="142.198" y="115.746" width="21.3365" height="48.0076" rx="0.5" transform="rotate(-43.9773 142.198 115.746)" fill="#B8B8E8" stroke="#273271"/>
    <path d="M69.3721 105.957L118.7 76.1643L174.378 79.0947L211.985 46.3719" stroke="#273271"/>
    <circle cx="68.884" cy="105.468" r="4.884" fill="#FF8888"/>
    <circle cx="121.631" cy="76.1645" r="4.884" fill="#FF8888"/>
    <circle cx="174.378" cy="78.1187" r="4.884" fill="#FF8888"/>
    <circle cx="211.497" cy="45.884" r="4.884" fill="#FF8888"/>
</svg>
