<svg version="1.1" id="Layer_1" xmlns="http://www.w3.org/2000/svg" xmlns:xlink="http://www.w3.org/1999/xlink" x="0px" y="0px"
	 viewBox="0 0 330 297" style="enable-background:new 0 0 330 297;" xml:space="preserve">
<style type="text/css">
	.st0{fill:#FEF4F3;}
	.st1{opacity:0.62;fill:#F96963;enable-background:new    ;}
	.st2{opacity:0.75;fill:#F6BC73;enable-background:new    ;}
	.st3{fill:#FFFFFF;stroke:#273271;stroke-width:2;}
	.st4{fill:#273271;}
	.st5{fill:#B8B8E8;}
	.st6{fill:#FEFBF8;stroke:#273271;stroke-width:2;}
	.st7{fill:#141939;}
	.st8{fill:#F78B89;}
	.st9{display:none;fill:#FCE1C0;}
	.st10{display:none;fill:#273271;}
	.st11{display:none;fill:#FCE1C0;stroke:#273271;stroke-width:2;}
	.st12{fill:#F4F4F6;}
	.st13{fill:#FCE1C0;}
</style>
<path class="st0" d="M297.5,106.3c7.6,23.3,3.6,49.5-8,73.6c-11.2,23.1-29.7,45.2-55.4,57.5c-23.8,11.4-51,9-76,5.4
	c-20.3-2.9-33.7-16.2-51.9-23.6c-22.3-9-44-7.7-52.8-27.6C44.7,172,61.2,154.7,68,133c7.8-24.9-10-57,14.2-73.6
	c24.1-16.6,54.5,7.7,83.6,6.3c27.9-1.3,56.4-22.1,81.6-14.3C274,59.6,289.8,82.8,297.5,106.3z"/>
<path class="st1" d="M119.5,122.3l-6.4-1.5l0.4-2.7c-1.3-0.7-2.6-1.6-3.7-2.7l-2.4,1.3l-3.5-5.8l2.2-1.6c-0.5-1.5-0.7-3-0.7-4.6
	l-2.5-0.8l1.5-6.7l2.6,0.4c0.7-1.4,1.6-2.7,2.6-3.8l-1.2-2.4l5.6-3.7l1.6,2.2c1.4-0.5,2.9-0.8,4.4-0.8l0.8-2.6l6.4,1.5l-0.4,2.7
	c1.3,0.7,2.6,1.6,3.7,2.7l2.4-1.3l3.5,5.8l-2.1,1.6c0.5,1.5,0.7,3,0.7,4.6l2.5,0.8l-1.5,6.7l-2.6-0.4c-0.7,1.4-1.6,2.7-2.6,3.8
	l1.2,2.4l-5.6,3.7l-1.6-2.2c-1.4,0.5-2.9,0.8-4.4,0.8L119.5,122.3z M127.3,108.2c0.8-1.6,1.1-3.5,0.9-5.4c-0.3-1.8-1.2-3.5-2.5-4.8
	s-3-2-4.8-2.2s-3.6,0.3-5.1,1.3s-2.7,2.5-3.3,4.2c-0.6,1.7-0.7,3.6-0.2,5.4s1.6,3.3,3,4.4c1.5,1.1,3.2,1.6,5,1.5
	c1.4-0.1,2.8-0.5,4-1.3S126.6,109.5,127.3,108.2z"/>
<path class="st2" d="M226.3,181.5l-13.6-3.3l0.9-5.8c-2.8-1.5-5.5-3.4-7.7-5.7l-5,2.7l-7.4-12.3l4.5-3.5c-1-3.1-1.5-6.4-1.6-9.8
	l-5.4-1.7l3.1-14.2l5.6,0.9c1.4-3,3.3-5.7,5.5-8.1l-2.6-5.2l11.8-7.7l3.3,4.7c3-1,6.2-1.6,9.4-1.6l1.7-5.6l13.6,3.2l-0.9,5.8
	c2.8,1.5,5.5,3.4,7.7,5.7l5-2.7l7.4,12.3l-4.5,3.5c1,3.1,1.5,6.4,1.6,9.8l5.4,1.7l-3.1,14.2l-5.6-0.9c-1.4,3-3.3,5.7-5.5,8.1
	l2.6,5.2l-11.8,7.7l-3.3-4.7c-3,1-6.2,1.6-9.4,1.6L226.3,181.5z M242.6,151.8c1.8-3.5,2.4-7.4,1.8-11.3c-0.6-3.9-2.5-7.4-5.2-10.1
	c-2.8-2.7-6.3-4.3-10-4.7s-7.5,0.6-10.7,2.6c-3.2,2.1-5.6,5.2-6.9,8.9c-1.3,3.7-1.4,7.7-0.3,11.5c1.1,3.8,3.4,7,6.4,9.3
	c3.1,2.3,6.8,3.4,10.5,3.3c3-0.1,5.9-1,8.5-2.7C239.1,156.9,241.2,154.5,242.6,151.8z"/>
<g>
	<g>
		<path class="st3" d="M169.7,185.4h-42.4c-1.4,0-2.5-1.1-2.5-2.5V96.4c0-1.4,1.1-2.5,2.5-2.5h42.4c1.4,0,2.5,1.1,2.5,2.5v86.5
			C172.3,184.3,171.1,185.4,169.7,185.4z"/>
		<rect x="123.9" y="173.3" class="st4" width="49.2" height="1.7"/>
		<rect x="123.9" y="104.9" class="st4" width="49.2" height="1.7"/>
		<path class="st5" d="M152.5,101h-8.7c-0.6,0-1-0.5-1-1l0,0c0-0.6,0.5-1,1-1h8.7c0.6,0,1,0.5,1,1l0,0
			C153.5,100.5,153.1,101,152.5,101z"/>
	</g>
	<path class="st6" d="M136.8,115.9h86.8c0.6,0,1,0.4,1,1v85.2c0,0.6-0.4,1-1,1h-86.8c-0.6,0-1-0.4-1-1v-85.2
		C135.8,116.3,136.2,115.9,136.8,115.9z"/>
	<rect x="134.8" y="144.1" class="st7" width="90.8" height="1.5"/>
	<circle class="st8" cx="146.3" cy="129.5" r="3.8"/>
	<circle class="st8" cx="157.1" cy="129.5" r="3.8"/>
	<path class="st5" d="M168.2,127.9H219c0.6,0,1.2,0.5,1.2,1.2l0,0c0,0.6-0.5,1.2-1.2,1.2h-50.8c-0.6,0-1.2-0.5-1.2-1.2l0,0
		C167.1,128.5,167.6,127.9,168.2,127.9z"/>
	<path class="st9" d="M227.4,104c6.6,2.3,11.3,8.6,11.3,16.1v14.2c0,1.6,1.1,2.9,2.7,3.2c3.9,0.7,3.4,6.5-0.6,6.5h-38.2
		c-4,0-4.5-5.8-0.6-6.5c1.6-0.3,2.7-1.6,2.7-3.2v-14.2c0-7.4,4.7-13.7,11.4-16.1c0.1-3.8,2.6-6.8,5.7-6.8
		C224.9,97.2,227.4,100.2,227.4,104z"/>
	<path class="st10" d="M227.4,104h-2v1.4l1.3,0.5L227.4,104z M241.5,137.5l-0.4,2L241.5,137.5z M202.1,137.5l0.4,2L202.1,137.5z
		 M216.1,104l0.7,1.9l1.3-0.5V104H216.1z M226.8,105.9c5.8,2.1,10,7.6,10,14.2h4c0-8.3-5.3-15.3-12.7-17.9L226.8,105.9z
		 M236.8,120.1v14.2h4v-14.2C240.8,120.1,236.8,120.1,236.8,120.1z M236.8,134.3c0,2.6,1.8,4.7,4.3,5.2l0.7-3.9
		c-0.6-0.1-1.1-0.6-1.1-1.3H236.8z M241.1,139.5c0.5,0.1,0.7,0.3,0.8,0.5c0.2,0.2,0.2,0.5,0.2,0.9s-0.2,0.7-0.4,0.8
		c-0.2,0.2-0.4,0.3-0.9,0.3v4c6.4,0,7.3-9.3,1-10.5L241.1,139.5z M240.9,142h-38.2v4h38.2V142z M202.7,142c-0.5,0-0.8-0.2-0.9-0.3
		c-0.2-0.2-0.3-0.5-0.4-0.8c0-0.4,0.1-0.7,0.2-0.9c0.1-0.2,0.4-0.4,0.8-0.5l-0.7-3.9c-6.3,1.2-5.5,10.5,1,10.5L202.7,142L202.7,142z
		 M202.4,139.5c2.5-0.5,4.3-2.7,4.3-5.2h-4c0,0.6-0.4,1.2-1.1,1.3L202.4,139.5z M206.8,134.3v-14.2h-4v14.2H206.8z M206.8,120.1
		c0-6.5,4.2-12.1,10-14.2l-1.3-3.8c-7.4,2.6-12.7,9.7-12.7,17.9L206.8,120.1L206.8,120.1z M218.1,104c0.1-3.1,2-4.9,3.7-4.9v-4
		c-4.5,0-7.6,4.3-7.7,8.8L218.1,104z M221.8,99.2c1.6,0,3.6,1.8,3.7,4.9l4-0.1c-0.1-4.5-3.1-8.8-7.7-8.8V99.2z"/>
	<path class="st11" d="M227.7,143.9c-0.5,2.5-2.9,4.6-6,4.6s-5.5-2-6-4.6H227.7z"/>
</g>
<g>
	<path class="st12" d="M212.1,154.1h-65.3c-2.2,0-2.9,0.5-2.9,2.1v34.5c0,1.6,0.7,2.1,2.9,2.1h65.3c2.2,0,2.9-0.5,2.9-2.1v-34.5
		C215,154.6,214.3,154.1,212.1,154.1z"/>
	<path class="st5" d="M171.6,162.1h38.2c0.2,0,0.3,0.2,0.3,0.3v1.6c0,0.2-0.2,0.3-0.3,0.3h-38.2c-0.2,0-0.3-0.2-0.3-0.3v-1.6
		C171.3,162.3,171.4,162.1,171.6,162.1z"/>
	<path class="st5" d="M171.6,168.4h38.2c0.2,0,0.3,0.2,0.3,0.3v1.6c0,0.2-0.2,0.3-0.3,0.3h-38.2c-0.2,0-0.3-0.2-0.3-0.3v-1.6
		C171.3,168.6,171.4,168.4,171.6,168.4z"/>
	<path class="st5" d="M171.6,173.7h38.2c0.2,0,0.3,0.2,0.3,0.3v1.6c0,0.2-0.2,0.3-0.3,0.3h-38.2c-0.2,0-0.3-0.2-0.3-0.3V174
		C171.3,173.9,171.4,173.7,171.6,173.7z"/>
	<path class="st5" d="M171.6,180h38.2c0.2,0,0.3,0.2,0.3,0.3v1.6c0,0.2-0.2,0.3-0.3,0.3h-38.2c-0.2,0-0.3-0.2-0.3-0.3v-1.6
		C171.3,180.2,171.4,180,171.6,180z"/>
	<path class="st13" d="M150.2,161h11.4c0.8,0,1.4,0.6,1.4,1.4v8.6c0,0.8-0.6,1.4-1.4,1.4h-11.4c-0.8,0-1.4-0.6-1.4-1.4v-8.6
		C148.8,161.6,149.4,161,150.2,161z"/>
	<path class="st13" d="M150.2,174.7h11.4c0.8,0,1.4,0.6,1.4,1.4v5.8c0,0.8-0.6,1.4-1.4,1.4h-11.4c-0.8,0-1.4-0.6-1.4-1.4v-5.8
		C148.8,175.3,149.4,174.7,150.2,174.7z"/>
</g>
</svg>
