<?xml version="1.0" encoding="utf-8"?>
<!-- Generator: Adobe Illustrator 21.0.0, SVG Export Plug-In . SVG Version: 6.00 Build 0)  -->
<svg version="1.1" id="Layer_1" xmlns="http://www.w3.org/2000/svg" xmlns:xlink="http://www.w3.org/1999/xlink" x="0px" y="0px"
	 viewBox="0 0 488 394.9" style="enable-background:new 0 0 488 394.9;" xml:space="preserve">
<style type="text/css">
	.st0{fill:#F1F1FB;}
	.st1{fill:#9595CB;}
	.st2{fill:#F6BC73;}
	.st3{fill:#F59E35;}
	.st4{fill:#F2F2F2;}
	.st5{opacity:0.9;fill:#273271;enable-background:new    ;}
	.st6{fill:#FF8888;}
	.st7{fill:#B8B8E8;}
	.st8{fill:#FFA0A0;}
	.st9{fill:#FFB8B8;}
	.st10{fill:#FFCFCF;}
	.st11{fill:#FFDBDB;}
	.st12{fill:#FCE1C0;}
	.st13{fill:#FCD4A3;}
	.st14{fill:#F4C387;}
</style>
<path class="st0" d="M84.8,203.7c-1.7-40.9-19.6-75,9.6-105.1c29.8-30.6,69-31.6,115.3-35.3c40.9-1.9,70.2-14.8,120.1-1.5
	c49.8,24.7,46.6,81.9,71.1,106.6c28.4,23.4,34.5,22.9,43.3,53c9.9,40.3,5.1,89.6-29.1,115.2c-34.1,25.5-65.8,1.1-110.8,6.1
	c-35.9,4-59.4,31.7-105.9,30.8c-52.6-4.9-94.9-12.6-119.3-45.9C54.7,294.2,86.4,242.4,84.8,203.7z"/>
<path class="st0" d="M141.6,232.3c27.7,0,50.1-22.4,50.1-50.1c0-27.7-22.4-50.1-50.1-50.1c-27.7,0-50.1,22.4-50.1,50.1
	C91.5,209.9,114,232.3,141.6,232.3z"/>
<path class="st1" d="M156.9,166.8c0,2-0.4,4-1.2,5.9c-0.8,1.9-2,3.6-3.4,5c-0.2,0.2-0.4,0.3-0.6,0.5c-2.8,2.5-6.4,3.8-10.1,3.8
	c-3.7,0-7.3-1.4-10.1-3.8c-0.2-0.2-0.4-0.3-0.6-0.5c-1.8-1.8-3.1-3.9-3.9-6.3c-0.8-2.4-0.9-4.9-0.4-7.4c0.5-2.5,1.5-4.8,3.1-6.7
	c1.6-2,3.6-3.5,5.9-4.5c2.3-1,4.8-1.4,7.3-1.1c2.5,0.2,4.9,1.1,7,2.5c2.1,1.4,3.8,3.3,5,5.5C156.3,161.8,156.9,164.3,156.9,166.8
	L156.9,166.8z"/>
<path class="st1" d="M171.5,212.9h-59.8c0-3.9,0.8-7.8,2.3-11.4c1.5-3.6,3.7-6.9,6.5-9.6c3-3,6.6-5.3,10.5-6.8
	c0.2,0.2,0.4,0.3,0.6,0.4c2.9,2.2,6.5,3.3,10.1,3.3s7.2-1.2,10.1-3.3c0.2-0.1,0.4-0.3,0.6-0.4c3.9,1.5,7.5,3.8,10.5,6.8
	c2.8,2.7,5,6,6.5,9.6C170.8,205.2,171.5,209,171.5,212.9z"/>
<path class="st1" d="M172.3,213.6H111v-0.7c0-4,0.8-7.9,2.3-11.6c1.5-3.7,3.8-7,6.6-9.8c3.1-3,6.7-5.4,10.8-6.9l0.5-0.2l0.4,0.3
	c0.2,0.1,0.3,0.3,0.5,0.4c2.7,2,6.1,3.2,9.6,3.2c3.5,0,6.9-1.1,9.6-3.2c0.2-0.1,0.4-0.3,0.5-0.4l0.4-0.3l0.5,0.2
	c4,1.5,7.7,3.9,10.8,6.9c2.8,2.8,5.1,6.1,6.6,9.8c1.5,3.7,2.3,7.6,2.3,11.6L172.3,213.6z M112.5,212.3h58.2
	c-0.1-5.7-2-11.2-5.2-15.9c-3.3-4.7-7.8-8.3-13.1-10.4l-0.2,0.2c-2.9,2.3-6.7,3.5-10.6,3.5c-3.9,0-7.7-1.2-10.6-3.5l-0.2-0.2
	c-5.3,2.1-9.9,5.7-13.1,10.4C114.5,201,112.7,206.6,112.5,212.3L112.5,212.3z"/>
<path class="st2" d="M347.6,200.2h-207v117.4h207V200.2z"/>
<path class="st3" d="M347.6,200.2l-23.7,13.5l-79.8,45.2l-79.8-45.2l-23.7-13.5H347.6z"/>
<path class="st2" d="M140.6,200.2l103.5-58.7l103.5,58.7H140.6z"/>
<path class="st4" d="M323.9,158.4v55.2l-79.8,45.2l-79.8-45.2v-55.2H323.9z"/>
<path class="st5" d="M268.1,200.2c-3.2-8.1-10.7-13.1-20.9-13.1c-9.8,0-18.7,4.9-24,13.1c-3,4.8-4.8,10.7-4.8,17.5
	c0,16.1,10.8,24.8,24.3,24.8c4.8,0,9.1-1.1,13.2-3.5l-1.5-3.4c-3.4,2-7.2,3.1-11.2,3.1c-11.8,0-20.6-7.7-20.6-21.1
	c0-6.9,2.2-12.8,5.7-17.3c4.6-5.9,11.5-9.3,18.5-9.3c8.3,0,14.1,3.6,16.9,9.3c1.5,2.9,2.2,6.3,2.2,10c0,9-5,14.3-9.3,14.3
	c-3.8,0-5.1-2.6-3.8-8.1l2.7-13.8h-3.8l-0.8,2.8h-0.1c-1.3-2.3-3.2-3.4-5.6-3.4c-8,0-13.3,8.7-13.3,16c0,6.3,3.6,9.8,8.4,9.8
	c3,0,6.1-2.1,8.4-4.7h0.1c0.5,3.5,3.4,5.2,7.2,5.2c6.3,0,13.8-6.3,13.8-18.3C269.9,206.4,269.3,203.1,268.1,200.2z M247.9,219.8
	c-2.4,2.9-4.5,4.1-6.4,4.1c-2.8,0-4.8-1.8-4.8-6.2c0-5.2,3.3-11.7,8.8-11.7c1.9,0,3.1,0.8,4.4,2.9L247.9,219.8z"/>
<path class="st6" d="M323.9,167.3H164.4v10.1h159.6V167.3z"/>
<path class="st7" d="M358.2,321.4c-23.1-12.8-37.3-35.4-37.3-59.9v-27.7c7.5,0.8,15,0.4,22.4-1.3c5.2-1.2,10.2-3,14.9-5.5
	c4.6,2.4,9.4,4.2,14.4,5.4c7.5,1.8,15.2,2.2,22.8,1.4v27.7C395.5,285.9,381.4,308.6,358.2,321.4z"/>
<path class="st0" d="M358.2,314.7c-9.2-5.6-16.9-13.2-22.4-21.9c-5.9-9.5-9.1-20.3-9.1-31.2V240c0.5,0,1,0,1.5,0
	c5.5,0,11-0.6,16.4-1.9c4.7-1.1,9.2-2.7,13.6-4.7c4.2,2,8.6,3.5,13.1,4.6c5.5,1.3,11,2,16.7,2c0.6,0,1.1,0,1.7,0v21.5
	c0,10.9-3.1,21.7-9.1,31.2C375.2,301.5,367.5,309,358.2,314.7z"/>
<path class="st1" d="M357.9,289.3c-0.6,0.2-1.3,0.2-1.9-0.1c-0.6-0.2-1.1-0.6-1.5-1.2l-9.2-14c-0.2-0.3-0.4-0.7-0.5-1.1
	c-0.1-0.4-0.1-0.8,0-1.2c0.1-0.4,0.2-0.8,0.5-1.1c0.2-0.3,0.5-0.6,0.9-0.9c0.3-0.2,0.7-0.4,1.1-0.5c0.4-0.1,0.8-0.1,1.2,0
	c0.4,0.1,0.8,0.3,1.1,0.5c0.3,0.2,0.6,0.5,0.8,0.9l6.7,10.1l14-22.2c0.5-0.6,1.2-1,2-1.2c0.8-0.1,1.6,0,2.2,0.5
	c0.7,0.4,1.1,1.1,1.3,1.9c0.2,0.8,0,1.6-0.4,2.2l-16.5,26C359.2,288.6,358.6,289.1,357.9,289.3z"/>
<path class="st6" d="M230.8,86.2l5.4-1.4c1.5-0.4,3,0.5,3.4,2l0,0c0.4,1.5-0.5,3-2,3.4l-5.4,1.4c-1.5,0.4-3-0.5-3.4-2l0,0
	C228.4,88.2,229.3,86.6,230.8,86.2z"/>
<path class="st6" d="M253.8,82.7l5.6,0c1.5,0,2.8,1.3,2.8,2.8l0,0c0,1.5-1.3,2.8-2.8,2.8l-5.6,0c-1.5,0-2.8-1.3-2.8-2.8l0,0
	C251,83.9,252.3,82.7,253.8,82.7z"/>
<path class="st8" d="M278.5,84.8l5.3,1.7c1.5,0.5,2.3,2,1.8,3.5l0,0c-0.5,1.5-2,2.3-3.5,1.8l-5.3-1.7c-1.5-0.5-2.3-2-1.8-3.5l0,0
	C275.5,85.2,277,84.4,278.5,84.8z"/>
<path class="st8" d="M300.9,92.7l4.9,2.7c1.4,0.7,1.9,2.4,1.1,3.8l0,0c-0.7,1.4-2.4,1.9-3.8,1.1l-4.9-2.7c-1.4-0.7-1.9-2.4-1.1-3.8
	l0,0C297.8,92.4,299.5,91.9,300.9,92.7z"/>
<path class="st9" d="M320.2,105l4.3,3.6c1.2,1,1.3,2.8,0.3,3.9l0,0c-1,1.2-2.8,1.3-3.9,0.3l-4.3-3.6c-1.2-1-1.3-2.8-0.3-3.9l0,0
	C317.3,104.1,319,104,320.2,105z"/>
<path class="st9" d="M336.5,122.2l3.3,4.5c0.9,1.2,0.7,3-0.6,3.9l0,0c-1.2,0.9-3,0.7-3.9-0.6l-3.3-4.5c-0.9-1.2-0.7-3,0.6-3.9l0,0
	C333.8,120.7,335.6,121,336.5,122.2z"/>
<path class="st10" d="M348.7,143.1l2,5.2c0.5,1.4-0.2,3.1-1.6,3.6l0,0c-1.4,0.5-3.1-0.2-3.6-1.6l-2-5.2c-0.5-1.4,0.2-3.1,1.6-3.6
	l0,0C346.5,141,348.1,141.7,348.7,143.1z"/>
<path class="st10" d="M355.2,166.4l0.6,5.6c0.2,1.5-0.9,2.9-2.5,3.1h0c-1.5,0.2-2.9-0.9-3.1-2.5l-0.6-5.6c-0.2-1.5,0.9-2.9,2.5-3.1
	l0,0C353.7,163.7,355,164.8,355.2,166.4z"/>
<path class="st11" d="M355.6,190.7l-0.7,5.6c-0.2,1.5-1.6,2.6-3.1,2.4l0,0c-1.5-0.2-2.6-1.6-2.4-3.1l0.7-5.6
	c0.2-1.5,1.6-2.6,3.1-2.4l0,0C354.8,187.8,355.8,189.2,355.6,190.7z"/>
<path class="st12" d="M177.2,117.7l31.7-16.5l-3.2,23.2L177.2,117.7z"/>
<path class="st13" d="M209,101.2l10.6,6.2l-9.7-17.5l-32.7,27.8L209,101.2z"/>
<path class="st14" d="M219.6,107.4l-12,4.2l1.4-10.4L219.6,107.4z"/>
<path class="st12" d="M177.2,117.7l35.3-41.6l-2.6,13.8L177.2,117.7z"/>
</svg>
