<?xml version="1.0" encoding="utf-8"?>
<!-- Generator: Adobe Illustrator 21.0.0, SVG Export Plug-In . SVG Version: 6.00 Build 0)  -->
<svg version="1.1" id="Layer_1" xmlns="http://www.w3.org/2000/svg" xmlns:xlink="http://www.w3.org/1999/xlink" x="0px" y="0px"
	 viewBox="0 0 240 249" style="enable-background:new 0 0 240 249;" xml:space="preserve">
<style type="text/css">
	.st0{fill:#FEF4F3;}
	.st1{fill:#B8B8E8;}
	.st2{fill:#F6BC73;}
	.st3{fill:#F59E35;}
	.st4{fill:#F96963;}
	.st5{fill:#FCE1C0;}
	.st6{fill:#273271;}
</style>
<path class="st0" d="M161.2,207c-16.5,5.6-47.7,15-65,12.2c-17.6-2.8-35.8-5.1-49.5-16.2c-14.8-12-18.4-28-18.9-46.9
	c-0.4-18.5,2.8-27.5,13.7-42.6c9.6-13.3,31.6-13,46.9-19.4c15-6.2,22.4-21.6,46.1-24.6c16.3-2.1,35.5-5.8,49.3,6.9
	s11.9,32.6,13.8,51.1c1.9,18,17.1,35.7,7.4,58.1C196.8,202.4,179.1,201,161.2,207z"/>
<g>
	<path class="st1" d="M165.7,110.6c0,2.1-0.4,4.1-1.2,6c-0.8,1.9-2,3.6-3.5,5.1c-0.2,0.2-0.3,0.3-0.5,0.5c-2.8,2.4-6.5,3.8-10.2,3.8
		c-3.8,0-7.4-1.4-10.2-3.8c-0.2-0.2-0.3-0.3-0.5-0.5c-1.8-1.7-3.1-4-3.9-6.4c-0.8-2.4-1-5-0.4-7.5c0.4-2.5,1.6-4.8,3.1-6.8
		s3.7-3.5,6-4.5c2.4-1,4.9-1.4,7.4-1.1c2.5,0.3,5,1.1,7.1,2.5c2.1,1.4,3.8,3.3,5.1,5.6C165.1,105.5,165.7,108,165.7,110.6
		L165.7,110.6z"/>
	<path class="st1" d="M181.3,157.9h-62v-0.7c0-4,0.8-8,2.4-11.8c1.6-3.8,3.8-7.1,6.7-9.9c3.1-3.1,6.8-5.5,10.9-7l0.4-0.2l0.3,0.3
		c0.2,0.2,0.3,0.3,0.5,0.4c2.7,2.1,6.1,3.2,9.7,3.2c3.6,0,7-1.1,9.7-3.2c0.2-0.2,0.3-0.3,0.5-0.4l0.3-0.3l0.4,0.2
		c4.1,1.6,7.8,3.9,10.9,7c2.9,2.8,5.1,6.2,6.7,9.9c1.6,3.8,2.4,7.7,2.4,11.8V157.9z"/>
</g>
<g>
	<g>
		<path class="st2" d="M138.6,143.7H55.3v47.3h83.3V143.7z"/>
		<path class="st3" d="M138.6,143.7l-9.5,5.4l-32.1,18.2l-32.1-18.2l-9.5-5.4H138.6z"/>
		<path class="st2" d="M55.3,143.7L96.9,120l41.7,23.6H55.3z"/>
		<path class="st4" d="M129,124.8v24.3l-32.1,18.2l-32.1-18.2v-24.3H129z"/>
	</g>
	<g>
		<path class="st1" d="M89.7,130.4h33.4c0.2,0,0.3,0.1,0.3,0.3v1.4c0,0.2-0.1,0.3-0.3,0.3H89.7c-0.2,0-0.3-0.1-0.3-0.3v-1.4
			C89.4,130.5,89.5,130.4,89.7,130.4z"/>
		<path class="st1" d="M89.7,135.9h33.4c0.2,0,0.3,0.1,0.3,0.3v1.4c0,0.2-0.1,0.3-0.3,0.3H89.7c-0.2,0-0.3-0.1-0.3-0.3v-1.4
			C89.4,136,89.5,135.9,89.7,135.9z"/>
		<path class="st1" d="M89.7,141.4h33.4c0.2,0,0.3,0.1,0.3,0.3v1.4c0,0.2-0.1,0.3-0.3,0.3H89.7c-0.2,0-0.3-0.1-0.3-0.3v-1.4
			C89.4,141.5,89.5,141.4,89.7,141.4z"/>
		<path class="st1" d="M89.7,146.9h33.4c0.2,0,0.3,0.1,0.3,0.3v1.4c0,0.2-0.1,0.3-0.3,0.3H89.7c-0.2,0-0.3-0.1-0.3-0.3v-1.4
			C89.4,147,89.5,146.9,89.7,146.9z"/>
	</g>
	<g>
		<path class="st5" d="M71,129.3H81c0.6,0,1.3,1.2,1.3,2.5v15.6c0,1.4-0.5,2.5-1.3,2.5H71c-0.6,0-1.3-1.2-1.3-2.5v-15.6
			C69.7,130.5,70.2,129.3,71,129.3z"/>
		<g>
			<path class="st6" d="M75.7,131.2c-1.1,0.1-1.9,1.1-1.8,2.1c0.1,1.1,1.1,1.9,2.1,1.8s1.9-1.1,1.8-2.1
				C77.7,131.8,76.8,131.1,75.7,131.2z"/>
			<path class="st6" d="M74.5,136.3H77c0.2,0,0.4,0.1,0.4,0.3l0.5,11.3c0,0.1-0.1,0.2-0.2,0.2h-3.3c-0.1,0-0.2-0.1-0.2-0.2
				L74.5,136.3z"/>
		</g>
	</g>
</g>
</svg>
