<svg width="626" height="489" viewBox="0 0 626 489" fill="none" xmlns="http://www.w3.org/2000/svg">
    <path fill-rule="evenodd" clip-rule="evenodd" d="M-34.2877 67.7932C3.84875 16.8937 77.0621 15.3656 138.715 4.43622C190.697 -4.77885 240.299 2.84701 292.131 9.92784C355.382 18.5685 576.002 -0.599632 614.18 50.2643C650.14 98.1733 591.823 143.572 552.281 224.513C547.528 234.242 545.628 245.057 545.334 255.881C543.724 315.206 527.042 363.762 491.009 414.331C451.698 469.499 357.019 457.555 291.367 469.282C238.294 478.762 186.194 496.622 134.636 483.199C81.689 469.416 -24.9911 460.893 -57.6279 417.048C-90.5061 372.879 -40.9547 307.784 -46.9562 252.245C-53.7074 189.769 -72.5008 118.795 -34.2877 67.7932Z" fill="#FEF4F3"/>
    <g clip-path="url(#clip0)">
        <path d="M331.939 128.413H201.32C198.302 128.422 195.411 129.629 193.28 131.771C191.148 133.912 189.952 136.813 189.952 139.837V391.576C189.952 394.601 191.151 397.503 193.286 399.642C195.421 401.782 198.317 402.984 201.337 402.984H331.955C334.975 402.984 337.87 401.782 340.005 399.642C342.14 397.503 343.34 394.601 343.34 391.576V139.837C343.34 138.337 343.045 136.852 342.472 135.466C341.899 134.079 341.059 132.82 340.001 131.759C338.942 130.698 337.685 129.857 336.302 129.283C334.919 128.709 333.436 128.413 331.939 128.413Z" fill="#9399B8"/>
        <path d="M200.788 145.848H332.535V377.647H200.788V145.848Z" fill="#F2F8FF"/>
        <path d="M244.247 134.602H289.093C289.6 134.602 290.086 134.804 290.444 135.163C290.803 135.522 291.004 136.009 291.004 136.517C291.004 137.025 290.803 137.512 290.444 137.871C290.086 138.23 289.6 138.432 289.093 138.432H244.247C243.741 138.432 243.254 138.23 242.896 137.871C242.538 137.512 242.336 137.025 242.336 136.517C242.336 136.009 242.538 135.522 242.896 135.163C243.254 134.804 243.741 134.602 244.247 134.602Z" fill="#FCE1C0"/>
        <path d="M266.662 398.25C262.28 398.25 258.728 394.69 258.728 390.299C258.728 385.909 262.28 382.349 266.662 382.349C271.044 382.349 274.596 385.909 274.596 390.299C274.596 394.69 271.044 398.25 266.662 398.25Z" fill="#FCE1C0"/>
        <path d="M240.764 220.584L241.909 220.471H242.216L243.248 220.341H243.409L244.602 220.163H244.909L245.908 219.986H246.166L247.392 219.743H247.714L248.714 219.533H249.037L250.295 219.242H250.601L251.633 218.984L252.036 218.887L253.31 218.564L253.616 218.483L254.649 218.208L255.132 218.079L256.18 217.788L256.761 217.627L257.745 217.352L258.374 217.174L259.131 216.948L260.325 216.592L260.873 216.431L261.808 216.14L262.083 216.059C269.533 213.781 276.596 210.646 284.368 208.691C286.461 210.163 288.334 211.926 289.932 213.926C294.398 221.295 292.351 230.085 295.818 237.486C301.671 251.398 321.296 271.775 319.893 277.883C316.346 293.234 297.737 301.297 289.351 287.578C279.821 271.338 281.466 253.144 262.615 243.028C249.714 236.565 237.055 234.109 231.573 220.196C234.602 220.766 237.698 220.897 240.764 220.584V220.584Z" fill="#9595CB"/>
        <g style="mix-blend-mode:multiply" opacity="0.15">
            <g style="mix-blend-mode:multiply" opacity="0.15">
                <path d="M266.5 235.756C274.676 235.352 278.272 232.088 281.61 227.03C286.77 219.225 291.818 217.69 292.317 219.662C293.785 225.576 293.285 231.91 295.881 237.436C300.058 247.358 311.217 260.56 316.845 269.512C310.282 272.743 302.332 275.232 296.833 273.002C292.801 271.386 288.496 266.813 284.464 264.389C282.852 263.452 281.013 262.612 279.11 261.675C277.201 256.748 274.297 252.271 270.58 248.521C270.864 246.127 271.404 243.77 272.193 241.492C270.048 241.379 268 243.108 265.984 244.724C265 244.062 263.968 243.431 262.84 242.834C261.324 242.074 259.808 241.363 258.308 240.684C261.388 238.147 264.259 235.869 266.5 235.756Z" fill="#211915"/>
            </g>
        </g>
        <path d="M288.469 229.661C285.102 231.836 281.64 233.761 282.89 237.288C284.141 240.537 287.827 240.747 291.049 239.659C293.165 238.948 295.569 236.87 298.134 235.127C304.385 230.735 306.742 228.532 304.546 224.739C300.266 217.334 293.774 226.231 288.469 229.661Z" fill="url(#paint0_linear)"/>
        <path d="M282.916 249.88C289.475 244.209 296.38 238.953 303.59 234.141C307.96 231.733 312.797 238.988 310.04 241.461C306.653 244.4 303.117 247.161 299.445 249.734C297.688 251.091 298.542 250.106 294.301 252.966C290.06 255.826 289.238 256.812 286.722 257.975C281.481 260.512 279.401 252.982 282.916 249.88Z" fill="url(#paint1_linear)"/>
        <path d="M305.558 246.227C306.686 245.29 309.283 243.674 310.895 243.9C312.508 244.127 313.475 246.292 313.991 247.714C315.394 251.705 310.363 253.773 307.541 255.616C303.961 258.023 300.929 261.336 297.156 263.404C294.758 264.853 292.06 265.732 289.271 265.973C287.158 265.973 285.546 262.742 285.384 261.449C284.949 258.33 287.916 258.33 294.189 254.08C300.462 249.831 305.558 246.227 305.558 246.227Z" fill="url(#paint2_linear)"/>
        <path d="M313.523 264.681C309.524 266.458 306.38 268.381 302.735 269.222C299.8 269.884 295.93 267.38 298.091 264.212C299.268 262.516 307.299 257.264 309.266 255.664C312.717 252.772 314.991 252.934 317.329 256.844C319.845 261.32 317.684 263.566 315.588 267.735L313.523 264.681Z" fill="url(#paint3_linear)"/>
        <path d="M408.762 126.927C388.911 80.2602 356.869 49.2353 337.196 57.6379C328.036 61.5483 323.586 109.475 293.205 138.432C274.821 155.916 238.119 163.624 219.784 175.339C203.352 185.826 203.9 200.498 208.915 212.278C214.285 224.914 225.041 237.55 245.634 232.299C265.759 227.16 295.446 204.247 319.232 203.213C360.997 201.274 399.941 230.683 409.084 226.805C428.758 218.273 428.613 173.61 408.762 126.927Z" fill="#9595CB"/>
        <path d="M219.784 175.274C232.685 167.033 254.68 160.731 272.999 151.698C269.984 155.786 271.919 168.843 277.934 182.981C284.674 198.833 294.059 210.047 298.72 208.011C279.917 215.331 260.244 228.452 245.618 232.25C225.057 237.501 214.269 224.849 208.899 212.229C203.9 200.433 203.352 185.761 219.784 175.274Z" fill="#8D8DCD"/>
        <path d="M337.525 157.367C317.666 110.689 317.512 66.0367 337.183 57.6334C356.853 49.2302 388.898 80.2583 408.758 126.937C428.617 173.615 428.771 218.267 409.101 226.671C389.43 235.074 357.385 204.046 337.525 157.367Z" fill="#B8B8E8"/>
        <path d="M381.848 138.448C377.268 127.687 369.689 120.674 364.9 122.661C361.981 123.905 335.454 122.758 326.472 129.319C328.827 139.483 326.553 137.834 336.035 157.936C345.517 178.038 345.581 178.118 351.387 187.797C362.175 186.182 378.558 162.864 381.477 161.62C386.218 159.649 386.379 149.21 381.848 138.448Z" fill="#9595CB"/>
        <path d="M364.479 145.852C359.9 135.09 360.066 124.708 364.851 122.664C369.635 120.62 377.226 127.688 381.805 138.45C386.384 149.213 386.217 159.594 381.433 161.638C376.648 163.682 369.058 156.615 364.479 145.852Z" fill="white"/>
        <path d="M335.889 54.6164C357.384 45.4059 391.523 77.2387 412.051 125.537C432.579 173.836 431.885 220.551 410.438 229.729C388.991 238.908 354.853 207.107 334.292 158.776C313.732 110.445 314.409 63.7623 335.889 54.6164ZM337.501 157.403C357.352 204.085 389.394 235.11 409.067 226.708C428.741 218.305 428.612 173.61 408.761 126.927C388.91 80.2443 356.868 49.2355 337.195 57.6381C317.522 66.0407 317.667 110.687 337.518 157.37L337.501 157.403Z" fill="#6588F0"/>
        <path d="M275.134 238.916C278.585 240.079 285.987 241.016 286.003 245.767C286.003 251.843 273.812 250.049 270.329 248.207C270.329 248.207 272.344 249.371 276.311 255.737C280.714 262.782 283.407 276.857 289.696 287.586C290.991 289.985 292.983 291.934 295.407 293.175C297.831 294.415 300.574 294.889 303.273 294.534C301.661 302.048 299.194 305.571 296.355 305.652C291.921 305.797 277.827 305.199 273.973 303.05C268.764 300.626 271.232 296.425 270.974 291.739C270.974 286.988 269.135 283.029 267.877 278.699C265.055 270.716 261.895 262.427 260.427 254.38C258.089 242.568 263.781 235.458 275.134 238.916Z" fill="url(#paint4_linear)"/>
        <path d="M300.123 303.01C295.43 300.311 287.738 301.119 281.562 299.261C277.37 298.017 270.065 296.611 269.033 297.451C266.598 303.074 265.275 307.906 269.404 310.055C273.274 312.398 280.192 310.701 284.642 311.509C289.786 312.14 293.77 313.125 298.914 311.073L300.123 303.01Z" fill="white"/>
        <path d="M285.432 377.647H238.78C246.246 355.267 258.486 319.75 262.969 307.017C266.339 304.335 277.176 307.243 284.997 308.326C290.802 309.247 301.526 309.198 303.251 311.558C302.816 319.782 299.736 330.609 297.768 336.878C292.414 353.813 289.109 366.11 285.432 377.647Z" fill="#FDCDCA"/>
        <g style="mix-blend-mode:multiply" opacity="0.15">
            <g style="mix-blend-mode:multiply" opacity="0.15">
                <path d="M267.516 368.404C285.948 358.709 295.382 332.289 298.155 309.764C300.59 310.152 302.477 310.717 303.122 311.606C302.687 319.831 299.607 330.657 297.639 336.927C292.35 353.813 289.044 366.11 285.368 377.647H249.891C255.922 374.819 261.727 371.717 267.516 368.404Z" fill="#211915"/>
            </g>
        </g>
    </g>
    <defs>
        <linearGradient id="paint0_linear" x1="-34824.3" y1="20946.1" x2="-35395.7" y2="20946.1" gradientUnits="userSpaceOnUse">
            <stop stop-color="#F2B3A5"/>
            <stop offset="0.32" stop-color="#F2B5A8"/>
            <stop offset="0.51" stop-color="#F4BCB0"/>
            <stop offset="0.67" stop-color="#F6C8BE"/>
            <stop offset="0.8" stop-color="#F9D9D2"/>
            <stop offset="0.93" stop-color="#FCEFEC"/>
            <stop offset="1" stop-color="white"/>
        </linearGradient>
        <linearGradient id="paint1_linear" x1="-45567.3" y1="28238.5" x2="-46313.6" y2="28238.5" gradientUnits="userSpaceOnUse">
            <stop stop-color="#F2B3A5"/>
            <stop offset="0.32" stop-color="#F2B5A8"/>
            <stop offset="0.51" stop-color="#F4BCB0"/>
            <stop offset="0.67" stop-color="#F6C8BE"/>
            <stop offset="0.8" stop-color="#F9D9D2"/>
            <stop offset="0.93" stop-color="#FCEFEC"/>
            <stop offset="1" stop-color="white"/>
        </linearGradient>
        <linearGradient id="paint2_linear" x1="-44356.1" y1="25163.1" x2="-45082.7" y2="25163.1" gradientUnits="userSpaceOnUse">
            <stop stop-color="#F2B3A5"/>
            <stop offset="0.32" stop-color="#F2B5A8"/>
            <stop offset="0.51" stop-color="#F4BCB0"/>
            <stop offset="0.67" stop-color="#F6C8BE"/>
            <stop offset="0.8" stop-color="#F9D9D2"/>
            <stop offset="0.93" stop-color="#FCEFEC"/>
            <stop offset="1" stop-color="white"/>
        </linearGradient>
        <linearGradient id="paint3_linear" x1="-32151.7" y1="17905" x2="-32679.9" y2="17905" gradientUnits="userSpaceOnUse">
            <stop stop-color="#F2B3A5"/>
            <stop offset="0.32" stop-color="#F2B5A8"/>
            <stop offset="0.51" stop-color="#F4BCB0"/>
            <stop offset="0.67" stop-color="#F6C8BE"/>
            <stop offset="0.8" stop-color="#F9D9D2"/>
            <stop offset="0.93" stop-color="#FCEFEC"/>
            <stop offset="1" stop-color="white"/>
        </linearGradient>
        <linearGradient id="paint4_linear" x1="-66745.3" y1="76517.8" x2="-67835.9" y2="76517.8" gradientUnits="userSpaceOnUse">
            <stop stop-color="#F2B3A5"/>
            <stop offset="0.32" stop-color="#F2B5A8"/>
            <stop offset="0.51" stop-color="#F4BCB0"/>
            <stop offset="0.67" stop-color="#F6C8BE"/>
            <stop offset="0.8" stop-color="#F9D9D2"/>
            <stop offset="0.93" stop-color="#FCEFEC"/>
            <stop offset="1" stop-color="white"/>
        </linearGradient>
        <clipPath id="clip0">
            <rect width="237" height="350" fill="white" transform="matrix(-1 0 0 1 427 53)"/>
        </clipPath>
    </defs>
</svg>
