<svg width="627" height="449" viewBox="0 0 627 449" fill="none" xmlns="http://www.w3.org/2000/svg">
    <path fill-rule="evenodd" clip-rule="evenodd" d="M535.751 420.854C588.35 398.764 624.477 362.038 648.344 321.234C675.274 275.194 801.121 148.017 767.259 102.225C733.165 56.1189 657.138 106.588 593.599 82.0442C540.89 61.6836 449.705 -18.6723 303.438 3.99068C245.431 6.44809 222.538 58.5743 173.687 80.0051C115.179 105.672 62.6626 137.972 27.5481 180.621C-8.95907 224.962 -10.9846 291.354 32.3555 335.287C75.4627 378.983 89.9695 424.061 157.792 444.606C205.745 459.133 319.913 432.536 370.779 437.806C427.918 443.726 487.135 441.272 535.751 420.854Z" fill="#F1F1FB"/>
    <path opacity="0.62" d="M255.561 227.707L236.984 223.319L238.188 215.442C234.295 213.428 230.729 210.801 227.614 207.651L220.813 211.403L210.71 194.6L216.915 189.856C215.554 185.562 214.84 181.071 214.799 176.542L207.472 174.236L211.784 154.897L219.357 156.103C221.318 152.045 223.867 148.323 226.916 145.067L223.346 138.02L239.586 127.413L244.114 133.834C248.254 132.394 252.58 131.626 256.938 131.556L259.199 123.927L277.777 128.315L276.573 136.193C280.466 138.206 284.032 140.834 287.146 143.983L293.948 140.232L304.027 156.996L297.823 161.74C299.184 166.035 299.898 170.526 299.938 175.055L307.266 177.36L302.953 196.699L295.38 195.494C293.42 199.551 290.871 203.274 287.822 206.529L291.391 213.576L275.201 224.151L270.673 217.731C266.533 219.171 262.207 219.939 257.849 220.008L255.561 227.707ZM277.965 187.032C280.401 182.292 281.267 176.858 280.429 171.574C279.592 166.291 277.098 161.452 273.335 157.811C269.571 154.169 264.748 151.928 259.616 151.435C254.483 150.942 249.327 152.225 244.949 155.085C240.571 157.944 237.215 162.221 235.402 167.25C233.59 172.28 233.422 177.78 234.925 182.898C236.429 188.016 239.519 192.465 243.716 195.555C247.913 198.644 252.982 200.201 258.136 199.983C262.239 199.836 266.236 198.56 269.72 196.284C273.204 194.008 276.05 190.815 277.965 187.032Z" fill="#F96963"/>
    <path opacity="0.75" d="M400.947 383.476L361.717 374.079L364.172 357.371C355.954 353.093 348.419 347.518 341.833 340.842L327.505 348.728L306.144 313.2L319.2 303.199C316.309 294.111 314.78 284.612 314.669 275.038L299.173 270.056L308.166 229.162L324.195 231.721C328.301 223.155 333.65 215.302 340.054 208.437L332.488 193.503L366.59 171.229L376.185 184.837C384.904 181.824 394.018 180.231 403.203 180.115L407.983 163.964L447.181 173.34L444.726 190.047C452.944 194.325 460.479 199.901 467.065 206.576L481.393 198.691L502.763 234.234L489.707 244.235C492.599 253.323 494.128 262.822 494.238 272.396L509.772 277.374L500.775 318.229L484.746 315.67C480.64 324.236 475.291 332.089 468.887 338.954L476.453 353.888L442.337 376.171L432.742 362.563C424.023 365.576 414.909 367.169 405.724 367.285L400.947 383.476ZM447.913 297.613C453.018 287.606 454.812 276.123 453.014 264.945C451.217 253.768 445.929 243.522 437.972 235.797C430.015 228.073 419.834 223.303 409.009 222.227C398.184 221.151 387.322 223.831 378.108 229.849C368.894 235.867 361.844 244.888 358.053 255.51C354.261 266.132 353.941 277.762 357.141 288.594C360.34 299.425 366.882 308.853 375.749 315.413C384.616 321.973 395.313 325.298 406.179 324.872C414.827 324.581 423.246 321.905 430.578 317.117C437.909 312.328 443.891 305.598 447.913 297.613Z" fill="#F6BC73"/>
    <path d="M399.086 99H267.145C264.096 99.009 261.175 100.28 259.022 102.535C256.87 104.79 255.661 107.844 255.661 111.028V376.068C255.661 379.253 256.872 382.308 259.029 384.56C261.186 386.813 264.111 388.078 267.161 388.078H399.102C402.152 388.078 405.078 386.813 407.234 384.56C409.391 382.308 410.603 379.253 410.603 376.068V111.028C410.603 109.448 410.305 107.884 409.726 106.425C409.147 104.966 408.299 103.64 407.229 102.523C406.16 101.406 404.891 100.52 403.493 99.9156C402.096 99.3111 400.599 99 399.086 99Z" fill="#9399B8"/>
    <path d="M266.607 117.357H399.688V361.403H266.607V117.357Z" fill="white"/>
    <path d="M310.505 105.516H355.805C356.317 105.516 356.808 105.728 357.17 106.106C357.532 106.484 357.735 106.997 357.735 107.532C357.735 108.066 357.532 108.579 357.17 108.957C356.808 109.335 356.317 109.548 355.805 109.548H310.505C309.993 109.548 309.502 109.335 309.14 108.957C308.778 108.579 308.575 108.066 308.575 107.532C308.575 106.997 308.778 106.484 309.14 106.106C309.502 105.728 309.993 105.516 310.505 105.516Z" fill="#FCE1C0"/>
    <path d="M333.148 383.094C328.722 383.094 325.134 379.347 325.134 374.724C325.134 370.101 328.722 366.354 333.148 366.354C337.574 366.354 341.162 370.101 341.162 374.724C341.162 379.347 337.574 383.094 333.148 383.094Z" fill="#FCE1C0"/>
    <path fill-rule="evenodd" clip-rule="evenodd" d="M334.033 152.566C330.455 153.753 327.17 155.748 324.412 158.409L318.664 154.948C317.929 154.523 317.064 154.415 316.254 154.647C315.444 154.878 314.753 155.432 314.328 156.188L309.91 164.178C309.488 164.95 309.377 165.865 309.599 166.723C309.822 167.581 310.36 168.312 311.098 168.756L316.787 172.192C316.605 173.019 316.466 173.871 316.371 174.748C316.119 176.902 316.119 179.081 316.371 181.236C316.474 182.063 316.613 182.915 316.787 183.792L311.05 187.253C310.313 187.697 309.774 188.428 309.552 189.286C309.329 190.144 309.441 191.059 309.862 191.831L314.269 199.795L314.34 199.932C314.765 200.679 315.449 201.225 316.251 201.456C317.052 201.687 317.908 201.586 318.64 201.172L318.771 201.098L324.448 197.674C327.204 200.322 330.485 202.305 334.057 203.48V210.403C334.057 211.294 334.396 212.149 335 212.78C335.603 213.41 336.422 213.765 337.276 213.765H346.16C347.014 213.765 347.833 213.41 348.436 212.78C349.04 212.149 349.379 211.294 349.379 210.403V203.48C351.159 202.897 352.872 202.11 354.486 201.135C356.107 200.157 357.621 198.996 359 197.674L364.678 201.098L364.82 201.185C365.549 201.591 366.399 201.688 367.195 201.457C367.991 201.226 368.672 200.685 369.096 199.944L369.167 199.808L373.538 191.905C373.749 191.522 373.885 191.1 373.939 190.662C373.994 190.224 373.965 189.779 373.855 189.353C373.744 188.927 373.555 188.527 373.297 188.178C373.039 187.828 372.717 187.535 372.35 187.315L366.566 183.816C366.748 182.989 366.887 182.138 366.982 181.261C367.232 179.106 367.232 176.927 366.982 174.773C366.879 173.945 366.74 173.094 366.566 172.217L372.303 168.756C372.67 168.536 372.991 168.243 373.249 167.893C373.507 167.543 373.697 167.144 373.807 166.717C373.917 166.291 373.946 165.846 373.892 165.409C373.838 164.971 373.701 164.548 373.491 164.165L369.072 156.176C368.647 155.406 367.947 154.843 367.126 154.611C366.305 154.378 365.429 154.495 364.689 154.935L358.964 158.409C356.208 155.761 352.927 153.779 349.355 152.603V145.643C349.355 145.202 349.272 144.765 349.11 144.357C348.949 143.949 348.711 143.578 348.413 143.266C348.114 142.954 347.759 142.706 347.368 142.537C346.978 142.368 346.559 142.281 346.137 142.281H337.252C336.398 142.281 335.58 142.635 334.976 143.266C334.372 143.896 334.033 144.752 334.033 145.643V152.566ZM307.796 208.393C306.179 208.969 304.685 209.871 303.401 211.048L300.823 209.497C300.595 209.359 300.343 209.27 300.081 209.234C299.82 209.198 299.554 209.216 299.299 209.287C299.044 209.359 298.805 209.482 298.596 209.65C298.387 209.818 298.211 210.027 298.08 210.266L295.882 214.236C295.619 214.717 295.549 215.287 295.687 215.821C295.825 216.356 296.16 216.812 296.619 217.089L299.149 218.615C299.085 218.946 299.034 219.277 298.994 219.608C298.865 220.708 298.865 221.82 298.994 222.92C298.994 223.251 299.046 223.582 299.149 223.913L296.571 225.463L307.748 208.356L307.796 208.393ZM306.311 210.986C307.1 210.509 307.941 210.134 308.817 209.869C308.999 209.824 309.162 209.717 309.278 209.564C309.395 209.411 309.458 209.221 309.458 209.025V205.304C309.459 205.217 309.489 205.134 309.542 205.068C309.607 204.998 309.697 204.958 309.791 204.956H314.186C314.232 204.956 314.279 204.966 314.321 204.985C314.364 205.005 314.403 205.033 314.435 205.068C314.502 205.137 314.541 205.23 314.542 205.328V209.05C314.543 209.239 314.603 209.422 314.712 209.572C314.821 209.722 314.974 209.83 315.148 209.881C316.931 210.412 318.563 211.392 319.899 212.735C320.027 212.873 320.196 212.963 320.379 212.99C320.562 213.017 320.748 212.979 320.908 212.884L324.02 211.01C324.104 210.975 324.198 210.975 324.282 211.01C324.326 211.021 324.368 211.04 324.405 211.068C324.441 211.096 324.472 211.131 324.495 211.172L326.693 215.154C326.711 215.199 326.72 215.248 326.72 215.297C326.72 215.346 326.711 215.394 326.693 215.439C326.681 215.486 326.66 215.53 326.632 215.569C326.603 215.607 326.567 215.639 326.527 215.663L323.474 217.499C323.305 217.586 323.17 217.73 323.09 217.909C323.01 218.087 322.991 218.288 323.035 218.479C323.146 218.949 323.229 219.425 323.284 219.905C323.395 220.87 323.395 221.844 323.284 222.808C323.229 223.289 323.146 223.765 323.035 224.235C322.993 224.417 323.008 224.609 323.079 224.781C323.149 224.953 323.271 225.097 323.427 225.19L326.527 227.064C326.565 227.089 326.599 227.121 326.625 227.159C326.652 227.198 326.671 227.241 326.681 227.287C326.699 227.332 326.708 227.381 326.708 227.43C326.708 227.479 326.699 227.527 326.681 227.572L324.484 231.555C324.46 231.595 324.429 231.63 324.392 231.658C324.355 231.685 324.314 231.705 324.27 231.716C324.193 231.744 324.109 231.744 324.032 231.716L320.908 229.83C320.753 229.737 320.573 229.699 320.396 229.722C320.218 229.744 320.052 229.826 319.923 229.954C319.244 230.595 318.494 231.149 317.69 231.604C316.9 232.081 316.059 232.455 315.183 232.721C315.001 232.766 314.839 232.873 314.722 233.026C314.606 233.179 314.542 233.369 314.542 233.564V237.286C314.539 237.381 314.502 237.47 314.438 237.537C314.374 237.604 314.288 237.643 314.198 237.646H309.803C309.72 237.645 309.641 237.615 309.577 237.559C309.543 237.526 309.517 237.485 309.498 237.44C309.48 237.396 309.47 237.347 309.47 237.299V233.577C309.469 233.388 309.41 233.205 309.3 233.056C309.191 232.906 309.038 232.797 308.865 232.746C307.976 232.48 307.123 232.1 306.323 231.617C305.517 231.13 304.772 230.542 304.102 229.867C303.972 229.739 303.806 229.657 303.628 229.635C303.451 229.613 303.271 229.651 303.116 229.743L300.051 231.604C300.008 231.623 299.962 231.633 299.915 231.633C299.868 231.633 299.821 231.623 299.778 231.604C299.734 231.593 299.693 231.574 299.656 231.546C299.619 231.518 299.588 231.483 299.564 231.443L297.367 227.461C297.344 227.418 297.328 227.372 297.322 227.323C297.316 227.275 297.319 227.225 297.331 227.178C297.344 227.131 297.364 227.087 297.393 227.048C297.422 227.009 297.457 226.977 297.498 226.952L300.55 225.104C300.719 225.016 300.854 224.872 300.934 224.694C301.014 224.516 301.033 224.315 300.99 224.124C300.879 223.654 300.795 223.177 300.74 222.697C300.629 221.733 300.629 220.758 300.74 219.794C300.795 219.313 300.879 218.837 300.99 218.367C301.032 218.185 301.016 217.994 300.946 217.822C300.875 217.649 300.753 217.506 300.598 217.412L297.569 215.588H297.474C297.408 215.536 297.362 215.461 297.343 215.377C297.32 215.301 297.32 215.218 297.343 215.142V215.03L299.505 211.122C299.529 211.082 299.56 211.047 299.597 211.019C299.633 210.992 299.675 210.972 299.719 210.961C299.762 210.942 299.808 210.932 299.855 210.932C299.902 210.932 299.949 210.942 299.992 210.961L303.056 212.809C303.214 212.918 303.402 212.967 303.59 212.949C303.777 212.931 303.954 212.846 304.09 212.71C304.759 212.035 305.505 211.447 306.311 210.961V210.986ZM296.619 225.501L307.796 208.393V205.304C307.794 204.774 307.985 204.264 308.33 203.877C308.517 203.68 308.739 203.524 308.983 203.418C309.228 203.311 309.49 203.257 309.755 203.257H314.15C314.415 203.257 314.677 203.311 314.922 203.418C315.167 203.524 315.389 203.68 315.575 203.877C315.953 204.268 316.166 204.798 316.169 205.353V208.455C316.974 208.742 317.75 209.112 318.485 209.559C319.225 210.004 319.921 210.523 320.564 211.11L323.141 209.559C323.37 209.421 323.622 209.332 323.884 209.296C324.145 209.26 324.411 209.278 324.666 209.349C324.921 209.421 325.16 209.544 325.369 209.712C325.578 209.88 325.754 210.089 325.885 210.328L328.118 214.236C328.25 214.475 328.336 214.738 328.37 215.011C328.405 215.285 328.387 215.562 328.319 215.828C328.25 216.094 328.132 216.344 327.972 216.562C327.811 216.781 327.61 216.964 327.382 217.102L324.804 218.652C324.868 218.983 324.919 219.314 324.959 219.645C325.096 220.731 325.108 221.831 324.994 222.92C324.994 223.251 324.943 223.582 324.84 223.913L327.37 225.525C327.599 225.663 327.799 225.846 327.96 226.065C328.121 226.283 328.239 226.533 328.307 226.799C328.375 227.065 328.393 227.343 328.358 227.616C328.324 227.889 328.238 228.153 328.106 228.391L325.909 232.374C325.649 232.846 325.224 233.194 324.723 233.344C324.222 233.495 323.685 233.436 323.225 233.18H323.165L320.6 231.604C319.319 232.78 317.83 233.681 316.217 234.259V237.361C316.214 237.916 316.001 238.447 315.625 238.84C315.25 239.232 314.741 239.454 314.209 239.457H309.815C309.308 239.459 308.82 239.26 308.449 238.899C308.261 238.704 308.111 238.472 308.009 238.217C307.907 237.961 307.855 237.687 307.855 237.41V234.309C306.238 233.733 304.745 232.831 303.46 231.654L300.883 233.205C300.654 233.343 300.402 233.432 300.14 233.468C299.879 233.504 299.613 233.486 299.358 233.414C299.103 233.343 298.865 233.22 298.655 233.052C298.446 232.884 298.271 232.674 298.139 232.436L295.942 228.453C295.679 227.972 295.609 227.403 295.747 226.868C295.885 226.333 296.22 225.878 296.678 225.6L296.619 225.501ZM312.06 213.876C313.709 213.875 315.308 214.471 316.584 215.563C317.86 216.655 318.733 218.176 319.055 219.866C319.377 221.556 319.128 223.31 318.351 224.829C317.573 226.349 316.315 227.539 314.79 228.198C313.266 228.857 311.57 228.943 309.992 228.441C308.414 227.94 307.051 226.882 306.136 225.449C305.221 224.015 304.811 222.294 304.975 220.58C305.139 218.865 305.867 217.263 307.035 216.047C308.37 214.658 310.176 213.878 312.06 213.876ZM308.211 217.275C309.101 216.346 310.271 215.767 311.524 215.637C312.776 215.508 314.033 215.836 315.08 216.565C316.126 217.295 316.899 218.381 317.265 219.639C317.63 220.897 317.568 222.248 317.087 223.463C316.606 224.678 315.736 225.681 314.627 226.301C313.517 226.921 312.236 227.12 311.001 226.865C309.767 226.609 308.656 225.914 307.857 224.899C307.058 223.883 306.62 222.609 306.62 221.295C306.618 220.548 306.758 219.809 307.031 219.119C307.304 218.429 307.705 217.803 308.211 217.275ZM341.742 193.803C338.237 193.807 334.84 192.54 332.13 190.22C329.419 187.9 327.563 184.67 326.877 181.08C326.192 177.49 326.719 173.763 328.37 170.534C330.021 167.306 332.693 164.775 335.93 163.373C339.168 161.972 342.771 161.787 346.124 162.849C349.478 163.912 352.375 166.156 354.321 169.2C356.268 172.244 357.144 175.898 356.799 179.541C356.454 183.184 354.911 186.589 352.432 189.176C351.029 190.644 349.362 191.808 347.528 192.602C345.694 193.396 343.727 193.804 341.742 193.803ZM330.149 190.082C327.456 187.292 325.772 183.614 325.384 179.673C324.997 175.732 325.93 171.772 328.024 168.47C330.119 165.167 333.245 162.725 336.871 161.56C340.496 160.395 344.396 160.58 347.905 162.082C351.415 163.585 354.317 166.312 356.117 169.799C357.917 173.286 358.504 177.317 357.777 181.206C357.05 185.094 355.054 188.598 352.13 191.122C349.206 193.645 345.535 195.031 341.742 195.044C339.592 195.054 337.461 194.621 335.472 193.769C333.483 192.917 331.674 191.664 330.149 190.082ZM329.745 156.399C331.413 155.392 333.192 154.601 335.043 154.042C335.225 153.997 335.387 153.89 335.504 153.737C335.62 153.584 335.684 153.394 335.684 153.199V145.643C335.684 145.212 335.848 144.799 336.14 144.494C336.432 144.189 336.828 144.018 337.24 144.018H346.125C346.537 144.018 346.933 144.189 347.225 144.494C347.517 144.799 347.681 145.212 347.681 145.643V153.199C347.682 153.387 347.741 153.57 347.85 153.72C347.96 153.87 348.113 153.979 348.286 154.03C350.15 154.589 351.941 155.385 353.619 156.399C355.299 157.411 356.854 158.631 358.252 160.034C358.38 160.173 358.549 160.262 358.732 160.289C358.915 160.316 359.101 160.279 359.261 160.183L365.545 156.399C365.903 156.187 366.327 156.13 366.724 156.242C367.122 156.353 367.462 156.624 367.671 156.995L372.089 164.984C372.292 165.358 372.347 165.801 372.24 166.217C372.133 166.632 371.874 166.987 371.519 167.205L365.295 170.927C365.126 171.014 364.991 171.158 364.911 171.336C364.832 171.514 364.812 171.716 364.856 171.907C365.088 172.887 365.262 173.881 365.378 174.884C365.612 176.903 365.612 178.944 365.378 180.963C365.262 181.966 365.088 182.96 364.856 183.941C364.814 184.123 364.829 184.314 364.9 184.486C364.97 184.658 365.092 184.802 365.248 184.896L371.519 188.618C371.874 188.835 372.133 189.19 372.24 189.606C372.347 190.021 372.292 190.464 372.089 190.838L367.671 198.828C367.462 199.199 367.122 199.469 366.724 199.581C366.327 199.692 365.903 199.636 365.545 199.423L359.309 195.701C359.151 195.593 358.963 195.544 358.775 195.562C358.588 195.58 358.411 195.664 358.275 195.801C356.875 197.213 355.316 198.442 353.631 199.46C351.964 200.468 350.185 201.259 348.334 201.818C348.152 201.862 347.989 201.97 347.873 202.123C347.756 202.276 347.693 202.466 347.692 202.661V210.229C347.692 210.66 347.529 211.073 347.237 211.378C346.945 211.683 346.549 211.854 346.137 211.854H337.252C336.865 211.859 336.489 211.714 336.199 211.445C335.909 211.177 335.726 210.805 335.684 210.403V202.835C335.683 202.646 335.624 202.463 335.514 202.313C335.405 202.164 335.252 202.055 335.078 202.004C333.215 201.445 331.424 200.649 329.745 199.634C328.061 198.615 326.501 197.387 325.101 195.974C324.972 195.846 324.806 195.764 324.628 195.742C324.45 195.719 324.271 195.757 324.115 195.85L317.88 199.572C317.521 199.784 317.098 199.841 316.7 199.73C316.302 199.618 315.962 199.348 315.754 198.977L311.311 190.938C311.108 190.563 311.054 190.121 311.161 189.705C311.267 189.29 311.526 188.935 311.881 188.717L318.105 184.995C318.274 184.908 318.409 184.763 318.489 184.585C318.569 184.407 318.589 184.206 318.545 184.015C318.313 183.034 318.139 182.04 318.022 181.038C317.789 179.019 317.789 176.978 318.022 174.959C318.139 173.956 318.313 172.962 318.545 171.981C318.587 171.799 318.571 171.608 318.501 171.436C318.43 171.263 318.308 171.12 318.153 171.026L311.929 167.304C311.574 167.086 311.315 166.731 311.208 166.316C311.101 165.9 311.156 165.458 311.359 165.083L315.777 157.094C315.982 156.729 316.313 156.46 316.703 156.344C317.093 156.229 317.51 156.275 317.868 156.474L324.151 160.258C324.306 160.35 324.486 160.388 324.664 160.366C324.841 160.344 325.007 160.262 325.137 160.133C326.522 158.697 328.069 157.443 329.745 156.399ZM341.623 163.843C344.753 163.83 347.789 164.952 350.215 167.018C352.641 169.083 354.306 171.964 354.925 175.168C355.544 178.372 355.079 181.701 353.61 184.588C352.141 187.474 349.759 189.739 346.869 190.995C343.98 192.251 340.763 192.421 337.767 191.476C334.771 190.531 332.182 188.529 330.441 185.812C328.701 183.096 327.917 179.832 328.223 176.579C328.53 173.326 329.907 170.285 332.121 167.974C334.64 165.337 338.057 163.852 341.623 163.843ZM333.309 169.264C335.25 167.232 337.806 165.965 340.541 165.681C343.276 165.396 346.021 166.111 348.308 167.704C350.595 169.297 352.282 171.669 353.082 174.416C353.882 177.163 353.744 180.114 352.694 182.767C351.643 185.42 349.744 187.61 347.321 188.965C344.897 190.319 342.099 190.753 339.403 190.194C336.707 189.634 334.28 188.115 332.536 185.896C330.793 183.676 329.84 180.894 329.84 178.023C329.838 176.396 330.142 174.785 330.738 173.282C331.333 171.779 332.207 170.414 333.309 169.264Z" fill="#8D8DCD"/>
    <path d="M379.936 262.321H286.514C283.314 262.321 282.299 263.179 282.299 266.253V331.883C282.299 334.957 283.314 335.815 286.514 335.815H379.936C383.136 335.815 384.151 334.957 384.151 331.883V266.253C384.151 263.179 383.136 262.321 379.936 262.321Z" fill="#F4F4F6"/>
    <rect x="320.689" y="292.536" width="55.627" height="3.26642" rx="0.5" fill="#B8B8E8"/>
    <rect x="320.689" y="301.519" width="55.627" height="3.26642" rx="0.5" fill="#B8B8E8"/>
    <rect x="320.689" y="310.501" width="55.627" height="3.26642" rx="0.5" fill="#B8B8E8"/>
    <rect x="320.689" y="319.485" width="55.627" height="3.26642" rx="0.5" fill="#B8B8E8"/>
    <rect x="288.566" y="290.902" width="20.3705" height="16.3321" rx="2" fill="#FCE1C0"/>
    <rect x="288.566" y="310.501" width="20.3705" height="12.2491" rx="2" fill="#FCE1C0"/>
    <path d="M282.299 264.321C282.299 263.216 283.194 262.321 284.299 262.321H382.151C383.256 262.321 384.151 263.216 384.151 264.321V280.286H282.299V264.321Z" fill="#FDCDCA"/>
    <path d="M293.398 273.814C294.37 273.814 295.158 273.051 295.158 272.11C295.158 271.169 294.37 270.406 293.398 270.406C292.425 270.406 291.637 271.169 291.637 272.11C291.637 273.051 292.425 273.814 293.398 273.814Z" fill="white"/>
    <path d="M300.409 273.814C301.382 273.814 302.17 273.051 302.17 272.11C302.17 271.169 301.382 270.406 300.409 270.406C299.437 270.406 298.648 271.169 298.648 272.11C298.648 273.051 299.437 273.814 300.409 273.814Z" fill="white"/>
    <path d="M307.422 273.814C308.394 273.814 309.183 273.051 309.183 272.11C309.183 271.169 308.394 270.406 307.422 270.406C306.449 270.406 305.661 271.169 305.661 272.11C305.661 273.051 306.449 273.814 307.422 273.814Z" fill="white"/>
</svg>
