<svg width="761" height="600" viewBox="0 0 761 600" fill="none" xmlns="http://www.w3.org/2000/svg">
    <path fill-rule="evenodd" clip-rule="evenodd" d="M0.00086594 157.436L0.0007934 0.499798C157.547 2.13439 760.632 0 760.632 0V283.386V422.829L761 592.002C633.211 624.786 463.589 545.962 306.152 549.474C119.067 553.648 72.4982 616.751 0 592.002L1.36011e-05 407.835L0.00086594 157.436Z" fill="#FEF4F3"/>
    <g opacity="0.88">
        <g opacity="0.79">
            <path opacity="0.6" d="M492.981 401.694L489.443 401.468C489.443 400.285 489.352 399.119 489.235 397.965L492.722 397.321C493.141 397.244 493.541 397.084 493.899 396.852C494.257 396.62 494.566 396.32 494.807 395.968C495.049 395.617 495.219 395.221 495.309 394.803C495.398 394.386 495.404 393.955 495.326 393.536C495.249 393.116 495.09 392.715 494.858 392.357C494.626 391.999 494.326 391.69 493.975 391.448C493.623 391.206 493.228 391.036 492.811 390.947C492.394 390.858 491.964 390.852 491.544 390.929L488.069 391.573C487.644 389.948 487.116 388.352 486.491 386.794L489.636 385.214C490.017 385.022 490.356 384.756 490.635 384.433C490.914 384.109 491.126 383.734 491.26 383.328C491.394 382.923 491.446 382.495 491.415 382.069C491.383 381.642 491.268 381.227 491.077 380.845C490.885 380.464 490.619 380.124 490.296 379.845C489.973 379.566 489.598 379.353 489.193 379.219C488.787 379.085 488.36 379.033 487.934 379.064C487.508 379.096 487.093 379.211 486.712 379.403L483.554 380.992C482.886 379.888 482.155 378.826 481.387 377.793L484.056 375.452C484.664 374.873 485.025 374.082 485.063 373.243C485.101 372.404 484.813 371.582 484.26 370.951C483.707 370.319 482.931 369.927 482.095 369.855C481.259 369.783 480.427 370.037 479.775 370.565L477.106 372.906C476.248 372.07 475.356 371.274 474.429 370.519L476.442 367.593C476.684 367.241 476.854 366.845 476.943 366.428C477.032 366.01 477.038 365.579 476.961 365.159C476.883 364.739 476.724 364.339 476.492 363.981C476.26 363.622 475.96 363.313 475.609 363.071C475.257 362.829 474.862 362.659 474.445 362.57C474.027 362.48 473.597 362.474 473.177 362.552C472.758 362.629 472.358 362.789 472 363.021C471.642 363.253 471.333 363.554 471.092 363.905L469.083 366.832C467.789 366.082 466.454 365.406 465.086 364.804L466.243 361.46C466.382 361.056 466.441 360.63 466.416 360.204C466.391 359.778 466.282 359.361 466.096 358.977C465.909 358.593 465.65 358.249 465.331 357.966C465.012 357.682 464.641 357.465 464.238 357.325C463.835 357.185 463.409 357.126 462.983 357.152C462.557 357.177 462.141 357.286 461.757 357.472C461.374 357.658 461.031 357.919 460.747 358.238C460.464 358.557 460.247 358.928 460.107 359.332L458.946 362.676C457.637 362.331 456.311 362.052 454.974 361.84L455.237 358.312C455.269 357.886 455.217 357.458 455.083 357.052C454.95 356.647 454.738 356.272 454.46 355.948C454.182 355.625 453.842 355.359 453.462 355.167C453.081 354.974 452.666 354.859 452.241 354.827C451.815 354.795 451.388 354.848 450.983 354.981C450.578 355.115 450.203 355.327 449.879 355.605C449.556 355.884 449.291 356.223 449.099 356.604C448.906 356.986 448.791 357.401 448.759 357.827L448.496 361.363C446.877 361.372 445.259 361.477 443.651 361.677L442.933 358.207C442.747 357.373 442.24 356.646 441.522 356.183C440.805 355.72 439.934 355.558 439.098 355.733C438.262 355.908 437.528 356.405 437.056 357.116C436.583 357.828 436.409 358.698 436.572 359.537L437.291 363.006C436.142 363.341 435.023 363.73 433.916 364.165L432.366 360.97C431.99 360.194 431.322 359.6 430.507 359.317C429.693 359.034 428.8 359.087 428.025 359.463C427.249 359.84 426.655 360.509 426.373 361.324C426.09 362.139 426.143 363.033 426.519 363.809L428.064 367.003C426.766 367.769 425.511 368.607 424.306 369.512L421.958 366.844C421.676 366.524 421.334 366.262 420.951 366.074C420.568 365.886 420.152 365.776 419.726 365.749C419.301 365.722 418.874 365.779 418.471 365.917C418.067 366.055 417.695 366.272 417.374 366.554C417.054 366.836 416.793 367.178 416.605 367.562C416.417 367.945 416.307 368.362 416.28 368.788C416.253 369.214 416.31 369.641 416.448 370.045C416.586 370.449 416.802 370.822 417.084 371.142L419.431 373.809C418.496 374.775 417.606 375.782 416.767 376.836L413.843 374.867C413.489 374.629 413.091 374.464 412.673 374.381C412.255 374.297 411.825 374.297 411.406 374.379C410.988 374.462 410.59 374.627 410.235 374.864C409.881 375.1 409.576 375.405 409.339 375.759C409.102 376.114 408.936 376.512 408.853 376.931C408.769 377.349 408.769 377.78 408.852 378.199C408.934 378.617 409.099 379.016 409.335 379.371C409.572 379.726 409.876 380.031 410.23 380.268L413.154 382.233C412.522 383.348 411.944 384.509 411.421 385.716L408.079 384.553C407.674 384.403 407.243 384.334 406.811 384.352C406.379 384.37 405.955 384.475 405.564 384.659C405.173 384.843 404.822 385.104 404.533 385.425C404.243 385.747 404.021 386.123 403.879 386.532C403.736 386.94 403.677 387.373 403.704 387.805C403.731 388.237 403.844 388.659 404.036 389.047C404.228 389.435 404.495 389.78 404.823 390.063C405.15 390.346 405.53 390.561 405.941 390.695L409.282 391.861C408.902 393.332 408.603 394.822 408.389 396.326L404.859 396.1C404.016 396.073 403.195 396.375 402.57 396.942C401.945 397.51 401.565 398.299 401.511 399.142C401.456 399.985 401.732 400.816 402.279 401.459C402.826 402.103 403.602 402.508 404.442 402.589L407.979 402.814C407.979 403.993 408.075 405.16 408.188 406.318L404.701 406.962C404.26 407.015 403.835 407.159 403.452 407.383C403.069 407.607 402.736 407.908 402.474 408.266C402.211 408.624 402.025 409.032 401.926 409.465C401.827 409.898 401.818 410.346 401.898 410.783C401.979 411.22 402.149 411.635 402.396 412.004C402.643 412.373 402.964 412.687 403.337 412.927C403.71 413.167 404.129 413.328 404.566 413.4C405.004 413.472 405.452 413.453 405.883 413.345L409.358 412.706C409.788 414.33 410.319 415.926 410.949 417.484L407.804 419.069C407.423 419.261 407.084 419.526 406.805 419.85C406.527 420.173 406.315 420.548 406.181 420.954C406.047 421.359 405.995 421.787 406.026 422.213C406.058 422.639 406.173 423.054 406.365 423.435C406.557 423.817 406.822 424.156 407.145 424.435C407.468 424.714 407.843 424.926 408.248 425.06C408.653 425.194 409.081 425.246 409.506 425.215C409.932 425.183 410.347 425.068 410.727 424.876L413.885 423.287C414.553 424.391 415.284 425.453 416.053 426.481L413.384 428.822C412.764 429.398 412.393 430.194 412.35 431.04C412.306 431.885 412.594 432.715 413.153 433.351C413.711 433.988 414.495 434.381 415.338 434.448C416.181 434.515 417.018 434.25 417.669 433.709L420.338 431.368C421.195 432.204 422.088 433 423.015 433.755L421.002 436.682C420.558 437.392 420.405 438.246 420.575 439.066C420.745 439.886 421.224 440.609 421.913 441.084C422.602 441.559 423.448 441.75 424.274 441.617C425.1 441.484 425.843 441.037 426.348 440.369L428.357 437.443C429.651 438.192 430.985 438.869 432.354 439.47L431.193 442.815C431.032 443.223 430.956 443.659 430.969 444.097C430.981 444.535 431.082 444.967 431.265 445.365C431.448 445.763 431.71 446.12 432.034 446.415C432.358 446.709 432.739 446.935 433.153 447.078C433.567 447.222 434.005 447.28 434.442 447.25C434.879 447.219 435.305 447.101 435.695 446.901C436.085 446.702 436.431 446.426 436.712 446.089C436.992 445.752 437.202 445.362 437.328 444.943L438.485 441.598C439.794 441.943 441.12 442.222 442.457 442.434L442.194 445.963C442.157 446.807 442.451 447.633 443.012 448.264C443.573 448.896 444.358 449.284 445.2 449.347C446.042 449.409 446.875 449.141 447.523 448.599C448.171 448.057 448.583 447.284 448.672 446.444L448.935 442.911C450.556 442.902 452.175 442.797 453.784 442.597L454.502 446.067C454.677 446.911 455.18 447.651 455.9 448.123C456.62 448.596 457.498 448.763 458.34 448.588C459.183 448.413 459.922 447.91 460.395 447.189C460.867 446.469 461.034 445.59 460.859 444.746L460.141 441.276C461.289 440.942 462.408 440.553 463.515 440.118L465.065 443.312C465.251 443.697 465.511 444.04 465.83 444.324C466.149 444.608 466.521 444.826 466.924 444.966C467.327 445.106 467.754 445.165 468.18 445.14C468.606 445.115 469.022 445.006 469.406 444.819C469.79 444.633 470.134 444.373 470.417 444.053C470.701 443.734 470.918 443.362 471.058 442.959C471.198 442.555 471.257 442.128 471.232 441.702C471.207 441.275 471.098 440.858 470.912 440.474L469.367 437.296C470.665 436.53 471.92 435.693 473.126 434.788L475.473 437.455C475.755 437.776 476.097 438.037 476.48 438.225C476.863 438.413 477.279 438.524 477.705 438.551C478.13 438.578 478.557 438.52 478.961 438.382C479.364 438.244 479.737 438.028 480.057 437.746C480.377 437.464 480.638 437.121 480.826 436.738C481.014 436.354 481.124 435.938 481.151 435.512C481.178 435.086 481.121 434.659 480.983 434.255C480.845 433.851 480.629 433.478 480.347 433.157L478 430.49C478.931 429.525 479.825 428.517 480.664 427.463L483.588 429.433C483.942 429.67 484.34 429.835 484.758 429.919C485.176 430.003 485.607 430.003 486.025 429.92C486.443 429.837 486.841 429.673 487.196 429.436C487.55 429.199 487.855 428.895 488.092 428.54C488.33 428.185 488.495 427.787 488.578 427.369C488.662 426.95 488.662 426.519 488.579 426.101C488.497 425.682 488.332 425.284 488.096 424.929C487.859 424.574 487.555 424.269 487.201 424.031L484.277 422.066C484.909 420.951 485.487 419.791 486.01 418.584L489.352 419.746C489.754 419.887 490.18 419.946 490.606 419.922C491.032 419.898 491.449 419.79 491.832 419.604C492.216 419.418 492.56 419.159 492.844 418.84C493.128 418.522 493.346 418.151 493.486 417.748C493.627 417.345 493.687 416.918 493.662 416.492C493.638 416.066 493.53 415.649 493.345 415.264C493.159 414.88 492.9 414.536 492.582 414.252C492.264 413.968 491.893 413.749 491.49 413.609L488.149 412.442C488.534 410.968 488.837 409.473 489.055 407.965L492.584 408.191C493.01 408.218 493.437 408.161 493.84 408.024C494.244 407.886 494.617 407.67 494.937 407.388C495.258 407.107 495.519 406.764 495.707 406.381C495.896 405.998 496.007 405.582 496.034 405.156C496.062 404.73 496.005 404.302 495.867 403.898C495.73 403.494 495.514 403.121 495.233 402.8C494.951 402.48 494.609 402.218 494.226 402.029C493.844 401.841 493.428 401.73 493.002 401.702L492.981 401.694ZM454.577 367.166C459.53 367.999 464.249 369.876 468.422 372.674C472.595 375.471 476.126 379.124 478.781 383.391L464.676 390.498C461.925 386.73 457.93 384.057 453.4 382.952L454.577 367.166ZM448.099 366.698L446.93 382.446C442.124 382.882 437.645 385.067 434.342 388.588L421.227 379.808C424.478 375.791 428.568 372.535 433.211 370.27C437.853 368.005 442.935 366.786 448.099 366.698V366.698ZM415.744 415.08C414.251 411.273 413.431 407.234 413.321 403.145L413.739 396.656C414.361 392.638 415.674 388.759 417.619 385.189L430.737 393.968C430.198 395.148 429.779 396.379 429.484 397.643L429.067 404.131C429.197 405.435 429.458 406.722 429.844 407.973L415.744 415.08ZM442.866 437.108C437.914 436.276 433.195 434.399 429.022 431.602C424.85 428.806 421.318 425.154 418.663 420.887L432.767 413.78C435.518 417.551 439.513 420.225 444.044 421.33L442.866 437.108ZM448.622 410.958C446.874 410.939 445.172 410.402 443.73 409.414C442.288 408.427 441.171 407.033 440.52 405.41C439.87 403.787 439.714 402.007 440.074 400.296C440.434 398.584 441.293 397.018 442.542 395.795C443.791 394.573 445.374 393.748 447.092 393.426C448.809 393.104 450.583 393.299 452.19 393.986C453.796 394.674 455.163 395.822 456.118 397.287C457.072 398.752 457.571 400.468 457.551 402.217C457.539 403.378 457.298 404.525 456.842 405.592C456.386 406.66 455.725 407.628 454.896 408.439C454.067 409.251 453.086 409.892 452.009 410.324C450.933 410.756 449.781 410.972 448.622 410.958V410.958ZM449.34 437.56L450.509 421.811C455.314 421.383 459.794 419.205 463.102 415.691L476.216 424.47C472.966 428.488 468.876 431.744 464.233 434.009C459.59 436.274 454.508 437.493 449.344 437.581L449.34 437.56ZM483.717 407.614C483.095 411.63 481.782 415.509 479.837 419.077L466.719 410.298C467.258 409.119 467.677 407.889 467.972 406.627L468.389 400.139C468.259 398.835 467.999 397.548 467.612 396.297L481.721 389.19C483.213 392.998 484.033 397.036 484.143 401.125L483.717 407.614Z" fill="#B8B8E8"/>
        </g>
        <g opacity="0.77">
            <path opacity="0.6" d="M381.039 341.301L379.01 341.171C379.01 340.494 378.955 339.821 378.889 339.16L380.889 338.792C381.13 338.748 381.36 338.656 381.565 338.523C381.77 338.39 381.948 338.217 382.086 338.015C382.225 337.813 382.323 337.586 382.374 337.346C382.425 337.107 382.429 336.859 382.384 336.618C382.34 336.377 382.248 336.147 382.115 335.942C381.982 335.736 381.81 335.559 381.608 335.42C381.406 335.281 381.179 335.183 380.94 335.132C380.7 335.081 380.453 335.077 380.212 335.122L378.216 335.49C377.97 334.557 377.666 333.641 377.306 332.747L379.11 331.84C379.329 331.73 379.525 331.578 379.686 331.393C379.846 331.207 379.969 330.992 380.047 330.759C380.124 330.526 380.155 330.28 380.138 330.035C380.12 329.79 380.055 329.551 379.945 329.331C379.835 329.112 379.684 328.916 379.498 328.755C379.313 328.594 379.098 328.472 378.865 328.394C378.633 328.316 378.387 328.285 378.142 328.303C377.897 328.32 377.659 328.386 377.439 328.495L375.627 329.407C375.242 328.775 374.825 328.153 374.374 327.571L375.906 326.229C376.278 325.903 376.505 325.442 376.537 324.948C376.569 324.454 376.404 323.968 376.078 323.596C375.751 323.224 375.291 322.997 374.798 322.964C374.304 322.932 373.818 323.098 373.446 323.424L371.914 324.77C371.421 324.291 370.908 323.834 370.377 323.399L371.534 321.727C371.672 321.525 371.77 321.298 371.821 321.058C371.872 320.819 371.876 320.572 371.831 320.331C371.787 320.09 371.695 319.86 371.562 319.655C371.429 319.449 371.257 319.272 371.055 319.133C370.854 318.994 370.627 318.896 370.388 318.845C370.148 318.794 369.901 318.79 369.661 318.835C369.42 318.879 369.19 318.971 368.985 319.104C368.78 319.237 368.603 319.41 368.464 319.611L367.311 321.284C366.569 320.854 365.803 320.466 365.018 320.122L365.682 318.198C365.762 317.967 365.796 317.722 365.782 317.478C365.767 317.233 365.705 316.994 365.598 316.774C365.491 316.553 365.342 316.356 365.159 316.194C364.976 316.031 364.763 315.906 364.532 315.826C364.3 315.746 364.056 315.712 363.811 315.726C363.567 315.741 363.328 315.803 363.108 315.91C362.888 316.017 362.691 316.167 362.529 316.35C362.366 316.533 362.241 316.746 362.161 316.978L361.497 318.901C360.746 318.704 359.984 318.545 359.217 318.424L359.367 316.401C359.385 316.156 359.355 315.911 359.278 315.678C359.202 315.446 359.08 315.23 358.92 315.045C358.598 314.67 358.139 314.439 357.646 314.402C357.153 314.366 356.666 314.527 356.292 314.85C355.917 315.173 355.687 315.631 355.65 316.125L355.5 318.152C354.57 318.157 353.641 318.217 352.718 318.332L352.3 316.342C352.2 315.858 351.912 315.433 351.499 315.161C351.085 314.89 350.581 314.793 350.097 314.894C349.613 314.994 349.189 315.283 348.917 315.696C348.646 316.11 348.55 316.614 348.65 317.099L349.068 319.089C348.408 319.281 347.765 319.507 347.13 319.754L346.24 317.923C346.144 317.686 346 317.472 345.818 317.293C345.636 317.114 345.419 316.975 345.18 316.884C344.942 316.793 344.688 316.752 344.433 316.763C344.178 316.774 343.928 316.838 343.699 316.95C343.469 317.061 343.265 317.219 343.1 317.413C342.934 317.607 342.809 317.833 342.734 318.078C342.659 318.322 342.635 318.579 342.664 318.832C342.692 319.086 342.772 319.331 342.899 319.553L343.789 321.388C343.046 321.826 342.328 322.305 341.638 322.822L340.289 321.292C339.962 320.921 339.501 320.694 339.008 320.663C338.514 320.632 338.028 320.798 337.657 321.125C337.286 321.452 337.06 321.913 337.029 322.407C336.997 322.901 337.163 323.387 337.49 323.759L338.839 325.289C338.305 325.845 337.791 326.422 337.311 327.028L335.64 325.895C335.437 325.758 335.208 325.662 334.968 325.613C334.727 325.564 334.479 325.563 334.239 325.61C333.752 325.705 333.323 325.989 333.046 326.401C332.769 326.812 332.667 327.317 332.762 327.804C332.857 328.291 333.141 328.72 333.552 328.997L335.222 330.126C334.86 330.772 334.529 331.438 334.228 332.124L332.315 331.459C332.084 331.379 331.839 331.344 331.595 331.358C331.351 331.372 331.111 331.434 330.891 331.541C330.67 331.648 330.473 331.797 330.31 331.979C330.147 332.162 330.022 332.376 329.941 332.607C329.86 332.838 329.826 333.083 329.84 333.328C329.854 333.573 329.916 333.812 330.023 334.033C330.129 334.254 330.278 334.451 330.461 334.614C330.643 334.777 330.856 334.903 331.088 334.984L333.009 335.653C332.787 336.499 332.613 337.358 332.487 338.224L330.461 338.094C329.968 338.062 329.482 338.228 329.11 338.555C328.739 338.882 328.513 339.343 328.481 339.837C328.45 340.331 328.616 340.818 328.942 341.189C329.269 341.561 329.73 341.787 330.223 341.819L332.253 341.949C332.253 342.626 332.307 343.295 332.374 343.959L330.373 344.327C330.133 344.372 329.903 344.463 329.697 344.597C329.492 344.73 329.315 344.903 329.176 345.104C329.037 345.306 328.939 345.534 328.888 345.773C328.837 346.013 328.834 346.26 328.878 346.501C328.923 346.742 329.014 346.972 329.147 347.178C329.28 347.384 329.453 347.561 329.654 347.7C329.856 347.839 330.083 347.937 330.323 347.988C330.562 348.039 330.809 348.042 331.05 347.998L333.046 347.63C333.294 348.562 333.599 349.478 333.961 350.373L332.157 351.28C331.937 351.39 331.742 351.542 331.581 351.727C331.42 351.913 331.298 352.128 331.22 352.361C331.143 352.594 331.112 352.84 331.129 353.085C331.146 353.329 331.212 353.569 331.321 353.788C331.431 354.008 331.583 354.204 331.768 354.364C331.954 354.525 332.169 354.648 332.401 354.726C332.634 354.803 332.88 354.834 333.124 354.817C333.369 354.8 333.608 354.734 333.827 354.624L335.64 353.713C336.024 354.344 336.442 354.967 336.893 355.548L335.36 356.894C335.176 357.056 335.026 357.252 334.918 357.472C334.809 357.692 334.746 357.931 334.73 358.176C334.714 358.42 334.746 358.666 334.825 358.898C334.904 359.13 335.027 359.344 335.189 359.528C335.35 359.712 335.547 359.863 335.766 359.971C335.986 360.079 336.225 360.143 336.469 360.159C336.713 360.175 336.959 360.143 337.19 360.064C337.422 359.985 337.636 359.861 337.82 359.7L339.353 358.353C339.846 358.833 340.358 359.29 340.89 359.725L339.733 361.397C339.594 361.599 339.497 361.826 339.446 362.065C339.394 362.305 339.391 362.552 339.435 362.793C339.48 363.034 339.571 363.264 339.704 363.469C339.837 363.675 340.01 363.852 340.211 363.991C340.413 364.13 340.64 364.228 340.879 364.279C341.118 364.33 341.365 364.333 341.606 364.289C341.847 364.244 342.076 364.153 342.282 364.02C342.487 363.886 342.664 363.714 342.803 363.512L343.956 361.84C344.698 362.269 345.463 362.657 346.249 363.002L345.584 364.925C345.504 365.157 345.471 365.402 345.485 365.647C345.5 365.892 345.562 366.131 345.669 366.352C345.777 366.572 345.926 366.769 346.109 366.932C346.292 367.095 346.506 367.22 346.737 367.3C346.969 367.38 347.214 367.414 347.458 367.399C347.703 367.385 347.942 367.322 348.162 367.215C348.382 367.108 348.579 366.958 348.742 366.775C348.905 366.591 349.029 366.378 349.109 366.146L349.774 364.223C350.525 364.42 351.286 364.579 352.054 364.7L351.904 366.723C351.867 367.216 352.028 367.704 352.351 368.079C352.673 368.454 353.131 368.685 353.624 368.721C354.117 368.758 354.605 368.597 354.979 368.274C355.353 367.951 355.584 367.492 355.621 366.999L355.763 364.971C356.693 364.966 357.622 364.906 358.544 364.792L358.962 366.782C359.012 367.021 359.108 367.249 359.246 367.452C359.383 367.655 359.559 367.828 359.764 367.963C359.968 368.097 360.198 368.19 360.438 368.236C360.678 368.282 360.926 368.28 361.165 368.23C361.405 368.18 361.632 368.084 361.835 367.946C362.037 367.809 362.211 367.632 362.345 367.428C362.479 367.223 362.572 366.993 362.618 366.753C362.664 366.512 362.662 366.265 362.612 366.025L362.195 364.035C362.855 363.843 363.498 363.617 364.133 363.37L365.022 365.201C365.118 365.438 365.262 365.652 365.444 365.831C365.627 366.009 365.844 366.149 366.082 366.24C366.32 366.331 366.575 366.372 366.83 366.361C367.085 366.35 367.334 366.286 367.564 366.174C367.793 366.062 367.997 365.904 368.163 365.71C368.329 365.516 368.453 365.29 368.528 365.046C368.603 364.802 368.627 364.545 368.599 364.291C368.57 364.038 368.49 363.792 368.364 363.571L367.474 361.736C368.217 361.298 368.935 360.819 369.625 360.302L370.974 361.832C371.301 362.203 371.761 362.429 372.255 362.461C372.748 362.492 373.234 362.326 373.605 361.999C373.976 361.672 374.202 361.211 374.234 360.717C374.265 360.223 374.099 359.737 373.772 359.365L372.427 357.835C372.962 357.279 373.476 356.702 373.956 356.096L375.627 357.229C375.83 357.366 376.059 357.462 376.299 357.511C376.54 357.56 376.787 357.561 377.028 357.514C377.269 357.467 377.498 357.373 377.703 357.237C377.907 357.101 378.083 356.927 378.22 356.723C378.357 356.519 378.453 356.291 378.502 356.05C378.551 355.809 378.552 355.561 378.505 355.32C378.458 355.079 378.364 354.85 378.228 354.645C378.093 354.44 377.918 354.264 377.715 354.127L376.044 352.998C376.406 352.351 376.738 351.685 377.038 351L378.951 351.664C379.418 351.827 379.931 351.798 380.376 351.583C380.821 351.368 381.163 350.984 381.326 350.517C381.488 350.049 381.459 349.537 381.244 349.091C381.029 348.645 380.646 348.303 380.179 348.14L378.258 347.471C378.478 346.626 378.651 345.769 378.776 344.904L380.801 345.034C381.295 345.066 381.781 344.9 382.152 344.573C382.523 344.246 382.75 343.785 382.781 343.291C382.813 342.797 382.647 342.31 382.32 341.939C381.994 341.567 381.533 341.341 381.039 341.309V341.301ZM358.995 321.493C361.837 321.969 364.544 323.045 366.939 324.648C369.334 326.251 371.361 328.344 372.887 330.79L364.793 334.871C363.214 332.709 360.922 331.174 358.323 330.54L358.995 321.493ZM355.278 321.225L354.606 330.268C351.848 330.518 349.277 331.772 347.38 333.792L339.863 328.746C341.726 326.44 344.071 324.57 346.734 323.267C349.396 321.965 352.311 321.262 355.274 321.208L355.278 321.225ZM336.701 349.001C335.838 346.811 335.363 344.486 335.298 342.133L335.531 338.408C335.888 336.101 336.641 333.873 337.758 331.823L345.275 336.873C344.969 337.545 344.73 338.245 344.561 338.964L344.327 342.689C344.402 343.437 344.552 344.177 344.774 344.896L336.701 349.001ZM352.271 361.627C349.428 361.149 346.718 360.071 344.323 358.465C341.927 356.859 339.9 354.762 338.376 352.312L346.474 348.249C348.052 350.413 350.344 351.948 352.944 352.584L352.271 361.627ZM355.575 346.623C354.572 346.612 353.595 346.303 352.767 345.737C351.939 345.17 351.298 344.37 350.924 343.438C350.55 342.507 350.461 341.485 350.668 340.503C350.874 339.52 351.367 338.621 352.084 337.919C352.801 337.217 353.71 336.744 354.696 336.559C355.682 336.374 356.7 336.486 357.623 336.881C358.545 337.275 359.329 337.935 359.877 338.776C360.425 339.617 360.711 340.602 360.7 341.606C360.693 342.273 360.555 342.932 360.294 343.545C360.033 344.159 359.654 344.715 359.178 345.181C358.702 345.648 358.138 346.016 357.52 346.265C356.902 346.514 356.241 346.638 355.575 346.631V346.623ZM355.992 361.894L356.661 352.848C359.419 352.598 361.99 351.344 363.886 349.323L371.404 354.369C369.54 356.676 367.194 358.546 364.531 359.847C361.867 361.149 358.952 361.85 355.988 361.903L355.992 361.894ZM375.727 344.695C375.37 347.001 374.617 349.227 373.501 351.276L365.983 346.225C366.289 345.554 366.529 344.854 366.697 344.135L366.931 340.41C366.856 339.661 366.707 338.922 366.484 338.203L374.557 334.127C375.414 336.313 375.885 338.631 375.948 340.979L375.727 344.695Z" fill="#B8B8E8"/>
        </g>
        <g opacity="0.74">
            <path opacity="0.74" d="M314.686 414.557C315.06 411.57 312.943 408.845 309.958 408.471C306.974 408.097 304.251 410.216 303.878 413.204C303.505 416.191 305.622 418.916 308.606 419.29C311.591 419.664 314.313 417.545 314.686 414.557Z" fill="url(#paint0_linear)"/>
            <path opacity="0.6" d="M360.069 416.335L354.393 415.624C354.529 412.31 354.298 408.991 353.704 405.728L359.205 404.223C359.695 404.089 360.155 403.859 360.557 403.547C360.958 403.235 361.295 402.846 361.547 402.404C361.799 401.962 361.961 401.474 362.025 400.969C362.088 400.463 362.052 399.951 361.917 399.46C361.783 398.969 361.553 398.509 361.242 398.107C360.93 397.704 360.542 397.367 360.1 397.115C359.658 396.863 359.171 396.701 358.666 396.637C358.161 396.573 357.649 396.61 357.158 396.744L351.649 398.253C350.491 395.11 348.988 392.106 347.168 389.294L351.683 385.783C352.466 385.143 352.968 384.221 353.082 383.216C353.195 382.21 352.911 381.2 352.29 380.401C351.67 379.602 350.761 379.078 349.76 378.941C348.758 378.804 347.742 379.064 346.93 379.666L342.419 383.178C340.169 380.743 337.658 378.562 334.931 376.677L337.762 371.711C338.193 370.824 338.27 369.807 337.978 368.865C337.686 367.924 337.046 367.129 336.189 366.643C335.332 366.157 334.322 366.017 333.365 366.25C332.408 366.483 331.576 367.072 331.038 367.898L328.198 372.839C325.158 371.439 321.971 370.383 318.696 369.691L319.427 364.01C319.505 363.498 319.48 362.976 319.353 362.474C319.226 361.972 319 361.501 318.688 361.088C318.376 360.675 317.984 360.329 317.536 360.07C317.088 359.811 316.593 359.644 316.08 359.58C315.567 359.516 315.046 359.555 314.548 359.696C314.05 359.836 313.586 360.075 313.182 360.399C312.778 360.722 312.443 361.123 312.196 361.578C311.95 362.033 311.797 362.533 311.746 363.048L311.024 368.734C307.713 368.598 304.398 368.83 301.138 369.424L299.634 363.918C299.508 363.419 299.283 362.949 298.974 362.538C298.664 362.126 298.276 361.781 297.831 361.521C297.387 361.262 296.895 361.093 296.385 361.026C295.874 360.959 295.356 360.995 294.86 361.131C294.363 361.267 293.899 361.5 293.494 361.818C293.088 362.135 292.751 362.531 292.5 362.981C292.249 363.431 292.09 363.926 292.033 364.438C291.976 364.95 292.021 365.468 292.166 365.962L293.674 371.477C290.535 372.637 287.533 374.141 284.724 375.962L281.215 371.447C280.908 371.032 280.521 370.683 280.077 370.419C279.633 370.156 279.141 369.985 278.63 369.914C278.118 369.844 277.598 369.877 277.1 370.011C276.601 370.145 276.135 370.378 275.727 370.695C275.32 371.012 274.98 371.408 274.728 371.858C274.475 372.309 274.315 372.806 274.257 373.319C274.199 373.832 274.244 374.352 274.39 374.848C274.536 375.343 274.779 375.805 275.105 376.205L278.613 380.724C276.183 382.976 274.007 385.489 272.123 388.216L267.161 385.386C266.719 385.117 266.228 384.94 265.716 384.865C265.204 384.79 264.682 384.818 264.182 384.948C263.681 385.078 263.212 385.307 262.801 385.621C262.39 385.936 262.047 386.33 261.79 386.78C261.534 387.229 261.371 387.726 261.309 388.24C261.248 388.754 261.29 389.275 261.433 389.773C261.577 390.27 261.818 390.734 262.143 391.136C262.469 391.539 262.871 391.872 263.327 392.116L268.281 394.947C266.88 397.985 265.824 401.171 265.131 404.445L259.456 403.734C258.944 403.656 258.422 403.682 257.921 403.809C257.42 403.936 256.949 404.162 256.536 404.474C256.124 404.787 255.778 405.179 255.519 405.627C255.26 406.075 255.094 406.571 255.03 407.084C254.966 407.598 255.005 408.12 255.145 408.618C255.286 409.116 255.525 409.581 255.848 409.986C256.171 410.39 256.571 410.725 257.026 410.972C257.481 411.219 257.98 411.372 258.495 411.422L264.171 412.133C264.035 415.447 264.266 418.766 264.86 422.029L259.359 423.534C258.868 423.668 258.408 423.898 258.005 424.211C257.603 424.523 257.265 424.912 257.013 425.355C256.761 425.798 256.598 426.286 256.534 426.792C256.47 427.298 256.506 427.812 256.64 428.304C256.775 428.796 257.005 429.256 257.317 429.659C257.629 430.062 258.018 430.4 258.46 430.653C258.903 430.905 259.391 431.068 259.896 431.132C260.401 431.196 260.915 431.16 261.406 431.025L266.919 429.516C268.077 432.654 269.578 435.653 271.396 438.459L266.881 441.97C266.467 442.278 266.118 442.665 265.855 443.11C265.592 443.554 265.42 444.047 265.35 444.559C265.28 445.071 265.313 445.591 265.447 446.09C265.581 446.589 265.813 447.056 266.13 447.464C266.447 447.872 266.842 448.212 267.292 448.465C267.742 448.717 268.238 448.877 268.751 448.935C269.264 448.993 269.783 448.948 270.278 448.802C270.774 448.657 271.235 448.413 271.634 448.087L276.145 444.575C278.395 447.015 280.907 449.201 283.634 451.092L280.802 456.059C280.371 456.946 280.294 457.963 280.586 458.905C280.879 459.846 281.518 460.64 282.375 461.126C283.232 461.612 284.242 461.753 285.199 461.52C286.156 461.287 286.988 460.697 287.526 459.872L290.354 454.914C293.394 456.315 296.581 457.373 299.856 458.066L299.146 463.747C299.047 464.752 299.345 465.756 299.975 466.545C300.605 467.333 301.517 467.845 302.518 467.97C303.519 468.095 304.53 467.825 305.334 467.215C306.139 466.606 306.674 465.707 306.826 464.709L307.536 459.027C310.847 459.163 314.162 458.931 317.422 458.338L318.926 463.843C319.052 464.343 319.277 464.812 319.586 465.224C319.896 465.635 320.284 465.981 320.729 466.24C321.173 466.5 321.665 466.668 322.175 466.735C322.686 466.802 323.204 466.767 323.701 466.631C324.197 466.495 324.661 466.261 325.067 465.944C325.472 465.626 325.81 465.231 326.06 464.781C326.311 464.331 326.47 463.835 326.527 463.324C326.584 462.812 326.539 462.293 326.394 461.799L324.886 456.285C328.024 455.125 331.025 453.621 333.832 451.799L337.345 456.314C337.652 456.729 338.039 457.079 338.483 457.342C338.927 457.605 339.419 457.777 339.93 457.847C340.442 457.917 340.962 457.884 341.46 457.75C341.959 457.616 342.425 457.383 342.833 457.066C343.24 456.749 343.58 456.354 343.833 455.903C344.085 455.452 344.245 454.956 344.303 454.443C344.361 453.929 344.316 453.409 344.17 452.914C344.024 452.418 343.781 451.957 343.455 451.557L339.947 447.041C342.379 444.79 344.557 442.277 346.441 439.55L351.403 442.384C352.292 442.861 353.333 442.971 354.302 442.691C355.271 442.411 356.093 441.764 356.593 440.887C357.092 440.01 357.23 438.972 356.977 437.994C356.724 437.017 356.1 436.177 355.237 435.653L350.279 432.827C351.681 429.783 352.737 426.592 353.429 423.312L359.105 424.023C360.109 424.121 361.111 423.823 361.899 423.193C362.687 422.562 363.198 421.649 363.323 420.647C363.448 419.645 363.178 418.634 362.569 417.828C361.961 417.023 361.062 416.487 360.065 416.335H360.069ZM280.965 394.512C281.878 393.177 283.165 392.144 284.665 391.542C286.165 390.94 287.809 390.796 289.39 391.13C290.971 391.463 292.418 392.258 293.547 393.415C294.677 394.571 295.438 396.037 295.736 397.627C296.033 399.216 295.853 400.859 295.218 402.346C294.582 403.833 293.521 405.098 292.168 405.981C290.814 406.865 289.229 407.326 287.614 407.308C285.998 407.29 284.424 406.793 283.091 405.879C282.206 405.272 281.448 404.497 280.862 403.598C280.276 402.698 279.873 401.692 279.676 400.636C279.478 399.581 279.491 398.496 279.712 397.446C279.933 396.395 280.359 395.398 280.965 394.512V394.512ZM289.076 432.372C287.612 433.057 285.978 433.293 284.381 433.049C282.784 432.805 281.294 432.092 280.102 431.001C278.909 429.909 278.067 428.489 277.681 426.918C277.295 425.347 277.383 423.697 277.934 422.177C278.485 420.656 279.474 419.334 280.776 418.376C282.078 417.418 283.635 416.868 285.249 416.796C286.863 416.724 288.462 417.132 289.845 417.97C291.227 418.808 292.33 420.037 293.014 421.502C293.931 423.465 294.031 425.712 293.293 427.75C292.556 429.787 291.04 431.448 289.08 432.367L289.076 432.372ZM313.542 379.813C315.145 380.014 316.653 380.685 317.874 381.744C319.095 382.802 319.976 384.199 320.405 385.758C320.833 387.317 320.79 388.968 320.281 390.503C319.772 392.037 318.821 393.386 317.546 394.38C316.271 395.373 314.731 395.965 313.12 396.083C311.508 396.2 309.899 395.836 308.494 395.038C307.089 394.239 305.953 393.042 305.228 391.597C304.502 390.152 304.222 388.524 304.421 386.92C304.553 385.853 304.894 384.824 305.424 383.889C305.954 382.955 306.663 382.134 307.51 381.474C308.357 380.814 309.326 380.327 310.361 380.042C311.396 379.757 312.477 379.679 313.542 379.813V379.813ZM305.022 447.957C303.419 447.756 301.912 447.084 300.69 446.026C299.469 444.968 298.588 443.571 298.16 442.012C297.731 440.453 297.774 438.802 298.283 437.267C298.792 435.733 299.744 434.383 301.018 433.39C302.293 432.397 303.833 431.804 305.445 431.687C307.056 431.57 308.665 431.934 310.07 432.732C311.475 433.53 312.612 434.728 313.337 436.173C314.062 437.618 314.343 439.245 314.144 440.85C313.873 443.001 312.76 444.956 311.049 446.286C309.339 447.617 307.171 448.213 305.022 447.944V447.957ZM308.017 423.998C306.02 423.748 304.142 422.911 302.62 421.593C301.098 420.275 300.001 418.535 299.466 416.592C298.932 414.65 298.985 412.593 299.619 410.681C300.253 408.769 301.438 407.088 303.026 405.85C304.614 404.612 306.533 403.874 308.54 403.727C310.547 403.581 312.552 404.033 314.303 405.027C316.053 406.021 317.47 407.513 318.374 409.312C319.278 411.112 319.628 413.14 319.381 415.139C319.216 416.467 318.791 417.749 318.131 418.913C317.47 420.076 316.587 421.098 315.532 421.92C314.477 422.742 313.271 423.347 311.982 423.702C310.693 424.058 309.347 424.155 308.021 423.989L308.017 423.998ZM329.48 395.398C330.944 394.713 332.577 394.477 334.175 394.721C335.772 394.965 337.261 395.678 338.454 396.769C339.647 397.86 340.489 399.281 340.875 400.852C341.261 402.422 341.173 404.072 340.622 405.593C340.071 407.113 339.082 408.436 337.78 409.394C336.478 410.352 334.921 410.902 333.307 410.974C331.693 411.046 330.093 410.638 328.711 409.8C327.329 408.962 326.226 407.733 325.542 406.268C325.087 405.294 324.828 404.241 324.78 403.167C324.732 402.094 324.896 401.021 325.262 400.011C325.628 399.001 326.189 398.073 326.914 397.28C327.638 396.487 328.512 395.845 329.484 395.39L329.48 395.398ZM337.595 433.258C336.683 434.593 335.396 435.627 333.897 436.23C332.398 436.833 330.754 436.977 329.173 436.645C327.591 436.313 326.144 435.518 325.014 434.363C323.884 433.207 323.121 431.742 322.823 430.153C322.524 428.563 322.703 426.921 323.337 425.433C323.971 423.946 325.032 422.68 326.385 421.796C327.737 420.911 329.322 420.448 330.937 420.465C332.553 420.482 334.127 420.978 335.461 421.891C337.247 423.114 338.476 424.996 338.877 427.125C339.278 429.254 338.818 431.455 337.599 433.245L337.595 433.258Z" fill="#B8B8E8"/>
        </g>
    </g>
    <path d="M351.248 430.398L334.095 429.721L344.678 392.973L360.482 396.092L351.248 430.398Z" fill="url(#paint1_linear)"/>
    <path d="M429.158 387.346C429.158 379.917 426.21 372.792 420.962 367.54C415.714 362.287 408.596 359.336 401.175 359.336H369.379C361.957 359.336 354.839 362.287 349.592 367.54C344.344 372.792 341.396 379.917 341.396 387.346V399.386L359.037 402.062V452.037L422.104 447.856V398.416L429.158 399.963V387.346Z" fill="#E8443C"/>
    <path d="M384.022 370.135C385.063 370.135 386.094 369.923 387.052 369.513C388.009 369.103 388.874 368.502 389.593 367.748C390.312 366.994 390.871 366.101 391.236 365.125C391.6 364.148 391.763 363.107 391.715 362.066L390.946 345.573L376.746 346.957L376.328 362.208C376.299 363.238 376.477 364.263 376.85 365.223C377.224 366.183 377.786 367.058 378.503 367.797C379.22 368.536 380.078 369.124 381.026 369.525C381.974 369.927 382.992 370.134 384.022 370.135V370.135Z" fill="#E7A585"/>
    <path d="M398.143 340.005C398.143 340.52 398.028 341.029 397.807 341.495C397.585 341.96 397.262 342.37 396.862 342.695C396.461 343.019 395.994 343.25 395.493 343.371C394.992 343.491 394.471 343.498 393.967 343.391L393.85 343.362L393.683 343.316L393.495 343.253C393.371 343.207 393.25 343.154 393.131 343.094C392.469 342.76 391.932 342.223 391.599 341.56C391.474 341.66 391.357 341.769 391.248 341.886C390.715 342.466 390.129 342.995 389.498 343.466C387.259 345.139 382.782 344.921 381.145 342.797C380.706 342.201 380.059 341.792 379.332 341.652C378.552 341.523 377.751 341.671 377.068 342.07C375.815 342.768 375.068 342.488 374.587 341.769C374.47 341.564 374.358 341.351 374.249 341.142C373.473 339.584 373.07 337.866 373.071 336.125C373.128 333.179 374.337 330.374 376.438 328.311C378.539 326.248 381.365 325.092 384.308 325.092C387.252 325.092 390.078 326.248 392.179 328.311C394.28 330.374 395.489 333.179 395.545 336.125C395.545 336.309 395.545 336.489 395.545 336.669C396.286 336.859 396.943 337.29 397.413 337.893C397.883 338.497 398.14 339.239 398.143 340.005V340.005Z" fill="#E7A585"/>
    <path d="M393.123 343.09C391.987 344.527 390.517 345.664 388.842 346.403C387.167 347.142 385.337 347.46 383.511 347.329C381.685 347.199 379.919 346.623 378.366 345.653C376.813 344.684 375.52 343.349 374.6 341.765C375.084 342.463 375.811 342.764 377.08 342.066C377.763 341.667 378.564 341.519 379.344 341.648C380.071 341.788 380.718 342.197 381.157 342.793C382.782 344.921 387.259 345.138 389.51 343.462C390.141 342.991 390.727 342.462 391.26 341.882C391.369 341.765 391.486 341.656 391.611 341.556C391.939 342.215 392.469 342.753 393.123 343.09V343.09Z" fill="url(#paint2_linear)"/>
    <path d="M393.978 343.391L392.725 348.562C391.088 354.796 384.176 358.796 377.272 357.496C373.755 356.831 371.717 353.876 371.842 348.683C371.968 343.491 372.983 341.33 373.58 339.486C373.757 340.052 373.979 340.603 374.244 341.133C374.337 341.352 374.45 341.562 374.582 341.76V341.76C375.067 342.458 375.793 342.759 377.063 342.061C377.746 341.662 378.547 341.515 379.327 341.643C380.053 341.784 380.7 342.193 381.139 342.789C382.764 344.917 387.241 345.134 389.493 343.458C390.124 342.986 390.709 342.457 391.243 341.877C391.351 341.76 391.469 341.651 391.593 341.551C391.925 342.213 392.459 342.75 393.118 343.086C393.235 343.148 393.356 343.201 393.481 343.244C393.543 343.269 393.605 343.29 393.669 343.307C393.724 343.326 393.78 343.342 393.836 343.353L393.953 343.382L393.978 343.391Z" fill="#020203"/>
    <path d="M377.031 321.911C380.852 321.413 387.054 322.96 391.411 323.512C393.637 323.796 395.525 324.9 396.005 326.539C396.456 328.098 396.698 333.792 395.474 336.643C394.934 336.515 394.371 336.521 393.833 336.659C393.296 336.798 392.8 337.065 392.388 337.438C391.832 335.903 392.3 332.76 385.781 331.656C383.8 332.279 381.756 332.681 379.687 332.852C376.4 333.27 372.566 331.572 372.194 328.55C371.822 325.527 373.744 322.329 377.031 321.911Z" fill="#020203"/>
    <path d="M405.226 400.327H359.07V401.849H405.226V400.327Z" fill="url(#paint3_linear)"/>
    <path d="M405.226 405.632H359.07V407.154H405.226V405.632Z" fill="url(#paint4_linear)"/>
    <path d="M405.226 410.933H359.07V412.455H405.226V410.933Z" fill="url(#paint5_linear)"/>
    <path d="M405.226 416.238H359.07V417.76H405.226V416.238Z" fill="url(#paint6_linear)"/>
    <path d="M464.5 462.719H398.005V422.396C398.005 410.737 398.736 401.284 410.384 401.284H448.341C452.628 401.284 456.739 402.989 459.77 406.023C462.802 409.057 464.504 413.172 464.504 417.463L464.5 462.719Z" fill="#9595CB"/>
    <path d="M408.004 367.597C408.004 367.597 404.346 368.596 404.663 373.257C404.943 377.195 404.751 398.262 404.663 404.683C404.663 406.485 405.035 408.416 406.359 409.641C407.461 410.661 407.633 411.41 414.637 411.761C425.496 412.304 420.939 388.274 420.939 388.274L408.004 367.597Z" fill="#020202"/>
    <path d="M420.567 401.288H424.259C432.313 401.288 440.037 404.491 445.733 410.192C451.428 415.892 454.627 423.624 454.627 431.686V462.342H390.199V431.686C390.199 427.694 390.985 423.741 392.511 420.053C394.037 416.365 396.274 413.014 399.094 410.192C401.914 407.369 405.261 405.13 408.946 403.602C412.63 402.075 416.579 401.288 420.567 401.288V401.288Z" fill="#FF8888"/>
    <path d="M442.958 428.283H454.101C454.242 428.283 454.377 428.339 454.476 428.438C454.576 428.538 454.632 428.673 454.632 428.814V462.581H442.958V428.3V428.283Z" fill="#FF8888"/>
    <path d="M409.762 392.463C408.676 392.473 407.628 392.065 406.835 391.323C406.041 390.581 405.563 389.562 405.5 388.477C405.436 387.392 405.791 386.324 406.492 385.494C407.193 384.664 408.186 384.136 409.265 384.018C409.265 384.018 409.265 384.018 409.29 384.018C409.315 384.018 409.373 384.098 409.407 384.127L409.49 384.198L409.273 384.227C408.276 384.351 407.362 384.843 406.709 385.608C406.057 386.373 405.714 387.354 405.748 388.359C405.782 389.364 406.191 390.32 406.893 391.038C407.596 391.757 408.542 392.187 409.545 392.242C410.548 392.298 411.535 391.976 412.313 391.34C413.091 390.704 413.603 389.799 413.748 388.804C413.893 387.809 413.661 386.796 413.097 385.963C412.533 385.131 411.679 384.54 410.702 384.307C410.675 384.3 410.651 384.283 410.637 384.259C410.622 384.235 410.618 384.206 410.624 384.179C410.631 384.152 410.648 384.129 410.672 384.114C410.696 384.1 410.725 384.095 410.752 384.102C411.76 384.344 412.644 384.948 413.237 385.799C413.83 386.651 414.091 387.69 413.969 388.721C413.848 389.751 413.353 390.702 412.578 391.391C411.803 392.081 410.803 392.462 409.766 392.463H409.762Z" fill="url(#paint7_linear)"/>
    <path d="M400.203 427.447H388.441V453.605H400.203V427.447Z" fill="url(#paint8_linear)"/>
    <path d="M415.242 405.837C415.242 406.655 415.403 407.466 415.716 408.222C416.029 408.978 416.487 409.666 417.066 410.244C417.644 410.823 418.33 411.282 419.086 411.596C419.841 411.909 420.651 412.07 421.469 412.07H422.371C423.189 412.07 423.999 411.909 424.754 411.596C425.51 411.282 426.196 410.823 426.775 410.244C427.353 409.666 427.812 408.978 428.124 408.222C428.437 407.466 428.598 406.655 428.598 405.837V387.246H415.233V405.837H415.242Z" fill="url(#paint9_linear)"/>
    <path d="M418.52 391.338C425.819 391.338 431.735 385.416 431.735 378.111C431.735 370.806 425.819 364.883 418.52 364.883C411.222 364.883 405.306 370.806 405.306 378.111C405.306 385.416 411.222 391.338 418.52 391.338Z" fill="url(#paint10_linear)"/>
    <path d="M429.005 366.238C431.512 366.238 433.545 364.203 433.545 361.694C433.545 359.184 431.512 357.149 429.005 357.149C426.497 357.149 424.465 359.184 424.465 361.694C424.465 364.203 426.497 366.238 429.005 366.238Z" fill="#523042"/>
    <path d="M406.672 367.927C406.672 367.927 411.329 376.581 420.304 377.58C429.28 378.579 420.768 386.522 420.968 391.226C421.323 399.587 424.627 413.136 438.259 412.472C443.656 412.208 446.759 409.804 448.542 406.999C449.804 404.958 450.443 402.593 450.381 400.194C450.32 397.794 449.56 395.465 448.195 393.492C443.004 385.845 429.973 366.861 427.956 365.598C425.295 363.934 407.006 363.6 406.672 367.927Z" fill="#523042"/>
    <path d="M422.446 392.463C421.361 392.473 420.313 392.065 419.519 391.323C418.726 390.581 418.248 389.562 418.184 388.477C418.12 387.392 418.476 386.324 419.176 385.494C419.877 384.664 420.87 384.136 421.949 384.018C421.949 384.018 421.949 384.018 421.975 384.018C422 384.018 422.058 384.098 422.091 384.127L422.175 384.198L421.958 384.227C420.961 384.351 420.046 384.843 419.394 385.608C418.742 386.373 418.399 387.354 418.433 388.359C418.467 389.364 418.875 390.32 419.578 391.038C420.281 391.757 421.226 392.187 422.229 392.242C423.232 392.298 424.22 391.976 424.998 391.34C425.776 390.704 426.287 389.799 426.432 388.804C426.577 387.809 426.345 386.796 425.782 385.963C425.218 385.131 424.363 384.54 423.386 384.307C423.359 384.3 423.336 384.283 423.321 384.259C423.307 384.235 423.302 384.206 423.309 384.179C423.316 384.152 423.333 384.129 423.357 384.114C423.381 384.1 423.409 384.095 423.436 384.102C424.444 384.344 425.329 384.948 425.922 385.799C426.515 386.651 426.775 387.69 426.654 388.721C426.532 389.751 426.037 390.702 425.263 391.391C424.488 392.081 423.487 392.462 422.451 392.463H422.446Z" fill="url(#paint11_linear)"/>
    <path d="M422.314 416.949C422.593 416.949 422.819 416.723 422.819 416.443C422.819 416.164 422.593 415.937 422.314 415.937C422.035 415.937 421.809 416.164 421.809 416.443C421.809 416.723 422.035 416.949 422.314 416.949Z" fill="white"/>
    <path d="M422.314 421.31C422.593 421.31 422.819 421.083 422.819 420.804C422.819 420.524 422.593 420.298 422.314 420.298C422.035 420.298 421.809 420.524 421.809 420.804C421.809 421.083 422.035 421.31 422.314 421.31Z" fill="white"/>
    <path d="M422.314 425.67C422.593 425.67 422.819 425.443 422.819 425.164C422.819 424.885 422.593 424.658 422.314 424.658C422.035 424.658 421.809 424.885 421.809 425.164C421.809 425.443 422.035 425.67 422.314 425.67Z" fill="white"/>
    <g opacity="0.44">
        <path opacity="0.44" d="M442.958 442.965H400.565V443.726H442.958V442.965Z" fill="url(#paint12_linear)"/>
    </g>
    <g opacity="0.44">
        <path opacity="0.44" d="M442.958 447.836H400.565V448.597H442.958V447.836Z" fill="url(#paint13_linear)"/>
    </g>
    <g opacity="0.44">
        <path opacity="0.44" d="M442.958 452.706H400.565V453.467H442.958V452.706Z" fill="url(#paint14_linear)"/>
    </g>
    <g opacity="0.44">
        <path opacity="0.44" d="M442.958 457.577H400.565V458.337H442.958V457.577Z" fill="url(#paint15_linear)"/>
    </g>
    <path d="M365.607 449.813C366.982 449.811 368.331 449.442 369.516 448.746C370.701 448.05 371.68 447.05 372.352 445.85C373.024 444.65 373.365 443.293 373.34 441.918C373.315 440.542 372.926 439.198 372.211 438.024L349.047 400.055C348.517 399.186 347.822 398.43 347 397.831C346.179 397.231 345.247 396.799 344.259 396.56C343.27 396.32 342.244 396.278 341.24 396.436C340.235 396.593 339.271 396.947 338.403 397.478C337.535 398.008 336.78 398.704 336.181 399.527C335.582 400.349 335.151 401.282 334.911 402.271C334.672 403.26 334.63 404.287 334.788 405.293C334.945 406.298 335.299 407.263 335.828 408.132L358.992 446.101C359.684 447.236 360.655 448.173 361.814 448.824C362.973 449.474 364.279 449.814 365.607 449.813V449.813Z" fill="#273271"/>
    <path d="M339.558 395.686H312.54C304.366 395.686 300.695 403.588 300.97 408.592L307.177 459.596C307.304 460.75 307.854 461.817 308.721 462.589C309.588 463.361 310.711 463.784 311.871 463.776L343.877 463.538C345.058 463.529 346.193 463.075 347.054 462.265C347.915 461.455 348.439 460.349 348.521 459.169L350.588 409.704C351.127 401.941 348.508 395.686 339.558 395.686Z" fill="#273271"/>
    <path d="M337.037 452.953C335.04 452.405 333.115 451.79 331.089 452.367C330.526 452.498 329.956 452.595 329.381 452.656L319.649 450.766L319.984 458.342L329.051 458.254L331.728 458.275H346.283C346.279 456.694 341.923 454.299 337.037 452.953Z" fill="#F2B3A5"/>
    <path d="M320.58 462.342L288.262 462.179C286.327 462.195 284.453 461.507 282.987 460.244C281.793 459.178 280.963 457.766 280.612 456.204C280.261 454.642 280.408 453.009 281.032 451.535L302.053 402.844C302.821 401.074 304.245 399.672 306.025 398.933C307.805 398.193 309.802 398.175 311.596 398.88C312.521 399.244 313.364 399.789 314.075 400.484C314.786 401.179 315.351 402.009 315.736 402.926C316.121 403.843 316.318 404.828 316.317 405.823C316.315 406.817 316.115 407.802 315.727 408.717L299.568 446.995L320.747 450.712L320.58 462.342Z" fill="#273271"/>
    <path d="M355.175 462.338H323.571V462.104C323.571 461.09 323.973 460.117 324.69 459.399C325.407 458.682 326.379 458.279 327.392 458.279H355.175V462.338Z" fill="#7F8080"/>
    <path d="M352.635 462.338H400.273C401.608 462.339 402.907 461.901 403.971 461.092C405.034 460.284 405.804 459.149 406.162 457.861L415.451 424.453C415.642 423.765 415.671 423.041 415.537 422.339C415.403 421.638 415.108 420.976 414.676 420.407C414.244 419.838 413.687 419.377 413.048 419.059C412.408 418.741 411.704 418.576 410.99 418.575H367.846C366.955 418.576 366.09 418.871 365.385 419.416C364.68 419.96 364.175 420.723 363.949 421.585L352.635 462.338Z" fill="#CCC9C5"/>
    <path d="M385.989 446.548C388.478 446.548 390.495 444.528 390.495 442.037C390.495 439.546 388.478 437.526 385.989 437.526C383.5 437.526 381.482 439.546 381.482 442.037C381.482 444.528 383.5 446.548 385.989 446.548Z" fill="white"/>
    <path d="M342.708 391.807L311.074 392.413L312.478 376.05C312.607 373.949 312.99 371.871 313.618 369.863C315.927 363.458 321.098 358.742 327.451 358.75C335.048 358.817 340.778 364.733 341.651 373.579C342.161 378.583 342.708 391.807 342.708 391.807Z" fill="#1A1D23"/>
    <path d="M321.369 380.44H334.095V398.091C334.095 399.683 333.464 401.21 332.339 402.336C331.214 403.461 329.689 404.094 328.098 404.094H327.363C325.772 404.094 324.247 403.461 323.122 402.336C321.997 401.21 321.365 399.683 321.365 398.091V380.44H321.369Z" fill="#F2B3A5"/>
    <path d="M337.641 380.799L334.584 385.916H340.323L337.641 380.799Z" fill="#FF8888"/>
    <path d="M328.223 387.584C334.748 387.584 340.038 382.289 340.038 375.757C340.038 369.226 334.748 363.93 328.223 363.93C321.697 363.93 316.407 369.226 316.407 375.757C316.407 382.289 321.697 387.584 328.223 387.584Z" fill="url(#paint16_linear)"/>
    <path d="M340.31 373.119C335.908 372.367 333.974 371.84 328.837 371.84L328.95 363.261L338.527 364.553L340.31 373.119Z" fill="#1A1D23"/>
    <path d="M321.515 364.298C320.037 364.984 317.815 367.258 317.051 368.608C316.286 369.959 315.543 372.868 315.259 374.344C314.628 377.618 314.231 387.643 314.231 387.643L320.338 387.977C320.338 387.977 319.799 383.408 319.861 381.886C319.861 381.69 319.887 381.468 319.903 381.209C318.925 380.908 318.1 380.241 317.599 379.347C317.099 378.453 316.962 377.401 317.217 376.408C317.472 375.416 318.099 374.56 318.968 374.018C319.837 373.477 320.881 373.291 321.883 373.5C323.833 372.948 326.477 370.72 327.313 369.215C328.035 367.927 329.877 363.893 329.877 363.893C329.877 363.893 323.537 363.366 321.515 364.298Z" fill="#1A1D23"/>
    <path d="M318.93 381.272C319.571 381.272 320.091 380.751 320.091 380.11C320.091 379.468 319.571 378.947 318.93 378.947C318.288 378.947 317.769 379.468 317.769 380.11C317.769 380.751 318.288 381.272 318.93 381.272Z" fill="#FF8888"/>
    <path d="M318.93 380.444L315.868 385.561H321.611L318.93 380.444Z" fill="#FF8888"/>
    <g opacity="0.72">
        <path opacity="0.72" d="M322.175 418.58C322.62 418.58 322.981 418.219 322.981 417.773C322.981 417.328 322.62 416.966 322.175 416.966C321.73 416.966 321.369 417.328 321.369 417.773C321.369 418.219 321.73 418.58 322.175 418.58Z" fill="white"/>
        <path opacity="0.72" d="M311.888 437.56C312.333 437.56 312.694 437.199 312.694 436.753C312.694 436.308 312.333 435.946 311.888 435.946C311.443 435.946 311.082 436.308 311.082 436.753C311.082 437.199 311.443 437.56 311.888 437.56Z" fill="white"/>
        <path opacity="0.72" d="M341.011 428.241C341.456 428.241 341.817 427.88 341.817 427.434C341.817 426.989 341.456 426.628 341.011 426.628C340.566 426.628 340.205 426.989 340.205 427.434C340.205 427.88 340.566 428.241 341.011 428.241Z" fill="white"/>
        <path opacity="0.72" d="M327.408 434.834C327.853 434.834 328.214 434.473 328.214 434.027C328.214 433.582 327.853 433.22 327.408 433.22C326.962 433.22 326.602 433.582 326.602 434.027C326.602 434.473 326.962 434.834 327.408 434.834Z" fill="white"/>
        <path opacity="0.72" d="M341.817 449.203C342.262 449.203 342.623 448.842 342.623 448.396C342.623 447.951 342.262 447.589 341.817 447.589C341.372 447.589 341.011 447.951 341.011 448.396C341.011 448.842 341.372 449.203 341.817 449.203Z" fill="white"/>
        <path opacity="0.72" d="M300.206 427.815C300.652 427.815 301.013 427.453 301.013 427.008C301.013 426.562 300.652 426.201 300.206 426.201C299.761 426.201 299.4 426.562 299.4 427.008C299.4 427.453 299.761 427.815 300.206 427.815Z" fill="white"/>
        <path opacity="0.72" d="M306.922 409.044C307.367 409.044 307.728 408.683 307.728 408.237C307.728 407.791 307.367 407.43 306.922 407.43C306.477 407.43 306.116 407.791 306.116 408.237C306.116 408.683 306.477 409.044 306.922 409.044Z" fill="white"/>
        <path opacity="0.72" d="M341.817 406.301C342.262 406.301 342.623 405.94 342.623 405.495C342.623 405.049 342.262 404.688 341.817 404.688C341.372 404.688 341.011 405.049 341.011 405.495C341.011 405.94 341.372 406.301 341.817 406.301Z" fill="white"/>
        <path opacity="0.72" d="M354.828 419.387C355.273 419.387 355.634 419.025 355.634 418.58C355.634 418.134 355.273 417.773 354.828 417.773C354.382 417.773 354.021 418.134 354.021 418.58C354.021 419.025 354.382 419.387 354.828 419.387Z" fill="white"/>
        <path opacity="0.72" d="M288.294 441.264C288.74 441.264 289.1 440.903 289.1 440.457C289.1 440.012 288.74 439.65 288.294 439.65C287.849 439.65 287.488 440.012 287.488 440.457C287.488 440.903 287.849 441.264 288.294 441.264Z" fill="white"/>
        <path opacity="0.72" d="M297.712 456.695C298.158 456.695 298.518 456.333 298.518 455.888C298.518 455.442 298.158 455.081 297.712 455.081C297.267 455.081 296.906 455.442 296.906 455.888C296.906 456.333 297.267 456.695 297.712 456.695Z" fill="white"/>
        <path opacity="0.72" d="M310.276 452.276C310.721 452.276 311.082 451.915 311.082 451.469C311.082 451.023 310.721 450.662 310.276 450.662C309.831 450.662 309.47 451.023 309.47 451.469C309.47 451.915 309.831 452.276 310.276 452.276Z" fill="white"/>
    </g>
    <path d="M260.454 467.886H487.66C488.988 467.886 490.065 466.632 490.065 465.11C490.065 463.576 488.988 462.334 487.66 462.334H260.454C259.126 462.334 258.048 463.588 258.048 465.11H258.031C258.031 466.644 259.126 467.886 260.454 467.886Z" fill="#9595CB"/>
    <path d="M466.744 323.123H435.586C431.861 323.123 428.837 326.56 428.837 330.799V341.631C428.837 345.87 431.857 349.306 435.586 349.306H443.025L443.062 355.887L450.05 349.231C450.559 349.156 468.64 349.014 469.108 348.813C471.668 347.726 473.493 344.921 473.493 341.631V330.794C473.493 326.555 470.469 323.123 466.744 323.123Z" fill="#F6BC73"/>
    <path d="M261.593 352.12H296.497C298.402 352.12 299.947 354.081 299.947 356.502V373.571C299.947 375.992 298.402 377.952 296.497 377.952H291.778L292.237 385.331L282.159 377.952H261.593C259.689 377.952 258.144 375.992 258.144 373.571V356.502C258.144 354.102 259.701 352.12 261.593 352.12Z" fill="#F6BC73"/>
    <path opacity="0.47" d="M295.645 368.943H262.529V370.423H295.645V368.943Z" fill="url(#paint17_linear)"/>
    <path opacity="0.47" d="M295.645 364.118H262.529V365.598H295.645V364.118Z" fill="url(#paint18_linear)"/>
    <path opacity="0.47" d="M295.645 359.294H262.529V360.774H295.645V359.294Z" fill="url(#paint19_linear)"/>
    <path opacity="0.39" d="M427.228 292.136C427.227 289.372 426.518 286.655 425.169 284.244C423.82 281.832 421.876 279.807 419.523 278.361C417.17 276.916 414.485 276.098 411.727 275.986C408.968 275.874 406.226 276.472 403.764 277.723C401.302 278.973 399.201 280.834 397.661 283.129C396.122 285.423 395.196 288.074 394.971 290.829C394.747 293.583 395.231 296.35 396.379 298.863C397.526 301.377 399.298 303.555 401.525 305.188C402.496 305.885 403.289 306.801 403.839 307.863C404.389 308.924 404.681 310.1 404.691 311.296V314.503H417.058V311.626C417.049 310.418 417.332 309.226 417.884 308.152C418.437 307.078 419.241 306.154 420.228 305.46C422.388 303.975 424.155 301.986 425.374 299.665C426.594 297.343 427.23 294.759 427.228 292.136V292.136Z" fill="#E1E1F5"/>
    <path d="M417.1 314.498H404.245C403.83 314.498 403.493 314.835 403.493 315.251V315.343C403.493 315.758 403.83 316.095 404.245 316.095H417.1C417.516 316.095 417.852 315.758 417.852 315.343V315.251C417.852 314.835 417.516 314.498 417.1 314.498Z" fill="url(#paint20_linear)"/>
    <path d="M417.1 316.096H404.245C403.83 316.096 403.493 316.433 403.493 316.848V316.94C403.493 317.356 403.83 317.693 404.245 317.693H417.1C417.516 317.693 417.852 317.356 417.852 316.94V316.848C417.852 316.433 417.516 316.096 417.1 316.096Z" fill="url(#paint21_linear)"/>
    <path d="M417.1 317.693H404.245C403.83 317.693 403.493 318.03 403.493 318.445V318.537C403.493 318.953 403.83 319.29 404.245 319.29H417.1C417.516 319.29 417.852 318.953 417.852 318.537V318.445C417.852 318.03 417.516 317.693 417.1 317.693Z" fill="url(#paint22_linear)"/>
    <path d="M417.1 319.289H404.245C403.83 319.289 403.493 319.626 403.493 320.042V320.134C403.493 320.55 403.83 320.886 404.245 320.886H417.1C417.516 320.886 417.852 320.55 417.852 320.134V320.042C417.852 319.626 417.516 319.289 417.1 319.289Z" fill="url(#paint23_linear)"/>
    <path d="M404.333 321.008H417.013C417.13 321.008 417.241 321.054 417.324 321.137C417.406 321.219 417.452 321.331 417.452 321.447V321.698C417.452 322.679 417.063 323.62 416.369 324.314C415.676 325.008 414.736 325.398 413.756 325.398H407.587C406.607 325.398 405.666 325.008 404.973 324.314C404.28 323.62 403.891 322.679 403.891 321.698V321.447C403.891 321.389 403.902 321.332 403.924 321.278C403.947 321.224 403.979 321.176 404.021 321.135C404.062 321.094 404.111 321.062 404.164 321.04C404.218 321.018 404.275 321.007 404.333 321.008V321.008Z" fill="url(#paint24_linear)"/>
    <g opacity="0.56">
        <path opacity="0.55" d="M396.431 278.143C396.388 278.143 396.344 278.134 396.304 278.117C396.264 278.1 396.228 278.075 396.197 278.043L393.203 274.962C393.173 274.931 393.149 274.895 393.134 274.855C393.118 274.815 393.11 274.773 393.11 274.73C393.112 274.643 393.147 274.56 393.209 274.5C393.271 274.44 393.355 274.406 393.441 274.407C393.528 274.409 393.61 274.444 393.671 274.506L396.665 277.596C396.711 277.642 396.742 277.7 396.754 277.763C396.766 277.827 396.76 277.893 396.734 277.952C396.709 278.012 396.667 278.063 396.613 278.098C396.559 278.134 396.496 278.152 396.431 278.152V278.143Z" fill="url(#paint25_linear)"/>
        <path opacity="0.55" d="M427.212 310.849C427.167 310.849 427.122 310.84 427.08 310.822C427.038 310.804 427.001 310.778 426.97 310.744L424.084 307.592C424.025 307.528 423.994 307.443 423.998 307.356C424.002 307.269 424.041 307.187 424.105 307.128C424.169 307.069 424.254 307.038 424.341 307.042C424.428 307.046 424.51 307.085 424.568 307.149L427.454 310.301C427.498 310.348 427.526 310.406 427.537 310.469C427.547 310.532 427.539 310.596 427.513 310.655C427.488 310.713 427.445 310.762 427.392 310.797C427.338 310.831 427.276 310.849 427.212 310.849V310.849Z" fill="url(#paint26_linear)"/>
        <path opacity="0.55" d="M390.993 287.383C390.964 287.387 390.935 287.387 390.905 287.383L386.796 286.208C386.754 286.196 386.716 286.177 386.682 286.15C386.648 286.123 386.62 286.09 386.599 286.052C386.578 286.015 386.565 285.973 386.56 285.93C386.555 285.887 386.558 285.844 386.57 285.803C386.582 285.761 386.602 285.723 386.629 285.689C386.655 285.655 386.688 285.627 386.726 285.606C386.764 285.585 386.805 285.572 386.848 285.567C386.891 285.562 386.934 285.565 386.975 285.577L391.085 286.739C391.165 286.757 391.235 286.804 391.281 286.871C391.328 286.938 391.347 287.02 391.336 287.101C391.325 287.182 391.284 287.256 391.222 287.308C391.159 287.36 391.079 287.387 390.997 287.383H390.993Z" fill="url(#paint27_linear)"/>
        <path opacity="0.55" d="M433.99 300.305C433.957 300.31 433.923 300.31 433.89 300.305L429.818 299.022C429.777 299.009 429.739 298.988 429.706 298.96C429.673 298.932 429.645 298.899 429.625 298.86C429.605 298.822 429.593 298.78 429.589 298.737C429.585 298.694 429.59 298.651 429.603 298.61C429.616 298.569 429.637 298.53 429.664 298.497C429.692 298.464 429.726 298.437 429.764 298.417C429.802 298.397 429.844 298.385 429.887 298.381C429.93 298.377 429.973 298.382 430.014 298.395L434.086 299.678C434.163 299.7 434.229 299.749 434.272 299.816C434.315 299.883 434.332 299.964 434.32 300.042C434.307 300.121 434.266 300.193 434.205 300.243C434.144 300.294 434.066 300.32 433.986 300.318L433.99 300.305Z" fill="url(#paint28_linear)"/>
        <path opacity="0.55" d="M386.858 299.101C386.778 299.103 386.7 299.074 386.639 299.021C386.578 298.969 386.539 298.895 386.529 298.815C386.519 298.735 386.539 298.654 386.585 298.588C386.632 298.522 386.701 298.475 386.779 298.457L390.918 297.408C391.002 297.387 391.091 297.4 391.166 297.445C391.24 297.49 391.294 297.562 391.315 297.646C391.336 297.731 391.323 297.82 391.278 297.894C391.233 297.969 391.161 298.022 391.077 298.043L386.938 299.093L386.858 299.101Z" fill="url(#paint29_linear)"/>
        <path opacity="0.55" d="M430.524 288.658C430.44 288.665 430.356 288.638 430.291 288.584C430.226 288.53 430.184 288.453 430.175 288.369C430.166 288.284 430.189 288.2 430.241 288.133C430.294 288.066 430.369 288.022 430.453 288.01L434.63 287.086C434.672 287.077 434.715 287.076 434.758 287.083C434.8 287.091 434.84 287.106 434.877 287.13C434.913 287.153 434.944 287.183 434.969 287.218C434.994 287.253 435.011 287.293 435.02 287.335C435.03 287.377 435.031 287.42 435.023 287.463C435.016 287.505 435 287.546 434.977 287.582C434.954 287.618 434.924 287.65 434.889 287.674C434.854 287.699 434.814 287.716 434.772 287.726L430.595 288.65L430.524 288.658Z" fill="url(#paint30_linear)"/>
        <path opacity="0.55" d="M393.274 310.159C393.208 310.16 393.143 310.142 393.088 310.106C393.032 310.069 392.989 310.017 392.965 309.956C392.94 309.895 392.934 309.827 392.948 309.763C392.962 309.698 392.996 309.64 393.044 309.595L396.105 306.614C396.136 306.584 396.172 306.56 396.212 306.544C396.252 306.529 396.295 306.521 396.337 306.521C396.38 306.522 396.423 306.531 396.462 306.548C396.501 306.565 396.537 306.589 396.567 306.62C396.597 306.651 396.62 306.687 396.636 306.727C396.652 306.767 396.66 306.809 396.659 306.852C396.659 306.895 396.65 306.938 396.633 306.977C396.616 307.016 396.591 307.052 396.561 307.082L393.499 310.063C393.439 310.123 393.358 310.157 393.274 310.159V310.159Z" fill="url(#paint31_linear)"/>
        <path opacity="0.55" d="M425.856 279.268C425.789 279.269 425.725 279.25 425.67 279.212C425.615 279.175 425.573 279.122 425.549 279.061C425.525 278.999 425.52 278.931 425.535 278.867C425.551 278.802 425.585 278.744 425.634 278.7L428.783 275.811C428.848 275.752 428.933 275.721 429.02 275.725C429.107 275.729 429.188 275.768 429.247 275.832C429.306 275.896 429.337 275.981 429.333 276.068C429.329 276.155 429.29 276.237 429.226 276.296L426.077 279.185C426.016 279.239 425.937 279.269 425.856 279.268V279.268Z" fill="url(#paint32_linear)"/>
        <path opacity="0.55" d="M417.055 273.415C417.004 273.416 416.954 273.404 416.909 273.381C416.864 273.358 416.824 273.326 416.794 273.285C416.763 273.244 416.743 273.197 416.734 273.147C416.725 273.097 416.727 273.046 416.742 272.997L418.024 268.921C418.037 268.88 418.058 268.842 418.085 268.809C418.113 268.776 418.147 268.748 418.185 268.728C418.223 268.708 418.265 268.696 418.308 268.692C418.351 268.688 418.394 268.693 418.435 268.706C418.476 268.719 418.515 268.74 418.548 268.767C418.581 268.795 418.608 268.829 418.628 268.867C418.648 268.905 418.66 268.947 418.664 268.99C418.668 269.033 418.663 269.077 418.65 269.118L417.368 273.194C417.346 273.259 417.304 273.316 417.248 273.356C417.191 273.395 417.124 273.416 417.055 273.415V273.415Z" fill="url(#paint33_linear)"/>
        <path opacity="0.55" d="M406.405 272.809C406.331 272.809 406.259 272.784 406.201 272.737C406.144 272.691 406.103 272.627 406.087 272.554L405.16 268.399C405.151 268.357 405.15 268.313 405.157 268.271C405.165 268.229 405.18 268.188 405.204 268.152C405.227 268.115 405.257 268.084 405.292 268.059C405.327 268.035 405.367 268.017 405.409 268.008C405.451 267.998 405.494 267.997 405.536 268.005C405.579 268.012 405.619 268.028 405.655 268.051C405.692 268.074 405.723 268.104 405.748 268.14C405.772 268.175 405.79 268.215 405.799 268.257L406.722 272.437C406.732 272.479 406.733 272.523 406.726 272.566C406.719 272.609 406.703 272.65 406.679 272.686C406.656 272.723 406.626 272.755 406.59 272.779C406.554 272.804 406.514 272.821 406.472 272.83L406.405 272.809Z" fill="url(#paint34_linear)"/>
    </g>
    <path opacity="0.55" d="M409.884 314.294H408.806C408.71 312.73 408.618 311.2 408.526 309.666C408.313 306.129 408.109 302.592 407.904 299.055C407.883 298.637 407.699 298.495 407.349 298.311C406.483 297.899 405.67 297.386 404.926 296.781C404.538 296.421 404.249 295.967 404.088 295.462C403.927 294.957 403.899 294.419 404.007 293.901C404.085 293.349 404.366 292.846 404.794 292.491C405.223 292.136 405.769 291.954 406.325 291.982C406.87 291.945 407.409 292.114 407.836 292.455C408.263 292.796 408.546 293.285 408.631 293.825C408.789 294.912 408.831 296.016 408.886 297.111C408.886 297.529 409.011 297.726 409.445 297.722C410.281 297.722 411.153 297.722 412.005 297.722C412.482 297.722 412.636 297.546 412.649 297.057C412.678 296.003 412.749 294.967 412.874 293.901C412.916 293.468 413.092 293.058 413.377 292.73C413.662 292.402 414.043 292.171 414.465 292.069C414.886 291.925 415.338 291.903 415.77 292.007C416.202 292.111 416.596 292.335 416.905 292.655C417.686 293.453 417.706 294.427 417.393 295.426C416.917 296.957 415.723 297.759 414.319 298.273C414.103 298.32 413.911 298.443 413.778 298.619C413.644 298.796 413.579 299.014 413.593 299.235C413.367 303.453 413.112 307.672 412.862 311.89C412.816 312.676 412.757 313.466 412.703 314.289H411.642L412.532 298.821H408.994L409.884 314.294ZM413.718 297.245C415.338 296.919 416.52 295.61 416.466 294.268C416.468 293.957 416.354 293.656 416.146 293.424C415.938 293.193 415.652 293.046 415.343 293.014C415.185 292.987 415.023 292.991 414.867 293.027C414.711 293.063 414.563 293.129 414.433 293.222C414.303 293.316 414.192 293.434 414.108 293.571C414.024 293.707 413.968 293.859 413.943 294.018C413.818 295.1 413.789 296.171 413.718 297.245ZM407.808 297.274C407.737 296.183 407.699 295.159 407.595 294.139C407.582 293.974 407.535 293.813 407.457 293.667C407.38 293.52 407.273 293.391 407.144 293.287C407.015 293.184 406.867 293.107 406.707 293.063C406.547 293.019 406.381 293.008 406.217 293.031C405.886 293.055 405.577 293.209 405.36 293.459C405.142 293.71 405.033 294.037 405.056 294.369C405.047 295.656 406.104 296.798 407.808 297.283V297.274Z" fill="white"/>
    <path d="M471.801 445.269H463.628C463.628 445.269 460.32 448.985 459.192 450.202C458.592 450.832 458.204 451.634 458.081 452.496C457.958 453.358 458.107 454.237 458.507 455.01L462.392 462.271H472.996L476.88 455.01C477.284 454.238 477.437 453.36 477.318 452.497C477.199 451.635 476.814 450.831 476.216 450.198C475.109 449.002 471.801 445.269 471.801 445.269Z" fill="#F59E35"/>
    <path d="M473.597 439.257C473.517 439.088 473.405 438.937 473.267 438.811C473.128 438.686 472.967 438.589 472.791 438.526C472.615 438.463 472.429 438.435 472.243 438.445C472.056 438.454 471.874 438.5 471.705 438.58L470.753 439.031V438.053C470.753 437.252 470.435 436.485 469.869 435.919C469.304 435.353 468.537 435.035 467.737 435.035C466.937 435.035 466.17 435.353 465.605 435.919C465.039 436.485 464.722 437.252 464.722 438.053V445.265H470.753V442.175L472.92 441.147C473.26 440.985 473.522 440.696 473.649 440.342C473.776 439.988 473.757 439.597 473.597 439.257V439.257Z" fill="#133E2E"/>
    <path d="M462.458 450.143C462.633 450.143 462.775 450.001 462.775 449.825C462.775 449.65 462.633 449.508 462.458 449.508C462.283 449.508 462.141 449.65 462.141 449.825C462.141 450.001 462.283 450.143 462.458 450.143Z" fill="#840202"/>
    <path d="M464.722 460.164C464.897 460.164 465.039 460.022 465.039 459.847C465.039 459.671 464.897 459.529 464.722 459.529C464.546 459.529 464.404 459.671 464.404 459.847C464.404 460.022 464.546 460.164 464.722 460.164Z" fill="#840202"/>
    <path d="M465.286 449.027C465.597 449.027 465.849 448.774 465.849 448.463C465.849 448.151 465.597 447.898 465.286 447.898C464.974 447.898 464.722 448.151 464.722 448.463C464.722 448.774 464.974 449.027 465.286 449.027Z" fill="#840202"/>
    <path d="M472.933 453.086C473.244 453.086 473.497 452.834 473.497 452.522C473.497 452.21 473.244 451.958 472.933 451.958C472.622 451.958 472.369 452.21 472.369 452.522C472.369 452.834 472.622 453.086 472.933 453.086Z" fill="#840202"/>
    <path d="M471.208 457.146C471.473 457.146 471.688 456.931 471.688 456.665C471.688 456.4 471.473 456.184 471.208 456.184C470.943 456.184 470.728 456.4 470.728 456.665C470.728 456.931 470.943 457.146 471.208 457.146Z" fill="#840202"/>
    <path d="M461.894 456.017C462.205 456.017 462.458 455.765 462.458 455.453C462.458 455.141 462.205 454.889 461.894 454.889C461.583 454.889 461.33 455.141 461.33 455.453C461.33 455.765 461.583 456.017 461.894 456.017Z" fill="#840202"/>
    <path d="M465.536 454.086C465.711 454.086 465.854 453.943 465.854 453.768C465.854 453.592 465.711 453.45 465.536 453.45C465.361 453.45 465.219 453.592 465.219 453.768C465.219 453.943 465.361 454.086 465.536 454.086Z" fill="#840202"/>
    <path d="M473.251 450.143C473.426 450.143 473.568 450.001 473.568 449.825C473.568 449.65 473.426 449.508 473.251 449.508C473.076 449.508 472.934 449.65 472.934 449.825C472.934 450.001 473.076 450.143 473.251 450.143Z" fill="#840202"/>
    <path d="M466.547 458.275C466.722 458.275 466.864 458.133 466.864 457.957C466.864 457.782 466.722 457.639 466.547 457.639C466.372 457.639 466.229 457.782 466.229 457.957C466.229 458.133 466.372 458.275 466.547 458.275Z" fill="#840202"/>
    <path d="M468.029 457.217C468.205 457.217 468.347 457.075 468.347 456.899C468.347 456.724 468.205 456.582 468.029 456.582C467.854 456.582 467.712 456.724 467.712 456.899C467.712 457.075 467.854 457.217 468.029 457.217Z" fill="#840202"/>
    <path d="M471.852 461.498C472.027 461.498 472.169 461.356 472.169 461.18C472.169 461.005 472.027 460.863 471.852 460.863C471.676 460.863 471.534 461.005 471.534 461.18C471.534 461.356 471.676 461.498 471.852 461.498Z" fill="#840202"/>
    <path d="M470.093 449.826C470.268 449.826 470.41 449.683 470.41 449.508C470.41 449.332 470.268 449.19 470.093 449.19C469.918 449.19 469.775 449.332 469.775 449.508C469.775 449.683 469.918 449.826 470.093 449.826Z" fill="#840202"/>
    <path d="M469.775 453.404C469.951 453.404 470.093 453.262 470.093 453.087C470.093 452.911 469.951 452.769 469.775 452.769C469.6 452.769 469.458 452.911 469.458 453.087C469.458 453.262 469.6 453.404 469.775 453.404Z" fill="#840202"/>
    <path d="M469.775 460.482C469.951 460.482 470.093 460.34 470.093 460.164C470.093 459.989 469.951 459.847 469.775 459.847C469.6 459.847 469.458 459.989 469.458 460.164C469.458 460.34 469.6 460.482 469.775 460.482Z" fill="#840202"/>
    <path d="M473.497 456.335C473.672 456.335 473.815 456.193 473.815 456.017C473.815 455.842 473.672 455.7 473.497 455.7C473.322 455.7 473.18 455.842 473.18 456.017C473.18 456.193 473.322 456.335 473.497 456.335Z" fill="#840202"/>
    <path d="M467.662 436.276C468.297 436.276 468.811 435.698 468.811 434.984C468.811 434.271 468.297 433.693 467.662 433.693C467.028 433.693 466.514 434.271 466.514 434.984C466.514 435.698 467.028 436.276 467.662 436.276Z" fill="#E8443C"/>
    <path d="M470.857 436.138C470.987 435.662 470.75 435.181 470.327 435.066C469.905 434.95 469.456 435.242 469.326 435.719C469.196 436.195 469.433 436.676 469.855 436.791C470.278 436.907 470.726 436.615 470.857 436.138Z" fill="#E8443C"/>
    <path d="M441.107 329.377H461.454V342.422H441.107V329.377Z" fill="#B8B8E8"/>
    <path d="M441.107 329.377H461.454L451.28 338.612L441.107 329.377Z" fill="#9595CB"/>
    <defs>
        <linearGradient id="paint0_linear" x1="303.833" y1="413.881" x2="314.726" y2="413.881" gradientUnits="userSpaceOnUse">
            <stop offset="0.03" stop-color="#B4BFEB"/>
            <stop offset="0.37" stop-color="#C3CDF0"/>
            <stop offset="1" stop-color="#E9EFFD"/>
        </linearGradient>
        <linearGradient id="paint1_linear" x1="344.504" y1="390.738" x2="349.702" y2="437.232" gradientUnits="userSpaceOnUse">
            <stop offset="0.07" stop-color="#E9DDCC"/>
            <stop offset="0.8" stop-color="#E58056"/>
        </linearGradient>
        <linearGradient id="paint2_linear" x1="6124.37" y1="1444.08" x2="6119.75" y2="1361.65" gradientUnits="userSpaceOnUse">
            <stop offset="0.07" stop-color="#EBDECE"/>
            <stop offset="0.8" stop-color="#E58056"/>
        </linearGradient>
        <linearGradient id="paint3_linear" x1="359.07" y1="401.088" x2="405.222" y2="401.088" gradientUnits="userSpaceOnUse">
            <stop stop-color="white"/>
            <stop offset="1" stop-color="white"/>
        </linearGradient>
        <linearGradient id="paint4_linear" x1="11848.1" y1="909.451" x2="16948.2" y2="909.451" gradientUnits="userSpaceOnUse">
            <stop stop-color="white"/>
            <stop offset="1" stop-color="white"/>
        </linearGradient>
        <linearGradient id="paint5_linear" x1="11848.1" y1="934.044" x2="16948.2" y2="934.044" gradientUnits="userSpaceOnUse">
            <stop stop-color="white"/>
            <stop offset="1" stop-color="white"/>
        </linearGradient>
        <linearGradient id="paint6_linear" x1="11848.1" y1="958.661" x2="16948.2" y2="958.661" gradientUnits="userSpaceOnUse">
            <stop stop-color="white"/>
            <stop offset="1" stop-color="white"/>
        </linearGradient>
        <linearGradient id="paint7_linear" x1="405.527" y1="388.241" x2="413.993" y2="388.241" gradientUnits="userSpaceOnUse">
            <stop stop-color="#F7F7F7"/>
            <stop offset="0.03" stop-color="#C7C7C6"/>
            <stop offset="0.06" stop-color="#9F9F9E"/>
            <stop offset="0.08" stop-color="#80807F"/>
            <stop offset="0.11" stop-color="#6A6A68"/>
            <stop offset="0.13" stop-color="#5D5D5B"/>
            <stop offset="0.16" stop-color="#585856"/>
            <stop offset="0.2" stop-color="#696968"/>
            <stop offset="0.37" stop-color="#A9A9A8"/>
            <stop offset="0.51" stop-color="#D8D8D7"/>
            <stop offset="0.62" stop-color="#F4F4F4"/>
            <stop offset="0.68" stop-color="white"/>
            <stop offset="0.7" stop-color="#D4D4D3"/>
            <stop offset="0.74" stop-color="#A8A8A7"/>
            <stop offset="0.77" stop-color="#858584"/>
            <stop offset="0.8" stop-color="#6C6C6A"/>
            <stop offset="0.82" stop-color="#5D5D5B"/>
            <stop offset="0.84" stop-color="#585856"/>
        </linearGradient>
        <linearGradient id="paint8_linear" x1="4157.57" y1="10249.3" x2="5278.9" y2="11711.2" gradientUnits="userSpaceOnUse">
            <stop offset="0.07" stop-color="#E9DDCC"/>
            <stop offset="0.8" stop-color="#E58056"/>
        </linearGradient>
        <linearGradient id="paint9_linear" x1="5754.72" y1="8971.84" x2="5747.8" y2="7761.67" gradientUnits="userSpaceOnUse">
            <stop offset="0.07" stop-color="#E9DDCC"/>
            <stop offset="0.8" stop-color="#E58056"/>
        </linearGradient>
        <linearGradient id="paint10_linear" x1="10748.7" y1="8197.95" x2="10744.2" y2="6683.14" gradientUnits="userSpaceOnUse">
            <stop offset="0.07" stop-color="#E9DDCC"/>
            <stop offset="0.8" stop-color="#E58056"/>
        </linearGradient>
        <linearGradient id="paint11_linear" x1="3740.13" y1="2813.33" x2="3912.55" y2="2813.33" gradientUnits="userSpaceOnUse">
            <stop stop-color="#F7F7F7"/>
            <stop offset="0.03" stop-color="#C7C7C6"/>
            <stop offset="0.06" stop-color="#9F9F9E"/>
            <stop offset="0.08" stop-color="#80807F"/>
            <stop offset="0.11" stop-color="#6A6A68"/>
            <stop offset="0.13" stop-color="#5D5D5B"/>
            <stop offset="0.16" stop-color="#585856"/>
            <stop offset="0.2" stop-color="#696968"/>
            <stop offset="0.37" stop-color="#A9A9A8"/>
            <stop offset="0.51" stop-color="#D8D8D7"/>
            <stop offset="0.62" stop-color="#F4F4F4"/>
            <stop offset="0.68" stop-color="white"/>
            <stop offset="0.7" stop-color="#D4D4D3"/>
            <stop offset="0.74" stop-color="#A8A8A7"/>
            <stop offset="0.77" stop-color="#858584"/>
            <stop offset="0.8" stop-color="#6C6C6A"/>
            <stop offset="0.82" stop-color="#5D5D5B"/>
            <stop offset="0.84" stop-color="#585856"/>
        </linearGradient>
        <linearGradient id="paint12_linear" x1="15164.5" y1="762.126" x2="19467.4" y2="762.126" gradientUnits="userSpaceOnUse">
            <stop stop-color="white"/>
            <stop offset="1" stop-color="white"/>
        </linearGradient>
        <linearGradient id="paint13_linear" x1="15164.5" y1="775.868" x2="19467.4" y2="775.868" gradientUnits="userSpaceOnUse">
            <stop stop-color="white"/>
            <stop offset="1" stop-color="white"/>
        </linearGradient>
        <linearGradient id="paint14_linear" x1="15164.5" y1="789.588" x2="19467.4" y2="789.588" gradientUnits="userSpaceOnUse">
            <stop stop-color="white"/>
            <stop offset="1" stop-color="white"/>
        </linearGradient>
        <linearGradient id="paint15_linear" x1="15164.5" y1="803.323" x2="19467.4" y2="803.323" gradientUnits="userSpaceOnUse">
            <stop stop-color="white"/>
            <stop offset="1" stop-color="white"/>
        </linearGradient>
        <linearGradient id="paint16_linear" x1="36854.1" y1="27042.1" x2="37448.4" y2="27042.1" gradientUnits="userSpaceOnUse">
            <stop stop-color="#F2B3A5"/>
            <stop offset="0.32" stop-color="#F2B5A8"/>
            <stop offset="0.51" stop-color="#F4BCB0"/>
            <stop offset="0.67" stop-color="#F6C8BE"/>
            <stop offset="0.8" stop-color="#F9D9D2"/>
            <stop offset="0.93" stop-color="#FCEFEC"/>
            <stop offset="1" stop-color="white"/>
        </linearGradient>
        <linearGradient id="paint17_linear" x1="262.529" y1="369.683" x2="295.645" y2="369.683" gradientUnits="userSpaceOnUse">
            <stop offset="0.22" stop-color="white"/>
            <stop offset="1" stop-color="white"/>
        </linearGradient>
        <linearGradient id="paint18_linear" x1="29963.4" y1="-347.188" x2="32589.2" y2="-347.188" gradientUnits="userSpaceOnUse">
            <stop offset="0.22" stop-color="white"/>
            <stop offset="1" stop-color="white"/>
        </linearGradient>
        <linearGradient id="paint19_linear" x1="29963.4" y1="-334.93" x2="32589.2" y2="-334.93" gradientUnits="userSpaceOnUse">
            <stop offset="0.22" stop-color="white"/>
            <stop offset="1" stop-color="white"/>
        </linearGradient>
        <linearGradient id="paint20_linear" x1="410.673" y1="314.448" x2="410.673" y2="316.894" gradientUnits="userSpaceOnUse">
            <stop offset="0.07" stop-color="#B4AFB9"/>
            <stop offset="0.17" stop-color="#A7A5B6"/>
            <stop offset="0.44" stop-color="#898DB0"/>
            <stop offset="0.68" stop-color="#777EAC"/>
            <stop offset="0.84" stop-color="#7079AB"/>
        </linearGradient>
        <linearGradient id="paint21_linear" x1="5751.83" y1="499.704" x2="5751.83" y2="509.046" gradientUnits="userSpaceOnUse">
            <stop offset="0.07" stop-color="#B4AFB9"/>
            <stop offset="0.17" stop-color="#A7A5B6"/>
            <stop offset="0.44" stop-color="#898DB0"/>
            <stop offset="0.68" stop-color="#777EAC"/>
            <stop offset="0.84" stop-color="#7079AB"/>
        </linearGradient>
        <linearGradient id="paint22_linear" x1="5751.83" y1="507.4" x2="5751.83" y2="516.743" gradientUnits="userSpaceOnUse">
            <stop offset="0.07" stop-color="#B4AFB9"/>
            <stop offset="0.17" stop-color="#A7A5B6"/>
            <stop offset="0.44" stop-color="#898DB0"/>
            <stop offset="0.68" stop-color="#777EAC"/>
            <stop offset="0.84" stop-color="#7079AB"/>
        </linearGradient>
        <linearGradient id="paint23_linear" x1="5751.83" y1="515.099" x2="5751.83" y2="524.441" gradientUnits="userSpaceOnUse">
            <stop offset="0.07" stop-color="#B4AFB9"/>
            <stop offset="0.17" stop-color="#A7A5B6"/>
            <stop offset="0.44" stop-color="#898DB0"/>
            <stop offset="0.68" stop-color="#777EAC"/>
            <stop offset="0.84" stop-color="#7079AB"/>
        </linearGradient>
        <linearGradient id="paint24_linear" x1="5455.09" y1="876.347" x2="5455.09" y2="946.977" gradientUnits="userSpaceOnUse">
            <stop offset="0.07" stop-color="#B4AFB9"/>
            <stop offset="0.17" stop-color="#A7A5B6"/>
            <stop offset="0.44" stop-color="#898DB0"/>
            <stop offset="0.68" stop-color="#777EAC"/>
            <stop offset="0.84" stop-color="#7079AB"/>
        </linearGradient>
        <linearGradient id="paint25_linear" x1="1599.03" y1="348.696" x2="1630.89" y2="348.696" gradientUnits="userSpaceOnUse">
            <stop offset="0.03" stop-color="#B4BFEB"/>
            <stop offset="0.37" stop-color="#C3CDF0"/>
            <stop offset="1" stop-color="#E9EFFD"/>
        </linearGradient>
        <linearGradient id="paint26_linear" x1="1856.79" y1="680.067" x2="1886.8" y2="680.067" gradientUnits="userSpaceOnUse">
            <stop offset="0.03" stop-color="#B4BFEB"/>
            <stop offset="0.37" stop-color="#C3CDF0"/>
            <stop offset="1" stop-color="#E9EFFD"/>
        </linearGradient>
        <linearGradient id="paint27_linear" x1="1891.49" y1="366.13" x2="1946" y2="366.13" gradientUnits="userSpaceOnUse">
            <stop offset="0.03" stop-color="#B4BFEB"/>
            <stop offset="0.37" stop-color="#C3CDF0"/>
            <stop offset="1" stop-color="#E9EFFD"/>
        </linearGradient>
        <linearGradient id="paint28_linear" x1="2407.92" y1="443.754" x2="2461.53" y2="443.754" gradientUnits="userSpaceOnUse">
            <stop offset="0.03" stop-color="#B4BFEB"/>
            <stop offset="0.37" stop-color="#C3CDF0"/>
            <stop offset="1" stop-color="#E9EFFD"/>
        </linearGradient>
        <linearGradient id="paint29_linear" x1="1896.4" y1="420.695" x2="1951.44" y2="420.695" gradientUnits="userSpaceOnUse">
            <stop offset="0.03" stop-color="#B4BFEB"/>
            <stop offset="0.37" stop-color="#C3CDF0"/>
            <stop offset="1" stop-color="#E9EFFD"/>
        </linearGradient>
        <linearGradient id="paint30_linear" x1="2465.51" y1="362.274" x2="2521.59" y2="362.274" gradientUnits="userSpaceOnUse">
            <stop offset="0.03" stop-color="#B4BFEB"/>
            <stop offset="0.37" stop-color="#C3CDF0"/>
            <stop offset="1" stop-color="#E9EFFD"/>
        </linearGradient>
        <linearGradient id="paint31_linear" x1="1620.25" y1="657.718" x2="1653.35" y2="657.718" gradientUnits="userSpaceOnUse">
            <stop offset="0.03" stop-color="#B4BFEB"/>
            <stop offset="0.37" stop-color="#C3CDF0"/>
            <stop offset="1" stop-color="#E9EFFD"/>
        </linearGradient>
        <linearGradient id="paint32_linear" x1="1978.78" y1="356.479" x2="2013.42" y2="356.479" gradientUnits="userSpaceOnUse">
            <stop offset="0.03" stop-color="#B4BFEB"/>
            <stop offset="0.37" stop-color="#C3CDF0"/>
            <stop offset="1" stop-color="#E9EFFD"/>
        </linearGradient>
        <linearGradient id="paint33_linear" x1="1166.24" y1="303.464" x2="1175.23" y2="303.464" gradientUnits="userSpaceOnUse">
            <stop offset="0.03" stop-color="#B4BFEB"/>
            <stop offset="0.37" stop-color="#C3CDF0"/>
            <stop offset="1" stop-color="#E9EFFD"/>
        </linearGradient>
        <linearGradient id="paint34_linear" x1="972.171" y1="295.87" x2="978.137" y2="295.87" gradientUnits="userSpaceOnUse">
            <stop offset="0.03" stop-color="#B4BFEB"/>
            <stop offset="0.37" stop-color="#C3CDF0"/>
            <stop offset="1" stop-color="#E9EFFD"/>
        </linearGradient>
    </defs>
</svg>
