<svg width="599" height="450" viewBox="0 0 599 450" fill="none" xmlns="http://www.w3.org/2000/svg">
    <path fill-rule="evenodd" clip-rule="evenodd" d="M560.817 254.336C557.397 315.15 626.594 392.389 565.425 433.174C503.208 474.659 392.68 426.418 303.253 426.071C234.74 425.806 167.72 451.615 103.537 431.385C38.8289 410.989 10.6953 360.054 -32.3701 320.285C-82.7149 273.794 -158.043 235.469 -169.359 179.377C-181.655 118.423 -164.293 46.0834 -94.4251 12.6815C-24.7102 -20.6473 74.9996 22.4441 162.314 20.8125C231.963 19.511 294.228 -6.75456 363.433 4.12578C446.006 17.1077 543.542 34.8462 584.88 87.2477C626.18 139.601 564.056 196.748 560.817 254.336Z" fill="#F1F1FB"/>
    <path d="M492.826 217.794L394.637 129.183C393.719 128.17 392.727 127.226 391.67 126.359L390.287 125.043C389.179 123.989 387.984 123.027 386.708 122.183C377.357 116 376.223 116 374.42 116C372.608 116 370.278 116.446 361.795 122.348C360.743 123.08 359.751 123.902 358.823 124.786L357.169 126.359C356.116 127.227 355.128 128.171 354.213 129.183L256.024 217.794C255.525 218.293 255.269 218.715 255.138 219.015C255.003 219.323 254.956 219.665 254.918 220C254.882 220.318 254.848 220.8 254.85 221.481V331.883C254.85 336.197 256.568 340.333 259.626 343.383C262.684 346.433 266.831 348.147 271.156 348.147H477.694C482.018 348.147 486.166 346.433 489.224 343.383C492.282 340.333 494 336.197 494 331.883V221.481C494.003 220.055 494 219.901 494 219.901C494 219.901 494 218.5 492.826 217.794Z" fill="#F59E35"/>
    <path d="M476.989 315.226V190.677L417.317 131.11H287.134C284.992 131.11 282.872 131.532 280.894 132.351C278.916 133.171 277.12 134.372 275.608 135.886C274.096 137.4 272.898 139.197 272.083 141.174C271.269 143.151 270.853 145.269 270.859 147.407V315.226H476.989Z" fill="white"/>
    <path d="M476.99 348.246H269.105C264.794 348.246 260.659 348.527 257.611 345.468C254.563 342.408 254.85 338.259 254.85 333.932V223.168L476.99 348.246Z" fill="#F59E35"/>
    <path d="M270.859 348.246H479.672C484.002 348.246 488.155 347.527 491.217 344.468C494.279 341.408 494 338.259 494 333.932V223.168L270.859 348.246Z" fill="#F6BC73"/>
    <path d="M417.952 131.11V174.774C417.955 179.115 419.652 183.279 422.671 186.349C425.69 189.419 429.784 191.145 434.053 191.148H476.989L417.952 131.11Z" fill="#B8B8E8"/>
    <path d="M441.967 202.155H308.884V212.161H441.967V202.155Z" fill="#FF8888"/>
    <path d="M393.937 223.168H308.884V234.175H393.937V223.168Z" fill="#FF8888"/>
    <path d="M359.916 180.141H308.884V191.148H359.916V180.141Z" fill="#FF8888"/>
    <path d="M295.118 145.544V151.123L289.088 145.544H265.549C265.196 145.545 264.846 145.474 264.519 145.335C264.192 145.195 263.895 144.991 263.645 144.732C263.395 144.473 263.196 144.166 263.061 143.827C262.925 143.489 262.855 143.126 262.855 142.759V107.878C262.855 107.512 262.925 107.149 263.061 106.81C263.196 106.472 263.395 106.164 263.645 105.906C263.895 105.647 264.192 105.442 264.519 105.303C264.846 105.163 265.196 105.092 265.549 105.094H303.189C303.902 105.094 304.585 105.387 305.09 105.909C305.595 106.43 305.88 107.139 305.883 107.878V142.749C305.88 143.488 305.595 144.197 305.09 144.718C304.585 145.24 303.902 145.533 303.189 145.533H299.169" fill="#B8B8E8"/>
    <path d="M146.875 63.542H55V122.46H146.875V63.542Z" fill="#FDCDCA"/>
    <path d="M100.938 92.993L55 122.46H146.875L100.938 92.993Z" fill="#FDCDCA"/>
    <path d="M146.875 63.542H55L100.938 105.251L146.875 63.542Z" fill="#FF8888"/>
    <path d="M223 155.417H131.125V214.335H223V155.417Z" fill="#B8B8E8"/>
    <path d="M177.063 184.868L131.125 214.335H223L177.063 184.868Z" fill="#B8B8E8"/>
    <path d="M223 155.417H131.125L177.063 197.126L223 155.417Z" fill="#9595CB"/>
</svg>
