<svg width="639" height="545" viewBox="0 0 639 545" fill="none" xmlns="http://www.w3.org/2000/svg">
    <path fill-rule="evenodd" clip-rule="evenodd" d="M570.407 310.232C566.991 372.28 636.11 451.085 575.011 492.697C512.863 535.024 402.46 485.804 313.133 485.451C244.697 485.18 177.752 511.512 113.641 490.872C49.0056 470.063 20.9036 418.095 -22.1134 377.519C-72.4016 330.085 -147.645 290.982 -158.948 233.752C-171.231 171.563 -153.888 97.7556 -84.0987 63.6762C-14.4621 29.6714 85.1356 73.6368 172.352 71.9721C241.923 70.6442 304.118 43.8459 373.245 54.9469C455.725 68.1922 553.152 86.2905 594.443 139.755C635.697 193.17 573.642 251.476 570.407 310.232Z" fill="#F1F1FB"/>
    <path d="M492.826 287.794L394.637 199.183C393.719 198.17 392.727 197.226 391.67 196.359L390.287 195.043C389.179 193.989 387.984 193.027 386.708 192.183C377.357 186 376.223 186 374.42 186C372.608 186 370.278 186.446 361.795 192.348C360.743 193.08 359.751 193.902 358.823 194.786L357.169 196.359C356.116 197.227 355.128 198.171 354.213 199.183L256.024 287.794C255.525 288.293 255.269 288.715 255.138 289.015C255.003 289.323 254.956 289.665 254.918 290C254.882 290.318 254.848 290.8 254.85 291.481V401.883C254.85 406.197 256.568 410.333 259.626 413.383C262.684 416.433 266.831 418.147 271.156 418.147H477.694C482.018 418.147 486.166 416.433 489.224 413.383C492.282 410.333 494 406.197 494 401.883V291.481C494.003 290.055 494 289.901 494 289.901C494 289.901 494 288.5 492.826 287.794Z" fill="#F59E35"/>
    <path d="M476.989 385.226V260.677L417.317 201.11H287.134C284.992 201.11 282.872 201.532 280.894 202.351C278.916 203.171 277.12 204.372 275.608 205.886C274.096 207.4 272.898 209.197 272.083 211.174C271.269 213.151 270.853 215.269 270.859 217.407V385.226H476.989Z" fill="white"/>
    <path d="M476.989 418.246H269.104C264.793 418.246 260.659 418.527 257.61 415.468C254.562 412.408 254.85 408.259 254.85 403.932V293.168L476.989 418.246Z" fill="#F59E35"/>
    <path d="M270.859 418.246H479.672C484.002 418.246 488.155 417.527 491.217 414.468C494.279 411.408 494 408.259 494 403.932V293.168L270.859 418.246Z" fill="#F6BC73"/>
    <path d="M417.952 201.11V244.774C417.954 249.115 419.652 253.279 422.671 256.349C425.689 259.419 429.783 261.145 434.053 261.148H476.989L417.952 201.11Z" fill="#B8B8E8"/>
    <path d="M441.967 272.155H308.883V282.161H441.967V272.155Z" fill="#FF8888"/>
    <path d="M393.937 293.168H308.883V304.175H393.937V293.168Z" fill="#FF8888"/>
    <path d="M359.915 250.141H308.883V261.148H359.915V250.141Z" fill="#FF8888"/>
    <path d="M295.118 215.544V221.123L289.087 215.544H265.549C265.195 215.545 264.845 215.474 264.519 215.335C264.192 215.195 263.895 214.991 263.645 214.732C263.394 214.473 263.196 214.166 263.06 213.827C262.925 213.489 262.855 213.126 262.855 212.759V177.878C262.855 177.512 262.925 177.149 263.06 176.81C263.196 176.472 263.394 176.164 263.645 175.906C263.895 175.647 264.192 175.442 264.519 175.303C264.845 175.163 265.195 175.092 265.549 175.094H303.188C303.901 175.094 304.585 175.387 305.09 175.909C305.594 176.43 305.879 177.139 305.882 177.878V212.749C305.879 213.488 305.594 214.197 305.09 214.718C304.585 215.24 303.901 215.533 303.188 215.533H299.168" fill="#B8B8E8"/>
    <path d="M146.875 133.542H55V192.46H146.875V133.542Z" fill="#FDCDCA"/>
    <path d="M100.938 162.993L55 192.46H146.875L100.938 162.993Z" fill="#FDCDCA"/>
    <path d="M146.875 133.542H55L100.938 175.251L146.875 133.542Z" fill="#FF8888"/>
    <path d="M223 225.417H131.125V284.335H223V225.417Z" fill="#B8B8E8"/>
    <path d="M177.063 254.868L131.125 284.335H223L177.063 254.868Z" fill="#B8B8E8"/>
    <path d="M223 225.417H131.125L177.063 267.126L223 225.417Z" fill="#9595CB"/>
</svg>
