<svg width="717" height="476" viewBox="0 0 717 476" fill="none" xmlns="http://www.w3.org/2000/svg">
    <path fill-rule="evenodd" clip-rule="evenodd" d="M432.784 15.7135C499.55 20.4583 576.097 4.66093 626.564 40.2483C676.445 75.4231 731.47 124.442 746.619 176.478C760.16 222.994 762.911 266.743 756.4 314.234C748.606 371.085 742.317 406.849 686.142 441.736C629.773 476.745 502.896 480.345 432.784 470.648C371.852 462.221 326.839 466.728 271.353 444.732C199.62 416.294 64.047 447.125 20.4873 393.057C-25.5942 335.858 16.489 218.013 45.0163 153.792C73.1261 90.5106 136.288 37.964 212.509 10.8229C281.395 -13.7062 357.779 10.3832 432.784 15.7135Z" fill="#FEF4F3"/>
    <g opacity="0.88">
        <g opacity="0.79">
            <path opacity="0.6" d="M543.233 265.532L536.526 265.104C536.526 262.861 536.352 260.649 536.13 258.461L542.742 257.24C543.537 257.094 544.296 256.792 544.974 256.351C545.653 255.911 546.238 255.342 546.696 254.675C547.155 254.009 547.478 253.258 547.646 252.467C547.815 251.675 547.827 250.858 547.68 250.063C547.533 249.267 547.231 248.508 546.792 247.829C546.352 247.15 545.783 246.564 545.117 246.105C544.451 245.646 543.702 245.323 542.911 245.154C542.12 244.985 541.304 244.973 540.509 245.12L533.92 246.341C533.113 243.261 532.113 240.235 530.927 237.281L536.89 234.284C537.613 233.92 538.257 233.417 538.785 232.803C539.314 232.19 539.716 231.478 539.97 230.709C540.224 229.94 540.324 229.128 540.264 228.32C540.204 227.512 539.986 226.724 539.622 226.001C539.258 225.277 538.755 224.633 538.142 224.104C537.53 223.575 536.819 223.172 536.05 222.918C535.282 222.664 534.471 222.564 533.664 222.624C532.857 222.683 532.069 222.902 531.347 223.266L525.36 226.278C524.093 224.185 522.707 222.172 521.25 220.214L526.31 215.775C527.463 214.678 528.147 213.176 528.219 211.585C528.291 209.995 527.746 208.438 526.697 207.24C525.648 206.043 524.177 205.298 522.592 205.162C521.007 205.025 519.43 205.508 518.193 206.508L513.132 210.948C511.506 209.362 509.814 207.853 508.056 206.421L511.873 200.872C512.332 200.206 512.655 199.455 512.824 198.663C512.992 197.872 513.004 197.055 512.857 196.259C512.71 195.462 512.409 194.703 511.969 194.024C511.529 193.345 510.96 192.759 510.293 192.3C509.627 191.841 508.877 191.517 508.087 191.348C507.296 191.179 506.479 191.168 505.684 191.315C504.889 191.462 504.13 191.764 503.451 192.204C502.773 192.644 502.187 193.214 501.729 193.881L497.92 199.43C495.466 198.009 492.936 196.726 490.341 195.585L492.535 189.244C492.799 188.479 492.911 187.67 492.863 186.862C492.815 186.054 492.609 185.264 492.256 184.536C491.903 183.808 491.41 183.157 490.806 182.619C490.202 182.082 489.497 181.669 488.733 181.404C487.97 181.139 487.161 181.027 486.354 181.075C485.547 181.123 484.757 181.33 484.03 181.683C483.303 182.036 482.652 182.529 482.115 183.134C481.579 183.739 481.166 184.444 480.901 185.209L478.7 191.55C476.218 190.896 473.704 190.367 471.169 189.965L471.668 183.275C471.728 182.468 471.629 181.656 471.376 180.887C471.123 180.118 470.721 179.407 470.194 178.793C469.666 178.18 469.023 177.676 468.301 177.312C467.579 176.947 466.792 176.728 465.986 176.668C465.179 176.607 464.369 176.707 463.6 176.96C462.832 177.213 462.121 177.615 461.508 178.143C460.896 178.671 460.393 179.315 460.028 180.038C459.664 180.761 459.445 181.548 459.385 182.355L458.886 189.061C455.815 189.078 452.747 189.276 449.7 189.656L448.338 183.077C447.984 181.495 447.024 180.116 445.663 179.239C444.302 178.361 442.651 178.054 441.066 178.385C439.481 178.717 438.09 179.659 437.194 181.009C436.298 182.358 435.968 184.007 436.277 185.597L437.639 192.177C435.461 192.811 433.339 193.548 431.24 194.372L428.302 188.316C427.589 186.845 426.321 185.717 424.777 185.181C423.234 184.645 421.54 184.745 420.07 185.459C418.6 186.172 417.473 187.442 416.938 188.987C416.402 190.532 416.502 192.227 417.215 193.699L420.145 199.755C417.684 201.207 415.304 202.795 413.018 204.511L408.568 199.454C408.033 198.846 407.384 198.35 406.658 197.994C405.932 197.637 405.143 197.428 404.336 197.376C403.529 197.325 402.72 197.434 401.954 197.696C401.189 197.957 400.483 198.368 399.876 198.903C399.269 199.438 398.774 200.087 398.418 200.814C398.062 201.541 397.852 202.331 397.801 203.138C397.75 203.946 397.858 204.756 398.12 205.522C398.382 206.288 398.791 206.995 399.326 207.602L403.776 212.66C402.003 214.491 400.316 216.401 398.724 218.399L393.181 214.665C392.509 214.215 391.755 213.902 390.962 213.743C390.169 213.584 389.353 213.584 388.56 213.741C387.767 213.898 387.012 214.21 386.34 214.659C385.667 215.108 385.09 215.685 384.64 216.358C384.19 217.03 383.877 217.785 383.718 218.578C383.56 219.372 383.559 220.189 383.716 220.983C383.873 221.777 384.185 222.532 384.633 223.205C385.082 223.878 385.659 224.457 386.33 224.907L391.874 228.632C390.675 230.746 389.58 232.947 388.587 235.235L382.252 233.032C381.484 232.746 380.666 232.616 379.847 232.65C379.028 232.685 378.224 232.882 377.482 233.232C376.74 233.581 376.076 234.075 375.527 234.685C374.978 235.294 374.557 236.008 374.287 236.782C374.017 237.557 373.904 238.378 373.956 239.197C374.007 240.016 374.221 240.817 374.585 241.552C374.949 242.287 375.456 242.942 376.077 243.479C376.697 244.015 377.418 244.422 378.197 244.676L384.533 246.888C383.811 249.676 383.245 252.503 382.838 255.354L376.146 254.926C374.547 254.874 372.99 255.446 371.805 256.523C370.62 257.599 369.9 259.095 369.797 260.693C369.694 262.292 370.217 263.867 371.254 265.087C372.291 266.307 373.762 267.075 375.354 267.228L382.062 267.656C382.062 269.892 382.244 272.103 382.458 274.299L375.845 275.52C375.01 275.622 374.205 275.894 373.479 276.319C372.753 276.744 372.121 277.314 371.623 277.993C371.126 278.671 370.772 279.445 370.584 280.266C370.397 281.087 370.379 281.937 370.532 282.765C370.686 283.593 371.007 284.381 371.476 285.08C371.945 285.779 372.552 286.375 373.26 286.83C373.968 287.285 374.761 287.591 375.591 287.727C376.421 287.864 377.271 287.829 378.087 287.624L384.675 286.411C385.491 289.492 386.499 292.518 387.693 295.472L381.729 298.476C381.007 298.84 380.364 299.343 379.836 299.957C379.308 300.57 378.906 301.281 378.652 302.05C378.399 302.819 378.299 303.63 378.359 304.438C378.419 305.245 378.637 306.033 379.001 306.756C379.365 307.479 379.868 308.123 380.481 308.651C381.093 309.18 381.804 309.582 382.572 309.836C383.34 310.089 384.151 310.189 384.957 310.129C385.764 310.069 386.551 309.851 387.273 309.486L393.26 306.474C394.527 308.567 395.913 310.58 397.37 312.53L392.309 316.969C391.134 318.062 390.43 319.57 390.349 321.174C390.267 322.778 390.813 324.35 391.871 325.557C392.929 326.764 394.416 327.51 396.015 327.637C397.614 327.763 399.2 327.261 400.435 326.236L405.495 321.797C407.121 323.382 408.813 324.891 410.571 326.323L406.754 331.872C405.913 333.218 405.623 334.838 405.945 336.393C406.267 337.948 407.176 339.318 408.482 340.219C409.789 341.121 411.392 341.482 412.958 341.23C414.525 340.977 415.933 340.13 416.891 338.863L420.7 333.315C423.153 334.735 425.683 336.018 428.278 337.159L426.077 343.501C425.773 344.274 425.628 345.101 425.652 345.932C425.675 346.763 425.866 347.581 426.214 348.336C426.561 349.091 427.057 349.768 427.672 350.326C428.287 350.885 429.009 351.313 429.793 351.585C430.578 351.857 431.41 351.967 432.238 351.91C433.066 351.852 433.875 351.627 434.614 351.249C435.354 350.871 436.009 350.347 436.541 349.709C437.073 349.071 437.471 348.331 437.71 347.535L439.904 341.194C442.386 341.848 444.9 342.377 447.435 342.779L446.936 349.47C446.867 351.071 447.423 352.636 448.487 353.833C449.551 355.031 451.039 355.767 452.636 355.886C454.233 356.004 455.813 355.496 457.041 354.468C458.27 353.441 459.051 351.975 459.219 350.381L459.718 343.683C462.791 343.666 465.861 343.468 468.912 343.088L470.274 349.668C470.606 351.268 471.559 352.67 472.924 353.566C474.289 354.463 475.953 354.78 477.552 354.448C479.15 354.115 480.551 353.161 481.446 351.795C482.342 350.429 482.659 348.763 482.327 347.163L480.965 340.583C483.143 339.949 485.265 339.212 487.363 338.388L490.301 344.444C490.655 345.173 491.147 345.825 491.752 346.362C492.357 346.9 493.062 347.314 493.826 347.579C494.591 347.845 495.4 347.957 496.207 347.909C497.015 347.861 497.805 347.655 498.533 347.302C499.261 346.948 499.913 346.455 500.45 345.849C500.988 345.244 501.401 344.539 501.666 343.773C501.931 343.008 502.043 342.198 501.995 341.39C501.948 340.581 501.741 339.79 501.388 339.062L498.458 333.037C500.92 331.585 503.299 329.997 505.585 328.281L510.036 333.338C510.571 333.946 511.219 334.442 511.945 334.798C512.672 335.155 513.461 335.364 514.268 335.416C515.075 335.467 515.884 335.358 516.649 335.096C517.414 334.835 518.121 334.424 518.727 333.889C519.334 333.354 519.83 332.705 520.186 331.978C520.542 331.251 520.751 330.461 520.803 329.654C520.854 328.846 520.745 328.036 520.484 327.27C520.222 326.504 519.812 325.797 519.278 325.19L514.827 320.132C516.593 318.301 518.288 316.391 519.88 314.393L525.423 318.127C526.095 318.577 526.849 318.89 527.641 319.049C528.434 319.207 529.251 319.208 530.044 319.051C530.837 318.894 531.591 318.582 532.264 318.133C532.936 317.684 533.514 317.107 533.964 316.434C534.414 315.762 534.727 315.007 534.885 314.214C535.044 313.42 535.044 312.603 534.887 311.809C534.73 311.015 534.419 310.26 533.97 309.587C533.522 308.914 532.945 308.335 532.273 307.885L526.73 304.16C527.928 302.046 529.024 299.845 530.016 297.556L536.351 299.76C537.115 300.027 537.923 300.14 538.73 300.094C539.537 300.048 540.327 299.843 541.055 299.491C541.783 299.139 542.435 298.647 542.973 298.043C543.511 297.439 543.925 296.735 544.191 295.971C544.458 295.207 544.571 294.398 544.525 293.59C544.479 292.782 544.274 291.991 543.923 291.263C543.571 290.534 543.08 289.882 542.476 289.343C541.873 288.804 541.169 288.39 540.406 288.123L534.071 285.912C534.801 283.116 535.375 280.282 535.789 277.422L542.481 277.85C543.288 277.902 544.097 277.795 544.863 277.534C545.628 277.273 546.335 276.863 546.942 276.329C547.55 275.794 548.046 275.146 548.403 274.419C548.76 273.693 548.97 272.903 549.022 272.095C549.074 271.288 548.967 270.477 548.706 269.711C548.445 268.945 548.036 268.238 547.502 267.63C546.968 267.022 546.32 266.525 545.594 266.168C544.869 265.81 544.08 265.6 543.273 265.548L543.233 265.532ZM470.416 200.064C479.807 201.643 488.755 205.203 496.667 210.507C504.579 215.811 511.274 222.737 516.308 230.828L489.565 244.304C484.348 237.158 476.774 232.09 468.183 229.996L470.416 200.064ZM458.134 199.176L455.916 229.037C446.804 229.862 438.311 234.005 432.048 240.681L407.182 224.035C413.345 216.417 421.101 210.244 429.903 205.949C438.706 201.654 448.342 199.342 458.134 199.176ZM396.784 290.914C393.953 283.694 392.399 276.036 392.191 268.283L392.983 255.98C394.163 248.362 396.652 241.005 400.34 234.237L425.214 250.883C424.192 253.121 423.396 255.455 422.838 257.851L422.046 270.153C422.294 272.625 422.787 275.065 423.519 277.438L396.784 290.914ZM448.211 332.68C438.821 331.102 429.873 327.544 421.962 322.241C414.05 316.939 407.354 310.013 402.319 301.924L429.062 288.449C434.278 295.597 441.852 300.669 450.444 302.764L448.211 332.68ZM459.124 283.098C455.811 283.062 452.583 282.043 449.849 280.17C447.115 278.298 444.997 275.656 443.763 272.578C442.529 269.501 442.235 266.126 442.917 262.881C443.599 259.636 445.227 256.666 447.596 254.348C449.964 252.029 452.966 250.466 456.223 249.855C459.479 249.244 462.843 249.614 465.889 250.917C468.936 252.221 471.527 254.399 473.337 257.177C475.146 259.954 476.092 263.207 476.055 266.523C476.031 268.724 475.574 270.899 474.71 272.924C473.846 274.948 472.592 276.783 471.02 278.322C469.448 279.861 467.588 281.075 465.547 281.895C463.505 282.714 461.323 283.123 459.124 283.098ZM460.486 333.537L462.703 303.676C471.813 302.864 480.308 298.735 486.579 292.071L511.446 308.718C505.283 316.336 497.528 322.51 488.725 326.805C479.922 331.1 470.285 333.411 460.494 333.576L460.486 333.537ZM525.669 276.756C524.488 284.372 521.999 291.726 518.312 298.492L493.437 281.845C494.459 279.611 495.255 277.279 495.813 274.886L496.605 262.583C496.359 260.112 495.865 257.671 495.132 255.298L521.883 241.823C524.713 249.043 526.267 256.701 526.476 264.454L525.669 276.756Z" fill="#B8B8E8"/>
        </g>
        <g opacity="0.77">
            <path opacity="0.6" d="M330.984 151.02L327.135 150.775C327.135 149.491 327.032 148.214 326.905 146.962L330.698 146.264C331.155 146.18 331.59 146.006 331.98 145.754C332.37 145.501 332.706 145.174 332.969 144.791C333.232 144.408 333.417 143.977 333.514 143.523C333.611 143.068 333.618 142.599 333.534 142.142C333.449 141.685 333.276 141.249 333.023 140.86C332.771 140.47 332.444 140.133 332.062 139.87C331.679 139.606 331.249 139.421 330.795 139.324C330.341 139.227 329.872 139.22 329.416 139.305L325.63 140.002C325.164 138.234 324.588 136.497 323.904 134.802L327.325 133.082C327.741 132.874 328.112 132.586 328.417 132.234C328.721 131.882 328.954 131.474 329.101 131.032C329.248 130.591 329.307 130.124 329.274 129.66C329.241 129.196 329.117 128.742 328.909 128.326C328.701 127.909 328.413 127.538 328.061 127.233C327.71 126.928 327.302 126.695 326.861 126.548C326.42 126.401 325.954 126.342 325.49 126.375C325.026 126.408 324.573 126.532 324.157 126.74L320.72 128.468C319.992 127.272 319.2 126.09 318.345 124.989L321.251 122.444C321.956 121.825 322.386 120.951 322.446 120.014C322.507 119.078 322.194 118.155 321.576 117.45C320.957 116.745 320.084 116.314 319.148 116.253C318.213 116.192 317.291 116.506 316.586 117.125L313.68 119.678C312.746 118.769 311.774 117.902 310.766 117.078L312.959 113.907C313.223 113.524 313.408 113.094 313.505 112.639C313.602 112.185 313.608 111.716 313.524 111.26C313.44 110.803 313.266 110.367 313.014 109.977C312.762 109.588 312.435 109.252 312.053 108.988C311.671 108.725 311.24 108.539 310.787 108.442C310.333 108.346 309.864 108.339 309.408 108.423C308.952 108.508 308.516 108.681 308.127 108.934C307.738 109.186 307.402 109.513 307.139 109.896L304.953 113.067C303.546 112.252 302.094 111.517 300.606 110.863L301.865 107.217C302.017 106.778 302.081 106.313 302.053 105.85C302.026 105.386 301.907 104.933 301.705 104.515C301.502 104.097 301.219 103.724 300.872 103.415C300.525 103.107 300.121 102.87 299.683 102.718C299.245 102.566 298.781 102.502 298.318 102.53C297.854 102.557 297.401 102.676 296.984 102.878C296.567 103.081 296.193 103.364 295.885 103.711C295.577 104.059 295.341 104.463 295.189 104.902L293.93 108.548C292.504 108.174 291.061 107.873 289.606 107.645L289.891 103.808C289.925 103.345 289.868 102.879 289.723 102.438C289.577 101.997 289.346 101.589 289.044 101.237C288.432 100.527 287.563 100.088 286.628 100.019C285.694 99.9496 284.77 100.255 284.06 100.867C283.35 101.48 282.912 102.349 282.843 103.285L282.558 107.129C280.794 107.139 279.033 107.252 277.284 107.47L276.492 103.697C276.302 102.778 275.755 101.973 274.971 101.458C274.188 100.943 273.232 100.76 272.314 100.95C271.396 101.141 270.592 101.688 270.077 102.472C269.563 103.256 269.38 104.213 269.57 105.132L270.362 108.905C269.111 109.27 267.891 109.698 266.688 110.165L265.001 106.693C264.818 106.245 264.546 105.839 264.2 105.5C263.855 105.161 263.443 104.897 262.991 104.724C262.539 104.551 262.057 104.473 261.574 104.495C261.09 104.516 260.617 104.636 260.182 104.849C259.747 105.061 259.36 105.36 259.046 105.728C258.731 106.096 258.496 106.525 258.354 106.987C258.211 107.45 258.166 107.937 258.219 108.419C258.273 108.9 258.425 109.365 258.666 109.785L260.352 113.265C258.944 114.095 257.582 115.003 256.274 115.984L253.716 113.082C253.096 112.378 252.223 111.949 251.287 111.89C250.351 111.83 249.431 112.145 248.727 112.765C248.023 113.386 247.595 114.26 247.535 115.197C247.476 116.133 247.791 117.055 248.41 117.759L250.968 120.661C249.954 121.715 248.98 122.809 248.07 123.958L244.902 121.81C244.516 121.55 244.083 121.368 243.627 121.275C243.171 121.183 242.701 121.181 242.245 121.27C241.322 121.45 240.509 121.989 239.984 122.769C239.459 123.549 239.265 124.506 239.445 125.429C239.624 126.352 240.163 127.166 240.942 127.692L244.11 129.832C243.424 131.058 242.795 132.321 242.225 133.621L238.598 132.361C238.16 132.208 237.696 132.142 237.232 132.169C236.769 132.196 236.315 132.313 235.897 132.515C235.479 132.717 235.105 133 234.796 133.347C234.487 133.693 234.249 134.098 234.096 134.537C233.943 134.975 233.878 135.44 233.905 135.904C233.931 136.368 234.049 136.822 234.251 137.24C234.453 137.659 234.735 138.033 235.081 138.343C235.428 138.652 235.832 138.89 236.27 139.043L239.913 140.311C239.492 141.916 239.162 143.544 238.923 145.186L235.082 144.941C234.147 144.881 233.225 145.195 232.521 145.815C231.817 146.435 231.388 147.309 231.329 148.246C231.269 149.183 231.583 150.105 232.202 150.809C232.822 151.514 233.695 151.943 234.631 152.003L238.48 152.249C238.48 153.533 238.582 154.802 238.709 156.062L234.916 156.759C234.459 156.844 234.024 157.017 233.634 157.27C233.245 157.523 232.909 157.85 232.646 158.233C232.382 158.615 232.197 159.046 232.1 159.501C232.003 159.955 231.997 160.424 232.081 160.881C232.165 161.338 232.338 161.774 232.591 162.164C232.843 162.554 233.17 162.891 233.553 163.154C233.935 163.418 234.366 163.603 234.82 163.7C235.274 163.797 235.742 163.804 236.199 163.719L239.984 163.022C240.453 164.79 241.033 166.526 241.718 168.222L238.297 169.942C237.881 170.15 237.51 170.438 237.206 170.79C236.901 171.142 236.668 171.55 236.521 171.992C236.374 172.433 236.316 172.9 236.349 173.364C236.382 173.828 236.506 174.282 236.714 174.698C236.922 175.114 237.209 175.486 237.561 175.791C237.912 176.096 238.32 176.328 238.761 176.476C239.203 176.623 239.668 176.682 240.132 176.649C240.596 176.616 241.049 176.492 241.465 176.283L244.902 174.555C245.631 175.752 246.422 176.933 247.278 178.035L244.371 180.588C244.023 180.894 243.737 181.267 243.532 181.683C243.327 182.1 243.206 182.554 243.176 183.017C243.146 183.481 243.207 183.946 243.356 184.386C243.506 184.826 243.74 185.232 244.047 185.582C244.353 185.931 244.725 186.216 245.141 186.422C245.558 186.627 246.011 186.748 246.474 186.778C246.937 186.809 247.402 186.747 247.842 186.597C248.281 186.448 248.687 186.213 249.036 185.907L251.942 183.354C252.877 184.263 253.848 185.13 254.856 185.954L252.663 189.125C252.4 189.507 252.214 189.938 252.118 190.392C252.021 190.847 252.014 191.315 252.098 191.772C252.183 192.229 252.356 192.665 252.608 193.054C252.861 193.444 253.187 193.78 253.57 194.043C253.952 194.307 254.382 194.492 254.836 194.589C255.29 194.686 255.758 194.693 256.214 194.608C256.671 194.524 257.106 194.351 257.495 194.098C257.884 193.845 258.22 193.518 258.483 193.136L260.669 189.965C262.077 190.779 263.528 191.515 265.017 192.169L263.758 195.815C263.606 196.254 263.542 196.719 263.57 197.183C263.597 197.647 263.716 198.101 263.919 198.519C264.122 198.938 264.405 199.312 264.752 199.62C265.1 199.929 265.504 200.166 265.943 200.318C266.382 200.47 266.847 200.534 267.31 200.506C267.774 200.478 268.227 200.359 268.645 200.156C269.063 199.953 269.436 199.67 269.745 199.322C270.053 198.974 270.29 198.569 270.441 198.13L271.701 194.483C273.126 194.857 274.569 195.159 276.024 195.387L275.739 199.224C275.67 200.159 275.975 201.084 276.587 201.795C277.199 202.505 278.067 202.943 279.002 203.013C279.937 203.082 280.861 202.777 281.57 202.165C282.28 201.552 282.718 200.682 282.787 199.747L283.057 195.902C284.82 195.893 286.581 195.779 288.331 195.561L289.123 199.335C289.217 199.79 289.4 200.221 289.66 200.606C289.921 200.99 290.255 201.319 290.643 201.574C291.031 201.829 291.465 202.005 291.921 202.092C292.377 202.179 292.846 202.176 293.3 202.081C293.755 201.987 294.186 201.804 294.57 201.543C294.954 201.282 295.282 200.948 295.537 200.559C295.792 200.171 295.968 199.736 296.055 199.28C296.142 198.824 296.138 198.355 296.044 197.9L295.252 194.127C296.503 193.762 297.723 193.334 298.927 192.866L300.613 196.338C300.796 196.787 301.068 197.193 301.414 197.532C301.76 197.87 302.171 198.134 302.623 198.307C303.075 198.48 303.557 198.559 304.041 198.537C304.524 198.516 304.998 198.395 305.432 198.183C305.867 197.971 306.254 197.672 306.568 197.304C306.883 196.936 307.119 196.507 307.261 196.044C307.403 195.582 307.449 195.094 307.395 194.613C307.341 194.132 307.189 193.667 306.949 193.247L305.262 189.767C306.671 188.937 308.032 188.029 309.34 187.048L311.898 189.949C312.518 190.654 313.392 191.083 314.327 191.142C315.263 191.202 316.184 190.887 316.887 190.266C317.591 189.646 318.02 188.772 318.079 187.835C318.138 186.899 317.824 185.977 317.204 185.272L314.654 182.371C315.668 181.317 316.642 180.223 317.553 179.074L320.72 181.222C321.106 181.482 321.539 181.664 321.995 181.756C322.451 181.849 322.921 181.851 323.378 181.762C323.834 181.673 324.269 181.494 324.657 181.237C325.045 180.98 325.378 180.649 325.638 180.263C325.898 179.876 326.08 179.443 326.172 178.986C326.265 178.53 326.266 178.06 326.178 177.603C326.089 177.146 325.91 176.711 325.654 176.322C325.397 175.934 325.066 175.6 324.68 175.34L321.512 173.2C322.199 171.974 322.827 170.711 323.397 169.411L327.024 170.671C327.909 170.98 328.881 170.925 329.725 170.516C330.569 170.108 331.217 169.381 331.526 168.495C331.835 167.609 331.779 166.636 331.372 165.791C330.964 164.946 330.237 164.298 329.352 163.989L325.709 162.72C326.127 161.118 326.455 159.493 326.691 157.853L330.532 158.099C331.468 158.159 332.389 157.844 333.093 157.225C333.797 156.605 334.226 155.73 334.286 154.794C334.346 153.857 334.031 152.935 333.412 152.23C332.793 151.526 331.919 151.096 330.984 151.036V151.02ZM289.186 113.463C294.573 114.367 299.707 116.406 304.248 119.445C308.789 122.484 312.633 126.454 315.525 131.092L300.178 138.829C297.184 134.729 292.84 131.82 287.911 130.617L289.186 113.463ZM282.138 112.956L280.863 130.101C275.633 130.575 270.758 132.952 267.163 136.784L252.908 127.216C256.441 122.843 260.888 119.297 265.937 116.828C270.985 114.359 276.512 113.026 282.13 112.924L282.138 112.956ZM246.913 165.622C245.277 161.468 244.376 157.061 244.253 152.598L244.696 145.535C245.372 141.161 246.801 136.937 248.917 133.05L263.172 142.626C262.59 143.899 262.137 145.227 261.817 146.589L261.374 153.652C261.516 155.072 261.8 156.474 262.221 157.838L246.913 165.622ZM276.436 189.561C271.045 188.654 265.908 186.611 261.365 183.566C256.823 180.521 252.979 176.545 250.089 171.9L265.444 164.195C268.436 168.298 272.781 171.209 277.711 172.415L276.436 189.561ZM282.7 161.111C280.799 161.091 278.946 160.506 277.376 159.432C275.806 158.357 274.591 156.84 273.882 155.074C273.174 153.307 273.004 151.37 273.396 149.507C273.788 147.644 274.722 145.94 276.082 144.609C277.441 143.278 279.165 142.38 281.034 142.03C282.903 141.679 284.834 141.892 286.583 142.64C288.332 143.388 289.819 144.639 290.858 146.234C291.896 147.828 292.439 149.696 292.417 151.599C292.405 152.864 292.143 154.113 291.648 155.276C291.153 156.44 290.434 157.494 289.531 158.379C288.629 159.264 287.561 159.962 286.389 160.433C285.217 160.905 283.963 161.141 282.7 161.127V161.111ZM283.492 190.068L284.759 172.914C289.989 172.441 294.864 170.063 298.459 166.232L312.714 175.8C309.18 180.173 304.731 183.718 299.681 186.186C294.632 188.654 289.103 189.984 283.484 190.084L283.492 190.068ZM320.91 157.457C320.233 161.829 318.805 166.05 316.689 169.934L302.435 160.358C303.016 159.085 303.47 157.758 303.789 156.395L304.233 149.332C304.091 147.912 303.807 146.51 303.385 145.147L318.693 137.418C320.318 141.563 321.21 145.959 321.33 150.41L320.91 157.457Z" fill="#B8B8E8"/>
        </g>
        <g opacity="0.74">
            <path opacity="0.74" d="M205.172 289.922C205.88 284.257 201.866 279.091 196.207 278.382C190.548 277.674 185.386 281.691 184.678 287.356C183.97 293.02 187.984 298.187 193.643 298.896C199.302 299.604 204.464 295.586 205.172 289.922Z" fill="url(#paint0_linear)"/>
            <path opacity="0.6" d="M291.221 293.292L280.459 291.944C280.716 285.661 280.278 279.368 279.152 273.181L289.582 270.328C290.512 270.073 291.383 269.637 292.145 269.045C292.907 268.453 293.545 267.717 294.023 266.878C294.5 266.039 294.808 265.114 294.929 264.156C295.049 263.199 294.98 262.226 294.725 261.295C294.471 260.364 294.035 259.492 293.444 258.73C292.852 257.967 292.117 257.328 291.279 256.85C290.441 256.372 289.517 256.064 288.56 255.943C287.603 255.822 286.632 255.892 285.702 256.147L275.256 259.008C273.06 253.049 270.21 247.351 266.759 242.021L275.319 235.362C276.805 234.149 277.756 232.402 277.972 230.495C278.187 228.589 277.649 226.673 276.472 225.158C275.295 223.644 273.572 222.65 271.673 222.39C269.774 222.129 267.848 222.623 266.307 223.765L257.755 230.424C253.488 225.806 248.726 221.672 243.556 218.098L248.925 208.681C249.742 207 249.888 205.07 249.334 203.285C248.779 201.5 247.566 199.994 245.942 199.073C244.317 198.151 242.402 197.884 240.588 198.326C238.773 198.768 237.195 199.886 236.175 201.451L230.79 210.821C225.025 208.166 218.982 206.164 212.774 204.852L214.16 194.079C214.308 193.109 214.26 192.119 214.019 191.167C213.778 190.215 213.349 189.322 212.758 188.539C212.166 187.756 211.424 187.1 210.575 186.608C209.725 186.117 208.787 185.802 207.814 185.68C206.84 185.558 205.853 185.633 204.909 185.899C203.965 186.166 203.084 186.619 202.318 187.232C201.552 187.845 200.917 188.605 200.449 189.468C199.982 190.331 199.692 191.279 199.596 192.256L198.226 203.037C191.949 202.779 185.662 203.218 179.482 204.345L176.631 193.905C176.391 192.958 175.966 192.068 175.379 191.288C174.792 190.508 174.055 189.852 173.212 189.36C172.369 188.868 171.437 188.549 170.469 188.422C169.502 188.295 168.519 188.362 167.577 188.62C166.636 188.878 165.756 189.32 164.987 189.923C164.219 190.525 163.579 191.275 163.103 192.128C162.628 192.981 162.327 193.92 162.218 194.891C162.11 195.861 162.196 196.844 162.471 197.781L165.33 208.237C159.377 210.436 153.685 213.289 148.359 216.742L141.707 208.181C141.125 207.394 140.391 206.731 139.549 206.232C138.707 205.733 137.773 205.408 136.804 205.275C135.834 205.142 134.848 205.204 133.903 205.459C132.958 205.713 132.073 206.154 131.301 206.755C130.528 207.356 129.884 208.106 129.405 208.961C128.927 209.815 128.623 210.757 128.513 211.73C128.404 212.703 128.489 213.689 128.765 214.628C129.041 215.568 129.502 216.443 130.121 217.202L136.773 225.771C132.165 230.041 128.038 234.805 124.467 239.976L115.059 234.609C114.22 234.1 113.288 233.765 112.318 233.622C111.348 233.48 110.359 233.533 109.41 233.78C108.46 234.026 107.57 234.46 106.791 235.057C106.012 235.653 105.361 236.4 104.875 237.253C104.389 238.105 104.079 239.047 103.963 240.022C103.847 240.996 103.927 241.985 104.198 242.928C104.47 243.871 104.928 244.75 105.544 245.513C106.161 246.277 106.924 246.908 107.789 247.372L117.181 252.738C114.525 258.499 112.523 264.54 111.21 270.748L100.448 269.4C99.4786 269.252 98.4893 269.3 97.5386 269.541C96.5879 269.782 95.6952 270.212 94.913 270.804C94.1308 271.396 93.475 272.139 92.9845 272.989C92.4939 273.839 92.1785 274.779 92.0568 275.753C91.935 276.727 92.0096 277.715 92.2759 278.66C92.5422 279.605 92.9949 280.487 93.6073 281.253C94.2197 282.02 94.9794 282.656 95.8415 283.124C96.7036 283.592 97.6506 283.882 98.6266 283.978L109.389 285.325C109.131 291.609 109.569 297.901 110.695 304.088L100.266 306.942C99.3341 307.197 98.4616 307.633 97.6982 308.226C96.9349 308.818 96.2956 309.556 95.8168 310.396C95.3381 311.235 95.0293 312.161 94.9081 313.121C94.787 314.08 94.8557 315.054 95.1105 315.987C95.3653 316.919 95.8011 317.793 96.3931 318.557C96.9851 319.321 97.7216 319.961 98.5607 320.44C99.3997 320.919 100.325 321.228 101.283 321.349C102.242 321.471 103.214 321.402 104.146 321.147L114.6 318.285C116.794 324.234 119.642 329.921 123.089 335.241L114.528 341.899C113.742 342.482 113.08 343.217 112.581 344.06C112.083 344.903 111.758 345.837 111.625 346.807C111.492 347.778 111.554 348.765 111.808 349.711C112.062 350.657 112.503 351.543 113.104 352.316C113.704 353.089 114.454 353.734 115.307 354.213C116.161 354.692 117.101 354.996 118.074 355.106C119.046 355.216 120.031 355.13 120.969 354.854C121.908 354.577 122.782 354.116 123.54 353.496L132.093 346.838C136.36 351.465 141.122 355.609 146.292 359.196L140.923 368.613C140.106 370.294 139.96 372.223 140.514 374.008C141.068 375.793 142.281 377.3 143.906 378.221C145.531 379.142 147.446 379.409 149.26 378.967C151.075 378.525 152.653 377.408 153.673 375.842L159.034 366.441C164.798 369.099 170.841 371.104 177.05 372.418L175.704 383.19C175.518 385.096 176.082 386.999 177.277 388.494C178.471 389.99 180.201 390.959 182.099 391.197C183.997 391.435 185.913 390.921 187.438 389.766C188.964 388.612 189.979 386.906 190.267 385.014L191.614 374.241C197.891 374.497 204.177 374.059 210.358 372.933L213.209 383.373C213.449 384.32 213.874 385.209 214.461 385.99C215.048 386.77 215.785 387.425 216.628 387.917C217.471 388.41 218.403 388.729 219.371 388.856C220.338 388.983 221.321 388.915 222.263 388.658C223.204 388.4 224.084 387.957 224.853 387.355C225.621 386.753 226.261 386.003 226.737 385.15C227.212 384.297 227.513 383.358 227.622 382.387C227.73 381.416 227.644 380.434 227.369 379.497L224.51 369.041C230.461 366.843 236.15 363.99 241.473 360.536L248.133 369.097C248.715 369.884 249.449 370.546 250.291 371.045C251.133 371.544 252.066 371.87 253.036 372.003C254.006 372.136 254.992 372.073 255.937 371.819C256.882 371.565 257.767 371.124 258.539 370.523C259.312 369.921 259.956 369.171 260.435 368.317C260.913 367.463 261.217 366.521 261.327 365.548C261.436 364.574 261.351 363.589 261.075 362.649C260.799 361.71 260.338 360.835 259.719 360.076L253.067 351.515C257.679 347.245 261.808 342.482 265.381 337.31L274.789 342.684C276.475 343.587 278.448 343.796 280.285 343.266C282.123 342.735 283.682 341.508 284.629 339.845C285.577 338.182 285.838 336.214 285.358 334.361C284.878 332.507 283.694 330.915 282.059 329.922L272.659 324.563C275.316 318.792 277.319 312.74 278.63 306.522L289.392 307.869C291.296 308.056 293.197 307.491 294.691 306.295C296.185 305.1 297.153 303.368 297.391 301.468C297.628 299.568 297.115 297.651 295.962 296.124C294.808 294.597 293.104 293.581 291.213 293.292H291.221ZM141.232 251.914C142.963 249.383 145.404 247.424 148.248 246.282C151.091 245.141 154.209 244.869 157.207 245.501C160.204 246.133 162.948 247.641 165.089 249.834C167.231 252.027 168.675 254.806 169.239 257.82C169.802 260.834 169.46 263.948 168.256 266.768C167.052 269.587 165.039 271.986 162.473 273.661C159.907 275.336 156.902 276.211 153.838 276.177C150.775 276.142 147.791 275.199 145.263 273.467C143.584 272.317 142.148 270.847 141.037 269.141C139.927 267.435 139.162 265.527 138.788 263.526C138.413 261.525 138.437 259.469 138.856 257.476C139.275 255.484 140.083 253.594 141.232 251.914ZM156.611 323.699C153.836 324.999 150.738 325.446 147.709 324.983C144.68 324.52 141.857 323.169 139.595 321.1C137.334 319.031 135.736 316.337 135.005 313.359C134.273 310.381 134.44 307.252 135.485 304.369C136.529 301.486 138.405 298.978 140.873 297.162C143.342 295.346 146.294 294.303 149.355 294.166C152.415 294.029 155.448 294.804 158.069 296.392C160.69 297.981 162.781 300.311 164.079 303.09C165.816 306.812 166.006 311.073 164.608 314.936C163.209 318.798 160.336 321.948 156.619 323.691L156.611 323.699ZM203.001 224.043C206.041 224.424 208.899 225.698 211.215 227.704C213.531 229.71 215.201 232.359 216.013 235.315C216.826 238.271 216.744 241.402 215.779 244.312C214.815 247.222 213.01 249.78 210.593 251.663C208.176 253.546 205.255 254.67 202.2 254.892C199.145 255.114 196.093 254.425 193.43 252.911C190.766 251.397 188.611 249.127 187.236 246.387C185.861 243.647 185.329 240.561 185.706 237.518C185.957 235.497 186.603 233.544 187.608 231.772C188.613 230 189.957 228.444 191.563 227.193C193.17 225.941 195.007 225.019 196.969 224.478C198.932 223.938 200.982 223.79 203.001 224.043ZM186.846 353.251C183.807 352.87 180.949 351.596 178.633 349.59C176.317 347.583 174.647 344.935 173.835 341.978C173.022 339.022 173.104 335.892 174.068 332.982C175.033 330.072 176.838 327.514 179.255 325.631C181.672 323.747 184.593 322.624 187.648 322.402C190.703 322.179 193.755 322.869 196.418 324.383C199.082 325.897 201.237 328.167 202.612 330.907C203.987 333.646 204.519 336.732 204.142 339.775C203.628 343.853 201.518 347.561 198.275 350.083C195.032 352.605 190.922 353.736 186.846 353.227V353.251ZM192.524 307.822C188.738 307.348 185.177 305.761 182.291 303.262C179.406 300.762 177.325 297.463 176.312 293.78C175.3 290.098 175.4 286.197 176.602 282.572C177.803 278.946 180.051 275.759 183.062 273.412C186.072 271.065 189.71 269.664 193.516 269.387C197.322 269.109 201.125 269.967 204.443 271.852C207.762 273.737 210.448 276.564 212.162 279.977C213.876 283.39 214.541 287.234 214.073 291.025C213.759 293.543 212.953 295.974 211.701 298.18C210.449 300.386 208.775 302.323 206.775 303.881C204.775 305.44 202.487 306.588 200.044 307.262C197.6 307.935 195.048 308.12 192.532 307.806L192.524 307.822ZM233.221 253.594C235.996 252.294 239.094 251.848 242.123 252.31C245.152 252.773 247.975 254.125 250.237 256.194C252.498 258.263 254.096 260.957 254.827 263.935C255.559 266.913 255.392 270.041 254.347 272.924C253.303 275.807 251.427 278.316 248.959 280.132C246.49 281.948 243.538 282.99 240.477 283.127C237.417 283.264 234.384 282.49 231.763 280.901C229.142 279.313 227.051 276.982 225.753 274.204C224.891 272.358 224.4 270.361 224.309 268.325C224.218 266.29 224.529 264.256 225.223 262.341C225.917 260.426 226.981 258.666 228.355 257.163C229.729 255.659 231.385 254.441 233.229 253.578L233.221 253.594ZM248.608 325.38C246.879 327.911 244.439 329.872 241.596 331.015C238.754 332.158 235.636 332.432 232.638 331.802C229.64 331.172 226.896 329.666 224.753 327.475C222.61 325.283 221.164 322.505 220.598 319.492C220.032 316.478 220.372 313.364 221.574 310.544C222.776 307.723 224.787 305.323 227.352 303.646C229.917 301.97 232.921 301.092 235.984 301.124C239.047 301.156 242.032 302.097 244.561 303.827C247.948 306.146 250.278 309.715 251.038 313.752C251.798 317.788 250.927 321.962 248.616 325.356L248.608 325.38Z" fill="#B8B8E8"/>
        </g>
    </g>
    <path d="M274.495 319.957L241.971 318.673L262.038 248.996L292.004 254.91L274.495 319.957Z" fill="url(#paint1_linear)"/>
    <path d="M422.219 238.326C422.219 224.24 416.629 210.732 406.679 200.772C396.728 190.812 383.233 185.216 369.161 185.216H308.872C294.8 185.216 281.304 190.812 271.354 200.772C261.404 210.732 255.813 224.24 255.813 238.326V261.155L289.264 266.229V360.986L408.844 353.06V259.316L422.219 262.249V238.326Z" fill="#E8443C"/>
    <path d="M336.638 205.692C338.613 205.692 340.567 205.291 342.383 204.513C344.199 203.735 345.838 202.597 347.202 201.167C348.565 199.737 349.625 198.044 350.317 196.193C351.008 194.341 351.317 192.368 351.225 190.393L349.768 159.122L322.843 161.745L322.051 190.663C321.996 192.615 322.332 194.559 323.04 196.379C323.749 198.2 324.814 199.859 326.174 201.26C327.534 202.661 329.16 203.775 330.958 204.537C332.755 205.298 334.686 205.691 336.638 205.692Z" fill="#E7A585"/>
    <path d="M363.413 148.563C363.413 149.54 363.195 150.506 362.774 151.388C362.354 152.271 361.742 153.048 360.983 153.663C360.224 154.279 359.337 154.717 358.388 154.945C357.438 155.173 356.449 155.187 355.494 154.984L355.272 154.928L354.955 154.841L354.599 154.722C354.364 154.634 354.134 154.533 353.91 154.421C352.655 153.788 351.636 152.768 351.004 151.512C350.767 151.701 350.544 151.908 350.338 152.13C349.327 153.229 348.216 154.232 347.02 155.126C342.775 158.297 334.286 157.885 331.182 153.858C330.349 152.727 329.122 151.952 327.745 151.686C326.266 151.442 324.748 151.722 323.453 152.479C321.077 153.802 319.659 153.271 318.749 151.908C318.527 151.519 318.313 151.115 318.107 150.719C316.635 147.765 315.871 144.508 315.874 141.207C315.982 135.621 318.274 130.301 322.258 126.39C326.242 122.478 331.6 120.287 337.181 120.287C342.761 120.287 348.119 122.478 352.103 126.39C356.088 130.301 358.38 135.621 358.487 141.207C358.487 141.555 358.487 141.896 358.487 142.237C359.891 142.598 361.136 143.415 362.028 144.559C362.919 145.704 363.406 147.112 363.413 148.563Z" fill="#E7A585"/>
    <path d="M353.894 154.413C351.74 157.138 348.954 159.294 345.778 160.695C342.602 162.096 339.132 162.699 335.67 162.451C332.207 162.203 328.858 161.113 325.913 159.274C322.969 157.435 320.517 154.904 318.772 151.9C319.691 153.224 321.069 153.795 323.476 152.471C324.771 151.715 326.289 151.434 327.769 151.678C329.146 151.944 330.373 152.72 331.206 153.85C334.286 157.885 342.775 158.297 347.044 155.119C348.24 154.225 349.351 153.222 350.362 152.122C350.568 151.9 350.791 151.693 351.027 151.504C351.649 152.754 352.654 153.773 353.894 154.413Z" fill="url(#paint2_linear)"/>
    <path d="M355.516 154.983L353.14 164.789C350.036 176.608 336.93 184.194 323.839 181.729C317.172 180.468 313.307 174.864 313.545 165.019C313.782 155.174 315.706 151.075 316.839 147.58C317.175 148.653 317.596 149.697 318.098 150.703C318.275 151.118 318.49 151.516 318.74 151.892C319.658 153.216 321.036 153.786 323.444 152.463C324.738 151.706 326.256 151.426 327.736 151.67C329.113 151.936 330.34 152.711 331.173 153.842C334.253 157.877 342.743 158.289 347.011 155.11C348.207 154.216 349.318 153.213 350.329 152.114C350.535 151.891 350.758 151.685 350.994 151.495C351.623 152.749 352.636 153.769 353.885 154.405C354.107 154.522 354.337 154.623 354.574 154.706C354.69 154.753 354.809 154.792 354.93 154.825C355.034 154.861 355.139 154.89 355.247 154.912L355.469 154.967L355.516 154.983Z" fill="#020203"/>
    <path d="M323.381 114.255C330.627 113.312 342.387 116.245 350.647 117.291C354.868 117.83 358.447 119.923 359.358 123.03C360.213 125.987 360.673 136.783 358.352 142.19C357.328 141.947 356.26 141.957 355.24 142.22C354.221 142.482 353.28 142.989 352.5 143.696C351.447 140.787 352.334 134.826 339.972 132.733C336.216 133.915 332.341 134.676 328.418 135C322.185 135.793 314.915 132.574 314.211 126.843C313.506 121.112 317.149 115.048 323.381 114.255Z" fill="#020203"/>
    <path d="M376.843 262.94H289.328V265.825H376.843V262.94Z" fill="url(#paint3_linear)"/>
    <path d="M376.843 272.999H289.328V275.884H376.843V272.999Z" fill="url(#paint4_linear)"/>
    <path d="M376.843 283.05H289.328V285.935H376.843V283.05Z" fill="url(#paint5_linear)"/>
    <path d="M376.843 293.109H289.328V295.994H376.843V293.109Z" fill="url(#paint6_linear)"/>
    <path d="M489.233 381.24H363.151V304.785C363.151 282.677 364.537 264.754 386.624 264.754H458.593C466.722 264.754 474.517 267.986 480.264 273.739C486.012 279.493 489.241 287.295 489.241 295.431L489.233 381.24Z" fill="#9595CB"/>
    <path d="M382.11 200.88C382.11 200.88 375.172 202.774 375.774 211.613C376.305 219.08 375.941 259.023 375.774 271.199C375.774 274.616 376.479 278.278 378.99 280.6C381.08 282.535 381.405 283.953 394.685 284.619C415.275 285.65 406.635 240.086 406.635 240.086L382.11 200.88Z" fill="#020202"/>
    <path d="M405.93 264.763H412.931C428.202 264.763 442.848 270.835 453.646 281.644C464.444 292.453 470.511 307.113 470.511 322.399V380.527H348.35V322.399C348.35 314.83 349.839 307.335 352.733 300.343C355.626 293.35 359.868 286.996 365.215 281.644C370.561 276.292 376.909 272.046 383.895 269.15C390.881 266.254 398.368 264.763 405.93 264.763Z" fill="#FF8888"/>
    <path d="M448.386 315.946H469.514C469.781 315.946 470.037 316.052 470.225 316.241C470.414 316.43 470.52 316.686 470.52 316.953V380.978H448.386V315.978V315.946Z" fill="#FF8888"/>
    <path d="M385.443 248.029C383.385 248.048 381.398 247.274 379.893 245.867C378.389 244.46 377.483 242.529 377.362 240.472C377.24 238.414 377.914 236.389 379.243 234.816C380.572 233.242 382.455 232.24 384.501 232.017C384.501 232.017 384.501 232.017 384.549 232.017C384.596 232.017 384.707 232.167 384.77 232.223L384.929 232.357L384.517 232.413C382.627 232.647 380.892 233.581 379.656 235.031C378.419 236.481 377.768 238.342 377.833 240.247C377.898 242.153 378.672 243.965 380.004 245.328C381.337 246.69 383.13 247.505 385.032 247.61C386.934 247.716 388.806 247.106 390.281 245.899C391.756 244.693 392.726 242.977 393.001 241.091C393.276 239.204 392.836 237.283 391.767 235.705C390.698 234.127 389.078 233.006 387.225 232.564C387.174 232.551 387.129 232.518 387.102 232.473C387.075 232.428 387.066 232.373 387.079 232.322C387.091 232.27 387.124 232.226 387.169 232.198C387.214 232.171 387.269 232.163 387.32 232.175C389.232 232.634 390.909 233.78 392.033 235.394C393.158 237.008 393.651 238.979 393.421 240.933C393.191 242.887 392.252 244.689 390.783 245.997C389.314 247.305 387.417 248.028 385.451 248.029H385.443Z" fill="url(#paint7_linear)"/>
    <path d="M367.317 314.361H345.017V363.959H367.317V314.361Z" fill="url(#paint8_linear)"/>
    <path d="M395.833 273.387C395.833 274.939 396.139 276.476 396.732 277.91C397.325 279.344 398.195 280.647 399.292 281.744C400.388 282.842 401.69 283.712 403.122 284.306C404.555 284.9 406.09 285.206 407.641 285.206H409.351C410.902 285.206 412.437 284.9 413.87 284.306C415.302 283.712 416.604 282.842 417.7 281.744C418.797 280.647 419.667 279.344 420.26 277.91C420.853 276.476 421.159 274.939 421.159 273.387V238.136H395.817V273.387H395.833Z" fill="url(#paint9_linear)"/>
    <path d="M402.05 245.897C415.889 245.897 427.107 234.668 427.107 220.816C427.107 206.964 415.889 195.735 402.05 195.735C388.212 195.735 376.994 206.964 376.994 220.816C376.994 234.668 388.212 245.897 402.05 245.897Z" fill="url(#paint10_linear)"/>
    <path d="M421.928 198.304C426.683 198.304 430.537 194.446 430.537 189.687C430.537 184.929 426.683 181.071 421.928 181.071C417.174 181.071 413.32 184.929 413.32 189.687C413.32 194.446 417.174 198.304 421.928 198.304Z" fill="#523042"/>
    <path d="M379.583 201.506C379.583 201.506 388.413 217.915 405.431 219.809C422.45 221.704 406.31 236.765 406.69 245.683C407.364 261.536 413.628 287.227 439.476 285.967C449.707 285.468 455.591 280.91 458.973 275.591C461.365 271.721 462.577 267.236 462.46 262.687C462.343 258.137 460.903 253.721 458.316 249.979C448.472 235.481 423.764 199.485 419.939 197.091C414.895 193.936 380.217 193.302 379.583 201.506Z" fill="#523042"/>
    <path d="M409.493 248.029C407.435 248.048 405.448 247.274 403.943 245.867C402.439 244.46 401.532 242.529 401.411 240.472C401.29 238.414 401.964 236.389 403.293 234.816C404.622 233.242 406.504 232.24 408.551 232.017C408.551 232.017 408.551 232.017 408.598 232.017C408.646 232.017 408.757 232.167 408.82 232.223L408.979 232.357L408.567 232.413C406.676 232.647 404.942 233.581 403.705 235.031C402.468 236.481 401.818 238.342 401.883 240.247C401.947 242.153 402.722 243.965 404.054 245.328C405.386 246.69 407.18 247.505 409.082 247.61C410.983 247.716 412.856 247.106 414.331 245.899C415.805 244.693 416.776 242.977 417.051 241.091C417.326 239.204 416.886 237.283 415.817 235.705C414.748 234.127 413.128 233.006 411.275 232.564C411.224 232.551 411.179 232.518 411.152 232.473C411.124 232.428 411.116 232.373 411.129 232.322C411.141 232.27 411.174 232.226 411.219 232.198C411.264 232.171 411.319 232.163 411.37 232.175C413.282 232.634 414.959 233.78 416.083 235.394C417.207 237.008 417.701 238.979 417.471 240.933C417.24 242.887 416.302 244.689 414.833 245.997C413.364 247.305 411.467 248.028 409.501 248.029H409.493Z" fill="url(#paint11_linear)"/>
    <path d="M409.241 294.457C409.771 294.457 410.2 294.027 410.2 293.498C410.2 292.968 409.771 292.539 409.241 292.539C408.712 292.539 408.283 292.968 408.283 293.498C408.283 294.027 408.712 294.457 409.241 294.457Z" fill="white"/>
    <path d="M409.241 302.725C409.771 302.725 410.2 302.295 410.2 301.766C410.2 301.236 409.771 300.806 409.241 300.806C408.712 300.806 408.283 301.236 408.283 301.766C408.283 302.295 408.712 302.725 409.241 302.725Z" fill="white"/>
    <path d="M409.241 310.992C409.771 310.992 410.2 310.563 410.2 310.033C410.2 309.503 409.771 309.074 409.241 309.074C408.712 309.074 408.283 309.503 408.283 310.033C408.283 310.563 408.712 310.992 409.241 310.992Z" fill="white"/>
    <g opacity="0.44">
        <path opacity="0.44" d="M448.386 343.786H368.006V345.228H448.386V343.786Z" fill="url(#paint12_linear)"/>
    </g>
    <g opacity="0.44">
        <path opacity="0.44" d="M448.386 353.021H368.006V354.463H448.386V353.021Z" fill="url(#paint13_linear)"/>
    </g>
    <g opacity="0.44">
        <path opacity="0.44" d="M448.386 362.255H368.006V363.698H448.386V362.255Z" fill="url(#paint14_linear)"/>
    </g>
    <g opacity="0.44">
        <path opacity="0.44" d="M448.386 371.49H368.006V372.933H448.386V371.49Z" fill="url(#paint15_linear)"/>
    </g>
    <path d="M301.722 356.77C304.327 356.765 306.885 356.067 309.132 354.747C311.379 353.426 313.235 351.531 314.51 349.256C315.784 346.981 316.431 344.408 316.384 341.8C316.337 339.192 315.597 336.643 314.242 334.416L270.322 262.424C269.317 260.777 267.998 259.344 266.441 258.207C264.883 257.069 263.116 256.251 261.242 255.797C259.368 255.343 257.423 255.263 255.518 255.562C253.613 255.86 251.786 256.532 250.14 257.537C248.494 258.543 247.062 259.863 245.926 261.422C244.79 262.982 243.972 264.75 243.519 266.626C243.066 268.502 242.986 270.449 243.284 272.355C243.583 274.262 244.253 276.091 245.258 277.739L289.178 349.731C290.489 351.883 292.332 353.661 294.529 354.894C296.726 356.126 299.203 356.773 301.722 356.77Z" fill="#273271"/>
    <path d="M252.329 254.141H201.1C185.602 254.141 178.641 269.122 179.164 278.611L190.932 375.319C191.173 377.508 192.216 379.53 193.86 380.995C195.505 382.459 197.633 383.261 199.833 383.245L260.518 382.794C262.758 382.777 264.91 381.915 266.542 380.379C268.175 378.843 269.168 376.747 269.324 374.51L273.244 280.719C274.266 265.999 269.3 254.141 252.329 254.141Z" fill="#273271"/>
    <path d="M247.548 362.723C243.762 361.684 240.112 360.519 236.271 361.613C235.203 361.862 234.122 362.044 233.032 362.16L214.58 358.577L215.214 372.941L232.406 372.774L237.482 372.814H265.081C265.073 369.817 256.813 365.275 247.548 362.723Z" fill="#F2B3A5"/>
    <path d="M216.345 380.526L155.066 380.217C151.399 380.246 147.845 378.942 145.065 376.547C142.801 374.527 141.227 371.849 140.562 368.887C139.897 365.926 140.176 362.83 141.358 360.035L181.216 267.711C182.672 264.356 185.372 261.698 188.747 260.296C192.123 258.894 195.91 258.859 199.311 260.197C201.065 260.886 202.663 261.92 204.011 263.237C205.359 264.555 206.43 266.129 207.16 267.868C207.89 269.607 208.265 271.474 208.262 273.36C208.259 275.246 207.878 277.112 207.143 278.849L176.504 351.427L216.662 358.474L216.345 380.526Z" fill="#273271"/>
    <path d="M281.939 380.519H222.015V380.075C222.015 378.151 222.778 376.306 224.137 374.946C225.496 373.586 227.339 372.822 229.261 372.822H281.939V380.519Z" fill="#7F8080"/>
    <path d="M277.125 380.519H367.451C369.984 380.52 372.446 379.69 374.463 378.157C376.48 376.623 377.939 374.471 378.617 372.029L396.23 308.685C396.592 307.38 396.648 306.008 396.394 304.677C396.139 303.347 395.58 302.093 394.762 301.014C393.943 299.935 392.886 299.06 391.673 298.457C390.461 297.855 389.126 297.541 387.772 297.54H305.967C304.278 297.541 302.638 298.101 301.301 299.134C299.964 300.166 299.007 301.613 298.578 303.248L277.125 380.519Z" fill="#CCC9C5"/>
    <path d="M340.368 350.579C345.087 350.579 348.913 346.749 348.913 342.026C348.913 337.302 345.087 333.473 340.368 333.473C335.649 333.473 331.823 337.302 331.823 342.026C331.823 346.749 335.649 350.579 340.368 350.579Z" fill="white"/>
    <path d="M258.301 246.784L198.321 247.934L200.982 216.908C201.228 212.925 201.954 208.985 203.144 205.176C207.523 193.032 217.327 184.091 229.372 184.107C243.777 184.234 254.643 195.45 256.298 212.223C257.264 221.712 258.301 246.784 258.301 246.784Z" fill="#1A1D23"/>
    <path d="M217.843 225.232H241.973V258.699C241.973 261.718 240.775 264.613 238.642 266.748C236.509 268.883 233.617 270.082 230.601 270.082H229.207C226.191 270.082 223.298 268.883 221.166 266.748C219.033 264.613 217.835 261.718 217.835 258.699V225.232H217.843Z" fill="#F2B3A5"/>
    <path d="M248.696 225.913L242.899 235.615H253.78L248.696 225.913Z" fill="#FF8888"/>
    <path d="M230.837 238.779C243.21 238.779 253.24 228.739 253.24 216.354C253.24 203.969 243.21 193.928 230.837 193.928C218.464 193.928 208.434 203.969 208.434 216.354C208.434 228.739 218.464 238.779 230.837 238.779Z" fill="url(#paint16_linear)"/>
    <path d="M253.755 211.351C245.408 209.925 241.742 208.926 232.001 208.926L232.215 192.66L250.374 195.109L253.755 211.351Z" fill="#1A1D23"/>
    <path d="M218.12 194.625C215.316 195.925 211.103 200.238 209.654 202.798C208.205 205.358 206.795 210.876 206.257 213.674C205.061 219.88 204.309 238.889 204.309 238.889L215.886 239.523C215.886 239.523 214.865 230.859 214.984 227.974C214.984 227.601 215.031 227.181 215.063 226.69C213.207 226.119 211.643 224.855 210.694 223.16C209.746 221.465 209.486 219.469 209.97 217.588C210.453 215.706 211.642 214.083 213.289 213.056C214.937 212.029 216.916 211.677 218.817 212.072C222.515 211.026 227.528 206.801 229.111 203.947C230.482 201.506 233.974 193.857 233.974 193.857C233.974 193.857 221.953 192.858 218.12 194.625Z" fill="#1A1D23"/>
    <path d="M213.217 226.809C214.433 226.809 215.419 225.822 215.419 224.605C215.419 223.388 214.433 222.402 213.217 222.402C212.001 222.402 211.016 223.388 211.016 224.605C211.016 225.822 212.001 226.809 213.217 226.809Z" fill="#FF8888"/>
    <path d="M213.217 225.24L207.412 234.942H218.301L213.217 225.24Z" fill="#FF8888"/>
    <g opacity="0.72">
        <path opacity="0.72" d="M219.371 297.549C220.215 297.549 220.9 296.864 220.9 296.019C220.9 295.174 220.215 294.489 219.371 294.489C218.527 294.489 217.843 295.174 217.843 296.019C217.843 296.864 218.527 297.549 219.371 297.549Z" fill="white"/>
        <path opacity="0.72" d="M199.865 333.537C200.709 333.537 201.394 332.852 201.394 332.007C201.394 331.162 200.709 330.477 199.865 330.477C199.021 330.477 198.337 331.162 198.337 332.007C198.337 332.852 199.021 333.537 199.865 333.537Z" fill="white"/>
        <path opacity="0.72" d="M255.086 315.868C255.93 315.868 256.614 315.183 256.614 314.338C256.614 313.493 255.93 312.808 255.086 312.808C254.242 312.808 253.558 313.493 253.558 314.338C253.558 315.183 254.242 315.868 255.086 315.868Z" fill="white"/>
        <path opacity="0.72" d="M229.293 328.368C230.137 328.368 230.821 327.683 230.821 326.838C230.821 325.994 230.137 325.309 229.293 325.309C228.449 325.309 227.765 325.994 227.765 326.838C227.765 327.683 228.449 328.368 229.293 328.368Z" fill="white"/>
        <path opacity="0.72" d="M256.614 355.613C257.458 355.613 258.143 354.928 258.143 354.083C258.143 353.238 257.458 352.553 256.614 352.553C255.77 352.553 255.086 353.238 255.086 354.083C255.086 354.928 255.77 355.613 256.614 355.613Z" fill="white"/>
        <path opacity="0.72" d="M177.716 315.059C178.56 315.059 179.244 314.374 179.244 313.529C179.244 312.684 178.56 311.999 177.716 311.999C176.872 311.999 176.188 312.684 176.188 313.529C176.188 314.374 176.872 315.059 177.716 315.059Z" fill="white"/>
        <path opacity="0.72" d="M190.449 279.467C191.293 279.467 191.978 278.783 191.978 277.938C191.978 277.093 191.293 276.408 190.449 276.408C189.605 276.408 188.921 277.093 188.921 277.938C188.921 278.783 189.605 279.467 190.449 279.467Z" fill="white"/>
        <path opacity="0.72" d="M256.614 274.268C257.458 274.268 258.143 273.583 258.143 272.738C258.143 271.893 257.458 271.208 256.614 271.208C255.77 271.208 255.086 271.893 255.086 272.738C255.086 273.583 255.77 274.268 256.614 274.268Z" fill="white"/>
        <path opacity="0.72" d="M281.282 299.078C282.126 299.078 282.811 298.393 282.811 297.548C282.811 296.704 282.126 296.019 281.282 296.019C280.438 296.019 279.754 296.704 279.754 297.548C279.754 298.393 280.438 299.078 281.282 299.078Z" fill="white"/>
        <path opacity="0.72" d="M155.13 340.56C155.974 340.56 156.658 339.875 156.658 339.03C156.658 338.185 155.974 337.5 155.13 337.5C154.286 337.5 153.602 338.185 153.602 339.03C153.602 339.875 154.286 340.56 155.13 340.56Z" fill="white"/>
        <path opacity="0.72" d="M172.987 369.818C173.832 369.818 174.516 369.133 174.516 368.288C174.516 367.443 173.832 366.758 172.987 366.758C172.143 366.758 171.459 367.443 171.459 368.288C171.459 369.133 172.143 369.818 172.987 369.818Z" fill="white"/>
        <path opacity="0.72" d="M196.809 361.439C197.653 361.439 198.337 360.754 198.337 359.909C198.337 359.064 197.653 358.379 196.809 358.379C195.965 358.379 195.28 359.064 195.28 359.909C195.28 360.754 195.965 361.439 196.809 361.439Z" fill="white"/>
    </g>
    <path d="M102.34 391.038H533.144C535.662 391.038 537.705 388.66 537.705 385.774C537.705 382.865 535.662 380.511 533.144 380.511H102.34C99.8219 380.511 97.7787 382.889 97.7787 385.774H97.7471C97.7471 388.683 99.8219 391.038 102.34 391.038Z" fill="#9595CB"/>
    <path d="M493.486 116.554H434.409C427.345 116.554 421.611 123.07 421.611 131.108V151.646C421.611 159.684 427.337 166.2 434.409 166.2H448.513L448.584 178.677L461.833 166.057C462.799 165.915 497.081 165.645 497.968 165.265C502.823 163.204 506.283 157.885 506.283 151.646V131.1C506.283 123.062 500.55 116.554 493.486 116.554Z" fill="#F6BC73"/>
    <path d="M104.502 171.535H170.683C174.294 171.535 177.224 175.253 177.224 179.843V212.208C177.224 216.798 174.294 220.515 170.683 220.515H161.734L162.605 234.506L143.496 220.515H104.502C100.891 220.515 97.9609 216.798 97.9609 212.208V179.843C97.9609 175.293 100.915 171.535 104.502 171.535Z" fill="#F6BC73"/>
    <path opacity="0.47" d="M169.069 203.433H106.277V206.239H169.069V203.433Z" fill="url(#paint17_linear)"/>
    <path opacity="0.47" d="M169.069 194.285H106.277V197.091H169.069V194.285Z" fill="url(#paint18_linear)"/>
    <path opacity="0.47" d="M169.069 185.137H106.277V187.943H169.069V185.137Z" fill="url(#paint19_linear)"/>
    <path opacity="0.39" d="M418.561 57.7999C418.558 52.5596 417.214 47.4073 414.656 42.8349C412.099 38.2625 408.413 34.4226 403.951 31.6817C399.489 28.9407 394.4 27.3902 389.169 27.1782C383.938 26.9662 378.74 28.0997 374.071 30.4705C369.402 32.8413 365.418 36.3704 362.5 40.7208C359.581 45.0712 357.825 50.0978 357.399 55.3208C356.974 60.5438 357.892 65.7888 360.068 70.5553C362.243 75.3217 365.603 79.4505 369.826 82.5476C371.667 83.8689 373.17 85.6064 374.213 87.6188C375.256 89.6312 375.809 91.8617 375.829 94.1287V100.209H399.277V94.755C399.26 92.4648 399.798 90.2045 400.844 88.168C401.891 86.1315 403.416 84.3797 405.288 83.0628C409.384 80.2478 412.733 76.4762 415.046 72.0745C417.358 67.6727 418.565 62.7732 418.561 57.7999Z" fill="#E1E1F5"/>
    <path d="M399.358 100.201H374.983C374.196 100.201 373.558 100.84 373.558 101.628V101.802C373.558 102.59 374.196 103.229 374.983 103.229H399.358C400.146 103.229 400.784 102.59 400.784 101.802V101.628C400.784 100.84 400.146 100.201 399.358 100.201Z" fill="url(#paint20_linear)"/>
    <path d="M399.358 103.229H374.983C374.196 103.229 373.558 103.868 373.558 104.656V104.83C373.558 105.619 374.196 106.257 374.983 106.257H399.358C400.146 106.257 400.784 105.619 400.784 104.83V104.656C400.784 103.868 400.146 103.229 399.358 103.229Z" fill="url(#paint21_linear)"/>
    <path d="M399.358 106.257H374.983C374.196 106.257 373.558 106.896 373.558 107.684V107.859C373.558 108.647 374.196 109.285 374.983 109.285H399.358C400.146 109.285 400.784 108.647 400.784 107.859V107.684C400.784 106.896 400.146 106.257 399.358 106.257Z" fill="url(#paint22_linear)"/>
    <path d="M399.358 109.285H374.983C374.196 109.285 373.558 109.924 373.558 110.712V110.886C373.558 111.674 374.196 112.313 374.983 112.313H399.358C400.146 112.313 400.784 111.674 400.784 110.886V110.712C400.784 109.924 400.146 109.285 399.358 109.285Z" fill="url(#paint23_linear)"/>
    <path d="M375.149 112.543H399.192C399.412 112.543 399.624 112.631 399.78 112.787C399.936 112.943 400.023 113.155 400.023 113.376V113.851C400.023 115.712 399.285 117.496 397.97 118.812C396.656 120.128 394.873 120.867 393.015 120.867H381.318C379.459 120.867 377.677 120.128 376.362 118.812C375.048 117.496 374.31 115.712 374.31 113.851V113.376C374.31 113.266 374.331 113.157 374.374 113.055C374.416 112.954 374.478 112.862 374.556 112.784C374.634 112.707 374.727 112.646 374.828 112.605C374.93 112.563 375.039 112.542 375.149 112.543Z" fill="url(#paint24_linear)"/>
    <g opacity="0.56">
        <path opacity="0.55" d="M360.166 31.2684C360.083 31.268 360.001 31.251 359.925 31.2184C359.849 31.1857 359.78 31.138 359.723 31.0781L354.045 25.236C353.988 25.1777 353.943 25.1088 353.913 25.0332C353.883 24.9577 353.868 24.8769 353.869 24.7956C353.871 24.6313 353.939 24.4747 354.056 24.3601C354.174 24.2455 354.332 24.1824 354.496 24.1846C354.66 24.1869 354.817 24.2543 354.931 24.372L360.609 30.2299C360.696 30.3169 360.754 30.4276 360.778 30.5479C360.801 30.6683 360.788 30.7929 360.741 30.9059C360.693 31.0189 360.613 31.1152 360.511 31.1825C360.409 31.2499 360.289 31.2853 360.166 31.2842V31.2684Z" fill="url(#paint25_linear)"/>
        <path opacity="0.55" d="M418.531 93.2807C418.445 93.2816 418.359 93.2644 418.28 93.2302C418.201 93.1961 418.13 93.1458 418.072 93.0825L412.599 87.1057C412.488 86.9837 412.43 86.8225 412.437 86.6575C412.445 86.4925 412.517 86.3372 412.639 86.2258C412.761 86.1144 412.922 86.0559 413.087 86.0634C413.252 86.0708 413.407 86.1435 413.518 86.2654L418.99 92.2423C419.072 92.3309 419.126 92.4416 419.146 92.5608C419.166 92.6799 419.151 92.8023 419.102 92.9127C419.053 93.0232 418.973 93.1169 418.871 93.1823C418.77 93.2477 418.652 93.2819 418.531 93.2807Z" fill="url(#paint26_linear)"/>
        <path opacity="0.55" d="M349.855 48.7873C349.8 48.7947 349.744 48.7947 349.689 48.7873L341.897 46.5599C341.818 46.5375 341.745 46.4998 341.681 46.4491C341.617 46.3983 341.564 46.3355 341.524 46.2641C341.484 46.1927 341.459 46.1141 341.449 46.033C341.44 45.9518 341.447 45.8696 341.469 45.791C341.491 45.7124 341.529 45.6389 341.58 45.5749C341.63 45.5109 341.693 45.4574 341.765 45.4177C341.836 45.3779 341.914 45.3526 341.995 45.3432C342.077 45.3338 342.159 45.3405 342.237 45.3629L350.03 47.5666C350.181 47.6006 350.313 47.69 350.401 47.8171C350.49 47.9443 350.527 48.0999 350.506 48.2533C350.485 48.4067 350.408 48.5467 350.289 48.6455C350.17 48.7444 350.018 48.795 349.863 48.7873H349.855Z" fill="url(#paint27_linear)"/>
        <path opacity="0.55" d="M431.384 73.289C431.321 73.2988 431.257 73.2988 431.194 73.289L423.472 70.8555C423.394 70.831 423.322 70.7914 423.259 70.7389C423.197 70.6865 423.145 70.6221 423.107 70.5496C423.069 70.4771 423.046 70.3979 423.039 70.3164C423.031 70.2349 423.04 70.1527 423.065 70.0747C423.089 69.9966 423.129 69.9241 423.181 69.8613C423.233 69.7986 423.298 69.7468 423.37 69.7088C423.443 69.6709 423.522 69.6477 423.603 69.6404C423.685 69.6331 423.767 69.642 423.845 69.6664L431.566 72.1C431.711 72.1412 431.836 72.2342 431.918 72.3614C431.999 72.4887 432.031 72.6414 432.008 72.7907C431.984 72.94 431.907 73.0755 431.791 73.1717C431.674 73.2679 431.527 73.3181 431.376 73.3128L431.384 73.289Z" fill="url(#paint28_linear)"/>
        <path opacity="0.55" d="M342.015 71.006C341.863 71.009 341.714 70.9552 341.599 70.855C341.483 70.7548 341.409 70.6153 341.39 70.4635C341.372 70.3118 341.41 70.1584 341.497 70.0331C341.585 69.9079 341.716 69.8196 341.865 69.7853L349.713 67.7956C349.873 67.7557 350.041 67.7809 350.183 67.8656C350.324 67.9503 350.425 68.0877 350.465 68.2475C350.505 68.4072 350.48 68.5763 350.395 68.7176C350.311 68.8588 350.173 68.9606 350.014 69.0005L342.166 70.9902L342.015 71.006Z" fill="url(#paint29_linear)"/>
        <path opacity="0.55" d="M424.811 51.2048C424.651 51.2175 424.492 51.1673 424.368 51.0648C424.245 50.9623 424.166 50.8156 424.148 50.6558C424.131 50.496 424.176 50.3357 424.275 50.2088C424.373 50.0819 424.517 49.9984 424.676 49.9761L432.596 48.2243C432.675 48.2066 432.757 48.2047 432.838 48.2189C432.918 48.233 432.995 48.2628 433.063 48.3066C433.132 48.3504 433.192 48.4073 433.238 48.4741C433.285 48.5409 433.318 48.6163 433.336 48.6959C433.354 48.7755 433.356 48.8579 433.341 48.9382C433.327 49.0186 433.298 49.0954 433.254 49.1642C433.21 49.233 433.153 49.2925 433.086 49.3393C433.02 49.3862 432.944 49.4194 432.865 49.4371L424.946 51.1889L424.811 51.2048Z" fill="url(#paint30_linear)"/>
        <path opacity="0.55" d="M354.181 91.9727C354.055 91.9756 353.932 91.9403 353.828 91.8716C353.723 91.8028 353.642 91.7039 353.594 91.5878C353.547 91.4718 353.536 91.3441 353.563 91.2218C353.59 91.0994 353.654 90.9881 353.745 90.9026L359.55 85.2507C359.608 85.194 359.677 85.1493 359.752 85.1192C359.828 85.0891 359.909 85.0741 359.99 85.0753C360.071 85.0764 360.151 85.0935 360.226 85.1256C360.301 85.1578 360.368 85.2043 360.425 85.2626C360.482 85.3209 360.526 85.3898 360.556 85.4654C360.586 85.5409 360.601 85.6217 360.6 85.703C360.599 85.7844 360.582 85.8647 360.55 85.9394C360.518 86.0141 360.471 86.0818 360.413 86.1385L354.608 91.7904C354.495 91.9046 354.341 91.97 354.181 91.9727Z" fill="url(#paint31_linear)"/>
        <path opacity="0.55" d="M415.957 33.4012C415.832 33.4026 415.709 33.3656 415.605 33.2953C415.501 33.2249 415.421 33.1245 415.375 33.0074C415.33 32.8903 415.321 32.7621 415.35 32.6399C415.379 32.5176 415.444 32.4071 415.538 32.3231L421.509 26.8457C421.631 26.7342 421.792 26.6758 421.957 26.6832C422.121 26.6907 422.277 26.7634 422.388 26.8853C422.499 27.0072 422.558 27.1684 422.55 27.3334C422.543 27.4985 422.47 27.6538 422.348 27.7652L416.377 33.2426C416.262 33.3463 416.112 33.4029 415.957 33.4012Z" fill="url(#paint32_linear)"/>
        <path opacity="0.55" d="M399.271 22.3036C399.175 22.3038 399.08 22.2815 398.994 22.2386C398.908 22.1957 398.834 22.1332 398.776 22.0563C398.718 21.9793 398.679 21.8899 398.662 21.7952C398.645 21.7006 398.65 21.6032 398.677 21.5109L401.109 13.7822C401.133 13.7041 401.173 13.6316 401.225 13.5689C401.277 13.5061 401.342 13.4543 401.414 13.4164C401.487 13.3785 401.566 13.3552 401.647 13.3479C401.729 13.3407 401.811 13.3495 401.889 13.374C401.967 13.3984 402.039 13.438 402.102 13.4905C402.164 13.543 402.216 13.6073 402.254 13.6798C402.292 13.7523 402.315 13.8316 402.322 13.9131C402.33 13.9946 402.321 14.0767 402.296 14.1548L399.865 21.8835C399.823 22.0074 399.743 22.1148 399.637 22.1903C399.53 22.2658 399.402 22.3054 399.271 22.3036Z" fill="url(#paint33_linear)"/>
        <path opacity="0.55" d="M379.077 21.1542C378.937 21.154 378.801 21.106 378.691 21.0181C378.582 20.9302 378.506 20.8077 378.475 20.6707L376.717 12.7914C376.699 12.7117 376.697 12.6294 376.712 12.549C376.726 12.4687 376.755 12.3919 376.799 12.3231C376.843 12.2543 376.9 12.1947 376.967 12.1479C377.033 12.1011 377.109 12.0679 377.188 12.0502C377.268 12.0325 377.35 12.0307 377.43 12.0448C377.51 12.0589 377.587 12.0887 377.656 12.1325C377.725 12.1763 377.784 12.2332 377.831 12.3C377.878 12.3668 377.911 12.4422 377.929 12.5218L379.679 20.4487C379.697 20.5289 379.7 20.612 379.686 20.6932C379.672 20.7743 379.642 20.8519 379.598 20.9213C379.553 20.9907 379.496 21.0506 379.428 21.0974C379.36 21.1442 379.284 21.177 379.204 21.1938L379.077 21.1542Z" fill="url(#paint34_linear)"/>
    </g>
    <path opacity="0.55" d="M385.674 99.8125H383.63C383.448 96.8479 383.274 93.9467 383.1 91.0375C382.696 84.3314 382.308 77.6252 381.92 70.9191C381.88 70.1264 381.532 69.8569 380.867 69.5081C379.226 68.7275 377.684 67.7535 376.273 66.6069C375.537 65.9246 374.989 65.0629 374.684 64.1058C374.378 63.1487 374.326 62.1287 374.531 61.1453C374.678 60.0992 375.211 59.146 376.024 58.4728C376.837 57.7995 377.872 57.455 378.926 57.5068C379.96 57.4369 380.982 57.7571 381.791 58.4042C382.6 59.0512 383.138 59.9783 383.298 61.0026C383.599 63.0636 383.678 65.1563 383.781 67.2331C383.781 68.0258 384.018 68.3984 384.842 68.3904C386.426 68.3904 388.081 68.3904 389.696 68.3904C390.599 68.3904 390.892 68.0575 390.916 67.1301C390.971 65.1325 391.106 63.1666 391.344 61.1453C391.423 60.3242 391.757 59.5485 392.297 58.9261C392.838 58.3037 393.56 57.8658 394.361 57.6733C395.157 57.3996 396.015 57.3586 396.834 57.5552C397.653 57.7517 398.4 58.1776 398.986 58.7831C400.467 60.2971 400.506 62.1441 399.912 64.0386C399.009 66.9398 396.745 68.4618 394.084 69.4368C393.674 69.5252 393.31 69.7578 393.057 70.0924C392.804 70.427 392.679 70.8413 392.706 71.26C392.278 79.2582 391.795 87.2564 391.32 95.2546C391.233 96.7448 391.122 98.243 391.019 99.8046H389.008L390.694 70.4752H383.987L385.674 99.8125ZM392.943 67.4868C396.016 66.8685 398.257 64.3874 398.154 61.8428C398.157 61.2525 397.941 60.6821 397.547 60.2425C397.154 59.803 396.611 59.5258 396.024 59.4648C395.725 59.4127 395.418 59.4208 395.122 59.4886C394.826 59.5564 394.546 59.6825 394.299 59.8595C394.052 60.0366 393.843 60.2611 393.684 60.52C393.524 60.7788 393.418 61.0668 393.371 61.3672C393.133 63.4203 393.078 65.4496 392.943 67.4868ZM381.738 67.5423C381.603 65.4733 381.532 63.5313 381.334 61.5971C381.309 61.284 381.22 60.9793 381.073 60.7017C380.926 60.4241 380.724 60.1795 380.48 59.9828C380.235 59.7861 379.953 59.6415 379.65 59.5579C379.348 59.4743 379.031 59.4534 378.72 59.4965C378.093 59.5412 377.508 59.8334 377.096 60.309C376.683 60.7845 376.475 61.4046 376.519 62.0331C376.503 64.4746 378.507 66.6386 381.738 67.5581V67.5423Z" fill="white"/>
    <path d="M503.074 348.153H487.576C487.576 348.153 481.304 355.2 479.166 357.507C478.028 358.702 477.292 360.223 477.059 361.857C476.826 363.491 477.109 365.157 477.867 366.623L485.232 380.392H505.339L512.704 366.623C513.47 365.16 513.76 363.495 513.534 361.859C513.308 360.223 512.578 358.699 511.445 357.499C509.346 355.232 503.074 348.153 503.074 348.153Z" fill="#F59E35"/>
    <path d="M506.481 336.755C506.329 336.434 506.117 336.147 505.855 335.909C505.592 335.671 505.286 335.488 504.953 335.368C504.62 335.249 504.266 335.197 503.913 335.214C503.559 335.232 503.213 335.319 502.893 335.471L501.088 336.327V334.472C501.088 332.954 500.485 331.498 499.413 330.425C498.341 329.352 496.886 328.749 495.37 328.749C493.854 328.749 492.399 329.352 491.327 330.425C490.255 331.498 489.652 332.954 489.652 334.472V348.146H501.088V342.288L505.198 340.338C505.842 340.032 506.339 339.483 506.579 338.812C506.819 338.14 506.784 337.4 506.481 336.755Z" fill="#133E2E"/>
    <path d="M485.36 357.396C485.692 357.396 485.961 357.126 485.961 356.793C485.961 356.461 485.692 356.191 485.36 356.191C485.027 356.191 484.758 356.461 484.758 356.793C484.758 357.126 485.027 357.396 485.36 357.396Z" fill="#840202"/>
    <path d="M489.652 376.397C489.984 376.397 490.254 376.127 490.254 375.794C490.254 375.462 489.984 375.192 489.652 375.192C489.319 375.192 489.05 375.462 489.05 375.794C489.05 376.127 489.319 376.397 489.652 376.397Z" fill="#840202"/>
    <path d="M490.721 355.279C491.312 355.279 491.79 354.8 491.79 354.209C491.79 353.618 491.312 353.139 490.721 353.139C490.131 353.139 489.652 353.618 489.652 354.209C489.652 354.8 490.131 355.279 490.721 355.279Z" fill="#840202"/>
    <path d="M505.221 362.976C505.812 362.976 506.291 362.497 506.291 361.906C506.291 361.315 505.812 360.836 505.221 360.836C504.631 360.836 504.152 361.315 504.152 361.906C504.152 362.497 504.631 362.976 505.221 362.976Z" fill="#840202"/>
    <path d="M501.951 370.674C502.454 370.674 502.861 370.265 502.861 369.762C502.861 369.258 502.454 368.85 501.951 368.85C501.448 368.85 501.04 369.258 501.04 369.762C501.04 370.265 501.448 370.674 501.951 370.674Z" fill="#840202"/>
    <path d="M484.291 368.534C484.881 368.534 485.36 368.054 485.36 367.463C485.36 366.872 484.881 366.393 484.291 366.393C483.7 366.393 483.222 366.872 483.222 367.463C483.222 368.054 483.7 368.534 484.291 368.534Z" fill="#840202"/>
    <path d="M491.196 364.871C491.528 364.871 491.797 364.601 491.797 364.268C491.797 363.936 491.528 363.666 491.196 363.666C490.863 363.666 490.594 363.936 490.594 364.268C490.594 364.601 490.863 364.871 491.196 364.871Z" fill="#840202"/>
    <path d="M505.824 357.396C506.156 357.396 506.425 357.126 506.425 356.793C506.425 356.461 506.156 356.191 505.824 356.191C505.491 356.191 505.222 356.461 505.222 356.793C505.222 357.126 505.491 357.396 505.824 357.396Z" fill="#840202"/>
    <path d="M493.113 372.814C493.445 372.814 493.714 372.544 493.714 372.212C493.714 371.879 493.445 371.609 493.113 371.609C492.78 371.609 492.511 371.879 492.511 372.212C492.511 372.544 492.78 372.814 493.113 372.814Z" fill="#840202"/>
    <path d="M495.924 370.808C496.257 370.808 496.526 370.538 496.526 370.206C496.526 369.873 496.257 369.603 495.924 369.603C495.592 369.603 495.322 369.873 495.322 370.206C495.322 370.538 495.592 370.808 495.924 370.808Z" fill="#840202"/>
    <path d="M503.17 378.926C503.503 378.926 503.772 378.656 503.772 378.323C503.772 377.99 503.503 377.721 503.17 377.721C502.838 377.721 502.568 377.99 502.568 378.323C502.568 378.656 502.838 378.926 503.17 378.926Z" fill="#840202"/>
    <path d="M499.836 356.794C500.169 356.794 500.438 356.524 500.438 356.191C500.438 355.859 500.169 355.589 499.836 355.589C499.504 355.589 499.234 355.859 499.234 356.191C499.234 356.524 499.504 356.794 499.836 356.794Z" fill="#840202"/>
    <path d="M499.234 363.579C499.566 363.579 499.836 363.309 499.836 362.977C499.836 362.644 499.566 362.374 499.234 362.374C498.901 362.374 498.632 362.644 498.632 362.977C498.632 363.309 498.901 363.579 499.234 363.579Z" fill="#840202"/>
    <path d="M499.234 376.999C499.566 376.999 499.836 376.729 499.836 376.397C499.836 376.064 499.566 375.794 499.234 375.794C498.901 375.794 498.632 376.064 498.632 376.397C498.632 376.729 498.901 376.999 499.234 376.999Z" fill="#840202"/>
    <path d="M506.29 369.136C506.623 369.136 506.892 368.866 506.892 368.533C506.892 368.2 506.623 367.931 506.29 367.931C505.958 367.931 505.688 368.2 505.688 368.533C505.688 368.866 505.958 369.136 506.29 369.136Z" fill="#840202"/>
    <path d="M495.227 331.103C496.429 331.103 497.404 330.006 497.404 328.653C497.404 327.3 496.429 326.204 495.227 326.204C494.024 326.204 493.049 327.3 493.049 328.653C493.049 330.006 494.024 331.103 495.227 331.103Z" fill="#E8443C"/>
    <path d="M501.285 330.841C501.532 329.937 501.082 329.027 500.281 328.807C499.479 328.587 498.629 329.142 498.382 330.045C498.135 330.949 498.584 331.86 499.386 332.079C500.187 332.299 501.037 331.744 501.285 330.841Z" fill="#E8443C"/>
    <path d="M444.876 128.411H483.456V153.146H444.876V128.411Z" fill="#B8B8E8"/>
    <path d="M444.876 128.411H483.456L464.166 145.922L444.876 128.411Z" fill="#9595CB"/>
    <defs>
        <linearGradient id="paint0_linear" x1="184.593" y1="288.639" x2="205.247" y2="288.639" gradientUnits="userSpaceOnUse">
            <stop offset="0.03" stop-color="#B4BFEB"/>
            <stop offset="0.37" stop-color="#C3CDF0"/>
            <stop offset="1" stop-color="#E9EFFD"/>
        </linearGradient>
        <linearGradient id="paint1_linear" x1="261.708" y1="244.759" x2="271.563" y2="332.914" gradientUnits="userSpaceOnUse">
            <stop offset="0.07" stop-color="#E9DDCC"/>
            <stop offset="0.8" stop-color="#E58056"/>
        </linearGradient>
        <linearGradient id="paint2_linear" x1="11220.9" y1="2241.99" x2="11212.1" y2="2085.69" gradientUnits="userSpaceOnUse">
            <stop offset="0.07" stop-color="#EBDECE"/>
            <stop offset="0.8" stop-color="#E58056"/>
        </linearGradient>
        <linearGradient id="paint3_linear" x1="289.328" y1="264.382" x2="376.835" y2="264.382" gradientUnits="userSpaceOnUse">
            <stop stop-color="white"/>
            <stop offset="1" stop-color="white"/>
        </linearGradient>
        <linearGradient id="paint4_linear" x1="22073.5" y1="1228.29" x2="31743.9" y2="1228.29" gradientUnits="userSpaceOnUse">
            <stop stop-color="white"/>
            <stop offset="1" stop-color="white"/>
        </linearGradient>
        <linearGradient id="paint5_linear" x1="22073.5" y1="1274.92" x2="31743.9" y2="1274.92" gradientUnits="userSpaceOnUse">
            <stop stop-color="white"/>
            <stop offset="1" stop-color="white"/>
        </linearGradient>
        <linearGradient id="paint6_linear" x1="22073.5" y1="1321.59" x2="31743.9" y2="1321.59" gradientUnits="userSpaceOnUse">
            <stop stop-color="white"/>
            <stop offset="1" stop-color="white"/>
        </linearGradient>
        <linearGradient id="paint7_linear" x1="377.413" y1="240.023" x2="393.466" y2="240.023" gradientUnits="userSpaceOnUse">
            <stop stop-color="#F7F7F7"/>
            <stop offset="0.03" stop-color="#C7C7C6"/>
            <stop offset="0.06" stop-color="#9F9F9E"/>
            <stop offset="0.08" stop-color="#80807F"/>
            <stop offset="0.11" stop-color="#6A6A68"/>
            <stop offset="0.13" stop-color="#5D5D5B"/>
            <stop offset="0.16" stop-color="#585856"/>
            <stop offset="0.2" stop-color="#696968"/>
            <stop offset="0.37" stop-color="#A9A9A8"/>
            <stop offset="0.51" stop-color="#D8D8D7"/>
            <stop offset="0.62" stop-color="#F4F4F4"/>
            <stop offset="0.68" stop-color="white"/>
            <stop offset="0.7" stop-color="#D4D4D3"/>
            <stop offset="0.74" stop-color="#A8A8A7"/>
            <stop offset="0.77" stop-color="#858584"/>
            <stop offset="0.8" stop-color="#6C6C6A"/>
            <stop offset="0.82" stop-color="#5D5D5B"/>
            <stop offset="0.84" stop-color="#585856"/>
        </linearGradient>
        <linearGradient id="paint8_linear" x1="7491.64" y1="18937.6" x2="9617.77" y2="21709.4" gradientUnits="userSpaceOnUse">
            <stop offset="0.07" stop-color="#E9DDCC"/>
            <stop offset="0.8" stop-color="#E58056"/>
        </linearGradient>
        <linearGradient id="paint9_linear" x1="10520" y1="16515.3" x2="10506.9" y2="14220.7" gradientUnits="userSpaceOnUse">
            <stop offset="0.07" stop-color="#E9DDCC"/>
            <stop offset="0.8" stop-color="#E58056"/>
        </linearGradient>
        <linearGradient id="paint10_linear" x1="19989.1" y1="15048" x2="19980.5" y2="12175.7" gradientUnits="userSpaceOnUse">
            <stop offset="0.07" stop-color="#E9DDCC"/>
            <stop offset="0.8" stop-color="#E58056"/>
        </linearGradient>
        <linearGradient id="paint11_linear" x1="6700.12" y1="4838.21" x2="7027.05" y2="4838.21" gradientUnits="userSpaceOnUse">
            <stop stop-color="#F7F7F7"/>
            <stop offset="0.03" stop-color="#C7C7C6"/>
            <stop offset="0.06" stop-color="#9F9F9E"/>
            <stop offset="0.08" stop-color="#80807F"/>
            <stop offset="0.11" stop-color="#6A6A68"/>
            <stop offset="0.13" stop-color="#5D5D5B"/>
            <stop offset="0.16" stop-color="#585856"/>
            <stop offset="0.2" stop-color="#696968"/>
            <stop offset="0.37" stop-color="#A9A9A8"/>
            <stop offset="0.51" stop-color="#D8D8D7"/>
            <stop offset="0.62" stop-color="#F4F4F4"/>
            <stop offset="0.68" stop-color="white"/>
            <stop offset="0.7" stop-color="#D4D4D3"/>
            <stop offset="0.74" stop-color="#A8A8A7"/>
            <stop offset="0.77" stop-color="#858584"/>
            <stop offset="0.8" stop-color="#6C6C6A"/>
            <stop offset="0.82" stop-color="#5D5D5B"/>
            <stop offset="0.84" stop-color="#585856"/>
        </linearGradient>
        <linearGradient id="paint12_linear" x1="28361.9" y1="948.944" x2="36520.4" y2="948.944" gradientUnits="userSpaceOnUse">
            <stop stop-color="white"/>
            <stop offset="1" stop-color="white"/>
        </linearGradient>
        <linearGradient id="paint13_linear" x1="28361.9" y1="975" x2="36520.4" y2="975" gradientUnits="userSpaceOnUse">
            <stop stop-color="white"/>
            <stop offset="1" stop-color="white"/>
        </linearGradient>
        <linearGradient id="paint14_linear" x1="28361.9" y1="1001.01" x2="36520.4" y2="1001.01" gradientUnits="userSpaceOnUse">
            <stop stop-color="white"/>
            <stop offset="1" stop-color="white"/>
        </linearGradient>
        <linearGradient id="paint15_linear" x1="28361.9" y1="1027.06" x2="36520.4" y2="1027.06" gradientUnits="userSpaceOnUse">
            <stop stop-color="white"/>
            <stop offset="1" stop-color="white"/>
        </linearGradient>
        <linearGradient id="paint16_linear" x1="69487.3" y1="50778.2" x2="70614.2" y2="50778.2" gradientUnits="userSpaceOnUse">
            <stop stop-color="#F2B3A5"/>
            <stop offset="0.32" stop-color="#F2B5A8"/>
            <stop offset="0.51" stop-color="#F4BCB0"/>
            <stop offset="0.67" stop-color="#F6C8BE"/>
            <stop offset="0.8" stop-color="#F9D9D2"/>
            <stop offset="0.93" stop-color="#FCEFEC"/>
            <stop offset="1" stop-color="white"/>
        </linearGradient>
        <linearGradient id="paint17_linear" x1="106.277" y1="204.836" x2="169.069" y2="204.836" gradientUnits="userSpaceOnUse">
            <stop offset="0.22" stop-color="white"/>
            <stop offset="1" stop-color="white"/>
        </linearGradient>
        <linearGradient id="paint18_linear" x1="56421.8" y1="-1154.42" x2="61400.6" y2="-1154.42" gradientUnits="userSpaceOnUse">
            <stop offset="0.22" stop-color="white"/>
            <stop offset="1" stop-color="white"/>
        </linearGradient>
        <linearGradient id="paint19_linear" x1="56421.8" y1="-1131.18" x2="61400.6" y2="-1131.18" gradientUnits="userSpaceOnUse">
            <stop offset="0.22" stop-color="white"/>
            <stop offset="1" stop-color="white"/>
        </linearGradient>
        <linearGradient id="paint20_linear" x1="387.171" y1="100.106" x2="387.171" y2="104.743" gradientUnits="userSpaceOnUse">
            <stop offset="0.07" stop-color="#B4AFB9"/>
            <stop offset="0.17" stop-color="#A7A5B6"/>
            <stop offset="0.44" stop-color="#898DB0"/>
            <stop offset="0.68" stop-color="#777EAC"/>
            <stop offset="0.84" stop-color="#7079AB"/>
        </linearGradient>
        <linearGradient id="paint21_linear" x1="10514.5" y1="451.367" x2="10514.5" y2="469.081" gradientUnits="userSpaceOnUse">
            <stop offset="0.07" stop-color="#B4AFB9"/>
            <stop offset="0.17" stop-color="#A7A5B6"/>
            <stop offset="0.44" stop-color="#898DB0"/>
            <stop offset="0.68" stop-color="#777EAC"/>
            <stop offset="0.84" stop-color="#7079AB"/>
        </linearGradient>
        <linearGradient id="paint22_linear" x1="10514.5" y1="465.96" x2="10514.5" y2="483.674" gradientUnits="userSpaceOnUse">
            <stop offset="0.07" stop-color="#B4AFB9"/>
            <stop offset="0.17" stop-color="#A7A5B6"/>
            <stop offset="0.44" stop-color="#898DB0"/>
            <stop offset="0.68" stop-color="#777EAC"/>
            <stop offset="0.84" stop-color="#7079AB"/>
        </linearGradient>
        <linearGradient id="paint23_linear" x1="10514.5" y1="480.557" x2="10514.5" y2="498.271" gradientUnits="userSpaceOnUse">
            <stop offset="0.07" stop-color="#B4AFB9"/>
            <stop offset="0.17" stop-color="#A7A5B6"/>
            <stop offset="0.44" stop-color="#898DB0"/>
            <stop offset="0.68" stop-color="#777EAC"/>
            <stop offset="0.84" stop-color="#7079AB"/>
        </linearGradient>
        <linearGradient id="paint24_linear" x1="9951.85" y1="1165.52" x2="9951.85" y2="1299.44" gradientUnits="userSpaceOnUse">
            <stop offset="0.07" stop-color="#B4AFB9"/>
            <stop offset="0.17" stop-color="#A7A5B6"/>
            <stop offset="0.44" stop-color="#898DB0"/>
            <stop offset="0.68" stop-color="#777EAC"/>
            <stop offset="0.84" stop-color="#7079AB"/>
        </linearGradient>
        <linearGradient id="paint25_linear" x1="2640.4" y1="165.042" x2="2700.81" y2="165.042" gradientUnits="userSpaceOnUse">
            <stop offset="0.03" stop-color="#B4BFEB"/>
            <stop offset="0.37" stop-color="#C3CDF0"/>
            <stop offset="1" stop-color="#E9EFFD"/>
        </linearGradient>
        <linearGradient id="paint26_linear" x1="3129.14" y1="793.353" x2="3186.05" y2="793.353" gradientUnits="userSpaceOnUse">
            <stop offset="0.03" stop-color="#B4BFEB"/>
            <stop offset="0.37" stop-color="#C3CDF0"/>
            <stop offset="1" stop-color="#E9EFFD"/>
        </linearGradient>
        <linearGradient id="paint27_linear" x1="3194.93" y1="198.099" x2="3298.29" y2="198.099" gradientUnits="userSpaceOnUse">
            <stop offset="0.03" stop-color="#B4BFEB"/>
            <stop offset="0.37" stop-color="#C3CDF0"/>
            <stop offset="1" stop-color="#E9EFFD"/>
        </linearGradient>
        <linearGradient id="paint28_linear" x1="4174.15" y1="345.281" x2="4275.79" y2="345.281" gradientUnits="userSpaceOnUse">
            <stop offset="0.03" stop-color="#B4BFEB"/>
            <stop offset="0.37" stop-color="#C3CDF0"/>
            <stop offset="1" stop-color="#E9EFFD"/>
        </linearGradient>
        <linearGradient id="paint29_linear" x1="3204.24" y1="301.559" x2="3308.6" y2="301.559" gradientUnits="userSpaceOnUse">
            <stop offset="0.03" stop-color="#B4BFEB"/>
            <stop offset="0.37" stop-color="#C3CDF0"/>
            <stop offset="1" stop-color="#E9EFFD"/>
        </linearGradient>
        <linearGradient id="paint30_linear" x1="4283.33" y1="190.788" x2="4389.67" y2="190.788" gradientUnits="userSpaceOnUse">
            <stop offset="0.03" stop-color="#B4BFEB"/>
            <stop offset="0.37" stop-color="#C3CDF0"/>
            <stop offset="1" stop-color="#E9EFFD"/>
        </linearGradient>
        <linearGradient id="paint31_linear" x1="2680.65" y1="750.976" x2="2743.41" y2="750.976" gradientUnits="userSpaceOnUse">
            <stop offset="0.03" stop-color="#B4BFEB"/>
            <stop offset="0.37" stop-color="#C3CDF0"/>
            <stop offset="1" stop-color="#E9EFFD"/>
        </linearGradient>
        <linearGradient id="paint32_linear" x1="3360.45" y1="179.8" x2="3426.13" y2="179.8" gradientUnits="userSpaceOnUse">
            <stop offset="0.03" stop-color="#B4BFEB"/>
            <stop offset="0.37" stop-color="#C3CDF0"/>
            <stop offset="1" stop-color="#E9EFFD"/>
        </linearGradient>
        <linearGradient id="paint33_linear" x1="1819.79" y1="79.2777" x2="1836.84" y2="79.2777" gradientUnits="userSpaceOnUse">
            <stop offset="0.03" stop-color="#B4BFEB"/>
            <stop offset="0.37" stop-color="#C3CDF0"/>
            <stop offset="1" stop-color="#E9EFFD"/>
        </linearGradient>
        <linearGradient id="paint34_linear" x1="1451.82" y1="64.8796" x2="1463.13" y2="64.8796" gradientUnits="userSpaceOnUse">
            <stop offset="0.03" stop-color="#B4BFEB"/>
            <stop offset="0.37" stop-color="#C3CDF0"/>
            <stop offset="1" stop-color="#E9EFFD"/>
        </linearGradient>
    </defs>
</svg>
