<svg width="445" height="368" viewBox="0 0 445 368" fill="none" xmlns="http://www.w3.org/2000/svg">
    <g opacity="0.88">
        <g opacity="0.79">
            <path opacity="0.6" d="M438.408 245.877L431.903 245.462C431.903 243.286 431.735 241.141 431.519 239.019L437.932 237.836C438.703 237.693 439.439 237.4 440.097 236.973C440.755 236.547 441.322 235.994 441.767 235.348C442.211 234.701 442.525 233.974 442.688 233.206C442.852 232.439 442.863 231.646 442.721 230.875C442.579 230.103 442.286 229.367 441.859 228.708C441.433 228.049 440.881 227.481 440.235 227.036C439.59 226.591 438.863 226.278 438.096 226.114C437.329 225.95 436.538 225.939 435.767 226.081L429.377 227.265C428.594 224.278 427.624 221.344 426.474 218.478L432.257 215.573C432.958 215.219 433.582 214.731 434.095 214.136C434.607 213.541 434.998 212.851 435.244 212.105C435.49 211.359 435.587 210.572 435.529 209.789C435.471 209.005 435.259 208.241 434.906 207.539C434.553 206.838 434.066 206.212 433.471 205.699C432.877 205.186 432.188 204.796 431.442 204.549C430.697 204.303 429.911 204.206 429.128 204.264C428.345 204.322 427.582 204.534 426.881 204.887L421.075 207.808C419.846 205.779 418.502 203.826 417.089 201.927L421.996 197.622C423.114 196.558 423.778 195.102 423.848 193.559C423.918 192.017 423.389 190.506 422.371 189.345C421.354 188.184 419.928 187.462 418.39 187.329C416.853 187.197 415.324 187.665 414.124 188.636L409.217 192.941C407.64 191.403 405.999 189.94 404.294 188.551L407.996 183.17C408.44 182.523 408.753 181.795 408.917 181.027C409.081 180.26 409.092 179.467 408.95 178.695C408.807 177.923 408.515 177.187 408.088 176.528C407.661 175.869 407.109 175.301 406.463 174.856C405.817 174.411 405.09 174.097 404.323 173.933C403.556 173.769 402.764 173.758 401.993 173.901C401.222 174.043 400.486 174.336 399.828 174.763C399.17 175.19 398.602 175.743 398.157 176.389L394.463 181.771C392.084 180.393 389.63 179.148 387.113 178.042L389.241 171.892C389.498 171.151 389.606 170.366 389.559 169.583C389.513 168.799 389.313 168.033 388.971 167.327C388.628 166.621 388.151 165.989 387.564 165.468C386.978 164.947 386.295 164.546 385.554 164.289C384.814 164.032 384.03 163.924 383.247 163.97C382.464 164.017 381.698 164.217 380.993 164.56C380.288 164.902 379.657 165.381 379.136 165.967C378.616 166.554 378.216 167.238 377.959 167.979L375.824 174.129C373.417 173.494 370.979 172.981 368.52 172.592L369.004 166.104C369.062 165.321 368.966 164.534 368.721 163.788C368.476 163.043 368.086 162.352 367.575 161.757C367.063 161.163 366.439 160.674 365.739 160.321C365.039 159.967 364.276 159.755 363.494 159.696C362.711 159.638 361.925 159.734 361.18 159.979C360.435 160.225 359.746 160.615 359.152 161.127C358.557 161.639 358.069 162.263 357.716 162.964C357.363 163.665 357.151 164.429 357.092 165.212L356.608 171.715C353.63 171.731 350.655 171.924 347.7 172.292L346.379 165.911C346.036 164.378 345.104 163.041 343.784 162.189C342.465 161.338 340.863 161.041 339.326 161.362C337.789 161.683 336.44 162.597 335.571 163.906C334.702 165.215 334.383 166.813 334.682 168.356L336.003 174.737C333.891 175.352 331.833 176.067 329.797 176.866L326.948 170.993C326.257 169.566 325.027 168.472 323.53 167.952C322.033 167.432 320.391 167.529 318.965 168.222C317.539 168.914 316.446 170.144 315.927 171.643C315.408 173.142 315.505 174.785 316.196 176.213L319.038 182.086C316.65 183.495 314.343 185.034 312.126 186.698L307.809 181.794C307.291 181.205 306.662 180.724 305.958 180.378C305.254 180.032 304.488 179.829 303.706 179.779C302.923 179.73 302.138 179.835 301.396 180.089C300.654 180.343 299.969 180.741 299.381 181.259C298.792 181.778 298.311 182.408 297.966 183.113C297.621 183.818 297.418 184.584 297.368 185.367C297.318 186.151 297.424 186.936 297.677 187.679C297.931 188.422 298.328 189.107 298.847 189.697L303.163 194.601C301.443 196.377 299.807 198.23 298.263 200.167L292.887 196.546C292.236 196.109 291.505 195.806 290.736 195.652C289.967 195.498 289.175 195.497 288.406 195.65C287.637 195.802 286.905 196.105 286.253 196.54C285.601 196.975 285.04 197.535 284.604 198.187C284.168 198.839 283.864 199.571 283.711 200.341C283.557 201.11 283.556 201.903 283.709 202.673C283.861 203.443 284.163 204.175 284.598 204.828C285.033 205.481 285.592 206.042 286.244 206.478L291.62 210.091C290.458 212.141 289.395 214.276 288.433 216.495L282.289 214.358C281.543 214.081 280.751 213.955 279.956 213.988C279.162 214.021 278.382 214.213 277.663 214.552C276.943 214.891 276.299 215.37 275.767 215.961C275.234 216.552 274.826 217.244 274.564 217.995C274.302 218.747 274.193 219.543 274.243 220.337C274.292 221.132 274.5 221.908 274.853 222.621C275.206 223.334 275.698 223.969 276.3 224.489C276.901 225.01 277.601 225.405 278.357 225.651L284.501 227.796C283.8 230.5 283.252 233.241 282.857 236.006L276.367 235.591C274.816 235.54 273.306 236.095 272.157 237.139C271.008 238.183 270.309 239.634 270.21 241.184C270.11 242.734 270.617 244.262 271.622 245.445C272.628 246.628 274.055 247.373 275.599 247.522L282.104 247.937C282.104 250.105 282.281 252.25 282.488 254.379L276.076 255.563C275.266 255.662 274.485 255.925 273.78 256.338C273.076 256.75 272.464 257.303 271.981 257.961C271.498 258.619 271.155 259.37 270.973 260.166C270.791 260.962 270.774 261.787 270.923 262.59C271.071 263.393 271.383 264.157 271.838 264.835C272.293 265.513 272.881 266.09 273.568 266.532C274.254 266.973 275.024 267.269 275.829 267.402C276.634 267.534 277.458 267.5 278.249 267.302L284.639 266.125C285.43 269.113 286.407 272.047 287.565 274.912L281.782 277.826C281.081 278.179 280.457 278.667 279.945 279.262C279.433 279.857 279.043 280.547 278.798 281.292C278.552 282.038 278.455 282.825 278.513 283.607C278.571 284.39 278.783 285.154 279.136 285.855C279.489 286.557 279.977 287.181 280.571 287.694C281.165 288.206 281.854 288.597 282.599 288.843C283.344 289.089 284.13 289.185 284.912 289.127C285.694 289.069 286.457 288.857 287.158 288.504L292.964 285.583C294.193 287.612 295.537 289.565 296.95 291.456L292.042 295.761C290.902 296.82 290.22 298.283 290.141 299.838C290.061 301.394 290.591 302.918 291.617 304.089C292.643 305.259 294.085 305.983 295.636 306.106C297.187 306.229 298.725 305.741 299.922 304.747L304.83 300.442C306.407 301.98 308.048 303.443 309.752 304.832L306.051 310.213C305.235 311.519 304.954 313.09 305.266 314.598C305.579 316.106 306.46 317.435 307.727 318.309C308.994 319.183 310.549 319.534 312.068 319.289C313.587 319.044 314.953 318.222 315.881 316.994L319.575 311.612C321.955 312.99 324.408 314.234 326.925 315.341L324.79 321.491C324.495 322.241 324.355 323.043 324.378 323.849C324.401 324.655 324.586 325.448 324.923 326.18C325.259 326.912 325.74 327.569 326.337 328.11C326.934 328.652 327.633 329.067 328.394 329.331C329.155 329.595 329.962 329.702 330.765 329.646C331.568 329.59 332.352 329.372 333.069 329.005C333.787 328.639 334.422 328.13 334.938 327.512C335.454 326.893 335.84 326.176 336.072 325.404L338.199 319.254C340.607 319.888 343.044 320.401 345.503 320.791L345.019 327.279C344.952 328.832 345.492 330.35 346.524 331.512C347.555 332.673 348.998 333.387 350.547 333.502C352.095 333.617 353.628 333.124 354.819 332.127C356.011 331.131 356.768 329.709 356.931 328.164L357.415 321.668C360.396 321.652 363.373 321.459 366.331 321.091L367.652 327.472C367.974 329.023 368.898 330.383 370.222 331.253C371.546 332.122 373.16 332.429 374.71 332.107C376.26 331.785 377.619 330.86 378.488 329.535C379.356 328.21 379.663 326.594 379.341 325.042L378.02 318.662C380.132 318.047 382.191 317.332 384.226 316.532L387.075 322.406C387.418 323.112 387.896 323.745 388.482 324.266C389.069 324.788 389.752 325.189 390.493 325.446C391.235 325.704 392.019 325.812 392.803 325.766C393.586 325.72 394.352 325.52 395.058 325.177C395.764 324.834 396.396 324.356 396.917 323.769C397.439 323.181 397.839 322.497 398.096 321.755C398.353 321.013 398.462 320.228 398.416 319.444C398.37 318.66 398.17 317.892 397.827 317.186L394.986 311.343C397.373 309.935 399.68 308.395 401.898 306.731L406.214 311.635C406.732 312.224 407.361 312.706 408.065 313.051C408.77 313.397 409.535 313.6 410.318 313.65C411.1 313.7 411.885 313.594 412.627 313.34C413.369 313.086 414.054 312.689 414.643 312.17C415.231 311.651 415.712 311.021 416.057 310.316C416.402 309.611 416.606 308.845 416.655 308.062C416.705 307.278 416.6 306.493 416.346 305.75C416.092 305.007 415.695 304.322 415.176 303.733L410.86 298.828C412.573 297.052 414.216 295.2 415.76 293.262L421.136 296.883C421.788 297.32 422.519 297.624 423.288 297.777C424.056 297.931 424.848 297.932 425.617 297.78C426.386 297.627 427.118 297.325 427.77 296.889C428.423 296.454 428.983 295.894 429.419 295.242C429.855 294.59 430.159 293.858 430.312 293.088C430.466 292.319 430.467 291.526 430.315 290.756C430.162 289.987 429.86 289.254 429.425 288.601C428.99 287.948 428.431 287.388 427.779 286.951L422.403 283.338C423.566 281.288 424.628 279.153 425.59 276.934L431.734 279.071C432.475 279.33 433.259 279.44 434.041 279.395C434.824 279.35 435.59 279.151 436.296 278.81C437.002 278.469 437.634 277.992 438.156 277.406C438.678 276.82 439.08 276.138 439.338 275.397C439.596 274.656 439.706 273.871 439.661 273.087C439.616 272.304 439.418 271.537 439.077 270.83C438.736 270.124 438.259 269.491 437.674 268.969C437.089 268.446 436.407 268.044 435.667 267.786L429.523 265.641C430.231 262.93 430.788 260.181 431.189 257.408L437.679 257.823C438.462 257.874 439.246 257.769 439.989 257.516C440.731 257.263 441.416 256.866 442.005 256.348C442.595 255.829 443.076 255.2 443.422 254.496C443.768 253.791 443.972 253.025 444.023 252.242C444.073 251.459 443.969 250.673 443.716 249.93C443.463 249.187 443.066 248.501 442.549 247.911C442.031 247.321 441.402 246.84 440.698 246.493C439.995 246.147 439.23 245.943 438.447 245.892L438.408 245.877ZM367.791 182.386C376.898 183.917 385.575 187.369 393.248 192.513C400.921 197.657 407.414 204.375 412.296 212.221L386.361 225.29C381.302 218.359 373.956 213.444 365.625 211.414L367.791 182.386ZM355.879 181.525L353.728 210.483C344.891 211.284 336.655 215.302 330.581 221.776L306.465 205.633C312.442 198.245 319.964 192.258 328.501 188.093C337.038 183.928 346.383 181.686 355.879 181.525ZM296.382 270.492C293.637 263.49 292.129 256.063 291.927 248.544L292.695 236.613C293.84 229.225 296.254 222.09 299.83 215.526L323.953 231.67C322.962 233.84 322.19 236.104 321.649 238.427L320.881 250.358C321.121 252.755 321.6 255.122 322.309 257.423L296.382 270.492ZM346.256 310.997C337.149 309.467 328.472 306.016 320.799 300.873C313.126 295.731 306.633 289.015 301.75 281.17L327.685 268.101C332.743 275.034 340.089 279.952 348.421 281.985L346.256 310.997ZM356.839 262.912C353.626 262.877 350.496 261.889 347.844 260.073C345.193 258.257 343.139 255.695 341.942 252.71C340.745 249.726 340.46 246.453 341.121 243.306C341.783 240.159 343.362 237.279 345.659 235.03C347.956 232.782 350.868 231.265 354.025 230.673C357.183 230.081 360.446 230.439 363.4 231.703C366.355 232.967 368.868 235.08 370.623 237.774C372.378 240.468 373.295 243.622 373.259 246.838C373.236 248.972 372.793 251.082 371.955 253.045C371.117 255.009 369.901 256.787 368.376 258.28C366.851 259.773 365.047 260.95 363.068 261.745C361.088 262.54 358.972 262.936 356.839 262.912ZM358.16 311.828L360.31 282.869C369.145 282.081 377.384 278.077 383.465 271.614L407.581 287.758C401.605 295.146 394.083 301.134 385.546 305.299C377.009 309.464 367.663 311.706 358.167 311.866L358.16 311.828ZM421.374 256.762C420.229 264.148 417.815 271.28 414.239 277.841L390.116 261.698C391.107 259.53 391.879 257.269 392.42 254.948L393.188 243.017C392.95 240.62 392.471 238.253 391.76 235.952L417.703 222.883C420.447 229.886 421.955 237.312 422.158 244.831L421.374 256.762Z" fill="#B8B8E8"/>
        </g>
        <g opacity="0.77">
            <path opacity="0.6" d="M232.568 134.823L228.836 134.585C228.836 133.34 228.736 132.102 228.613 130.887L232.292 130.211C232.734 130.129 233.157 129.961 233.535 129.716C233.912 129.47 234.238 129.153 234.493 128.782C234.749 128.411 234.929 127.993 235.023 127.552C235.116 127.111 235.123 126.656 235.041 126.213C234.959 125.77 234.791 125.347 234.546 124.969C234.301 124.591 233.985 124.265 233.614 124.009C233.243 123.754 232.825 123.574 232.385 123.48C231.945 123.386 231.49 123.379 231.048 123.461L227.376 124.138C226.925 122.423 226.365 120.739 225.702 119.095L229.02 117.426C229.423 117.225 229.783 116.945 230.079 116.604C230.374 116.263 230.6 115.867 230.742 115.439C230.885 115.01 230.942 114.558 230.91 114.108C230.878 113.657 230.758 113.218 230.556 112.814C230.354 112.41 230.075 112.05 229.734 111.754C229.394 111.458 228.998 111.233 228.57 111.09C228.142 110.947 227.69 110.89 227.24 110.922C226.791 110.954 226.351 111.075 225.948 111.276L222.615 112.952C221.908 111.792 221.14 110.646 220.311 109.578L223.129 107.11C223.813 106.509 224.23 105.662 224.289 104.754C224.348 103.845 224.044 102.951 223.444 102.267C222.844 101.583 221.998 101.165 221.09 101.106C220.183 101.047 219.289 101.351 218.606 101.952L215.787 104.427C214.881 103.545 213.939 102.705 212.961 101.905L215.088 98.8304C215.344 98.4594 215.523 98.0417 215.617 97.6012C215.711 97.1607 215.717 96.706 215.636 96.2631C215.554 95.8201 215.386 95.3976 215.141 95.0197C214.896 94.6417 214.58 94.3157 214.209 94.0603C213.838 93.8049 213.421 93.6251 212.981 93.5311C212.541 93.4371 212.087 93.4308 211.644 93.5125C211.202 93.5943 210.78 93.7624 210.402 94.0075C210.024 94.2525 209.699 94.5695 209.444 94.9405L207.324 98.0155C205.959 97.2258 204.551 96.5123 203.108 95.8784L204.329 92.3422C204.476 91.9167 204.538 91.4663 204.511 91.0167C204.485 90.5672 204.37 90.1273 204.173 89.7222C203.977 89.3171 203.703 88.9547 203.366 88.6557C203.03 88.3567 202.638 88.1269 202.213 87.9795C201.788 87.8321 201.338 87.77 200.889 87.7967C200.44 87.8233 200 87.9383 199.595 88.1349C199.191 88.3316 198.829 88.6061 198.53 88.9429C198.231 89.2796 198.002 89.6719 197.854 90.0974L196.633 93.6337C195.251 93.2712 193.852 92.9787 192.44 92.7573L192.716 89.0366C192.75 88.5873 192.694 88.1359 192.553 87.7081C192.412 87.2803 192.188 86.8845 191.895 86.5433C191.301 85.8542 190.459 85.4292 189.552 85.3619C188.646 85.2947 187.75 85.5906 187.061 86.1845C186.373 86.7785 185.948 87.6219 185.881 88.5292L185.605 92.2576C183.895 92.2666 182.187 92.377 180.49 92.5882L179.722 88.9289C179.537 88.038 179.007 87.2568 178.247 86.7572C177.488 86.2577 176.561 86.0807 175.671 86.2652C174.78 86.4497 174 86.9806 173.501 87.7411C173.002 88.5016 172.825 89.4294 173.009 90.3204L173.777 93.9796C172.564 94.3332 171.381 94.7484 170.214 95.2019L168.578 91.8348C168.401 91.3999 168.137 91.006 167.802 90.6775C167.466 90.349 167.067 90.0929 166.629 89.9252C166.191 89.7575 165.723 89.6816 165.254 89.7023C164.786 89.723 164.326 89.8399 163.905 90.0457C163.483 90.2515 163.108 90.5418 162.803 90.8986C162.498 91.2554 162.269 91.6711 162.132 92.1199C161.994 92.5687 161.949 93.0412 162.001 93.5078C162.053 93.9745 162.201 94.4255 162.434 94.8329L164.07 98.2077C162.704 99.0132 161.384 99.8935 160.115 100.845L157.634 98.0309C157.033 97.3479 156.186 96.9318 155.278 96.8741C154.371 96.8165 153.478 97.122 152.796 97.7234C152.113 98.3249 151.698 99.173 151.64 100.081C151.582 100.99 151.887 101.884 152.488 102.567L154.969 105.38C153.986 106.403 153.041 107.463 152.158 108.578L149.086 106.495C148.712 106.242 148.292 106.066 147.85 105.976C147.407 105.887 146.952 105.885 146.509 105.971C145.615 106.146 144.826 106.669 144.317 107.425C143.808 108.181 143.619 109.109 143.794 110.005C143.968 110.9 144.49 111.689 145.246 112.199L148.318 114.275C147.653 115.464 147.043 116.688 146.49 117.949L142.973 116.727C142.548 116.578 142.098 116.515 141.648 116.541C141.199 116.567 140.759 116.681 140.353 116.877C139.948 117.073 139.585 117.347 139.285 117.683C138.986 118.019 138.755 118.412 138.607 118.837C138.458 119.263 138.395 119.713 138.421 120.163C138.447 120.613 138.561 121.053 138.757 121.459C138.952 121.865 139.226 122.228 139.562 122.528C139.898 122.828 140.29 123.059 140.715 123.207L144.248 124.437C143.84 125.994 143.519 127.573 143.288 129.165L139.563 128.927C138.655 128.869 137.762 129.174 137.079 129.775C136.397 130.376 135.981 131.224 135.923 132.133C135.864 133.041 136.169 133.935 136.77 134.618C137.37 135.302 138.218 135.718 139.125 135.776L142.858 136.015C142.858 137.26 142.957 138.49 143.08 139.712L139.402 140.389C138.959 140.471 138.537 140.639 138.159 140.884C137.781 141.129 137.455 141.447 137.2 141.818C136.944 142.189 136.765 142.607 136.671 143.048C136.577 143.488 136.57 143.943 136.652 144.386C136.734 144.83 136.902 145.252 137.147 145.631C137.392 146.009 137.709 146.335 138.08 146.59C138.45 146.846 138.868 147.026 139.308 147.12C139.748 147.214 140.203 147.22 140.646 147.139L144.317 146.462C144.772 148.177 145.333 149.861 145.999 151.505L142.681 153.173C142.278 153.375 141.918 153.655 141.622 153.996C141.327 154.337 141.101 154.733 140.959 155.161C140.816 155.589 140.759 156.042 140.791 156.492C140.823 156.942 140.943 157.382 141.145 157.786C141.347 158.19 141.626 158.55 141.967 158.845C142.307 159.141 142.703 159.367 143.131 159.51C143.559 159.653 144.011 159.71 144.46 159.678C144.91 159.646 145.35 159.525 145.753 159.323L149.086 157.647C149.793 158.808 150.561 159.954 151.39 161.022L148.572 163.498C148.233 163.795 147.957 164.156 147.758 164.56C147.559 164.965 147.441 165.404 147.412 165.854C147.383 166.304 147.442 166.755 147.587 167.181C147.732 167.608 147.96 168.002 148.257 168.341C148.554 168.679 148.914 168.956 149.318 169.155C149.722 169.354 150.161 169.472 150.611 169.501C151.06 169.531 151.511 169.471 151.937 169.326C152.363 169.181 152.757 168.953 153.095 168.656L155.914 166.18C156.82 167.062 157.762 167.902 158.74 168.702L156.613 171.777C156.357 172.148 156.178 172.566 156.084 173.006C155.99 173.447 155.984 173.901 156.065 174.344C156.147 174.787 156.315 175.21 156.56 175.588C156.805 175.966 157.121 176.292 157.492 176.547C157.863 176.802 158.28 176.982 158.72 177.076C159.16 177.17 159.614 177.177 160.057 177.095C160.499 177.013 160.921 176.845 161.299 176.6C161.677 176.355 162.002 176.038 162.257 175.667L164.377 172.592C165.742 173.381 167.15 174.095 168.593 174.729L167.372 178.265C167.225 178.691 167.163 179.142 167.19 179.592C167.217 180.042 167.332 180.482 167.529 180.888C167.726 181.293 168 181.656 168.337 181.955C168.674 182.254 169.066 182.484 169.492 182.632C169.918 182.779 170.368 182.841 170.818 182.814C171.267 182.787 171.707 182.672 172.112 182.475C172.517 182.278 172.88 182.003 173.178 181.666C173.477 181.329 173.707 180.936 173.854 180.51L175.075 176.974C176.458 177.336 177.857 177.628 179.269 177.85L178.992 181.571C178.925 182.478 179.221 183.375 179.814 184.064C180.407 184.753 181.25 185.178 182.156 185.245C183.063 185.313 183.959 185.017 184.647 184.423C185.336 183.829 185.76 182.986 185.827 182.078L186.089 178.35C187.799 178.341 189.506 178.23 191.203 178.019L191.971 181.678C192.063 182.12 192.24 182.538 192.493 182.911C192.746 183.284 193.07 183.603 193.446 183.85C193.822 184.098 194.243 184.268 194.685 184.353C195.128 184.437 195.582 184.434 196.023 184.342C196.463 184.251 196.882 184.073 197.254 183.82C197.626 183.567 197.945 183.243 198.192 182.866C198.439 182.49 198.61 182.068 198.694 181.626C198.779 181.183 198.775 180.728 198.684 180.287L197.916 176.628C199.129 176.274 200.312 175.859 201.479 175.405L203.115 178.773C203.292 179.208 203.556 179.601 203.892 179.93C204.227 180.258 204.626 180.514 205.064 180.682C205.502 180.85 205.97 180.926 206.439 180.905C206.908 180.884 207.367 180.767 207.789 180.562C208.21 180.356 208.585 180.066 208.89 179.709C209.195 179.352 209.424 178.936 209.562 178.487C209.7 178.039 209.744 177.566 209.692 177.1C209.64 176.633 209.493 176.182 209.259 175.774L207.623 172.4C208.989 171.594 210.31 170.714 211.579 169.763L214.059 172.576C214.66 173.259 215.507 173.676 216.415 173.733C217.322 173.791 218.215 173.485 218.898 172.884C219.58 172.283 219.996 171.434 220.053 170.526C220.111 169.618 219.806 168.724 219.205 168.041L216.732 165.227C217.715 164.205 218.66 163.144 219.543 162.029L222.615 164.113C222.989 164.365 223.409 164.541 223.851 164.631C224.294 164.721 224.749 164.723 225.192 164.636C225.635 164.55 226.056 164.377 226.432 164.128C226.809 163.878 227.132 163.557 227.384 163.182C227.636 162.808 227.812 162.387 227.902 161.945C227.992 161.502 227.994 161.046 227.907 160.603C227.821 160.159 227.648 159.738 227.399 159.361C227.15 158.985 226.829 158.661 226.455 158.408L223.383 156.333C224.048 155.144 224.658 153.919 225.211 152.658L228.728 153.881C229.587 154.18 230.529 154.126 231.348 153.731C232.167 153.335 232.795 152.63 233.094 151.77C233.394 150.911 233.34 149.968 232.944 149.148C232.549 148.328 231.845 147.7 230.986 147.4L227.453 146.17C227.858 144.616 228.176 143.04 228.406 141.45L232.13 141.688C233.038 141.746 233.931 141.441 234.614 140.84C235.297 140.239 235.713 139.391 235.771 138.482C235.829 137.574 235.524 136.68 234.923 135.997C234.323 135.313 233.476 134.897 232.568 134.839V134.823ZM192.033 98.3999C197.257 99.2765 202.236 101.254 206.64 104.201C211.044 107.149 214.771 110.999 217.577 115.497L202.693 123C199.79 119.024 195.576 116.203 190.796 115.036L192.033 98.3999ZM185.198 97.9079L183.961 114.536C178.889 114.995 174.161 117.301 170.675 121.017L156.851 111.738C160.277 107.496 164.589 104.058 169.485 101.663C174.381 99.2686 179.742 97.9763 185.19 97.8772L185.198 97.9079ZM151.037 148.984C149.45 144.956 148.576 140.681 148.456 136.353L148.886 129.503C149.542 125.261 150.927 121.165 152.98 117.396L166.804 126.682C166.24 127.917 165.8 129.204 165.491 130.526L165.061 137.375C165.199 138.753 165.474 140.112 165.882 141.434L151.037 148.984ZM179.668 172.2C174.44 171.321 169.458 169.339 165.052 166.386C160.647 163.433 156.92 159.577 154.117 155.072L169.008 147.6C171.91 151.579 176.124 154.402 180.905 155.572L179.668 172.2ZM185.743 144.609C183.899 144.59 182.102 144.023 180.58 142.98C179.057 141.938 177.878 140.467 177.191 138.754C176.504 137.041 176.34 135.162 176.72 133.356C177.099 131.549 178.006 129.896 179.324 128.605C180.643 127.314 182.314 126.444 184.127 126.104C185.94 125.764 187.813 125.97 189.508 126.696C191.204 127.422 192.647 128.635 193.654 130.181C194.661 131.728 195.188 133.538 195.166 135.384C195.154 136.611 194.901 137.823 194.421 138.951C193.941 140.079 193.243 141.101 192.368 141.959C191.493 142.818 190.457 143.495 189.32 143.952C188.184 144.409 186.968 144.638 185.743 144.625V144.609ZM186.511 172.692L187.74 156.056C192.812 155.597 197.539 153.291 201.026 149.576L214.85 158.854C211.423 163.096 207.109 166.534 202.211 168.927C197.314 171.32 191.952 172.611 186.503 172.707L186.511 172.692ZM222.799 141.065C222.143 145.305 220.758 149.399 218.706 153.166L204.882 143.879C205.445 142.645 205.885 141.357 206.195 140.035L206.625 133.186C206.488 131.809 206.212 130.449 205.803 129.127L220.649 121.632C222.224 125.651 223.09 129.915 223.206 134.231L222.799 141.065Z" fill="#B8B8E8"/>
        </g>
        <g opacity="0.74">
            <path opacity="0.74" d="M110.556 269.53C111.242 264.036 107.35 259.026 101.861 258.339C96.3732 257.652 91.3675 261.548 90.681 267.042C89.9945 272.535 93.8871 277.546 99.3753 278.233C104.864 278.92 109.869 275.024 110.556 269.53Z" fill="url(#paint0_linear)"/>
            <path opacity="0.6" d="M194.007 272.799L183.57 271.492C183.819 265.398 183.394 259.295 182.302 253.295L192.417 250.528C193.319 250.281 194.164 249.858 194.903 249.284C195.642 248.71 196.26 247.995 196.724 247.182C197.187 246.369 197.485 245.472 197.602 244.543C197.719 243.614 197.652 242.671 197.405 241.768C197.158 240.865 196.736 240.02 196.162 239.28C195.589 238.54 194.875 237.921 194.063 237.457C193.25 236.994 192.354 236.695 191.426 236.578C190.498 236.461 189.556 236.528 188.654 236.775L178.524 239.55C176.394 233.771 173.63 228.245 170.283 223.076L178.585 216.618C180.025 215.442 180.949 213.747 181.157 211.898C181.366 210.049 180.844 208.191 179.703 206.723C178.561 205.254 176.891 204.29 175.049 204.038C173.207 203.785 171.339 204.264 169.845 205.372L161.551 211.829C157.413 207.35 152.795 203.342 147.781 199.875L152.988 190.742C153.78 189.112 153.922 187.241 153.384 185.51C152.847 183.779 151.67 182.318 150.095 181.424C148.519 180.531 146.662 180.272 144.902 180.701C143.143 181.129 141.612 182.213 140.623 183.731L135.4 192.818C129.81 190.243 123.95 188.302 117.928 187.029L119.272 176.582C119.416 175.641 119.369 174.681 119.136 173.758C118.902 172.835 118.486 171.968 117.913 171.209C117.339 170.45 116.619 169.813 115.796 169.337C114.972 168.861 114.062 168.554 113.118 168.436C112.174 168.318 111.216 168.39 110.301 168.649C109.386 168.907 108.531 169.347 107.789 169.941C107.046 170.536 106.429 171.273 105.976 172.11C105.523 172.947 105.241 173.866 105.149 174.814L103.82 185.269C97.7324 185.019 91.6358 185.445 85.6415 186.537L82.8767 176.413C82.6445 175.495 82.2317 174.632 81.6625 173.875C81.0932 173.118 80.379 172.483 79.5615 172.005C78.744 171.528 77.8397 171.219 76.9014 171.096C75.963 170.972 75.0096 171.038 74.0968 171.287C73.1839 171.537 72.33 171.967 71.585 172.551C70.8399 173.135 70.2187 173.862 69.7576 174.689C69.2965 175.517 69.0049 176.427 68.8996 177.369C68.7944 178.31 68.8777 179.263 69.1447 180.172L71.9172 190.312C66.1438 192.445 60.6241 195.211 55.4589 198.561L49.0077 190.258C48.4428 189.495 47.7311 188.852 46.9145 188.368C46.0979 187.884 45.1929 187.568 44.2527 187.439C43.3124 187.311 42.3559 187.371 41.4394 187.618C40.5229 187.864 39.6648 188.292 38.9157 188.875C38.1666 189.458 37.5416 190.185 37.0774 191.014C36.6132 191.842 36.3191 192.756 36.2125 193.7C36.1059 194.643 36.189 195.599 36.4568 196.511C36.7245 197.422 37.1716 198.27 37.7718 199.006L44.223 207.317C39.7538 211.458 35.7516 216.078 32.2882 221.093L23.1644 215.888C22.3511 215.394 21.4474 215.069 20.5064 214.931C19.5654 214.792 18.6063 214.844 17.6856 215.083C16.765 215.322 15.9016 215.743 15.1463 216.322C14.391 216.9 13.7591 217.625 13.288 218.452C12.8169 219.279 12.5162 220.192 12.4035 221.137C12.2908 222.082 12.3684 223.041 12.6318 223.955C12.8953 224.87 13.3391 225.723 13.9372 226.463C14.5353 227.203 15.2755 227.816 16.1141 228.265L25.2226 233.469C22.647 239.057 20.7047 244.915 19.4319 250.935L8.99468 249.628C8.05448 249.485 7.09508 249.531 6.17311 249.765C5.25115 249.999 4.38532 250.415 3.62675 250.989C2.86818 251.564 2.23225 252.284 1.7565 253.109C1.28075 253.933 0.974824 254.844 0.856794 255.789C0.738765 256.734 0.81102 257.692 1.06929 258.608C1.32757 259.525 1.76662 260.38 2.36054 261.123C2.95446 261.867 3.69119 262.484 4.52724 262.938C5.36329 263.392 6.28171 263.673 7.22828 263.766L17.6654 265.073C17.4156 271.166 17.8406 277.269 18.9327 283.269L8.81804 286.036C7.91438 286.284 7.06823 286.707 6.32791 287.281C5.58759 287.856 4.9676 288.571 4.50333 289.386C4.03906 290.2 3.73962 291.098 3.62209 292.029C3.50455 292.959 3.57124 293.903 3.81834 294.808C4.06543 295.712 4.4881 296.559 5.06221 297.3C5.63631 298.041 6.35061 298.662 7.16433 299.127C7.97804 299.591 8.87523 299.891 9.80467 300.009C10.7341 300.126 11.6776 300.06 12.5813 299.812L22.7189 297.037C24.8473 302.806 27.6086 308.321 30.9519 313.481L22.6498 319.938C21.8872 320.504 21.2452 321.216 20.7617 322.033C20.2781 322.851 19.9627 323.757 19.8339 324.698C19.7052 325.639 19.7657 326.596 20.012 327.514C20.2583 328.431 20.6853 329.29 21.268 330.04C21.8507 330.79 22.5773 331.415 23.405 331.88C24.2327 332.345 25.1449 332.639 26.088 332.746C27.031 332.852 27.9858 332.769 28.8963 332.501C29.8068 332.233 30.6545 331.786 31.3897 331.185L39.6841 324.728C43.8222 329.215 48.4399 333.234 53.4544 336.712L48.2474 345.845C47.4552 347.475 47.3134 349.346 47.8509 351.077C48.3883 352.808 49.5647 354.269 51.1405 355.163C52.7163 356.056 54.573 356.315 56.3327 355.887C58.0923 355.458 59.6227 354.374 60.6122 352.856L65.8116 343.739C71.4017 346.316 77.2621 348.26 83.2837 349.535L81.9781 359.982C81.7976 361.83 82.3447 363.676 83.5031 365.126C84.6614 366.576 86.3395 367.517 88.1802 367.747C90.0208 367.978 91.8786 367.48 93.3581 366.36C94.8376 365.24 95.822 363.586 96.1017 361.75L97.4073 351.303C103.495 351.552 109.592 351.126 115.586 350.035L118.351 360.159C118.583 361.077 118.996 361.94 119.565 362.697C120.134 363.454 120.848 364.089 121.666 364.567C122.483 365.044 123.388 365.353 124.326 365.476C125.264 365.6 126.218 365.534 127.131 365.285C128.043 365.035 128.897 364.605 129.642 364.021C130.387 363.437 131.009 362.71 131.47 361.883C131.931 361.055 132.223 360.145 132.328 359.203C132.433 358.262 132.35 357.309 132.083 356.4L129.31 346.26C135.082 344.128 140.599 341.362 145.761 338.011L152.22 346.314C152.785 347.077 153.496 347.72 154.313 348.204C155.129 348.688 156.034 349.004 156.975 349.133C157.915 349.261 158.872 349.201 159.788 348.954C160.705 348.708 161.563 348.28 162.312 347.697C163.061 347.114 163.686 346.387 164.15 345.558C164.614 344.729 164.908 343.816 165.015 342.872C165.121 341.928 165.038 340.973 164.771 340.061C164.503 339.15 164.056 338.301 163.456 337.566L157.004 329.263C161.477 325.123 165.482 320.503 168.947 315.487L178.071 320.699C179.706 321.575 181.619 321.778 183.401 321.263C185.184 320.749 186.695 319.559 187.614 317.946C188.533 316.333 188.786 314.424 188.321 312.627C187.855 310.83 186.707 309.285 185.121 308.322L176.005 303.126C178.582 297.528 180.525 291.659 181.796 285.629L192.233 286.936C194.079 287.117 195.923 286.569 197.371 285.409C198.82 284.25 199.76 282.57 199.99 280.728C200.22 278.885 199.723 277.026 198.604 275.545C197.485 274.064 195.833 273.079 193.999 272.799H194.007ZM48.5469 232.67C50.2253 230.216 52.5931 228.315 55.3507 227.208C58.1083 226.101 61.1319 225.838 64.0391 226.451C66.9464 227.064 69.6068 228.526 71.6838 230.653C73.7608 232.779 75.1612 235.475 75.7079 238.398C76.2546 241.321 75.923 244.341 74.7551 247.075C73.5872 249.81 71.6355 252.136 69.1466 253.761C66.6578 255.385 63.7437 256.234 60.7728 256.2C57.8019 256.167 54.9076 255.252 52.456 253.572C50.8282 252.457 49.4358 251.031 48.3584 249.377C47.281 247.723 46.5396 245.872 46.1766 243.931C45.8136 241.99 45.8361 239.997 46.2428 238.065C46.6495 236.132 47.4324 234.299 48.5469 232.67ZM63.4615 302.288C60.7702 303.548 57.7659 303.981 54.8286 303.533C51.8913 303.084 49.1529 301.773 46.9598 299.767C44.7667 297.76 43.2173 295.147 42.5077 292.259C41.7981 289.371 41.9601 286.337 42.9732 283.541C43.9863 280.745 45.805 278.313 48.1993 276.551C50.5936 274.79 53.4559 273.779 56.4243 273.646C59.3926 273.514 62.3337 274.265 64.8754 275.805C67.4172 277.346 69.4455 279.606 70.7038 282.3C72.3887 285.91 72.5732 290.042 71.2167 293.789C69.8602 297.535 67.0737 300.589 63.4692 302.28L63.4615 302.288ZM108.451 205.641C111.399 206.01 114.171 207.245 116.417 209.191C118.663 211.137 120.282 213.706 121.07 216.573C121.858 219.439 121.779 222.476 120.843 225.298C119.908 228.119 118.157 230.6 115.813 232.427C113.469 234.253 110.637 235.343 107.674 235.558C104.711 235.774 101.751 235.105 99.1684 233.637C96.5853 232.169 94.4951 229.967 93.1618 227.31C91.8286 224.653 91.3122 221.66 91.678 218.709C91.9211 216.748 92.5479 214.855 93.5226 213.136C94.4973 211.418 95.8008 209.909 97.3586 208.695C98.9163 207.482 100.698 206.587 102.601 206.063C104.505 205.539 106.492 205.395 108.451 205.641ZM92.7839 330.947C89.8365 330.577 87.0645 329.342 84.8185 327.396C82.5724 325.45 80.9531 322.882 80.1652 320.015C79.3773 317.148 79.4562 314.112 80.3919 311.29C81.3275 308.468 83.078 305.987 85.4221 304.161C87.7661 302.334 90.5984 301.245 93.5611 301.029C96.5237 300.814 99.4836 301.482 102.067 302.95C104.65 304.419 106.74 306.62 108.073 309.277C109.407 311.934 109.923 314.927 109.557 317.878C109.059 321.833 107.012 325.429 103.867 327.875C100.722 330.321 96.736 331.417 92.7839 330.924V330.947ZM98.2905 286.89C94.6184 286.43 91.165 284.891 88.3665 282.467C85.5681 280.043 83.5503 276.844 82.5681 273.272C81.586 269.701 81.6836 265.918 82.8486 262.402C84.0136 258.886 86.1938 255.795 89.1135 253.519C92.0332 251.243 95.5615 249.885 99.2523 249.615C102.943 249.346 106.631 250.178 109.85 252.006C113.068 253.834 115.673 256.576 117.335 259.886C118.997 263.195 119.642 266.924 119.188 270.6C118.884 273.042 118.103 275.399 116.888 277.539C115.674 279.678 114.051 281.557 112.111 283.068C110.171 284.58 107.953 285.693 105.583 286.347C103.213 287 100.737 287.179 98.2982 286.874L98.2905 286.89ZM137.758 234.3C140.449 233.039 143.454 232.606 146.391 233.055C149.328 233.503 152.067 234.814 154.26 236.821C156.453 238.827 158.002 241.44 158.712 244.328C159.422 247.216 159.26 250.25 158.247 253.046C157.233 255.842 155.415 258.275 153.02 260.036C150.626 261.797 147.764 262.808 144.795 262.941C141.827 263.074 138.886 262.322 136.344 260.782C133.803 259.242 131.774 256.981 130.516 254.287C129.68 252.497 129.204 250.56 129.115 248.586C129.027 246.612 129.328 244.64 130.001 242.782C130.675 240.925 131.707 239.218 133.039 237.76C134.371 236.302 135.978 235.121 137.766 234.284L137.758 234.3ZM152.681 303.917C151.004 306.372 148.637 308.274 145.88 309.383C143.124 310.491 140.1 310.757 137.193 310.146C134.285 309.534 131.624 308.074 129.546 305.949C127.468 303.824 126.065 301.13 125.517 298.207C124.968 295.285 125.297 292.265 126.463 289.529C127.629 286.794 129.579 284.466 132.066 282.84C134.554 281.214 137.467 280.363 140.438 280.394C143.408 280.425 146.303 281.337 148.756 283.015C152.041 285.264 154.3 288.726 155.037 292.641C155.774 296.555 154.929 300.603 152.688 303.894L152.681 303.917Z" fill="#B8B8E8"/>
        </g>
    </g>
    <path d="M177.787 298.659L146.245 297.413L165.706 229.84L194.767 235.575L177.787 298.659Z" fill="url(#paint1_linear)"/>
    <path d="M321.05 219.492C321.05 205.832 315.629 192.731 305.979 183.072C296.329 173.413 283.241 167.986 269.594 167.986H211.126C197.479 167.986 184.391 173.413 174.741 183.072C165.091 192.731 159.669 205.832 159.669 219.492V241.632L192.11 246.552V338.449L308.078 330.761V239.849L321.05 242.693V219.492Z" fill="#E8443C"/>
    <path d="M238.052 187.844C239.967 187.844 241.863 187.455 243.623 186.701C245.384 185.946 246.974 184.842 248.297 183.455C249.619 182.068 250.647 180.427 251.317 178.632C251.988 176.836 252.288 174.922 252.198 173.007L250.785 142.68L224.673 145.224L223.905 173.268C223.852 175.162 224.178 177.047 224.865 178.813C225.552 180.578 226.585 182.187 227.904 183.546C229.223 184.905 230.8 185.985 232.543 186.723C234.286 187.462 236.159 187.843 238.052 187.844Z" fill="#E7A585"/>
    <path d="M264.018 132.44C264.018 133.388 263.806 134.324 263.399 135.18C262.991 136.036 262.397 136.79 261.661 137.386C260.925 137.983 260.065 138.408 259.144 138.629C258.223 138.851 257.264 138.864 256.338 138.667L256.123 138.613L255.816 138.528L255.47 138.413C255.242 138.328 255.019 138.23 254.802 138.121C253.584 137.507 252.596 136.518 251.983 135.3C251.754 135.483 251.538 135.684 251.338 135.899C250.358 136.965 249.28 137.938 248.12 138.805C244.004 141.88 235.771 141.48 232.76 137.575C231.953 136.479 230.763 135.727 229.427 135.469C227.992 135.232 226.52 135.504 225.264 136.237C222.96 137.521 221.586 137.006 220.702 135.684C220.487 135.307 220.28 134.915 220.08 134.531C218.653 131.666 217.911 128.507 217.915 125.306C218.019 119.889 220.242 114.73 224.105 110.936C227.969 107.143 233.165 105.018 238.578 105.018C243.99 105.018 249.186 107.143 253.05 110.936C256.914 114.73 259.137 119.889 259.241 125.306C259.241 125.644 259.241 125.975 259.241 126.305C260.603 126.655 261.81 127.447 262.674 128.557C263.539 129.667 264.011 131.033 264.018 132.44Z" fill="#E7A585"/>
    <path d="M254.787 138.113C252.698 140.756 249.996 142.847 246.916 144.206C243.835 145.564 240.47 146.149 237.112 145.909C233.755 145.668 230.507 144.611 227.651 142.827C224.795 141.044 222.418 138.589 220.726 135.676C221.616 136.96 222.953 137.514 225.288 136.23C226.543 135.496 228.015 135.224 229.45 135.461C230.786 135.719 231.976 136.471 232.783 137.567C235.771 141.48 244.004 141.88 248.143 138.797C249.304 137.931 250.381 136.958 251.361 135.892C251.561 135.676 251.777 135.476 252.006 135.292C252.61 136.505 253.584 137.493 254.787 138.113Z" fill="url(#paint2_linear)"/>
    <path d="M256.361 138.666L254.057 148.176C251.047 159.638 238.336 166.995 225.641 164.604C219.174 163.382 215.427 157.947 215.657 148.399C215.887 138.851 217.754 134.877 218.852 131.486C219.178 132.527 219.586 133.54 220.073 134.515C220.245 134.918 220.453 135.304 220.695 135.668C221.586 136.952 222.922 137.506 225.257 136.222C226.513 135.488 227.985 135.216 229.42 135.453C230.756 135.711 231.946 136.463 232.753 137.559C235.74 141.472 243.973 141.872 248.113 138.789C249.273 137.923 250.35 136.95 251.331 135.884C251.531 135.668 251.746 135.468 251.976 135.284C252.585 136.5 253.568 137.489 254.779 138.105C254.994 138.219 255.218 138.317 255.447 138.397C255.56 138.443 255.675 138.481 255.793 138.513C255.893 138.548 255.996 138.576 256.1 138.597L256.315 138.651L256.361 138.666Z" fill="#020203"/>
    <path d="M225.195 99.1685C232.223 98.2537 243.627 101.098 251.638 102.113C255.731 102.636 259.202 104.665 260.086 107.679C260.915 110.546 261.361 121.016 259.11 126.259C258.117 126.024 257.081 126.034 256.092 126.288C255.104 126.543 254.192 127.034 253.435 127.72C252.413 124.898 253.273 119.117 241.285 117.088C237.643 118.235 233.885 118.972 230.08 119.287C224.036 120.055 216.985 116.934 216.302 111.376C215.618 105.818 219.151 99.9372 225.195 99.1685Z" fill="#020203"/>
    <path d="M277.043 243.363H192.171V246.161H277.043V243.363Z" fill="url(#paint3_linear)"/>
    <path d="M277.043 253.118H192.171V255.916H277.043V253.118Z" fill="url(#paint4_linear)"/>
    <path d="M277.043 262.865H192.171V265.664H277.043V262.865Z" fill="url(#paint5_linear)"/>
    <path d="M277.043 272.621H192.171V275.419H277.043V272.621Z" fill="url(#paint6_linear)"/>
    <path d="M386.039 358.09H263.765V283.945C263.765 262.504 265.109 245.123 286.528 245.123H356.324C364.207 245.123 371.767 248.257 377.341 253.837C382.915 259.416 386.046 266.983 386.046 274.873L386.039 358.09Z" fill="#9595CB"/>
    <path d="M282.151 183.177C282.151 183.177 275.423 185.014 276.007 193.586C276.521 200.827 276.168 239.565 276.007 251.373C276.007 254.686 276.69 258.238 279.125 260.49C281.152 262.366 281.467 263.742 294.346 264.388C314.315 265.387 305.936 221.199 305.936 221.199L282.151 183.177Z" fill="#020202"/>
    <path d="M305.252 245.131H312.041C326.851 245.131 341.055 251.02 351.527 261.502C362 271.985 367.883 286.202 367.883 301.026V357.399H249.411V301.026C249.411 293.686 250.855 286.418 253.661 279.636C256.468 272.854 260.581 266.692 265.766 261.502C270.952 256.312 277.108 252.194 283.883 249.385C290.658 246.576 297.919 245.131 305.252 245.131Z" fill="#FF8888"/>
    <path d="M346.425 294.769H366.915C367.174 294.769 367.422 294.871 367.605 295.055C367.788 295.238 367.89 295.486 367.89 295.745V357.837H346.425V294.799V294.769Z" fill="#FF8888"/>
    <path d="M285.384 228.902C283.388 228.921 281.461 228.17 280.002 226.806C278.543 225.442 277.664 223.568 277.546 221.573C277.429 219.578 278.082 217.614 279.371 216.088C280.66 214.562 282.485 213.59 284.47 213.374C284.47 213.374 284.47 213.374 284.516 213.374C284.562 213.374 284.67 213.52 284.731 213.573L284.885 213.704L284.485 213.758C282.652 213.985 280.97 214.891 279.771 216.297C278.571 217.703 277.941 219.508 278.003 221.356C278.066 223.204 278.817 224.961 280.109 226.283C281.401 227.604 283.14 228.394 284.985 228.496C286.829 228.599 288.645 228.007 290.075 226.837C291.506 225.667 292.447 224.003 292.713 222.174C292.98 220.344 292.553 218.481 291.517 216.95C290.48 215.42 288.909 214.333 287.112 213.904C287.062 213.892 287.019 213.86 286.992 213.816C286.966 213.772 286.958 213.719 286.97 213.67C286.982 213.62 287.014 213.577 287.058 213.55C287.102 213.523 287.154 213.515 287.204 213.527C289.058 213.973 290.684 215.083 291.775 216.649C292.865 218.214 293.344 220.125 293.121 222.021C292.897 223.916 291.987 225.663 290.563 226.932C289.138 228.2 287.298 228.901 285.392 228.902H285.384Z" fill="url(#paint7_linear)"/>
    <path d="M267.804 293.231H246.177V341.332H267.804V293.231Z" fill="url(#paint8_linear)"/>
    <path d="M295.46 253.494C295.46 255 295.756 256.49 296.332 257.881C296.907 259.271 297.751 260.535 298.814 261.599C299.877 262.664 301.14 263.508 302.529 264.084C303.918 264.66 305.407 264.956 306.911 264.956H308.57C310.074 264.956 311.563 264.66 312.952 264.084C314.341 263.508 315.604 262.664 316.667 261.599C317.73 260.535 318.574 259.271 319.149 257.881C319.725 256.49 320.021 255 320.021 253.494V219.308H295.445V253.494H295.46Z" fill="url(#paint9_linear)"/>
    <path d="M301.489 226.834C314.909 226.834 325.789 215.945 325.789 202.511C325.789 189.078 314.909 178.188 301.489 178.188C288.069 178.188 277.189 189.078 277.189 202.511C277.189 215.945 288.069 226.834 301.489 226.834Z" fill="url(#paint10_linear)"/>
    <path d="M320.766 180.679C325.376 180.679 329.114 176.937 329.114 172.322C329.114 167.707 325.376 163.966 320.766 163.966C316.155 163.966 312.417 167.707 312.417 172.322C312.417 176.937 316.155 180.679 320.766 180.679Z" fill="#523042"/>
    <path d="M279.701 183.785C279.701 183.785 288.264 199.698 304.768 201.535C321.273 203.372 305.621 217.978 305.989 226.627C306.642 242.002 312.717 266.917 337.785 265.695C347.707 265.21 353.414 260.79 356.693 255.632C359.013 251.879 360.188 247.529 360.075 243.118C359.962 238.706 358.565 234.423 356.056 230.794C346.509 216.733 322.548 181.824 318.838 179.503C313.946 176.443 280.315 175.828 279.701 183.785Z" fill="#523042"/>
    <path d="M308.708 228.902C306.712 228.921 304.785 228.17 303.326 226.806C301.867 225.442 300.988 223.568 300.87 221.573C300.753 219.578 301.406 217.614 302.695 216.088C303.984 214.562 305.81 213.59 307.794 213.374C307.794 213.374 307.794 213.374 307.84 213.374C307.886 213.374 307.994 213.52 308.055 213.573L308.209 213.704L307.81 213.758C305.976 213.985 304.295 214.891 303.095 216.297C301.896 217.703 301.265 219.508 301.328 221.356C301.39 223.204 302.141 224.961 303.433 226.283C304.725 227.604 306.465 228.394 308.309 228.496C310.153 228.599 311.969 228.007 313.4 226.837C314.83 225.667 315.771 224.003 316.038 222.174C316.304 220.344 315.877 218.481 314.841 216.95C313.804 215.42 312.233 214.333 310.436 213.904C310.386 213.892 310.343 213.86 310.317 213.816C310.29 213.772 310.282 213.719 310.294 213.67C310.306 213.62 310.338 213.577 310.382 213.55C310.426 213.523 310.478 213.515 310.528 213.527C312.382 213.973 314.008 215.083 315.099 216.649C316.189 218.214 316.668 220.125 316.445 222.021C316.221 223.916 315.311 225.663 313.887 226.932C312.462 228.2 310.622 228.901 308.716 228.902H308.708Z" fill="url(#paint11_linear)"/>
    <path d="M308.462 273.928C308.976 273.928 309.392 273.512 309.392 272.998C309.392 272.484 308.976 272.068 308.462 272.068C307.949 272.068 307.533 272.484 307.533 272.998C307.533 273.512 307.949 273.928 308.462 273.928Z" fill="white"/>
    <path d="M308.462 281.946C308.976 281.946 309.392 281.53 309.392 281.016C309.392 280.502 308.976 280.086 308.462 280.086C307.949 280.086 307.533 280.502 307.533 281.016C307.533 281.53 307.949 281.946 308.462 281.946Z" fill="white"/>
    <path d="M308.462 289.964C308.976 289.964 309.392 289.547 309.392 289.034C309.392 288.52 308.976 288.104 308.462 288.104C307.949 288.104 307.533 288.52 307.533 289.034C307.533 289.547 307.949 289.964 308.462 289.964Z" fill="white"/>
    <g opacity="0.44">
        <path opacity="0.44" d="M346.425 321.767H268.473V323.166H346.425V321.767Z" fill="url(#paint12_linear)"/>
    </g>
    <g opacity="0.44">
        <path opacity="0.44" d="M346.425 330.723H268.473V332.122H346.425V330.723Z" fill="url(#paint13_linear)"/>
    </g>
    <g opacity="0.44">
        <path opacity="0.44" d="M346.425 339.679H268.473V341.078H346.425V339.679Z" fill="url(#paint14_linear)"/>
    </g>
    <g opacity="0.44">
        <path opacity="0.44" d="M346.425 348.635H268.473V350.034H346.425V348.635Z" fill="url(#paint15_linear)"/>
    </g>
    <path d="M204.19 334.359C206.717 334.355 209.198 333.678 211.377 332.397C213.557 331.117 215.356 329.279 216.592 327.073C217.828 324.866 218.455 322.37 218.41 319.841C218.364 317.312 217.647 314.841 216.332 312.68L173.739 242.863C172.765 241.265 171.486 239.875 169.975 238.772C168.464 237.67 166.751 236.876 164.933 236.435C163.116 235.995 161.229 235.918 159.382 236.208C157.535 236.497 155.762 237.148 154.166 238.123C152.57 239.099 151.182 240.379 150.08 241.891C148.978 243.404 148.185 245.118 147.745 246.938C147.306 248.757 147.228 250.645 147.518 252.494C147.807 254.343 148.457 256.117 149.432 257.715L192.025 327.533C193.297 329.62 195.084 331.344 197.215 332.54C199.346 333.735 201.748 334.362 204.19 334.359Z" fill="#273271"/>
    <path d="M156.29 234.829H106.608C91.578 234.829 84.8272 249.359 85.3341 258.561L96.7467 352.348C96.9804 354.471 97.9923 356.433 99.5867 357.852C101.181 359.272 103.245 360.05 105.379 360.035L164.231 359.597C166.404 359.581 168.49 358.745 170.074 357.256C171.657 355.766 172.621 353.733 172.771 351.564L176.573 260.605C177.564 246.33 172.748 234.829 156.29 234.829Z" fill="#273271"/>
    <path d="M151.652 340.133C147.981 339.126 144.44 337.995 140.715 339.056C139.68 339.297 138.631 339.475 137.574 339.587L119.68 336.112L120.294 350.042L136.967 349.88L141.89 349.919H168.655C168.648 347.013 160.637 342.608 151.652 340.133Z" fill="#F2B3A5"/>
    <path d="M121.392 357.399L61.964 357.099C58.4068 357.127 54.9603 355.862 52.2641 353.539C50.0692 351.58 48.5422 348.983 47.8976 346.111C47.253 343.239 47.523 340.237 48.6699 337.526L87.3235 247.99C88.7355 244.736 91.3541 242.158 94.6276 240.799C97.9011 239.439 101.574 239.405 104.872 240.702C106.573 241.371 108.123 242.373 109.431 243.651C110.738 244.929 111.776 246.456 112.484 248.142C113.192 249.828 113.556 251.639 113.553 253.468C113.55 255.297 113.181 257.107 112.468 258.791L82.7539 329.178L121.699 336.012L121.392 357.399Z" fill="#273271"/>
    <path d="M185.006 357.391H126.891V356.961C126.891 355.095 127.631 353.306 128.949 351.987C130.267 350.668 132.054 349.927 133.918 349.927H185.006V357.391Z" fill="#7F8080"/>
    <path d="M180.336 357.391H267.935C270.391 357.392 272.779 356.587 274.735 355.1C276.691 353.613 278.106 351.526 278.764 349.158L295.844 287.727C296.196 286.461 296.25 285.131 296.003 283.84C295.756 282.549 295.215 281.333 294.421 280.287C293.626 279.241 292.601 278.392 291.426 277.808C290.25 277.223 288.955 276.919 287.642 276.918H208.307C206.67 276.919 205.079 277.463 203.782 278.464C202.486 279.465 201.557 280.868 201.142 282.453L180.336 357.391Z" fill="#CCC9C5"/>
    <path d="M241.669 328.355C246.246 328.355 249.956 324.642 249.956 320.06C249.956 315.479 246.246 311.766 241.669 311.766C237.092 311.766 233.382 315.479 233.382 320.06C233.382 324.642 237.092 328.355 241.669 328.355Z" fill="white"/>
    <path d="M162.081 227.695L103.912 228.81L106.493 198.721C106.731 194.858 107.435 191.038 108.589 187.344C112.836 175.567 122.344 166.895 134.026 166.91C147.996 167.033 158.533 177.911 160.138 194.178C161.075 203.38 162.081 227.695 162.081 227.695Z" fill="#1A1D23"/>
    <path d="M122.844 206.793H146.245V239.25C146.245 242.178 145.083 244.986 143.015 247.056C140.946 249.126 138.141 250.289 135.216 250.289H133.864C130.94 250.289 128.134 249.126 126.066 247.056C123.998 244.986 122.836 242.178 122.836 239.25V206.793H122.844Z" fill="#F2B3A5"/>
    <path d="M152.765 207.454L147.143 216.864H157.695L152.765 207.454Z" fill="#FF8888"/>
    <path d="M135.447 219.931C147.446 219.931 157.173 210.194 157.173 198.183C157.173 186.172 147.446 176.436 135.447 176.436C123.447 176.436 113.72 186.172 113.72 198.183C113.72 210.194 123.447 219.931 135.447 219.931Z" fill="url(#paint16_linear)"/>
    <path d="M157.673 193.332C149.578 191.949 146.022 190.98 136.576 190.98L136.783 175.205L154.393 177.581L157.673 193.332Z" fill="#1A1D23"/>
    <path d="M123.112 177.112C120.394 178.372 116.308 182.554 114.902 185.037C113.497 187.52 112.13 192.871 111.608 195.585C110.448 201.604 109.718 220.039 109.718 220.039L120.946 220.654C120.946 220.654 119.956 212.251 120.071 209.453C120.071 209.092 120.117 208.684 120.148 208.207C118.348 207.654 116.831 206.428 115.911 204.784C114.991 203.141 114.74 201.205 115.208 199.38C115.677 197.556 116.83 195.982 118.428 194.985C120.025 193.989 121.945 193.648 123.788 194.032C127.375 193.017 132.236 188.92 133.772 186.152C135.101 183.784 138.488 176.366 138.488 176.366C138.488 176.366 126.829 175.397 123.112 177.112Z" fill="#1A1D23"/>
    <path d="M118.359 208.323C119.538 208.323 120.494 207.366 120.494 206.186C120.494 205.006 119.538 204.049 118.359 204.049C117.18 204.049 116.224 205.006 116.224 206.186C116.224 207.366 117.18 208.323 118.359 208.323Z" fill="#FF8888"/>
    <path d="M118.358 206.801L112.729 216.211H123.289L118.358 206.801Z" fill="#FF8888"/>
    <g opacity="0.72">
        <path opacity="0.72" d="M124.326 276.927C125.144 276.927 125.808 276.262 125.808 275.443C125.808 274.623 125.144 273.959 124.326 273.959C123.507 273.959 122.843 274.623 122.843 275.443C122.843 276.262 123.507 276.927 124.326 276.927Z" fill="white"/>
        <path opacity="0.72" d="M105.409 311.828C106.228 311.828 106.892 311.163 106.892 310.344C106.892 309.525 106.228 308.86 105.409 308.86C104.591 308.86 103.927 309.525 103.927 310.344C103.927 311.163 104.591 311.828 105.409 311.828Z" fill="white"/>
        <path opacity="0.72" d="M158.963 294.692C159.781 294.692 160.445 294.028 160.445 293.208C160.445 292.389 159.781 291.725 158.963 291.725C158.144 291.725 157.48 292.389 157.48 293.208C157.48 294.028 158.144 294.692 158.963 294.692Z" fill="white"/>
        <path opacity="0.72" d="M133.949 306.815C134.768 306.815 135.431 306.151 135.431 305.332C135.431 304.512 134.768 303.848 133.949 303.848C133.13 303.848 132.467 304.512 132.467 305.332C132.467 306.151 133.13 306.815 133.949 306.815Z" fill="white"/>
        <path opacity="0.72" d="M160.445 333.237C161.264 333.237 161.927 332.573 161.927 331.753C161.927 330.934 161.264 330.27 160.445 330.27C159.627 330.27 158.963 330.934 158.963 331.753C158.963 332.573 159.627 333.237 160.445 333.237Z" fill="white"/>
        <path opacity="0.72" d="M83.9285 293.908C84.7472 293.908 85.4108 293.244 85.4108 292.424C85.4108 291.605 84.7472 290.94 83.9285 290.94C83.1099 290.94 82.4463 291.605 82.4463 292.424C82.4463 293.244 83.1099 293.908 83.9285 293.908Z" fill="white"/>
        <path opacity="0.72" d="M96.2781 259.391C97.0968 259.391 97.7604 258.727 97.7604 257.907C97.7604 257.088 97.0968 256.424 96.2781 256.424C95.4595 256.424 94.7959 257.088 94.7959 257.907C94.7959 258.727 95.4595 259.391 96.2781 259.391Z" fill="white"/>
        <path opacity="0.72" d="M160.445 254.348C161.264 254.348 161.927 253.684 161.927 252.865C161.927 252.045 161.264 251.381 160.445 251.381C159.627 251.381 158.963 252.045 158.963 252.865C158.963 253.684 159.627 254.348 160.445 254.348Z" fill="white"/>
        <path opacity="0.72" d="M184.368 278.41C185.187 278.41 185.851 277.745 185.851 276.926C185.851 276.107 185.187 275.442 184.368 275.442C183.55 275.442 182.886 276.107 182.886 276.926C182.886 277.745 183.55 278.41 184.368 278.41Z" fill="white"/>
        <path opacity="0.72" d="M62.0252 318.639C62.8438 318.639 63.5075 317.974 63.5075 317.155C63.5075 316.336 62.8438 315.671 62.0252 315.671C61.2066 315.671 60.543 316.336 60.543 317.155C60.543 317.974 61.2066 318.639 62.0252 318.639Z" fill="white"/>
        <path opacity="0.72" d="M79.3436 347.013C80.1622 347.013 80.8258 346.349 80.8258 345.529C80.8258 344.71 80.1622 344.046 79.3436 344.046C78.525 344.046 77.8613 344.71 77.8613 345.529C77.8613 346.349 78.525 347.013 79.3436 347.013Z" fill="white"/>
        <path opacity="0.72" d="M102.445 338.887C103.264 338.887 103.927 338.223 103.927 337.404C103.927 336.584 103.264 335.92 102.445 335.92C101.627 335.92 100.963 336.584 100.963 337.404C100.963 338.223 101.627 338.887 102.445 338.887Z" fill="white"/>
    </g>
    <path d="M10.8304 367.592H428.625C431.067 367.592 433.048 365.286 433.048 362.488C433.048 359.666 431.067 357.383 428.625 357.383H10.8304C8.38815 357.383 6.4067 359.69 6.4067 362.488H6.37598C6.37598 365.309 8.38815 367.592 10.8304 367.592Z" fill="#9595CB"/>
    <path d="M390.163 101.398H332.869C326.019 101.398 320.458 107.717 320.458 115.512V135.43C320.458 143.225 326.011 149.544 332.869 149.544H346.548L346.617 161.645L359.465 149.406C360.402 149.268 393.649 149.006 394.509 148.637C399.217 146.639 402.574 141.48 402.574 135.43V115.504C402.574 107.709 397.013 101.398 390.163 101.398Z" fill="#F6BC73"/>
    <path d="M12.9267 154.719H77.1088C80.6109 154.719 83.4525 158.324 83.4525 162.775V194.163C83.4525 198.614 80.6109 202.219 77.1088 202.219H68.4304L69.2752 215.788L50.7432 202.219H12.9267C9.42462 202.219 6.58301 198.614 6.58301 194.163V162.775C6.58301 158.362 9.44766 154.719 12.9267 154.719Z" fill="#F6BC73"/>
    <path opacity="0.47" d="M75.542 185.653H14.647V188.374H75.542V185.653Z" fill="url(#paint17_linear)"/>
    <path opacity="0.47" d="M75.542 176.781H14.647V179.503H75.542V176.781Z" fill="url(#paint18_linear)"/>
    <path opacity="0.47" d="M75.542 167.91H14.647V170.631H75.542V167.91Z" fill="url(#paint19_linear)"/>
    <path opacity="0.39" d="M317.502 44.4179C317.499 39.3358 316.196 34.3391 313.715 29.9048C311.235 25.4705 307.66 21.7465 303.333 19.0884C299.006 16.4302 294.07 14.9265 288.997 14.7209C283.924 14.5153 278.883 15.6145 274.355 17.9138C269.828 20.213 265.964 23.6355 263.134 27.8546C260.303 32.0736 258.6 36.9484 258.187 42.0136C257.774 47.0789 258.665 52.1655 260.775 56.788C262.885 61.4106 266.143 65.4147 270.239 68.4182C272.024 69.6996 273.481 71.3846 274.493 73.3363C275.504 75.2879 276.041 77.451 276.06 79.6496V85.5459H298.801V80.2569C298.784 78.0359 299.305 75.8439 300.32 73.8689C301.336 71.8939 302.814 70.195 304.63 68.9179C308.602 66.1879 311.85 62.5302 314.093 58.2614C316.336 53.9925 317.506 49.241 317.502 44.4179Z" fill="#E1E1F5"/>
    <path d="M298.878 85.5383H275.239C274.475 85.5383 273.856 86.1579 273.856 86.9221V87.0912C273.856 87.8554 274.475 88.4749 275.239 88.4749H298.878C299.641 88.4749 300.26 87.8554 300.26 87.0912V86.9221C300.26 86.1579 299.641 85.5383 298.878 85.5383Z" fill="url(#paint20_linear)"/>
    <path d="M298.878 88.4753H275.239C274.475 88.4753 273.856 89.0949 273.856 89.8591V90.0282C273.856 90.7924 274.475 91.412 275.239 91.412H298.878C299.641 91.412 300.26 90.7924 300.26 90.0282V89.8591C300.26 89.0949 299.641 88.4753 298.878 88.4753Z" fill="url(#paint21_linear)"/>
    <path d="M298.878 91.4119H275.239C274.475 91.4119 273.856 92.0314 273.856 92.7956V92.9647C273.856 93.729 274.475 94.3485 275.239 94.3485H298.878C299.641 94.3485 300.26 93.729 300.26 92.9647V92.7956C300.26 92.0314 299.641 91.4119 298.878 91.4119Z" fill="url(#paint22_linear)"/>
    <path d="M298.878 94.3484H275.239C274.475 94.3484 273.856 94.9679 273.856 95.7321V95.9013C273.856 96.6655 274.475 97.285 275.239 97.285H298.878C299.641 97.285 300.26 96.6655 300.26 95.9013V95.7321C300.26 94.9679 299.641 94.3484 298.878 94.3484Z" fill="url(#paint23_linear)"/>
    <path d="M275.4 97.5081H298.717C298.93 97.5081 299.136 97.5931 299.287 97.7445C299.438 97.8959 299.523 98.1012 299.523 98.3153V98.7765C299.523 100.581 298.807 102.311 297.532 103.587C296.258 104.863 294.529 105.58 292.726 105.58H281.383C279.58 105.58 277.851 104.863 276.577 103.587C275.302 102.311 274.586 100.581 274.586 98.7765V98.3153C274.586 98.2086 274.607 98.103 274.648 98.0046C274.689 97.9062 274.749 97.8168 274.825 97.7418C274.901 97.6667 274.99 97.6074 275.089 97.5673C275.188 97.5272 275.293 97.5071 275.4 97.5081Z" fill="url(#paint24_linear)"/>
    <g opacity="0.56">
        <path opacity="0.55" d="M260.869 18.6877C260.789 18.6874 260.709 18.671 260.635 18.6393C260.561 18.6076 260.495 18.5613 260.439 18.5032L254.932 12.8376C254.877 12.781 254.834 12.7142 254.805 12.6409C254.776 12.5676 254.761 12.4893 254.762 12.4104C254.764 12.2511 254.83 12.0992 254.944 11.9881C255.058 11.877 255.211 11.8158 255.37 11.8179C255.53 11.8201 255.681 11.8854 255.792 11.9996L261.299 17.6807C261.383 17.765 261.44 17.8723 261.462 17.989C261.485 18.1058 261.472 18.2266 261.426 18.3362C261.38 18.4458 261.303 18.5392 261.203 18.6045C261.104 18.6698 260.988 18.7042 260.869 18.7031V18.6877Z" fill="url(#paint25_linear)"/>
        <path opacity="0.55" d="M317.471 78.8271C317.387 78.828 317.305 78.8113 317.228 78.7782C317.151 78.7451 317.082 78.6963 317.025 78.6349L311.718 72.8386C311.611 72.7203 311.554 72.564 311.561 72.404C311.568 72.2439 311.639 72.0933 311.757 71.9853C311.875 71.8772 312.031 71.8206 312.191 71.8278C312.351 71.835 312.501 71.9055 312.609 72.0237L317.916 77.8201C317.996 77.906 318.048 78.0134 318.068 78.129C318.087 78.2445 318.072 78.3632 318.025 78.4703C317.977 78.5774 317.9 78.6683 317.801 78.7317C317.703 78.7951 317.588 78.8283 317.471 78.8271Z" fill="url(#paint26_linear)"/>
        <path opacity="0.55" d="M250.87 35.6773C250.816 35.6845 250.762 35.6845 250.708 35.6773L243.151 33.5171C243.075 33.4954 243.004 33.4589 242.942 33.4097C242.88 33.3605 242.828 33.2995 242.789 33.2303C242.751 33.161 242.726 33.0849 242.717 33.0061C242.708 32.9274 242.715 32.8477 242.736 32.7715C242.758 32.6952 242.795 32.624 242.844 32.5619C242.893 32.4998 242.954 32.448 243.023 32.4095C243.092 32.3709 243.168 32.3464 243.247 32.3373C243.326 32.3281 243.405 32.3346 243.481 32.3563L251.039 34.4934C251.185 34.5264 251.313 34.6131 251.399 34.7364C251.485 34.8598 251.521 35.0107 251.501 35.1595C251.48 35.3082 251.405 35.4439 251.29 35.5398C251.174 35.6357 251.027 35.6848 250.877 35.6773H250.87Z" fill="url(#paint27_linear)"/>
        <path opacity="0.55" d="M329.936 59.4393C329.875 59.4488 329.813 59.4488 329.751 59.4393L322.263 57.0792C322.188 57.0555 322.118 57.0171 322.057 56.9662C321.996 56.9153 321.946 56.8529 321.909 56.7826C321.872 56.7123 321.85 56.6354 321.843 56.5564C321.836 56.4773 321.844 56.3977 321.868 56.322C321.892 56.2463 321.93 56.176 321.981 56.1151C322.032 56.0542 322.094 56.004 322.164 55.9672C322.235 55.9304 322.311 55.9079 322.39 55.9008C322.469 55.8938 322.549 55.9024 322.624 55.9261L330.112 58.2861C330.253 58.3261 330.375 58.4163 330.454 58.5397C330.533 58.6631 330.564 58.8112 330.541 58.956C330.518 59.1008 330.443 59.2322 330.331 59.3255C330.218 59.4188 330.074 59.4675 329.928 59.4623L329.936 59.4393Z" fill="url(#paint28_linear)"/>
        <path opacity="0.55" d="M243.266 57.2254C243.118 57.2283 242.974 57.1761 242.862 57.0789C242.75 56.9818 242.678 56.8465 242.66 56.6993C242.642 56.5521 242.679 56.4034 242.764 56.2819C242.849 56.1604 242.976 56.0748 243.121 56.0415L250.731 54.112C250.886 54.0732 251.05 54.0976 251.187 54.1798C251.324 54.262 251.422 54.3952 251.461 54.5502C251.5 54.7051 251.475 54.8691 251.393 55.0061C251.311 55.143 251.178 55.2417 251.023 55.2805L243.412 57.21L243.266 57.2254Z" fill="url(#paint29_linear)"/>
        <path opacity="0.55" d="M323.561 38.022C323.406 38.0344 323.252 37.9857 323.132 37.8863C323.012 37.7869 322.936 37.6446 322.919 37.4897C322.902 37.3347 322.946 37.1792 323.041 37.0561C323.137 36.9331 323.277 36.8521 323.431 36.8305L331.111 35.1315C331.188 35.1144 331.268 35.1126 331.346 35.1263C331.424 35.14 331.498 35.1689 331.565 35.2114C331.631 35.2538 331.689 35.309 331.734 35.3738C331.78 35.4386 331.812 35.5117 331.829 35.5889C331.846 35.6662 331.848 35.746 331.834 35.8239C331.821 35.9019 331.792 35.9763 331.749 36.0431C331.707 36.1098 331.652 36.1675 331.587 36.2129C331.522 36.2584 331.449 36.2906 331.372 36.3077L323.692 38.0067L323.561 38.022Z" fill="url(#paint30_linear)"/>
        <path opacity="0.55" d="M255.063 77.5586C254.942 77.5614 254.822 77.5272 254.721 77.4605C254.619 77.3939 254.54 77.2979 254.494 77.1854C254.449 77.0728 254.438 76.949 254.464 76.8303C254.49 76.7117 254.552 76.6037 254.64 76.5208L260.27 71.0396C260.326 70.9846 260.393 70.9412 260.466 70.912C260.54 70.8828 260.618 70.8684 260.697 70.8694C260.775 70.8705 260.853 70.8871 260.926 70.9183C260.998 70.9495 261.064 70.9946 261.119 71.0511C261.174 71.1077 261.217 71.1745 261.246 71.2478C261.275 71.3211 261.29 71.3994 261.289 71.4783C261.288 71.5571 261.271 71.635 261.24 71.7075C261.209 71.78 261.164 71.8456 261.107 71.9006L255.478 77.3818C255.368 77.4925 255.219 77.556 255.063 77.5586Z" fill="url(#paint31_linear)"/>
        <path opacity="0.55" d="M314.975 20.7559C314.853 20.7572 314.734 20.7214 314.633 20.6532C314.532 20.585 314.455 20.4876 314.411 20.374C314.366 20.2605 314.358 20.1362 314.386 20.0176C314.414 19.899 314.478 19.7919 314.568 19.7104L320.359 14.3984C320.477 14.2903 320.633 14.2336 320.793 14.2408C320.953 14.2481 321.103 14.3185 321.211 14.4368C321.319 14.555 321.376 14.7114 321.369 14.8714C321.362 15.0314 321.291 15.182 321.173 15.2901L315.382 20.6022C315.271 20.7027 315.125 20.7575 314.975 20.7559Z" fill="url(#paint32_linear)"/>
        <path opacity="0.55" d="M298.793 9.9935C298.7 9.9937 298.608 9.97213 298.525 9.93049C298.441 9.88885 298.369 9.8283 298.313 9.75365C298.257 9.67901 298.219 9.59233 298.202 9.50051C298.186 9.40869 298.191 9.31427 298.217 9.22475L300.575 1.72945C300.599 1.65374 300.637 1.58344 300.688 1.52257C300.739 1.46169 300.801 1.41144 300.871 1.37468C300.942 1.33791 301.018 1.31536 301.097 1.3083C301.176 1.30125 301.256 1.30982 301.331 1.33355C301.407 1.35727 301.477 1.39568 301.538 1.44657C301.599 1.49746 301.649 1.55985 301.686 1.63016C301.723 1.70048 301.745 1.77734 301.752 1.85637C301.759 1.9354 301.751 2.01505 301.727 2.09077L299.369 9.58607C299.329 9.70624 299.251 9.81042 299.147 9.88363C299.044 9.95684 298.92 9.99531 298.793 9.9935Z" fill="url(#paint33_linear)"/>
        <path opacity="0.55" d="M279.209 8.87883C279.073 8.87861 278.941 8.83206 278.835 8.74683C278.729 8.6616 278.655 8.54277 278.625 8.40989L276.92 0.768526C276.903 0.691297 276.901 0.611443 276.915 0.533525C276.929 0.455607 276.957 0.381149 277 0.314405C277.042 0.24766 277.097 0.189934 277.162 0.144524C277.227 0.0991139 277.3 0.0669083 277.377 0.0497462C277.454 0.0325841 277.534 0.0308016 277.612 0.0445003C277.69 0.058199 277.764 0.0871107 277.831 0.129585C277.897 0.172059 277.955 0.227263 278 0.292046C278.046 0.356829 278.078 0.429922 278.095 0.507152L279.792 8.19464C279.81 8.27242 279.813 8.35303 279.799 8.43174C279.786 8.51044 279.757 8.58566 279.714 8.65297C279.671 8.72028 279.615 8.77833 279.549 8.82372C279.484 8.8691 279.41 8.90091 279.332 8.91726L279.209 8.87883Z" fill="url(#paint34_linear)"/>
    </g>
    <path opacity="0.55" d="M285.607 85.1619H283.625C283.449 82.2868 283.28 79.4731 283.111 76.6518C282.719 70.1482 282.343 63.6446 281.966 57.141C281.928 56.3722 281.59 56.1109 280.945 55.7726C279.354 55.0156 277.858 54.071 276.491 52.959C275.776 52.2973 275.245 51.4616 274.949 50.5334C274.653 49.6052 274.602 48.6161 274.801 47.6623C274.943 46.6479 275.46 45.7234 276.248 45.0705C277.037 44.4176 278.041 44.0835 279.063 44.1338C280.066 44.0659 281.057 44.3764 281.841 45.004C282.626 45.6315 283.148 46.5306 283.303 47.5239C283.595 49.5227 283.671 51.5522 283.771 53.5663C283.771 54.3351 284.002 54.6964 284.8 54.6887C286.336 54.6887 287.942 54.6887 289.508 54.6887C290.384 54.6887 290.668 54.3658 290.691 53.4664C290.745 51.5291 290.875 49.6226 291.106 47.6623C291.183 46.8661 291.506 46.1137 292.031 45.5102C292.555 44.9066 293.255 44.4819 294.032 44.2952C294.804 44.0298 295.636 43.99 296.431 44.1806C297.225 44.3712 297.949 44.7843 298.517 45.3714C299.953 46.8398 299.992 48.6309 299.416 50.4683C298.54 53.2819 296.344 54.7579 293.763 55.7034C293.366 55.7891 293.012 56.0148 292.767 56.3392C292.522 56.6637 292.401 57.0655 292.427 57.4716C292.012 65.2282 291.543 72.9849 291.083 80.7416C290.998 82.1868 290.891 83.6398 290.791 85.1542H288.84L290.476 56.7105H283.971L285.607 85.1619ZM292.657 53.8123C295.637 53.2127 297.81 50.8065 297.711 48.3388C297.714 47.7663 297.504 47.2131 297.122 46.7868C296.74 46.3606 296.214 46.0917 295.645 46.0326C295.354 45.9821 295.057 45.9899 294.77 46.0557C294.483 46.1214 294.211 46.2437 293.972 46.4154C293.732 46.5871 293.53 46.8049 293.375 47.0559C293.22 47.3069 293.117 47.5863 293.072 47.8776C292.841 49.8686 292.788 51.8366 292.657 53.8123ZM281.79 53.8661C281.659 51.8597 281.59 49.9763 281.398 48.1005C281.374 47.7968 281.288 47.5014 281.145 47.2321C281.003 46.9629 280.807 46.7257 280.57 46.535C280.332 46.3442 280.059 46.204 279.765 46.1229C279.472 46.0418 279.165 46.0215 278.864 46.0633C278.255 46.1067 277.688 46.39 277.288 46.8513C276.888 47.3125 276.686 47.9138 276.729 48.5233C276.713 50.8911 278.656 52.9897 281.79 53.8815V53.8661Z" fill="white"/>
    <path d="M399.463 326.003H384.434C384.434 326.003 378.351 332.837 376.277 335.074C375.174 336.233 374.459 337.708 374.234 339.293C374.008 340.878 374.282 342.494 375.018 343.915L382.16 357.268H401.66L408.802 343.915C409.545 342.497 409.826 340.881 409.607 339.295C409.388 337.709 408.68 336.231 407.581 335.067C405.546 332.868 399.463 326.003 399.463 326.003Z" fill="#F59E35"/>
    <path d="M402.766 314.948C402.619 314.638 402.413 314.359 402.159 314.129C401.904 313.898 401.607 313.72 401.284 313.604C400.961 313.488 400.618 313.438 400.276 313.455C399.933 313.472 399.597 313.556 399.287 313.703L397.536 314.533V312.734C397.536 311.262 396.952 309.851 395.912 308.81C394.872 307.769 393.461 307.184 391.991 307.184C390.52 307.184 389.11 307.769 388.07 308.81C387.03 309.851 386.446 311.262 386.446 312.734V325.995H397.536V320.314L401.522 318.423C402.146 318.127 402.628 317.595 402.861 316.943C403.095 316.292 403.06 315.575 402.766 314.948Z" fill="#133E2E"/>
    <path d="M382.283 334.967C382.605 334.967 382.867 334.705 382.867 334.382C382.867 334.06 382.605 333.798 382.283 333.798C381.961 333.798 381.699 334.06 381.699 334.382C381.699 334.705 381.961 334.967 382.283 334.967Z" fill="#840202"/>
    <path d="M386.445 353.394C386.768 353.394 387.029 353.132 387.029 352.809C387.029 352.487 386.768 352.225 386.445 352.225C386.123 352.225 385.862 352.487 385.862 352.809C385.862 353.132 386.123 353.394 386.445 353.394Z" fill="#840202"/>
    <path d="M387.483 332.914C388.055 332.914 388.519 332.449 388.519 331.876C388.519 331.303 388.055 330.838 387.483 330.838C386.91 330.838 386.446 331.303 386.446 331.876C386.446 332.449 386.91 332.914 387.483 332.914Z" fill="#840202"/>
    <path d="M401.545 340.379C402.117 340.379 402.581 339.914 402.581 339.341C402.581 338.768 402.117 338.303 401.545 338.303C400.972 338.303 400.508 338.768 400.508 339.341C400.508 339.914 400.972 340.379 401.545 340.379Z" fill="#840202"/>
    <path d="M398.373 347.843C398.861 347.843 399.256 347.447 399.256 346.959C399.256 346.471 398.861 346.075 398.373 346.075C397.885 346.075 397.49 346.471 397.49 346.959C397.49 347.447 397.885 347.843 398.373 347.843Z" fill="#840202"/>
    <path d="M381.246 345.768C381.819 345.768 382.283 345.303 382.283 344.73C382.283 344.157 381.819 343.692 381.246 343.692C380.674 343.692 380.209 344.157 380.209 344.73C380.209 345.303 380.674 345.768 381.246 345.768Z" fill="#840202"/>
    <path d="M387.943 342.216C388.265 342.216 388.527 341.954 388.527 341.632C388.527 341.309 388.265 341.047 387.943 341.047C387.621 341.047 387.359 341.309 387.359 341.632C387.359 341.954 387.621 342.216 387.943 342.216Z" fill="#840202"/>
    <path d="M402.128 334.967C402.45 334.967 402.712 334.705 402.712 334.382C402.712 334.06 402.45 333.798 402.128 333.798C401.806 333.798 401.544 334.06 401.544 334.382C401.544 334.705 401.806 334.967 402.128 334.967Z" fill="#840202"/>
    <path d="M389.801 349.919C390.124 349.919 390.385 349.657 390.385 349.335C390.385 349.012 390.124 348.75 389.801 348.75C389.479 348.75 389.218 349.012 389.218 349.335C389.218 349.657 389.479 349.919 389.801 349.919Z" fill="#840202"/>
    <path d="M392.528 347.974C392.85 347.974 393.112 347.712 393.112 347.39C393.112 347.067 392.85 346.805 392.528 346.805C392.206 346.805 391.944 347.067 391.944 347.39C391.944 347.712 392.206 347.974 392.528 347.974Z" fill="#840202"/>
    <path d="M399.555 355.846C399.878 355.846 400.139 355.584 400.139 355.262C400.139 354.939 399.878 354.677 399.555 354.677C399.233 354.677 398.972 354.939 398.972 355.262C398.972 355.584 399.233 355.846 399.555 355.846Z" fill="#840202"/>
    <path d="M396.322 334.383C396.644 334.383 396.906 334.121 396.906 333.798C396.906 333.476 396.644 333.214 396.322 333.214C396 333.214 395.738 333.476 395.738 333.798C395.738 334.121 396 334.383 396.322 334.383Z" fill="#840202"/>
    <path d="M395.738 340.963C396.061 340.963 396.322 340.701 396.322 340.379C396.322 340.056 396.061 339.794 395.738 339.794C395.416 339.794 395.155 340.056 395.155 340.379C395.155 340.701 395.416 340.963 395.738 340.963Z" fill="#840202"/>
    <path d="M395.738 353.978C396.061 353.978 396.322 353.716 396.322 353.394C396.322 353.071 396.061 352.809 395.738 352.809C395.416 352.809 395.155 353.071 395.155 353.394C395.155 353.716 395.416 353.978 395.738 353.978Z" fill="#840202"/>
    <path d="M402.581 346.352C402.904 346.352 403.165 346.09 403.165 345.768C403.165 345.445 402.904 345.183 402.581 345.183C402.259 345.183 401.998 345.445 401.998 345.768C401.998 346.09 402.259 346.352 402.581 346.352Z" fill="#840202"/>
    <path d="M391.852 309.467C393.019 309.467 393.964 308.404 393.964 307.092C393.964 305.78 393.019 304.716 391.852 304.716C390.686 304.716 389.74 305.78 389.74 307.092C389.74 308.404 390.686 309.467 391.852 309.467Z" fill="#E8443C"/>
    <path d="M397.727 309.213C397.966 308.337 397.531 307.454 396.753 307.241C395.976 307.028 395.152 307.566 394.912 308.442C394.672 309.318 395.108 310.201 395.885 310.414C396.663 310.627 397.487 310.09 397.727 309.213Z" fill="#E8443C"/>
    <path d="M343.022 112.897H380.437V136.885H343.022V112.897Z" fill="#B8B8E8"/>
    <path d="M343.022 112.897H380.437L361.729 129.879L343.022 112.897Z" fill="#9595CB"/>
    <defs>
        <linearGradient id="paint0_linear" x1="90.5988" y1="268.286" x2="110.628" y2="268.286" gradientUnits="userSpaceOnUse">
            <stop offset="0.03" stop-color="#B4BFEB"/>
            <stop offset="0.37" stop-color="#C3CDF0"/>
            <stop offset="1" stop-color="#E9EFFD"/>
        </linearGradient>
        <linearGradient id="paint1_linear" x1="165.386" y1="225.731" x2="174.944" y2="311.224" gradientUnits="userSpaceOnUse">
            <stop offset="0.07" stop-color="#E9DDCC"/>
            <stop offset="0.8" stop-color="#E58056"/>
        </linearGradient>
        <linearGradient id="paint2_linear" x1="10793.6" y1="2162.65" x2="10785.1" y2="2011.07" gradientUnits="userSpaceOnUse">
            <stop offset="0.07" stop-color="#EBDECE"/>
            <stop offset="0.8" stop-color="#E58056"/>
        </linearGradient>
        <linearGradient id="paint3_linear" x1="192.171" y1="244.762" x2="277.036" y2="244.762" gradientUnits="userSpaceOnUse">
            <stop stop-color="white"/>
            <stop offset="1" stop-color="white"/>
        </linearGradient>
        <linearGradient id="paint4_linear" x1="21318.5" y1="1179.56" x2="30696.9" y2="1179.56" gradientUnits="userSpaceOnUse">
            <stop stop-color="white"/>
            <stop offset="1" stop-color="white"/>
        </linearGradient>
        <linearGradient id="paint5_linear" x1="21318.5" y1="1224.78" x2="30696.9" y2="1224.78" gradientUnits="userSpaceOnUse">
            <stop stop-color="white"/>
            <stop offset="1" stop-color="white"/>
        </linearGradient>
        <linearGradient id="paint6_linear" x1="21318.5" y1="1270.05" x2="30696.9" y2="1270.05" gradientUnits="userSpaceOnUse">
            <stop stop-color="white"/>
            <stop offset="1" stop-color="white"/>
        </linearGradient>
        <linearGradient id="paint7_linear" x1="277.596" y1="221.138" x2="293.164" y2="221.138" gradientUnits="userSpaceOnUse">
            <stop stop-color="#F7F7F7"/>
            <stop offset="0.03" stop-color="#C7C7C6"/>
            <stop offset="0.06" stop-color="#9F9F9E"/>
            <stop offset="0.08" stop-color="#80807F"/>
            <stop offset="0.11" stop-color="#6A6A68"/>
            <stop offset="0.13" stop-color="#5D5D5B"/>
            <stop offset="0.16" stop-color="#585856"/>
            <stop offset="0.2" stop-color="#696968"/>
            <stop offset="0.37" stop-color="#A9A9A8"/>
            <stop offset="0.51" stop-color="#D8D8D7"/>
            <stop offset="0.62" stop-color="#F4F4F4"/>
            <stop offset="0.68" stop-color="white"/>
            <stop offset="0.7" stop-color="#D4D4D3"/>
            <stop offset="0.74" stop-color="#A8A8A7"/>
            <stop offset="0.77" stop-color="#858584"/>
            <stop offset="0.8" stop-color="#6C6C6A"/>
            <stop offset="0.82" stop-color="#5D5D5B"/>
            <stop offset="0.84" stop-color="#585856"/>
        </linearGradient>
        <linearGradient id="paint8_linear" x1="7176.98" y1="18354.1" x2="9238.91" y2="21042.1" gradientUnits="userSpaceOnUse">
            <stop offset="0.07" stop-color="#E9DDCC"/>
            <stop offset="0.8" stop-color="#E58056"/>
        </linearGradient>
        <linearGradient id="paint9_linear" x1="10113.9" y1="16004.9" x2="10101.2" y2="13779.6" gradientUnits="userSpaceOnUse">
            <stop offset="0.07" stop-color="#E9DDCC"/>
            <stop offset="0.8" stop-color="#E58056"/>
        </linearGradient>
        <linearGradient id="paint10_linear" x1="19297" y1="14581.9" x2="19288.7" y2="11796.4" gradientUnits="userSpaceOnUse">
            <stop offset="0.07" stop-color="#E9DDCC"/>
            <stop offset="0.8" stop-color="#E58056"/>
        </linearGradient>
        <linearGradient id="paint11_linear" x1="6409.37" y1="4680.47" x2="6726.43" y2="4680.47" gradientUnits="userSpaceOnUse">
            <stop stop-color="#F7F7F7"/>
            <stop offset="0.03" stop-color="#C7C7C6"/>
            <stop offset="0.06" stop-color="#9F9F9E"/>
            <stop offset="0.08" stop-color="#80807F"/>
            <stop offset="0.11" stop-color="#6A6A68"/>
            <stop offset="0.13" stop-color="#5D5D5B"/>
            <stop offset="0.16" stop-color="#585856"/>
            <stop offset="0.2" stop-color="#696968"/>
            <stop offset="0.37" stop-color="#A9A9A8"/>
            <stop offset="0.51" stop-color="#D8D8D7"/>
            <stop offset="0.62" stop-color="#F4F4F4"/>
            <stop offset="0.68" stop-color="white"/>
            <stop offset="0.7" stop-color="#D4D4D3"/>
            <stop offset="0.74" stop-color="#A8A8A7"/>
            <stop offset="0.77" stop-color="#858584"/>
            <stop offset="0.8" stop-color="#6C6C6A"/>
            <stop offset="0.82" stop-color="#5D5D5B"/>
            <stop offset="0.84" stop-color="#585856"/>
        </linearGradient>
        <linearGradient id="paint12_linear" x1="27417" y1="908.65" x2="35329.1" y2="908.65" gradientUnits="userSpaceOnUse">
            <stop stop-color="white"/>
            <stop offset="1" stop-color="white"/>
        </linearGradient>
        <linearGradient id="paint13_linear" x1="27417" y1="933.92" x2="35329.1" y2="933.92" gradientUnits="userSpaceOnUse">
            <stop stop-color="white"/>
            <stop offset="1" stop-color="white"/>
        </linearGradient>
        <linearGradient id="paint14_linear" x1="27417" y1="959.149" x2="35329.1" y2="959.149" gradientUnits="userSpaceOnUse">
            <stop stop-color="white"/>
            <stop offset="1" stop-color="white"/>
        </linearGradient>
        <linearGradient id="paint15_linear" x1="27417" y1="984.404" x2="35329.1" y2="984.404" gradientUnits="userSpaceOnUse">
            <stop stop-color="white"/>
            <stop offset="1" stop-color="white"/>
        </linearGradient>
        <linearGradient id="paint16_linear" x1="67300.5" y1="49233.2" x2="68393.3" y2="49233.2" gradientUnits="userSpaceOnUse">
            <stop stop-color="#F2B3A5"/>
            <stop offset="0.32" stop-color="#F2B5A8"/>
            <stop offset="0.51" stop-color="#F4BCB0"/>
            <stop offset="0.67" stop-color="#F6C8BE"/>
            <stop offset="0.8" stop-color="#F9D9D2"/>
            <stop offset="0.93" stop-color="#FCEFEC"/>
            <stop offset="1" stop-color="white"/>
        </linearGradient>
        <linearGradient id="paint17_linear" x1="14.647" y1="187.014" x2="75.542" y2="187.014" gradientUnits="userSpaceOnUse">
            <stop offset="0.22" stop-color="white"/>
            <stop offset="1" stop-color="white"/>
        </linearGradient>
        <linearGradient id="paint18_linear" x1="54629.6" y1="-1131.19" x2="59457.9" y2="-1131.19" gradientUnits="userSpaceOnUse">
            <stop offset="0.22" stop-color="white"/>
            <stop offset="1" stop-color="white"/>
        </linearGradient>
        <linearGradient id="paint19_linear" x1="54629.6" y1="-1108.65" x2="59457.9" y2="-1108.65" gradientUnits="userSpaceOnUse">
            <stop offset="0.22" stop-color="white"/>
            <stop offset="1" stop-color="white"/>
        </linearGradient>
        <linearGradient id="paint20_linear" x1="287.058" y1="85.4461" x2="287.058" y2="89.9433" gradientUnits="userSpaceOnUse">
            <stop offset="0.07" stop-color="#B4AFB9"/>
            <stop offset="0.17" stop-color="#A7A5B6"/>
            <stop offset="0.44" stop-color="#898DB0"/>
            <stop offset="0.68" stop-color="#777EAC"/>
            <stop offset="0.84" stop-color="#7079AB"/>
        </linearGradient>
        <linearGradient id="paint21_linear" x1="10108.6" y1="426.1" x2="10108.6" y2="443.279" gradientUnits="userSpaceOnUse">
            <stop offset="0.07" stop-color="#B4AFB9"/>
            <stop offset="0.17" stop-color="#A7A5B6"/>
            <stop offset="0.44" stop-color="#898DB0"/>
            <stop offset="0.68" stop-color="#777EAC"/>
            <stop offset="0.84" stop-color="#7079AB"/>
        </linearGradient>
        <linearGradient id="paint22_linear" x1="10108.6" y1="440.252" x2="10108.6" y2="457.432" gradientUnits="userSpaceOnUse">
            <stop offset="0.07" stop-color="#B4AFB9"/>
            <stop offset="0.17" stop-color="#A7A5B6"/>
            <stop offset="0.44" stop-color="#898DB0"/>
            <stop offset="0.68" stop-color="#777EAC"/>
            <stop offset="0.84" stop-color="#7079AB"/>
        </linearGradient>
        <linearGradient id="paint23_linear" x1="10108.6" y1="454.409" x2="10108.6" y2="471.588" gradientUnits="userSpaceOnUse">
            <stop offset="0.07" stop-color="#B4AFB9"/>
            <stop offset="0.17" stop-color="#A7A5B6"/>
            <stop offset="0.44" stop-color="#898DB0"/>
            <stop offset="0.68" stop-color="#777EAC"/>
            <stop offset="0.84" stop-color="#7079AB"/>
        </linearGradient>
        <linearGradient id="paint24_linear" x1="9562.9" y1="1118.68" x2="9562.9" y2="1248.56" gradientUnits="userSpaceOnUse">
            <stop offset="0.07" stop-color="#B4AFB9"/>
            <stop offset="0.17" stop-color="#A7A5B6"/>
            <stop offset="0.44" stop-color="#898DB0"/>
            <stop offset="0.68" stop-color="#777EAC"/>
            <stop offset="0.84" stop-color="#7079AB"/>
        </linearGradient>
        <linearGradient id="paint25_linear" x1="2472.25" y1="148.421" x2="2530.83" y2="148.421" gradientUnits="userSpaceOnUse">
            <stop offset="0.03" stop-color="#B4BFEB"/>
            <stop offset="0.37" stop-color="#C3CDF0"/>
            <stop offset="1" stop-color="#E9EFFD"/>
        </linearGradient>
        <linearGradient id="paint26_linear" x1="2946.23" y1="757.759" x2="3001.41" y2="757.759" gradientUnits="userSpaceOnUse">
            <stop offset="0.03" stop-color="#B4BFEB"/>
            <stop offset="0.37" stop-color="#C3CDF0"/>
            <stop offset="1" stop-color="#E9EFFD"/>
        </linearGradient>
        <linearGradient id="paint27_linear" x1="3010.03" y1="180.48" x2="3110.26" y2="180.48" gradientUnits="userSpaceOnUse">
            <stop offset="0.03" stop-color="#B4BFEB"/>
            <stop offset="0.37" stop-color="#C3CDF0"/>
            <stop offset="1" stop-color="#E9EFFD"/>
        </linearGradient>
        <linearGradient id="paint28_linear" x1="3959.67" y1="323.217" x2="4058.25" y2="323.217" gradientUnits="userSpaceOnUse">
            <stop offset="0.03" stop-color="#B4BFEB"/>
            <stop offset="0.37" stop-color="#C3CDF0"/>
            <stop offset="1" stop-color="#E9EFFD"/>
        </linearGradient>
        <linearGradient id="paint29_linear" x1="3019.06" y1="280.816" x2="3120.26" y2="280.816" gradientUnits="userSpaceOnUse">
            <stop offset="0.03" stop-color="#B4BFEB"/>
            <stop offset="0.37" stop-color="#C3CDF0"/>
            <stop offset="1" stop-color="#E9EFFD"/>
        </linearGradient>
        <linearGradient id="paint30_linear" x1="4065.56" y1="173.39" x2="4168.68" y2="173.39" gradientUnits="userSpaceOnUse">
            <stop offset="0.03" stop-color="#B4BFEB"/>
            <stop offset="0.37" stop-color="#C3CDF0"/>
            <stop offset="1" stop-color="#E9EFFD"/>
        </linearGradient>
        <linearGradient id="paint31_linear" x1="2511.28" y1="716.661" x2="2572.14" y2="716.661" gradientUnits="userSpaceOnUse">
            <stop offset="0.03" stop-color="#B4BFEB"/>
            <stop offset="0.37" stop-color="#C3CDF0"/>
            <stop offset="1" stop-color="#E9EFFD"/>
        </linearGradient>
        <linearGradient id="paint32_linear" x1="3170.55" y1="162.733" x2="3234.25" y2="162.733" gradientUnits="userSpaceOnUse">
            <stop offset="0.03" stop-color="#B4BFEB"/>
            <stop offset="0.37" stop-color="#C3CDF0"/>
            <stop offset="1" stop-color="#E9EFFD"/>
        </linearGradient>
        <linearGradient id="paint33_linear" x1="1676.42" y1="65.2471" x2="1692.95" y2="65.2471" gradientUnits="userSpaceOnUse">
            <stop offset="0.03" stop-color="#B4BFEB"/>
            <stop offset="0.37" stop-color="#C3CDF0"/>
            <stop offset="1" stop-color="#E9EFFD"/>
        </linearGradient>
        <linearGradient id="paint34_linear" x1="1319.56" y1="51.2837" x2="1330.53" y2="51.2837" gradientUnits="userSpaceOnUse">
            <stop offset="0.03" stop-color="#B4BFEB"/>
            <stop offset="0.37" stop-color="#C3CDF0"/>
            <stop offset="1" stop-color="#E9EFFD"/>
        </linearGradient>
    </defs>
</svg>
