<svg width="780" height="788" viewBox="0 0 780 788" fill="none" xmlns="http://www.w3.org/2000/svg">
    <path fill-rule="evenodd" clip-rule="evenodd" d="M470.943 97.7686C546.035 95.7106 605.574 132.404 674.937 151.452C751.339 172.434 847.668 164.039 897.508 214.91C949.627 268.108 947.496 346.665 936.012 417.929C924.375 490.144 900.073 567.377 832.546 618.045C767.306 666.997 674.44 677.657 589.955 677.588C519.32 677.53 469.432 659.645 402.081 646.125C316.045 628.855 172.716 697.906 114.19 645.204C56.2854 593.062 89.3119 476.246 102.336 402.576C115.408 328.632 152.13 218.142 218.739 163.956C284.32 110.605 382.515 100.192 470.943 97.7686Z" fill="#FCE3C4"/>
    <path d="M624.57 275.364H279.152C272.283 275.364 266.714 280.933 266.714 287.803V482.976C266.714 489.846 272.283 495.415 279.152 495.415H624.57C631.44 495.415 637.008 489.846 637.008 482.976V287.803C637.008 280.933 631.44 275.364 624.57 275.364Z" fill="white"/>
    <path d="M624.591 275.281H279.153C275.843 275.281 272.668 276.596 270.328 278.937C267.988 281.277 266.673 284.452 266.673 287.762V308.75H636.904V287.762C636.905 284.48 635.613 281.331 633.308 278.995C631.004 276.659 627.872 275.325 624.591 275.281Z" fill="#F6BC73"/>
    <path d="M624.57 275.364H279.152C272.283 275.364 266.714 280.933 266.714 287.803V482.976C266.714 489.846 272.283 495.415 279.152 495.415H624.57C631.44 495.415 637.008 489.846 637.008 482.976V287.803C637.008 280.933 631.44 275.364 624.57 275.364Z" fill="white"/>
    <path d="M642.416 238H261.584C247.454 238 236 249.464 236 263.607V494.393C236 508.536 247.454 520 261.584 520H642.416C656.546 520 668 508.536 668 494.393V263.607C668 249.464 656.546 238 642.416 238Z" fill="#9399B8"/>
    <path d="M490.767 518.801H412.936V567.974H490.767V518.801Z" fill="#9399B8"/>
    <path d="M521.945 567H381.972C375.88 567 370.037 569.845 365.728 574.908C361.42 579.972 359 586.839 359 594H545C545 590.446 544.403 586.927 543.243 583.645C542.084 580.363 540.384 577.382 538.242 574.874C536.1 572.365 533.558 570.378 530.761 569.027C527.964 567.676 524.968 566.987 521.945 567Z" fill="#9399B8"/>
    <path d="M637.008 254.804H266.735C257.936 254.804 250.803 261.937 250.803 270.737V488.063C250.803 496.863 257.936 503.997 266.735 503.997H637.008C645.808 503.997 652.941 496.863 652.941 488.063V270.737C652.941 261.937 645.808 254.804 637.008 254.804Z" fill="#F1F1FB"/>
    <path d="M624.591 269.281H279.153C275.843 269.281 272.668 270.596 270.328 272.937C267.988 275.277 266.673 278.452 266.673 281.762V302.75H636.904V281.762C636.905 278.48 635.613 275.331 633.308 272.995C631.004 270.659 627.872 269.325 624.591 269.281Z" fill="#F6BC73"/>
    <path d="M562.775 292.495C566.336 292.495 569.223 289.608 569.223 286.047C569.223 282.486 566.336 279.599 562.775 279.599C559.214 279.599 556.327 282.486 556.327 286.047C556.327 289.608 559.214 292.495 562.775 292.495Z" fill="#F7941D"/>
    <path d="M498.9 360.68H287.41V467.991H498.9V360.68Z" fill="#FDCDCA"/>
    <path d="M300.056 343.852C307.041 343.852 312.702 338.19 312.702 331.205C312.702 324.221 307.041 318.559 300.056 318.559C293.072 318.559 287.41 324.221 287.41 331.205C287.41 338.19 293.072 343.852 300.056 343.852Z" fill="#F6BC73"/>
    <path d="M413.66 319.619H328.804C327.7 319.619 326.804 320.515 326.804 321.619V326.251C326.804 327.356 327.7 328.251 328.804 328.251H413.66C414.764 328.251 415.66 327.356 415.66 326.251V321.619C415.66 320.515 414.764 319.619 413.66 319.619Z" fill="#9595CB"/>
    <path d="M471.922 339.047H328.676C327.642 339.047 326.804 339.885 326.804 340.919C326.804 341.953 327.642 342.791 328.676 342.791H471.922C472.956 342.791 473.794 341.953 473.794 340.919C473.794 339.885 472.956 339.047 471.922 339.047Z" fill="#F6BC73"/>
    <path d="M615.135 292.896C618.696 292.896 621.583 290.009 621.583 286.448C621.583 282.887 618.696 280 615.135 280C611.574 280 608.688 282.887 608.688 286.448C608.688 290.009 611.574 292.896 615.135 292.896Z" fill="#5FC8D7"/>
    <path d="M589.448 292.896C593.009 292.896 595.896 290.009 595.896 286.448C595.896 282.887 593.009 280 589.448 280C585.887 280 583 282.887 583 286.448C583 290.009 585.887 292.896 589.448 292.896Z" fill="#EF4065"/>
    <path d="M718.963 338.405L625.65 282.732L539.94 426.407L633.253 482.08L718.963 338.405Z" fill="#F2F2F2"/>
    <path d="M667.439 341.807L621.944 314.663L620.026 317.878L665.521 345.022L667.439 341.807Z" fill="#F6BC73"/>
    <path d="M686.834 366.181L616.296 324.096L591.882 365.02L662.42 407.105L686.834 366.181Z" fill="#9399B8"/>
    <path d="M631.315 402.329L585.82 375.186L583.902 378.401L629.397 405.545L631.315 402.329Z" fill="#F6BC73"/>
    <path d="M650.432 426.302L579.894 384.217L555.48 425.142L626.018 467.227L650.432 426.302Z" fill="#9399B8"/>
    <path d="M698.021 338.512L635.311 301.071C634.796 300.764 634.225 300.561 633.632 300.474C633.039 300.387 632.434 300.418 631.853 300.565C631.272 300.712 630.725 300.971 630.244 301.329C629.763 301.688 629.357 302.137 629.05 302.652C628.743 303.167 628.54 303.737 628.453 304.33C628.366 304.924 628.397 305.528 628.544 306.11C628.691 306.691 628.95 307.238 629.308 307.719C629.667 308.2 630.116 308.606 630.631 308.913L693.341 346.354C694.381 346.975 695.625 347.157 696.799 346.86C697.973 346.564 698.981 345.813 699.602 344.773C700.223 343.733 700.405 342.49 700.108 341.315C699.812 340.141 699.061 339.133 698.021 338.512V338.512Z" fill="#9595CB"/>
    <path d="M723.982 349.081C718.913 358.582 707.101 362.175 697.599 357.106C688.098 352.036 684.505 340.223 689.574 330.722C694.644 321.22 706.457 317.628 715.958 322.697C725.46 327.767 729.052 339.579 723.982 349.081Z" fill="#F25C5C"/>
    <path d="M701.778 349.135C701.015 348.728 700.754 347.728 701.195 346.901L707.743 334.628L707.475 334.485C706.713 334.078 706.452 333.079 706.893 332.252C707.334 331.425 708.31 331.085 709.072 331.492L710.722 332.372C711.484 332.779 711.745 333.778 711.304 334.605L703.958 348.374C703.516 349.201 702.541 349.542 701.778 349.135Z" fill="#E4EAF8"/>
</svg>
