<?xml version="1.0" encoding="utf-8"?>
<!-- Generator: Adobe Illustrator 21.0.0, SVG Export Plug-In . SVG Version: 6.00 Build 0)  -->
<svg version="1.1" id="Layer_1" xmlns="http://www.w3.org/2000/svg" xmlns:xlink="http://www.w3.org/1999/xlink" x="0px" y="0px"
	 viewBox="0 0 271 223" style="enable-background:new 0 0 271 223;" xml:space="preserve">
<style type="text/css">
	.st0{fill:#FEF0E0;}
	.st1{fill:#FFFFFF;stroke:#141939;}
	.st2{fill:#FCE1C0;}
	.st3{opacity:0.6;fill:#FDCDCA;enable-background:new    ;}
	.st4{fill:none;stroke:#141939;}
	.st5{fill:#FF8888;}
	.st6{fill:#9399B8;}
	.st7{fill:#273271;}
	.st8{fill:#FFFFFF;stroke:#273271;}
	.st9{fill:none;stroke:#273271;}
</style>
<path class="st0" d="M21.6,196.9c-21.9-18.1-22.8-33.8-19.9-62.7c2.8-26.8,16.1-52.4,36-71.5C55.4,45.8,81.8,46.3,104,36.3
	C128.5,25.2,148.2-2.1,174.4,1c26.5,3.1,41.1,30.1,57.5,50.4c16.7,20.6,35.7,41,38,67.8c2.3,27.7-8.8,37.6-26.3,60.1
	c-17,21.8-41.7,38.3-68.7,42.8c-24.6,4.1-44.5-16-68.8-20C77.6,197.4,43.4,214.8,21.6,196.9z"/>
<path class="st1" d="M79,65.5h136.3c0.3,0,0.5,0.2,0.5,0.5v110c0,0.3-0.2,0.5-0.5,0.5H79c-0.3,0-0.5-0.2-0.5-0.5V66
	C78.5,65.7,78.7,65.5,79,65.5z"/>
<rect x="95.1" y="121" class="st2" width="105.1" height="3.4"/>
<rect x="95.1" y="130.1" class="st2" width="105.1" height="3.4"/>
<rect x="95.1" y="138.1" class="st2" width="105.1" height="4.6"/>
<rect x="95.1" y="147.3" class="st2" width="105.1" height="3.4"/>
<rect x="95.1" y="155.3" class="st2" width="105.1" height="4.6"/>
<path class="st3" d="M95.6,100.4h104.1c0.3,0,0.5,0.2,0.5,0.5v5.9c0,0.3-0.2,0.5-0.5,0.5H95.6c-0.3,0-0.5-0.2-0.5-0.5v-5.9
	C95.1,100.7,95.4,100.4,95.6,100.4z"/>
<path class="st1" d="M147.7,110.1c22.8,0,41.8,14.6,44.9,17.2c-3.2,2.6-22.1,17.2-44.9,17.2c-22.2,0-40.7-13.9-44.6-17
	c0,0,0,0,0-0.1c0,0,0-0.1,0-0.1c0,0,0,0,0,0c0.4-0.3,0.9-0.6,1.6-1.1C110.8,122,127.7,110.1,147.7,110.1z"/>
<path class="st4" d="M78.6,86.1h136.6"/>
<circle class="st5" cx="196.9" cy="75.3" r="4.6"/>
<circle class="st5" cx="177.4" cy="75.3" r="4.6"/>
<circle class="st6" cx="147.1" cy="127.3" r="12"/>
<rect x="146.6" y="117.3" class="st7" width="1" height="20.6"/>
<rect x="136.9" y="127.1" class="st7" width="20.6" height="1"/>
<circle class="st8" cx="147.1" cy="127.6" r="7.2"/>
<circle class="st9" cx="147.1" cy="127.6" r="4.1"/>
</svg>
