<svg version="1.1" id="Layer_1" xmlns="http://www.w3.org/2000/svg" xmlns:xlink="http://www.w3.org/1999/xlink" x="0px" y="0px"
	 viewBox="0 0 1015.3 703.3" style="enable-background:new 0 0 1015.3 703.3;" xml:space="preserve">
<style type="text/css">
	.st0{fill:#F1F1FB;}
	.st1{fill:#F59E35;}
	.st2{fill:#FFFFFF;}
	.st3{fill:#F6BC73;}
	.st4{fill:#B8B8E8;}
	.st5{fill:#FF8888;}
	.st6{fill:#FDCDCA;}
	.st7{fill:#9595CB;}
	.st8{fill:#151912;}
	.st9{fill:#EA956C;}
	.st10{fill:#273271;}
	.st11{fill:#1A245A;}
	.st12{fill:#AE302A;}
	.st13{fill:#F8443C;}
	.st14{fill:#4F2E17;}
	.st15{fill:url(#SVGID_1_);}
	.st16{fill:url(#SVGID_2_);}
</style>
<path class="st0" d="M922.8,378.8c-4.1,72.3,53.7,144.2-19,192.7c-74,49.3-181.2,48.1-287.5,47.7c-81.5-0.3-161.1,30.4-237.5,6.3
	c-76.9-24.3-110.1-121-161.3-168.3C157.6,401.9,68.1,356.4,54.6,289.7c-14.6-72.5,6-158.5,89.1-198.2
	c82.9-39.6,201.4,11.6,305.3,9.7c82.8-1.5,156.8-32.8,239.1-19.8c98.2,15.4,214.1,36.5,263.3,98.8
	C1000.5,242.4,926.6,310.3,922.8,378.8z"/>
<g>
	<path class="st1" d="M404.3,222.9l-78.1-70.5c-0.7-0.8-1.5-1.6-2.4-2.2l-1.1-1c-0.9-0.8-1.8-1.6-2.8-2.3c-7.4-4.9-8.3-4.9-9.8-4.9
		c-1.4,0-3.3,0.4-10,5.1c-0.8,0.6-1.6,1.2-2.4,1.9l-1.3,1.3c-0.8,0.7-1.6,1.4-2.4,2.2L215.9,223c-0.4,0.4-0.6,0.7-0.7,1
		c-0.1,0.2-0.1,0.5-0.2,0.8c0,0.3-0.1,0.6-0.1,1.2v87.9c0,3.4,1.4,6.7,3.8,9.2c2.4,2.4,5.7,3.8,9.2,3.8h164.4c3.4,0,6.7-1.4,9.2-3.8
		c2.4-2.4,3.8-5.7,3.8-9.2V226c0-1.1,0-1.3,0-1.3S405.2,223.4,404.3,222.9z"/>
	<path class="st2" d="M391.7,300.4v-99.1l-47.5-47.4H240.6c-1.7,0-3.4,0.3-5,1s-3,1.6-4.2,2.8s-2.2,2.6-2.8,4.2c-0.6,1.6-1,3.3-1,5
		v133.6h164.1V300.4z"/>
	<path class="st1" d="M391.7,326.7H226.2c-3.4,0-6.7,0.2-9.1-2.2c-2.4-2.4-2.2-5.7-2.2-9.2v-88.2L391.7,326.7z"/>
	<path class="st3" d="M227.6,326.7h166.2c3.4,0,6.8-0.6,9.2-3c2.4-2.4,2.2-4.9,2.2-8.4v-88.2L227.6,326.7z"/>
	<path class="st4" d="M344.7,153.9v34.8c0,3.5,1.4,6.8,3.8,9.2s5.7,3.8,9.1,3.8h34.2L344.7,153.9z"/>
	<path class="st5" d="M363.8,210.4H257.9v8h105.9V210.4z"/>
	<path class="st5" d="M325.6,227.2h-67.7v8.8h67.7L325.6,227.2L325.6,227.2z"/>
	<path class="st5" d="M298.5,192.9h-40.6v8.8h40.6V192.9z"/>
	<g>
		<path class="st6" d="M136,95.1H44V154h92V95.1z"/>
		<path class="st6" d="M90,124.5L44,154h92L90,124.5z"/>
		<path class="st5" d="M136,95.1H44l46,41.7L136,95.1z"/>
	</g>
	<g>
		<path class="st4" d="M173.5,194.5h-73.1v46.9h73.1V194.5z"/>
		<path class="st4" d="M137,218l-36.6,23.5h73.1L137,218z"/>
		<path class="st7" d="M173.5,194.5h-73.1l36.6,33.2L173.5,194.5z"/>
	</g>
</g>
<path class="st8" d="M1017.2,510.1c0,0-1.7,7.9-1,9.3c0,0,26.9,5.5,37.5,2.3c3.3-4.4-20.6-14.3-20.6-14.3L1017.2,510.1z"/>
<g>
	<path class="st9" d="M595.9,211.2c0,0-4.3,3.6-5.4,2.5c-1.4-1.6,2-12.4,2-12.4l4.2,1.5L595.9,211.2z"/>

		<rect x="584.4" y="207.4" transform="matrix(1 -9.174672e-03 9.174672e-03 1 -1.9221 5.4355)" class="st10" width="14.1" height="9.6"/>
	<path class="st10" d="M579,219c-23.8,26.4,9.9,78.8,26.9,89.4c12.4,7.7,25.3,4.8,41.1-12c0,0-12-20.6-20.7-31.5
		c-12.8-37.1-26.9-50.2-26.9-50.2S587.5,209.6,579,219z"/>
	<path class="st9" d="M414.1,584.9L414.1,584.9c0.6,2.7,3.3,4.3,6,3.7l25.2-5.8c2.7-0.6,4.3-3.3,3.7-6l0,0c-0.6-2.7-3.3-4.3-6-3.7
		l-25.2,5.8C415.2,579.5,413.5,582.2,414.1,584.9z"/>
	<path class="st9" d="M455.5,541.8L455.5,541.8c2.7,0.2,5.1-1.8,5.4-4.6l2.2-25.8c0.2-2.7-1.8-5.1-4.6-5.4l0,0
		c-2.7-0.2-5.1,1.8-5.4,4.6l-2.2,25.8C450.7,539.1,452.6,541.6,455.5,541.8z"/>
	<path class="st11" d="M750.4,345.8c0,0,10.7,7.6,24.5,4.6c16.4-3.6,23.6-24.5,21.6-41.2l-8.4-69.9c-6-37.1-34.1-43.7-38-44.4
		L750.4,345.8z"/>
	<g>
		<path class="st12" d="M783,419.4H469c12.5-10.6,61.4-20.1,95.4-26.3c8.3-1.5,16.7-2.2,25.1-2.2l227.4,1.5
			C805.9,411.4,798.9,412.9,783,419.4z"/>
		<path class="st12" d="M827.7,521.8c0.1,9.1-4.6,17.5-12.4,22.2l-25.6,15.5c-7.4,4.3-15.7,6.7-24.2,6.7H576.9c-6.7,0-12-5.4-12-12
			V404.4c0-6.7,5.4-12,12-12h237.4c6.7,0,12,5.4,12,12L827.7,521.8z"/>
		<path class="st13" d="M766.8,566.2H470.2c-4.3,0-7.7-3.5-7.7-7.7V426.3c0-4.3,3.5-7.7,7.7-7.7h296.6c4.3,0,7.7,3.5,7.7,7.7v132.1
			C774.5,562.7,771,566.2,766.8,566.2z"/>
	</g>
	<path class="st8" d="M388.4,566c-1.1,1.1-1.1,2.8,0,3.9l25.5,26.5c1.4,1.4,3.6,1.3,4.7-0.4l4.4-4.9c1.3-1.4,1.2-3.6-0.1-4.9
		c0,0-2.7,1.3-5.5-0.8c-2.2-1.8-1.2-4.1-0.2-5.4c0.5-0.7,0.2-1.6-0.6-2l-25.1-12.4C390.4,564.9,389.2,565.1,388.4,566L388.4,566z"/>
	<path class="st8" d="M421.5,546.2c0,1.5,1.3,2.7,2.8,2.7l36.8-0.5c2,0,3.4-1.8,2.9-3.6l-0.6-6.5c-0.1-1.9-1.8-3.3-3.7-3.3
		c0,0-0.9,2.9-4.3,3.4c-2.8,0.4-3.7-1.9-4.1-3.5c-0.1-0.8-1.1-1.3-1.9-0.9l-26.3,9.8C422.2,544.1,421.5,545.1,421.5,546.2
		L421.5,546.2z"/>
	<path class="st10" d="M633.4,308l-23.1-28.4l40.8-60.9c10.7-25,45-33.9,70.1-23.1l-7.4,12.4L633.4,308z"/>
	<g>
		<g>
			<path class="st1" d="M692.2,341.9c-1.3,16.2-67.2,102-67.2,102l-113.5-97c0,0-46-38.2-19.6-72.9c23.7-31.1,142.5,78,142.5,78
				s12.1-50.9,15.3-52.2C653.4,309.7,671.4,330.7,692.2,341.9z"/>
		</g>
	</g>
	<g>
		<g>
			<path class="st3" d="M743.6,309c2.9,39.9,18.9,80.1,8.5,106.1c-10,25.1-45.2,47-45.2,47l-93,41.5c0,0-34.3,32.6-51.5,43.7
				c-29.4,18.9-124.5,52.3-124.5,52.3l-10.2-23.7c0,0,96.4-56.8,127-93.7c22.7-27.2,101.9-97,101.9-97l18.9-102.7
				C675.5,282.5,736,306.3,743.6,309z"/>
		</g>
	</g>
	<path class="st10" d="M637.7,335.5c0,0,9.4-7,40.7-1.4c28.6,5.1,68.2,23.9,72,20.2c5.3-47.9,19.9-106,19.9-106
		c4.3-21.7-1.9-51.6-25.5-54.7c-11.8-1.5-35.7-2.2-47.8-2.2c-23.4-0.1-38.9,7.7-46.7,33.6C644,246.3,637.7,335.5,637.7,335.5z"/>
	<g>
		<g>
			<path class="st1" d="M526.7,315.1c-5.5,54.1-56.4,209.4-56.4,209.4l-29.4-6.8c0,0,14.6-190.9,36.1-228.8
				C507.7,234.5,528.2,300,526.7,315.1z"/>
		</g>
	</g>
	<path class="st14" d="M740.7,151.5c1.8-16-6.2-18.3-10.9-18.5c1.2-3,1.9-7.2-1.1-10.4c-3.9-4.2-14.6-4.6-19.6,0.8
		c-3.5-5.8-7.6-16.9-20.9-11.2c-18.3,7.9-3.9,28.7,0.5,30.7c0,0-5.8,1.9-4.3,8.4c1.1,4.6,4.7,5,4.8,4.7c-0.2,0.9,1.2,8.6,5.5,10.5
		c4.6,2,21.5,4.9,21.5,4.9S738.8,168.7,740.7,151.5z"/>
	<path class="st10" d="M692.5,169"/>
	<g>
		<path class="st9" d="M675.4,200.7c0,0-4.3,0.9-6,1.9c-1.2,0.7-2.9,4.9-2.9,4.9s4.3,8.5,8.5,9.1c1.6,0.2,3.6-0.9,5.7-2.3
			c1.4-0.9,1.3-4.8,0.4-6.1L675.4,200.7z"/>
		<path class="st9" d="M682.9,199.2L682.9,199.2c-1.6-0.4-3.3,0.8-3.6,2.5l-1.5,7.6l3,0.6L682.9,199.2z"/>
		<path class="st9" d="M670,191.8L670,191.8c-1.4,0.9-1.9,2.8-1.1,4.2l4.1,6.7l2.7-1.6L670,191.8L670,191.8z"/>
		<path class="st9" d="M665.5,206c-0.5-2.2,1.4-3.2,2.3-1.5l5.3,7.2l-3.2,0.8L665.5,206z"/>
		<path class="st9" d="M666.6,203.5c-0.5-2.2,1.4-3.2,2.3-1.5l5.3,7.2L671,210L666.6,203.5z"/>
		<path class="st9" d="M668.6,201.7c-0.4-2.2,1.8-3.4,2.7-1.6l5.4,7.1l-3.6,1.1L668.6,201.7z"/>

			<rect x="677" y="212.6" transform="matrix(0.7506 -0.6607 0.6607 0.7506 25.7738 503.7521)" class="st9" width="6.5" height="10.2"/>
	</g>
	<path class="st9" d="M731.2,192.4c0,0-1.4,11.8-17.2,10.7c-15.9-1.1-13-12-13-12s8.3-0.2,11.9-0.2
		C717.8,191,731.2,192.4,731.2,192.4z"/>
	<path class="st9" d="M717.8,199.3L717.8,199.3c4.1,0,7.4-3.2,7.5-7.2l0.2-25.2c0-4.1-3.2-7.4-7.2-7.4l0,0c-4.1,0-7.4,3.2-7.4,7.2
		l-0.2,25.2C710.5,195.9,713.7,199.3,717.8,199.3z"/>
	<path class="st9" d="M727.2,152.2c-1.2-0.2-3.7,1.2-3.7,1.2c-0.7-8.9-8.5-15.4-17.4-14.7s-14,8.4-13.3,17.3c0,0,0.9,13.3,1.4,15
		c2.8,10.7,7.5,13.6,15.8,12.8c8.2-0.7,14.5-7.5,14.7-15.4c1.6-0.5,3.4-3.5,4.2-7.4C729.6,156.5,728.9,152.6,727.2,152.2z"/>
	<path class="st14" d="M723.9,151.5c0,0-4,14.6-0.8,18.7c3.4,4.4-0.2,8.5-2.6,11.1s-15.4,10.6-23.5,7.6c-4.4-1.6-2.7-10.7-2.3-13.2
		c0.1-0.5,0.5-0.7,0.8-0.7c1.4,0,4.7,0,5.1-0.5c0.7-0.7-0.1-3.4-4.3-2.5c-2.7,0.6-0.2,3.4-0.5,4.2c-0.6,1.6-1.6,4.4-1.5,3.9
		s-1.1-7.5-0.6-9.7c0.2-0.9,0-1.4,2.1-2c0.5-0.1,6.5-1.3,9.9,1.5s4.2,4,5.8,3c1.6-0.9,6.4-17.8,11.4-24.2L723.9,151.5z"/>
	<path class="st14" d="M693.3,136.9c0,0,18.7,16.9,32.2,11.7C739.1,143.3,702.3,127.9,693.3,136.9z"/>
	<path class="st14" d="M728.8,122.7c-3.6-2.8-8.5-2.9-12.6-1.9c-1.1,0.2-2,0.6-2.9,1.1c-0.5,0.2-0.9,0.5-1.3,0.8
		c-0.2,0.2-1.3,0.9-2.1,0.8c-0.9,0-1.9-0.4-2.5-0.9c-0.7-0.8-0.8-1.2-1.2-1.6c-0.6-0.9-1.2-1.9-1.9-2.8c-2.5-3.5-5.7-6.2-9.7-5.7
		c-3.9,0.4-8.2,2.3-10.7,5.1c-2.8,2.7-3.4,6.9-2.5,11s3.2,7.9,5.7,11.3l0.6,0.6c0.4,0.4,0.6,0.8,0.7,1.3c0.2,0.9,0.2,1.9-0.2,2.8
		c-0.2,0.4-0.7,0.8-0.8,1.1c-0.2,0.1-0.4,0.4-0.5,0.5c-0.4,0.4-0.6,0.7-0.8,1.1c-0.9,1.5-0.8,3.9-0.2,5.6c0.4,0.9,0.9,1.8,1.6,2.3
		c0.4,0.4,0.8,0.4,1.5,0.9c0.6,0.5,0.9,1.2,0.9,1.9c0.2,2.2,0.8,4.3,2,6.4c-1.4-1.8-2.3-4-2.9-6.2c-0.2-1.1-0.9-1.1-2.2-1.8
		c-1.2-0.7-2-1.6-2.6-2.8c-1.1-2.3-1.4-4.9-0.2-7.5c0.2-0.6,0.7-1.2,1.1-1.8c0.2-0.2,0.5-0.5,0.7-0.7s0.1-0.2,0.2-0.2
		c0.1-0.1,0-0.4,0-0.6c0-0.1-0.1-0.1-0.1-0.2l-0.6-0.6c-3.3-3.5-5.6-7.7-6.9-12.5c-1.3-4.6-0.7-10.6,3-14.4c3.7-3.6,8.3-5.6,13.4-6
		c2.6-0.1,5.3,0.7,7.4,2.1c2.2,1.4,3.6,3.5,4.9,5.5c0.6,1.1,1.2,2,1.8,3c0.7,1.3,0.7,1.4,1.2,1.5c0.2,0.2,1.5-0.8,2.6-1.2
		c1.2-0.5,2.3-0.8,3.5-0.9C720.5,118.3,725.8,119,728.8,122.7z"/>
	<g>
		<g>
			<path class="st12" d="M696.1,159.7c0,2.6-1.5,5.6-4.6,5.4c-2.6-0.2-4.1-2.8-4.2-5.1c-0.1-2.6,1.6-5.6,4.6-5.4
				C694.4,154.8,695.9,157.4,696.1,159.7c0.1,0.8,1.6,0.5,1.5-0.2c-0.2-3.3-2.5-6.3-6.1-6.1c-3.4,0.1-5.8,3.3-5.8,6.7
				c0.1,3.3,2.6,6.2,6,6.1c3.6-0.1,5.8-3.3,5.8-6.7C697.6,158.8,696.1,159,696.1,159.7z"/>
		</g>
		<g>
			<path class="st12" d="M712.1,159.3c-0.1,3.3-2.1,7-6.1,5.8c-2.5-0.7-3.7-3.5-3.9-5.8c-0.1-3.4,2.5-7.1,6.3-5.7
				C710.8,154.4,711.9,157.1,712.1,159.3c0,0.6,1.8,0.1,1.8-0.5c-0.4-3.9-3.4-7.2-7.5-6.5c-3.6,0.6-6,3.9-6,7.4
				c0.1,3.6,3,6.9,6.8,6.7c4-0.2,6.5-3.6,6.5-7.5C713.8,158.3,712.1,158.8,712.1,159.3z"/>
		</g>
		<g>
			<path class="st12" d="M697.3,159.3c1.1-0.7,2.5-0.9,3.4,0.2c0.5,0.6,1.9-0.1,1.4-0.8c-1.4-1.8-3.7-1.4-5.5-0.4
				C695.7,159,696.6,159.8,697.3,159.3L697.3,159.3z"/>
		</g>
	</g>
	<path class="st11" d="M675.8,240.2c-2.7,36.3,34.1,76.2,57,94c25.5,20,43.8,22.7,61.3-2.2c0,0-11.3-21.5-20.7-32.6
		c-18.7-22.3-48.2-70.2-77.8-80.4C688.7,216.7,676.7,227.2,675.8,240.2z"/>

		<rect x="676.9" y="217.3" transform="matrix(0.7506 -0.6607 0.6607 0.7506 23.1245 506.9862)" class="st11" width="12.7" height="11.1"/>
	<g>

			<linearGradient id="SVGID_1_" gradientUnits="userSpaceOnUse" x1="599.7964" y1="501.15" x2="665.5036" y2="501.15" gradientTransform="matrix(1 0 0 -1 0 706)">
			<stop  offset="7.000000e-02" style="stop-color:#E6E7E8"/>
			<stop  offset="0.8" style="stop-color:#6D6E71"/>
		</linearGradient>
		<path class="st15" d="M661.2,247.4l-54.6,1.8c-2.5,0.1-4.6-1.9-4.6-4.4l-2.2-77.8c-0.1-2.6,1.9-4.7,4.3-4.7l54.6-1.8
			c2.5-0.1,4.6,1.9,4.6,4.4l2.2,77.8C665.6,245.2,663.6,247.3,661.2,247.4z"/>

			<linearGradient id="SVGID_2_" gradientUnits="userSpaceOnUse" x1="627.85" y1="545.4036" x2="627.85" y2="456.6964" gradientTransform="matrix(1 0 0 -1 0 706)">
			<stop  offset="0" style="stop-color:#E6E7E8"/>
			<stop  offset="1" style="stop-color:#6D6E71"/>
		</linearGradient>
		<path class="st16" d="M656.4,247.5l-54.6,1.8c-2.5,0.1-4.6-1.9-4.6-4.4l-2.2-77.8c-0.1-2.6,1.9-4.7,4.3-4.7l54.6-1.8
			c2.5-0.1,4.6,1.9,4.6,4.4l2.2,77.8C660.8,245.4,658.8,247.5,656.4,247.5z"/>
		<path class="st8" d="M602.6,169.7c0,1.2-0.9,2.2-2,2.2c-1.2,0-2.1-0.9-2.2-2.1c0-1.2,0.9-2.2,2-2.2
			C601.6,167.5,602.5,168.5,602.6,169.7z"/>
		<path class="st8" d="M660.5,178.6L660.5,178.6l-0.4-10.9l0,0c1.1,0,2,0.8,2,2l0.2,6.9C662.4,177.7,661.6,178.6,660.5,178.6z"/>
		<path class="st8" d="M660.9,192.1L660.9,192.1l-0.4-10.9l0,0c1.1,0,2,0.8,2,2l0.2,6.9C662.8,191,662,191.9,660.9,192.1z"/>
	</g>
	<path class="st9" d="M603.1,195.9c0,0-1.3-4.8-2.6-5.7c-0.9-0.7-4.7-0.8-4.7-0.8s-2.8,7.6-3.3,10.4c-0.4,2-0.2,3.6,1.6,4.8
		c1.2,0.8,2.7,0.5,3.5-0.7L603.1,195.9z"/>
	<path class="st9" d="M608.1,190.8L608.1,190.8c0.6,1.3,0.1,2.8-1.2,3.5l-5.8,2.9l-1.2-2.3L608.1,190.8L608.1,190.8z"/>
	<path class="st9" d="M608.6,186.7L608.6,186.7c0.7,1.2,0.2,2.9-1.2,3.7l-6.3,4l-1.4-2.2L608.6,186.7L608.6,186.7z"/>
	<path class="st9" d="M607,185L607,185c0.7,1.2,0.2,2.9-1.2,3.7l-6.3,4l-1.4-2.2L607,185L607,185z"/>
	<path class="st9" d="M603.7,183.6L603.7,183.6c0.8,1.2,0.5,2.8-0.8,3.9l-6,4.6l-1.1-2.6L603.7,183.6L603.7,183.6z"/>
</g>
</svg>
