<svg version="1.1" id="Layer_1" xmlns="http://www.w3.org/2000/svg" xmlns:xlink="http://www.w3.org/1999/xlink" x="0px" y="0px"
	 viewBox="0 0 936 603" style="enable-background:new 0 0 936 603;" xml:space="preserve">
<style type="text/css">

		.st0{opacity:0.81;fill:none;stroke:url(#SVGID_1_);stroke-width:1.5;stroke-linecap:square;stroke-miterlimit:10;stroke-dasharray:5;enable-background:new    ;}
	.st1{fill:#FEF0E0;}
	.st2{fill:#FF8888;}
	.st3{fill:#FFA0A0;}
	.st4{fill:#FFB8B8;}
	.st5{fill:#FFCFCF;}
	.st6{fill:#FFDBDB;}
	.st7{fill:#FCE1C0;}
	.st8{fill:#FCD4A3;}
	.st9{fill:#F4C387;}
	.st10{opacity:0.27;fill:#A6A6E2;enable-background:new    ;}
	.st11{fill:#9399B8;}
	.st12{fill:url(#SVGID_2_);}
	.st13{fill:url(#SVGID_3_);}
	.st14{fill:#E7EFFC;}
	.st15{opacity:0.3;fill:url(#SVGID_4_);}
	.st16{opacity:0.3;fill:url(#SVGID_5_);}
	.st17{opacity:0.3;fill:url(#SVGID_6_);}
	.st18{opacity:0.49;}
	.st19{opacity:0.49;fill:url(#SVGID_7_);enable-background:new    ;}
	.st20{opacity:0.49;fill:url(#SVGID_8_);enable-background:new    ;}
	.st21{opacity:0.49;fill:url(#SVGID_9_);enable-background:new    ;}
	.st22{opacity:0.34;}
	.st23{opacity:0.34;fill:url(#SVGID_10_);enable-background:new    ;}
	.st24{opacity:0.34;fill:url(#SVGID_11_);enable-background:new    ;}
	.st25{opacity:0.34;fill:url(#SVGID_12_);enable-background:new    ;}
	.st26{opacity:0.25;}
	.st27{opacity:0.25;fill:url(#SVGID_13_);enable-background:new    ;}
	.st28{opacity:0.25;fill:url(#SVGID_14_);enable-background:new    ;}
	.st29{opacity:0.25;fill:url(#SVGID_15_);enable-background:new    ;}
	.st30{opacity:0.81;fill:url(#SVGID_16_);enable-background:new    ;}
	.st31{opacity:0.81;fill:#273271;enable-background:new    ;}
	.st32{opacity:0.9;fill:#DF3D36;enable-background:new    ;}
	.st33{opacity:0.9;fill:#F8443C;enable-background:new    ;}
	.st34{fill:#273271;}
	.st35{opacity:0.29;fill:#C9D3F2;enable-background:new    ;}
	.st36{fill:#9595CB;}
	.st37{fill:#7C221E;}
	.st38{fill:#010103;}
	.st39{fill:#EAC6B0;}
	.st40{fill:#EBD0BB;}
	.st41{fill:#A3322D;}
	.st42{fill:#988CAF;}
	.st43{fill:url(#SVGID_17_);}
	.st44{fill:#281430;}
	.st45{fill:#0094F9;}
	.st46{fill:#3A3936;}
	.st47{fill:#022F6B;}
	.st48{fill:url(#SVGID_18_);}
	.st49{fill:#FFFFFF;}
	.st50{fill:#F59E35;}
	.st51{fill:#E8AD90;}
	.st52{fill:#E84640;}
	.st53{fill:#F6BC73;}
	.st54{fill:#25132F;}
	.st55{fill:url(#SVGID_19_);}
	.st56{fill:#D0D3D9;}
	.st57{fill:#1F285A;}
	.st58{fill:#C9CEF2;}
	.st59{opacity:0.9;enable-background:new    ;}
	.st60{opacity:0.67;fill:#DF3D36;enable-background:new    ;}
	.st61{fill:#E58057;}
	.st62{fill:#6D6D6D;}
	.st63{fill:url(#SVGID_20_);}
	.st64{fill:url(#SVGID_21_);}
	.st65{fill:#141939;}
	.st66{fill:#282D4A;}
	.st67{fill:url(#SVGID_22_);}
	.st68{fill:#3A4375;}
	.st69{fill:url(#SVGID_23_);}
	.st70{fill:#3A1F38;}
	.st71{fill:#ABACAE;}
</style>
<linearGradient id="SVGID_1_" gradientUnits="userSpaceOnUse" x1="513.218" y1="142.8514" x2="652.0815" y2="142.8514">
	<stop  offset="0" style="stop-color:#FFFFFF"/>
	<stop  offset="0.46" style="stop-color:#C3D5F2"/>
	<stop  offset="0.97" style="stop-color:#7CA3E2"/>
</linearGradient>
<path class="st0" d="M515.3,192.5c-1.1-5.7-4.6-26.8,8-47c21.6-33.5,61.6-31.9,73.9-21.1c3.3,3,5.6,9,0.6,15.3
	c-11.2,10.8-22.5,3.6-22.8-8.7c-0.9-33.3,24.2-45,76.2-33.8"/>
<path class="st1" d="M107.8,232.9c27.7-61.3,108.7-107.5,194.1-109.3c87.8-1.8,130.8,46.4,214.8,63.8c85.4,17.6,155.1-5.3,234,19.7
	c71,22.5,103.2,61.1,98.4,160c-4.3,88,44.6,133.3-14.3,191.5c-76,53.9-216.9-25.8-293.2-10.5c-263.5,47.8-367.9,19.8-403.7-31.4
	c-36.3-51.6-42.9-81.4-46.4-140.2C88,314.5,81.1,292,107.8,232.9z"/>
<g>
	<path class="st2" d="M397.8,61.7l4.2,0.2c1.2,0,2.1,1,2,2.2l0,0c0,1.2-1,2.1-2.2,2l-4.2-0.2c-1.2,0-2.1-1-2-2.2l0,0
		C395.6,62.7,396.6,61.7,397.8,61.7z"/>
	<path class="st2" d="M415.2,64.2l4,1.2c1.1,0.3,1.7,1.5,1.4,2.6l0,0c-0.3,1.1-1.5,1.7-2.6,1.4l-4-1.2c-1.1-0.3-1.7-1.5-1.4-2.6l0,0
		C412.9,64.5,414.1,63.9,415.2,64.2z"/>
	<path class="st3" d="M432.5,71.1l3.5,2.4c1,0.7,1.2,1.9,0.5,2.9l0,0c-0.7,1-1.9,1.2-2.9,0.5l-3.5-2.4c-1-0.7-1.2-1.9-0.5-2.9l0,0
		C430.3,70.7,431.5,70.5,432.5,71.1z"/>
	<path class="st3" d="M446.9,81.7l2.9,3c0.9,0.8,0.8,2.1,0,3l0,0c-0.8,0.9-2.1,0.8-3,0l-2.9-3c-0.9-0.8-0.8-2.1,0-3l0,0
		C444.8,80.8,446.1,80.8,446.9,81.7z"/>
	<path class="st4" d="M458.2,94.7l2.3,3.5c0.6,1,0.3,2.3-0.6,2.9l0,0c-1,0.6-2.3,0.3-2.9-0.6l-2.3-3.5c-0.6-1-0.3-2.3,0.6-2.9l0,0
		C456.3,93.5,457.5,93.8,458.2,94.7z"/>
	<path class="st4" d="M466.2,110.7l1.4,4c0.4,1.1-0.1,2.3-1.3,2.7l0,0c-1.1,0.4-2.3-0.1-2.7-1.3l-1.4-4c-0.4-1.1,0.1-2.3,1.3-2.7
		l0,0C464.6,109,465.8,109.6,466.2,110.7z"/>
	<path class="st5" d="M470.5,128.4l0.3,4.2c0.1,1.1-0.8,2.2-1.9,2.2l0,0c-1.1,0.1-2.2-0.8-2.2-1.9l-0.3-4.2
		c-0.1-1.1,0.8-2.2,1.9-2.2l0,0C469.3,126.4,470.3,127.3,470.5,128.4z"/>
	<path class="st5" d="M470.1,146.6l-0.8,4.2c-0.2,1.1-1.3,1.9-2.5,1.7l0,0c-1.1-0.2-1.9-1.3-1.7-2.5l0.8-4.2
		c0.2-1.1,1.3-1.9,2.5-1.7l0,0C469.6,144.4,470.3,145.4,470.1,146.6z"/>
	<path class="st6" d="M465.1,164.3l-1.7,3.9c-0.5,1-1.7,1.5-2.8,1.1l0,0c-1-0.5-1.5-1.7-1.1-2.8l1.7-3.9c0.5-1,1.7-1.5,2.8-1.1l0,0
		C465.1,162,465.6,163.2,465.1,164.3z"/>
	<g>
		<path class="st7" d="M331.2,72.6l39.1-6.5L359,89.5L331.2,72.6z"/>
		<path class="st8" d="M370.4,66.2l9,10.2l-4.2-21.8l-44,18.1L370.4,66.2z"/>
		<path class="st9" d="M379.5,76.3l-14.1,0.3l5.1-10.5L379.5,76.3z"/>
		<path class="st7" d="M331.2,72.6l51.5-31.7l-7.5,13.7L331.2,72.6z"/>
	</g>
</g>
<g>
	<path class="st10" d="M258.5,233.9c-0.5,0-0.9,0.1-1.3,0.2c-0.5,0.2-0.8,0.5-1.1,0.7c-0.3,0.2-0.6,0.7-0.7,1.1
		c-0.2,0.5-0.3,0.8-0.2,1.4c0,0.5,0.1,0.9,0.2,1.3s0.5,0.8,0.7,1.1c0.3,0.3,0.7,0.6,1.1,0.7c0.5,0.2,0.8,0.3,1.3,0.2l3.7,0.1
		c0.1,1.6,0.4,3.2,0.6,4.8l-3.6,0.9c-0.5,0.1-0.8,0.3-1.2,0.6c-0.4,0.2-0.7,0.6-0.9,1c-0.2,0.4-0.3,0.8-0.4,1.3
		c0,0.5-0.1,0.9,0.1,1.4c0.1,0.5,0.3,0.9,0.6,1.2c0.2,0.4,0.6,0.7,1,0.9c0.4,0.2,0.8,0.3,1.3,0.4c0.5,0,0.9,0,1.3-0.1l3.6-0.9
		c0.5,1.4,0.9,2.6,1.5,3.8l-3.3,1.8c-0.4,0.2-0.8,0.5-1,0.9c-0.2,0.3-0.5,0.8-0.6,1.2c-0.1,0.5-0.1,0.9-0.1,1.4
		c0,0.5,0.2,0.9,0.4,1.2c0.2,0.3,0.5,0.8,0.9,1c0.3,0.3,0.8,0.5,1.2,0.6c0.5,0.1,0.9,0.1,1.4,0.1c0.5,0,0.9-0.2,1.2-0.4l3.3-1.8
		c0.8,1.2,1.6,2.4,2.5,3.5l-2.7,2.6c-0.3,0.3-0.6,0.7-0.7,1.1c-0.2,0.5-0.3,0.8-0.2,1.4c0,0.5,0.1,0.9,0.2,1.3
		c0.2,0.5,0.5,0.8,0.7,1.1c0.3,0.3,0.7,0.6,1.1,0.7c0.5,0.2,0.8,0.3,1.3,0.2c0.5,0,0.9-0.1,1.3-0.2c0.5-0.2,0.8-0.5,1.1-0.7l2.7-2.6
		c1.3,1,2.4,2,3.8,2.9l-1.9,3.2c-0.2,0.4-0.3,0.8-0.4,1.3c0,0.5-0.1,0.9,0,1.4c0.1,0.5,0.3,0.9,0.6,1.2c0.2,0.4,0.6,0.7,1,0.9
		c0.4,0.2,0.8,0.3,1.3,0.4c0.5,0,0.9,0,1.3-0.1c0.5-0.1,0.8-0.3,1.2-0.6c0.4-0.3,0.6-0.6,0.9-1l1.9-3.2c1.1,0.5,2.3,1,3.4,1.5
		l-1.1,3.6c-0.1,0.5-0.2,0.9-0.2,1.4c0,0.5,0.1,0.9,0.4,1.4c0.2,0.3,0.5,0.8,0.9,1.1s0.8,0.5,1.2,0.6c0.5,0.1,0.9,0.1,1.4,0.1
		c0.5,0,0.9-0.2,1.2-0.4c0.4-0.2,0.8-0.5,1-0.9c0.2-0.3,0.5-0.8,0.6-1.3l1.1-3.6c1.7,0.3,3.3,0.6,5.1,0.7l0,3.7
		c0,0.9,0.4,1.8,0.9,2.5c0.7,0.7,1.5,1,2.4,1c0.9,0,1.8-0.4,2.4-0.9c0.7-0.7,1-1.5,1.1-2.4l0-3.7c1.5-0.1,2.8-0.3,4.2-0.5l0.9,3.7
		c0.2,0.9,0.8,1.7,1.6,2.1c0.8,0.5,1.7,0.6,2.6,0.3c0.9-0.2,1.7-0.8,2-1.6c0.4-0.8,0.6-1.8,0.3-2.6l-0.9-3.7c1.5-0.6,3-1.2,4.3-1.9
		l1.8,3.3c0.5,0.8,1.2,1.3,2.1,1.6c0.9,0.2,1.8,0.1,2.6-0.4c0.8-0.5,1.3-1.2,1.6-2.1c0.2-0.9,0.1-1.8-0.3-2.6l-1.8-3.3
		c1.1-0.7,2-1.5,3-2.3l2.6,2.7c0.6,0.6,1.5,1,2.4,1c0.9,0,1.8-0.4,2.4-0.9c0.7-0.7,1-1.5,1.1-2.4c0-0.9-0.3-1.8-0.9-2.5l-2.6-2.7
		c0.9-1,1.8-2.1,2.6-3.2l3.2,2c0.4,0.2,0.8,0.4,1.3,0.4c0.5,0,0.9,0.1,1.3,0s0.8-0.3,1.2-0.6c0.4-0.3,0.7-0.6,0.9-1
		c0.2-0.4,0.3-0.8,0.4-1.3c0-0.5,0.1-0.9,0-1.4c-0.1-0.5-0.3-0.9-0.6-1.2c-0.2-0.4-0.6-0.7-1-0.9l-3.2-2c0.8-1.6,1.4-3.3,2-5
		l3.6,0.9c0.5,0.1,0.9,0.1,1.4,0.1c0.5,0,0.9-0.2,1.2-0.4c0.4-0.2,0.8-0.5,1-0.9c0.2-0.3,0.5-0.8,0.6-1.2c0.1-0.5,0.1-0.9,0.1-1.4
		c0-0.5-0.2-0.9-0.4-1.2c-0.2-0.4-0.5-0.8-0.9-1s-0.8-0.5-1.2-0.6l-3.6-1c0.2-1.2,0.4-2.4,0.5-3.7l3.7,0.1c0.9,0,1.8-0.4,2.4-0.9
		c0.7-0.7,1-1.5,1.1-2.4c0-0.9-0.3-1.8-0.9-2.5c-0.6-0.6-1.5-1-2.4-1l-3.7-0.1c-0.1-1.6-0.4-3.2-0.6-4.8l3.6-0.9
		c0.5-0.1,0.9-0.3,1.2-0.6c0.4-0.2,0.7-0.6,0.9-1c0.2-0.4,0.3-0.8,0.4-1.3c0-0.5,0.1-0.9-0.1-1.4c-0.1-0.5-0.3-0.9-0.6-1.2
		c-0.2-0.4-0.6-0.7-1-0.9c-0.4-0.2-0.8-0.3-1.3-0.4c-0.5,0-0.9,0-1.4,0.1l-3.6,0.9c-0.5-1.4-0.9-2.6-1.5-3.8l3.3-1.8
		c0.4-0.2,0.8-0.5,1-0.9c0.2-0.3,0.5-0.8,0.6-1.2c0.1-0.5,0.1-0.9,0.1-1.4c0-0.5-0.2-0.9-0.4-1.2c-0.2-0.3-0.5-0.8-0.9-1
		c-0.3-0.3-0.8-0.5-1.2-0.6c-0.5-0.1-0.9-0.1-1.4-0.1c-0.5,0-0.9,0.2-1.2,0.4l-3.3,1.8c-0.8-1.2-1.6-2.4-2.5-3.5l2.7-2.6
		c0.7-0.7,1-1.5,1-2.5c0-0.9-0.4-1.8-0.9-2.5c-0.6-0.6-1.5-1-2.4-1s-1.8,0.3-2.5,0.9L333,205c-1.3-1-2.4-2-3.8-2.9l1.9-3.2
		c0.2-0.4,0.3-0.8,0.4-1.3c0-0.5,0.1-0.9,0-1.4c-0.1-0.5-0.3-0.9-0.6-1.2c-0.2-0.4-0.6-0.7-1-0.9c-0.4-0.2-0.8-0.3-1.3-0.4
		c-0.5-0.1-0.9,0-1.3,0.1c-0.5,0.1-0.8,0.3-1.2,0.6c-0.4,0.2-0.6,0.6-0.9,1l-1.9,3.2c-1.1-0.5-2.3-1-3.4-1.5l1.1-3.6
		c0.2-0.9,0.1-1.8-0.3-2.6s-1.2-1.4-2.1-1.7c-0.8-0.3-1.8-0.1-2.6,0.3s-1.4,1.2-1.6,2.1l-1.1,3.6c-1.7-0.3-3.3-0.6-5.1-0.7l0-3.7
		c0-0.5-0.1-0.9-0.2-1.3s-0.5-0.8-0.7-1.1c-0.3-0.3-0.7-0.6-1.1-0.7c-0.5-0.2-0.8-0.3-1.3-0.2c-0.5,0-0.9,0.1-1.3,0.2
		c-0.5,0.2-0.8,0.5-1.1,0.8c-0.3,0.3-0.6,0.7-0.7,1.1c-0.2,0.5-0.3,0.8-0.2,1.4l0,3.7c-1.5,0.1-2.8,0.3-4.2,0.5l-0.9-3.7
		c-0.1-0.5-0.3-0.8-0.6-1.2c-0.2-0.4-0.6-0.7-1-0.9c-0.4-0.2-0.8-0.3-1.3-0.4c-0.5,0-0.9-0.1-1.3,0.1c-0.5,0.1-0.8,0.3-1.2,0.6
		c-0.4,0.2-0.6,0.6-0.9,1c-0.2,0.4-0.3,0.8-0.4,1.3c-0.1,0.5-0.1,0.9,0.1,1.4l0.9,3.7c-1.5,0.6-3,1.2-4.3,1.9l-1.8-3.3
		c-0.2-0.4-0.5-0.8-0.9-1c-0.3-0.2-0.8-0.5-1.2-0.6c-0.5-0.1-0.9-0.1-1.4-0.1c-0.5,0-0.9,0.2-1.2,0.4c-0.4,0.2-0.8,0.5-1,0.9
		s-0.5,0.8-0.6,1.2c-0.1,0.5-0.1,0.9-0.1,1.4c0,0.5,0.2,0.9,0.4,1.2l1.8,3.3c-1.1,0.7-2,1.5-3,2.3l-2.6-2.7c-0.6-0.6-1.5-1-2.4-1
		c-0.9,0-1.8,0.4-2.4,0.9c-0.7,0.7-1,1.5-1.1,2.4c0,0.9,0.3,1.8,0.9,2.5l2.6,2.7c-0.9,1-1.8,2.1-2.6,3.2l-3.2-2
		c-0.4-0.2-0.8-0.4-1.3-0.4c-0.5,0-0.9-0.1-1.3,0s-0.8,0.3-1.2,0.6c-0.4,0.2-0.7,0.6-0.9,1c-0.2,0.4-0.3,0.8-0.4,1.3
		c0,0.5-0.1,0.9,0,1.4c0.1,0.5,0.3,0.9,0.6,1.2c0.2,0.4,0.6,0.7,1,0.9l3.2,1.9c-0.8,1.6-1.4,3.3-2,5l-3.6-1
		c-0.5-0.1-0.9-0.1-1.4-0.1c-0.5,0-0.9,0.2-1.2,0.4c-0.4,0.2-0.8,0.5-1,0.9s-0.5,0.8-0.6,1.2c-0.1,0.5-0.1,0.9-0.1,1.4
		c0,0.5,0.2,0.9,0.4,1.2c0.2,0.4,0.5,0.8,0.9,1c0.3,0.2,0.8,0.5,1.2,0.6l3.6,1c-0.2,1.2-0.4,2.4-0.5,3.7L258.5,233.9L258.5,233.9z
		 M301.6,217.1c-4.8,0.8-9.3,3.4-12.5,7.2l-14.3-8.7c6.2-8.6,15.9-14.3,26.7-15.3L301.6,217.1z M308.5,200.3
		c11.3,1.1,21.1,7.3,27.1,16l-14.5,8.3c-3.2-4-7.8-6.6-12.7-7.6L308.5,200.3L308.5,200.3z M324.3,245.6c0.6-1.4,0.9-2.7,1.1-4
		l0.1-6.9c-0.2-1.4-0.5-2.7-1-4l14.5-8.3c1.7,4,2.8,8.1,3.2,12.5l-0.1,6.9c-0.5,4.4-1.6,8.5-3.5,12.5L324.3,245.6z M308.4,258.7
		c4.8-0.8,9.3-3.4,12.5-7.2l14.3,8.7c-6.2,8.6-15.9,14.3-26.7,15.3L308.4,258.7z M304.4,247.4c-2.4-0.2-4.8-1.3-6.4-3.1
		c-1.7-1.9-2.4-4.3-2.3-6.8c0.1-1.9,0.8-3.6,1.9-5.1c1.1-1.5,2.7-2.6,4.4-3.2c1.7-0.6,3.6-0.7,5.4-0.2c1.8,0.5,3.4,1.5,4.6,2.9
		c1.2,1.4,2,3.1,2.2,5c0.2,1.8-0.1,3.7-0.9,5.4c-0.9,1.7-2.1,3.1-3.7,4C308.1,247,306.2,247.4,304.4,247.4L304.4,247.4z
		 M301.5,275.5c-11.3-1.1-21.1-7.3-27.1-16l14.5-8.3c3.2,4,7.8,6.6,12.7,7.6L301.5,275.5L301.5,275.5z M267.9,234
		c0.5-4.4,1.6-8.5,3.5-12.5l14.3,8.7c-0.6,1.4-0.9,2.7-1.1,4l-0.1,6.9c0.2,1.4,0.5,2.7,1,4l-14.5,8.3c-1.7-4-2.8-8.1-3.2-12.5
		L267.9,234z"/>
</g>
<g>
	<path class="st11" d="M415.8,436.6v6.4h136.4v-6.4c0-1.3-8.7-11.2-15.1-21c-6.5-9.7-8.1-13.8-8.1-19.6v-22.1h-29.2h-60.7V396
		c0,5.8-1.7,9.9-8.1,19.6C424.5,425.3,415.8,435.3,415.8,436.6z"/>

		<linearGradient id="SVGID_2_" gradientUnits="userSpaceOnUse" x1="-8289.3809" y1="-4836.6514" x2="-8379.2812" y2="-4836.6514" gradientTransform="matrix(-1 0 0 -1 -7850.2822 -4450)">
		<stop  offset="0" style="stop-color:#9BA0DE"/>
		<stop  offset="0.11" style="stop-color:#A1A6E1"/>
		<stop  offset="0.67" style="stop-color:#BDC1EF"/>
		<stop  offset="1" style="stop-color:#C7CBF4"/>
	</linearGradient>
	<path class="st12" d="M439.1,397.7v-22.1h29.2H529v14.8v1.1L439.1,397.7z"/>

		<linearGradient id="SVGID_3_" gradientUnits="userSpaceOnUse" x1="-8402.4814" y1="-4889.8511" x2="-8265.9814" y2="-4889.8511" gradientTransform="matrix(-1 0 0 -1 -7850.2822 -4450)">
		<stop  offset="0" style="stop-color:#D5D9F4"/>
		<stop  offset="0.3" style="stop-color:#CCCFEF"/>
		<stop  offset="0.81" style="stop-color:#B4B3E3"/>
		<stop  offset="1" style="stop-color:#A9A7DE"/>
	</linearGradient>
	<path class="st13" d="M415.7,443.3l136.5-0.4c0-2.5,0-6.5,0-6.5h-44.3h-92.2V443.3z"/>
	<path class="st11" d="M301.1,171.1c0-3.6,1.4-7,3.9-9.6c2.5-2.5,5.9-4,9.5-4h339c1.8,0,3.5,0.4,5.1,1c1.6,0.7,3.1,1.7,4.3,2.9
		c1.2,1.3,2.2,2.8,2.9,4.4c0.7,1.6,1,3.4,1,5.2v199.5c0,1.8-0.3,3.5-1,5.2c-0.7,1.6-1.7,3.1-2.9,4.4s-2.7,2.3-4.3,2.9
		c-1.6,0.7-3.4,1-5.1,1h-339c-1.8,0-3.5-0.4-5.1-1c-1.6-0.7-3.1-1.7-4.3-2.9c-1.2-1.3-2.2-2.8-2.9-4.4c-0.7-1.6-1-3.4-1-5.2
		L301.1,171.1L301.1,171.1z"/>
	<path class="st14" d="M301.1,354.4h365.8V181.5H301.1V354.4z"/>

		<linearGradient id="SVGID_4_" gradientUnits="userSpaceOnUse" x1="-8500.5068" y1="2802.1638" x2="-8404.7715" y2="2802.1638" gradientTransform="matrix(-1 0 0 1 -7850.2822 -2466.3)">
		<stop  offset="0" style="stop-color:#FFFFFF"/>
		<stop  offset="0.46" style="stop-color:#C3D5F2"/>
		<stop  offset="0.97" style="stop-color:#7CA3E2"/>
	</linearGradient>
	<path class="st15" d="M580.8,334.2h67.6c0.4,0,0.9,0.2,1.2,0.5s0.5,0.7,0.5,1.2c0,0.4-0.2,0.9-0.5,1.2s-0.7,0.5-1.2,0.5h-67.6
		c-0.4,0-0.9-0.2-1.2-0.5s-0.5-0.7-0.5-1.2c0-0.3,0-0.5,0.1-0.7c0.1-0.2,0.2-0.4,0.4-0.6s0.4-0.3,0.6-0.4
		C580.4,334.1,580.6,334.1,580.8,334.2z"/>

		<linearGradient id="SVGID_5_" gradientUnits="userSpaceOnUse" x1="-8500.4922" y1="2793.8638" x2="-8415.8584" y2="2793.8638" gradientTransform="matrix(-1 0 0 1 -7850.2822 -2466.3)">
		<stop  offset="0" style="stop-color:#FFFFFF"/>
		<stop  offset="0.46" style="stop-color:#C3D5F2"/>
		<stop  offset="0.97" style="stop-color:#7CA3E2"/>
	</linearGradient>
	<path class="st16" d="M588.8,325.9h59.8c0.4,0,0.8,0.2,1.1,0.5s0.4,0.7,0.4,1.2c0,0.4-0.2,0.9-0.4,1.2s-0.6,0.5-1.1,0.5h-59.8
		c-0.4,0-0.8-0.2-1.1-0.5s-0.4-0.7-0.4-1.2c0-0.3,0-0.5,0.1-0.7c0.1-0.2,0.2-0.4,0.4-0.6c0.2-0.2,0.4-0.3,0.5-0.4
		C588.5,325.8,588.7,325.8,588.8,325.9z"/>

		<linearGradient id="SVGID_6_" gradientUnits="userSpaceOnUse" x1="-8500.4766" y1="2784.4636" x2="-8427.9775" y2="2784.4636" gradientTransform="matrix(-1 0 0 1 -7850.2822 -2466.3)">
		<stop  offset="0" style="stop-color:#FFFFFF"/>
		<stop  offset="0.46" style="stop-color:#C3D5F2"/>
		<stop  offset="0.97" style="stop-color:#7CA3E2"/>
	</linearGradient>
	<path class="st17" d="M597.6,316.5h51.2c0.3,0,0.7,0.2,0.9,0.5s0.4,0.7,0.4,1.2c0,0.4-0.2,0.9-0.4,1.2s-0.5,0.5-0.9,0.5h-51.2
		c-0.3,0-0.7-0.2-0.9-0.5c-0.2-0.3-0.4-0.7-0.4-1.2c0-0.3,0-0.5,0.1-0.7c0.1-0.2,0.2-0.4,0.3-0.6c0.2-0.2,0.3-0.3,0.5-0.4
		C597.3,316.4,597.5,316.4,597.6,316.5z"/>
	<g class="st18">
		<g class="st18">

				<linearGradient id="SVGID_7_" gradientUnits="userSpaceOnUse" x1="-8268.0889" y1="-4652.8013" x2="-8133.7129" y2="-4652.8013" gradientTransform="matrix(-1 0 0 -1 -7850.2822 -4450)">
				<stop  offset="0" style="stop-color:#E4E8F6"/>
				<stop  offset="0.4" style="stop-color:#B4C8ED"/>
				<stop  offset="0.78" style="stop-color:#8BADE5"/>
				<stop  offset="0.97" style="stop-color:#7CA3E2"/>
			</linearGradient>
			<path class="st19" d="M318,202.8c0-1,1.1-1.8,2.4-1.8h94.9c1.3,0,2.4,0.8,2.4,1.8s-1.1,1.8-2.4,1.8h-94.9
				C319.1,204.5,318,203.8,318,202.8z"/>
		</g>
		<g class="st18">

				<linearGradient id="SVGID_8_" gradientUnits="userSpaceOnUse" x1="-8268.0889" y1="-4660.8013" x2="-8168.3892" y2="-4660.8013" gradientTransform="matrix(-1 0 0 -1 -7850.2822 -4450)">
				<stop  offset="0" style="stop-color:#E4E8F6"/>
				<stop  offset="0.4" style="stop-color:#B4C8ED"/>
				<stop  offset="0.78" style="stop-color:#8BADE5"/>
				<stop  offset="0.97" style="stop-color:#7CA3E2"/>
			</linearGradient>
			<path class="st20" d="M318,210.8c0-1,1.1-1.8,2.4-1.8h94.9c1.3,0,2.4,0.8,2.4,1.8s-1.1,1.8-2.4,1.8h-94.9
				C319.1,212.5,318,211.8,318,210.8z"/>
		</g>
		<g class="st18">

				<linearGradient id="SVGID_9_" gradientUnits="userSpaceOnUse" x1="-8268.0811" y1="-4668.8013" x2="-8182.8813" y2="-4668.8013" gradientTransform="matrix(-1 0 0 -1 -7850.2822 -4450)">
				<stop  offset="0" style="stop-color:#E4E8F6"/>
				<stop  offset="0.4" style="stop-color:#B4C8ED"/>
				<stop  offset="0.78" style="stop-color:#8BADE5"/>
				<stop  offset="0.97" style="stop-color:#7CA3E2"/>
			</linearGradient>
			<path class="st21" d="M332.6,218.8c0-1,1.1-1.8,2.4-1.8h80.4c1.3,0,2.4,0.8,2.4,1.8s-1.1,1.8-2.4,1.8H335
				C333.7,220.5,332.6,219.8,332.6,218.8z"/>
		</g>
	</g>
	<g class="st22">
		<g class="st22">

				<linearGradient id="SVGID_10_" gradientUnits="userSpaceOnUse" x1="-8267.5811" y1="-4683.3013" x2="-8168.2812" y2="-4683.3013" gradientTransform="matrix(-1 0 0 -1 -7850.2822 -4450)">
				<stop  offset="0" style="stop-color:#E4E8F6"/>
				<stop  offset="0.4" style="stop-color:#B4C8ED"/>
				<stop  offset="0.78" style="stop-color:#8BADE5"/>
				<stop  offset="0.97" style="stop-color:#7CA3E2"/>
			</linearGradient>
			<path class="st23" d="M318,233.3c0-1,1.1-1.8,2.4-1.8h94.5c1.3,0,2.4,0.8,2.4,1.8s-1.1,1.8-2.4,1.8h-94.5
				C319.1,235,318,234.3,318,233.3z"/>
		</g>
		<g class="st22">

				<linearGradient id="SVGID_11_" gradientUnits="userSpaceOnUse" x1="-8267.5811" y1="-4691.3013" x2="-8168.2812" y2="-4691.3013" gradientTransform="matrix(-1 0 0 -1 -7850.2822 -4450)">
				<stop  offset="0" style="stop-color:#E4E8F6"/>
				<stop  offset="0.4" style="stop-color:#B4C8ED"/>
				<stop  offset="0.78" style="stop-color:#8BADE5"/>
				<stop  offset="0.97" style="stop-color:#7CA3E2"/>
			</linearGradient>
			<path class="st24" d="M318,241.3c0-1,1.1-1.8,2.4-1.8h94.5c1.3,0,2.4,0.8,2.4,1.8s-1.1,1.8-2.4,1.8h-94.5
				C319.1,243,318,242.3,318,241.3z"/>
		</g>
		<g class="st22">

				<linearGradient id="SVGID_12_" gradientUnits="userSpaceOnUse" x1="-8267.5811" y1="-4699.3013" x2="-8182.7812" y2="-4699.3013" gradientTransform="matrix(-1 0 0 -1 -7850.2822 -4450)">
				<stop  offset="0" style="stop-color:#E4E8F6"/>
				<stop  offset="0.4" style="stop-color:#B4C8ED"/>
				<stop  offset="0.78" style="stop-color:#8BADE5"/>
				<stop  offset="0.97" style="stop-color:#7CA3E2"/>
			</linearGradient>
			<path class="st25" d="M332.5,249.3c0-1,1.1-1.8,2.4-1.8h80c1.3,0,2.4,0.8,2.4,1.8s-1.1,1.8-2.4,1.8h-80
				C333.6,251,332.5,250.3,332.5,249.3z"/>
		</g>
	</g>
	<g class="st26">
		<g class="st26">
			<g class="st26">

					<linearGradient id="SVGID_13_" gradientUnits="userSpaceOnUse" x1="-8268.0889" y1="-4713.8013" x2="-8168.3892" y2="-4713.8013" gradientTransform="matrix(-1 0 0 -1 -7850.2822 -4450)">
					<stop  offset="0" style="stop-color:#E4E8F6"/>
					<stop  offset="0.4" style="stop-color:#B4C8ED"/>
					<stop  offset="0.78" style="stop-color:#8BADE5"/>
					<stop  offset="0.97" style="stop-color:#7CA3E2"/>
				</linearGradient>
				<path class="st27" d="M318,263.8c0-1,1.1-1.8,2.4-1.8h94.9c1.3,0,2.4,0.8,2.4,1.8s-1.1,1.8-2.4,1.8h-94.9
					C319.1,265.6,318,264.8,318,263.8z"/>
			</g>
		</g>
		<g class="st26">
			<g class="st26">

					<linearGradient id="SVGID_14_" gradientUnits="userSpaceOnUse" x1="-8268.0889" y1="-4721.8013" x2="-8168.3892" y2="-4721.8013" gradientTransform="matrix(-1 0 0 -1 -7850.2822 -4450)">
					<stop  offset="0" style="stop-color:#E4E8F6"/>
					<stop  offset="0.4" style="stop-color:#B4C8ED"/>
					<stop  offset="0.78" style="stop-color:#8BADE5"/>
					<stop  offset="0.97" style="stop-color:#7CA3E2"/>
				</linearGradient>
				<path class="st28" d="M318,271.8c0-1,1.1-1.8,2.4-1.8h94.9c1.3,0,2.4,0.8,2.4,1.8s-1.1,1.8-2.4,1.8h-94.9
					C319.1,273.6,318,272.8,318,271.8z"/>
			</g>
		</g>
		<g class="st26">
			<g class="st26">

					<linearGradient id="SVGID_15_" gradientUnits="userSpaceOnUse" x1="-8268.0811" y1="-4729.8013" x2="-8182.8813" y2="-4729.8013" gradientTransform="matrix(-1 0 0 -1 -7850.2822 -4450)">
					<stop  offset="0" style="stop-color:#E4E8F6"/>
					<stop  offset="0.4" style="stop-color:#B4C8ED"/>
					<stop  offset="0.78" style="stop-color:#8BADE5"/>
					<stop  offset="0.97" style="stop-color:#7CA3E2"/>
				</linearGradient>
				<path class="st29" d="M332.6,279.8c0-1,1.1-1.8,2.4-1.8h80.4c1.3,0,2.4,0.8,2.4,1.8s-1.1,1.8-2.4,1.8H335
					C333.7,281.6,332.6,280.8,332.6,279.8z"/>
			</g>
		</g>
	</g>
</g>
<g>

		<linearGradient id="SVGID_16_" gradientUnits="userSpaceOnUse" x1="22237.3477" y1="20977.2363" x2="-14495.0938" y2="-9730.8926" gradientTransform="matrix(-1 0 0 -1 -7850.2822 -4450)">
		<stop  offset="0" style="stop-color:#FFFFFF"/>
		<stop  offset="0.46" style="stop-color:#C3D5F2"/>
		<stop  offset="0.97" style="stop-color:#7CA3E2"/>
	</linearGradient>
	<path class="st30" d="M637.7,240.5c0-12.3-9.9-22.4-22.1-22.4c-12.2,0-22.1,10.1-22.1,22.4c0,12.3,9.9,22.4,22.1,22.4
		S637.7,252.8,637.7,240.5z"/>
	<path class="st31" d="M615.6,217.9c12.2,0,22.3,10.2,22.3,22.6c0,12.4-10.1,22.6-22.4,22.6c-12.3,0-22.3-10.2-22.3-22.6
		c0-1.5,0.1-3,0.4-4.5l21.9,4.5L615.6,217.9z"/>
	<path class="st32" d="M615.6,240.5l19.6,10.8c-1.9,3.5-4.7,6.5-8.3,8.6s-7.4,3.2-11.4,3.2c-7.4,0-14.1-3.8-18.3-9.6L615.6,240.5z"
		/>
	<path class="st33" d="M577.8,250.8c5.9-10.8,1.9-24.4-8.8-30.3c-10.7-5.9-24.1-1.9-29.9,8.9c-5.9,10.8-1.9,24.4,8.8,30.3
		C558.5,265.6,571.9,261.6,577.8,250.8z"/>
	<path class="st34" d="M548.6,219.7c1.9-1,4-1.6,6.1-1.9c12.1-2,23.7,6.3,25.7,18.5s-6.2,24-18.3,26c-2.9,0.5-5.9,0.4-8.8-0.2
		c-2.9-0.6-5.6-1.9-7.9-3.6l13-18.4L548.6,219.7z"/>
	<path class="st34" d="M577.1,252.4c-2.3,3.5-5.5,6.3-9.2,8.1c-3.7,1.8-7.9,2.5-12,2c-4.1-0.4-8-2.1-11.3-4.7
		c-3.2-2.6-5.8-6.1-7.2-10l21-7.7L577.1,252.4z"/>
</g>
<path class="st35" d="M379,330.3c0-0.9-0.7-1.6-1.6-1.6s-1.6,0.7-1.6,1.6s0.7,1.6,1.6,1.6S379,331.1,379,330.3z"/>
<path class="st36" d="M362.7,356.3v0.2l0,0h25.8l0,0v-0.2l0,0H362.7C362.7,356.2,362.7,356.2,362.7,356.3z"/>
<g>
	<path class="st37" d="M322,350.2c16.1-5.9,36.6-13.1,37.1-14.1c0.2-0.6,0.5-2.3,0.7-4.3c0.5-3.8,1.2-8.7,1.2-8.7l25.8-1.9
		c0,0,8.8,31.7,3.5,37.1c-3.9,3.9-42.7,9.8-63.9,12.3c-1.2-8.2-3.4-15.4-6.9-19.5C320.1,350.8,321.1,350.5,322,350.2z"/>
	<path class="st38" d="M368.2,261.2c0,0-1.9,3.7-3.9,3.8s-11.1-5.8-11.3-10.4c0-1.2-1.9-6.3-2.4-8s-0.7-5.1,1.4-8.6L368.2,261.2z"/>
	<path class="st39" d="M365.3,307.7c-2,2.2-28,17.6-28,17.6s-12.3,1.7-11.1,0c1.2-1.7,4.3-3.9,8.2-3.9s15.9-10.3,20.5-14.7
		c4.6-4.4,6.9-24,6.9-24C364.7,286.7,365.3,307.7,365.3,307.7z"/>
	<path class="st2" d="M386,294.2l6.7-2c0,0-2.2-12.2-5.8-21.5c-3.6-9.3-13.7-12.2-13.7-12.2l-9.3,4.6c0,0-5.6,18.8-4.1,22.7
		c1.4,3.9,3.1,6.6,3.1,13.4c0,6.8-2.9,27.2-2.9,27.2l28.1,1.3L386,294.2z"/>
	<path class="st40" d="M381.9,303.5c-0.5,0.9-30.6,16.7-32.8,17.1c-2.2,0.5-6,0.5-9.8,2.4s-6.3,5.3-3.8,4.9s12.3-1.7,13-2.7
		c0.7-0.9,24.6-7.5,27.6-8.8c1.4-0.6,14.4-6.8,15.1-6.8s1.9-0.2,1.9-1.3c-0.1-1.3-2.4-17.6-2.4-17.6l-10.1,2.1
		C380.4,292.9,382.3,302.5,381.9,303.5z"/>
	<path class="st40" d="M316.7,403.2L325,444l6.7-16.8c0,0-5.4-2.7-5.6-4.1c-0.2-1.5-0.5-19.6-0.5-19.6L316.7,403.2z"/>
	<path class="st2" d="M392.7,292.3l-14.5,2.9c0,0-3.6-13.4-4.3-16.3s-0.9-12,4.3-13.7C388.9,261.7,392.7,292.3,392.7,292.3z"/>
	<path class="st37" d="M266.4,431.2c2-2.4,27-59.1,34.9-71.5c0.8-1.3,1.4-2.1,1.9-2.3c1.4-0.9,8.1-3.4,16.3-6.4
		c3.6,4.1,5.8,11.2,6.9,19.5c-7.4,0.8-12.4,1.4-12.4,1.4s-2.2,7.1-4.7,13.7c-1.2,3-1.7,5.9-3.2,8c-4.9,6.8-29.6,36.2-34.5,41.6
		L266.4,431.2z"/>
	<path class="st41" d="M317.7,424.6c-0.1-1.7-3.7-24-7.9-39c-1.7-6.6-6-19.6-8.7-25.8c-4.7-11.2-12.4-24.4-5.7-27.9
		c8.8-4.5,54.2-1,64.2-0.1c-0.2,2-0.5,3.7-0.7,4.3c-0.5,1-21,8.3-37.1,14.1l-4.5-0.7c0.7,0.5,1.3,1,1.9,1.6
		c3.6,4.1,5.8,11.2,6.9,19.5c3.1,21.1,0,49.2-0.2,51.2L317.7,424.6z"/>
	<path class="st40" d="M369.1,252l3.5,6.9c0,0-7.5,7.5-7.4,6c0.1-1.5-2.9-10.2-2.9-10.2L369.1,252z"/>
	<path class="st40" d="M371.9,244.7c0-5.6-4.5-10.1-10-10.1c-5.6,0-10,4.5-10,10.1s4.5,10.1,10,10.1
		C367.4,254.8,371.9,250.2,371.9,244.7z"/>
	<path class="st42" d="M317.6,329.3l-0.1-3.1c0,0,26.5,1.4,30.6,1.6c4.1,0.2,4.2,1.7,5.7,3.4L317.6,329.3z"/>

		<linearGradient id="SVGID_17_" gradientUnits="userSpaceOnUse" x1="-8180.1035" y1="-4789.6304" x2="-8154.1113" y2="-4746.7544" gradientTransform="matrix(-1 0 0 -1 -7850.2822 -4450)">
		<stop  offset="0" style="stop-color:#F6E8EE"/>
		<stop  offset="0.17" style="stop-color:#E3D7DC"/>
		<stop  offset="0.53" style="stop-color:#B1A9AC"/>
		<stop  offset="1" style="stop-color:#666666"/>
	</linearGradient>
	<path class="st43" d="M298.7,296.8c0-0.2,0.1-0.5,0.2-0.6c0.1-0.1,0.2-0.3,0.5-0.5c0.2-0.1,0.5-0.1,0.6-0.1l8.1,0.6
		c0.5,0,0.9,0.1,1.3,0.3s0.7,0.6,0.9,0.9l20.1,32.4l-13.3-0.5l-18.3-32.1C298.7,297.3,298.7,297,298.7,296.8z"/>
	<path class="st44" d="M371.3,232.3c4.7,2.8,6.6,10.1,9,10.3c2.5,0.3,4.6,2.8,5.8,4.4c1.2,1.6,1.4,7.3,4.9,9.1
		c3.5,1.9,8.2-5.8,13.4,5.9c5.2,11.7-9.5,19.9-12.6,19.1c-3.1-0.9-2.2-6.9-9.4-9.3c-7.2-2.4-5-7.4-6.1-10.5c-1-3.1-4.1-2.2-5.6-2.8
		c-4.1-1.5-5.4-7.5-2.2-9.6c2.5-1.7,0.1-6-2-5.4c-2,0.6-2,2.2-2,2.2c-10.4,2.7-13.9-7.4-13.9-7.4
		C354.1,228.5,366.6,229.5,371.3,232.3z"/>
	<path class="st38" d="M370.2,227.5c0-1.7-1.4-3.2-3.1-3.2c-1.7,0-3.1,1.4-3.1,3.2c0,1.7,1.4,3.2,3.1,3.2
		C368.8,230.8,370.2,229.3,370.2,227.5z"/>
	<path class="st34" d="M369.1,248.8c0-0.6-0.5-0.9-0.9-0.9c-0.5,0-0.9,0.5-0.9,0.9c0,0.6,0.5,0.9,0.9,0.9
		C368.8,249.9,369.1,249.4,369.1,248.8z"/>
	<path class="st40" d="M269.8,433.9c-3.7,3.8-2.4,7.5-2.4,7.5l-14.9,2c0,0,11.9-9.7,14-12.2L269.8,433.9z"/>
	<path class="st45" d="M368.5,249c0-0.2-0.1-0.3-0.3-0.3c-0.2,0-0.3,0.1-0.3,0.3c0,0.2,0.1,0.3,0.3,0.3
		C368.4,249.3,368.5,249.2,368.5,249z"/>
	<path class="st34" d="M366.7,253.7c0,0.1,0,0.1,0,0.2c0,0.1,0,0.1,0.1,0.2c0,0.1,0.1,0.1,0.1,0.1c0.1,0,0.1,0,0.2,0l3.5-0.2
		c0.1,0,0.2,0,0.2-0.1c0.1,0,0.1-0.1,0.2-0.2c0-0.1,0-0.2,0-0.2c0-0.1,0-0.2-0.1-0.2l-2.8-3.7L366.7,253.7z"/>
	<path class="st45" d="M367.9,253.5c0-0.2-0.1-0.3-0.3-0.3c-0.2,0-0.3,0.1-0.3,0.3c0,0.2,0.1,0.3,0.3,0.3
		C367.6,253.8,367.9,253.6,367.9,253.5z"/>
	<path class="st45" d="M370.5,253.4c0-0.2-0.1-0.3-0.3-0.3s-0.3,0.1-0.3,0.3c0,0.2,0.1,0.3,0.3,0.3
		C370.3,253.6,370.4,253.5,370.5,253.4z"/>
	<path class="st45" d="M368.8,251.2c0-0.2-0.1-0.3-0.3-0.3c-0.2,0-0.3,0.1-0.3,0.3s0.1,0.3,0.3,0.3
		C368.5,251.5,368.7,251.4,368.8,251.2z"/>
	<path class="st46" d="M269.3,446.8c0.2-0.5,0-1-0.2-1.5l-6.6,1.4h-0.1l-0.1-0.1c-0.8-0.3-1-0.3-1.4-0.3c-0.3,0.1-0.7,0.2-1,0.3
		c-0.9,0.3-2.3,0.7-5,1.5c-0.3,0.1-0.8,0.2-1.3,0.2c-5.8,1-10.5-0.1-11.1-0.5h-0.2c-0.1,0.9,0.2,1.3,0.2,1.3c2.4,1.3,5.9,0.8,10,0.6
		c4.2-0.3,7.9-2,8.7-2c0.8-0.1,1.7,0.1,1.7,0.1S269,447.5,269.3,446.8z"/>
	<path class="st47" d="M250.3,444.3c-0.3,0.2-0.7,0.5-1.6,0.7c-0.8,0.1-1.9,0.2-3,0.5c-2.7,0.5-3.5,2.4-3.5,2.4s0.2,0.1,0.7,0.3
		c1.6,0.8,5.7,1.2,10.3,0.3c0.3-0.1,0.8-0.1,1.2-0.2c4.3-1.2,5.2-1.9,6.1-2c0.5-0.1,0.8,0,1.7,0.3l6.5-1.3l0.2-0.1
		c0,0,0-3.1-2.1-6.1c0,0-2.4,2-4.9,2.4c-1.2,0.2-2.5,0.1-3.8-0.6l-0.1-0.8c-0.1-0.5-0.2-0.8-0.5-1.2l-0.2,0.2
		c-0.7,0.3-0.9,0.7-1.6,1.2C254.5,441.1,251.8,443.4,250.3,444.3z"/>
	<path class="st46" d="M335.5,427.5c-0.2-0.5-0.8-0.7-1.3-0.8l-3.1,6l-0.1,0.1l-0.1,0.1c-0.7,0.3-1,0.6-1.2,0.9
		c-0.1,0.2-0.2,0.6-0.3,1c-0.2,0.9-0.9,2.3-2.1,4.9c-0.1,0.3-0.3,0.8-0.6,1.2c-2.9,5.2-6.8,8.1-7.5,8.3l-0.1,0.1
		c0.6,0.6,1.2,0.6,1.2,0.6c2.5-1,4.4-4.1,6.8-7.4c2.4-3.4,3.6-7.3,4.1-8s1.2-1.3,1.2-1.3S336,428.2,335.5,427.5z"/>

		<linearGradient id="SVGID_18_" gradientUnits="userSpaceOnUse" x1="35251.2539" y1="-73365.9922" x2="37624.4062" y2="-77108.2734" gradientTransform="matrix(-1 0 0 -1 -7850.2822 -4450)">
		<stop  offset="0.37" style="stop-color:#022F6B"/>
		<stop  offset="0.47" style="stop-color:#02326F"/>
		<stop  offset="0.57" style="stop-color:#023C7C"/>
		<stop  offset="0.68" style="stop-color:#014D92"/>
		<stop  offset="0.79" style="stop-color:#0164B0"/>
		<stop  offset="0.9" style="stop-color:#0181D6"/>
		<stop  offset="1" style="stop-color:#00A0FF"/>
	</linearGradient>
	<path class="st48" d="M321.6,440.7c0,0.3-0.1,0.9-0.6,1.7c-0.3,0.7-0.9,1.6-1.6,2.7c-1.4,2.4-0.3,4.2-0.3,4.2s0.2-0.1,0.7-0.3
		c1.6-0.8,4.5-3.7,6.8-7.9c0.2-0.3,0.3-0.7,0.6-1c1.9-4.1,2-5.2,2.4-6c0.2-0.3,0.6-0.7,1.4-1l3.1-5.9l0.1-0.2c0,0-2.8-1.9-6.4-2.3
		c0,0,0.2,2.9-0.9,5.1c-0.6,1-1.5,2.1-2.8,2.7l-0.7-0.5c-0.3-0.2-0.7-0.3-1-0.3l0,0c-0.2,0.7-0.3,1.5-0.5,2.2
		C321.9,435.4,321.9,439,321.6,440.7z"/>
	<path class="st49" d="M314.6,316.8c0.6-0.3,0.3-1.9-0.6-3.5c-0.8-1.6-2-2.7-2.5-2.4c-0.6,0.3-0.3,1.9,0.6,3.5
		C312.8,316,314,317.1,314.6,316.8z"/>
</g>
<path class="st34" d="M531.6,354.2c-1,0.1-1.9,0.1-2.8,0.1L531.6,354.2z"/>
<g>
	<path class="st50" d="M427.7,354.2h104.1c0.2,0,0.6,0,0.8-0.1c6.2-0.6,11-5.9,11-12.4c0-2.8-0.9-5.5-2.6-7.6
		c-1.7-2.2-4-3.8-6.7-4.4c-0.8-6.3-2.2-17.4-2.5-22.2c-1.4-29-23.7-52.5-52.4-52.5s-51.8,23.5-51.8,52.5v27.4V354.2z"/>
	<path class="st51" d="M492.5,263.3c0,0.2-0.1,0.3-0.2,0.4c-0.2,0.1-0.3,0.2-0.6,0.2H472c-0.2,0-0.4-0.1-0.6-0.2
		c-0.2-0.1-0.2-0.3-0.2-0.4V234h21.3V263.3z"/>
	<path class="st51" d="M587.9,281.2c0.2-0.2,0.5-0.3,0.6-0.6c0.2-0.2,0.3-0.5,0.4-0.7c0.1-0.2,0.1-0.6,0.1-0.9s-0.2-0.6-0.2-0.8
		c-0.2-0.2-0.3-0.5-0.6-0.6c-0.2-0.2-0.5-0.3-0.7-0.4c-0.2-0.1-0.6-0.1-0.8-0.1s-0.6,0.2-0.8,0.2l-11.2,6.6l2.2,3.8L587.9,281.2z"/>
	<path class="st51" d="M581.6,282.4c0,0,7.6,1.4,10.1,1.5c3.8,0.1,15.1-1.5,15.1-1.5c0.2,0,0.3,0.1,0.5,0.2c0.2,0.1,0.2,0.2,0.3,0.3
		c0.1,0.2,0.1,0.3,0.1,0.5s-0.1,0.3-0.2,0.5c-1.8,3-5.3,4.6-8.6,6.3c-3.8,2-9,2.4-12,2.4h-8.3l-41.8,56.5c-2.8,3.9-9.8,4.4-13.2,1.2
		c-3.5-3.2-4.1-9.4-1-12.9l48.6-51.2c2.1-2.2,4.9-3.5,7.8-3.5L581.6,282.4z"/>
	<g>
		<polygon class="st34" points="493.3,323.5 502.9,317.1 502.9,313.7 488.2,323.5 		"/>
		<polygon class="st52" points="487.3,302.3 475.1,302.3 481.2,306.4 		"/>
		<polygon class="st52" points="495,302.3 489.5,302.3 481.2,307.8 472.9,302.3 467.4,302.3 481.2,311.5 		"/>
		<polygon class="st34" points="459.5,308.7 459.5,312.3 476.4,323.5 486,323.5 502.9,312.3 502.9,308.7 481.2,323.1 		"/>
		<polygon class="st52" points="481.2,312.9 465.2,302.3 459.8,302.3 481.2,316.5 502.7,302.3 497.2,302.3 		"/>
		<polygon class="st34" points="474.2,323.5 459.5,313.7 459.5,317.1 469.1,323.5 		"/>
		<polygon class="st34" points="502.9,323.5 502.9,318.6 495.5,323.5 		"/>
		<polygon class="st34" points="459.5,303.6 459.5,307.2 481.2,321.6 502.9,307.2 502.9,303.6 481.2,318 		"/>
		<polygon class="st34" points="459.5,323.5 466.9,323.5 459.5,318.6 		"/>
		<polygon class="st49" points="489.5,302.3 487.3,302.3 481.2,306.4 475.1,302.3 472.9,302.3 481.2,307.8 		"/>
		<polygon class="st49" points="497.2,302.3 495,302.3 481.2,311.5 467.4,302.3 465.2,302.3 481.2,312.9 		"/>
		<polygon class="st49" points="459.8,302.3 459.5,302.3 459.5,303.6 481.2,318 502.9,303.6 502.9,302.3 502.7,302.3 481.2,316.5
			"/>
		<polygon class="st49" points="459.5,307.2 459.5,308.7 481.2,323.1 502.9,308.7 502.9,307.2 481.2,321.6 		"/>
		<polygon class="st49" points="488.2,323.5 502.9,313.7 502.9,312.3 486,323.5 		"/>
		<polygon class="st49" points="476.4,323.5 459.5,312.3 459.5,313.7 474.2,323.5 		"/>
		<polygon class="st49" points="459.5,317.1 459.5,318.6 466.9,323.5 469.1,323.5 		"/>
		<polygon class="st49" points="495.5,323.5 502.9,318.6 502.9,317.1 493.3,323.5 		"/>
	</g>
	<path class="st53" d="M468.2,256.2v14.1c-24.4,9.4-24.1,39.1-24.1,39.1v44.8h-16.5v-46.7C427.7,282.4,445,261.4,468.2,256.2z"/>
	<path class="st53" d="M543.6,341.7c0,6.5-4.8,11.8-11,12.4c-0.2,0.1-0.6,0.1-0.8,0.1h-4.3c-0.9-0.1-1.8-0.2-2.5-0.4
		c-3.3-0.9-5.6-3.7-6.1-7l-6.4-44.9c0,0-4.7-24.8-20.5-32.3v-13c22.5,5.7,38.8,26.4,39.9,51c0.2,4.7,1.7,15.9,2.5,22.2
		c2.7,0.6,5,2.2,6.7,4.4C542.7,336.2,543.6,338.9,543.6,341.7z"/>
	<path class="st54" d="M505.5,248.3c-0.5-0.2-0.9-0.6-1.1-1c-0.2-0.5-0.4-1-0.4-1.5c0-0.6,0.2-1.3,0.6-1.8l3.5-4.9
		c2-2.3,2.8-5.5,2.8-8.5c-0.1-4.6-1.3-8.9-4-12.6c-2.9-4-5.4-8-10.9-12c-1.8-1.3-3.9-2.6-6.5-3.9c-0.9-0.4-2-0.8-3.2-1.1
		c-1.2-0.3-2.6-0.6-3.9-0.7c-0.2,0-0.3,0-0.5,0c-2.7,0-5.1,0.9-7.3,2.4l9.6,32.7l0.7,8.9l-0.2,26.8c-0.2,5.5,3,9.5,8.4,9.7l4.6,0.2
		c8.8,0.4,16.1-5.8,16.5-14.5l0.2-3.2C514.6,256.9,511.1,251.1,505.5,248.3z"/>
	<path class="st33" d="M498.7,242.4l-4.3-8.3l-4,8.4L498.7,242.4z"/>
	<path class="st51" d="M498.6,225.2c0.5-11.1-8-20.4-19-20.9c-10.9-0.5-20.2,8.2-20.6,19.3c-0.5,11.1,8,20.4,19,20.9
		C488.9,244.9,498.1,236.2,498.6,225.2z"/>

		<linearGradient id="SVGID_19_" gradientUnits="userSpaceOnUse" x1="17317.0176" y1="-24770.3965" x2="112833.3359" y2="-99580.4453" gradientTransform="matrix(-1 0 0 -1 -7850.2822 -4450)">
		<stop  offset="3.000000e-02" style="stop-color:#884C59"/>
		<stop  offset="0.12" style="stop-color:#6D3C4D"/>
		<stop  offset="0.28" style="stop-color:#47273D"/>
		<stop  offset="0.42" style="stop-color:#2B1731"/>
		<stop  offset="0.54" style="stop-color:#1B0D2A"/>
		<stop  offset="0.63" style="stop-color:#150A27"/>
		<stop  offset="0.95" style="stop-color:#000000"/>
	</linearGradient>
	<path class="st55" d="M455.3,229.5c-0.4,10.4-1,19.4-1,19.4l-2.2,1.8c-4.2,3.4-5.1,10.5-2.1,16.4l3.1,6.7c2.5,4.7,7.7,7.2,13,7.5
		l5.9,0.2c2.2,0.1,4.5-0.7,6.3-2.2c1.7-1.5,2.8-3.6,3.1-5.9c0.1-1.3-0.1-2.6-0.6-3.7c-0.5-1.1-1.3-2.2-2.3-2.9l-1.8-1.4
		c-2.6-1.9-2.6-5.9,0.1-7.8c2.9-2.1,4.4-4.9,4.3-8.4c-0.2-4.6-7.5-8.9-12-11.5c-2.8-1.5-3.6-7.1-0.9-8.8c5.1-3.2,15.7-6.2,15.3-16.3
		c-0.5-15.3-9.2-12.8-13.9-13C457.5,198.9,455.9,215.5,455.3,229.5z"/>
	<path class="st33" d="M471.4,242.2l-4.6-8.1l-3.7,8.6L471.4,242.2z"/>
</g>
<g>
	<path class="st7" d="M681.9,129L671,105.4l39,7.2L681.9,129z"/>
	<path class="st8" d="M710,112.6l-40.9-16.3l-7.4,19.1l9.2-10L710,112.6z"/>
	<path class="st9" d="M670.9,105.4l4.9,10.6l-14.1-0.6L670.9,105.4z"/>
	<path class="st7" d="M669.2,96.4l-10.1-16.4l50.9,32.6L669.2,96.4z"/>
</g>
<g>
	<path class="st56" d="M706.3,301l9.7,5.5c4.3,5.4,8.8,18,11,27.6c2.2,9.7,11.4,26.1,11.4,26.1c-11.6,0.3-11.5,10.6-14.6,18.9
		c-3.1,8.3-7.2,7.2-11.6,2.2c-4.5-5.2-17.2-27.7-19.3-46.7c-2-18.9,1.9-24.7,4.7-29.9C699.5,301.1,706.4,300.3,706.3,301z"/>
	<path class="st7" d="M759.5,474.3c23.2-0.8,28.5,7,28.5,18.5s-16.1,14.7-16.1,14.7H614c12.9-12,0-29.5,0-29.5
		S736.2,474.9,759.5,474.3z"/>
	<path class="st33" d="M614,507.5h152.8c9.1,0,16.6-6.7,16.6-14.7c0-8.2-7.4-14.7-16.6-14.7H614v-8.5h152.8c14.4,0,26,10.4,26,23.2
		s-11.7,23.2-26,23.2H614V507.5z"/>
	<path class="st7" d="M625.3,388.9c-23.2-0.8-28.5,7-28.5,18.5c0,11.5,16.1,14.7,16.1,14.7h157.8c-12.9-12,0-29.5,0-29.5
		S648.5,389.6,625.3,388.9z"/>
	<path class="st57" d="M770.7,422.2H617.8c-9.1,0-16.6-6.7-16.6-14.7c0-8.1,7.4-14.7,16.6-14.7h152.8v-8.5H617.8
		c-14.4,0-26,10.4-26,23.2s11.7,23.2,26,23.2h152.8V422.2z"/>
	<path class="st58" d="M609.1,431.7v37.6c0,0.3,0.2,0.5,0.5,0.5h169.7c0.3,0,0.5-0.2,0.5-0.5v-37.6c0-0.3-0.2-0.5-0.5-0.5H609.6
		C609.3,431.1,609.1,431.4,609.1,431.7z"/>
	<g class="st59">
		<path class="st60" d="M631.2,439.7h126.3v21.7H631.2V439.7z M756.2,441.1H632.6v18.9h123.6V441.1z"/>
	</g>
	<g class="st59">
		<path class="st60" d="M646.8,451.4h97V450h-97V451.4z"/>
	</g>
	<path class="st61" d="M800.5,422.3c0,0-2.9,17,2.3,20.3c4.8,3,11.8,4.8,10.4,7.5c-0.3,0.5-13,1-18,1.1c-0.2,0-0.5,0-0.8-0.1
		c-0.2-0.1-0.4-0.2-0.5-0.4c-0.2-0.2-0.3-0.4-0.3-0.6s-0.1-0.4-0.1-0.8l0.8-6l-1.7-12.2L800.5,422.3z"/>
	<path class="st62" d="M818.5,453.5l-25.2,1.4c-0.3,0-0.6-0.1-0.6-0.2l-0.1-2.3c0-0.1,0.2-0.2,0.5-0.2l25.2-1.1
		c0.3,0,0.6,0.1,0.6,0.2l0.1,1.9C819.1,453.4,818.9,453.5,818.5,453.5z"/>

		<linearGradient id="SVGID_20_" gradientUnits="userSpaceOnUse" x1="66993.8359" y1="-4896.1953" x2="75267.5" y2="-4896.1953" gradientTransform="matrix(-1 0 0 -1 -7850.2822 -4450)">
		<stop  offset="9.000000e-02" style="stop-color:#DFE6EB"/>
		<stop  offset="0.26" style="stop-color:#D1D7DC"/>
		<stop  offset="0.59" style="stop-color:#ADB1B3"/>
		<stop  offset="0.95" style="stop-color:#808080"/>
	</linearGradient>
	<path class="st63" d="M803.5,451.3l-10.5,0.4l-0.3-5.6l-0.1-1.2v-0.8c-0.1-1.6,0.4-2.2,0.9-2.4c1.1-0.3,1.8,1.1,1.8,1.1
		c1.6,3.4,3.2,4,3.2,4c4.8,1.8,4.3-2.3,4.3-2.3c-2-5.7,0.2-3.4,0.2-3.4c4.8,5.7,14.7,6.2,14.7,6.2c3.1,0.5,1.2,3.2,1.2,3.2l-7.7,0.4
		l-1.3,0.1l-1.6,0.1L803.5,451.3z"/>
	<path class="st61" d="M779.6,430.9c0,0-9.1,13.8-5.9,18.7c3,4.6,8.5,9,6.2,10.8c-0.5,0.4-11.7-4.4-16.1-6.2
		c-0.2-0.1-0.4-0.2-0.5-0.4c-0.1-0.2-0.3-0.4-0.3-0.6c-0.1-0.2-0.1-0.4-0.1-0.8c0-0.2,0.1-0.4,0.2-0.6l3-4.9l3.1-11.4L779.6,430.9z"
		/>
	<path class="st62" d="M783.4,465.7l-22.7-8.8c-0.3-0.1-0.5-0.3-0.4-0.4l0.8-2c0-0.1,0.3-0.1,0.6,0l22.6,9.1
		c0.3,0.1,0.5,0.3,0.4,0.4l-0.6,1.7C783.9,465.8,783.6,465.8,783.4,465.7z"/>

		<linearGradient id="SVGID_21_" gradientUnits="userSpaceOnUse" x1="69547.6328" y1="-4904.3208" x2="76402.5938" y2="-4904.3208" gradientTransform="matrix(-1 0 0 -1 -7850.2822 -4450)">
		<stop  offset="9.000000e-02" style="stop-color:#DFE6EB"/>
		<stop  offset="0.26" style="stop-color:#D1D7DC"/>
		<stop  offset="0.59" style="stop-color:#ADB1B3"/>
		<stop  offset="0.95" style="stop-color:#808080"/>
	</linearGradient>
	<path class="st64" d="M771,457.6l-9.5-3.9l1.9-4.9l0.4-1.1l0.2-0.6c0.6-1.5,1.3-1.7,1.7-1.7c1.1,0.1,1.2,1.6,1.2,1.6
		c0.1,3.8,1.3,4.8,1.3,4.8c3.4,3.5,4.7-0.3,4.7-0.3c0.4-5.8,1.5-2.9,1.5-2.9c2,6.9,10.5,11.4,10.5,11.4c2.6,1.8-0.2,3.3-0.2,3.3
		l-7-2.7l-1.2-0.5l-1.5-0.5L771,457.6z"/>
	<path class="st65" d="M725.9,379.4l52.6,1.6l11.4,56.7l12.5-3.3c0,0-4.3-48.9-5.8-61.4c-1.5-12.4-5.4-16.5-12.7-16.5h-55
		L725.9,379.4z"/>
	<path class="st66" d="M716.6,384.5l61.2,2.3l-16.1,55.9h15.3c0,0,20.8-48.7,24.1-60c3.3-11.2,0.5-16.6-10.9-18.3
		c-11.4-1.6-65.1-4.8-65.1-4.8L716.6,384.5z"/>

		<linearGradient id="SVGID_22_" gradientUnits="userSpaceOnUse" x1="117847.2656" y1="55559.0352" x2="163429.4062" y2="77317.7266" gradientTransform="matrix(-1 0 0 -1 -7850.2822 -4450)">
		<stop  offset="0.2" style="stop-color:#E58057"/>
		<stop  offset="0.93" style="stop-color:#ECDFCF"/>
	</linearGradient>
	<path class="st67" d="M757,351.4c-19.7-4-28.3-12.2-28.3-12.2l-7.9-13l-11.2,6.8c0,0,6.1,12,12.8,15.4c6.7,2.4,35.8,9.4,35.8,9.4
		c4.5,1.9,15.8,1.8,16.1,0.5c0.3-1.1-6-3.9-9.2-5.7c-1.1-0.5-2.2-0.9-3.3-0.8L757,351.4z"/>
	<path class="st68" d="M706.3,301l9.7,5.5c4.3,5.4,8.8,18,11,27.6c2.2,9.7,11.4,26.1,11.4,26.1c-11.6,0.3-11.5,10.6-14.6,18.9
		c-3.1,8.3-7.2,7.2-11.6,2.2c-4.5-5.2-17.2-27.7-19.3-46.7c-2-18.9,1.9-24.7,4.7-29.9C699.5,301.1,706.4,300.3,706.3,301z"/>

		<linearGradient id="SVGID_23_" gradientUnits="userSpaceOnUse" x1="-15677.8223" y1="-38715.7969" x2="-15230.1973" y2="-36580.168" gradientTransform="matrix(-1 0 0 -1 -7850.2822 -4450)">
		<stop  offset="7.000000e-02" style="stop-color:#ECDFCF"/>
		<stop  offset="0.8" style="stop-color:#E58057"/>
	</linearGradient>
	<path class="st69" d="M714.3,295.5v10.9l-9.9-2c-0.8-0.1-1.5-0.5-1.9-1.2c-0.5-0.6-0.8-1.4-0.8-2.2v-9.5L714.3,295.5z"/>
	<path class="st61" d="M702.2,281.8c2.9-5.5,10.8-5.8,15.6-1.9c1.2,0.9,2.2,2,2.9,3.3c0.8,1.3,1.2,2.7,1.4,4.2
		c0.2,1.5,0.1,3-0.3,4.4c-0.4,1.4-1.1,2.8-1.9,4c-0.9,1.2-2,2.2-3.3,2.9c-1.3,0.8-2.7,1.2-4.2,1.4c-1.5,0.2-2.9,0.1-4.3-0.3
		c-1.4-0.4-2.7-1.1-3.9-2c-2.8-2.2-4.8-5.5-4.3-8.8C700.1,286.9,701.3,283.4,702.2,281.8z"/>
	<path class="st70" d="M705.8,273.9c-1.8,0-4.1,0.5-6.3,2.7c-3.8,3.5-1.1,10.8-0.8,12.6c0.4,2.3,1.7,5.6,1.7,5.6l3.1-3.5
		c-2.4-4-0.5-6.1,1.7-5.7c1.5,0.3,1.7,2.3,1.7,2.3l2,0.1l0.9-3.9c3.9,3.5,11,2.8,13.6,0.1c1.3-1.3,2.5-8.1,2.5-8.1s-4.5-1.6-14-2.2
		C710.3,273.8,707.3,273.9,705.8,273.9z"/>
	<path class="st61" d="M757,353.4c-19.7-4-29.5-9.8-29.5-9.8l-9.8-12.3l-11.9,6.8c0,0,10.1,12,16.7,15.4c6.7,2.4,35.8,5.4,35.8,5.4
		c4.5,1.9,15.8,1.8,16.1,0.5c0.3-1.1-6-3.9-9.2-5.7c-1.1-0.5-2.2-0.9-3.3-0.8L757,353.4z"/>
	<path class="st68" d="M697.4,323.4c3.8,9.2,10.2,19.5,10.2,19.5l17.4-9.4c0,0-6.8-9.4-9.2-14.6c-2.5-5.3-7-12.9-13.4-10
		C700.2,309.7,693.7,314.1,697.4,323.4z"/>
	<path class="st71" d="M778.2,363.3l0.4-2.6c0,0-22-1.3-25.4-1.5c-3.3-0.2-3.7,1.1-4.9,2.3L778.2,363.3z"/>
	<path class="st71" d="M798.7,338.2c0-0.2,0-0.3-0.1-0.5c-0.1-0.2-0.2-0.3-0.3-0.4c-0.1-0.1-0.3-0.1-0.5-0.2l-7.6-0.3
		c-0.4,0-0.8,0.1-1.1,0.2c-0.3,0.1-0.6,0.4-0.9,0.6l-16.3,25.2l11.1,0.6l15.7-24.8C798.6,338.5,798.7,338.4,798.7,338.2z"/>
	<path class="st34" d="M762.5,437.5l16,2.2l-1.2,4.5l-15.7-1.7L762.5,437.5z"/>
	<path class="st34" d="M788.4,438l-0.3-2.8c-0.1-0.4,0.3-0.9,0.8-1l12.9-2.9c0.6-0.1,1.2,0.2,1.3,0.9l0.2,3.1c0,0.4-0.3,0.9-0.8,1
		l-12.8,2.6C789,438.9,788.4,438.6,788.4,438z"/>
</g>
</svg>
