<svg width="105" height="69" viewBox="0 0 105 69" fill="none" xmlns="http://www.w3.org/2000/svg">
    <g opacity="0.4">
        <path d="M46.7998 64C42.2665 67.2667 36.7998 68.9 30.3998 68.9C23.9998 68.9 18.4998 67.2667 13.8998 64C9.36647 60.6667 6.03314 56.4667 3.8998 51.4C1.83314 46.2667 0.799805 40.6 0.799805 34.4C0.799805 24.7333 3.36647 16.6 8.4998 10C13.6331 3.33333 20.9331 0 30.3998 0C39.8665 0 47.1665 3.33333 52.2998 10C57.4331 16.6 59.9998 24.7333 59.9998 34.4C59.9998 40.6 58.9331 46.2667 56.7998 51.4C54.7331 56.4667 51.3998 60.6667 46.7998 64ZM21.0998 34.4C21.0998 45.5333 24.1998 51.1 30.3998 51.1C36.5998 51.1 39.6998 45.5333 39.6998 34.4C39.6998 23.3333 36.5998 17.8 30.3998 17.8C24.1998 17.8 21.0998 23.3333 21.0998 34.4Z" fill="#B8B8E8"/>
        <path d="M104.693 67.7H84.4928V26.7L73.1928 37.9L61.7928 26L87.2928 0.999999H104.693V67.7Z" fill="#B8B8E8"/>
    </g>
</svg>
