<svg width="120" height="69" viewBox="0 0 120 69" fill="none" xmlns="http://www.w3.org/2000/svg">
    <g opacity="0.6">
        <path d="M46.2998 64C41.7665 67.2667 36.2998 68.9 29.8998 68.9C23.4998 68.9 17.9998 67.2667 13.3998 64C8.86647 60.6667 5.53314 56.4667 3.3998 51.4C1.33314 46.2667 0.299805 40.6 0.299805 34.4C0.299805 24.7333 2.86647 16.6 7.9998 10C13.1331 3.33333 20.4331 0 29.8998 0C39.3665 0 46.6665 3.33333 51.7998 10C56.9331 16.6 59.4998 24.7333 59.4998 34.4C59.4998 40.6 58.4331 46.2667 56.2998 51.4C54.2331 56.4667 50.8998 60.6667 46.2998 64ZM20.5998 34.4C20.5998 45.5333 23.6998 51.1 29.8998 51.1C36.0998 51.1 39.1998 45.5333 39.1998 34.4C39.1998 23.3333 36.0998 17.8 29.8998 17.8C23.6998 17.8 20.5998 23.3333 20.5998 34.4Z" fill="#FDCDCA"/>
        <path d="M119.893 67.7H65.3928V52C73.7261 46.1333 79.8261 41.8 83.6928 39C87.5594 36.2 90.7928 33.6667 93.3928 31.4C95.9928 29.1333 97.5261 27.5 97.9928 26.5C98.5261 25.5 98.7928 24.3333 98.7928 23C98.7928 21.4667 98.0594 20.2333 96.5928 19.3C95.1261 18.3 93.2928 17.8 91.0928 17.8C84.8261 17.8 78.9594 20.1 73.4928 24.7L62.4928 11.3C66.0928 7.43333 70.3928 4.6 75.3928 2.8C80.4594 0.933333 85.5594 0 90.6928 0C99.2928 0 106.193 2.16667 111.393 6.5C116.659 10.7667 119.293 16.2667 119.293 23C119.293 27.6667 117.726 32.0667 114.593 36.2C111.459 40.3333 105.993 44.9667 98.1928 50.1H119.893V67.7Z" fill="#FDCDCA"/>
    </g>
</svg>
