<svg width="120" height="69" viewBox="0 0 120 69" fill="none" xmlns="http://www.w3.org/2000/svg">
    <g opacity="0.6">
        <path d="M46 64C41.4667 67.2667 36 68.9 29.6 68.9C23.2 68.9 17.7 67.2667 13.1 64C8.56667 60.6667 5.23333 56.4667 3.1 51.4C1.03333 46.2667 0 40.6 0 34.4C0 24.7333 2.56667 16.6 7.7 10C12.8333 3.33333 20.1333 0 29.6 0C39.0667 0 46.3667 3.33333 51.5 10C56.6333 16.6 59.2 24.7333 59.2 34.4C59.2 40.6 58.1333 46.2667 56 51.4C53.9333 56.4667 50.6 60.6667 46 64ZM20.3 34.4C20.3 45.5333 23.4 51.1 29.6 51.1C35.8 51.1 38.9 45.5333 38.9 34.4C38.9 23.3333 35.8 17.8 29.6 17.8C23.4 17.8 20.3 23.3333 20.3 34.4Z" fill="#FCE1C0"/>
        <path d="M90.993 68.9C84.6596 68.9 78.993 67.9667 73.993 66.1C69.0596 64.1667 65.1263 61.6333 62.193 58.5L72.093 44.7C74.493 46.7667 77.393 48.3667 80.793 49.5C84.193 50.5667 87.3263 51.1 90.193 51.1C93.3263 51.1 95.7263 50.6667 97.393 49.8C99.0596 48.9333 99.893 47.8667 99.893 46.6C99.893 45.3333 99.193 44.4333 97.793 43.9C96.4596 43.3 93.7263 43 89.593 43C84.4596 43 81.2263 43.0667 79.893 43.2V25.3C80.7596 25.3667 83.993 25.4 89.593 25.4C95.7263 25.4 98.793 24.3 98.793 22.1C98.793 19.2333 95.493 17.8 88.893 17.8C82.693 17.8 77.2596 19.7333 72.593 23.6L63.093 11C69.7596 3.66667 79.093 0 91.093 0C100.093 0 106.96 1.66667 111.693 5C116.493 8.33333 118.893 12.8333 118.893 18.5C118.893 22.0333 117.493 25.2333 114.693 28.1C111.96 30.9 108.46 32.6333 104.193 33.3C108.26 33.7667 111.893 35.4 115.093 38.2C118.36 41 119.993 44.5667 119.993 48.9C119.993 54.8333 117.326 59.6667 111.993 63.4C106.66 67.0667 99.6596 68.9 90.993 68.9Z" fill="#FCE1C0"/>
    </g>
</svg>
