<svg width="219" height="198" viewBox="0 0 219 198" fill="none" xmlns="http://www.w3.org/2000/svg">
    <path opacity="0.62" d="M40.2617 78.8278L28.8835 76.1403L29.6212 71.3155C27.2371 70.0825 25.0528 68.4732 23.1454 66.5443L18.9797 68.8418L12.7924 58.5511L16.5924 55.6455C15.7589 53.0153 15.3218 50.2647 15.2966 47.4909L10.8091 46.079L13.4501 34.2347L18.0882 34.9728C19.2889 32.4879 20.8504 30.2082 22.7174 28.2142L20.5314 23.8983L30.4774 17.4019L33.2506 21.3342C35.7864 20.4524 38.4356 19.9819 41.1047 19.9392L42.4898 15.2669L53.868 17.9543L53.1303 22.7791C55.5144 24.012 57.6988 25.6213 59.6061 27.5503L63.7719 25.2528L69.9451 35.5201L66.145 38.4257C66.9788 41.0558 67.4159 43.8065 67.4408 46.5803L71.9283 47.9922L69.2874 59.8365L64.6492 59.0984C63.4486 61.5834 61.8872 63.8632 60.02 65.8571L62.206 70.1729L52.2902 76.6497L49.517 72.7174C46.9812 73.5993 44.332 74.0698 41.6629 74.1124L40.2617 78.8278ZM53.9831 53.9155C55.4747 51.0126 56.0052 47.6847 55.4924 44.4487C54.9795 41.2126 53.452 38.2493 51.147 36.0189C48.842 33.7886 45.8884 32.4159 42.7448 32.114C39.6013 31.8121 36.4436 32.5979 33.7621 34.3494C31.0806 36.1009 29.0252 38.7201 27.9152 41.8003C26.8051 44.8805 26.7024 48.2494 27.6231 51.384C28.5437 54.5186 30.4362 57.2435 33.0067 59.1356C35.5772 61.0277 38.6819 61.9811 41.8387 61.8479C44.3512 61.7578 46.7996 60.976 48.9334 59.5823C51.0672 58.1885 52.8098 56.2329 53.9831 53.9155Z" fill="#F96963"/>
    <path opacity="0.75" d="M129.304 174.229L105.277 168.474L106.781 158.242C101.748 155.621 97.1327 152.207 93.0994 148.118L84.3241 152.948L71.2411 131.188L79.2374 125.063C77.4666 119.497 76.5306 113.679 76.4625 107.816L66.9718 104.764L72.4793 79.7185L82.2967 81.2858C84.8111 76.0398 88.0872 71.2298 92.0094 67.0256L87.3757 57.8793L108.261 44.2373L114.138 52.5717C119.478 50.7262 125.06 49.7507 130.686 49.6795L133.613 39.7876L157.62 45.5302L156.117 55.7627C161.15 58.3828 165.765 61.7975 169.798 65.8861L178.574 61.0565L191.662 82.8253L183.666 88.9504C185.437 94.5163 186.373 100.334 186.441 106.198L195.954 109.247L190.445 134.269L180.627 132.701C178.113 137.947 174.837 142.757 170.915 146.962L175.548 156.108L154.654 169.756L148.777 161.421C143.437 163.267 137.855 164.242 132.229 164.313L129.304 174.229ZM158.068 121.642C161.195 115.514 162.294 108.48 161.193 101.635C160.092 94.7889 156.853 88.5134 151.98 83.7825C147.107 79.0517 140.871 76.1301 134.242 75.4714C127.612 74.8127 120.959 76.4537 115.316 80.1396C109.673 83.8256 105.355 89.3502 103.033 95.8559C100.711 102.362 100.515 109.484 102.474 116.118C104.434 122.752 108.44 128.526 113.871 132.544C119.302 136.561 125.853 138.598 132.508 138.337C137.805 138.159 142.961 136.52 147.451 133.587C151.942 130.654 155.605 126.532 158.068 121.642Z" fill="#F6BC73"/>
    <path d="M128.164 0H47.3559C45.4887 0.00551665 43.6998 0.784076 42.3813 2.16498C41.0629 3.54589 40.3225 5.41646 40.3225 7.3666V169.692C40.3225 171.643 41.0646 173.514 42.3855 174.894C43.7064 176.273 45.4978 177.048 47.3659 177.048H128.174C130.042 177.048 131.834 176.273 133.155 174.894C134.476 173.514 135.218 171.643 135.218 169.692V7.3666C135.218 6.3992 135.035 5.44128 134.681 4.54752C134.326 3.65377 133.807 2.84168 133.152 2.15763C132.497 1.47357 131.719 0.930957 130.864 0.560751C130.008 0.190545 129.091 0 128.164 0Z" fill="#9399B8"/>
    <path d="M47.0261 11.2429H128.533V160.711H47.0261V11.2429Z" fill="white"/>
    <path d="M73.9124 3.99048H101.657C101.97 3.99048 102.271 4.12057 102.493 4.35212C102.714 4.58367 102.839 4.89773 102.839 5.22519C102.839 5.55266 102.714 5.86671 102.493 6.09826C102.271 6.32982 101.97 6.4599 101.657 6.4599H73.9124C73.5988 6.4599 73.2981 6.32982 73.0764 6.09826C72.8547 5.86671 72.7302 5.55266 72.7302 5.22519C72.7302 4.89773 72.8547 4.58367 73.0764 4.35212C73.2981 4.12057 73.5988 3.99048 73.9124 3.99048Z" fill="#FCE1C0"/>
    <path d="M87.7797 173.995C85.0689 173.995 82.8714 171.7 82.8714 168.869C82.8714 166.038 85.0689 163.743 87.7797 163.743C90.4906 163.743 92.6881 166.038 92.6881 168.869C92.6881 171.7 90.4906 173.995 87.7797 173.995Z" fill="#FCE1C0"/>
    <path fill-rule="evenodd" clip-rule="evenodd" d="M88.3219 32.8069C86.1302 33.5338 84.1185 34.7556 82.4295 36.3856L78.9087 34.2658C78.4587 34.0056 77.9291 33.9394 77.4331 34.0814C76.937 34.2233 76.5137 34.5622 76.2534 35.0256L73.5473 39.9188C73.2891 40.3916 73.2207 40.952 73.357 41.4774C73.4934 42.0029 73.8233 42.4505 74.2748 42.7225L77.7593 44.8272C77.6477 45.3337 77.5629 45.8555 77.5047 46.3924C77.3502 47.7121 77.3502 49.0465 77.5047 50.3662C77.5677 50.8728 77.6526 51.3945 77.7593 51.9314L74.2457 54.0513C73.7942 54.3233 73.4643 54.771 73.3279 55.2964C73.1916 55.8218 73.26 56.3822 73.5182 56.855L76.2171 61.733L76.2607 61.8166C76.5207 62.274 76.9401 62.6086 77.431 62.7502C77.9219 62.8919 78.4462 62.8296 78.8941 62.5764L78.9741 62.5308L82.4514 60.4338C84.1394 62.0559 86.1487 63.2699 88.3365 63.9897V68.2295C88.3365 68.7756 88.5442 69.2993 88.9139 69.6855C89.2836 70.0716 89.785 70.2885 90.3079 70.2885H95.7492C96.2721 70.2885 96.7735 70.0716 97.1432 69.6855C97.5129 69.2993 97.7206 68.7756 97.7206 68.2295V63.9897C98.8107 63.6325 99.8597 63.1509 100.849 62.5536C101.841 61.9544 102.768 61.2436 103.613 60.4338L107.09 62.5308L107.178 62.584C107.624 62.8326 108.145 62.8923 108.632 62.7509C109.12 62.6094 109.537 62.2777 109.796 61.8242L109.84 61.7406L112.517 56.9006C112.646 56.6661 112.73 56.4074 112.763 56.1392C112.796 55.8711 112.778 55.5986 112.711 55.3376C112.643 55.0765 112.527 54.8319 112.369 54.6177C112.211 54.4036 112.014 54.224 111.79 54.0893L108.247 51.9466C108.358 51.4401 108.443 50.9184 108.502 50.3814C108.655 49.0617 108.655 47.7274 108.502 46.4076C108.438 45.901 108.354 45.3793 108.247 44.8424L111.76 42.7225C111.985 42.5878 112.182 42.4082 112.34 42.1941C112.498 41.9799 112.614 41.7353 112.682 41.4742C112.749 41.2132 112.767 40.9408 112.734 40.6726C112.7 40.4044 112.617 40.1457 112.488 39.9112L109.782 35.018C109.521 34.5464 109.093 34.2018 108.59 34.0594C108.087 33.917 107.55 33.9885 107.098 34.2582L103.591 36.3856C101.903 34.7639 99.8937 33.5499 97.7061 32.8297V28.5672C97.7061 28.2967 97.6551 28.029 97.556 27.7792C97.457 27.5293 97.3117 27.3024 97.1287 27.1112C96.9456 26.9199 96.7283 26.7683 96.4891 26.6648C96.2499 26.5613 95.9936 26.5081 95.7347 26.5081H90.2933C89.7705 26.5081 89.269 26.725 88.8993 27.1112C88.5296 27.4973 88.3219 28.021 88.3219 28.5672V32.8069ZM72.2524 66.9986C71.2621 67.3515 70.3477 67.904 69.5609 68.6246L67.9823 67.6748C67.8424 67.5904 67.6879 67.5356 67.5277 67.5135C67.3675 67.4915 67.2046 67.5027 67.0486 67.5465C66.8925 67.5902 66.7462 67.6657 66.6181 67.7685C66.49 67.8714 66.3825 67.9996 66.3019 68.1459L64.9561 70.5773C64.7951 70.8717 64.7522 71.2208 64.8367 71.5482C64.9212 71.8756 65.1262 72.1548 65.4071 72.3249L66.9566 73.2594C66.9178 73.462 66.8863 73.6647 66.862 73.8673C66.7831 74.541 66.7831 75.2223 66.862 75.896C66.862 76.0986 66.8935 76.3012 66.9566 76.5038L65.378 77.4536L72.2234 66.9758L72.2524 66.9986ZM71.3431 68.5866C71.8264 68.2946 72.3418 68.065 72.8781 67.9027C72.9897 67.8754 73.0892 67.8095 73.1605 67.7157C73.2317 67.6219 73.2707 67.5058 73.2709 67.3861V65.1066C73.2713 65.0538 73.2893 65.0028 73.3218 64.9623C73.3621 64.9193 73.417 64.8947 73.4746 64.8939H76.1662C76.1947 64.8939 76.223 64.8999 76.2493 64.9117C76.2755 64.9234 76.2992 64.9406 76.3189 64.9623C76.36 65.0043 76.3836 65.0617 76.3844 65.1218V67.4013C76.385 67.5167 76.4215 67.6287 76.4884 67.7206C76.5553 67.8124 76.649 67.879 76.7554 67.9103C77.8476 68.2354 78.8468 68.8355 79.6652 69.6579C79.744 69.7426 79.8475 69.7976 79.9594 69.8141C80.0714 69.8306 80.1854 69.8077 80.2835 69.7491L82.1895 68.6018C82.2408 68.5798 82.2982 68.5798 82.3495 68.6018C82.3766 68.608 82.4023 68.62 82.4248 68.637C82.4473 68.654 82.4662 68.6756 82.4805 68.7005L83.8263 71.1395C83.8373 71.1672 83.8429 71.1969 83.8429 71.2269C83.8429 71.2569 83.8373 71.2866 83.8263 71.3143C83.819 71.3431 83.8063 71.3701 83.7888 71.3936C83.7712 71.4171 83.7494 71.4366 83.7244 71.4511L81.8549 72.5756C81.7516 72.6291 81.6687 72.7175 81.6198 72.8266C81.5709 72.9356 81.5589 73.0587 81.5857 73.1758C81.6537 73.4636 81.7047 73.7554 81.7385 74.0496C81.8065 74.6402 81.8065 75.2371 81.7385 75.8276C81.7048 76.1219 81.6538 76.4137 81.5857 76.7014C81.56 76.8129 81.5694 76.9301 81.6127 77.0356C81.6559 77.141 81.7307 77.229 81.8257 77.2864L83.7244 78.4338C83.748 78.4489 83.7685 78.4688 83.7847 78.4923C83.8009 78.5158 83.8126 78.5424 83.819 78.5705C83.83 78.5982 83.8357 78.6279 83.8357 78.6579C83.8357 78.6879 83.83 78.7176 83.819 78.7453L82.4732 81.1843C82.4587 81.2089 82.4396 81.2303 82.4171 81.2473C82.3946 81.2642 82.3692 81.2764 82.3423 81.2831C82.2952 81.3004 82.2438 81.3004 82.1968 81.2831L80.2835 80.1281C80.1885 80.0713 80.0784 80.048 79.9696 80.0617C79.8608 80.0753 79.7592 80.1253 79.6798 80.2041C79.2642 80.5968 78.805 80.9361 78.3122 81.2147C77.8287 81.5063 77.3134 81.7359 76.7772 81.8985C76.6656 81.9259 76.5661 81.9918 76.4948 82.0855C76.4235 82.1793 76.3846 82.2955 76.3844 82.4152V84.6946C76.3826 84.7525 76.3598 84.8074 76.3206 84.8483C76.2814 84.8893 76.2288 84.9131 76.1734 84.915H73.4818C73.4313 84.9145 73.3824 84.8957 73.3436 84.8618C73.3229 84.8412 73.3065 84.8165 73.2952 84.789C73.284 84.7616 73.2782 84.7321 73.2782 84.7022V82.4228C73.2776 82.3074 73.2411 82.1953 73.1742 82.1035C73.1072 82.0116 73.0135 81.945 72.9072 81.9137C72.3631 81.7507 71.8403 81.5185 71.3504 81.2223C70.8572 80.9239 70.4004 80.5642 69.9901 80.1509C69.9106 80.0721 69.809 80.0222 69.7002 80.0085C69.5915 79.9948 69.4813 80.0181 69.3863 80.075L67.5094 81.2147C67.4829 81.2262 67.4545 81.2321 67.4258 81.2321C67.3971 81.2321 67.3686 81.2262 67.3421 81.2147C67.3152 81.208 67.2897 81.1958 67.2672 81.1789C67.2448 81.1619 67.2257 81.1405 67.2112 81.1159L65.8654 78.6769C65.8511 78.651 65.8417 78.6223 65.838 78.5926C65.8343 78.5629 65.8362 78.5327 65.8436 78.5038C65.851 78.4749 65.8638 78.4478 65.8813 78.424C65.8988 78.4003 65.9206 78.3803 65.9454 78.3654L67.815 77.2332C67.9183 77.1798 68.0011 77.0913 68.05 76.9823C68.0989 76.8732 68.111 76.7501 68.0841 76.633C68.0161 76.3453 67.965 76.0535 67.9314 75.7592C67.8633 75.1687 67.8633 74.5718 67.9314 73.9812C67.9651 73.687 68.0161 73.3952 68.0841 73.1075C68.1099 72.9959 68.1004 72.8787 68.0571 72.7733C68.0139 72.6678 67.9391 72.5798 67.8441 72.5224L65.9891 71.4055H65.9309C65.8907 71.3734 65.8624 71.3277 65.8509 71.2763C65.8364 71.2294 65.8364 71.1789 65.8509 71.1319V71.0636L67.1748 68.6701C67.1894 68.6455 67.2084 68.6241 67.2309 68.6072C67.2533 68.5902 67.2788 68.578 67.3058 68.5714C67.3323 68.5599 67.3607 68.554 67.3894 68.554C67.4181 68.554 67.4466 68.5599 67.4731 68.5714L69.3499 69.7035C69.4464 69.7698 69.5615 69.7999 69.6765 69.7889C69.7915 69.7778 69.8995 69.7263 69.9828 69.6427C70.3927 69.229 70.8496 68.8692 71.3431 68.5714V68.5866ZM65.4071 77.4764L72.2524 66.9986V65.1066C72.2514 64.7825 72.3684 64.4701 72.5798 64.2328C72.6941 64.1125 72.8301 64.0169 72.9799 63.9517C73.1297 63.8865 73.2905 63.8529 73.4528 63.8529H76.1443C76.3066 63.8529 76.4673 63.8865 76.6172 63.9517C76.767 64.0169 76.903 64.1125 77.0173 64.2328C77.2483 64.4721 77.3791 64.7972 77.381 65.137V67.0365C77.874 67.2127 78.3491 67.4392 78.7995 67.7128C79.2526 67.9852 79.679 68.3033 80.0726 68.6625L81.6512 67.7128C81.7911 67.6283 81.9456 67.5735 82.1058 67.5515C82.266 67.5295 82.4288 67.5407 82.5849 67.5844C82.741 67.6282 82.8872 67.7037 83.0154 67.8065C83.1435 67.9094 83.2509 68.0376 83.3316 68.1839L84.6992 70.5773C84.78 70.7234 84.8325 70.8848 84.8536 71.0521C84.8747 71.2195 84.864 71.3895 84.8221 71.5525C84.7802 71.7155 84.7079 71.8683 84.6095 72.0022C84.511 72.136 84.3882 72.2482 84.2482 72.3325L82.6696 73.2822C82.7084 73.4848 82.7399 73.6875 82.7642 73.8901C82.8485 74.5554 82.8558 75.2288 82.786 75.896C82.786 76.0986 82.7545 76.3012 82.6914 76.5038L84.2409 77.4916C84.3809 77.5758 84.5037 77.688 84.6022 77.8219C84.7007 77.9557 84.7729 78.1085 84.8148 78.2715C84.8567 78.4345 84.8674 78.6046 84.8463 78.7719C84.8252 78.9393 84.7728 79.1006 84.6919 79.2468L83.3461 81.6858C83.1871 81.9749 82.9267 82.1882 82.6198 82.2803C82.313 82.3725 81.9839 82.3364 81.7021 82.1796H81.6657L80.0944 81.2147C79.3098 81.9344 78.3979 82.4868 77.4101 82.8407V84.7402C77.4082 85.0802 77.2781 85.4056 77.0479 85.646C76.8178 85.8864 76.5062 86.0223 76.1807 86.0243H73.4891C73.1788 86.0254 72.8797 85.9031 72.6526 85.6824C72.5373 85.563 72.4458 85.421 72.3834 85.2645C72.321 85.108 72.2888 84.9401 72.2888 84.7706V82.8711C71.2985 82.5181 70.384 81.9657 69.5972 81.2451L68.0187 82.1948C67.8788 82.2793 67.7243 82.3341 67.564 82.3561C67.4038 82.3781 67.241 82.3669 67.085 82.3232C66.9289 82.2794 66.7826 82.204 66.6545 82.1011C66.5264 81.9983 66.4189 81.87 66.3383 81.7238L64.9925 79.2847C64.8315 78.9903 64.7886 78.6413 64.8731 78.3139C64.9576 77.9865 65.1626 77.7073 65.4435 77.5372L65.4071 77.4764ZM74.864 70.3569C75.8743 70.356 76.8536 70.7212 77.6349 71.3902C78.4163 72.0591 78.9512 72.9905 79.1485 74.0254C79.3458 75.0603 79.1933 76.1347 78.717 77.0653C78.2407 77.9958 77.47 78.725 76.5364 79.1284C75.6029 79.5318 74.5643 79.5845 73.5977 79.2774C72.6311 78.9703 71.7965 78.3225 71.2361 77.4445C70.6757 76.5665 70.4243 75.5126 70.5247 74.4626C70.6252 73.4126 71.0713 72.4315 71.7869 71.6866C72.6041 70.836 73.7104 70.358 74.864 70.3569ZM72.5071 72.4388C73.0518 71.8693 73.7688 71.5147 74.5359 71.4354C75.3029 71.3561 76.0726 71.557 76.7137 72.004C77.3548 72.4509 77.8277 73.1162 78.0518 73.8865C78.2759 74.6568 78.2374 75.4844 77.9428 76.2284C77.6482 76.9724 77.1158 77.5866 76.4362 77.9665C75.7567 78.3464 74.972 78.4685 74.2159 78.3119C73.4599 78.1553 72.7792 77.7297 72.2898 77.1077C71.8005 76.4857 71.5328 75.7057 71.5323 74.9006C71.5312 74.4434 71.6168 73.9905 71.7841 73.568C71.9514 73.1454 72.1971 72.7617 72.5071 72.4388ZM93.0431 58.0631C90.8967 58.0651 88.8161 57.2895 87.156 55.8685C85.4959 54.4475 84.359 52.4691 83.9391 50.2706C83.5192 48.0721 83.8424 45.7895 84.8535 43.8119C85.8646 41.8344 87.501 40.2844 89.4838 39.426C91.4667 38.5677 93.6731 38.4542 95.7271 39.105C97.7811 39.7557 99.5554 41.1303 100.748 42.9945C101.94 44.8587 102.476 47.0971 102.265 49.3281C102.054 51.5591 101.109 53.6446 99.5902 55.229C98.731 56.1279 97.7104 56.841 96.5869 57.3273C95.4635 57.8136 94.2592 58.0637 93.0431 58.0631ZM85.9431 55.7837C84.2935 54.0754 83.2621 51.8224 83.0248 49.4087C82.7875 46.9951 83.3589 44.5701 84.6417 42.5473C85.9246 40.5244 87.8394 39.0289 90.0597 38.3155C92.2801 37.6022 94.6686 37.7152 96.8181 38.6353C98.9676 39.5555 100.745 41.2258 101.848 43.3615C102.95 45.4972 103.309 47.9662 102.864 50.3475C102.419 52.7289 101.196 54.8753 99.4055 56.4208C97.6147 57.9663 95.3661 58.8152 93.0431 58.823C91.7264 58.829 90.4216 58.5636 89.2032 58.0421C87.9849 57.5206 86.8771 56.7531 85.9431 55.7837ZM85.6958 35.1547C86.7173 34.5379 87.8067 34.0531 88.9403 33.7111C89.0519 33.6837 89.1514 33.6178 89.2226 33.5241C89.2939 33.4303 89.3328 33.3142 89.3331 33.1944V28.5672C89.3331 28.3032 89.4335 28.05 89.6122 27.8633C89.7909 27.6767 90.0333 27.5718 90.2861 27.5718H95.7274C95.9802 27.5718 96.2225 27.6767 96.4013 27.8633C96.58 28.05 96.6804 28.3032 96.6804 28.5672V33.1944C96.681 33.3098 96.7175 33.4219 96.7844 33.5137C96.8513 33.6056 96.945 33.6722 97.0514 33.7035C98.1928 34.0462 99.2897 34.5336 100.318 35.1547C101.346 35.7743 102.299 36.5218 103.155 37.381C103.233 37.4657 103.337 37.5207 103.449 37.5372C103.561 37.5537 103.675 37.5308 103.773 37.4722L107.621 35.1547C107.841 35.0247 108.1 34.99 108.344 35.0583C108.588 35.1265 108.796 35.2922 108.923 35.5195L111.63 40.4127C111.754 40.6418 111.787 40.913 111.722 41.1675C111.657 41.422 111.498 41.6394 111.28 41.7727L107.469 44.0522C107.365 44.1056 107.282 44.1941 107.233 44.3031C107.185 44.4122 107.173 44.5353 107.199 44.6524C107.342 45.2529 107.448 45.8619 107.519 46.476C107.662 47.7125 107.662 48.9625 107.519 50.1991C107.448 50.8132 107.341 51.4221 107.199 52.0226C107.174 52.1341 107.183 52.2514 107.226 52.3568C107.27 52.4622 107.344 52.5502 107.439 52.6077L111.28 54.8871C111.498 55.0205 111.657 55.2379 111.722 55.4924C111.787 55.7469 111.754 56.018 111.63 56.2472L108.923 61.1404C108.796 61.3676 108.588 61.5333 108.344 61.6016C108.1 61.6698 107.841 61.6352 107.621 61.5051L103.802 59.2257C103.706 59.1593 103.591 59.1292 103.476 59.1403C103.361 59.1513 103.253 59.2029 103.169 59.2864C102.312 60.1513 101.357 60.9039 100.325 61.5279C99.3035 62.1447 98.214 62.6295 97.0805 62.9715C96.9689 62.9989 96.8694 63.0648 96.7981 63.1586C96.7268 63.2523 96.6879 63.3685 96.6876 63.4882V68.1231C96.6876 68.3871 96.5873 68.6402 96.4085 68.8269C96.2298 69.0136 95.9874 69.1184 95.7347 69.1184H90.2933C90.056 69.1217 89.8261 69.0325 89.6485 68.868C89.4709 68.7036 89.3584 68.4759 89.3331 68.2295V63.5946C89.3325 63.4792 89.296 63.3671 89.2291 63.2753C89.1621 63.1834 89.0684 63.1168 88.9621 63.0855C87.8205 62.7432 86.7236 62.2559 85.6958 61.6343C84.6642 61.0104 83.709 60.2577 82.8515 59.3928C82.772 59.314 82.6704 59.264 82.5616 59.2503C82.4528 59.2366 82.3428 59.26 82.2477 59.3168L78.4285 61.5963C78.2091 61.7263 77.9496 61.761 77.7059 61.6927C77.4622 61.6245 77.2541 61.4588 77.1264 61.2316L74.4057 56.308C74.2812 56.0788 74.248 55.8077 74.3134 55.5532C74.3787 55.2987 74.5373 55.0812 74.7549 54.9479L78.5668 52.6685C78.6701 52.615 78.7529 52.5265 78.8018 52.4175C78.8507 52.3084 78.8627 52.1853 78.8359 52.0682C78.6941 51.4676 78.5873 50.8587 78.5158 50.2446C78.3728 49.0081 78.3728 47.7581 78.5158 46.5216C78.5872 45.9075 78.6941 45.2985 78.8359 44.698C78.8617 44.5865 78.8522 44.4693 78.8089 44.3638C78.7657 44.2584 78.6909 44.1704 78.5958 44.113L74.784 41.8335C74.5664 41.7002 74.4078 41.4827 74.3425 41.2282C74.2771 40.9737 74.3103 40.7026 74.4348 40.4734L77.1409 35.5802C77.266 35.3564 77.4692 35.1918 77.7079 35.121C77.9465 35.0502 78.2022 35.0786 78.4213 35.2003L82.2695 37.5178C82.3646 37.5746 82.4747 37.5979 82.5834 37.5843C82.6922 37.5706 82.7939 37.5206 82.8733 37.4418C83.7215 36.5623 84.6693 35.7942 85.6958 35.1547ZM92.9704 39.7136C94.8871 39.7059 96.747 40.3932 98.2327 41.6581C99.7184 42.923 100.738 44.6872 101.117 46.6497C101.496 48.6121 101.212 50.6512 100.312 52.419C99.4123 54.1867 97.9531 55.5736 96.1835 56.343C94.414 57.1123 92.4436 57.2165 90.6087 56.6376C88.7738 56.0588 87.1881 54.8328 86.1221 53.169C85.0561 51.5051 84.576 49.5064 84.7636 47.514C84.9511 45.5216 85.7949 43.6589 87.1507 42.2438C88.6934 40.629 90.7863 39.7191 92.9704 39.7136ZM87.8782 43.034C89.0671 41.7891 90.6325 41.0134 92.3077 40.8392C93.9829 40.6649 95.6641 41.1029 97.0647 42.0785C98.4653 43.0541 99.4985 44.5069 99.9884 46.1891C100.478 47.8714 100.394 49.6791 99.7508 51.3039C99.1074 52.9288 97.9443 54.2702 96.4599 55.0997C94.9755 55.9291 93.2617 56.1951 91.6105 55.8523C89.9593 55.5095 88.4731 54.5792 87.4051 53.22C86.3372 51.8607 85.7536 50.1567 85.754 48.3983C85.7522 47.4021 85.939 46.4153 86.3035 45.4947C86.6681 44.5741 87.2032 43.7379 87.8782 43.034Z" fill="#8D8DCD"/>
    <path d="M116.435 100.027H59.2186C57.2586 100.027 56.6368 100.553 56.6368 102.435V142.631C56.6368 144.514 57.2586 145.039 59.2186 145.039H116.435C118.395 145.039 119.017 144.514 119.017 142.631V102.435C119.017 100.553 118.395 100.027 116.435 100.027Z" fill="#F4F4F6"/>
    <rect x="80.1497" y="118.532" width="34.0692" height="2.00055" rx="0.5" fill="#B8B8E8"/>
    <rect x="80.1497" y="124.034" width="34.0692" height="2.00055" rx="0.5" fill="#B8B8E8"/>
    <rect x="80.1497" y="129.535" width="34.0692" height="2.00055" rx="0.5" fill="#B8B8E8"/>
    <rect x="80.1497" y="135.037" width="34.0692" height="2.00055" rx="0.5" fill="#B8B8E8"/>
    <rect x="60.4753" y="117.532" width="12.476" height="10.0027" rx="2" fill="#FCE1C0"/>
    <rect x="60.4753" y="129.535" width="12.476" height="7.50205" rx="2" fill="#FCE1C0"/>
    <path d="M56.6371 102.027C56.6371 100.923 57.5325 100.027 58.6371 100.027H117.017C118.122 100.027 119.017 100.923 119.017 102.027V111.03H56.6371V102.027Z" fill="#FDCDCA"/>
    <path d="M63.4343 107.066C64.0299 107.066 64.5127 106.599 64.5127 106.022C64.5127 105.446 64.0299 104.979 63.4343 104.979C62.8387 104.979 62.3558 105.446 62.3558 106.022C62.3558 106.599 62.8387 107.066 63.4343 107.066Z" fill="white"/>
    <path d="M67.7289 107.066C68.3246 107.066 68.8074 106.599 68.8074 106.022C68.8074 105.446 68.3246 104.979 67.7289 104.979C67.1333 104.979 66.6505 105.446 66.6505 106.022C66.6505 106.599 67.1333 107.066 67.7289 107.066Z" fill="white"/>
    <path d="M72.0242 107.066C72.6198 107.066 73.1027 106.599 73.1027 106.022C73.1027 105.446 72.6198 104.979 72.0242 104.979C71.4286 104.979 70.9458 105.446 70.9458 106.022C70.9458 106.599 71.4286 107.066 72.0242 107.066Z" fill="white"/>
</svg>
