<svg width="135" height="198" viewBox="0 0 135 198" fill="none" xmlns="http://www.w3.org/2000/svg">
    <g clip-path="url(#clip0)">
        <path d="M81.2227 42.6624H7.32996C5.62256 42.6672 3.98675 43.3502 2.78114 44.5617C1.57555 45.7732 0.898537 47.4143 0.898544 49.1252V191.537C0.898544 193.249 1.5771 194.89 2.78493 196.101C3.99277 197.311 5.63094 197.991 7.33907 197.991H81.2318C82.94 197.991 84.5781 197.311 85.786 196.101C86.9938 194.89 87.6724 193.249 87.6724 191.537V49.1252C87.6724 48.2765 87.5055 47.4361 87.1814 46.652C86.8573 45.8679 86.3822 45.1554 85.7833 44.5553C85.1844 43.9552 84.4734 43.4791 83.6909 43.1543C82.9084 42.8295 82.0697 42.6624 81.2227 42.6624Z" fill="#9399B8"/>
        <path d="M7.02875 52.5258H81.5601V183.657H7.02875V52.5258Z" fill="#F2F8FF"/>
        <path d="M31.6141 46.1633H56.9839C57.2706 46.1633 57.5456 46.2775 57.7483 46.4806C57.9511 46.6838 58.0649 46.9593 58.0649 47.2466C58.0649 47.5339 57.9511 47.8094 57.7483 48.0125C57.5456 48.2157 57.2706 48.3298 56.9839 48.3298H31.6141C31.3274 48.3298 31.0524 48.2157 30.8497 48.0125C30.6469 47.8094 30.533 47.5339 30.533 47.2466C30.533 46.9593 30.6469 46.6838 30.8497 46.4806C31.0524 46.2775 31.3274 46.1633 31.6141 46.1633Z" fill="#FCE1C0"/>
        <path d="M44.2945 195.313C41.8157 195.313 39.8063 193.299 39.8063 190.815C39.8063 188.331 41.8157 186.318 44.2945 186.318C46.7734 186.318 48.7828 188.331 48.7828 190.815C48.7828 193.299 46.7734 195.313 44.2945 195.313Z" fill="#FCE1C0"/>
        <path d="M29.6437 94.8045L30.2914 94.7405H30.4647L31.0486 94.6674H31.1398L31.8149 94.5668H31.9882L32.5538 94.4663H32.6998L33.3931 94.3292H33.5755L34.1411 94.2103H34.3236L35.0351 94.0458H35.2085L35.7923 93.8995L36.0204 93.8447L36.7411 93.6619L36.9144 93.6162L37.4982 93.4607L37.7719 93.3876L38.3649 93.2231L38.6933 93.1317L39.2498 92.9763L39.6055 92.8757L40.0343 92.7477L40.7094 92.5466L41.0196 92.4552L41.5487 92.2907L41.7037 92.245C45.9184 90.956 49.914 89.1826 54.3111 88.0765C55.4947 88.9096 56.5544 89.9068 57.4584 91.0383C59.9854 95.2067 58.8268 100.18 60.7881 104.366C64.0996 112.237 75.2018 123.764 74.4081 127.219C72.4012 135.904 61.8737 140.465 57.13 132.704C51.7386 123.517 52.6691 113.224 42.0048 107.502C34.7067 103.845 27.5455 102.456 24.4438 94.5851C26.1577 94.9078 27.9089 94.9816 29.6437 94.8045Z" fill="#9595CB"/>
        <g style="mix-blend-mode:multiply" opacity="0.15">
            <g style="mix-blend-mode:multiply" opacity="0.15">
                <path d="M44.2033 103.388C48.8285 103.159 50.8628 101.313 52.7512 98.4515C55.6704 94.0362 58.5257 93.1678 58.8085 94.283C59.6387 97.6288 59.3559 101.212 60.8246 104.338C63.1874 109.951 69.5002 117.42 72.684 122.484C68.9711 124.312 64.4737 125.72 61.3629 124.458C59.0822 123.544 56.6465 120.957 54.3659 119.586C53.4536 119.056 52.4136 118.581 51.3372 118.05C50.257 115.264 48.6141 112.73 46.5113 110.609C46.6719 109.255 46.9778 107.922 47.4236 106.633C46.2103 106.569 45.0517 107.547 43.9114 108.461C43.3549 108.086 42.7711 107.73 42.1325 107.392C41.275 106.962 40.4175 106.56 39.5691 106.176C41.3115 104.741 42.9353 103.452 44.2033 103.388Z" fill="#211915"/>
            </g>
        </g>
        <path d="M56.6311 99.9396C54.7268 101.17 52.7682 102.259 53.4755 104.255C54.1828 106.093 56.2684 106.211 58.091 105.596C59.2879 105.193 60.6481 104.018 62.099 103.032C65.6354 100.547 66.9684 99.3006 65.7261 97.155C63.305 92.9663 59.6325 97.9991 56.6311 99.9396Z" fill="url(#paint0_linear)"/>
        <path d="M53.4903 111.378C57.2007 108.17 61.1066 105.196 65.1854 102.474C67.6576 101.112 70.3944 105.216 68.8344 106.615C66.9184 108.278 64.9179 109.84 62.8409 111.295C61.8465 112.063 62.33 111.506 59.9308 113.124C57.5315 114.742 57.0663 115.299 55.6432 115.957C52.6784 117.393 51.5015 113.133 53.4903 111.378Z" fill="url(#paint1_linear)"/>
        <path d="M66.2983 109.311C66.9368 108.781 68.4056 107.867 69.3178 107.995C70.2301 108.123 70.7774 109.348 71.0694 110.152C71.863 112.41 69.0168 113.58 67.4203 114.622C65.3951 115.985 63.6801 117.859 61.5454 119.029C60.1888 119.848 58.6628 120.346 57.0845 120.482C55.8894 120.482 54.9772 118.654 54.8859 117.922C54.6396 116.158 56.3182 116.158 59.8669 113.754C63.4155 111.35 66.2983 109.311 66.2983 109.311Z" fill="url(#paint2_linear)"/>
        <path d="M70.8047 119.751C68.5423 120.756 66.7634 121.844 64.7017 122.32C63.0414 122.694 60.852 121.278 62.0744 119.486C62.7404 118.526 67.2834 115.555 68.3963 114.65C70.3486 113.014 71.6349 113.105 72.9576 115.317C74.3807 117.85 73.1583 119.12 71.9724 121.479L70.8047 119.751Z" fill="url(#paint3_linear)"/>
        <path d="M124.683 41.8215C113.453 15.4215 95.3264 -2.12977 84.1968 2.6237C79.0152 4.83589 76.4974 31.9489 59.3105 48.3301C48.9108 58.2209 28.1478 62.5813 17.7755 69.2087C8.47958 75.1414 8.78975 83.4417 11.6269 90.1057C14.6647 97.2542 20.7494 104.403 32.3989 101.432C43.7839 98.5248 60.5785 85.5625 74.0343 84.9774C97.6617 83.8805 119.693 100.518 124.865 98.3237C135.995 93.4971 135.913 68.2306 124.683 41.8215Z" fill="#9595CB"/>
        <path d="M17.7753 69.1721C25.0733 64.51 37.5165 60.9449 47.8797 55.835C46.1738 58.1477 47.2685 65.5339 50.6712 73.5325C54.4844 82.5001 59.7938 88.8441 62.4302 87.6923C51.7933 91.8333 40.6638 99.256 32.3896 101.404C20.7583 104.375 14.6553 97.2175 11.6175 90.0782C8.78955 83.405 8.47938 75.1048 17.7753 69.1721Z" fill="#8D8DCD"/>
        <path d="M84.3831 59.0423C73.1482 32.6357 73.0614 7.37513 84.1892 2.6213C95.3169 -2.13253 113.445 15.4205 124.68 41.8271C135.915 68.2337 136.002 93.4942 124.874 98.2481C113.746 103.002 95.618 85.4489 84.3831 59.0423Z" fill="#B8B8E8"/>
        <path d="M109.457 48.3393C106.866 42.2513 102.579 38.2839 99.8691 39.4083C98.2179 40.1122 83.2113 39.4632 78.13 43.1745C79.4619 48.9244 78.1757 47.992 83.5397 59.3637C88.9038 70.7355 88.9403 70.7812 92.2244 76.2568C98.3274 75.3427 107.596 62.1518 109.247 61.4479C111.929 60.3327 112.02 54.4274 109.457 48.3393Z" fill="#9595CB"/>
        <path d="M99.6309 52.5277C97.0405 46.4393 97.1348 40.5662 99.8414 39.41C102.548 38.2537 106.842 42.252 109.432 48.3405C112.023 54.4289 111.929 60.302 109.222 61.4583C106.515 62.6145 102.221 58.6162 99.6309 52.5277Z" fill="white"/>
        <path d="M83.4575 0.914517C95.6178 -4.29601 114.93 13.7123 126.543 41.0356C138.156 68.3588 137.764 94.7862 125.631 99.9785C113.498 105.171 94.1856 87.1807 82.5543 59.8392C70.923 32.4976 71.3062 6.08848 83.4575 0.914517ZM84.3697 59.0621C95.5996 85.4713 113.726 103.023 124.856 98.2691C135.985 93.5156 135.912 68.2308 124.682 41.8217C113.452 15.4126 95.3259 -2.12953 84.1964 2.62393C73.0669 7.3774 73.149 32.6347 84.3788 59.0439L84.3697 59.0621Z" fill="#6588F0"/>
        <path d="M49.0872 105.175C51.0395 105.833 55.2267 106.364 55.2358 109.051C55.2358 112.488 48.3392 111.474 46.3687 110.432C46.3687 110.432 47.509 111.09 49.7532 114.691C52.2436 118.677 53.7671 126.639 57.3249 132.709C58.0578 134.066 59.1845 135.168 60.556 135.87C61.9275 136.572 63.4792 136.84 65.0061 136.64C64.0938 140.89 62.6981 142.883 61.0925 142.929C58.5838 143.011 50.6107 142.673 48.4304 141.457C45.4838 140.086 46.8796 137.709 46.7336 135.058C46.7336 132.371 45.6936 130.131 44.9821 127.681C43.3856 123.165 41.5976 118.476 40.7674 113.923C39.4447 107.241 42.6649 103.219 49.0872 105.175Z" fill="url(#paint4_linear)"/>
        <path d="M63.2239 141.434C60.5692 139.907 56.2177 140.365 52.7238 139.313C50.3519 138.609 46.2194 137.814 45.6356 138.289C44.2581 141.471 43.51 144.204 45.8454 145.42C48.0348 146.745 51.9484 145.785 54.4662 146.242C57.3763 146.599 59.6296 147.157 62.5397 145.996L63.2239 141.434Z" fill="white"/>
        <path d="M54.9133 183.658H28.5218C32.7455 170.997 39.6695 150.904 42.2056 143.701C44.1122 142.184 50.2426 143.829 54.667 144.442C57.9512 144.963 64.0177 144.935 64.9938 146.27C64.7475 150.923 63.0051 157.047 61.8921 160.594C58.8634 170.174 56.9933 177.131 54.9133 183.658Z" fill="#FDCDCA"/>
        <g style="mix-blend-mode:multiply" opacity="0.15">
            <g style="mix-blend-mode:multiply" opacity="0.15">
                <path d="M44.7782 178.429C55.2052 172.944 60.5419 157.998 62.111 145.255C63.4885 145.474 64.5559 145.794 64.9208 146.297C64.6745 150.95 62.9321 157.075 61.8191 160.621C58.8269 170.174 56.9568 177.131 54.8768 183.658H34.8072C38.219 182.058 41.5032 180.303 44.7782 178.429Z" fill="#211915"/>
            </g>
        </g>
    </g>
    <defs>
        <linearGradient id="paint0_linear" x1="-19807.2" y1="11819.5" x2="-20130.4" y2="11819.5" gradientUnits="userSpaceOnUse">
            <stop stop-color="#F2B3A5"/>
            <stop offset="0.32" stop-color="#F2B5A8"/>
            <stop offset="0.51" stop-color="#F4BCB0"/>
            <stop offset="0.67" stop-color="#F6C8BE"/>
            <stop offset="0.8" stop-color="#F9D9D2"/>
            <stop offset="0.93" stop-color="#FCEFEC"/>
            <stop offset="1" stop-color="white"/>
        </linearGradient>
        <linearGradient id="paint1_linear" x1="-25884.7" y1="15944.9" x2="-26306.8" y2="15944.9" gradientUnits="userSpaceOnUse">
            <stop stop-color="#F2B3A5"/>
            <stop offset="0.32" stop-color="#F2B5A8"/>
            <stop offset="0.51" stop-color="#F4BCB0"/>
            <stop offset="0.67" stop-color="#F6C8BE"/>
            <stop offset="0.8" stop-color="#F9D9D2"/>
            <stop offset="0.93" stop-color="#FCEFEC"/>
            <stop offset="1" stop-color="white"/>
        </linearGradient>
        <linearGradient id="paint2_linear" x1="-25199.4" y1="14205.1" x2="-25610.5" y2="14205.1" gradientUnits="userSpaceOnUse">
            <stop stop-color="#F2B3A5"/>
            <stop offset="0.32" stop-color="#F2B5A8"/>
            <stop offset="0.51" stop-color="#F4BCB0"/>
            <stop offset="0.67" stop-color="#F6C8BE"/>
            <stop offset="0.8" stop-color="#F9D9D2"/>
            <stop offset="0.93" stop-color="#FCEFEC"/>
            <stop offset="1" stop-color="white"/>
        </linearGradient>
        <linearGradient id="paint3_linear" x1="-18295.2" y1="10099.1" x2="-18594" y2="10099.1" gradientUnits="userSpaceOnUse">
            <stop stop-color="#F2B3A5"/>
            <stop offset="0.32" stop-color="#F2B5A8"/>
            <stop offset="0.51" stop-color="#F4BCB0"/>
            <stop offset="0.67" stop-color="#F6C8BE"/>
            <stop offset="0.8" stop-color="#F9D9D2"/>
            <stop offset="0.93" stop-color="#FCEFEC"/>
            <stop offset="1" stop-color="white"/>
        </linearGradient>
        <linearGradient id="paint4_linear" x1="-37865.3" y1="43257.2" x2="-38482.3" y2="43257.2" gradientUnits="userSpaceOnUse">
            <stop stop-color="#F2B3A5"/>
            <stop offset="0.32" stop-color="#F2B5A8"/>
            <stop offset="0.51" stop-color="#F4BCB0"/>
            <stop offset="0.67" stop-color="#F6C8BE"/>
            <stop offset="0.8" stop-color="#F9D9D2"/>
            <stop offset="0.93" stop-color="#FCEFEC"/>
            <stop offset="1" stop-color="white"/>
        </linearGradient>
        <clipPath id="clip0">
            <rect width="134.074" height="198" fill="white" transform="matrix(-1 0 0 1 135 0)"/>
        </clipPath>
    </defs>
</svg>
