<svg width="185" height="188" viewBox="0 0 185 188" fill="none" xmlns="http://www.w3.org/2000/svg">
    <path d="M183.723 87.0047L107.921 18.5971C107.212 17.8152 106.447 17.0865 105.631 16.4167L104.943 15.7621C103.835 14.7078 102.636 13.7426 101.359 12.9021C94.5442 8.41941 93.6768 8.41992 92.3135 8.41992C90.9407 8.41992 89.1835 8.75122 82.9288 13.0699C81.8742 13.7981 80.8831 14.6212 79.9546 15.5047L78.9963 16.4167C78.183 17.0867 77.4202 17.8155 76.714 18.5971L0.912233 87.0047C0.581995 87.3349 0.389736 87.6216 0.277817 87.8425C0.125563 88.1429 0.0786691 88.4875 0.0467003 88.8228C0.0236458 89.0646 0.00454831 89.4018 0.00579509 89.8509V175.081C0.00579509 178.411 1.33208 181.605 3.69288 183.959C6.05368 186.314 9.25562 187.636 12.5943 187.636H172.041C175.379 187.636 178.581 186.314 180.942 183.959C183.303 181.605 184.629 178.411 184.629 175.081V89.8509C184.632 88.7497 184.629 88.6308 184.629 88.6308C184.629 88.6308 184.629 87.5497 183.723 87.0047Z" fill="#F59E35"/>
    <path d="M171.497 162.221V66.0697L125.43 20.0842H24.9288C23.2756 20.0842 21.6386 20.4099 20.1117 21.0427C18.5848 21.6755 17.198 22.6028 16.0308 23.7716C14.8637 24.9404 13.9391 26.3277 13.31 27.8539C12.681 29.3801 12.3599 31.0153 12.3652 32.6656V162.221H171.497Z" fill="white"/>
    <path d="M171.497 187.713H11.0103C7.68219 187.713 4.49037 187.93 2.13703 185.568C-0.216317 183.206 0.00558624 180.002 0.00558624 176.662V91.1526L171.497 187.713Z" fill="#F59E35"/>
    <path d="M12.3651 187.713H173.568C176.911 187.713 180.117 187.158 182.481 184.796C184.845 182.434 184.629 180.002 184.629 176.662V91.1526L12.3651 187.713Z" fill="#F6BC73"/>
    <path d="M125.92 20.0842V53.7926C125.922 57.1444 127.233 60.3584 129.563 62.7285C131.894 65.0986 135.054 66.4311 138.35 66.4332H171.497L125.92 20.0842Z" fill="#B8B8E8"/>
    <path d="M144.46 74.9312H41.7196V82.656H144.46V74.9312Z" fill="#FF8888"/>
    <path d="M107.381 91.1526H41.7196V99.6499H107.381V91.1526Z" fill="#FF8888"/>
    <path d="M81.1162 57.9363H41.7196V66.4336H81.1162V57.9363Z" fill="#FF8888"/>
    <path d="M31.0926 31.2273V35.5342L26.4371 31.2273H8.26523C7.99253 31.2283 7.72229 31.1735 7.47005 31.066C7.2178 30.9584 6.98851 30.8003 6.79531 30.6006C6.60211 30.4009 6.44882 30.1636 6.34423 29.9023C6.23963 29.641 6.18579 29.3608 6.18579 29.0778V2.14945C6.18579 1.86651 6.23963 1.58634 6.34423 1.32504C6.44882 1.06373 6.60211 0.826418 6.79531 0.626718C6.98851 0.427019 7.2178 0.268859 7.47005 0.161314C7.72229 0.0537693 7.99253 -0.00104465 8.26523 1.50772e-05H37.3231C37.8733 1.11035e-05 38.401 0.226214 38.7908 0.629083C39.1805 1.03195 39.4005 1.57865 39.4026 2.14945V29.0698C39.4005 29.6406 39.1805 30.1873 38.7908 30.5902C38.401 30.993 37.8733 31.2192 37.3231 31.2192H34.2195" fill="#B8B8E8"/>
</svg>
