<svg width="277" height="198" viewBox="0 0 277 198" fill="none" xmlns="http://www.w3.org/2000/svg">
    <path d="M226.041 0H14.2291C6.37059 0 0 6.37631 0 14.2419V142.601C0 150.466 6.37059 156.843 14.2291 156.843H226.041C233.899 156.843 240.27 150.466 240.27 142.601V14.2419C240.27 6.37631 233.899 0 226.041 0Z" fill="#9399B8"/>
    <path d="M141.696 156.176H98.408V183.525H141.696V156.176Z" fill="#9399B8"/>
    <path d="M159.037 182.983H81.187C77.7983 182.983 74.5485 184.565 72.1524 187.382C69.7563 190.198 68.4102 194.017 68.4102 198H171.86C171.86 196.023 171.528 194.066 170.883 192.241C170.238 190.415 169.292 188.757 168.101 187.362C166.91 185.967 165.496 184.862 163.94 184.111C162.385 183.359 160.718 182.976 159.037 182.983Z" fill="#9399B8"/>
    <path d="M223.033 9.34589H17.0943C12.2004 9.34589 8.23303 13.3135 8.23303 18.2077V139.08C8.23303 143.974 12.2004 147.942 17.0943 147.942H223.033C227.927 147.942 231.894 143.974 231.894 139.08V18.2077C231.894 13.3135 227.927 9.34589 223.033 9.34589Z" fill="#F1F1FB"/>
    <path d="M216.126 17.398H24.0005C22.1597 17.398 20.3942 18.1293 19.0925 19.4311C17.7908 20.7328 17.0596 22.4984 17.0596 24.3394V36.0124H222.975V24.3394C222.975 22.5143 222.256 20.7626 220.975 19.4635C219.693 18.1644 217.951 17.4223 216.126 17.398Z" fill="#F6BC73"/>
    <path d="M181.746 30.3091C183.726 30.3091 185.332 28.7034 185.332 26.7227C185.332 24.742 183.726 23.1363 181.746 23.1363C179.765 23.1363 178.159 24.742 178.159 26.7227C178.159 28.7034 179.765 30.3091 181.746 30.3091Z" fill="#F7941D"/>
    <path d="M146.219 68.232H28.5933V127.916H146.219V68.232Z" fill="#FDCDCA"/>
    <path d="M35.6268 58.8729C39.5113 58.8729 42.6603 55.7237 42.6603 51.839C42.6603 47.9543 39.5113 44.8051 35.6268 44.8051C31.7423 44.8051 28.5933 47.9543 28.5933 51.839C28.5933 55.7237 31.7423 58.8729 35.6268 58.8729Z" fill="#F6BC73"/>
    <path d="M97.9231 45.3949H52.5034C51.3988 45.3949 50.5034 46.2903 50.5034 47.3949V48.196C50.5034 49.3006 51.3988 50.196 52.5034 50.196H97.9231C99.0277 50.196 99.9231 49.3006 99.9231 48.196V47.3949C99.9231 46.2903 99.0277 45.3949 97.9231 45.3949Z" fill="#9595CB"/>
    <path d="M131.215 56.2002H51.5446C50.9696 56.2002 50.5034 56.6664 50.5034 57.2414C50.5034 57.8165 50.9696 58.2826 51.5446 58.2826H131.215C131.79 58.2826 132.256 57.8165 132.256 57.2414C132.256 56.6664 131.79 56.2002 131.215 56.2002Z" fill="#F6BC73"/>
    <path d="M210.868 30.5325C212.848 30.5325 214.454 28.9268 214.454 26.9461C214.454 24.9654 212.848 23.3597 210.868 23.3597C208.887 23.3597 207.281 24.9654 207.281 26.9461C207.281 28.9268 208.887 30.5325 210.868 30.5325Z" fill="#5FC8D7"/>
    <path d="M196.581 30.5325C198.561 30.5325 200.167 28.9268 200.167 26.9461C200.167 24.9654 198.561 23.3597 196.581 23.3597C194.6 23.3597 192.995 24.9654 192.995 26.9461C192.995 28.9268 194.6 30.5325 196.581 30.5325Z" fill="#EF4065"/>
    <path d="M268.614 55.8435L216.716 24.8794L169.045 104.788L220.944 135.752L268.614 55.8435Z" fill="#F2F2F2"/>
    <path d="M239.958 57.7354L214.655 42.6386L213.588 44.427L238.891 59.5237L239.958 57.7354Z" fill="#F6BC73"/>
    <path d="M250.745 71.2916L211.513 47.8849L197.934 70.6464L237.166 94.0532L250.745 71.2916Z" fill="#9399B8"/>
    <path d="M219.867 91.3968L194.563 76.3L193.496 78.0883L218.8 93.1851L219.867 91.3968Z" fill="#F6BC73"/>
    <path d="M230.499 104.73L191.267 81.323L177.688 104.085L216.92 127.491L230.499 104.73Z" fill="#9399B8"/>
    <path d="M256.967 55.9031L222.089 35.079C221.802 34.9081 221.485 34.7952 221.155 34.7469C220.825 34.6986 220.489 34.7158 220.165 34.7974C219.842 34.8791 219.538 35.0236 219.271 35.2228C219.003 35.4219 218.777 35.6719 218.607 35.9582C218.436 36.2446 218.323 36.5619 218.274 36.8918C218.226 37.2218 218.243 37.5581 218.325 37.8815C218.407 38.2048 218.551 38.5089 218.75 38.7764C218.949 39.0439 219.199 39.2696 219.486 39.4405L254.364 60.2646C254.942 60.6098 255.634 60.7111 256.287 60.5462C256.94 60.3813 257.501 59.9637 257.846 59.3854C258.191 58.807 258.293 58.1152 258.128 57.4621C257.963 56.8091 257.545 56.2483 256.967 55.9031Z" fill="#9595CB"/>
    <path d="M271.406 61.7811C268.587 67.0654 262.017 69.064 256.732 66.2443C251.448 63.4248 249.449 56.8545 252.269 51.5702C255.088 46.2854 261.658 44.2875 266.943 47.107C272.228 49.9267 274.226 56.4963 271.406 61.7811Z" fill="#F25C5C"/>
    <path d="M259.056 61.8111C258.632 61.5849 258.487 61.0284 258.732 60.5688L262.374 53.7429L262.225 53.6633C261.801 53.4371 261.656 52.881 261.901 52.421C262.146 51.9614 262.689 51.7721 263.113 51.9984L264.031 52.4878C264.455 52.7141 264.6 53.2701 264.355 53.7301L260.269 61.3881C260.023 61.8481 259.481 62.0376 259.056 61.8111Z" fill="#E4EAF8"/>
</svg>
