<svg width="840" height="601" viewBox="0 0 840 601" fill="none" xmlns="http://www.w3.org/2000/svg">
    <path fill-rule="evenodd" clip-rule="evenodd" d="M42.8401 0.000130209L42.8401 191.479L42.8397 359.461C42.8397 359.461 -52.746 497.216 41.6418 534.942C143.121 575.503 125.827 604.079 274.674 588.936C443.772 571.733 651.677 619 764.735 593.019C774.874 590.689 784.634 586.566 791.965 579.184C808.89 562.142 822.482 534.942 822.482 534.942C861.186 488.443 823.679 269.971 823.68 268.471L826.12 0L42.8401 0.000130209Z" fill="#F1F1FB"/>
    <path opacity="0.81" d="M537.584 418.9C536.729 418.027 535.845 417.187 534.931 416.381L539.057 400.461C535.078 397.686 530.804 395.36 526.313 393.525L515.18 405.623C514.007 405.292 512.822 405.005 511.623 404.76L507.232 388.906C502.4 388.487 497.536 388.611 492.732 389.275L489.136 405.333C488.399 405.521 487.665 405.725 486.93 405.952C486.495 406.084 486.063 406.222 485.635 406.364L473.903 394.829C469.508 396.877 465.356 399.411 461.525 402.384L466.438 418.085C465.565 418.94 464.725 419.824 463.919 420.738L447.999 416.612C445.224 420.592 442.898 424.866 441.063 429.357L453.16 440.489C452.829 441.661 452.542 442.847 452.297 444.046L436.443 448.437C436.021 453.269 436.143 458.134 436.805 462.939L452.862 466.536C453.051 467.271 453.254 468.007 453.481 468.741C453.614 469.176 453.752 469.608 453.894 470.037L442.359 481.767C444.407 486.162 446.941 490.314 449.913 494.145L465.619 489.243C466.474 490.116 467.358 490.956 468.272 491.762L464.146 507.682C468.126 510.457 472.401 512.783 476.893 514.618L488.025 502.521C489.197 502.851 490.383 503.139 491.582 503.384L495.973 519.238C500.805 519.657 505.668 519.533 510.473 518.869L514.066 502.805C514.802 502.616 515.538 502.413 516.271 502.186C516.706 502.053 517.138 501.916 517.567 501.773L529.297 513.309C533.692 511.261 537.844 508.727 541.675 505.754L536.762 490.052C537.635 489.198 538.475 488.313 539.281 487.399L555.201 491.525C557.976 487.546 560.302 483.272 562.137 478.781L550.041 467.649C550.371 466.476 550.658 465.291 550.903 464.092L566.758 459.701C567.176 454.869 567.052 450.005 566.387 445.201L550.33 441.605C550.141 440.87 549.938 440.134 549.711 439.4C549.578 438.964 549.44 438.532 549.298 438.103L560.833 426.373C558.784 421.977 556.25 417.825 553.278 413.994L537.584 418.9ZM522.871 447.583C526.453 459.33 519.834 471.756 508.087 475.338C496.34 478.919 483.914 472.302 480.335 460.555C476.756 448.808 483.372 436.381 495.119 432.8C506.866 429.219 519.29 435.837 522.872 447.584L522.871 447.583Z" fill="#9CB7E8"/>
    <g opacity="0.74">
        <g opacity="0.31">
            <path opacity="0.31" d="M479.687 453.326C479.551 449.658 478.697 446.051 477.172 442.712C475.642 439.334 473.477 436.282 470.795 433.721C465.139 428.327 457.595 425.365 449.78 425.469C446.073 425.522 442.41 426.287 438.992 427.722C435.602 429.132 432.523 431.195 429.928 433.791C427.26 436.467 425.172 439.662 423.791 443.178C422.411 446.695 421.768 450.458 421.903 454.233C422.039 457.901 422.894 461.508 424.418 464.847C425.948 468.225 428.112 471.277 430.793 473.838C436.449 479.232 443.993 482.194 451.808 482.09C455.516 482.037 459.179 481.272 462.598 479.837C465.987 478.427 469.067 476.364 471.662 473.768C474.329 471.093 476.418 467.897 477.799 464.381C479.179 460.864 479.822 457.102 479.687 453.326ZM440.902 478.977C437.434 477.625 434.265 475.604 431.576 473.03C428.999 470.568 426.919 467.635 425.448 464.388C423.985 461.182 423.164 457.72 423.034 454.198C422.905 450.577 423.521 446.967 424.845 443.594C426.169 440.221 428.173 437.157 430.731 434.591C433.223 432.098 436.179 430.118 439.433 428.763C442.719 427.384 446.24 426.649 449.803 426.596C457.317 426.496 464.572 429.344 470.011 434.529C472.588 436.99 474.668 439.923 476.139 443.169C477.602 446.375 478.423 449.838 478.553 453.36C478.683 456.981 478.066 460.591 476.742 463.964C475.418 467.337 473.415 470.401 470.856 472.967C468.364 475.46 465.407 477.439 462.153 478.793C458.867 480.173 455.347 480.908 451.783 480.959C448.061 481.017 444.364 480.344 440.902 478.977V478.977Z" fill="white"/>
        </g>
    </g>
    <g opacity="0.74">
        <path opacity="0.31" d="M490.856 470.882C490.84 470.876 490.826 470.866 490.813 470.855C490.801 470.843 490.791 470.829 490.784 470.813C490.778 470.797 490.774 470.78 490.774 470.763C490.773 470.746 490.776 470.729 490.783 470.714C494.94 460.123 494.724 448.547 490.175 438.118C485.626 427.688 477.288 419.653 466.698 415.499C456.107 411.346 444.532 411.558 434.102 416.107C423.672 420.656 415.638 428.994 411.484 439.584C411.471 439.616 411.446 439.642 411.415 439.656C411.383 439.67 411.348 439.67 411.316 439.658C411.284 439.645 411.258 439.62 411.244 439.589C411.23 439.557 411.23 439.522 411.242 439.49C415.425 428.835 423.506 420.446 433.998 415.868C444.489 411.29 456.135 411.074 466.791 415.256C477.446 419.438 485.835 427.52 490.412 438.011C494.99 448.503 495.206 460.149 491.024 470.804C491.018 470.821 491.009 470.836 490.998 470.848C490.986 470.861 490.972 470.871 490.956 470.879C490.941 470.886 490.924 470.89 490.907 470.89C490.889 470.891 490.872 470.888 490.856 470.882V470.882Z" fill="white"/>
    </g>
    <path opacity="0.79" d="M431.974 455.76C431.467 455.243 430.942 454.745 430.401 454.267L432.845 444.829C430.486 443.185 427.953 441.806 425.29 440.718L418.689 447.888C417.993 447.693 417.291 447.521 416.58 447.372L413.98 437.976C411.115 437.728 408.232 437.801 405.384 438.195L403.252 447.714C402.816 447.826 402.379 447.946 401.944 448.079C401.686 448.157 401.43 448.239 401.176 448.324L394.222 441.486C391.614 442.702 389.151 444.206 386.879 445.97L389.792 455.278C389.274 455.785 388.776 456.309 388.298 456.85L378.861 454.406C377.216 456.765 375.837 459.299 374.749 461.961L381.919 468.563C381.724 469.258 381.552 469.961 381.403 470.671L372.005 473.274C371.759 476.138 371.835 479.02 372.231 481.867L381.75 483.999C381.862 484.436 381.982 484.872 382.115 485.307C382.194 485.565 382.275 485.821 382.361 486.076L375.523 493.029C376.737 495.636 378.239 498.098 380.002 500.37L389.309 497.457C389.816 497.974 390.34 498.472 390.881 498.95L388.437 508.388C390.796 510.032 393.33 511.411 395.992 512.499L402.594 505.329C403.289 505.524 403.992 505.696 404.702 505.845L407.303 515.237C410.167 515.485 413.05 515.412 415.898 515.018L418.031 505.498C418.467 505.386 418.903 505.266 419.339 505.133C419.596 505.055 419.853 504.973 420.107 504.888L427.063 511.73C429.669 510.516 432.131 509.013 434.403 507.251L431.49 497.943C432.008 497.437 432.506 496.913 432.984 496.371L442.421 498.815C444.066 496.456 445.445 493.922 446.533 491.26L439.362 484.658C439.558 483.963 439.73 483.26 439.878 482.55L449.276 479.948C449.524 477.083 449.451 474.2 449.057 471.352L439.538 469.22C439.425 468.783 439.306 468.347 439.173 467.913C439.094 467.655 439.012 467.399 438.927 467.144L445.765 460.191C444.551 457.584 443.049 455.122 441.286 452.851L431.974 455.76ZM420.816 473.507C421.429 475.518 421.432 477.667 420.825 479.68C420.217 481.694 419.026 483.482 417.402 484.819C415.778 486.155 413.794 486.98 411.702 487.189C409.609 487.399 407.501 486.982 405.645 485.994C403.789 485.005 402.267 483.488 401.273 481.635C400.279 479.781 399.857 477.675 400.06 475.581C400.263 473.488 401.082 471.502 402.414 469.874C403.746 468.246 405.53 467.05 407.542 466.437C408.878 466.029 410.281 465.889 411.671 466.024C413.061 466.159 414.411 466.566 415.643 467.223C416.876 467.879 417.967 468.772 418.854 469.85C419.742 470.928 420.408 472.171 420.816 473.507V473.507Z" fill="#9CB7E8"/>
    <g opacity="0.74">
        <g opacity="0.31">
            <path opacity="0.31" d="M376.976 476.168C376.895 473.994 376.389 471.856 375.485 469.876C374.579 467.874 373.295 466.064 371.706 464.546C368.353 461.349 363.881 459.594 359.248 459.656C357.051 459.687 354.879 460.141 352.853 460.992C350.844 461.828 349.019 463.05 347.481 464.59C345.9 466.175 344.662 468.069 343.843 470.154C343.025 472.238 342.644 474.469 342.724 476.707C342.805 478.881 343.311 481.019 344.215 482.999C345.122 485.001 346.405 486.811 347.994 488.329C351.347 491.526 355.82 493.281 360.452 493.219C362.65 493.188 364.821 492.735 366.847 491.885C368.857 491.048 370.682 489.826 372.221 488.287C373.802 486.701 375.04 484.807 375.858 482.722C376.676 480.638 377.057 478.407 376.977 476.169L376.976 476.168ZM353.986 491.374C351.93 490.572 350.052 489.374 348.457 487.848C346.93 486.389 345.696 484.65 344.824 482.726C343.957 480.825 343.471 478.773 343.394 476.685C343.317 474.538 343.682 472.399 344.467 470.399C345.252 468.4 346.44 466.583 347.956 465.062C349.433 463.584 351.185 462.411 353.114 461.607C355.062 460.791 357.148 460.355 359.261 460.324C363.715 460.265 368.015 461.953 371.24 465.027C372.767 466.486 374 468.225 374.872 470.148C375.74 472.049 376.226 474.102 376.303 476.19C376.38 478.337 376.015 480.476 375.23 482.476C374.445 484.475 373.257 486.292 371.741 487.813C370.264 489.291 368.512 490.464 366.583 491.267C364.635 492.084 362.549 492.52 360.437 492.551C358.23 492.585 356.039 492.185 353.986 491.374Z" fill="white"/>
        </g>
    </g>
    <g opacity="0.74">
        <path opacity="0.31" d="M383.595 486.574C383.585 486.571 383.576 486.565 383.568 486.558C383.561 486.551 383.555 486.542 383.551 486.532C383.547 486.522 383.545 486.512 383.545 486.502C383.545 486.491 383.547 486.481 383.551 486.471C385.998 480.238 385.869 473.287 383.191 467.149C380.513 461.011 375.507 456.188 369.274 453.742C363.04 451.295 356.09 451.424 349.952 454.102C343.814 456.78 338.991 461.786 336.544 468.019C336.537 468.038 336.522 468.053 336.504 468.061C336.485 468.07 336.464 468.07 336.445 468.063C336.426 468.055 336.411 468.041 336.403 468.022C336.395 468.004 336.394 467.982 336.402 467.964C338.864 461.692 343.717 456.656 349.892 453.962C356.068 451.269 363.06 451.139 369.332 453.601C375.603 456.063 380.64 460.916 383.333 467.091C386.027 473.267 386.157 480.259 383.695 486.531C383.691 486.54 383.686 486.549 383.679 486.556C383.672 486.564 383.663 486.57 383.654 486.574C383.645 486.578 383.635 486.58 383.624 486.58C383.614 486.58 383.604 486.578 383.595 486.574V486.574Z" fill="white"/>
    </g>
    <path d="M478.332 404.296L419.946 419.603L440.04 496.25L498.425 480.943L478.332 404.296Z" fill="url(#paint0_linear)"/>
    <path d="M381.77 427.8L379.926 443.515L383.946 440.713L387.207 444.37L389.052 428.654L381.77 427.8Z" fill="#273271"/>
    <path d="M386.421 426.462L395.738 439.252L390.861 438.783L389.813 443.569L380.495 430.78L386.421 426.462Z" fill="#273271"/>
    <path d="M386.231 436.207C390.46 435.098 392.99 430.771 391.881 426.542C390.773 422.313 386.446 419.784 382.217 420.893C377.988 422.001 375.458 426.328 376.567 430.557C377.676 434.786 382.003 437.315 386.231 436.207Z" fill="#F2BA49"/>
    <path d="M385.946 435.099C389.58 434.146 391.753 430.428 390.801 426.794C389.848 423.161 386.13 420.987 382.496 421.94C378.863 422.892 376.689 426.61 377.642 430.244C378.594 433.878 382.312 436.051 385.946 435.099Z" fill="#FFD34D"/>
    <path d="M436.472 434.131C435.363 434.422 434.191 434.377 433.107 434.002C432.022 433.627 431.073 432.94 430.38 432.026C429.686 431.112 429.279 430.013 429.21 428.867C429.141 427.722 429.413 426.582 429.991 425.591C430.57 424.601 431.429 423.804 432.461 423.301C433.493 422.799 434.65 422.614 435.787 422.769C436.923 422.924 437.989 423.413 438.848 424.174C439.707 424.934 440.321 425.932 440.613 427.042C441.003 428.531 440.786 430.114 440.01 431.443C439.233 432.772 437.961 433.739 436.472 434.131V434.131ZM433.644 423.341C432.62 423.61 431.698 424.176 430.996 424.968C430.294 425.761 429.843 426.743 429.699 427.792C429.555 428.841 429.726 429.909 430.189 430.861C430.653 431.813 431.388 432.606 432.303 433.14C433.217 433.674 434.269 433.925 435.326 433.861C436.382 433.797 437.397 433.421 438.24 432.781C439.083 432.14 439.717 431.264 440.062 430.263C440.407 429.262 440.448 428.182 440.179 427.158C439.817 425.786 438.925 424.614 437.7 423.898C436.475 423.183 435.017 422.982 433.644 423.341V423.341Z" fill="#FF8888"/>
    <path d="M386.715 426.083L380.854 427.619L380.969 428.054L386.829 426.518L386.715 426.083Z" fill="#F2BA49"/>
    <path d="M387.094 427.533L381.234 429.07L381.348 429.505L387.209 427.968L387.094 427.533Z" fill="#F2BA49"/>
    <path d="M387.476 428.984L381.616 430.521L381.73 430.956L387.59 429.419L387.476 428.984Z" fill="#F2BA49"/>
    <path d="M421.55 416.31L398.939 422.237L399.001 422.471L421.611 416.544L421.55 416.31Z" fill="#9DA7B2"/>
    <path d="M422.385 420.071L399.712 425.914L399.772 426.148L422.445 420.305L422.385 420.071Z" fill="#9DA7B2"/>
    <path d="M529.12 424.439L469.831 401.573L439.813 479.406L499.103 502.272L529.12 424.439Z" fill="url(#paint1_linear)"/>
    <path d="M424.78 416.326L413.531 428.614L418.69 428.695L419.225 433.825L430.473 421.537L424.78 416.326Z" fill="#005EB3"/>
    <path d="M429.575 418.046L429.663 434.704L425.785 431.301L421.944 434.744L421.857 418.086L429.575 418.046Z" fill="#0072D9"/>
    <path d="M483.902 421.036C485.325 417.346 483.487 413.201 479.797 411.778C476.108 410.355 471.963 412.193 470.54 415.883C469.117 419.572 470.954 423.717 474.644 425.14C478.334 426.563 482.479 424.726 483.902 421.036Z" fill="#FCE1C0"/>
    <path d="M424.236 424.148C423.109 423.713 422.136 422.953 421.441 421.965C420.745 420.977 420.358 419.806 420.329 418.598C420.299 417.39 420.629 416.201 421.275 415.18C421.922 414.16 422.856 413.354 423.961 412.864C425.065 412.375 426.29 412.224 427.48 412.43C428.671 412.637 429.773 413.192 430.648 414.025C431.523 414.858 432.131 415.931 432.396 417.11C432.661 418.289 432.57 419.519 432.135 420.647C431.551 422.158 430.391 423.375 428.91 424.031C427.429 424.688 425.748 424.729 424.236 424.148ZM428.465 413.191C427.425 412.79 426.29 412.706 425.202 412.951C424.115 413.195 423.124 413.756 422.356 414.564C421.588 415.371 421.076 416.388 420.885 417.486C420.695 418.584 420.835 419.714 421.287 420.733C421.738 421.752 422.482 422.614 423.424 423.21C424.366 423.806 425.463 424.11 426.577 424.082C427.692 424.055 428.773 423.697 429.684 423.055C430.595 422.413 431.295 421.515 431.696 420.475C432.231 419.08 432.191 417.53 431.585 416.164C430.978 414.798 429.854 413.729 428.46 413.191H428.465Z" fill="#F2BA49"/>
    <path d="M424.12 415.618L423.949 416.06L429.9 418.355L430.07 417.913L424.12 415.618Z" fill="#F2BA49"/>
    <path d="M423.55 417.091L423.38 417.533L429.331 419.828L429.501 419.386L423.55 417.091Z" fill="#F2BA49"/>
    <path d="M422.984 418.564L422.813 419.006L428.764 421.301L428.935 420.859L422.984 418.564Z" fill="#F2BA49"/>
    <path d="M409.249 495.226C409.249 495.226 419.382 510.448 409.249 521.014H533.144C533.144 521.014 545.831 518.206 545.831 508.12C545.831 498.033 541.727 491.285 523.447 491.9C505.168 492.515 409.249 495.226 409.249 495.226Z" fill="#A0A0A0"/>
    <path d="M409.249 528.406H529.215C540.502 528.406 549.682 519.306 549.682 508.119C549.682 496.933 540.502 487.833 529.215 487.833H409.249V495.225H529.215C536.388 495.225 542.222 501.011 542.222 508.119C542.222 515.228 536.388 521.013 529.215 521.013H409.249V528.406Z" fill="#9595CB"/>
    <path d="M412.705 488.031H532.09C533.62 488.031 534.861 486.79 534.861 485.259V457.007C534.861 455.476 533.62 454.235 532.09 454.235H412.705C411.174 454.235 409.933 455.476 409.933 457.007V485.259C409.933 486.79 411.174 488.031 412.705 488.031Z" fill="#273271"/>
    <g opacity="0.67">
        <path opacity="0.67" d="M422.751 461.765H521.892V480.79H422.751V461.765ZM520.848 462.993H423.797V479.563H520.845L520.848 462.993Z" fill="#FFE0AE"/>
    </g>
    <g opacity="0.67">
        <path opacity="0.67" d="M511.084 470.664H434.959V471.892H511.084V470.664Z" fill="#FFE0AE"/>
    </g>
    <path d="M515.236 534.191L520.913 526.417L526.589 534.191V515.498H515.236V534.191Z" fill="#7D7DC5"/>
    <path d="M421.833 438.828C421.833 438.828 427.99 445.999 421.833 450.977H497.115C497.115 450.977 504.822 449.655 504.822 444.903C504.822 440.151 502.328 436.973 491.222 437.262C480.117 437.552 421.833 438.828 421.833 438.828Z" fill="#141939"/>
    <path d="M421.833 454.46H494.726C501.585 454.46 507.163 450.173 507.163 444.903C507.163 439.633 501.585 435.346 494.726 435.346H421.833V438.828H494.726C499.086 438.828 502.63 441.554 502.63 444.903C502.63 448.252 499.084 450.978 494.726 450.978H421.833V454.46Z" fill="#E8443C"/>
    <path d="M339.873 519.485L340.275 529.895L339.784 534.965C339.746 535.171 339.753 535.383 339.804 535.586C339.856 535.789 339.95 535.978 340.082 536.141C340.213 536.304 340.378 536.437 340.566 536.531C340.753 536.624 340.959 536.676 341.168 536.682C345.43 536.813 356.343 537.101 356.635 536.628C358.007 534.408 352.183 532.151 347.268 529.986C344.456 528.748 347.716 512.813 347.716 512.813L339.873 519.485Z" fill="#72778C"/>
    <path d="M337.775 479.082C337.216 483.065 336.825 508.893 337.721 521.858H347.662C349.533 507.948 350.387 484.601 350.932 480.707C350.939 480.657 350.942 480.604 350.948 480.558C354.007 467.029 351.111 441.177 350.556 435.79C350.304 433.354 344.728 430.711 339.106 430.839C333.484 430.967 330.717 428.578 330.881 435.813C330.983 440.349 338.039 477.196 337.775 479.082Z" fill="#660E0E"/>
    <path d="M317.327 519.485L317.058 529.895L316.979 534.965C316.941 535.17 316.948 535.381 316.999 535.584C317.05 535.787 317.145 535.976 317.275 536.139C317.406 536.302 317.571 536.435 317.758 536.529C317.945 536.622 318.149 536.675 318.358 536.682C322.621 536.813 333.533 537.101 333.825 536.627C335.197 534.408 327.538 532.459 324.457 530.244C320.507 527.404 326.358 512.812 326.358 512.812L317.327 519.485Z" fill="#72778C"/>
    <path d="M322.235 479.082C321.677 483.065 316.63 506.862 316.515 521.549L325.308 522.168C328.054 509.591 333.934 484.601 334.483 480.707C334.49 480.657 334.492 480.604 334.499 480.558C337.558 467.029 340.291 440.515 340.173 435.18C340.009 427.944 334.102 422.35 328.481 422.478C322.861 422.605 320.374 428.818 320.539 436.054C320.639 440.597 322.5 477.196 322.235 479.082Z" fill="#660E0E"/>
    <path d="M335.844 537.762V536.305C335.844 536.209 335.638 536.13 335.39 536.13L315.962 535.875C315.712 535.875 315.505 535.952 315.505 536.049V537.761C315.505 537.856 315.711 537.935 315.962 537.935H335.39C335.639 537.93 335.844 537.857 335.844 537.762Z" fill="#161616"/>
    <path d="M327.409 536.188H335.694C335.694 536.188 337.321 534.248 334.909 533.671C334.909 533.671 327.253 532.831 323.793 528.322C323.793 528.322 322.165 526.488 323.529 530.892C323.529 530.892 323.735 534.09 320.125 532.464C320.125 532.464 318.887 532.04 317.766 529.318C317.766 529.318 317.216 528.213 316.374 528.448C316.041 528.557 315.64 528.947 315.614 530.209V535.933L323.743 536.061L327.409 536.188Z" fill="#385277"/>
    <path d="M358.87 537.166V535.708C358.87 535.613 358.663 535.534 358.416 535.534L338.989 535.278C338.739 535.278 338.532 535.356 338.532 535.453V537.165C338.532 537.26 338.739 537.338 338.989 537.338H358.416C358.664 537.339 358.87 537.261 358.87 537.166Z" fill="#161616"/>
    <path d="M350.434 535.592H358.719C358.719 535.592 360.346 533.652 357.934 533.075C357.934 533.075 350.278 532.234 346.819 527.725C346.819 527.725 345.191 525.891 346.554 530.296C346.554 530.296 346.761 533.494 343.15 531.868C343.15 531.868 341.913 531.444 340.791 528.722C340.791 528.722 340.242 527.617 339.4 527.851C339.067 527.961 338.665 528.351 338.64 529.613V535.337L346.768 535.465L350.434 535.592Z" fill="#385277"/>
    <path d="M328.414 383.409C328.414 383.409 331.683 379.359 335.399 390.48C340.057 404.416 348.087 415.536 348.087 415.536L375.571 419.516L372.491 428.67C372.491 428.67 338.935 429.03 335.686 422.584C332.437 416.138 313.57 389.772 328.414 383.409Z" fill="#9CB7E8"/>
    <g opacity="0.2">
        <path opacity="0.2" d="M382.358 422.194L380.005 422.92L384.161 423.074L382.358 422.194Z" fill="black"/>
    </g>
    <path d="M389.888 423.122L384.937 420.735C384.302 420.4 383.591 420.234 382.874 420.253L375.951 420.376L383.255 421.815L379.548 423.06L374.417 424.584C374.28 424.616 374.151 424.676 374.038 424.759C373.925 424.843 373.83 424.949 373.76 425.07C373.689 425.192 373.644 425.326 373.627 425.466C373.611 425.606 373.623 425.747 373.663 425.882C373.703 426.017 373.77 426.142 373.86 426.25C373.95 426.358 374.061 426.446 374.187 426.509C374.312 426.573 374.45 426.61 374.59 426.618C374.73 426.627 374.871 426.606 375.003 426.558L378.964 425.382L378.971 425.407L375.867 426.328C375.62 426.418 375.416 426.599 375.298 426.833C375.179 427.068 375.155 427.339 375.23 427.592C375.305 427.844 375.473 428.058 375.701 428.19C375.928 428.322 376.197 428.362 376.453 428.303L379.553 427.382L379.56 427.407L377.314 428.074C377.066 428.163 376.863 428.344 376.744 428.579C376.626 428.814 376.601 429.085 376.676 429.337C376.751 429.589 376.919 429.803 377.147 429.935C377.374 430.067 377.643 430.108 377.9 430.048L380.139 429.384V429.398L379.642 429.545C379.409 429.613 379.214 429.771 379.098 429.984C378.982 430.197 378.955 430.447 379.023 430.679L379.088 430.899C379.156 431.131 379.315 431.327 379.527 431.443C379.74 431.559 379.99 431.586 380.223 431.518L380.945 431.306L385.225 430.217C386.67 430.035 388.248 428.087 388.248 428.087L388.694 422.888L389.888 423.122Z" fill="#F2B3A5"/>
    <path opacity="0.9" d="M379.667 419.596C380.431 419.544 381.196 419.684 381.892 420.002C383.978 420.955 386.918 422.297 386.661 422.787C386.111 423.837 384.55 423.633 382.075 422.306L373.282 425.113L376.037 419.646L379.667 419.596Z" fill="#E8B69B"/>
    <path d="M376.625 418.734L372.945 418.001L368.816 429.252L372.54 429.264L376.625 418.734Z" fill="#9CB7E8"/>
    <path d="M385.233 429.541L385.026 428.64C384.909 428.148 385.287 427.635 385.872 427.495C386.457 427.355 387.026 427.64 387.145 428.132L387.351 429.034C387.469 429.526 387.09 430.039 386.505 430.179C385.923 430.319 385.35 430.033 385.233 429.541Z" fill="#E8B69B"/>
    <path d="M383.307 430.591L383.101 429.689C382.983 429.197 383.361 428.684 383.946 428.544C384.531 428.404 385.101 428.689 385.219 429.181L385.426 430.083C385.543 430.575 385.165 431.088 384.58 431.228C383.994 431.368 383.424 431.084 383.307 430.591Z" fill="#E8B69B"/>
    <path d="M381.211 431.22L381.146 430.873C381.116 430.749 381.111 430.621 381.131 430.496C381.151 430.37 381.196 430.25 381.262 430.141C381.329 430.033 381.416 429.939 381.519 429.864C381.621 429.79 381.738 429.736 381.862 429.706L382.098 429.65C382.222 429.62 382.35 429.615 382.475 429.635C382.601 429.655 382.721 429.699 382.83 429.766C382.938 429.832 383.032 429.92 383.107 430.022C383.181 430.125 383.235 430.242 383.265 430.366L383.305 430.609C383.364 430.858 383.322 431.121 383.188 431.339C383.053 431.558 382.838 431.714 382.589 431.774L382.247 431.855C382.026 431.908 381.792 431.871 381.598 431.752C381.403 431.633 381.264 431.441 381.211 431.22V431.22Z" fill="#E8B69B"/>
    <path d="M341.149 383.468C347.338 384.912 348.416 386.124 349.813 397.703C350.535 403.686 348.377 410.391 348.895 416.596C349.988 429.697 351.876 443.399 351.876 443.399C351.876 443.399 340.273 445.887 336.404 446.03C332.534 446.172 320.415 444.534 320.415 444.534C320.415 444.534 318.633 416.615 318.661 392.752C318.673 384.038 330.249 380.929 341.149 383.468Z" fill="#8BACE8"/>
    <path d="M340.792 366.905L331.509 369.38L330.725 381.405C330.99 384.686 339.245 387.402 339.245 387.402C341.21 387.544 340.23 383.343 340.058 380.408C339.86 377.035 340.792 366.905 340.792 366.905Z" fill="url(#paint2_linear)"/>
    <path d="M331.033 368.99C331.79 369.846 332.908 369.97 333.53 369.268C334.152 368.565 334.046 367.3 333.286 366.443C332.525 365.587 331.41 365.464 330.788 366.166C330.166 366.868 330.276 368.134 331.033 368.99Z" fill="#FFB780"/>
    <path d="M324.917 384.234C324.917 384.234 334.804 384.945 330.199 395.758C322.446 413.972 319.435 422.187 319.435 422.187L319.349 453.132L309.919 450.728C309.919 450.728 307.953 427.168 309.185 419.947C310.694 411.103 315.412 382.857 324.917 384.234Z" fill="#9CB7E8"/>
    <path d="M316.938 473.187C316.71 473.187 316.482 473.159 316.261 473.103L306.866 470.74C306.153 470.56 305.541 470.105 305.162 469.474C304.783 468.843 304.67 468.089 304.845 467.375L307.345 457.431C307.434 457.076 307.592 456.742 307.81 456.449C308.028 456.155 308.302 455.907 308.616 455.72C308.93 455.532 309.278 455.408 309.64 455.355C310.002 455.301 310.37 455.32 310.725 455.409L320.12 457.771C320.833 457.953 321.445 458.409 321.823 459.04C322.201 459.672 322.313 460.427 322.136 461.141L319.631 471.088C319.479 471.687 319.132 472.219 318.644 472.599C318.156 472.979 317.556 473.186 316.938 473.187ZM310.041 456.978C309.791 456.979 309.547 457.063 309.35 457.217C309.153 457.371 309.012 457.587 308.951 457.83L306.452 467.774C306.379 468.063 306.424 468.37 306.577 468.627C306.731 468.883 306.98 469.068 307.27 469.141L316.665 471.503C316.954 471.575 317.261 471.53 317.517 471.377C317.774 471.223 317.959 470.974 318.031 470.685L320.531 460.741C320.603 460.451 320.558 460.145 320.404 459.888C320.251 459.632 320.002 459.447 319.713 459.374L310.318 457.012C310.227 456.989 310.134 456.978 310.041 456.978V456.978Z" fill="#141939"/>
    <path d="M327.032 495.237L287.401 485.273C287.264 485.239 287.147 485.152 287.075 485.031C287.003 484.911 286.982 484.767 287.016 484.631L294.022 456.763C294.056 456.627 294.143 456.51 294.264 456.438C294.384 456.366 294.528 456.344 294.665 456.378L334.295 466.343C334.432 466.377 334.549 466.464 334.621 466.585C334.693 466.705 334.714 466.849 334.68 466.985L327.674 494.853C327.64 494.989 327.553 495.106 327.432 495.178C327.312 495.249 327.168 495.271 327.032 495.237Z" fill="#9499AF"/>
    <path d="M316.825 454.467L317.266 459.782C317.301 460.204 317.789 460.505 318.355 460.461C318.921 460.414 319.352 460.034 319.318 459.612L318.874 454.298C318.842 453.918 318.402 453.644 317.892 453.686L317.685 453.703C317.182 453.745 316.793 454.087 316.825 454.467Z" fill="#FFB780"/>
    <path d="M314.693 453.98L315.186 459.924C315.225 460.395 315.716 460.74 316.282 460.692C316.85 460.645 317.277 460.225 317.237 459.754L316.744 453.81C316.709 453.385 316.267 453.075 315.756 453.118L315.55 453.134C315.043 453.177 314.658 453.552 314.693 453.98Z" fill="#FFB780"/>
    <path d="M312.545 453.308L313.067 459.6C313.108 460.099 313.601 460.465 314.168 460.419C314.735 460.372 315.161 459.929 315.119 459.43L314.597 453.138C314.56 452.688 314.116 452.358 313.605 452.4L313.399 452.417C312.891 452.459 312.506 452.857 312.545 453.308Z" fill="#FFB780"/>
    <path d="M310.392 452.584L310.93 458.922C310.939 459.042 310.973 459.158 311.028 459.265C311.083 459.372 311.158 459.467 311.25 459.545C311.342 459.623 311.448 459.681 311.562 459.718C311.676 459.755 311.797 459.769 311.917 459.759L312.146 459.74C312.265 459.73 312.382 459.697 312.489 459.642C312.596 459.587 312.691 459.511 312.768 459.42C312.846 459.328 312.905 459.222 312.942 459.108C312.978 458.993 312.992 458.873 312.982 458.753L312.445 452.417C312.436 452.311 312.406 452.207 312.357 452.112C312.308 452.017 312.241 451.933 312.16 451.864C312.078 451.795 311.984 451.743 311.882 451.71C311.781 451.678 311.673 451.666 311.567 451.675L311.136 451.711C310.922 451.728 310.723 451.83 310.584 451.994C310.444 452.158 310.375 452.37 310.392 452.584V452.584Z" fill="#FFB780"/>
    <path d="M310.895 458.409L319.117 457.711L318.808 451.058L315.956 449.639L311.221 450.203C311.221 450.203 309.978 452.378 310.332 453.792L310.895 458.409Z" fill="#FFB780"/>
    <path d="M339.189 363.642C337.192 362.958 335.005 363.096 333.11 364.024C331.214 364.953 329.765 366.596 329.08 368.593C329.039 368.715 329.001 368.838 328.965 368.959C328.621 368.931 328.276 368.975 327.95 369.089C327.625 369.203 327.328 369.385 327.078 369.622C326.828 369.859 326.63 370.146 326.499 370.464C326.367 370.783 326.304 371.126 326.315 371.47C326.325 371.815 326.407 372.153 326.557 372.463C326.707 372.774 326.921 373.049 327.185 373.271C327.448 373.493 327.756 373.657 328.087 373.752C328.418 373.847 328.766 373.871 329.107 373.822C329.556 375.093 330.321 376.229 331.329 377.124C332.337 378.019 333.557 378.643 334.872 378.938C336.188 379.232 337.557 379.188 338.85 378.809C340.144 378.43 341.32 377.729 342.269 376.771C343.218 375.813 343.907 374.63 344.274 373.332C344.64 372.035 344.67 370.666 344.363 369.353C344.055 368.04 343.419 366.828 342.514 365.828C341.609 364.829 340.466 364.075 339.19 363.639L339.189 363.642Z" fill="url(#paint3_linear)"/>
    <path d="M345.349 361.327C345.349 361.327 335.582 360.543 332.524 360.416C330.961 360.351 329.533 360.889 329.017 361.964C328.526 362.983 327.697 366.863 328.203 368.964C328.589 368.94 328.976 369.009 329.329 369.166C329.683 369.324 329.992 369.565 330.232 369.869C330.792 368.881 330.838 366.671 335.447 366.671C337.091 367.564 338.701 367.966 339.496 368.204C341.709 368.867 344.539 368.156 345.148 366.125C345.756 364.094 345.349 361.327 345.349 361.327Z" fill="#210B27"/>
    <path d="M320.048 453.376L319.916 448.558L309.102 448.092L309.807 453.034L320.048 453.376Z" fill="#9CB7E8"/>
    <path d="M441.624 381.196C439.071 380.388 438.053 378.634 436.806 376.265C434.805 372.462 432.091 366.604 427.626 364.069C425.583 362.911 423.838 362.034 421.175 362.328C415.671 362.934 411.644 367.364 412.18 372.22C412.356 373.78 412.987 375.254 413.993 376.46C412.775 379.264 412.239 382.524 412.617 385.929C413.598 394.824 417.792 399.319 425.408 398.98C426.714 402.979 427.609 400.598 434.821 400.161C437.104 400.023 439.446 399.919 441.677 399.566C446.692 398.771 449.831 393.676 448.32 388.828C447.166 385.127 445.209 382.331 441.624 381.196Z" fill="url(#paint4_linear)"/>
    <path d="M399.589 448.395C399.589 448.395 399.008 452.246 399.383 454.068C399.898 456.578 402.374 458.504 403.302 458.71C404.231 458.916 401.033 453.346 402.374 453.14C403.25 453.037 403.715 456.441 403.715 456.441C403.715 456.441 404.643 457.369 404.643 455.822C404.643 454.274 404.643 451.283 404.024 449.736C403.406 448.188 399.589 448.395 399.589 448.395Z" fill="url(#paint5_linear)"/>
    <path d="M428.949 365.089C430.501 364.918 431.62 363.521 431.449 361.97C431.278 360.418 429.881 359.299 428.33 359.47C426.778 359.641 425.659 361.038 425.83 362.589C426.001 364.141 427.398 365.26 428.949 365.089Z" fill="#150927"/>
    <path d="M417.873 386.15C412.177 383.896 408.692 390.555 408.646 394.02C408.37 413.31 407.781 422.139 407.781 422.139L398.867 449.323L404.231 451.386C404.231 451.386 416.044 431.11 417.798 424.187C419.945 415.71 426.889 388.67 417.873 386.15Z" fill="#F59E35"/>
    <path d="M407.584 527.58C407.612 525.133 407.754 519.778 407.823 517.281C407.828 517.109 407.798 516.937 407.735 516.777C407.671 516.616 407.577 516.47 407.456 516.347C407.335 516.225 407.19 516.127 407.031 516.062C406.871 515.996 406.7 515.963 406.528 515.965L402.521 516.007C402.189 516.011 401.872 516.143 401.635 516.375C401.399 516.608 401.261 516.923 401.252 517.255L400.832 524.904C399.652 526.909 401.542 528.9 402.27 528.892L406.316 528.845C406.651 528.841 406.971 528.707 407.208 528.471C407.445 528.234 407.58 527.915 407.584 527.58V527.58Z" fill="#F2B3A5"/>
    <path d="M459.779 519.084C459.435 518.715 452.957 508.158 452.957 508.158L447.881 511.42L454.455 522.788L459.779 519.084Z" fill="#F2B3A5"/>
    <path d="M414.566 473.079L416.961 463.851C417.799 460.329 418.594 456.799 419.478 453.288L422.079 442.742C422.991 439.235 423.861 435.72 424.81 432.22L408.925 428.507C408.489 432.107 406.591 435.843 406.116 439.436L403.944 450.251C403.443 453.838 402.85 457.408 402.303 460.985L400.631 471.713L399.663 517.409L410.109 518.554L414.566 473.079Z" fill="#72778C"/>
    <path d="M415.226 431.387L421.971 472.81L422.032 473.325C422.136 474.181 422.411 475.007 422.839 475.754L446.6 516.794L455.55 510.801L435.176 468.915L436.046 471.862L436.525 443.042C436.835 436.234 434.113 431.076 430.312 431.159L415.226 431.387Z" fill="#9499AF"/>
    <path d="M415.549 385.266C415.549 385.266 411.7 386.73 407.482 397.286C405.625 401.928 410.327 407.761 409.205 418.821C407.913 431.573 406.595 437.026 406.595 437.026L435.91 436.853L434.534 431.675C433.383 426.949 431.802 422.005 433.229 417.355C435.905 408.63 437.107 401.35 436.959 393.208C436.8 384.711 426.166 382.746 415.549 385.266Z" fill="#F59E35"/>
    <path d="M388.228 532.627V531.163C388.228 531.067 388.434 530.988 388.683 530.988L408.191 530.731C408.442 530.731 408.65 530.81 408.65 530.907V532.626C408.65 532.721 408.443 532.801 408.191 532.801H388.683C388.434 532.802 388.228 532.723 388.228 532.627Z" fill="black"/>
    <path d="M396.699 531.047H388.379C388.379 531.047 386.746 529.099 389.167 528.52C389.167 528.52 396.854 527.676 400.328 523.148C400.328 523.148 401.962 521.307 400.594 525.727C400.594 525.727 400.387 528.938 404.015 527.305C404.015 527.305 405.253 526.879 406.388 524.146C406.388 524.146 406.94 523.036 407.784 523.272C408.118 523.383 408.521 523.774 408.548 525.041V530.788L400.386 530.916L396.699 531.047Z" fill="#557A93"/>
    <path d="M446.312 533.235L445.537 531.997C445.486 531.914 445.619 531.739 445.831 531.607L462.247 521.065C462.461 520.932 462.678 520.888 462.73 520.971L463.64 522.43C463.69 522.51 463.555 522.687 463.343 522.821L446.792 533.145C446.576 533.273 446.363 533.315 446.312 533.235Z" fill="black"/>
    <path d="M452.662 527.409L451.572 528.089L450.711 528.624L445.604 531.809C445.604 531.809 443.187 531.021 444.934 529.248C444.934 529.248 451.01 524.464 451.562 518.784C451.562 518.784 451.974 516.357 453.152 520.834C453.152 520.834 454.673 523.671 456.89 520.363C456.89 520.363 457.716 519.346 457.229 516.428C457.229 516.428 457.11 515.19 457.951 514.948C458.293 514.865 458.841 514.983 459.534 516.046L459.844 516.539L460.335 517.326L462.577 520.922L455.721 525.35L452.662 527.409Z" fill="#557A93"/>
    <path d="M417.407 373.215L424.772 373.6L424.64 384.694C424.434 387.897 416.745 390.677 416.745 390.677C414.831 390.848 416.265 386.688 416.745 383.863L417.407 373.215Z" fill="#F2B3A5"/>
    <path d="M432.71 386.327C432.71 386.327 427.493 384.592 423.78 395.337C419.12 408.803 412.795 419.234 412.795 419.234L385.277 422.742L388.514 428.591C388.514 428.591 417.586 431.321 420.769 425.124C423.952 418.928 446.503 392.899 432.71 386.327Z" fill="#F5AE57"/>
    <path d="M427.726 372.981C427.764 368.978 424.548 365.703 420.545 365.666C416.542 365.629 413.267 368.844 413.23 372.847C413.193 376.85 416.408 380.125 420.411 380.162C424.414 380.199 427.689 376.984 427.726 372.981Z" fill="url(#paint6_linear)"/>
    <path d="M427.095 368.098C428.495 369.336 428.869 371.761 428.559 373.602C428.169 375.919 428.855 377.267 427.104 376.616C423.661 375.336 418.045 371.225 417.304 367.213C417.304 367.213 413.475 372.061 412.589 369.239C412.551 369.118 412.614 368.892 412.738 368.607C413.599 366.634 414.975 365.955 417.078 365.493C418.566 365.166 420.181 364.049 423.164 365.514C424.252 366.048 426.187 367.296 427.095 368.098Z" fill="url(#paint7_linear)"/>
    <path d="M375.043 331.833H346.818C343.442 331.833 340.704 334.942 340.704 338.778V348.578C340.704 352.413 343.441 355.523 346.818 355.523H353.557L353.593 361.479L359.921 355.455C360.381 355.385 376.761 355.258 377.183 355.078C379.503 354.094 381.156 351.558 381.156 348.58V338.78C381.156 334.942 378.42 331.833 375.043 331.833Z" fill="#FDCDCA"/>
    <path d="M360.253 352.757C365.444 352.757 369.653 348.549 369.653 343.357C369.653 338.165 365.444 333.957 360.253 333.957C355.061 333.957 350.853 338.165 350.853 343.357C350.853 348.549 355.061 352.757 360.253 352.757Z" fill="#F1F1FB"/>
    <path opacity="0.78" d="M354.684 346.964H355.767V344.042C355.767 343.406 356.252 342.888 356.851 342.888C357.449 342.888 357.935 343.404 357.935 344.042V346.965H359.389V342.672C359.389 342.036 359.875 341.518 360.473 341.518C361.072 341.518 361.557 342.034 361.557 342.672V346.965H363.011V338.663C363.011 338.022 363.498 337.506 364.095 337.506C364.692 337.506 365.179 338.022 365.179 338.661V346.963H366.261C366.343 346.963 366.422 346.996 366.48 347.054C366.538 347.112 366.571 347.191 366.571 347.273C366.571 347.355 366.538 347.434 366.48 347.492C366.422 347.55 366.343 347.582 366.261 347.582H354.684C354.602 347.582 354.524 347.55 354.466 347.492C354.408 347.434 354.375 347.355 354.375 347.273C354.375 347.191 354.408 347.112 354.466 347.054C354.524 346.996 354.602 346.963 354.684 346.963V346.964Z" fill="#B8B8E8"/>
    <defs>
        <linearGradient id="paint0_linear" x1="446.583" y1="470.893" x2="477.319" y2="423.584" gradientUnits="userSpaceOnUse">
            <stop offset="0.03" stop-color="white"/>
            <stop offset="0.41" stop-color="#F0F2F6"/>
            <stop offset="1" stop-color="#D0D6E5"/>
        </linearGradient>
        <linearGradient id="paint1_linear" x1="461.87" y1="443.361" x2="510.971" y2="461.928" gradientUnits="userSpaceOnUse">
            <stop offset="0.03" stop-color="white"/>
            <stop offset="0.63" stop-color="#F0F2FA"/>
            <stop offset="1" stop-color="#E4E8F6"/>
        </linearGradient>
        <linearGradient id="paint2_linear" x1="5054.75" y1="11267" x2="5302.64" y2="9156.93" gradientUnits="userSpaceOnUse">
            <stop offset="0.07" stop-color="#EADFCF"/>
            <stop offset="0.8" stop-color="#E58057"/>
        </linearGradient>
        <linearGradient id="paint3_linear" x1="-43762.3" y1="-3396.18" x2="-43423.1" y2="-5320.77" gradientUnits="userSpaceOnUse">
            <stop offset="0.07" stop-color="#EADFCF"/>
            <stop offset="0.8" stop-color="#E58057"/>
        </linearGradient>
        <linearGradient id="paint4_linear" x1="-221408" y1="9441.23" x2="-211195" y2="23684.5" gradientUnits="userSpaceOnUse">
            <stop offset="0.15" stop-color="#884C59"/>
            <stop offset="0.25" stop-color="#6D3C4D"/>
            <stop offset="0.39" stop-color="#47263D"/>
            <stop offset="0.53" stop-color="#2B1631"/>
            <stop offset="0.64" stop-color="#1B0C2A"/>
            <stop offset="0.73" stop-color="#150927"/>
        </linearGradient>
        <linearGradient id="paint5_linear" x1="6520.09" y1="12621.6" x2="6192.18" y2="12632.1" gradientUnits="userSpaceOnUse">
            <stop offset="0.07" stop-color="#EADFCF"/>
            <stop offset="0.8" stop-color="#E58057"/>
        </linearGradient>
        <linearGradient id="paint6_linear" x1="16970.2" y1="-21882.5" x2="16973.6" y2="-22247.1" gradientUnits="userSpaceOnUse">
            <stop stop-color="#F2B3A5"/>
            <stop offset="0.32" stop-color="#F2B5A8"/>
            <stop offset="0.51" stop-color="#F4BCB0"/>
            <stop offset="0.67" stop-color="#F6C8BE"/>
            <stop offset="0.8" stop-color="#F9D9D2"/>
            <stop offset="0.93" stop-color="#FCEFEC"/>
            <stop offset="1" stop-color="white"/>
        </linearGradient>
        <linearGradient id="paint7_linear" x1="-90011.1" y1="5550.19" x2="-88257.7" y2="10113.8" gradientUnits="userSpaceOnUse">
            <stop offset="0.15" stop-color="#884C59"/>
            <stop offset="0.25" stop-color="#6D3C4D"/>
            <stop offset="0.39" stop-color="#47263D"/>
            <stop offset="0.53" stop-color="#2B1631"/>
            <stop offset="0.64" stop-color="#1B0C2A"/>
            <stop offset="0.73" stop-color="#150927"/>
        </linearGradient>
    </defs>
</svg>
