<svg width="406" height="436" viewBox="0 0 406 436" fill="none" xmlns="http://www.w3.org/2000/svg">
    <path d="M50.3016 237.901L37.3643 228.431L43.8386 226.157L53.8034 234.433L50.3016 237.901Z" fill="#191919"/>
    <path d="M98.5946 426.613C98.5695 426.824 98.6147 427.038 98.7231 427.221C98.8316 427.404 98.9972 427.546 99.1945 427.625C99.3918 427.705 99.6098 427.717 99.8148 427.66C100.02 427.603 100.2 427.481 100.329 427.311L111.296 417.785C112.523 416.569 114.403 416.13 115.495 414.205L118.49 410.208C118.573 410.099 118.631 409.973 118.662 409.84C118.692 409.707 118.694 409.569 118.668 409.435C118.641 409.301 118.587 409.174 118.508 409.063C118.428 408.951 118.327 408.858 118.209 408.789L114.651 406.03C112.902 404.676 111.607 402.823 110.935 400.716L93.2125 345.104L99.2251 297.915H80.0837C77.3026 308.229 71.2224 336.952 71.729 339.992C72.1569 342.593 96.9056 393.847 104.213 408.958C104.424 409.766 104.564 410.591 104.63 411.424L104.45 412.977C104.45 413.417 103.819 414.723 103.797 415.297L98.5946 426.613Z" fill="#E79E7D"/>
    <path d="M116.789 419.789C115.663 420.195 115.078 421.107 114.188 422.334C111.642 425.652 108.578 428.538 105.113 430.88C101.148 433.489 96.5159 434.9 91.7702 434.945C91.2104 434.665 90.7792 434.182 90.5654 433.594L90.7794 433.447C96.1114 433.606 101.327 431.866 105.496 428.538C105.957 428.155 106.397 427.761 106.824 427.356C109.707 424.53 111.328 423.145 112.128 422.075C112.382 421.722 112.601 421.345 112.781 420.949C113.028 420.532 113.67 419.069 115.123 418.877H115.337L115.494 418.731L122.734 412.538C123.042 412.713 123.312 412.947 123.529 413.228C123.745 413.508 123.904 413.829 123.995 414.171C124.097 415.353 118.974 419.024 116.789 419.789Z" fill="#3A3936"/>
    <path d="M98.4929 425.149C98.1157 425.921 97.5691 426.599 96.8941 427.131C96.0158 427.84 94.1917 427.502 92.8406 428.594C89.8568 431.004 90.7575 433.098 90.7575 433.098C90.7575 433.098 91.1854 433.098 91.8835 433.042C96.6366 432.929 101.227 431.291 104.979 428.369C105.421 428.016 105.853 427.641 106.273 427.243C108.555 425.228 110.603 422.962 112.376 420.488C112.622 419.959 112.988 419.497 113.446 419.137C113.904 418.777 114.44 418.53 115.011 418.416L122.048 412.516L122.318 412.268C120.391 409.68 117.92 407.547 115.078 406.019C115.078 406.019 113.952 411.39 111.205 413.585C109.792 414.794 108.008 415.481 106.15 415.533L105.451 414.576C105.158 414.169 104.772 413.837 104.325 413.608V413.608C103.731 414.457 103.183 415.336 102.682 416.243C101.533 418.371 99.7428 422.998 98.4929 425.149Z" fill="url(#paint0_linear)"/>
    <path d="M53.9502 231.134L93.3703 220.381L97.8967 231.134L59.5462 233.915L53.9502 231.134Z" fill="#E79E7D"/>
    <path d="M100.397 357.524L117.489 306.641L90.5672 287.365C89.1485 288.885 84.0029 347.21 83.5187 352.513C82.9895 358.346 85.9846 397.146 81.1429 420.33L80.0732 425.87C80.0732 425.87 85.7031 427.694 86.0972 427.694C86.4912 427.694 92.7291 425.442 92.7291 425.442L92.8079 424.406C92.0122 423.026 91.5087 421.498 91.3286 419.915C91.1484 418.333 91.2955 416.73 91.7608 415.207C95.1387 404.06 102.525 370.63 100.397 357.524Z" fill="#E9B296"/>
    <path d="M69.117 428.696C68.3574 429.09 67.5179 429.305 66.6624 429.326C65.5364 429.326 64.0727 429.326 62.3499 429.427C61.3369 429.401 60.3328 429.623 59.4244 430.072C58.5161 430.521 57.7309 431.185 57.1367 432.006C57.1367 432.006 57.4745 432.254 58.0938 432.648C60.2444 433.988 65.7954 435.316 72.3823 435.057C72.9453 435.057 73.512 435.012 74.0825 434.922C80.1853 434.157 81.7391 433.413 82.9776 433.368C83.7952 433.412 84.5803 433.703 85.2296 434.202L94.4738 433.684H94.8341C94.8393 430.49 94.1436 427.335 92.7961 424.439C90.8139 425.891 88.4832 426.792 86.0403 427.052C84.202 427.174 82.3775 426.661 80.8721 425.599V424.473C80.8798 423.974 80.7679 423.479 80.5456 423.032V423.032C79.5693 423.356 78.6109 423.732 77.6743 424.158C75.535 425.115 71.3577 427.75 69.117 428.696Z" fill="url(#paint1_linear)"/>
    <path d="M80.9497 159.939C80.9497 159.939 77.3129 161.403 78.2249 166.143C78.9905 170.152 81.3326 191.781 82.0419 198.379C82.1105 199.322 82.3706 200.24 82.8062 201.078C83.2418 201.917 83.8438 202.657 84.5753 203.255C85.8364 204.167 85.904 204.921 93.1327 204.381C104.336 203.626 97.1299 179.486 97.1299 179.486L80.9497 159.939Z" fill="#010103"/>
    <path d="M89.2148 176.468L98.2676 188.448L106.679 186.726L96.4661 174.52L89.2148 176.468Z" fill="url(#paint2_linear)"/>
    <path d="M123.67 262.976C125.505 237.146 127.138 222.216 120.427 198.143C118.175 190.171 112.433 185.149 103.977 183.19L100.959 185.183C95.3295 191.263 94.6764 194.765 91.3998 200.946C88.5061 206.419 83.3717 217.408 83.7996 219.153C84.2725 221.09 84.9255 224.67 90.9382 225.718C95.4421 238.948 95.9375 244.96 90.1613 260.623L123.67 262.976Z" fill="#E5E5E5"/>
    <mask id="mask0" mask-type="alpha" maskUnits="userSpaceOnUse" x="83" y="183" width="43" height="80">
        <path d="M123.67 262.976C125.505 237.146 127.138 222.216 120.427 198.143C118.175 190.171 112.433 185.149 103.977 183.19L100.959 185.183C95.3295 191.263 94.6764 194.765 91.3998 200.946C88.5061 206.419 83.3717 217.408 83.7996 219.153C84.2725 221.09 84.9255 224.67 90.9382 225.718C95.4421 238.948 95.6255 244.628 90.297 260.614L123.67 262.976Z" fill="#273271"/>
    </mask>
    <g mask="url(#mask0)">
        <g style="mix-blend-mode:multiply" opacity="0.81">
            <path d="M93.347 254.396L84.4631 261.411L83.9902 177.459L92.9079 177.425L93.347 254.396Z" fill="#273271"/>
        </g>
        <g style="mix-blend-mode:multiply" opacity="0.81">
            <path d="M116.16 255.027L107.242 255.072L107.389 179.677L116.306 179.643L116.16 255.027Z" fill="#273271"/>
        </g>
        <g style="mix-blend-mode:multiply" opacity="0.81">
            <path d="M136.483 252.246L136.494 254.205L84.463 261.411L84.418 252.482L136.483 252.246Z" fill="#48507E"/>
        </g>
        <g style="mix-blend-mode:multiply" opacity="0.81">
            <path d="M84.315 229.642L84.3555 238.56L140 238.307L139.96 229.39L84.315 229.642Z" fill="#273271"/>
        </g>
        <g style="mix-blend-mode:multiply" opacity="0.81">
            <path d="M84.2173 206.785L84.2578 215.703L138.889 215.455L138.849 206.537L84.2173 206.785Z" fill="#273271"/>
        </g>
        <g style="mix-blend-mode:multiply" opacity="0.81">
            <path d="M84.6436 186.636V195.553H139.275V186.636H84.6436Z" fill="#273271"/>
        </g>
    </g>
    <path d="M109.708 190.092C107.393 189.657 105.001 190.159 103.057 191.487C101.112 192.815 99.7745 194.861 99.3375 197.175L96.9842 237.214L56.258 232.17C54.68 230.703 52.8832 229.491 50.9322 228.578C50.9322 228.578 45.3024 223.894 45.1673 225.549C45.0321 227.204 49.1982 230.053 48.7028 231.348C48.2074 232.643 45.7302 230.976 43.6922 229.321C41.6542 227.666 37.6008 224.029 37.5332 226.686C37.5332 227.418 40.3594 232.158 42.7689 233.892C45.7843 235.985 49.261 237.318 52.9026 237.777C53.3185 237.813 53.7367 237.813 54.1525 237.777C63.3516 240.705 81.3446 245.906 90.5662 248.575C92.7506 249.206 99.3713 250.973 99.3713 250.973C104.314 251.795 108.965 250.005 109.741 245.276L110.676 239.646L117.218 200.17C117.387 199.015 117.327 197.838 117.041 196.706C116.755 195.575 116.248 194.511 115.551 193.575C114.853 192.639 113.978 191.85 112.976 191.252C111.973 190.655 110.863 190.26 109.708 190.092Z" fill="#E9B296"/>
    <path d="M74.1377 322.225L109.448 333.653C111.7 334.858 112.893 334.61 113.344 332.144C115.449 320.592 122.194 291.711 124.604 286.993C129.592 277.4 124.221 255.342 124.221 255.342L93.4142 251.852C93.4142 251.852 88.2235 262.976 74.1377 322.225Z" fill="white"/>
    <path d="M74.1377 322.225L109.448 333.653C111.7 334.858 112.893 334.61 113.344 332.144C115.449 320.592 122.194 291.711 124.604 286.993C129.592 277.4 124.221 255.342 124.221 255.342L92.7185 251.895C92.7185 251.895 88.2235 262.976 74.1377 322.225Z" fill="#FF8888"/>
    <path d="M93.3713 182.139C100.214 181.333 105.108 175.132 104.301 168.289C103.495 161.446 97.2943 156.553 90.4515 157.359C83.6087 158.165 78.7151 164.366 79.5214 171.209C80.3277 178.052 86.5285 182.945 93.3713 182.139Z" fill="#E9B296"/>
    <path d="M79.7004 160.716C79.3454 161.03 79.1269 161.471 79.0911 161.944C79.0554 162.417 79.2053 162.885 79.509 163.249C81.2993 165.389 86.5238 170.726 94.0002 170.636C102.704 170.523 95.4527 180.127 96.331 184.552C97.9186 192.502 107.253 186.196 111.329 190.374C114.493 193.628 112.207 201.78 118.299 200.766C123.805 199.843 125.426 197.389 126.923 194.315C129.119 189.811 127.486 184.046 124.165 180.218C117.904 173.034 102.625 158.464 100.396 157.417C97.8623 156.212 83.4161 157.462 79.7004 160.716Z" fill="#46263D"/>
    <path d="M101.105 180.566L96.6916 173.766L93.9668 181.411L101.105 180.566Z" fill="#FF0000"/>
    <path d="M102.754 161.508C104.827 161.508 106.508 159.827 106.508 157.754C106.508 155.681 104.827 154 102.754 154C100.681 154 99 155.681 99 157.754C99 159.827 100.681 161.508 102.754 161.508Z" fill="#46263D"/>
    <path d="M98.8122 167.078C99.354 167.014 99.7414 166.523 99.6775 165.981C99.6136 165.439 99.1225 165.052 98.5807 165.116C98.0388 165.18 97.6514 165.671 97.7154 166.213C97.7793 166.754 98.2704 167.142 98.8122 167.078Z" fill="#FF0000"/>
    <path d="M126.471 105.517H71V65.6598C71.0163 52.9147 75.1808 40.5213 82.8641 30.3524C90.5475 20.1834 101.332 12.7917 113.588 9.29409C134.54 3.26667 156.219 0.139535 178.02 0C243.014 0 294 26.3364 294 89.0859C294 140.614 255.897 165.843 232.928 180.977C198.746 203.945 189.309 208.907 189.309 238.602C189.309 244.767 198.202 263.173 203.317 272H145.871C138.027 263.03 133.189 244.328 133.189 220.243C133.189 197.275 145.518 174.861 171.292 151.33C191.465 132.837 207.048 117.522 207.048 82.225C207.048 57.568 193.794 45.2681 169.699 45.2681C143.371 45.2204 128.713 70.7839 126.471 105.517Z" fill="#1F285A"/>
    <path d="M118.471 105.517H63V65.6598C63.0151 52.9172 67.1768 40.5256 74.8565 30.357C82.5362 20.1884 93.3167 12.7951 105.569 9.29409C126.527 3.26495 148.212 0.137792 170.02 0C235.014 0 286 26.3364 286 89.0858C286 140.614 247.897 165.843 224.928 180.977C190.746 203.945 181.309 208.907 181.309 238.602C181.309 244.767 190.202 263.173 195.317 272H137.871C130.027 263.03 125.189 244.328 125.189 220.243C125.189 197.275 137.518 174.861 163.292 151.33C183.465 132.837 199.048 117.522 199.048 82.225C199.048 57.568 185.794 45.2681 161.699 45.2681C135.371 45.2204 120.694 70.7839 118.471 105.517Z" fill="#273271"/>
    <path d="M339.5 377C362.972 377 382 357.972 382 334.5C382 311.028 362.972 292 339.5 292C316.028 292 297 311.028 297 334.5C297 357.972 316.028 377 339.5 377Z" fill="#1F285A"/>
    <path d="M332 377C355.748 377 375 357.972 375 334.5C375 311.028 355.748 292 332 292C308.252 292 289 311.028 289 334.5C289 357.972 308.252 377 332 377Z" fill="#273271"/>
    <path d="M249 396C249.552 396 250 395.552 250 395C250 394.448 249.552 394 249 394C248.448 394 248 394.448 248 395C248 395.552 248.448 396 249 396Z" fill="white"/>
    <path d="M241 397C241.552 397 242 396.552 242 396C242 395.448 241.552 395 241 395C240.448 395 240 395.448 240 396C240 396.552 240.448 397 241 397Z" fill="white"/>
    <path d="M240 407C240.552 407 241 406.552 241 406C241 405.448 240.552 405 240 405C239.448 405 239 405.448 239 406C239 406.552 239.448 407 240 407Z" fill="white"/>
    <path d="M246 388C246.552 388 247 387.552 247 387C247 386.448 246.552 386 246 386C245.448 386 245 386.448 245 387C245 387.552 245.448 388 246 388Z" fill="white"/>
    <path d="M243 382C243.552 382 244 381.328 244 380.5C244 379.672 243.552 379 243 379C242.448 379 242 379.672 242 380.5C242 381.328 242.448 382 243 382Z" fill="white"/>
    <path d="M248.77 374.738C249.319 374.42 249.537 373.77 249.258 373.286C248.978 372.801 248.306 372.665 247.756 372.982C247.207 373.3 246.989 373.95 247.268 374.434C247.548 374.919 248.22 375.055 248.77 374.738Z" fill="white"/>
    <path d="M17.7235 142.659C27.5119 142.659 35.447 134.724 35.447 124.936C35.447 115.147 27.5119 107.212 17.7235 107.212C7.93508 107.212 0 115.147 0 124.936C0 134.724 7.93508 142.659 17.7235 142.659Z" fill="#FDCDCA"/>
    <path d="M8.26339 127.76C9.77177 127.76 10.9946 126.537 10.9946 125.029C10.9946 123.521 9.77177 122.298 8.26339 122.298C6.75501 122.298 5.53223 123.521 5.53223 125.029C5.53223 126.537 6.75501 127.76 8.26339 127.76Z" fill="url(#paint3_linear)"/>
    <path d="M17.7243 127.76C19.2327 127.76 20.4555 126.537 20.4555 125.029C20.4555 123.521 19.2327 122.298 17.7243 122.298C16.2159 122.298 14.9932 123.521 14.9932 125.029C14.9932 126.537 16.2159 127.76 17.7243 127.76Z" fill="url(#paint4_linear)"/>
    <path d="M27.1726 127.76C28.6809 127.76 29.9037 126.537 29.9037 125.029C29.9037 123.521 28.6809 122.298 27.1726 122.298C25.6642 122.298 24.4414 123.521 24.4414 125.029C24.4414 126.537 25.6642 127.76 27.1726 127.76Z" fill="url(#paint5_linear)"/>
    <path d="M258.5 190C267.06 190 274 183.284 274 175C274 166.716 267.06 160 258.5 160C249.94 160 243 166.716 243 175C243 183.284 249.94 190 258.5 190Z" fill="#FDCDCA"/>
    <path d="M250 178C251.105 178 252 176.881 252 175.5C252 174.119 251.105 173 250 173C248.895 173 248 174.119 248 175.5C248 176.881 248.895 178 250 178Z" fill="url(#paint6_linear)"/>
    <path d="M258.5 178C259.881 178 261 176.881 261 175.5C261 174.119 259.881 173 258.5 173C257.119 173 256 174.119 256 175.5C256 176.881 257.119 178 258.5 178Z" fill="url(#paint7_linear)"/>
    <path d="M266.5 178C267.881 178 269 176.881 269 175.5C269 174.119 267.881 173 266.5 173C265.119 173 264 174.119 264 175.5C264 176.881 265.119 178 266.5 178Z" fill="url(#paint8_linear)"/>
    <path d="M378.771 269L315 264.234L325.536 3L401.214 8.71879C404.07 8.93801 406.268 11.0063 405.973 13.2938L378.771 269Z" fill="#1F285A"/>
    <path d="M370.696 268L315.836 263.912C310.766 263.532 306.852 260.024 307.004 255.984L316.285 6.73602C316.37 4.49252 318.767 2.80038 321.593 3.01903L393.2 8.35211C396.064 8.57076 398.269 10.6336 397.973 12.9152L370.696 268Z" fill="#273271"/>
    <path d="M347.013 385.668C346.613 388.445 329.915 400.145 326.622 402.456C323.861 404.279 320.857 405.705 317.699 406.692V406.692C308.659 409.081 251.722 426.063 251.722 426.063C251.606 425.464 251.415 424.883 251.154 424.332C249.023 425.185 246.841 425.727 245.459 426.166C243.341 426.825 226.527 427.354 223.079 428.026C219.631 428.697 212.748 429.743 209.972 427.096C207.195 424.449 211.689 418.754 215.537 417.294C219.386 415.835 233.41 415.435 235.928 415.176C238.447 414.918 241.753 413.988 243.341 414.518C243.845 414.686 246.066 414.04 248.868 413.072C248.803 412.038 248.778 411.393 248.778 411.393L263.719 407.08L260.942 380.632C260.942 380.632 267.399 356.096 293.421 374.821C293.421 374.821 299.219 376.525 301.169 377.055C301.387 377.088 301.609 377.088 301.828 377.055C305.792 376.758 322.812 371.605 328.947 371.605C335.571 371.605 337.689 371.205 340.065 372.406C342.441 373.607 347.413 382.879 347.013 385.668Z" fill="#9499AF"/>
    <path d="M320.41 427.109C317.633 429.756 310.737 428.697 307.302 428.039C303.867 427.38 287.04 426.851 284.922 426.179C282.805 425.508 278.827 424.591 276.051 422.731C275.576 422.472 275.079 422.256 274.566 422.085V422.085L270.356 425.12L211.882 406.511C208.908 405.779 206.131 404.404 203.746 402.482C200.699 399.835 183.756 388.445 183.33 385.668C182.903 382.892 187.849 373.62 190.238 372.458C192.628 371.295 194.745 371.657 201.357 371.657C207.969 371.657 227.237 377.623 229.174 377.055C230.739 376.467 232.251 375.746 233.693 374.898C235.811 373.736 237.8 372.561 237.8 372.561C266.21 359.867 269.4 380.632 269.4 380.632L267.721 406.279C267.721 406.279 270.097 407.454 273.171 408.862L287.26 412.839L285.413 414.131C285.913 414.349 286.456 414.45 287.002 414.428C288.59 413.898 291.896 414.828 294.414 415.086C296.932 415.344 310.97 415.745 314.805 417.204C318.64 418.663 323.186 424.462 320.41 427.109Z" fill="#9499AF"/>
    <path d="M233.693 374.898C235.656 375.04 248.906 382.647 252.044 384.545C247.266 382.053 229.147 377.055 229.147 377.055C230.722 376.468 232.243 375.747 233.693 374.898V374.898Z" fill="#5478B3"/>
    <path d="M301.866 377.081C301.866 377.081 279.034 382.621 274.863 384.945C275.057 384.803 286.899 375.803 293.11 374.614C293.11 374.614 299.219 376.539 301.207 377.068C301.426 377.101 301.648 377.101 301.866 377.068V377.081Z" fill="#5478B3"/>
    <path d="M320.409 427.109C317.633 429.756 310.737 428.697 307.302 428.039C303.867 427.38 287.04 426.851 284.922 426.179L282.766 425.534C280.427 424.927 278.187 423.987 276.115 422.744C275.64 422.485 275.143 422.269 274.63 422.098L285.206 414.466L285.516 414.247C286.016 414.465 286.559 414.566 287.105 414.544C288.693 414.014 291.999 414.944 294.517 415.203C297.035 415.461 311.073 415.861 314.908 417.32C318.743 418.78 323.186 424.462 320.409 427.109Z" fill="#EEA886"/>
    <path d="M320.41 427.109C317.634 429.756 310.738 428.697 307.303 428.039C303.868 427.38 287.041 426.851 284.923 426.179L282.767 425.534C284.125 424.072 285.067 422.274 285.496 420.326C285.926 418.378 285.826 416.35 285.207 414.454L285.517 414.234C286.017 414.452 286.561 414.554 287.106 414.531C288.694 414.002 292 414.931 294.518 415.19C297.036 415.448 311.074 415.848 314.909 417.307C318.744 418.767 323.187 424.462 320.41 427.109Z" fill="#565656"/>
    <path d="M239.518 380.735C239.518 380.8 239.518 380.865 239.518 380.89C239.234 381.097 239.273 381.007 239.518 380.735Z" fill="#E55353"/>
    <path d="M316.058 349.781C315.839 349.329 303.777 330.41 300.562 321.706C297.346 313.003 289.378 309.077 285.672 307.889L279.499 305.874L270.124 302.852H254.627C254.627 302.852 249.333 304.609 243.65 306.597C238.407 308.431 232.893 310.471 231.034 311.375C227.16 313.312 220.612 327.182 219.295 328.77C217.978 330.359 207.776 349.213 206.304 356.483C205.167 362.114 238.588 378.618 239.518 380.735C240.577 379.56 245.445 374.885 245.445 374.885C245.445 374.885 243.896 373.917 241.688 372.458C250.65 372.871 272.539 372.096 275.677 372.251C276.352 372.294 277.029 372.294 277.704 372.251V372.251C278.673 372.961 284.949 378.501 284.949 378.501C284.949 378.501 300.445 372.044 307.509 364.903C317.634 354.675 317.169 352.028 316.058 349.781ZM228.244 362.333C224.938 358.356 220.38 355.954 221.516 354.198C222.653 352.441 232.403 335.653 232.403 335.653C232.403 335.653 237.439 346.682 238.859 352.441C240.28 358.201 240.151 360.809 239.57 362.592C238.736 364.994 238.249 367.503 238.123 370.043C234.094 367.292 229.729 364.154 228.206 362.333H228.244ZM296.545 360.435C295.254 361.907 290.088 365.174 285.491 367.86C285.142 364.658 284.613 359.621 284.548 357.813C284.458 355.076 285.607 347.224 287.015 344.215C288.423 341.206 289.404 333.006 289.404 333.006C289.404 333.006 301.104 348.903 302.951 350.569C304.797 352.235 300.846 355.45 296.52 360.435H296.545Z" fill="#1A1D23"/>
    <path d="M270.291 302.865C269.542 301.187 269.903 292.973 269.903 292.973C269.903 292.973 254.51 289.099 254.949 292.056C255.388 295.014 253.658 303.227 253.658 303.227L245.768 305.926C245.768 305.926 254.174 328.512 263.847 325.594C273.519 322.675 277.109 305.061 277.109 305.061L270.291 302.865Z" fill="#E58057"/>
    <path d="M274.682 277.748C274.682 277.748 275.973 277.31 276.49 278.717C277.006 280.125 274.682 285.497 274.604 285.858C274.604 285.858 274.359 286.413 274.049 286.104C273.739 285.794 274.682 277.748 274.682 277.748Z" fill="#EEA886"/>
    <path d="M250.12 277.542C250.12 277.542 248.829 277.077 248.312 278.511C247.796 279.944 249.952 285.38 250.043 285.69C250.043 285.69 250.275 286.246 250.598 285.949C250.921 285.652 250.12 277.542 250.12 277.542Z" fill="#EEA886"/>
    <path d="M264.221 267.489C264.221 267.489 275.963 269.026 274.191 284.334C272.418 299.641 262.021 298.387 261.33 298.366C260.638 298.345 250.907 298.648 250.153 279.952C250.153 279.963 249.814 266.14 264.221 267.489Z" fill="#EB956C"/>
    <path d="M246.479 399.577C246.479 399.577 227.986 388.497 219.902 386.753C212.27 385.1 209.48 382.246 209.48 382.246C209.48 382.246 221.619 382.246 229.703 387.98C235.179 391.906 246.479 399.577 246.479 399.577Z" fill="#8E96C0"/>
    <path d="M262.904 407.325C262.904 407.325 295.073 390.434 308.206 386.766C315.722 384.661 318.627 382.259 318.627 382.259C318.627 382.259 298.74 384.209 286.64 391.493C280.88 394.966 262.904 407.325 262.904 407.325Z" fill="#8E96C0"/>
    <path d="M274.669 280.654L272.939 282.966C272.985 281.008 272.908 279.05 272.707 277.103C272.422 276.302 272.009 273.874 271.777 273.306C271.544 272.738 261.446 269.884 252.406 274.133C252.406 274.133 252.793 277.774 251.941 278.097C251.089 278.42 251.502 284.037 251.502 284.037L250.082 282.436C250.082 282.436 247.899 267.895 248.48 266.384C249.061 264.873 250.727 255.756 269.142 261.219C269.142 261.219 274.876 260.005 276.025 263.956C277.175 267.908 274.669 280.654 274.669 280.654Z" fill="#010103"/>
    <path d="M251.154 424.358C249.023 425.21 246.841 425.753 245.459 426.192C243.341 426.851 226.527 427.38 223.079 428.052C219.631 428.723 212.748 429.769 209.972 427.122C207.195 424.474 211.689 418.779 215.538 417.32C219.386 415.861 233.41 415.461 235.928 415.202C238.447 414.944 241.753 414.014 243.341 414.544C243.845 414.712 246.066 414.066 248.868 413.097C248.946 414.763 251.154 424.358 251.154 424.358Z" fill="#E58057"/>
    <path d="M262.904 422.757L294.53 413.394L288.28 411.483C288.28 411.483 263.008 420.652 262.904 422.757Z" fill="#E58057"/>
    <path d="M262.904 422.757L277.704 418.237L267.437 424.203L262.904 422.757Z" fill="#B57433"/>
    <path d="M252.742 384.932L252.07 384.545C252.302 384.66 252.526 384.79 252.742 384.932V384.932Z" fill="#525252"/>
    <path d="M245.444 426.192C243.326 426.851 226.512 427.38 223.065 428.052C219.617 428.723 212.733 429.769 209.957 427.122C207.181 424.474 211.675 418.779 215.523 417.32C219.371 415.861 233.396 415.461 235.914 415.202C238.432 414.944 241.738 414.014 243.326 414.544C242.148 416.395 241.712 418.623 242.104 420.783C242.497 422.942 243.69 424.874 245.444 426.192V426.192Z" fill="#565656"/>
    <path d="M234.984 382.259L230.129 354.546L293.097 353.087L289.067 380.374C289.067 380.374 268.961 387.735 262.129 391.996C262.103 392.022 244.889 384.932 234.984 382.259Z" fill="#BCC1C9"/>
    <path d="M262.311 375.402C264.258 375.402 265.836 373.546 265.836 371.257C265.836 368.967 264.258 367.111 262.311 367.111C260.364 367.111 258.785 368.967 258.785 371.257C258.785 373.546 260.364 375.402 262.311 375.402Z" fill="#F2F2F2"/>
    <path d="M175.5 377C198.972 377 218 357.748 218 334C218 310.252 198.972 291 175.5 291C152.028 291 133 310.252 133 334C133 357.748 152.028 377 175.5 377Z" fill="#1F285A"/>
    <path d="M167.5 377C190.972 377 210 357.748 210 334C210 310.252 190.972 291 167.5 291C144.028 291 125 310.252 125 334C125 357.748 144.028 377 167.5 377Z" fill="#273271"/>
    <defs>
        <linearGradient id="paint0_linear" x1="39929.5" y1="11777.8" x2="40822.2" y2="11777.8" gradientUnits="userSpaceOnUse">
            <stop offset="0.07" stop-color="#BF0909"/>
            <stop offset="0.8" stop-color="#E94E1B"/>
        </linearGradient>
        <linearGradient id="paint1_linear" x1="46764.2" y1="5540.89" x2="47373.1" y2="6131.07" gradientUnits="userSpaceOnUse">
            <stop offset="0.07" stop-color="#BF0909"/>
            <stop offset="0.8" stop-color="#E94E1B"/>
        </linearGradient>
        <linearGradient id="paint2_linear" x1="23643.4" y1="2328.25" x2="23540.5" y2="2188.72" gradientUnits="userSpaceOnUse">
            <stop offset="0.07" stop-color="#ECDFCF"/>
            <stop offset="0.8" stop-color="#E58057"/>
        </linearGradient>
        <linearGradient id="paint3_linear" x1="35.9027" y1="1024.67" x2="52.8906" y2="1043.85" gradientUnits="userSpaceOnUse">
            <stop stop-color="#576ABD"/>
            <stop offset="1" stop-color="#1D154F"/>
        </linearGradient>
        <linearGradient id="paint4_linear" x1="89.7724" y1="1024.67" x2="106.76" y2="1043.85" gradientUnits="userSpaceOnUse">
            <stop stop-color="#576ABD"/>
            <stop offset="1" stop-color="#1D154F"/>
        </linearGradient>
        <linearGradient id="paint5_linear" x1="143.629" y1="1024.67" x2="160.617" y2="1043.85" gradientUnits="userSpaceOnUse">
            <stop stop-color="#576ABD"/>
            <stop offset="1" stop-color="#1D154F"/>
        </linearGradient>
        <linearGradient id="paint6_linear" x1="1126.48" y1="1179.7" x2="1140.37" y2="1192.3" gradientUnits="userSpaceOnUse">
            <stop stop-color="#576ABD"/>
            <stop offset="1" stop-color="#1D154F"/>
        </linearGradient>
        <linearGradient id="paint7_linear" x1="1390.4" y1="1179.7" x2="1404.3" y2="1195.4" gradientUnits="userSpaceOnUse">
            <stop stop-color="#576ABD"/>
            <stop offset="1" stop-color="#1D154F"/>
        </linearGradient>
        <linearGradient id="paint8_linear" x1="1434.75" y1="1179.7" x2="1448.6" y2="1195.4" gradientUnits="userSpaceOnUse">
            <stop stop-color="#576ABD"/>
            <stop offset="1" stop-color="#1D154F"/>
        </linearGradient>
    </defs>
</svg>
