<svg width="558" height="459" viewBox="0 0 558 459" fill="none" xmlns="http://www.w3.org/2000/svg">
    <path fill-rule="evenodd" clip-rule="evenodd" d="M508.944 75.1385C542.983 108.376 565.164 145.819 581.496 187.336C605.98 249.573 673.235 317.136 627.361 376.154C582.504 433.863 472.828 417.329 391.104 432.276C322.389 444.844 255.325 466.386 188.261 456.465C117.06 445.931 30.2859 429.29 7.24668 375.489C-16.3042 320.493 31.0326 250.74 47.2424 191.556C59.0391 148.485 18.707 99.7362 54.3254 64.4596C90.0446 29.0833 158.534 42.0877 212.013 28.3667C262.151 15.5027 341.181 -4.36446 391.389 1.70247C443.318 7.9774 476.724 43.6765 508.944 75.1385Z" fill="#F1F1FB"/>
    <path opacity="0.81" d="M452.461 201.745C451.03 200.283 449.55 198.877 448.02 197.528L454.927 170.878C448.265 166.234 441.111 162.34 433.593 159.268L414.957 179.519C412.994 178.966 411.01 178.485 409.003 178.075L401.653 151.536C393.565 150.835 385.423 151.042 377.381 152.154L371.362 179.034C370.129 179.35 368.899 179.69 367.67 180.07C366.941 180.292 366.218 180.522 365.501 180.76L345.864 161.451C338.506 164.879 331.556 169.121 325.143 174.097L333.368 200.381C331.906 201.812 330.5 203.292 329.151 204.822L302.501 197.915C297.856 204.576 293.963 211.731 290.891 219.248L311.14 237.883C310.587 239.845 310.106 241.83 309.696 243.836L283.157 251.187C282.452 259.276 282.655 267.419 283.763 275.462L310.643 281.483C310.959 282.715 311.299 283.946 311.679 285.175C311.901 285.904 312.131 286.627 312.369 287.344L293.06 306.98C296.488 314.337 300.73 321.287 305.706 327.7L331.997 319.493C333.427 320.955 334.908 322.361 336.438 323.71L329.531 350.359C336.193 355.005 343.349 358.898 350.868 361.97L369.502 341.721C371.465 342.273 373.449 342.755 375.456 343.164L382.806 369.704C390.895 370.405 399.036 370.198 407.078 369.085L413.092 342.196C414.325 341.88 415.556 341.539 416.784 341.16C417.513 340.937 418.236 340.707 418.953 340.469L438.589 359.779C445.946 356.35 452.896 352.108 459.309 347.132L451.085 320.849C452.547 319.418 453.952 317.937 455.301 316.407L481.951 323.314C486.596 316.653 490.49 309.498 493.561 301.981L473.312 283.347C473.865 281.384 474.346 279.399 474.756 277.393L501.295 270.042C501.996 261.954 501.788 253.812 500.675 245.77L473.796 239.751C473.48 238.52 473.14 237.289 472.76 236.059C472.538 235.331 472.307 234.607 472.069 233.889L491.377 214.253C487.948 206.896 483.707 199.946 478.731 193.533L452.461 201.745ZM427.831 249.757C433.828 269.421 422.748 290.222 403.084 296.217C383.421 302.212 362.621 291.136 356.629 271.472C350.638 251.808 361.713 231.007 381.376 225.012C401.04 219.017 421.838 230.095 427.833 249.759L427.831 249.757Z" fill="#9CB7E8"/>
    <g opacity="0.74">
        <g opacity="0.31">
            <path opacity="0.31" d="M355.546 259.371C355.319 253.23 353.889 247.194 351.337 241.604C348.775 235.95 345.152 230.84 340.662 226.554C331.195 217.525 318.566 212.566 305.484 212.74C299.279 212.829 293.148 214.11 287.425 216.511C281.751 218.873 276.597 222.325 272.252 226.671C267.788 231.149 264.291 236.498 261.981 242.384C259.67 248.271 258.594 254.569 258.821 260.889C259.048 267.03 260.478 273.067 263.03 278.657C265.591 284.31 269.213 289.42 273.701 293.707C283.169 302.735 295.798 307.694 308.879 307.52C315.085 307.432 321.217 306.151 326.94 303.749C332.614 301.388 337.769 297.936 342.113 293.589C346.578 289.111 350.074 283.763 352.385 277.876C354.696 271.99 355.772 265.691 355.546 259.371ZM290.623 302.309C284.817 300.045 279.513 296.663 275.012 292.355C270.698 288.233 267.216 283.323 264.753 277.888C262.304 272.521 260.931 266.726 260.713 260.83C260.496 254.769 261.528 248.727 263.745 243.081C265.961 237.435 269.315 232.305 273.598 228.009C277.768 223.836 282.717 220.522 288.164 218.254C293.665 215.946 299.558 214.716 305.522 214.628C318.101 214.46 330.244 219.227 339.35 227.906C343.663 232.026 347.144 236.936 349.607 242.369C352.057 247.736 353.43 253.532 353.649 259.428C353.865 265.49 352.833 271.532 350.617 277.178C348.4 282.824 345.047 287.954 340.764 292.249C336.593 296.422 331.643 299.735 326.196 302.002C320.695 304.31 314.803 305.541 308.838 305.628C302.607 305.725 296.419 304.597 290.623 302.309Z" fill="white"/>
        </g>
    </g>
    <g opacity="0.74">
        <path opacity="0.31" d="M374.24 288.758C374.213 288.748 374.189 288.732 374.168 288.713C374.148 288.693 374.131 288.669 374.12 288.643C374.108 288.617 374.102 288.589 374.102 288.56C374.101 288.531 374.107 288.503 374.117 288.477C381.076 270.749 380.715 251.372 373.1 233.913C365.486 216.455 351.529 203.005 333.801 196.052C316.073 189.099 296.696 189.454 279.237 197.069C261.779 204.684 248.33 218.641 241.376 236.368C241.355 236.422 241.314 236.465 241.261 236.488C241.208 236.511 241.148 236.512 241.095 236.491C241.041 236.47 240.998 236.429 240.975 236.376C240.952 236.323 240.951 236.263 240.972 236.21C247.974 218.375 261.501 204.331 279.063 196.668C296.625 189.005 316.119 188.644 333.956 195.644C351.793 202.644 365.834 216.173 373.497 233.735C381.16 251.297 381.521 270.792 374.521 288.629C374.512 288.656 374.497 288.681 374.477 288.702C374.458 288.724 374.434 288.741 374.408 288.753C374.382 288.765 374.353 288.772 374.324 288.772C374.296 288.773 374.267 288.768 374.24 288.758Z" fill="white"/>
    </g>
    <path opacity="0.79" d="M275.677 263.447C274.828 262.58 273.951 261.746 273.043 260.946L277.136 245.149C273.187 242.395 268.946 240.087 264.489 238.266L253.439 250.268C252.275 249.942 251.098 249.654 249.909 249.405L245.556 233.677C240.761 233.261 235.935 233.384 231.168 234.043L227.599 249.977C226.868 250.165 226.138 250.365 225.409 250.588C224.978 250.719 224.549 250.856 224.123 250.999L212.483 239.553C208.118 241.587 203.995 244.105 200.191 247.059L205.067 262.638C204.2 263.487 203.367 264.364 202.567 265.27L186.769 261.179C184.016 265.128 181.708 269.369 179.887 273.826L191.889 284.877C191.562 286.04 191.274 287.217 191.026 288.406L175.294 292.762C174.882 297.556 175.009 302.382 175.672 307.147L191.606 310.717C191.794 311.447 191.994 312.177 192.217 312.906C192.348 313.338 192.485 313.766 192.628 314.192L181.182 325.832C183.214 330.195 185.729 334.316 188.679 338.119L204.259 333.243C205.107 334.11 205.984 334.943 206.89 335.743L202.8 351.541C206.749 354.294 210.99 356.602 215.446 358.423L226.497 346.421C227.661 346.748 228.837 347.036 230.026 347.284L234.379 363.006C239.174 363.422 244 363.299 248.768 362.64L252.337 346.704C253.067 346.516 253.798 346.316 254.526 346.093C254.958 345.962 255.387 345.825 255.813 345.682L267.456 357.135C271.819 355.103 275.94 352.588 279.743 349.638L274.867 334.058C275.734 333.21 276.567 332.332 277.367 331.426L293.165 335.517C295.918 331.568 298.226 327.327 300.047 322.871L288.045 311.82C288.372 310.656 288.66 309.48 288.908 308.291L304.64 303.934C305.055 299.139 304.932 294.313 304.272 289.546L288.338 285.976C288.15 285.246 287.95 284.516 287.727 283.789C287.596 283.357 287.459 282.928 287.316 282.502L298.763 270.863C296.73 266.5 294.215 262.378 291.265 258.576L275.677 263.447ZM256.999 293.153C258.026 296.52 258.031 300.116 257.014 303.487C255.997 306.857 254.003 309.85 251.285 312.088C248.567 314.325 245.246 315.706 241.743 316.056C238.24 316.406 234.712 315.71 231.604 314.055C228.497 312.4 225.95 309.861 224.286 306.758C222.622 303.656 221.915 300.13 222.255 296.625C222.595 293.121 223.966 289.797 226.196 287.072C228.425 284.347 231.412 282.345 234.78 281.318C237.016 280.636 239.364 280.401 241.691 280.627C244.018 280.853 246.277 281.534 248.341 282.633C250.404 283.732 252.23 285.227 253.716 287.032C255.202 288.837 256.317 290.917 256.999 293.153Z" fill="#9CB7E8"/>
    <g opacity="0.74">
        <g opacity="0.31">
            <path opacity="0.31" d="M183.613 297.607C183.478 293.967 182.631 290.388 181.118 287.075C179.6 283.723 177.452 280.694 174.791 278.153C169.179 272.801 161.692 269.863 153.938 269.967C150.259 270.02 146.625 270.779 143.233 272.203C139.87 273.603 136.815 275.649 134.24 278.225C131.593 280.88 129.521 284.05 128.151 287.54C126.782 291.029 126.144 294.763 126.278 298.509C126.413 302.149 127.261 305.728 128.773 309.042C130.291 312.393 132.439 315.422 135.1 317.963C140.713 323.315 148.199 326.254 155.953 326.15C159.632 326.097 163.266 325.339 166.659 323.915C170.022 322.515 173.078 320.469 175.653 317.893C178.3 315.238 180.372 312.068 181.742 308.578C183.111 305.089 183.749 301.355 183.615 297.609L183.613 297.607ZM145.13 323.061C141.688 321.718 138.544 319.713 135.875 317.159C133.318 314.716 131.253 311.805 129.794 308.584C128.342 305.403 127.528 301.967 127.399 298.472C127.27 294.879 127.882 291.298 129.196 287.951C130.51 284.604 132.497 281.563 135.036 279.016C137.508 276.543 140.441 274.578 143.669 273.233C146.93 271.866 150.423 271.137 153.959 271.085C161.415 270.986 168.613 273.812 174.011 278.957C176.567 281.4 178.631 284.31 180.091 287.53C181.543 290.712 182.358 294.148 182.487 297.644C182.616 301.237 182.004 304.818 180.69 308.165C179.377 311.512 177.389 314.554 174.85 317.1C172.378 319.573 169.445 321.537 166.217 322.881C162.956 324.249 159.463 324.979 155.927 325.031C152.234 325.087 148.566 324.418 145.13 323.061Z" fill="white"/>
        </g>
    </g>
    <g opacity="0.74">
        <path opacity="0.31" d="M194.693 315.026C194.677 315.02 194.662 315.011 194.649 314.999C194.636 314.987 194.626 314.972 194.619 314.956C194.612 314.94 194.609 314.922 194.609 314.905C194.61 314.887 194.613 314.87 194.621 314.854C198.717 304.419 198.5 292.785 194.017 282.51C189.535 272.236 181.155 264.162 170.721 260.067C160.286 255.971 148.652 256.188 138.377 260.67C128.103 265.152 120.029 273.532 115.934 283.967C115.921 283.998 115.897 284.024 115.866 284.037C115.835 284.051 115.799 284.052 115.768 284.039C115.736 284.027 115.711 284.002 115.697 283.971C115.684 283.94 115.683 283.905 115.695 283.873C119.817 273.375 127.94 264.945 138.277 260.436C148.615 255.927 160.32 255.709 170.818 259.831C181.316 263.952 189.747 272.075 194.256 282.413C198.765 292.751 198.982 304.456 194.861 314.954C194.855 314.97 194.845 314.984 194.834 314.996C194.822 315.009 194.808 315.019 194.792 315.025C194.777 315.032 194.76 315.036 194.743 315.036C194.726 315.036 194.709 315.033 194.693 315.026Z" fill="white"/>
    </g>
    <path d="M353.275 177.299L255.542 202.92L289.177 331.222L386.91 305.601L353.275 177.299Z" fill="url(#paint0_linear)"/>
    <path d="M191.638 216.643L188.551 242.949L195.28 238.257L200.74 244.38L203.827 218.072L191.638 216.643Z" fill="#273271"/>
    <path d="M199.424 214.403L215.019 235.813L206.855 235.027L205.101 243.039L189.504 221.631L199.424 214.403Z" fill="#273271"/>
    <path d="M199.106 230.715C206.185 228.859 210.419 221.616 208.564 214.537C206.708 207.458 199.465 203.224 192.386 205.08C185.307 206.936 181.073 214.179 182.929 221.258C184.784 228.337 192.027 232.571 199.106 230.715Z" fill="#F2BA49"/>
    <path d="M198.629 228.86C204.712 227.266 208.35 221.042 206.755 214.959C205.161 208.877 198.937 205.238 192.854 206.833C186.772 208.428 183.134 214.651 184.728 220.734C186.323 226.817 192.546 230.455 198.629 228.86Z" fill="#FFD34D"/>
    <path d="M283.207 227.239C281.349 227.726 279.389 227.651 277.573 227.024C275.758 226.397 274.169 225.246 273.008 223.716C271.847 222.186 271.166 220.346 271.05 218.429C270.934 216.512 271.389 214.604 272.358 212.945C273.327 211.287 274.765 209.953 276.492 209.112C278.219 208.271 280.156 207.961 282.059 208.221C283.962 208.481 285.745 209.299 287.183 210.572C288.621 211.845 289.65 213.516 290.138 215.374C290.791 217.866 290.427 220.516 289.128 222.741C287.828 224.965 285.699 226.583 283.207 227.239ZM278.473 209.178C276.758 209.628 275.216 210.576 274.04 211.902C272.865 213.228 272.109 214.874 271.869 216.63C271.628 218.385 271.914 220.173 272.69 221.767C273.466 223.36 274.697 224.688 276.227 225.582C277.757 226.475 279.518 226.895 281.287 226.788C283.057 226.681 284.754 226.052 286.165 224.98C287.577 223.908 288.638 222.441 289.216 220.766C289.794 219.09 289.862 217.281 289.411 215.567C288.805 213.271 287.313 211.309 285.263 210.111C283.212 208.913 280.77 208.578 278.473 209.178Z" fill="#FF8888"/>
    <path d="M199.915 213.768L190.105 216.34L190.296 217.068L200.106 214.496L199.915 213.768Z" fill="#F2BA49"/>
    <path d="M200.552 216.196L190.742 218.768L190.933 219.496L200.742 216.924L200.552 216.196Z" fill="#F2BA49"/>
    <path d="M201.19 218.625L191.381 221.196L191.572 221.925L201.381 219.353L201.19 218.625Z" fill="#F2BA49"/>
    <path d="M258.228 197.409L220.38 207.331L220.482 207.722L258.33 197.8L258.228 197.409Z" fill="#9DA7B2"/>
    <path d="M259.624 203.704L221.671 213.486L221.772 213.878L259.725 204.096L259.624 203.704Z" fill="#9DA7B2"/>
    <path d="M438.292 211.017L339.046 172.741L288.798 303.028L388.044 341.304L438.292 211.017Z" fill="url(#paint1_linear)"/>
    <path d="M263.634 197.435L244.805 218.005L253.44 218.14L254.336 226.728L273.164 206.158L263.634 197.435Z" fill="#005EB3"/>
    <path d="M271.66 200.315L271.807 228.2L265.316 222.503L258.886 228.267L258.741 200.383L271.66 200.315Z" fill="#0072D9"/>
    <path d="M362.601 205.32C364.983 199.143 361.907 192.205 355.73 189.823C349.554 187.44 342.615 190.517 340.233 196.693C337.851 202.87 340.927 209.808 347.104 212.19C353.28 214.572 360.219 211.496 362.601 205.32Z" fill="#FCE1C0"/>
    <path d="M262.723 210.529C260.836 209.8 259.208 208.529 258.044 206.875C256.88 205.222 256.232 203.26 256.183 201.239C256.133 199.217 256.685 197.226 257.767 195.518C258.849 193.809 260.413 192.46 262.262 191.641C264.111 190.821 266.161 190.568 268.154 190.914C270.146 191.26 271.991 192.189 273.456 193.583C274.92 194.978 275.939 196.775 276.382 198.748C276.825 200.721 276.673 202.781 275.946 204.668C274.968 207.197 273.026 209.235 270.547 210.334C268.067 211.432 265.254 211.503 262.723 210.529ZM269.802 192.188C268.062 191.516 266.161 191.376 264.34 191.786C262.52 192.195 260.862 193.134 259.576 194.486C258.289 195.837 257.433 197.54 257.114 199.378C256.796 201.216 257.029 203.108 257.786 204.813C258.542 206.519 259.787 207.962 261.364 208.959C262.94 209.957 264.777 210.465 266.642 210.419C268.507 210.373 270.317 209.775 271.842 208.7C273.367 207.625 274.539 206.122 275.21 204.382C276.107 202.046 276.04 199.45 275.024 197.164C274.009 194.878 272.128 193.088 269.794 192.188H269.802Z" fill="#F2BA49"/>
    <path d="M262.528 196.251L262.243 196.99L272.204 200.832L272.489 200.092L262.528 196.251Z" fill="#F2BA49"/>
    <path d="M261.576 198.716L261.291 199.456L271.252 203.297L271.537 202.558L261.576 198.716Z" fill="#F2BA49"/>
    <path d="M260.626 201.182L260.341 201.922L270.302 205.764L270.587 205.024L260.626 201.182Z" fill="#F2BA49"/>
    <path d="M237.636 329.508C237.636 329.508 254.597 354.989 237.636 372.675H445.027C445.027 372.675 466.265 367.975 466.265 351.092C466.265 334.208 459.395 322.912 428.796 323.941C398.197 324.97 237.636 329.508 237.636 329.508Z" fill="#A0A0A0"/>
    <path d="M237.636 385.051H438.45C457.343 385.051 472.711 369.818 472.711 351.092C472.711 332.366 457.343 317.133 438.45 317.133H237.636V329.508H438.45C450.457 329.508 460.224 339.193 460.224 351.092C460.224 362.99 450.457 372.675 438.45 372.675H237.636V385.051Z" fill="#9595CB"/>
    <path d="M243.423 317.464H443.265C445.827 317.464 447.904 315.387 447.904 312.825V265.532C447.904 262.97 445.827 260.893 443.265 260.893H243.423C240.86 260.893 238.783 262.97 238.783 265.532V312.825C238.783 315.387 240.86 317.464 243.423 317.464Z" fill="#273271"/>
    <g opacity="0.67">
        <path opacity="0.67" d="M260.238 273.498H426.194V305.345H260.238V273.498ZM424.447 275.552H261.989V303.29H424.441L424.447 275.552Z" fill="#FFE0AE"/>
    </g>
    <g opacity="0.67">
        <path opacity="0.67" d="M408.1 288.394H280.672V290.449H408.1V288.394Z" fill="#FFE0AE"/>
    </g>
    <path d="M415.052 394.734L424.554 381.72L434.056 394.734V363.443H415.052V394.734Z" fill="#7D7DC5"/>
    <path d="M258.701 235.103C258.701 235.103 269.008 247.107 258.701 255.44H384.719C384.719 255.44 397.619 253.226 397.619 245.271C397.619 237.317 393.444 231.997 374.854 232.482C356.264 232.967 258.701 235.103 258.701 235.103Z" fill="#141939"/>
    <path d="M258.701 261.269H380.72C392.2 261.269 401.538 254.093 401.538 245.271C401.538 236.45 392.2 229.274 380.72 229.274H258.701V235.103H380.72C388.017 235.103 393.95 239.665 393.95 245.271C393.95 250.878 388.015 255.44 380.72 255.44H258.701V261.269Z" fill="#E8443C"/>
    <path d="M121.505 370.116L122.179 387.542L121.357 396.029C121.293 396.374 121.305 396.728 121.391 397.068C121.477 397.408 121.635 397.725 121.855 397.998C122.076 398.271 122.352 398.494 122.666 398.65C122.98 398.806 123.324 398.893 123.674 398.904C130.809 399.123 149.075 399.605 149.564 398.812C151.861 395.097 142.112 391.319 133.884 387.694C129.177 385.622 134.635 358.948 134.635 358.948L121.505 370.116Z" fill="#72778C"/>
    <path d="M117.992 302.485C117.058 309.152 116.402 352.387 117.903 374.089H134.543C137.675 350.805 139.105 311.723 140.016 305.205C140.028 305.122 140.034 305.032 140.044 304.956C145.164 282.309 140.317 239.035 139.388 230.018C138.967 225.939 129.632 221.516 120.222 221.73C110.811 221.944 106.178 217.945 106.453 230.056C106.624 237.648 118.434 299.327 117.992 302.485Z" fill="#660E0E"/>
    <path d="M83.7659 370.116L83.3152 387.542L83.184 396.029C83.1205 396.373 83.1319 396.727 83.2175 397.066C83.303 397.405 83.4607 397.722 83.6798 397.995C83.8989 398.268 84.1743 398.49 84.4871 398.647C84.7999 398.804 85.1429 398.891 85.4926 398.904C92.6273 399.123 110.894 399.605 111.383 398.812C113.679 395.096 100.858 391.835 95.7008 388.127C89.0893 383.372 98.8831 358.946 98.8831 358.946L83.7659 370.116Z" fill="#72778C"/>
    <path d="M91.9825 302.485C91.0483 309.152 82.5996 348.987 82.4062 373.571L97.1263 374.608C101.723 353.556 111.565 311.723 112.483 305.205C112.496 305.122 112.499 305.032 112.511 304.956C117.631 282.309 122.206 237.926 122.008 228.996C121.733 216.883 111.846 207.519 102.438 207.733C93.0289 207.947 88.8658 218.347 89.1421 230.46C89.3096 238.064 92.4245 299.327 91.9825 302.485Z" fill="#660E0E"/>
    <path d="M114.763 400.712V398.272C114.763 398.111 114.417 397.98 114.003 397.98L81.4807 397.552C81.0629 397.552 80.7158 397.681 80.7158 397.844V400.71C80.7158 400.869 81.0612 401 81.4807 401H114.003C114.419 400.993 114.763 400.87 114.763 400.712Z" fill="#161616"/>
    <path d="M100.641 398.077H114.51C114.51 398.077 117.233 394.829 113.196 393.864C113.196 393.864 100.381 392.456 94.5894 384.909C94.5894 384.909 91.8647 381.839 94.1473 389.212C94.1473 389.212 94.4927 394.565 88.4493 391.843C88.4493 391.843 86.3772 391.134 84.5003 386.577C84.5003 386.577 83.58 384.728 82.171 385.12C81.6133 385.303 80.9416 385.955 80.8984 388.069V397.65L94.5048 397.864L100.641 398.077Z" fill="#385277"/>
    <path d="M153.304 399.714V397.274C153.304 397.113 152.959 396.982 152.544 396.982L120.026 396.554C119.606 396.554 119.261 396.683 119.261 396.846V399.712C119.261 399.871 119.606 400.002 120.026 400.002H152.544C152.961 400.004 153.304 399.872 153.304 399.714Z" fill="#161616"/>
    <path d="M139.185 397.079H153.054C153.054 397.079 155.777 393.831 151.74 392.866C151.74 392.866 138.925 391.458 133.133 383.911C133.133 383.911 130.409 380.841 132.691 388.214C132.691 388.214 133.037 393.567 126.993 390.845C126.993 390.845 124.921 390.136 123.044 385.579C123.044 385.579 122.124 383.73 120.715 384.122C120.157 384.305 119.486 384.957 119.442 387.071V396.652L133.049 396.866L139.185 397.079Z" fill="#385277"/>
    <path d="M102.324 142.335C102.324 142.335 107.796 135.556 114.017 154.171C121.813 177.499 135.256 196.114 135.256 196.114L181.262 202.776L176.106 218.098C176.106 218.098 119.936 218.701 114.497 207.911C109.058 197.121 77.477 152.987 102.324 142.335Z" fill="#9CB7E8"/>
    <g opacity="0.2">
        <path opacity="0.2" d="M192.623 207.258L188.685 208.474L195.641 208.731L192.623 207.258Z" fill="black"/>
    </g>
    <path d="M205.227 208.812L196.939 204.817C195.876 204.256 194.687 203.978 193.486 204.009L181.898 204.216L194.125 206.625L187.919 208.709L179.33 211.259C179.101 211.313 178.885 211.412 178.696 211.552C178.507 211.692 178.348 211.869 178.23 212.073C178.112 212.276 178.036 212.502 178.008 212.736C177.98 212.969 178 213.206 178.067 213.432C178.134 213.657 178.247 213.867 178.398 214.048C178.549 214.228 178.735 214.376 178.945 214.482C179.155 214.588 179.385 214.65 179.62 214.664C179.854 214.678 180.09 214.644 180.311 214.564L186.942 212.596L186.954 212.637L181.758 214.179C181.344 214.329 181.003 214.631 180.805 215.024C180.606 215.417 180.566 215.871 180.691 216.294C180.816 216.716 181.098 217.074 181.479 217.295C181.859 217.516 182.31 217.584 182.739 217.484L187.927 215.944L187.94 215.985L184.179 217.1C183.765 217.25 183.424 217.553 183.226 217.946C183.027 218.339 182.986 218.793 183.112 219.215C183.237 219.637 183.519 219.996 183.899 220.217C184.28 220.438 184.731 220.505 185.16 220.405L188.908 219.293V219.318L188.076 219.563C187.687 219.678 187.359 219.942 187.165 220.298C186.971 220.654 186.926 221.073 187.04 221.462L187.149 221.83C187.264 222.219 187.528 222.546 187.884 222.741C188.24 222.935 188.659 222.98 189.048 222.866L190.257 222.512L197.423 220.689C199.84 220.383 202.482 217.123 202.482 217.123L203.229 208.42L205.227 208.812Z" fill="#F2B3A5"/>
    <path opacity="0.9" d="M188.12 202.909C189.399 202.823 190.679 203.057 191.844 203.589C195.336 205.184 200.257 207.431 199.827 208.251C198.907 210.009 196.292 209.667 192.15 207.446L177.432 212.145L182.044 202.993L188.12 202.909Z" fill="#E8B69B"/>
    <path d="M183.026 201.467L176.865 200.239L169.955 219.072L176.188 219.093L183.026 201.467Z" fill="#9CB7E8"/>
    <path d="M197.435 219.558L197.09 218.048C196.893 217.225 197.526 216.367 198.505 216.132C199.484 215.897 200.438 216.375 200.636 217.199L200.982 218.708C201.178 219.532 200.545 220.39 199.566 220.625C198.59 220.859 197.632 220.381 197.435 219.558Z" fill="#E8B69B"/>
    <path d="M194.211 221.314L193.866 219.805C193.669 218.981 194.303 218.123 195.282 217.888C196.261 217.653 197.214 218.131 197.413 218.955L197.758 220.464C197.955 221.288 197.321 222.146 196.342 222.381C195.361 222.616 194.408 222.139 194.211 221.314Z" fill="#E8B69B"/>
    <path d="M190.701 222.367L190.592 221.787C190.543 221.58 190.535 221.365 190.568 221.155C190.601 220.945 190.676 220.743 190.787 220.562C190.898 220.38 191.044 220.223 191.216 220.098C191.389 219.973 191.584 219.883 191.791 219.834L192.186 219.739C192.393 219.689 192.608 219.681 192.818 219.714C193.028 219.748 193.23 219.822 193.411 219.933C193.592 220.045 193.75 220.19 193.875 220.363C194 220.535 194.09 220.73 194.139 220.937L194.206 221.345C194.306 221.762 194.235 222.202 194.01 222.567C193.786 222.933 193.425 223.194 193.008 223.294L192.437 223.43C192.065 223.519 191.674 223.457 191.349 223.258C191.023 223.058 190.791 222.738 190.701 222.367Z" fill="#E8B69B"/>
    <path d="M123.642 142.433C134.003 144.851 135.807 146.88 138.147 166.262C139.355 176.277 135.743 187.5 136.61 197.888C138.438 219.817 141.6 242.754 141.6 242.754C141.6 242.754 122.177 246.919 115.7 247.157C109.223 247.396 88.936 244.654 88.936 244.654C88.936 244.654 85.9522 197.919 86.0006 157.974C86.0196 143.388 105.397 138.184 123.642 142.433Z" fill="#8BACE8"/>
    <path d="M123.044 114.708L107.504 118.852L106.191 138.98C106.635 144.472 120.454 149.019 120.454 149.019C123.743 149.257 122.103 142.224 121.815 137.312C121.483 131.665 123.044 114.708 123.044 114.708Z" fill="url(#paint2_linear)"/>
    <path d="M106.708 118.199C107.975 119.632 109.847 119.839 110.888 118.663C111.929 117.488 111.751 115.369 110.479 113.936C109.206 112.503 107.34 112.295 106.298 113.471C105.257 114.647 105.44 116.766 106.708 118.199Z" fill="#FFB780"/>
    <path d="M96.4698 143.716C96.4698 143.716 113.02 144.906 105.312 163.007C92.3343 193.495 87.2941 207.246 87.2941 207.246L87.1508 259.047L71.3654 255.022C71.3654 255.022 68.0743 215.584 70.136 203.497C72.6621 188.693 80.56 141.411 96.4698 143.716Z" fill="#9CB7E8"/>
    <path d="M83.1146 292.617C82.7326 292.617 82.3522 292.569 81.9818 292.476L66.2551 288.521C65.0616 288.219 64.0361 287.457 63.4023 286.402C62.7686 285.346 62.5782 284.083 62.8725 282.887L67.0563 266.242C67.2056 265.648 67.4704 265.09 67.8356 264.598C68.2008 264.107 68.6592 263.692 69.1846 263.378C69.71 263.064 70.2922 262.856 70.8979 262.767C71.5036 262.677 72.1209 262.708 72.7147 262.858L88.4414 266.812C89.6348 267.116 90.6595 267.88 91.2917 268.937C91.9238 269.993 92.1121 271.258 91.8154 272.453L87.623 289.103C87.3681 290.106 86.7867 290.996 85.9704 291.632C85.1542 292.268 84.1495 292.615 83.1146 292.617ZM71.5699 265.484C71.1504 265.485 70.7433 265.626 70.4128 265.884C70.0823 266.142 69.8472 266.503 69.7448 266.91L65.561 283.555C65.4392 284.04 65.5151 284.554 65.7719 284.983C66.0287 285.412 66.4453 285.721 66.9303 285.843L82.657 289.797C83.1419 289.919 83.6554 289.843 84.0845 289.587C84.5135 289.33 84.823 288.913 84.9449 288.428L89.1286 271.783C89.2499 271.298 89.1739 270.785 88.9171 270.356C88.6604 269.927 88.2441 269.617 87.7594 269.495L72.0327 265.541C71.8813 265.503 71.7259 265.484 71.5699 265.484Z" fill="#141939"/>
    <path d="M100.01 329.527L33.6705 312.849C33.4426 312.791 33.2468 312.646 33.126 312.444C33.0053 312.243 32.9695 312.001 33.0265 311.773L44.7542 265.125C44.8116 264.897 44.9572 264.701 45.1588 264.58C45.3605 264.46 45.6019 264.424 45.8299 264.481L112.169 281.161C112.397 281.218 112.593 281.364 112.714 281.565C112.835 281.767 112.87 282.008 112.813 282.236L101.086 328.885C101.028 329.112 100.882 329.308 100.681 329.428C100.479 329.548 100.238 329.584 100.01 329.527Z" fill="#9499AF"/>
    <path d="M82.9259 261.281L83.6632 270.179C83.7219 270.885 84.5387 271.388 85.4866 271.315C86.4346 271.236 87.1563 270.6 87.0993 269.894L86.3551 260.998C86.3016 260.363 85.566 259.903 84.7113 259.974L84.366 260.002C83.5234 260.073 82.8724 260.646 82.9259 261.281Z" fill="#FFB780"/>
    <path d="M79.3553 260.466L80.1806 270.416C80.2462 271.205 81.0681 271.781 82.0161 271.702C82.9658 271.623 83.6806 270.92 83.615 270.131L82.7897 260.181C82.731 259.47 81.9902 258.95 81.1355 259.023L80.7901 259.05C79.9423 259.121 79.2966 259.75 79.3553 260.466Z" fill="#FFB780"/>
    <path d="M75.7602 259.341L76.6339 269.873C76.703 270.709 77.5284 271.322 78.478 271.244C79.426 271.165 80.1391 270.424 80.0701 269.588L79.1963 259.056C79.1342 258.303 78.39 257.75 77.5353 257.821L77.1899 257.849C76.3404 257.919 75.6963 258.586 75.7602 259.341Z" fill="#FFB780"/>
    <path d="M72.1565 258.13L73.0561 268.739C73.0727 268.939 73.1285 269.134 73.2205 269.313C73.3125 269.492 73.4389 269.651 73.5923 269.781C73.7458 269.911 73.9233 270.01 74.1148 270.071C74.3064 270.133 74.5081 270.156 74.7086 270.139L75.0919 270.108C75.2923 270.091 75.4876 270.036 75.6664 269.944C75.8453 269.852 76.0043 269.725 76.1343 269.572C76.2643 269.418 76.3629 269.241 76.4243 269.049C76.4857 268.858 76.5088 268.656 76.4922 268.456L75.5926 257.85C75.5778 257.672 75.5281 257.499 75.4462 257.34C75.3643 257.181 75.252 257.04 75.1155 256.924C74.979 256.809 74.8212 256.721 74.6509 256.667C74.4807 256.612 74.3013 256.592 74.1232 256.607L73.4015 256.667C73.0427 256.697 72.7102 256.867 72.4769 257.142C72.2436 257.416 72.1284 257.771 72.1565 258.13Z" fill="#FFB780"/>
    <path d="M72.9991 267.881L86.7625 266.712L86.2445 255.574L81.4702 253.2L73.5447 254.143C73.5447 254.143 71.464 257.785 72.0563 260.152L72.9991 267.881Z" fill="#FFB780"/>
    <path d="M120.36 109.246C117.017 108.102 113.356 108.332 110.183 109.887C107.01 111.441 104.584 114.192 103.438 117.534C103.369 117.738 103.305 117.943 103.245 118.147C102.67 118.099 102.091 118.173 101.547 118.364C101.003 118.555 100.505 118.859 100.086 119.256C99.6672 119.653 99.3369 120.133 99.1167 120.667C98.8966 121.2 98.7915 121.774 98.8084 122.35C98.8253 122.927 98.9637 123.493 99.2147 124.013C99.4657 124.532 99.8235 124.993 100.265 125.364C100.706 125.736 101.221 126.01 101.775 126.169C102.33 126.328 102.912 126.368 103.483 126.287C104.235 128.414 105.515 130.317 107.202 131.814C108.89 133.312 110.931 134.357 113.133 134.85C115.335 135.344 117.627 135.27 119.792 134.635C121.958 134.001 123.927 132.827 125.515 131.223C127.103 129.62 128.258 127.639 128.871 125.467C129.484 123.295 129.535 121.003 129.02 118.806C128.505 116.609 127.44 114.579 125.925 112.906C124.411 111.233 122.496 109.971 120.361 109.241L120.36 109.246Z" fill="url(#paint3_linear)"/>
    <path d="M130.671 105.371C130.671 105.371 114.321 104.059 109.203 103.847C106.587 103.738 104.196 104.638 103.332 106.437C102.51 108.143 101.122 114.639 101.97 118.156C102.616 118.114 103.263 118.23 103.855 118.494C104.446 118.758 104.965 119.161 105.366 119.67C106.304 118.016 106.38 114.317 114.096 114.317C116.847 115.811 119.542 116.484 120.874 116.883C124.577 117.993 129.315 116.802 130.334 113.402C131.353 110.002 130.671 105.371 130.671 105.371Z" fill="#210B27"/>
    <path d="M88.3207 259.454L88.0997 251.391L69.9971 250.61L71.1781 258.883L88.3207 259.454Z" fill="#9CB7E8"/>
    <path d="M291.831 138.631C287.558 137.277 285.853 134.342 283.766 130.376C280.416 124.011 275.873 114.205 268.398 109.961C264.979 108.022 262.058 106.554 257.601 107.046C248.388 108.062 241.647 115.476 242.543 123.605C242.838 126.217 243.894 128.684 245.578 130.702C243.539 135.397 242.643 140.853 243.275 146.553C244.917 161.442 251.938 168.967 264.686 168.399C266.872 175.093 268.371 171.108 280.444 170.376C284.265 170.145 288.184 169.972 291.919 169.38C300.314 168.05 305.569 159.52 303.039 151.405C301.107 145.211 297.832 140.53 291.831 138.631Z" fill="url(#paint4_linear)"/>
    <path d="M221.466 251.116C221.466 251.116 220.494 257.564 221.121 260.613C221.984 264.814 226.128 268.038 227.682 268.383C229.236 268.729 223.883 259.405 226.128 259.059C227.594 258.886 228.373 264.585 228.373 264.585C228.373 264.585 229.927 266.139 229.927 263.549C229.927 260.959 229.927 255.951 228.891 253.361C227.855 250.771 221.466 251.116 221.466 251.116Z" fill="url(#paint5_linear)"/>
    <path d="M270.613 111.668C273.211 111.382 275.084 109.044 274.798 106.447C274.511 103.85 272.174 101.977 269.577 102.263C266.979 102.549 265.106 104.887 265.392 107.484C265.679 110.081 268.016 111.954 270.613 111.668Z" fill="#150927"/>
    <path d="M252.071 146.923C242.536 143.15 236.704 154.297 236.626 160.097C236.163 192.386 235.177 207.167 235.177 207.167L220.257 252.67L229.236 256.124C229.236 256.124 249.01 222.184 251.945 210.594C255.54 196.404 267.164 151.141 252.071 146.923Z" fill="#F59E35"/>
    <path d="M234.85 383.667C234.897 379.572 235.135 370.607 235.251 366.428C235.259 366.139 235.209 365.852 235.103 365.584C234.997 365.315 234.838 365.07 234.636 364.865C234.433 364.659 234.191 364.496 233.924 364.386C233.657 364.276 233.371 364.221 233.082 364.225L226.376 364.296C225.821 364.301 225.289 364.522 224.893 364.911C224.497 365.3 224.267 365.828 224.252 366.383L223.548 379.188C221.572 382.543 224.737 385.877 225.955 385.864L232.728 385.784C233.288 385.778 233.824 385.554 234.221 385.158C234.617 384.762 234.843 384.227 234.85 383.667Z" fill="#F2B3A5"/>
    <path d="M322.221 369.446C321.644 368.828 310.801 351.156 310.801 351.156L302.304 356.617L313.308 375.645L322.221 369.446Z" fill="#F2B3A5"/>
    <path d="M246.537 292.436L250.545 276.989C251.949 271.094 253.278 265.185 254.758 259.308L259.113 241.654C260.639 235.783 262.096 229.9 263.685 224.042L237.094 217.826C236.363 223.852 233.186 230.106 232.392 236.12L228.756 254.224C227.916 260.228 226.925 266.204 226.008 272.192L223.209 290.15L221.59 366.642L239.076 368.559L246.537 292.436Z" fill="#72778C"/>
    <path d="M247.642 222.646L258.932 291.985L259.034 292.849C259.209 294.281 259.669 295.663 260.386 296.915L300.161 365.613L315.141 355.581L281.038 285.465L282.493 290.398L283.296 242.156C283.814 230.76 279.257 222.127 272.894 222.265L247.642 222.646Z" fill="#9499AF"/>
    <path d="M248.183 145.443C248.183 145.443 241.739 147.895 234.678 165.564C231.57 173.334 239.441 183.098 237.564 201.612C235.4 222.959 233.193 232.086 233.193 232.086L282.266 231.796L279.963 223.128C278.036 215.218 275.389 206.942 277.777 199.158C282.257 184.554 284.269 172.367 284.02 158.738C283.754 144.514 265.954 141.224 248.183 145.443Z" fill="#F59E35"/>
    <path d="M202.447 392.116V389.666C202.447 389.504 202.793 389.372 203.21 389.372L235.864 388.942C236.285 388.942 236.632 389.074 236.632 389.236V392.114C236.632 392.273 236.287 392.406 235.864 392.406H203.21C202.793 392.408 202.447 392.277 202.447 392.116Z" fill="black"/>
    <path d="M216.627 389.471H202.701C202.701 389.471 199.968 386.211 204.02 385.24C204.02 385.24 216.888 383.828 222.703 376.249C222.703 376.249 225.438 373.167 223.147 380.566C223.147 380.566 222.802 385.941 228.874 383.208C228.874 383.208 230.946 382.495 232.846 377.919C232.846 377.919 233.771 376.061 235.184 376.457C235.743 376.641 236.417 377.296 236.462 379.418V389.037L222.8 389.251L216.627 389.471Z" fill="#557A93"/>
    <path d="M299.678 393.133L298.381 391.061C298.295 390.923 298.517 390.629 298.873 390.408L326.352 372.762C326.709 372.539 327.073 372.466 327.16 372.604L328.683 375.046C328.767 375.181 328.541 375.478 328.185 375.7L300.481 392.983C300.12 393.197 299.762 393.268 299.678 393.133Z" fill="black"/>
    <path d="M310.308 383.381L308.483 384.519L307.041 385.415L298.492 390.747C298.492 390.747 294.446 389.428 297.371 386.46C297.371 386.46 307.542 378.451 308.465 368.944C308.465 368.944 309.156 364.881 311.128 372.375C311.128 372.375 313.673 377.123 317.386 371.586C317.386 371.586 318.767 369.885 317.952 365C317.952 365 317.753 362.928 319.161 362.522C319.734 362.383 320.651 362.581 321.811 364.36L322.329 365.185L323.151 366.502L326.905 372.522L315.427 379.934L310.308 383.381Z" fill="#557A93"/>
    <path d="M251.292 125.271L263.621 125.916L263.4 144.486C263.055 149.847 250.184 154.501 250.184 154.501C246.981 154.788 249.381 147.824 250.184 143.094L251.292 125.271Z" fill="#F2B3A5"/>
    <path d="M276.907 147.219C276.907 147.219 268.175 144.315 261.959 162.302C254.16 184.842 243.572 202.304 243.572 202.304L197.509 208.175L202.927 217.967C202.927 217.967 251.591 222.536 256.919 212.164C262.248 201.791 299.997 158.22 276.907 147.219Z" fill="#F5AE57"/>
    <path d="M268.567 124.879C268.629 118.179 263.247 112.696 256.546 112.634C249.845 112.572 244.363 117.954 244.301 124.655C244.239 131.356 249.621 136.838 256.321 136.9C263.022 136.962 268.505 131.58 268.567 124.879Z" fill="url(#paint6_linear)"/>
    <path d="M267.51 116.705C269.853 118.777 270.478 122.837 269.96 125.919C269.308 129.797 270.456 132.054 267.524 130.964C261.76 128.822 252.36 121.941 251.12 115.224C251.12 115.224 244.711 123.339 243.228 118.615C243.164 118.413 243.269 118.035 243.476 117.558C244.918 114.255 247.221 113.119 250.742 112.345C253.232 111.798 255.936 109.928 260.93 112.38C262.75 113.274 265.989 115.364 267.51 116.705Z" fill="url(#paint7_linear)"/>
    <path d="M180.379 56H133.132C127.48 56 122.897 61.2043 122.897 67.6258V84.0294C122.897 90.4492 127.478 95.6552 133.132 95.6552H144.412L144.472 105.625L155.066 95.5412C155.836 95.4238 183.254 95.2114 183.96 94.911C187.844 93.2637 190.611 89.0178 190.611 84.0328V67.6293C190.611 61.2042 186.031 56 180.379 56Z" fill="#FDCDCA"/>
    <path d="M155.621 91.0259C164.311 91.0259 171.356 83.9809 171.356 75.2905C171.356 66.6001 164.311 59.5552 155.621 59.5552C146.931 59.5552 139.886 66.6001 139.886 75.2905C139.886 83.9809 146.931 91.0259 155.621 91.0259Z" fill="#F1F1FB"/>
    <path opacity="0.78" d="M146.3 81.3289H148.112V76.4371C148.112 75.3718 148.925 74.505 149.926 74.505C150.928 74.505 151.741 75.3683 151.741 76.4371V81.3306H154.176V74.1441C154.176 73.0787 154.989 72.2119 155.99 72.2119C156.992 72.2119 157.805 73.0753 157.805 74.1441V81.3306H160.238V67.4324C160.238 66.3602 161.053 65.4968 162.053 65.4968C163.053 65.4968 163.868 66.3602 163.868 67.429V81.3271H165.679C165.816 81.3271 165.948 81.3817 166.045 81.4789C166.142 81.576 166.197 81.7078 166.197 81.8451C166.197 81.9825 166.142 82.1143 166.045 82.2114C165.948 82.3086 165.816 82.3632 165.679 82.3632H146.3C146.163 82.3632 146.031 82.3086 145.934 82.2114C145.837 82.1143 145.782 81.9825 145.782 81.8451C145.782 81.7078 145.837 81.576 145.934 81.4789C146.031 81.3817 146.163 81.3271 146.3 81.3271V81.3289Z" fill="#B8B8E8"/>
    <defs>
        <linearGradient id="paint0_linear" x1="300.131" y1="288.777" x2="351.58" y2="209.584" gradientUnits="userSpaceOnUse">
            <stop offset="0.03" stop-color="white"/>
            <stop offset="0.41" stop-color="#F0F2F6"/>
            <stop offset="1" stop-color="#D0D6E5"/>
        </linearGradient>
        <linearGradient id="paint1_linear" x1="325.72" y1="242.69" x2="407.911" y2="273.771" gradientUnits="userSpaceOnUse">
            <stop offset="0.03" stop-color="white"/>
            <stop offset="0.63" stop-color="#F0F2FA"/>
            <stop offset="1" stop-color="#E4E8F6"/>
        </linearGradient>
        <linearGradient id="paint2_linear" x1="8013.89" y1="18360.7" x2="8428.84" y2="14828.6" gradientUnits="userSpaceOnUse">
            <stop offset="0.07" stop-color="#EADFCF"/>
            <stop offset="0.8" stop-color="#E58057"/>
        </linearGradient>
        <linearGradient id="paint3_linear" x1="-73702.5" y1="-6184.45" x2="-73134.7" y2="-9406.07" gradientUnits="userSpaceOnUse">
            <stop offset="0.07" stop-color="#EADFCF"/>
            <stop offset="0.8" stop-color="#E58057"/>
        </linearGradient>
        <linearGradient id="paint4_linear" x1="-371069" y1="15304.5" x2="-353974" y2="39146.8" gradientUnits="userSpaceOnUse">
            <stop offset="0.15" stop-color="#884C59"/>
            <stop offset="0.25" stop-color="#6D3C4D"/>
            <stop offset="0.39" stop-color="#47263D"/>
            <stop offset="0.53" stop-color="#2B1631"/>
            <stop offset="0.64" stop-color="#1B0C2A"/>
            <stop offset="0.73" stop-color="#150927"/>
        </linearGradient>
        <linearGradient id="paint5_linear" x1="10466.8" y1="20628.2" x2="9917.87" y2="20645.8" gradientUnits="userSpaceOnUse">
            <stop offset="0.07" stop-color="#EADFCF"/>
            <stop offset="0.8" stop-color="#E58057"/>
        </linearGradient>
        <linearGradient id="paint6_linear" x1="27959.5" y1="-37129.2" x2="27965.2" y2="-37739.5" gradientUnits="userSpaceOnUse">
            <stop stop-color="#F2B3A5"/>
            <stop offset="0.32" stop-color="#F2B5A8"/>
            <stop offset="0.51" stop-color="#F4BCB0"/>
            <stop offset="0.67" stop-color="#F6C8BE"/>
            <stop offset="0.8" stop-color="#F9D9D2"/>
            <stop offset="0.93" stop-color="#FCEFEC"/>
            <stop offset="1" stop-color="white"/>
        </linearGradient>
        <linearGradient id="paint7_linear" x1="-151120" y1="8791.18" x2="-148185" y2="16430.3" gradientUnits="userSpaceOnUse">
            <stop offset="0.15" stop-color="#884C59"/>
            <stop offset="0.25" stop-color="#6D3C4D"/>
            <stop offset="0.39" stop-color="#47263D"/>
            <stop offset="0.53" stop-color="#2B1631"/>
            <stop offset="0.64" stop-color="#1B0C2A"/>
            <stop offset="0.73" stop-color="#150927"/>
        </linearGradient>
    </defs>
</svg>
