<svg width="85" height="56" viewBox="0 0 85 56" fill="none" xmlns="http://www.w3.org/2000/svg">
    <path opacity="0.6" d="M37.7869 52.04C34.1602 54.6533 29.7869 55.96 24.6669 55.96C19.5469 55.96 15.1469 54.6533 11.4669 52.04C7.84021 49.3733 5.17354 46.0133 3.46688 41.96C1.81354 37.8533 0.986875 33.32 0.986875 28.36C0.986875 20.6267 3.04021 14.12 7.14688 8.84C11.2535 3.50666 17.0935 0.839996 24.6669 0.839996C32.2402 0.839996 38.0802 3.50666 42.1869 8.84C46.2935 14.12 48.3469 20.6267 48.3469 28.36C48.3469 33.32 47.4935 37.8533 45.7869 41.96C44.1335 46.0133 41.4669 49.3733 37.7869 52.04ZM17.2269 28.36C17.2269 37.2667 19.7069 41.72 24.6669 41.72C29.6269 41.72 32.1069 37.2667 32.1069 28.36C32.1069 19.5067 29.6269 15.08 24.6669 15.08C19.7069 15.08 17.2269 19.5067 17.2269 28.36ZM84.1013 55H67.9413V22.2L58.9013 31.16L49.7812 21.64L70.1813 1.64H84.1013V55Z" fill="#B8B8E8"/>
</svg>
