<svg width="97" height="56" viewBox="0 0 97 56" fill="none" xmlns="http://www.w3.org/2000/svg">
    <path opacity="0.5" d="M37.5916 52.04C33.9649 54.6533 29.5916 55.96 24.4716 55.96C19.3516 55.96 14.9516 54.6533 11.2716 52.04C7.6449 49.3733 4.97823 46.0133 3.27156 41.96C1.61823 37.8533 0.791563 33.32 0.791563 28.36C0.791563 20.6267 2.8449 14.12 6.95156 8.84C11.0582 3.50666 16.8982 0.839996 24.4716 0.839996C32.0449 0.839996 37.8849 3.50666 41.9916 8.84C46.0982 14.12 48.1516 20.6267 48.1516 28.36C48.1516 33.32 47.2982 37.8533 45.5916 41.96C43.9382 46.0133 41.2716 49.3733 37.5916 52.04ZM17.0316 28.36C17.0316 37.2667 19.5116 41.72 24.4716 41.72C29.4316 41.72 31.9116 37.2667 31.9116 28.36C31.9116 19.5067 29.4316 15.08 24.4716 15.08C19.5116 15.08 17.0316 19.5067 17.0316 28.36ZM96.4659 55H52.8659V42.44C59.5326 37.7467 64.4126 34.28 67.5059 32.04C70.5993 29.8 73.1859 27.7733 75.2659 25.96C77.3459 24.1467 78.5726 22.84 78.9459 22.04C79.3726 21.24 79.5859 20.3067 79.5859 19.24C79.5859 18.0133 78.9993 17.0267 77.8259 16.28C76.6526 15.48 75.1859 15.08 73.4259 15.08C68.4126 15.08 63.7193 16.92 59.3459 20.6L50.5459 9.88C53.4259 6.78666 56.8659 4.52 60.8659 3.08C64.9193 1.58666 68.9993 0.839996 73.1059 0.839996C79.9859 0.839996 85.5059 2.57333 89.6659 6.04C93.8793 9.45333 95.9859 13.8533 95.9859 19.24C95.9859 22.9733 94.7326 26.4933 92.2259 29.8C89.7193 33.1067 85.3459 36.8133 79.1059 40.92H96.4659V55Z" fill="#B8B8E8"/>
</svg>
