<svg width="97" height="56" viewBox="0 0 97 56" fill="none" xmlns="http://www.w3.org/2000/svg">
    <path opacity="0.5" d="M37.4353 52.04C33.8086 54.6533 29.4353 55.96 24.3153 55.96C19.1953 55.96 14.7953 54.6533 11.1153 52.04C7.48865 49.3733 4.82198 46.0133 3.11531 41.96C1.46198 37.8533 0.635313 33.32 0.635313 28.36C0.635313 20.6267 2.68865 14.12 6.79531 8.84C10.902 3.50666 16.742 0.839996 24.3153 0.839996C31.8886 0.839996 37.7286 3.50666 41.8353 8.84C45.942 14.12 47.9953 20.6267 47.9953 28.36C47.9953 33.32 47.142 37.8533 45.4353 41.96C43.782 46.0133 41.1153 49.3733 37.4353 52.04ZM16.8753 28.36C16.8753 37.2667 19.3553 41.72 24.3153 41.72C29.2753 41.72 31.7553 37.2667 31.7553 28.36C31.7553 19.5067 29.2753 15.08 24.3153 15.08C19.3553 15.08 16.8753 19.5067 16.8753 28.36ZM73.4297 55.96C68.363 55.96 63.8297 55.2133 59.8297 53.72C55.883 52.1733 52.7364 50.1467 50.3897 47.64L58.3097 36.6C60.2297 38.2533 62.5497 39.5333 65.2697 40.44C67.9897 41.2933 70.4964 41.72 72.7897 41.72C75.2964 41.72 77.2164 41.3733 78.5497 40.68C79.883 39.9867 80.5497 39.1333 80.5497 38.12C80.5497 37.1067 79.9897 36.3867 78.8697 35.96C77.803 35.48 75.6164 35.24 72.3097 35.24C68.203 35.24 65.6164 35.2933 64.5497 35.4V21.08C65.243 21.1333 67.8297 21.16 72.3097 21.16C77.2164 21.16 79.6697 20.28 79.6697 18.52C79.6697 16.2267 77.0297 15.08 71.7497 15.08C66.7897 15.08 62.443 16.6267 58.7097 19.72L51.1097 9.64C56.443 3.77333 63.9097 0.839996 73.5097 0.839996C80.7097 0.839996 86.203 2.17333 89.9897 4.84C93.8297 7.50666 95.7497 11.1067 95.7497 15.64C95.7497 18.4667 94.6297 21.0267 92.3897 23.32C90.203 25.56 87.403 26.9467 83.9897 27.48C87.243 27.8533 90.1497 29.16 92.7097 31.4C95.323 33.64 96.6297 36.4933 96.6297 39.96C96.6297 44.7067 94.4964 48.5733 90.2297 51.56C85.963 54.4933 80.363 55.96 73.4297 55.96Z" fill="#B8B8E8"/>
</svg>
