<svg width="100" height="56" viewBox="0 0 100 56" fill="none" xmlns="http://www.w3.org/2000/svg">
    <path opacity="0.5" d="M37.6931 52.04C34.0665 54.6533 29.6931 55.96 24.5731 55.96C19.4531 55.96 15.0531 54.6533 11.3731 52.04C7.74646 49.3733 5.07979 46.0133 3.37313 41.96C1.71979 37.8533 0.893125 33.32 0.893125 28.36C0.893125 20.6267 2.94646 14.12 7.05313 8.84C11.1598 3.50666 16.9998 0.839996 24.5731 0.839996C32.1465 0.839996 37.9865 3.50666 42.0931 8.84C46.1998 14.12 48.2531 20.6267 48.2531 28.36C48.2531 33.32 47.3998 37.8533 45.6931 41.96C44.0398 46.0133 41.3731 49.3733 37.6931 52.04ZM17.1331 28.36C17.1331 37.2667 19.6131 41.72 24.5731 41.72C29.5331 41.72 32.0131 37.2667 32.0131 28.36C32.0131 19.5067 29.5331 15.08 24.5731 15.08C19.6131 15.08 17.1331 19.5067 17.1331 28.36ZM92.9675 55H76.8075V46.44H51.1275V34.04L70.5675 1.64H92.9675V32.36H99.1275V46.44H92.9675V55ZM76.8075 32.36V15.56L66.7275 32.36H76.8075Z" fill="#B8B8E8"/>
</svg>
