<svg width="217" height="204" viewBox="0 0 217 204" fill="none" xmlns="http://www.w3.org/2000/svg">
    <path opacity="0.5" fill-rule="evenodd" clip-rule="evenodd" d="M132.598 174.141C120.879 175.348 108.467 179.251 98.1284 173.586C87.0846 167.534 77.5741 156.12 76.7069 143.514C75.8632 131.249 89.7098 123.49 93.8872 111.931C98.2146 99.9576 91.87 83.9074 101.321 75.4096C110.735 66.9442 125.637 70.3979 138.152 72.1289C149.745 73.7323 160.941 77.4006 169.947 84.9013C178.889 92.3489 186.953 102.144 188.129 113.753C189.244 124.76 181.001 133.912 175.905 143.725C171.475 152.254 168.235 161.659 160.385 167.172C152.365 172.805 142.333 173.138 132.598 174.141Z" fill="#FDCDCA"/>
    <path opacity="0.5" fill-rule="evenodd" clip-rule="evenodd" d="M66.3816 95.6451C63.6581 79.3809 57.1069 62.3862 64.1063 47.4422C71.5831 31.4786 86.6869 17.1827 104.221 14.8558C121.28 12.5919 133.345 31.2487 149.862 36.0618C166.972 41.0477 188.833 30.7642 201.54 43.2147C214.199 55.6177 210.693 76.7412 209.382 94.378C208.168 110.715 204.034 126.679 194.353 139.924C184.74 153.075 171.77 165.207 155.657 167.877C140.377 170.409 126.864 159.704 112.704 153.453C100.396 148.019 86.9722 144.325 78.575 133.846C69.9961 123.14 68.6439 109.155 66.3816 95.6451Z" fill="#FDCDCA"/>
    <path opacity="0.5" fill-rule="evenodd" clip-rule="evenodd" d="M45.088 66.7042C51.9857 52.478 56.2966 35.5563 70.0625 27.7585C84.7677 19.4286 104.51 16.6355 119.508 24.548C134.101 32.2463 133.178 53.5276 143.419 66.4573C154.028 79.8515 176.825 83.9452 179.849 100.731C182.861 117.453 168.396 132.021 157.583 145.081C147.567 157.178 135.474 167.365 120.555 172.345C105.741 177.291 88.8679 179.577 74.7894 172.721C61.4397 166.22 56.8166 150.351 49.2169 137.606C42.611 126.527 34.1666 116.189 33.4181 103.336C32.6534 90.2049 39.3582 78.5215 45.088 66.7042Z" fill="#FDCDCA"/>
    <path opacity="0.5" fill-rule="evenodd" clip-rule="evenodd" d="M197.286 76.8044C202.762 93.2166 212.325 109.761 207.508 126.392C202.364 144.157 189.042 161.437 171.25 166.71C153.938 171.84 138.39 154.472 120.486 152.178C101.939 149.802 80.9606 164.027 65.7588 153.196C50.615 142.407 50.8025 119.942 49.2835 101.449C47.8764 84.3196 49.5561 67.0988 57.4292 51.7921C65.2467 36.5936 76.7095 21.9034 92.9739 16.5073C108.396 11.3905 124.149 20.2802 139.844 24.4489C153.487 28.0726 168.002 29.7105 178.415 39.2013C189.053 48.8974 192.737 63.1712 197.286 76.8044Z" fill="#FDCDCA"/>
    <path opacity="0.3" fill-rule="evenodd" clip-rule="evenodd" d="M107.467 15.1314C127.201 11.5773 150.208 -2.38637 165.928 10.0759C181.793 22.653 168.382 49.5281 175.006 68.6738C181.859 88.4804 206.664 101.427 204.756 122.301C202.816 143.524 183.063 158.581 165.667 170.86C148.472 182.997 128.497 191.556 107.467 190.972C86.788 190.397 68.0724 180.177 51.5681 167.688C35.3326 155.403 19.8997 140.527 14.7517 120.813C9.74457 101.638 15.2709 81.2084 24.3923 63.6192C32.5286 47.9296 47.2661 37.6031 62.5194 28.7003C76.3781 20.6114 91.6793 17.9749 107.467 15.1314Z" fill="#FEE6E4"/>
    <rect x="84.8604" y="44" width="56.022" height="108" rx="3" fill="white" stroke="#273271" stroke-width="2"/>
    <rect x="83.8604" y="56.2968" width="58.022" height="2.02402" fill="#273271"/>
    <rect x="83.8604" y="136.883" width="58.022" height="2.02402" fill="#273271"/>
    <rect x="103.604" y="142.927" width="19.3407" height="3.62637" rx="1.81319" fill="#B8B8E8"/>
    <path d="M109.439 78.011C109.439 75.2496 111.678 73.011 114.439 73.011H164.894C167.655 73.011 169.894 75.2496 169.894 78.011V108.722C169.894 111.483 167.655 113.722 164.894 113.722H134.378C133.653 113.722 133.082 114.269 132.988 114.937C132.44 118.831 131.219 120.911 129.303 122.222C127.296 123.595 124.384 124.237 120.129 124.842C120.129 124.842 120.129 124.842 120.129 124.842C120.129 124.842 120.129 124.842 120.129 124.841C120.13 124.84 120.132 124.838 120.135 124.835C121.763 123.04 123.001 121.523 123.632 119.94C124.295 118.277 124.257 116.632 123.582 114.662C123.387 114.093 122.851 113.722 122.263 113.722H114.439C111.678 113.722 109.439 111.483 109.439 108.722V78.011Z" fill="#FDD9D6" stroke="#273271" stroke-width="2"/>
    <path fill-rule="evenodd" clip-rule="evenodd" d="M142.237 83.8995C145.168 84.9347 147.267 87.7294 147.267 91.0145V97.3107C147.267 98.0135 147.769 98.6164 148.46 98.7448C150.204 99.0688 149.967 101.638 148.193 101.638H131.254C129.48 101.638 129.244 99.0688 130.988 98.7448C131.679 98.6164 132.18 98.0135 132.18 97.3107V91.0145C132.18 87.7298 134.279 84.9354 137.21 83.8999C137.248 82.2215 138.359 80.8755 139.723 80.8755C141.088 80.8755 142.198 82.2213 142.237 83.8995Z" fill="white"/>
    <path d="M139.724 104.06C141.452 104.06 142.853 102.758 142.853 101.153H136.595C136.595 102.758 137.996 104.06 139.724 104.06Z" fill="white"/>
</svg>
