<svg width="34" height="34" viewBox="0 0 34 34" fill="none" xmlns="http://www.w3.org/2000/svg">
    <path d="M14 33.5V24.5H10V17.5H14C13.9108 10.5437 15.0883 8.15708 20.5 8.00003H26V14H21.5C20.6255 14.0877 20.4881 14.4984 20.5 15.5V17.5H26L25 24.5H20.5V33.5" stroke="#273271"/>
    <path fill-rule="evenodd" clip-rule="evenodd" d="M4 1H30C31.6569 1 33 2.34315 33 4V30C33 31.6569 31.6569 33 30 33H20V34H30C32.2091 34 34 32.2091 34 30V4C34 1.79086 32.2091 0 30 0H4C1.79086 0 0 1.79086 0 4V30C0 32.2091 1.79086 34 4 34H14.5V33H4C2.34315 33 1 31.6569 1 30V4C1 2.34315 2.34315 1 4 1Z" fill="#273271"/>
</svg>
