<svg width="216" height="204" viewBox="0 0 216 204" fill="none" xmlns="http://www.w3.org/2000/svg">
    <path opacity="0.5" fill-rule="evenodd" clip-rule="evenodd" d="M131.738 174.415C120.019 175.623 107.607 179.526 97.2681 173.861C86.2242 167.809 76.7138 156.395 75.8466 143.789C75.0029 131.524 88.8494 123.765 93.0268 112.206C97.3543 100.232 91.0097 84.1821 100.46 75.6842C109.875 67.2188 124.777 70.6726 137.292 72.4036C148.885 74.007 160.08 77.6753 169.086 85.1759C178.028 92.6236 186.092 102.419 187.268 114.027C188.383 125.035 180.141 134.186 175.045 143.999C170.615 152.529 167.375 161.933 159.525 167.447C151.504 173.08 141.472 173.412 131.738 174.415Z" fill="#FDCDCA"/>
    <path opacity="0.5" fill-rule="evenodd" clip-rule="evenodd" d="M65.5212 95.9197C62.7977 79.6556 56.2466 62.6609 63.2459 47.7169C70.7228 31.7533 85.8265 17.4574 103.361 15.1305C120.42 12.8666 132.485 31.5234 149.001 36.3364C166.112 41.3224 187.972 31.0389 200.68 43.4894C213.339 55.8924 209.833 77.0159 208.522 94.6526C207.308 110.989 203.174 126.954 193.492 140.199C183.879 153.35 170.909 165.482 154.796 168.152C139.517 170.684 126.003 159.979 111.844 153.728C99.536 148.294 86.1119 144.6 77.7147 134.121C69.1358 123.415 67.7836 109.43 65.5212 95.9197Z" fill="#FDCDCA"/>
    <path opacity="0.5" fill-rule="evenodd" clip-rule="evenodd" d="M44.2276 66.9788C51.1254 52.7526 55.4363 35.831 69.2022 28.0331C83.9073 19.7033 103.649 16.9101 118.648 24.8227C133.241 32.521 132.318 53.8022 142.558 66.7319C153.167 80.1262 175.964 84.2198 178.988 101.006C182.001 117.728 167.536 132.296 156.723 145.356C146.706 157.453 134.614 167.639 119.694 172.62C104.88 177.566 88.0075 179.852 73.9291 172.996C60.5794 166.495 55.9562 150.626 48.3566 137.88C41.7506 126.801 33.3062 116.463 32.5577 103.61C31.7931 90.4796 38.4979 78.7962 44.2276 66.9788Z" fill="#FDCDCA"/>
    <path opacity="0.5" fill-rule="evenodd" clip-rule="evenodd" d="M196.425 77.0791C201.902 93.4913 211.464 110.036 206.648 126.666C201.504 144.431 188.182 161.712 170.389 166.985C153.078 172.114 137.53 154.746 119.626 152.453C101.079 150.077 80.1003 164.302 64.8984 153.471C49.7547 142.682 49.9422 120.217 48.4231 101.724C47.0161 84.5942 48.6958 67.3735 56.5689 52.0668C64.3863 36.8682 75.8491 22.1781 92.1136 16.7819C107.536 11.6651 123.289 20.5548 138.984 24.7236C152.626 28.3473 167.142 29.9852 177.555 39.476C188.193 49.1721 191.876 63.4459 196.425 77.0791Z" fill="#FDCDCA"/>
    <path opacity="0.3" fill-rule="evenodd" clip-rule="evenodd" d="M104.409 15.5127C124.965 11.8249 148.931 -2.66435 165.306 10.2669C181.832 23.3174 167.862 51.2039 174.762 71.0702C181.9 91.6221 207.739 105.056 205.752 126.715C203.731 148.737 183.154 164.361 165.034 177.102C147.123 189.695 126.315 198.577 104.409 197.971C82.8684 197.374 63.3729 186.77 46.1809 173.811C29.269 161.063 13.193 145.628 7.83047 125.171C2.61474 105.275 8.37129 84.0765 17.8728 65.8253C26.3481 49.5452 41.6997 38.8301 57.5885 29.5922C72.0247 21.199 87.9634 18.4632 104.409 15.5127Z" fill="#FEE6E4"/>
    <path d="M60.3055 92.7649C59.8281 93.0426 59.6663 93.6548 59.944 94.1321C60.2217 94.6095 60.8339 94.7713 61.3112 94.4936L60.3055 92.7649ZM161.272 94.4786C161.741 94.7701 162.358 94.6261 162.649 94.157C162.941 93.6879 162.797 93.0713 162.327 92.7799L161.272 94.4786ZM112.444 63.5869L112.947 64.4512L112.444 63.5869ZM61.3112 94.4936L112.947 64.4512L111.941 62.7225L60.3055 92.7649L61.3112 94.4936ZM112.947 64.4512L161.272 94.4786L162.327 92.7799L114.002 62.7524L112.947 64.4512ZM112.947 64.4512L112.947 64.4512L114.002 62.7524C113.373 62.3618 112.581 62.3503 111.941 62.7225L112.947 64.4512Z" fill="#141939"/>
    <rect x="72.1879" y="41" width="77.7586" height="96.7241" fill="white"/>
    <g opacity="0.6">
        <mask id="path-8-inside-1" fill="white">
            <rect x="81.671" y="64.9564" width="58.7931" height="21.5608" rx="0.5"/>
        </mask>
        <rect x="81.671" y="64.9564" width="58.7931" height="21.5608" rx="0.5" stroke="#F59E35" stroke-width="4" mask="url(#path-8-inside-1)"/>
    </g>
    <rect opacity="0.6" x="81.671" y="52.4791" width="58.7931" height="4.49183" rx="0.5" fill="#F59E35"/>
    <rect x="81.671" y="93.7042" width="26.5517" height="3.59347" fill="#B8B8E8"/>
    <rect x="113.913" y="93.7042" width="26.5517" height="3.59347" fill="#B8B8E8"/>
    <rect x="81.671" y="100.891" width="26.5517" height="3.59347" fill="#B8B8E8"/>
    <rect x="113.913" y="100.891" width="26.5517" height="3.59347" fill="#B8B8E8"/>
    <rect x="81.671" y="108.078" width="26.5517" height="3.59347" fill="#B8B8E8"/>
    <rect x="113.913" y="108.078" width="26.5517" height="3.59347" fill="#B8B8E8"/>
    <rect x="81.671" y="115.265" width="26.5517" height="3.59347" fill="#B8B8E8"/>
    <rect x="113.913" y="115.265" width="26.5517" height="3.59347" fill="#B8B8E8"/>
    <rect x="81.671" y="122.452" width="26.5517" height="3.59347" fill="#ACEBF4"/>
    <rect x="113.913" y="122.452" width="26.5517" height="3.59347" fill="#ACEBF4"/>
    <rect x="81.671" y="129.639" width="26.5517" height="3.59347" fill="#ACEBF4"/>
    <rect x="113.913" y="129.639" width="26.5517" height="3.59347" fill="#ACEBF4"/>
    <mask id="path-22-inside-2" fill="white">
        <path d="M163.222 93.9399V150C163.222 150.552 162.775 151 162.222 151H59.8604V93.9399C59.8604 93.1699 60.6941 92.6888 61.3608 93.0741L111.541 122.078L161.722 93.0741C162.389 92.6888 163.222 93.1699 163.222 93.9399Z"/>
    </mask>
    <path d="M163.222 93.9399V150C163.222 150.552 162.775 151 162.222 151H59.8604V93.9399C59.8604 93.1699 60.6941 92.6888 61.3608 93.0741L111.541 122.078L161.722 93.0741C162.389 92.6888 163.222 93.1699 163.222 93.9399Z" fill="#FDCDCA"/>
    <path d="M111.053 121.205L59.372 150.127L60.3487 151.873L112.03 122.95L111.053 121.205ZM59.8604 151H57.8604V153H59.8604V151ZM161.722 93.0741L160.721 91.3425V91.3425L161.722 93.0741ZM111.541 122.078L110.541 123.809C111.16 124.167 111.923 124.167 112.542 123.809L111.541 122.078ZM61.3608 93.0741L62.3616 91.3425V91.3425L61.3608 93.0741ZM161.222 93.9399V150H165.222V93.9399H161.222ZM162.222 149H59.8604V153H162.222V149ZM61.8604 151V93.9399H57.8604V151H61.8604ZM160.721 91.3425L110.541 120.346L112.542 123.809L162.723 94.8057L160.721 91.3425ZM60.3599 94.8057L110.541 123.809L112.542 120.346L62.3616 91.3425L60.3599 94.8057ZM161.222 150C161.222 149.448 161.67 149 162.222 149V153C163.879 153 165.222 151.657 165.222 150H161.222ZM165.222 93.9399C165.222 91.6299 162.721 90.1866 160.721 91.3425L162.723 94.8057C162.056 95.191 161.222 94.7099 161.222 93.9399H165.222ZM61.8604 93.9399C61.8604 94.7099 61.0266 95.191 60.3599 94.8057L62.3616 91.3425C60.3616 90.1866 57.8604 91.6299 57.8604 93.9399H61.8604Z" fill="#273271" mask="url(#path-22-inside-2)"/>
</svg>
