<svg width="105" height="110" viewBox="0 0 105 110" fill="none" xmlns="http://www.w3.org/2000/svg">
    <path d="M1.4451 51.7649C0.967738 52.0426 0.805909 52.6548 1.08365 53.1321C1.36139 53.6095 1.97353 53.7713 2.45089 53.4936L1.4451 51.7649ZM102.412 53.4786C102.881 53.7701 103.497 53.6261 103.789 53.157C104.08 52.6879 103.936 52.0713 103.467 51.7799L102.412 53.4786ZM53.5833 22.5869L54.0862 23.4512L53.5833 22.5869ZM2.45089 53.4936L54.0862 23.4512L53.0804 21.7225L1.4451 51.7649L2.45089 53.4936ZM54.0862 23.4512L102.412 53.4786L103.467 51.7799L55.1418 21.7524L54.0862 23.4512ZM54.0862 23.4512L54.0862 23.4512L55.1418 21.7524C54.5131 21.3618 53.7202 21.3503 53.0804 21.7225L54.0862 23.4512Z" fill="#141939"/>
    <rect x="13.3276" width="77.7586" height="96.7241" fill="white"/>
    <g opacity="0.6">
        <mask id="path-3-inside-1" fill="white">
            <rect x="22.8107" y="23.9564" width="58.7931" height="21.5608" rx="0.5"/>
        </mask>
        <rect x="22.8107" y="23.9564" width="58.7931" height="21.5608" rx="0.5" stroke="#F59E35" stroke-width="4" mask="url(#path-3-inside-1)"/>
    </g>
    <rect opacity="0.6" x="22.8107" y="11.4791" width="58.7931" height="4.49183" rx="0.5" fill="#F59E35"/>
    <rect x="22.8107" y="52.7042" width="26.5517" height="3.59347" fill="#B8B8E8"/>
    <rect x="55.0524" y="52.7042" width="26.5517" height="3.59347" fill="#B8B8E8"/>
    <rect x="22.8107" y="59.8911" width="26.5517" height="3.59347" fill="#B8B8E8"/>
    <rect x="55.0524" y="59.8911" width="26.5517" height="3.59347" fill="#B8B8E8"/>
    <rect x="22.8107" y="67.078" width="26.5517" height="3.59347" fill="#B8B8E8"/>
    <rect x="55.0524" y="67.078" width="26.5517" height="3.59347" fill="#B8B8E8"/>
    <rect x="22.8107" y="74.265" width="26.5517" height="3.59347" fill="#B8B8E8"/>
    <rect x="55.0524" y="74.265" width="26.5517" height="3.59347" fill="#B8B8E8"/>
    <rect x="22.8107" y="81.4519" width="26.5517" height="3.59347" fill="#ACEBF4"/>
    <rect x="55.0524" y="81.4519" width="26.5517" height="3.59347" fill="#ACEBF4"/>
    <rect x="22.8107" y="88.6388" width="26.5517" height="3.59347" fill="#ACEBF4"/>
    <rect x="55.0524" y="88.6388" width="26.5517" height="3.59347" fill="#ACEBF4"/>
    <mask id="path-17-inside-2" fill="white">
        <path d="M104.362 52.9399V109C104.362 109.552 103.914 110 103.362 110H1V52.9399C1 52.1699 1.83374 51.6888 2.50041 52.0741L52.681 81.0776L102.862 52.0741C103.528 51.6888 104.362 52.1699 104.362 52.9399Z"/>
    </mask>
    <path d="M104.362 52.9399V109C104.362 109.552 103.914 110 103.362 110H1V52.9399C1 52.1699 1.83374 51.6888 2.50041 52.0741L52.681 81.0776L102.862 52.0741C103.528 51.6888 104.362 52.1699 104.362 52.9399Z" fill="#FDCDCA"/>
    <path d="M52.1927 80.205L0.51164 109.127L1.48836 110.873L53.1694 81.9502L52.1927 80.205ZM1 110H-1V112H1V110ZM102.862 52.0741L101.861 50.3425L101.861 50.3425L102.862 52.0741ZM52.681 81.0776L51.6802 82.8092C52.2994 83.1671 53.0626 83.1671 53.6819 82.8092L52.681 81.0776ZM2.50041 52.0741L3.50123 50.3425L3.50123 50.3425L2.50041 52.0741ZM102.362 52.9399V109H106.362V52.9399H102.362ZM103.362 108H1V112H103.362V108ZM3 110V52.9399H-1V110H3ZM101.861 50.3425L51.6802 79.346L53.6819 82.8092L103.862 53.8057L101.861 50.3425ZM1.49959 53.8057L51.6802 82.8092L53.6819 79.346L3.50123 50.3425L1.49959 53.8057ZM102.362 109C102.362 108.448 102.81 108 103.362 108V112C105.019 112 106.362 110.657 106.362 109H102.362ZM106.362 52.9399C106.362 50.6299 103.861 49.1866 101.861 50.3425L103.862 53.8057C103.196 54.191 102.362 53.7099 102.362 52.9399H106.362ZM3 52.9399C3 53.7099 2.16626 54.191 1.49959 53.8057L3.50123 50.3425C1.50123 49.1866 -1 50.6299 -1 52.9399H3Z" fill="#273271" mask="url(#path-17-inside-2)"/>
</svg>
