<svg width="238" height="249" viewBox="0 0 238 249" fill="none" xmlns="http://www.w3.org/2000/svg">
    <path opacity="0.6" fill-rule="evenodd" clip-rule="evenodd" d="M209.942 94.663C211.262 110.786 195.514 123.579 185.376 137.116C177.834 147.184 167.906 154.298 158.695 163.086C146.19 175.017 139.017 194.007 121.825 197.749C104.055 201.617 84.9227 193.598 72.3681 181.876C60.3741 170.677 58.3258 153.409 57.1077 137.323C56.0707 123.629 58.7234 109.813 65.9833 97.5657C72.5575 86.4757 84.538 80.118 95.4801 72.5917C106.984 64.6791 117.485 55.187 131.325 52.6217C147.517 49.6203 164.843 49.6637 178.828 57.1422C193.914 65.2094 208.596 78.2197 209.942 94.663Z" fill="#FDE6CB"/>
    <path opacity="0.6" fill-rule="evenodd" clip-rule="evenodd" d="M21.8687 147.178C26.2111 129.504 46.2477 121.641 61.0041 110.927C71.9795 102.958 84.2786 99.016 96.4554 93.0248C112.986 84.8911 126.723 67.275 145.017 69.5911C163.926 71.9851 180.017 87.5521 188.314 104.655C196.24 120.993 192.216 140.156 187.786 157.753C184.015 172.733 176.556 186.49 165.095 196.884C154.717 206.297 140.655 208.681 127.21 212.692C113.075 216.908 99.377 223.176 84.8073 220.835C67.7603 218.096 50.6604 211.695 39.4646 198.593C27.3874 184.459 17.44 165.203 21.8687 147.178Z" fill="#FDE6CB"/>
    <path opacity="0.2" fill-rule="evenodd" clip-rule="evenodd" d="M82.0639 33.7609C100.988 22.8045 125.34 13.9082 145.159 23.0615C164.837 32.1493 164.946 59.844 177.185 77.6908C188.421 94.0762 209.877 103.474 213.675 122.973C217.704 143.66 209.525 165.149 197.616 182.596C185.662 200.11 168.517 215.321 147.722 219.595C128.033 223.641 109.541 212.027 90.9274 204.522C74.3054 197.82 56.3284 192.608 45.4892 178.373C34.6729 164.168 32.135 145.632 32.4925 127.78C32.8372 110.566 39.4244 94.8759 47.4667 79.6228C56.6167 62.2685 65.0594 43.6061 82.0639 33.7609Z" fill="#F9C586"/>
    <rect x="75.8604" y="89.7693" width="88.7692" height="87.2307" rx="1" fill="#FEFBF8" stroke="#273271" stroke-width="2"/>
    <rect x="74.8604" y="118" width="90.7692" height="1.53846" fill="#141939"/>
    <circle cx="86.3988" cy="103.384" r="3.84615" fill="#F78B89"/>
    <circle cx="97.1678" cy="103.384" r="3.84615" fill="#F78B89"/>
    <rect x="107.167" y="101.846" width="53.0769" height="2.30769" rx="1.15385" fill="#B8B8E8"/>
    <path d="M142.77 103.498C143.116 97.6489 147.46 92.8167 153.24 91.8535L160.047 90.7188C168.618 89.2904 176.44 95.8485 176.529 104.537C176.585 109.931 173.568 114.888 168.752 117.319L163.963 119.736C163.238 120.102 162.436 120.292 161.624 120.292H140.244C136.26 120.292 135.74 114.519 139.66 113.807C141.143 113.538 142.25 112.289 142.339 110.784L142.77 103.498Z" fill="#FEFBF8"/>
    <mask id="path-10-inside-1" fill="white">
        <path fill-rule="evenodd" clip-rule="evenodd" d="M167.549 77.9006C174.16 80.2366 178.897 86.5415 178.897 93.9528V108.158C178.897 109.744 180.028 111.104 181.587 111.394C185.522 112.125 184.989 117.921 180.986 117.921H142.768C138.766 117.921 138.232 112.125 142.167 111.394C143.726 111.104 144.857 109.744 144.857 108.158V93.9528C144.857 86.541 149.595 80.2358 156.207 77.9002C156.294 74.1136 158.799 71.077 161.878 71.077C164.956 71.077 167.462 74.1138 167.549 77.9006Z"/>
    </mask>
    <path fill-rule="evenodd" clip-rule="evenodd" d="M167.549 77.9006C174.16 80.2366 178.897 86.5415 178.897 93.9528V108.158C178.897 109.744 180.028 111.104 181.587 111.394C185.522 112.125 184.989 117.921 180.986 117.921H142.768C138.766 117.921 138.232 112.125 142.167 111.394C143.726 111.104 144.857 109.744 144.857 108.158V93.9528C144.857 86.541 149.595 80.2358 156.207 77.9002C156.294 74.1136 158.799 71.077 161.878 71.077C164.956 71.077 167.462 74.1138 167.549 77.9006Z" fill="#FCE1C0"/>
    <path d="M167.549 77.9006L165.549 77.9464L165.581 79.3265L166.883 79.7864L167.549 77.9006ZM181.587 111.394L181.222 113.36L181.587 111.394ZM142.167 111.394L142.532 113.36L142.167 111.394ZM156.207 77.9002L156.873 79.786L158.175 79.3262L158.206 77.9461L156.207 77.9002ZM166.883 79.7864C172.72 81.8488 176.897 87.4155 176.897 93.9528H180.897C180.897 85.6675 175.601 78.6244 168.215 76.0149L166.883 79.7864ZM176.897 93.9528V108.158H180.897V93.9528H176.897ZM176.897 108.158C176.897 110.708 178.715 112.895 181.222 113.36L181.952 109.427C181.341 109.314 180.897 108.78 180.897 108.158H176.897ZM181.222 113.36C181.697 113.448 181.932 113.655 182.064 113.849C182.217 114.073 182.304 114.392 182.272 114.748C182.239 115.103 182.094 115.402 181.903 115.594C181.738 115.76 181.469 115.921 180.986 115.921V119.921C187.421 119.921 188.279 110.603 181.952 109.427L181.222 113.36ZM180.986 115.921H142.768V119.921H180.986V115.921ZM142.768 115.921C142.285 115.921 142.017 115.76 141.851 115.594C141.66 115.402 141.515 115.103 141.483 114.748C141.45 114.392 141.538 114.073 141.69 113.849C141.823 113.655 142.058 113.448 142.532 113.36L141.802 109.427C135.475 110.603 136.333 119.921 142.768 119.921V115.921ZM142.532 113.36C145.039 112.895 146.857 110.708 146.857 108.158H142.857C142.857 108.78 142.414 109.314 141.802 109.427L142.532 113.36ZM146.857 108.158V93.9528H142.857V108.158H146.857ZM146.857 93.9528C146.857 87.4151 151.035 81.8481 156.873 79.786L155.541 76.0144C148.154 78.6235 142.857 85.667 142.857 93.9528H146.857ZM158.206 77.9461C158.278 74.8362 160.254 73.077 161.878 73.077V69.077C157.345 69.077 154.31 73.391 154.207 77.8543L158.206 77.9461ZM161.878 73.077C163.501 73.077 165.478 74.8363 165.549 77.9464L169.548 77.8548C169.446 73.3913 166.411 69.077 161.878 69.077V73.077Z" fill="#273271" mask="url(#path-10-inside-1)"/>
    <path d="M167.838 117.827C167.328 120.375 164.907 122.385 161.877 122.385C158.847 122.385 156.426 120.375 155.916 117.827H167.838Z" fill="#FCE1C0" stroke="#273271" stroke-width="2"/>
</svg>
