<svg width="213" height="200" viewBox="0 0 213 200" fill="none" xmlns="http://www.w3.org/2000/svg">
    <path opacity="0.6" fill-rule="evenodd" clip-rule="evenodd" d="M87.4381 21.8533C104.338 19.8945 120.287 26.2715 136.085 32.6542C152.266 39.1913 169.066 45.3381 179.786 59.1623C191.376 74.109 200.848 93.1002 197.375 111.694C193.982 129.859 175.85 140.2 162.313 152.701C150.43 163.674 139.445 176.873 123.567 179.85C107.966 182.775 93.7188 172.971 78.4937 168.416C60.6486 163.076 37.3574 166.369 26.8578 150.914C16.3832 135.497 27.5861 114.952 29.5785 96.4178C31.5205 78.3521 27.2407 58.3021 38.3529 43.9816C49.6515 29.4209 69.1651 23.9712 87.4381 21.8533Z" fill="#FDE6CB"/>
    <rect x="106.5" y="60.5015" width="47" height="74" fill="white" stroke="#141939"/>
    <rect x="58.5" y="70.5015" width="47" height="74" fill="white" stroke="#141939"/>
    <path d="M105 97.2829V91.0015H95.3316C94.0721 91.0015 92.9448 91.8136 92.5025 93.0394L78 133.24L83.658 135.446L90.1741 117.383H105V111.102H92.4401L97.4254 97.2829H105Z" fill="#FF8888"/>
    <path d="M130.606 100.276C132.148 98.3507 133.073 95.9132 133.073 93.2627C133.073 87.0533 128.008 82.0015 121.781 82.0015H107V88.144H121.781C124.612 88.144 126.914 90.4403 126.914 93.2627C126.914 96.085 124.611 98.3813 121.781 98.3813H107V104.524H121.781H123.424C128.065 104.524 131.841 108.29 131.841 112.919C131.841 117.548 128.065 121.313 123.424 121.313H107V127.456H123.424C131.461 127.456 138 120.935 138 112.919C138 107.506 135.017 102.779 130.606 100.276Z" fill="#F6BC73"/>
    <rect x="105" y="54.0015" width="2" height="97" rx="1" fill="#141939"/>
    <rect x="59" y="71.0015" width="46" height="11" fill="#B8B8E8"/>
    <rect x="107" y="61.0015" width="46" height="11" fill="#B8B8E8"/>
</svg>
