<svg width="170" height="185" viewBox="0 0 170 185" fill="none" xmlns="http://www.w3.org/2000/svg">
    <path fill-rule="evenodd" clip-rule="evenodd" d="M88.9072 0.00878076C109.261 -0.543492 119.215 25.0896 134.007 39.1524C146.409 50.944 163.206 59.2348 168.397 75.5815C173.578 91.8948 164.846 108.435 161.328 125.19C157.276 144.494 162.47 169.75 146.285 180.913C130.039 192.118 108.531 176.923 88.9072 175.139C71.7357 173.578 54.0236 178.881 38.6065 171.123C21.5743 162.552 2.71037 149.484 0.210845 130.505C-2.28858 111.527 18.0866 98.2866 26.7697 81.2483C33.5817 67.8816 36.4362 53.4593 45.5431 41.5527C58.0191 25.2414 68.4443 0.564019 88.9072 0.00878076Z" fill="#FEF0E0"/>
    <path d="M91.5842 60.5856L42 93.6417L56.4621 123.599L127.223 120.5L138.586 93.6417L91.5842 60.5856Z" stroke="#273271"/>
    <path d="M124.463 58.2974V107.498L121.461 110.5H59.2901L56.2891 107.498V58.2967C56.2915 57.5562 56.5867 56.8468 57.1103 56.3232C57.6339 55.7996 58.3433 55.5044 59.0838 55.502H121.668C122.408 55.5044 123.118 55.7996 123.641 56.3232C124.165 56.8469 124.46 57.5567 124.463 58.2974Z" fill="#F2F2F2" stroke="black"/>
    <path d="M138.138 94.5284V145.585C138.098 145.638 138.054 145.688 138.006 145.733L133.345 150.394C133.3 150.443 133.25 150.487 133.197 150.526H45.9063C45.0335 150.523 44.1971 150.176 43.58 149.558C42.9628 148.941 42.6149 148.105 42.6123 147.232V94.5284L59.0822 110.998H121.668L138.138 94.5284Z" fill="#FCE1C0"/>
    <path d="M95.3164 91.2364C97.1356 91.2364 98.6104 89.7616 98.6104 87.9424C98.6104 86.1232 97.1356 84.6484 95.3164 84.6484C93.4972 84.6484 92.0225 86.1232 92.0225 87.9424C92.0225 89.7616 93.4972 91.2364 95.3164 91.2364Z" fill="#FF5023"/>
    <path d="M85.4351 91.2364C87.2543 91.2364 88.7291 89.7616 88.7291 87.9424C88.7291 86.1232 87.2543 84.6484 85.4351 84.6484C83.6159 84.6484 82.1411 86.1232 82.1411 87.9424C82.1411 89.7616 83.6159 91.2364 85.4351 91.2364Z" fill="#FF5023"/>
    <path d="M101.008 102.902L101.263 103.91H79.4871L80.9788 97.9435L81.0474 97.6689L80.8472 97.4687L77.6997 94.3212V84.6464C77.6997 81.2845 79.0352 78.0603 81.4124 75.6831C83.7896 73.306 87.0137 71.9705 90.3756 71.9705C93.7375 71.9705 96.9616 73.306 99.3388 75.6831C101.716 78.0603 103.052 81.2845 103.052 84.6464V94.3212L99.904 97.4687L99.704 97.6687L99.7724 97.9431L101.008 102.901L101.008 102.902Z" fill="#E0E0E0" stroke="#141939"/>
    <rect x="85.3862" y="98.8068" width="2.06601" height="5.16502" fill="#141939"/>
    <rect x="109.852" y="130.756" width="9.33005" height="5.19803" transform="rotate(-43.7308 109.852 130.756)" fill="#B8B8E8" stroke="#273271"/>
    <rect x="89.5181" y="98.8068" width="2.06601" height="5.16502" fill="#141939"/>
    <path d="M59.0446 111.203L42 94.1583V149.941H138.586V94.1583L121.025 111.203H59.0446Z" stroke="#141939"/>
    <path d="M116.943 124.554C115.696 126.39 114.108 127.972 112.266 129.215C108.53 131.775 103.968 132.852 99.4764 132.234C94.9847 131.616 90.8868 129.348 87.9868 125.875C85.0867 122.401 83.5939 117.973 83.8013 113.459C84.0086 108.946 85.901 104.672 89.1073 101.477C92.3136 98.2821 96.6023 96.3963 101.132 96.1897C105.662 95.9832 110.105 97.4707 113.591 100.361C117.077 103.25 119.353 107.334 119.973 111.81C120.593 116.286 119.513 120.831 116.943 124.554Z" fill="#F6BC73"/>
    <path d="M101.904 125.822C108.272 125.822 113.433 120.66 113.433 114.293C113.433 107.926 108.272 102.764 101.904 102.764C95.5372 102.764 90.3755 107.926 90.3755 114.293C90.3755 120.66 95.5372 125.822 101.904 125.822Z" fill="#FFD8A8"/>
    <path d="M101.904 127.469C104.953 127.467 107.907 126.409 110.262 124.474C112.618 122.539 114.23 119.848 114.823 116.858C115.416 113.867 114.955 110.764 113.516 108.076C112.078 105.389 109.752 103.283 106.935 102.117C104.118 100.952 100.985 100.8 98.068 101.686C95.1513 102.573 92.6322 104.443 90.9399 106.978C89.2476 109.514 88.4869 112.558 88.7873 115.591C89.0877 118.625 90.4307 121.46 92.5875 123.615C93.81 124.839 95.2625 125.81 96.8614 126.472C98.4603 127.133 100.174 127.472 101.904 127.469ZM94.9163 107.31C96.2984 105.928 98.0592 104.987 99.9761 104.606C101.893 104.224 103.88 104.42 105.685 105.168C107.491 105.916 109.034 107.183 110.12 108.808C111.206 110.433 111.785 112.343 111.785 114.298C111.785 116.252 111.206 118.163 110.12 119.788C109.034 121.413 107.491 122.679 105.685 123.427C103.88 124.175 101.893 124.371 99.9761 123.99C98.0592 123.609 96.2984 122.668 94.9163 121.286C93.994 120.37 93.262 119.281 92.7625 118.081C92.263 116.882 92.0059 115.595 92.0059 114.295C92.0059 112.996 92.263 111.709 92.7625 110.509C93.262 109.309 93.994 108.22 94.9163 107.305V107.31Z" fill="#F6BC73"/>
    <path d="M114.978 55.007V64.3396L112.062 60.8398L109.146 64.3396V55.007H114.978Z" fill="#FF8888"/>
    <circle cx="102.121" cy="114.302" r="12.9291" stroke="#273271"/>
    <circle cx="102.173" cy="114.56" r="18.3523" stroke="#273271"/>
    <rect x="112.745" y="135.574" width="12.3422" height="26.0155" rx="0.5" transform="rotate(-43.9773 112.745 135.574)" fill="#B8B8E8" stroke="#273271"/>
    <circle cx="85.3864" cy="86.4107" r="3.13202" fill="#E8443C" stroke="#141939" stroke-width="2"/>
    <circle cx="95.716" cy="86.4107" r="3.13202" fill="#E8443C" stroke="#141939" stroke-width="2"/>
</svg>
