<svg width="159" height="188" viewBox="0 0 159 188" fill="none" xmlns="http://www.w3.org/2000/svg">
    <path fill-rule="evenodd" clip-rule="evenodd" d="M82.0556 16.7109C102.497 11.5473 123.971 -7.3739 142.246 3.11884C160.079 13.3584 157.642 40.3495 158.896 60.8313C159.89 77.0588 153.532 91.7915 148.627 107.296C143.668 122.97 140.612 139.03 130.141 151.722C117.053 167.585 102.645 187.316 82.0556 187.983C61.4482 188.651 46.7433 168.916 31.6444 154.915C18.3686 142.604 3.02626 130.082 0.333556 112.205C-2.23237 95.1695 10.6119 80.5295 18.102 65.0066C24.4284 51.8954 28.9456 37.5845 40.5777 28.8003C52.3489 19.9111 67.7419 20.3266 82.0556 16.7109Z" fill="#FEF4F3"/>
    <rect x="52.4434" y="56.0713" width="57" height="84.9643" fill="#FEFBF8" stroke="#141939"/>
    <rect x="45.5" y="50.9572" width="70.1382" height="95.5447" rx="2.5" stroke="black"/>
    <rect x="61.9634" y="47.502" width="37.2114" height="13.2276" fill="#FDD5D3" stroke="#141939"/>
    <path d="M58 126.002H104V132.002H58V126.002Z" fill="#F6BC73"/>
    <path d="M70.5838 88.2947H58V75.7109H70.5838V88.2947Z" fill="#F6BC73"/>
    <path d="M70.5838 110.586H58V98.002H70.5838V110.586Z" fill="#F6BC73"/>
    <path d="M73 72.1646L71.2226 71.002L64.432 81.9759L62.1689 80.4237L61 82.2248L65.0529 85.002L73 72.1646Z" fill="black"/>
    <path d="M72.5174 95.0034L70.7468 93.877L63.9823 104.509L61.7278 103.005L60.5635 104.751L64.6009 107.441L72.5174 95.0034Z" fill="black"/>
    <path d="M101 130.002H104V132.002H101V130.002Z" fill="#FF8888"/>
    <path d="M58 130.002H97V132.002H58V130.002Z" fill="#FF8888"/>
    <path d="M58 125.002H104V127.002H58V125.002Z" fill="#FF8888"/>
    <rect x="82.833" y="76.502" width="57.6667" height="34.2" rx="0.5" fill="#FFD8A8" stroke="#141939"/>
    <path d="M110.593 96.4141L83.2354 76.9041L141 77.0063L114.089 96.4052C113.046 97.1571 111.64 97.1607 110.593 96.4141Z" fill="#F6BC73"/>
    <path d="M83.2354 76.9041L83.2362 76.4041L82.945 77.3111L83.2354 76.9041ZM110.593 96.4141L110.303 96.8212L110.593 96.4141ZM114.089 96.4052L114.381 96.8108L114.089 96.4052ZM141 77.0063L141.292 77.4119L141 76.5063L141 77.0063ZM82.945 77.3111L110.303 96.8212L110.883 96.007L83.5257 76.497L82.945 77.3111ZM114.381 96.8108L141.292 77.4119L140.707 76.6007L113.797 95.9996L114.381 96.8108ZM141 76.5063L83.2362 76.4041L83.2345 77.4041L140.999 77.5063L141 76.5063ZM110.303 96.8212C111.524 97.6922 113.165 97.688 114.381 96.8108L113.797 95.9996C112.927 96.6262 111.756 96.6292 110.883 96.007L110.303 96.8212Z" fill="#141939"/>
</svg>
